<?xml version="1.0" encoding="utf-8" standalone="no"?>
<!DOCTYPE svg PUBLIC "-//W3C//DTD SVG 1.1//EN"
  "http://www.w3.org/Graphics/SVG/1.1/DTD/svg11.dtd">
<svg xmlns:xlink="http://www.w3.org/1999/xlink" width="576pt" height="216pt" viewBox="0 0 576 216" xmlns="http://www.w3.org/2000/svg" version="1.1">
 <metadata>
  <rdf:RDF xmlns:dc="http://purl.org/dc/elements/1.1/" xmlns:cc="http://creativecommons.org/ns#" xmlns:rdf="http://www.w3.org/1999/02/22-rdf-syntax-ns#">
   <cc:Work>
    <dc:type rdf:resource="http://purl.org/dc/dcmitype/StillImage"/>
    <dc:date>2025-08-02T15:29:52.686369</dc:date>
    <dc:format>image/svg+xml</dc:format>
    <dc:creator>
     <cc:Agent>
      <dc:title>Matplotlib v3.9.0, https://matplotlib.org/</dc:title>
     </cc:Agent>
    </dc:creator>
   </cc:Work>
  </rdf:RDF>
 </metadata>
 <defs>
  <style type="text/css">*{stroke-linejoin: round; stroke-linecap: butt}</style>
 </defs>
 <g id="figure_1">
  <g id="patch_1">
   <path d="M 0 216 
L 576 216 
L 576 0 
L 0 0 
z
" style="fill: #ffffff"/>
  </g>
  <g id="patch_2">
   <path d="M 72 174.727059 
L 203.294118 174.727059 
L 203.294118 43.432941 
L 72 43.432941 
z
" style="fill: #ffffff"/>
  </g>
  <g id="pane3d_1">
   <g id="patch_3">
    <path d="M 81.913611 142.354137 
L 125.271217 106.010932 
L 124.668505 53.597534 
L 79.236014 86.752097 
" style="fill: #f2f2f2; opacity: 0.5; stroke: #f2f2f2; stroke-linejoin: miter"/>
   </g>
  </g>
  <g id="pane3d_2">
   <g id="patch_4">
    <path d="M 125.271217 106.010932 
L 194.844704 126.233198 
L 197.327536 72.014481 
L 124.668505 53.597534 
" style="fill: #e6e6e6; opacity: 0.5; stroke: #e6e6e6; stroke-linejoin: miter"/>
   </g>
  </g>
  <g id="pane3d_3">
   <g id="patch_5">
    <path d="M 81.913611 142.354137 
L 155.664905 166.44131 
L 194.844704 126.233198 
L 125.271217 106.010932 
" style="fill: #ececec; opacity: 0.5; stroke: #ececec; stroke-linejoin: miter"/>
   </g>
  </g>
  <g id="grid3d_1">
   <g id="Line3DCollection_1">
    <path d="M 86.380377 143.812983 
L 129.502463 107.240789 
L 129.078651 54.715378 
" style="fill: none; stroke: #b0b0b0; stroke-width: 0.8"/>
    <path d="M 101.919975 148.888215 
L 144.205059 111.514253 
L 144.411683 58.601855 
" style="fill: none; stroke: #b0b0b0; stroke-width: 0.8"/>
    <path d="M 117.817105 154.080218 
L 159.21762 115.877812 
L 160.082088 62.573845 
" style="fill: none; stroke: #b0b0b0; stroke-width: 0.8"/>
    <path d="M 134.084248 159.393067 
L 174.550054 120.334345 
L 176.101124 66.634204 
" style="fill: none; stroke: #b0b0b0; stroke-width: 0.8"/>
   </g>
  </g>
  <g id="grid3d_2">
   <g id="Line3DCollection_2">
    <path d="M 82.377783 84.459376 
L 84.901317 139.849783 
L 158.375844 163.659219 
" style="fill: none; stroke: #b0b0b0; stroke-width: 0.8"/>
   </g>
  </g>
  <g id="grid3d_3">
   <g id="Line3DCollection_3">
    <path d="M 195.029405 122.199801 
L 125.226293 102.10421 
L 81.714732 138.224284 
" style="fill: none; stroke: #b0b0b0; stroke-width: 0.8"/>
    <path d="M 195.307693 116.122699 
L 125.158632 96.220286 
L 81.414988 131.999896 
" style="fill: none; stroke: #b0b0b0; stroke-width: 0.8"/>
    <path d="M 195.58878 109.984466 
L 125.090324 90.280002 
L 81.112113 125.710508 
" style="fill: none; stroke: #b0b0b0; stroke-width: 0.8"/>
    <path d="M 195.87271 103.784175 
L 125.021358 84.282545 
L 80.806059 119.355097 
" style="fill: none; stroke: #b0b0b0; stroke-width: 0.8"/>
    <path d="M 196.159524 97.52088 
L 124.951725 78.227084 
L 80.496775 112.932617 
" style="fill: none; stroke: #b0b0b0; stroke-width: 0.8"/>
    <path d="M 196.449268 91.193616 
L 124.881415 72.112775 
L 80.18421 106.442001 
" style="fill: none; stroke: #b0b0b0; stroke-width: 0.8"/>
    <path d="M 196.741986 84.801397 
L 124.810419 65.938755 
L 79.868311 99.882158 
" style="fill: none; stroke: #b0b0b0; stroke-width: 0.8"/>
    <path d="M 197.037725 78.343219 
L 124.738726 59.704146 
L 79.549025 93.251976 
" style="fill: none; stroke: #b0b0b0; stroke-width: 0.8"/>
   </g>
  </g>
  <g id="axis3d_1">
   <g id="line2d_1">
    <path d="M 81.913611 142.354137 
L 155.664905 166.44131 
" style="fill: none; stroke: #000000; stroke-width: 0.8; stroke-linecap: square"/>
   </g>
   <g id="xtick_1">
    <g id="line2d_2">
     <path d="M 86.755881 143.494514 
L 85.627756 144.451286 
" style="fill: none; stroke: #000000; stroke-width: 0.8; stroke-linecap: square"/>
    </g>
    <g id="text_1">
     <!-- 0.005 -->
     <g transform="translate(64.508416 167.18233) scale(0.1 -0.1)">
      <defs>
       <path id="DejaVuSans-30" d="M 2034 4250 
Q 1547 4250 1301 3770 
Q 1056 3291 1056 2328 
Q 1056 1369 1301 889 
Q 1547 409 2034 409 
Q 2525 409 2770 889 
Q 3016 1369 3016 2328 
Q 3016 3291 2770 3770 
Q 2525 4250 2034 4250 
z
M 2034 4750 
Q 2819 4750 3233 4129 
Q 3647 3509 3647 2328 
Q 3647 1150 3233 529 
Q 2819 -91 2034 -91 
Q 1250 -91 836 529 
Q 422 1150 422 2328 
Q 422 3509 836 4129 
Q 1250 4750 2034 4750 
z
" transform="scale(0.015625)"/>
       <path id="DejaVuSans-2e" d="M 684 794 
L 1344 794 
L 1344 0 
L 684 0 
L 684 794 
z
" transform="scale(0.015625)"/>
       <path id="DejaVuSans-35" d="M 691 4666 
L 3169 4666 
L 3169 4134 
L 1269 4134 
L 1269 2991 
Q 1406 3038 1543 3061 
Q 1681 3084 1819 3084 
Q 2600 3084 3056 2656 
Q 3513 2228 3513 1497 
Q 3513 744 3044 326 
Q 2575 -91 1722 -91 
Q 1428 -91 1123 -41 
Q 819 9 494 109 
L 494 744 
Q 775 591 1075 516 
Q 1375 441 1709 441 
Q 2250 441 2565 725 
Q 2881 1009 2881 1497 
Q 2881 1984 2565 2268 
Q 2250 2553 1709 2553 
Q 1456 2553 1204 2497 
Q 953 2441 691 2322 
L 691 4666 
z
" transform="scale(0.015625)"/>
      </defs>
      <use xlink:href="#DejaVuSans-30"/>
      <use xlink:href="#DejaVuSans-2e" x="63.623047"/>
      <use xlink:href="#DejaVuSans-30" x="95.410156"/>
      <use xlink:href="#DejaVuSans-30" x="159.033203"/>
      <use xlink:href="#DejaVuSans-35" x="222.65625"/>
     </g>
    </g>
   </g>
   <g id="xtick_2">
    <g id="line2d_3">
     <path d="M 102.288532 148.562464 
L 101.181263 149.541131 
" style="fill: none; stroke: #000000; stroke-width: 0.8; stroke-linecap: square"/>
    </g>
    <g id="text_2">
     <!-- 0.01 -->
     <g transform="translate(83.261526 172.477122) scale(0.1 -0.1)">
      <defs>
       <path id="DejaVuSans-31" d="M 794 531 
L 1825 531 
L 1825 4091 
L 703 3866 
L 703 4441 
L 1819 4666 
L 2450 4666 
L 2450 531 
L 3481 531 
L 3481 0 
L 794 0 
L 794 531 
z
" transform="scale(0.015625)"/>
      </defs>
      <use xlink:href="#DejaVuSans-30"/>
      <use xlink:href="#DejaVuSans-2e" x="63.623047"/>
      <use xlink:href="#DejaVuSans-30" x="95.410156"/>
      <use xlink:href="#DejaVuSans-31" x="159.033203"/>
     </g>
    </g>
   </g>
   <g id="xtick_3">
    <g id="line2d_4">
     <path d="M 118.178292 153.746932 
L 117.093145 154.748253 
" style="fill: none; stroke: #000000; stroke-width: 0.8; stroke-linecap: square"/>
    </g>
    <g id="text_3">
     <!-- 0.05 -->
     <g transform="translate(99.194432 177.894679) scale(0.1 -0.1)">
      <use xlink:href="#DejaVuSans-30"/>
      <use xlink:href="#DejaVuSans-2e" x="63.623047"/>
      <use xlink:href="#DejaVuSans-30" x="95.410156"/>
      <use xlink:href="#DejaVuSans-35" x="159.033203"/>
     </g>
    </g>
   </g>
   <g id="xtick_4">
    <g id="line2d_5">
     <path d="M 134.437621 159.051981 
L 133.375932 160.076753 
" style="fill: none; stroke: #000000; stroke-width: 0.8; stroke-linecap: square"/>
    </g>
    <g id="text_4">
     <!-- 0.1 -->
     <g transform="translate(118.682337 183.439319) scale(0.1 -0.1)">
      <use xlink:href="#DejaVuSans-30"/>
      <use xlink:href="#DejaVuSans-2e" x="63.623047"/>
      <use xlink:href="#DejaVuSans-31" x="95.410156"/>
     </g>
    </g>
   </g>
   <g id="text_5">
    <!-- support -->
    <g transform="translate(82.28057 186.318757) rotate(-341.912962) scale(0.1 -0.1)">
     <defs>
      <path id="DejaVuSans-73" d="M 2834 3397 
L 2834 2853 
Q 2591 2978 2328 3040 
Q 2066 3103 1784 3103 
Q 1356 3103 1142 2972 
Q 928 2841 928 2578 
Q 928 2378 1081 2264 
Q 1234 2150 1697 2047 
L 1894 2003 
Q 2506 1872 2764 1633 
Q 3022 1394 3022 966 
Q 3022 478 2636 193 
Q 2250 -91 1575 -91 
Q 1294 -91 989 -36 
Q 684 19 347 128 
L 347 722 
Q 666 556 975 473 
Q 1284 391 1588 391 
Q 1994 391 2212 530 
Q 2431 669 2431 922 
Q 2431 1156 2273 1281 
Q 2116 1406 1581 1522 
L 1381 1569 
Q 847 1681 609 1914 
Q 372 2147 372 2553 
Q 372 3047 722 3315 
Q 1072 3584 1716 3584 
Q 2034 3584 2315 3537 
Q 2597 3491 2834 3397 
z
" transform="scale(0.015625)"/>
      <path id="DejaVuSans-75" d="M 544 1381 
L 544 3500 
L 1119 3500 
L 1119 1403 
Q 1119 906 1312 657 
Q 1506 409 1894 409 
Q 2359 409 2629 706 
Q 2900 1003 2900 1516 
L 2900 3500 
L 3475 3500 
L 3475 0 
L 2900 0 
L 2900 538 
Q 2691 219 2414 64 
Q 2138 -91 1772 -91 
Q 1169 -91 856 284 
Q 544 659 544 1381 
z
M 1991 3584 
L 1991 3584 
z
" transform="scale(0.015625)"/>
      <path id="DejaVuSans-70" d="M 1159 525 
L 1159 -1331 
L 581 -1331 
L 581 3500 
L 1159 3500 
L 1159 2969 
Q 1341 3281 1617 3432 
Q 1894 3584 2278 3584 
Q 2916 3584 3314 3078 
Q 3713 2572 3713 1747 
Q 3713 922 3314 415 
Q 2916 -91 2278 -91 
Q 1894 -91 1617 61 
Q 1341 213 1159 525 
z
M 3116 1747 
Q 3116 2381 2855 2742 
Q 2594 3103 2138 3103 
Q 1681 3103 1420 2742 
Q 1159 2381 1159 1747 
Q 1159 1113 1420 752 
Q 1681 391 2138 391 
Q 2594 391 2855 752 
Q 3116 1113 3116 1747 
z
" transform="scale(0.015625)"/>
      <path id="DejaVuSans-6f" d="M 1959 3097 
Q 1497 3097 1228 2736 
Q 959 2375 959 1747 
Q 959 1119 1226 758 
Q 1494 397 1959 397 
Q 2419 397 2687 759 
Q 2956 1122 2956 1747 
Q 2956 2369 2687 2733 
Q 2419 3097 1959 3097 
z
M 1959 3584 
Q 2709 3584 3137 3096 
Q 3566 2609 3566 1747 
Q 3566 888 3137 398 
Q 2709 -91 1959 -91 
Q 1206 -91 779 398 
Q 353 888 353 1747 
Q 353 2609 779 3096 
Q 1206 3584 1959 3584 
z
" transform="scale(0.015625)"/>
      <path id="DejaVuSans-72" d="M 2631 2963 
Q 2534 3019 2420 3045 
Q 2306 3072 2169 3072 
Q 1681 3072 1420 2755 
Q 1159 2438 1159 1844 
L 1159 0 
L 581 0 
L 581 3500 
L 1159 3500 
L 1159 2956 
Q 1341 3275 1631 3429 
Q 1922 3584 2338 3584 
Q 2397 3584 2469 3576 
Q 2541 3569 2628 3553 
L 2631 2963 
z
" transform="scale(0.015625)"/>
      <path id="DejaVuSans-74" d="M 1172 4494 
L 1172 3500 
L 2356 3500 
L 2356 3053 
L 1172 3053 
L 1172 1153 
Q 1172 725 1289 603 
Q 1406 481 1766 481 
L 2356 481 
L 2356 0 
L 1766 0 
Q 1100 0 847 248 
Q 594 497 594 1153 
L 594 3053 
L 172 3053 
L 172 3500 
L 594 3500 
L 594 4494 
L 1172 4494 
z
" transform="scale(0.015625)"/>
     </defs>
     <use xlink:href="#DejaVuSans-73"/>
     <use xlink:href="#DejaVuSans-75" x="52.099609"/>
     <use xlink:href="#DejaVuSans-70" x="115.478516"/>
     <use xlink:href="#DejaVuSans-70" x="178.955078"/>
     <use xlink:href="#DejaVuSans-6f" x="242.431641"/>
     <use xlink:href="#DejaVuSans-72" x="303.613281"/>
     <use xlink:href="#DejaVuSans-74" x="344.726562"/>
    </g>
   </g>
  </g>
  <g id="axis3d_2">
   <g id="line2d_6">
    <path d="M 194.844704 126.233198 
L 155.664905 166.44131 
" style="fill: none; stroke: #000000; stroke-width: 0.8; stroke-linecap: square"/>
   </g>
   <g id="xtick_5">
    <g id="line2d_7">
     <path d="M 157.756672 163.458577 
L 159.61579 164.061024 
" style="fill: none; stroke: #000000; stroke-width: 0.8; stroke-linecap: square"/>
    </g>
    <g id="text_6">
     <!-- -1 -->
     <g transform="translate(166.279246 184.689208) scale(0.1 -0.1)">
      <defs>
       <path id="DejaVuSans-2d" d="M 313 2009 
L 1997 2009 
L 1997 1497 
L 313 1497 
L 313 2009 
z
" transform="scale(0.015625)"/>
      </defs>
      <use xlink:href="#DejaVuSans-2d"/>
      <use xlink:href="#DejaVuSans-31" x="36.083984"/>
     </g>
    </g>
   </g>
   <g id="text_7">
    <!-- window -->
    <g transform="translate(191.873976 188.99679) rotate(-45.742112) scale(0.1 -0.1)">
     <defs>
      <path id="DejaVuSans-77" d="M 269 3500 
L 844 3500 
L 1563 769 
L 2278 3500 
L 2956 3500 
L 3675 769 
L 4391 3500 
L 4966 3500 
L 4050 0 
L 3372 0 
L 2619 2869 
L 1863 0 
L 1184 0 
L 269 3500 
z
" transform="scale(0.015625)"/>
      <path id="DejaVuSans-69" d="M 603 3500 
L 1178 3500 
L 1178 0 
L 603 0 
L 603 3500 
z
M 603 4863 
L 1178 4863 
L 1178 4134 
L 603 4134 
L 603 4863 
z
" transform="scale(0.015625)"/>
      <path id="DejaVuSans-6e" d="M 3513 2113 
L 3513 0 
L 2938 0 
L 2938 2094 
Q 2938 2591 2744 2837 
Q 2550 3084 2163 3084 
Q 1697 3084 1428 2787 
Q 1159 2491 1159 1978 
L 1159 0 
L 581 0 
L 581 3500 
L 1159 3500 
L 1159 2956 
Q 1366 3272 1645 3428 
Q 1925 3584 2291 3584 
Q 2894 3584 3203 3211 
Q 3513 2838 3513 2113 
z
" transform="scale(0.015625)"/>
      <path id="DejaVuSans-64" d="M 2906 2969 
L 2906 4863 
L 3481 4863 
L 3481 0 
L 2906 0 
L 2906 525 
Q 2725 213 2448 61 
Q 2172 -91 1784 -91 
Q 1150 -91 751 415 
Q 353 922 353 1747 
Q 353 2572 751 3078 
Q 1150 3584 1784 3584 
Q 2172 3584 2448 3432 
Q 2725 3281 2906 2969 
z
M 947 1747 
Q 947 1113 1208 752 
Q 1469 391 1925 391 
Q 2381 391 2643 752 
Q 2906 1113 2906 1747 
Q 2906 2381 2643 2742 
Q 2381 3103 1925 3103 
Q 1469 3103 1208 2742 
Q 947 2381 947 1747 
z
" transform="scale(0.015625)"/>
     </defs>
     <use xlink:href="#DejaVuSans-77"/>
     <use xlink:href="#DejaVuSans-69" x="81.787109"/>
     <use xlink:href="#DejaVuSans-6e" x="109.570312"/>
     <use xlink:href="#DejaVuSans-64" x="172.949219"/>
     <use xlink:href="#DejaVuSans-6f" x="236.425781"/>
     <use xlink:href="#DejaVuSans-77" x="297.607422"/>
    </g>
   </g>
  </g>
  <g id="axis3d_3">
   <g id="line2d_8">
    <path d="M 194.844704 126.233198 
L 197.327536 72.014481 
" style="fill: none; stroke: #000000; stroke-width: 0.8; stroke-linecap: square"/>
   </g>
   <g id="xtick_6">
    <g id="line2d_9">
     <path d="M 194.443473 122.031118 
L 196.202666 122.537571 
" style="fill: none; stroke: #000000; stroke-width: 0.8; stroke-linecap: square"/>
    </g>
    <g id="text_8">
     <!-- $10^{-0.15}$ -->
     <g transform="translate(195.981171 127.217151) scale(0.1 -0.1)">
      <defs>
       <path id="DejaVuSans-2212" d="M 678 2272 
L 4684 2272 
L 4684 1741 
L 678 1741 
L 678 2272 
z
" transform="scale(0.015625)"/>
      </defs>
      <use xlink:href="#DejaVuSans-31" transform="translate(0 0.765625)"/>
      <use xlink:href="#DejaVuSans-30" transform="translate(63.623047 0.765625)"/>
      <use xlink:href="#DejaVuSans-2212" transform="translate(128.203125 39.046875) scale(0.7)"/>
      <use xlink:href="#DejaVuSans-30" transform="translate(186.855469 39.046875) scale(0.7)"/>
      <use xlink:href="#DejaVuSans-2e" transform="translate(231.391602 39.046875) scale(0.7)"/>
      <use xlink:href="#DejaVuSans-31" transform="translate(253.642578 39.046875) scale(0.7)"/>
      <use xlink:href="#DejaVuSans-35" transform="translate(298.178711 39.046875) scale(0.7)"/>
     </g>
    </g>
   </g>
   <g id="xtick_7">
    <g id="line2d_10">
     <path d="M 194.718719 115.955598 
L 196.487053 116.457303 
" style="fill: none; stroke: #000000; stroke-width: 0.8; stroke-linecap: square"/>
    </g>
    <g id="text_9">
     <!-- $10^{-0.12}$ -->
     <g transform="translate(196.348541 121.164333) scale(0.1 -0.1)">
      <defs>
       <path id="DejaVuSans-32" d="M 1228 531 
L 3431 531 
L 3431 0 
L 469 0 
L 469 531 
Q 828 903 1448 1529 
Q 2069 2156 2228 2338 
Q 2531 2678 2651 2914 
Q 2772 3150 2772 3378 
Q 2772 3750 2511 3984 
Q 2250 4219 1831 4219 
Q 1534 4219 1204 4116 
Q 875 4013 500 3803 
L 500 4441 
Q 881 4594 1212 4672 
Q 1544 4750 1819 4750 
Q 2544 4750 2975 4387 
Q 3406 4025 3406 3419 
Q 3406 3131 3298 2873 
Q 3191 2616 2906 2266 
Q 2828 2175 2409 1742 
Q 1991 1309 1228 531 
z
" transform="scale(0.015625)"/>
      </defs>
      <use xlink:href="#DejaVuSans-31" transform="translate(0 0.765625)"/>
      <use xlink:href="#DejaVuSans-30" transform="translate(63.623047 0.765625)"/>
      <use xlink:href="#DejaVuSans-2212" transform="translate(128.203125 39.046875) scale(0.7)"/>
      <use xlink:href="#DejaVuSans-30" transform="translate(186.855469 39.046875) scale(0.7)"/>
      <use xlink:href="#DejaVuSans-2e" transform="translate(231.391602 39.046875) scale(0.7)"/>
      <use xlink:href="#DejaVuSans-31" transform="translate(253.642578 39.046875) scale(0.7)"/>
      <use xlink:href="#DejaVuSans-32" transform="translate(298.178711 39.046875) scale(0.7)"/>
     </g>
    </g>
   </g>
   <g id="xtick_8">
    <g id="line2d_11">
     <path d="M 194.996732 109.818988 
L 196.774303 110.315822 
" style="fill: none; stroke: #000000; stroke-width: 0.8; stroke-linecap: square"/>
    </g>
    <g id="text_10">
     <!-- $10^{-0.1}$ -->
     <g transform="translate(198.969585 115.051003) scale(0.1 -0.1)">
      <use xlink:href="#DejaVuSans-31" transform="translate(0 0.765625)"/>
      <use xlink:href="#DejaVuSans-30" transform="translate(63.623047 0.765625)"/>
      <use xlink:href="#DejaVuSans-2212" transform="translate(128.203125 39.046875) scale(0.7)"/>
      <use xlink:href="#DejaVuSans-30" transform="translate(186.855469 39.046875) scale(0.7)"/>
      <use xlink:href="#DejaVuSans-2e" transform="translate(231.391602 39.046875) scale(0.7)"/>
      <use xlink:href="#DejaVuSans-31" transform="translate(253.642578 39.046875) scale(0.7)"/>
     </g>
    </g>
   </g>
   <g id="xtick_9">
    <g id="line2d_12">
     <path d="M 195.277556 103.620361 
L 197.064459 104.112201 
" style="fill: none; stroke: #000000; stroke-width: 0.8; stroke-linecap: square"/>
    </g>
    <g id="text_11">
     <!-- $10^{-0.08}$ -->
     <g transform="translate(197.094356 108.876247) scale(0.1 -0.1)">
      <defs>
       <path id="DejaVuSans-38" d="M 2034 2216 
Q 1584 2216 1326 1975 
Q 1069 1734 1069 1313 
Q 1069 891 1326 650 
Q 1584 409 2034 409 
Q 2484 409 2743 651 
Q 3003 894 3003 1313 
Q 3003 1734 2745 1975 
Q 2488 2216 2034 2216 
z
M 1403 2484 
Q 997 2584 770 2862 
Q 544 3141 544 3541 
Q 544 4100 942 4425 
Q 1341 4750 2034 4750 
Q 2731 4750 3128 4425 
Q 3525 4100 3525 3541 
Q 3525 3141 3298 2862 
Q 3072 2584 2669 2484 
Q 3125 2378 3379 2068 
Q 3634 1759 3634 1313 
Q 3634 634 3220 271 
Q 2806 -91 2034 -91 
Q 1263 -91 848 271 
Q 434 634 434 1313 
Q 434 1759 690 2068 
Q 947 2378 1403 2484 
z
M 1172 3481 
Q 1172 3119 1398 2916 
Q 1625 2713 2034 2713 
Q 2441 2713 2670 2916 
Q 2900 3119 2900 3481 
Q 2900 3844 2670 4047 
Q 2441 4250 2034 4250 
Q 1625 4250 1398 4047 
Q 1172 3844 1172 3481 
z
" transform="scale(0.015625)"/>
      </defs>
      <use xlink:href="#DejaVuSans-31" transform="translate(0 0.765625)"/>
      <use xlink:href="#DejaVuSans-30" transform="translate(63.623047 0.765625)"/>
      <use xlink:href="#DejaVuSans-2212" transform="translate(128.203125 39.046875) scale(0.7)"/>
      <use xlink:href="#DejaVuSans-30" transform="translate(186.855469 39.046875) scale(0.7)"/>
      <use xlink:href="#DejaVuSans-2e" transform="translate(231.391602 39.046875) scale(0.7)"/>
      <use xlink:href="#DejaVuSans-30" transform="translate(253.642578 39.046875) scale(0.7)"/>
      <use xlink:href="#DejaVuSans-38" transform="translate(298.178711 39.046875) scale(0.7)"/>
     </g>
    </g>
   </g>
   <g id="xtick_10">
    <g id="line2d_13">
     <path d="M 195.561231 97.358772 
L 197.357566 97.84549 
" style="fill: none; stroke: #000000; stroke-width: 0.8; stroke-linecap: square"/>
    </g>
    <g id="text_12">
     <!-- $10^{-0.05}$ -->
     <g transform="translate(197.472912 102.639136) scale(0.1 -0.1)">
      <use xlink:href="#DejaVuSans-31" transform="translate(0 0.765625)"/>
      <use xlink:href="#DejaVuSans-30" transform="translate(63.623047 0.765625)"/>
      <use xlink:href="#DejaVuSans-2212" transform="translate(128.203125 39.046875) scale(0.7)"/>
      <use xlink:href="#DejaVuSans-30" transform="translate(186.855469 39.046875) scale(0.7)"/>
      <use xlink:href="#DejaVuSans-2e" transform="translate(231.391602 39.046875) scale(0.7)"/>
      <use xlink:href="#DejaVuSans-30" transform="translate(253.642578 39.046875) scale(0.7)"/>
      <use xlink:href="#DejaVuSans-35" transform="translate(298.178711 39.046875) scale(0.7)"/>
     </g>
    </g>
   </g>
   <g id="xtick_11">
    <g id="line2d_14">
     <path d="M 195.847803 91.033258 
L 197.653669 91.514724 
" style="fill: none; stroke: #000000; stroke-width: 0.8; stroke-linecap: square"/>
    </g>
    <g id="text_13">
     <!-- $10^{-0.02}$ -->
     <g transform="translate(197.85531 96.33872) scale(0.1 -0.1)">
      <use xlink:href="#DejaVuSans-31" transform="translate(0 0.765625)"/>
      <use xlink:href="#DejaVuSans-30" transform="translate(63.623047 0.765625)"/>
      <use xlink:href="#DejaVuSans-2212" transform="translate(128.203125 39.046875) scale(0.7)"/>
      <use xlink:href="#DejaVuSans-30" transform="translate(186.855469 39.046875) scale(0.7)"/>
      <use xlink:href="#DejaVuSans-2e" transform="translate(231.391602 39.046875) scale(0.7)"/>
      <use xlink:href="#DejaVuSans-30" transform="translate(253.642578 39.046875) scale(0.7)"/>
      <use xlink:href="#DejaVuSans-32" transform="translate(298.178711 39.046875) scale(0.7)"/>
     </g>
    </g>
   </g>
   <g id="xtick_12">
    <g id="line2d_15">
     <path d="M 196.137315 84.642834 
L 197.952815 85.118913 
" style="fill: none; stroke: #000000; stroke-width: 0.8; stroke-linecap: square"/>
    </g>
    <g id="text_14">
     <!-- $10^{0.0}$ -->
     <g transform="translate(203.391609 89.974031) scale(0.1 -0.1)">
      <use xlink:href="#DejaVuSans-31" transform="translate(0 0.765625)"/>
      <use xlink:href="#DejaVuSans-30" transform="translate(63.623047 0.765625)"/>
      <use xlink:href="#DejaVuSans-30" transform="translate(128.203125 39.046875) scale(0.7)"/>
      <use xlink:href="#DejaVuSans-2e" transform="translate(172.739258 39.046875) scale(0.7)"/>
      <use xlink:href="#DejaVuSans-30" transform="translate(194.990234 39.046875) scale(0.7)"/>
     </g>
    </g>
   </g>
   <g id="xtick_13">
    <g id="line2d_16">
     <path d="M 196.429814 78.186496 
L 198.25505 78.657052 
" style="fill: none; stroke: #000000; stroke-width: 0.8; stroke-linecap: square"/>
    </g>
    <g id="text_15">
     <!-- $10^{0.02}$ -->
     <g transform="translate(201.581869 83.544079) scale(0.1 -0.1)">
      <use xlink:href="#DejaVuSans-31" transform="translate(0 0.765625)"/>
      <use xlink:href="#DejaVuSans-30" transform="translate(63.623047 0.765625)"/>
      <use xlink:href="#DejaVuSans-30" transform="translate(128.203125 39.046875) scale(0.7)"/>
      <use xlink:href="#DejaVuSans-2e" transform="translate(172.739258 39.046875) scale(0.7)"/>
      <use xlink:href="#DejaVuSans-30" transform="translate(194.990234 39.046875) scale(0.7)"/>
      <use xlink:href="#DejaVuSans-32" transform="translate(239.526367 39.046875) scale(0.7)"/>
     </g>
    </g>
   </g>
   <g id="text_16">
    <!-- elapsed -->
    <g transform="translate(238.023192 114.01016) rotate(-87.378092) scale(0.1 -0.1)">
     <defs>
      <path id="DejaVuSans-65" d="M 3597 1894 
L 3597 1613 
L 953 1613 
Q 991 1019 1311 708 
Q 1631 397 2203 397 
Q 2534 397 2845 478 
Q 3156 559 3463 722 
L 3463 178 
Q 3153 47 2828 -22 
Q 2503 -91 2169 -91 
Q 1331 -91 842 396 
Q 353 884 353 1716 
Q 353 2575 817 3079 
Q 1281 3584 2069 3584 
Q 2775 3584 3186 3129 
Q 3597 2675 3597 1894 
z
M 3022 2063 
Q 3016 2534 2758 2815 
Q 2500 3097 2075 3097 
Q 1594 3097 1305 2825 
Q 1016 2553 972 2059 
L 3022 2063 
z
" transform="scale(0.015625)"/>
      <path id="DejaVuSans-6c" d="M 603 4863 
L 1178 4863 
L 1178 0 
L 603 0 
L 603 4863 
z
" transform="scale(0.015625)"/>
      <path id="DejaVuSans-61" d="M 2194 1759 
Q 1497 1759 1228 1600 
Q 959 1441 959 1056 
Q 959 750 1161 570 
Q 1363 391 1709 391 
Q 2188 391 2477 730 
Q 2766 1069 2766 1631 
L 2766 1759 
L 2194 1759 
z
M 3341 1997 
L 3341 0 
L 2766 0 
L 2766 531 
Q 2569 213 2275 61 
Q 1981 -91 1556 -91 
Q 1019 -91 701 211 
Q 384 513 384 1019 
Q 384 1609 779 1909 
Q 1175 2209 1959 2209 
L 2766 2209 
L 2766 2266 
Q 2766 2663 2505 2880 
Q 2244 3097 1772 3097 
Q 1472 3097 1187 3025 
Q 903 2953 641 2809 
L 641 3341 
Q 956 3463 1253 3523 
Q 1550 3584 1831 3584 
Q 2591 3584 2966 3190 
Q 3341 2797 3341 1997 
z
" transform="scale(0.015625)"/>
     </defs>
     <use xlink:href="#DejaVuSans-65"/>
     <use xlink:href="#DejaVuSans-6c" x="61.523438"/>
     <use xlink:href="#DejaVuSans-61" x="89.306641"/>
     <use xlink:href="#DejaVuSans-70" x="150.585938"/>
     <use xlink:href="#DejaVuSans-73" x="214.0625"/>
     <use xlink:href="#DejaVuSans-65" x="266.162109"/>
     <use xlink:href="#DejaVuSans-64" x="327.685547"/>
    </g>
   </g>
  </g>
  <g id="axes_1">
   <g id="Poly3DCollection_1">
    <path d="M 87.576269 98.887564 
L 103.595686 103.588677 
L 141.800389 73.110401 
L 126.561077 69.085076 
z
" clip-path="url(#p5283607e8f)" style="fill: #c30000"/>
    <path d="M 103.595686 103.588677 
L 119.994853 108.401232 
L 157.373543 77.223909 
L 141.800389 73.110401 
z
" clip-path="url(#p5283607e8f)" style="fill: #c30000"/>
    <path d="M 119.994853 108.401232 
L 136.787434 113.32924 
L 173.291631 81.428527 
L 157.373543 77.223909 
z
" clip-path="url(#p5283607e8f)" style="fill: #c30000"/>
    <path d="M 136.787434 113.32924 
L 153.987759 118.376905 
L 189.566241 85.727317 
L 173.291631 81.428527 
z
" clip-path="url(#p5283607e8f)" style="fill: #c30000"/>
   </g>
   <g id="text_17">
    <!-- graph -->
    <g transform="translate(120.082996 37.432941) scale(0.12 -0.12)">
     <defs>
      <path id="DejaVuSans-67" d="M 2906 1791 
Q 2906 2416 2648 2759 
Q 2391 3103 1925 3103 
Q 1463 3103 1205 2759 
Q 947 2416 947 1791 
Q 947 1169 1205 825 
Q 1463 481 1925 481 
Q 2391 481 2648 825 
Q 2906 1169 2906 1791 
z
M 3481 434 
Q 3481 -459 3084 -895 
Q 2688 -1331 1869 -1331 
Q 1566 -1331 1297 -1286 
Q 1028 -1241 775 -1147 
L 775 -588 
Q 1028 -725 1275 -790 
Q 1522 -856 1778 -856 
Q 2344 -856 2625 -561 
Q 2906 -266 2906 331 
L 2906 616 
Q 2728 306 2450 153 
Q 2172 0 1784 0 
Q 1141 0 747 490 
Q 353 981 353 1791 
Q 353 2603 747 3093 
Q 1141 3584 1784 3584 
Q 2172 3584 2450 3431 
Q 2728 3278 2906 2969 
L 2906 3500 
L 3481 3500 
L 3481 434 
z
" transform="scale(0.015625)"/>
      <path id="DejaVuSans-68" d="M 3513 2113 
L 3513 0 
L 2938 0 
L 2938 2094 
Q 2938 2591 2744 2837 
Q 2550 3084 2163 3084 
Q 1697 3084 1428 2787 
Q 1159 2491 1159 1978 
L 1159 0 
L 581 0 
L 581 4863 
L 1159 4863 
L 1159 2956 
Q 1366 3272 1645 3428 
Q 1925 3584 2291 3584 
Q 2894 3584 3203 3211 
Q 3513 2838 3513 2113 
z
" transform="scale(0.015625)"/>
     </defs>
     <use xlink:href="#DejaVuSans-67"/>
     <use xlink:href="#DejaVuSans-72" x="63.476562"/>
     <use xlink:href="#DejaVuSans-61" x="104.589844"/>
     <use xlink:href="#DejaVuSans-70" x="165.869141"/>
     <use xlink:href="#DejaVuSans-68" x="229.345703"/>
    </g>
   </g>
   <g id="Poly3DCollection_2">
    <path d="M 126.578797 70.831555 
L 126.561077 69.085076 
L 141.800389 73.110401 
L 141.797075 74.87017 
z
" clip-path="url(#p5283607e8f)" style="fill: #68410e"/>
    <path d="M 141.773231 87.532898 
L 141.800389 73.110401 
L 157.373543 77.223909 
L 157.166393 91.755091 
z
" clip-path="url(#p5283607e8f)" style="fill: #144c5e"/>
    <path d="M 156.805209 117.091443 
L 157.373543 77.223909 
L 173.291631 81.428527 
L 172.207865 121.588914 
z
" clip-path="url(#p5283607e8f)" style="fill: #0d6824"/>
    <path d="M 120.658635 150.365466 
L 156.805209 117.091443 
L 172.207865 121.588914 
L 136.878473 155.6091 
z
" clip-path="url(#p5283607e8f)" style="fill: #11852e"/>
    <path d="M 87.653431 100.729577 
L 87.576269 98.887564 
L 126.561077 69.085076 
L 126.578797 70.831555 
z
" clip-path="url(#p5283607e8f)" style="fill: #dc8a1d"/>
    <path d="M 173.291631 81.428527 
L 173.604227 69.844871 
L 190.034269 74.052853 
L 189.566241 85.727317 
z
" clip-path="url(#p5283607e8f)" style="fill: #656235"/>
    <path d="M 87.653431 100.729577 
L 126.578797 70.831555 
L 141.797075 74.87017 
L 103.649629 105.445156 
z
" clip-path="url(#p5283607e8f)" style="fill: #855312"/>
    <path d="M 104.037429 118.791413 
L 141.773231 87.532898 
L 157.166393 91.755091 
L 120.237192 123.72188 
z
" clip-path="url(#p5283607e8f)" style="fill: #1a6178"/>
    <path d="M 104.037429 118.791413 
L 103.595686 103.588677 
L 141.800389 73.110401 
L 141.773231 87.532898 
z
" clip-path="url(#p5283607e8f)" style="fill: #2ba1c7"/>
    <path d="M 87.576269 98.887564 
L 103.595686 103.588677 
L 141.800389 73.110401 
L 126.561077 69.085076 
z
" clip-path="url(#p5283607e8f)" style="fill: #bf7819"/>
    <path d="M 120.658635 150.365466 
L 119.994853 108.401232 
L 157.373543 77.223909 
L 156.805209 117.091443 
z
" clip-path="url(#p5283607e8f)" style="fill: #1cdd4d"/>
    <path d="M 103.649629 105.445156 
L 141.797075 74.87017 
L 141.800389 73.110401 
L 103.595686 103.588677 
z
" clip-path="url(#p5283607e8f)" style="fill: #68410e"/>
    <path d="M 120.237192 123.72188 
L 157.166393 91.755091 
L 157.373543 77.223909 
L 119.994853 108.401232 
z
" clip-path="url(#p5283607e8f)" style="fill: #144c5e"/>
    <path d="M 103.595686 103.588677 
L 119.994853 108.401232 
L 157.373543 77.223909 
L 141.800389 73.110401 
z
" clip-path="url(#p5283607e8f)" style="fill: #258bad"/>
    <path d="M 136.878473 155.6091 
L 172.207865 121.588914 
L 173.291631 81.428527 
L 136.787434 113.32924 
z
" clip-path="url(#p5283607e8f)" style="fill: #0d6824"/>
    <path d="M 119.994853 108.401232 
L 136.787434 113.32924 
L 173.291631 81.428527 
L 157.373543 77.223909 
z
" clip-path="url(#p5283607e8f)" style="fill: #18bf43"/>
    <path d="M 136.787434 113.32924 
L 136.761085 101.092441 
L 173.604227 69.844871 
L 173.291631 81.428527 
z
" clip-path="url(#p5283607e8f)" style="fill: #d7cf70"/>
    <path d="M 136.787434 113.32924 
L 173.291631 81.428527 
L 189.566241 85.727317 
L 153.987759 118.376905 
z
" clip-path="url(#p5283607e8f)" style="fill: #827d44"/>
    <path d="M 87.653431 100.729577 
L 103.649629 105.445156 
L 103.595686 103.588677 
L 87.576269 98.887564 
z
" clip-path="url(#p5283607e8f)" style="fill: #dc8a1d"/>
    <path d="M 104.037429 118.791413 
L 120.237192 123.72188 
L 119.994853 108.401232 
L 103.595686 103.588677 
z
" clip-path="url(#p5283607e8f)" style="fill: #2ba1c7"/>
    <path d="M 136.761085 101.092441 
L 154.135267 106.041155 
L 190.034269 74.052853 
L 173.604227 69.844871 
z
" clip-path="url(#p5283607e8f)" style="fill: #bbb461"/>
    <path d="M 120.658635 150.365466 
L 136.878473 155.6091 
L 136.787434 113.32924 
L 119.994853 108.401232 
z
" clip-path="url(#p5283607e8f)" style="fill: #1cdd4d"/>
    <path d="M 153.987759 118.376905 
L 189.566241 85.727317 
L 190.034269 74.052853 
L 154.135267 106.041155 
z
" clip-path="url(#p5283607e8f)" style="fill: #656235"/>
    <path d="M 136.787434 113.32924 
L 153.987759 118.376905 
L 154.135267 106.041155 
L 136.761085 101.092441 
z
" clip-path="url(#p5283607e8f)" style="fill: #d7cf70"/>
   </g>
  </g>
  <g id="patch_6">
   <path d="M 229.552941 174.727059 
L 360.847059 174.727059 
L 360.847059 43.432941 
L 229.552941 43.432941 
z
" style="fill: #ffffff"/>
  </g>
  <g id="pane3d_4">
   <g id="patch_7">
    <path d="M 239.466552 142.354137 
L 282.824158 106.010932 
L 282.221446 53.597534 
L 236.788955 86.752097 
" style="fill: #f2f2f2; opacity: 0.5; stroke: #f2f2f2; stroke-linejoin: miter"/>
   </g>
  </g>
  <g id="pane3d_5">
   <g id="patch_8">
    <path d="M 282.824158 106.010932 
L 352.397645 126.233198 
L 354.880477 72.014481 
L 282.221446 53.597534 
" style="fill: #e6e6e6; opacity: 0.5; stroke: #e6e6e6; stroke-linejoin: miter"/>
   </g>
  </g>
  <g id="pane3d_6">
   <g id="patch_9">
    <path d="M 239.466552 142.354137 
L 313.217847 166.44131 
L 352.397645 126.233198 
L 282.824158 106.010932 
" style="fill: #ececec; opacity: 0.5; stroke: #ececec; stroke-linejoin: miter"/>
   </g>
  </g>
  <g id="grid3d_4">
   <g id="Line3DCollection_4">
    <path d="M 243.933318 143.812983 
L 287.055404 107.240789 
L 286.631593 54.715378 
" style="fill: none; stroke: #b0b0b0; stroke-width: 0.8"/>
    <path d="M 275.370046 154.080218 
L 316.770561 115.877812 
L 317.635029 62.573845 
" style="fill: none; stroke: #b0b0b0; stroke-width: 0.8"/>
   </g>
  </g>
  <g id="grid3d_5">
   <g id="Line3DCollection_5">
    <path d="M 239.930725 84.459376 
L 242.454258 139.849783 
L 315.928785 163.659219 
" style="fill: none; stroke: #b0b0b0; stroke-width: 0.8"/>
    <path d="M 250.427047 76.799639 
L 252.447238 131.473469 
L 324.984068 154.366272 
" style="fill: none; stroke: #b0b0b0; stroke-width: 0.8"/>
    <path d="M 260.515829 69.437305 
L 262.068747 123.408529 
L 333.685325 145.436641 
" style="fill: none; stroke: #b0b0b0; stroke-width: 0.8"/>
    <path d="M 270.220354 62.355385 
L 271.339121 115.637918 
L 342.05292 136.849431 
" style="fill: none; stroke: #b0b0b0; stroke-width: 0.8"/>
   </g>
  </g>
  <g id="grid3d_6">
   <g id="Line3DCollection_6">
    <path d="M 352.445213 125.194428 
L 282.812587 105.004668 
L 239.415337 141.290624 
" style="fill: none; stroke: #b0b0b0; stroke-width: 0.8"/>
    <path d="M 353.045765 112.079909 
L 282.66658 92.30755 
L 238.768461 127.857821 
" style="fill: none; stroke: #b0b0b0; stroke-width: 0.8"/>
    <path d="M 353.659463 98.678315 
L 282.517531 79.345889 
L 238.10688 114.119657 
" style="fill: none; stroke: #b0b0b0; stroke-width: 0.8"/>
    <path d="M 354.286743 84.980117 
L 282.365344 66.111332 
L 237.430086 100.0656 
" style="fill: none; stroke: #b0b0b0; stroke-width: 0.8"/>
   </g>
  </g>
  <g id="axis3d_4">
   <g id="line2d_17">
    <path d="M 239.466552 142.354137 
L 313.217847 166.44131 
" style="fill: none; stroke: #000000; stroke-width: 0.8; stroke-linecap: square"/>
   </g>
   <g id="xtick_14">
    <g id="line2d_18">
     <path d="M 244.308823 143.494514 
L 243.180697 144.451286 
" style="fill: none; stroke: #000000; stroke-width: 0.8; stroke-linecap: square"/>
    </g>
    <g id="text_18">
     <!-- 0.05 -->
     <g transform="translate(225.242607 167.18233) scale(0.1 -0.1)">
      <use xlink:href="#DejaVuSans-30"/>
      <use xlink:href="#DejaVuSans-2e" x="63.623047"/>
      <use xlink:href="#DejaVuSans-30" x="95.410156"/>
      <use xlink:href="#DejaVuSans-35" x="159.033203"/>
     </g>
    </g>
   </g>
   <g id="xtick_15">
    <g id="line2d_19">
     <path d="M 275.731233 153.746932 
L 274.646086 154.748253 
" style="fill: none; stroke: #000000; stroke-width: 0.8; stroke-linecap: square"/>
    </g>
    <g id="text_19">
     <!-- 0.1 -->
     <g transform="translate(259.928623 177.894679) scale(0.1 -0.1)">
      <use xlink:href="#DejaVuSans-30"/>
      <use xlink:href="#DejaVuSans-2e" x="63.623047"/>
      <use xlink:href="#DejaVuSans-31" x="95.410156"/>
     </g>
    </g>
   </g>
   <g id="text_20">
    <!-- support -->
    <g transform="translate(239.833511 186.318757) rotate(-341.912962) scale(0.1 -0.1)">
     <use xlink:href="#DejaVuSans-73"/>
     <use xlink:href="#DejaVuSans-75" x="52.099609"/>
     <use xlink:href="#DejaVuSans-70" x="115.478516"/>
     <use xlink:href="#DejaVuSans-70" x="178.955078"/>
     <use xlink:href="#DejaVuSans-6f" x="242.431641"/>
     <use xlink:href="#DejaVuSans-72" x="303.613281"/>
     <use xlink:href="#DejaVuSans-74" x="344.726562"/>
    </g>
   </g>
  </g>
  <g id="axis3d_5">
   <g id="line2d_20">
    <path d="M 352.397645 126.233198 
L 313.217847 166.44131 
" style="fill: none; stroke: #000000; stroke-width: 0.8; stroke-linecap: square"/>
   </g>
   <g id="xtick_16">
    <g id="line2d_21">
     <path d="M 315.309613 163.458577 
L 317.168731 164.061024 
" style="fill: none; stroke: #000000; stroke-width: 0.8; stroke-linecap: square"/>
    </g>
    <g id="text_21">
     <!-- 1000 -->
     <g transform="translate(316.092344 184.689208) scale(0.1 -0.1)">
      <use xlink:href="#DejaVuSans-31"/>
      <use xlink:href="#DejaVuSans-30" x="63.623047"/>
      <use xlink:href="#DejaVuSans-30" x="127.246094"/>
      <use xlink:href="#DejaVuSans-30" x="190.869141"/>
     </g>
    </g>
   </g>
   <g id="xtick_17">
    <g id="line2d_22">
     <path d="M 324.373415 154.173548 
L 326.206921 154.752207 
" style="fill: none; stroke: #000000; stroke-width: 0.8; stroke-linecap: square"/>
    </g>
    <g id="text_22">
     <!-- 2000 -->
     <g transform="translate(324.901129 175.117086) scale(0.1 -0.1)">
      <use xlink:href="#DejaVuSans-32"/>
      <use xlink:href="#DejaVuSans-30" x="63.623047"/>
      <use xlink:href="#DejaVuSans-30" x="127.246094"/>
      <use xlink:href="#DejaVuSans-30" x="190.869141"/>
     </g>
    </g>
   </g>
   <g id="xtick_18">
    <g id="line2d_23">
     <path d="M 333.083005 145.251378 
L 334.891462 145.80763 
" style="fill: none; stroke: #000000; stroke-width: 0.8; stroke-linecap: square"/>
    </g>
    <g id="text_23">
     <!-- 5000 -->
     <g transform="translate(333.365123 165.919634) scale(0.1 -0.1)">
      <use xlink:href="#DejaVuSans-35"/>
      <use xlink:href="#DejaVuSans-30" x="63.623047"/>
      <use xlink:href="#DejaVuSans-30" x="127.246094"/>
      <use xlink:href="#DejaVuSans-30" x="190.869141"/>
     </g>
    </g>
   </g>
   <g id="xtick_19">
    <g id="line2d_24">
     <path d="M 341.458749 136.671202 
L 343.24271 137.206324 
" style="fill: none; stroke: #000000; stroke-width: 0.8; stroke-linecap: square"/>
    </g>
    <g id="text_24">
     <!-- 10000 -->
     <g transform="translate(338.322932 157.075275) scale(0.1 -0.1)">
      <use xlink:href="#DejaVuSans-31"/>
      <use xlink:href="#DejaVuSans-30" x="63.623047"/>
      <use xlink:href="#DejaVuSans-30" x="127.246094"/>
      <use xlink:href="#DejaVuSans-30" x="190.869141"/>
      <use xlink:href="#DejaVuSans-30" x="254.492188"/>
     </g>
    </g>
   </g>
   <g id="text_25">
    <!-- window -->
    <g transform="translate(349.426917 188.99679) rotate(-45.742112) scale(0.1 -0.1)">
     <use xlink:href="#DejaVuSans-77"/>
     <use xlink:href="#DejaVuSans-69" x="81.787109"/>
     <use xlink:href="#DejaVuSans-6e" x="109.570312"/>
     <use xlink:href="#DejaVuSans-64" x="172.949219"/>
     <use xlink:href="#DejaVuSans-6f" x="236.425781"/>
     <use xlink:href="#DejaVuSans-77" x="297.607422"/>
    </g>
   </g>
  </g>
  <g id="axis3d_6">
   <g id="line2d_25">
    <path d="M 352.397645 126.233198 
L 354.880477 72.014481 
" style="fill: none; stroke: #000000; stroke-width: 0.8; stroke-linecap: square"/>
   </g>
   <g id="xtick_20">
    <g id="line2d_26">
     <path d="M 351.86078 125.024973 
L 353.61547 125.53374 
" style="fill: none; stroke: #000000; stroke-width: 0.8; stroke-linecap: square"/>
    </g>
    <g id="text_26">
     <!-- $10^{0.0}$ -->
     <g transform="translate(358.503074 130.199946) scale(0.1 -0.1)">
      <use xlink:href="#DejaVuSans-31" transform="translate(0 0.765625)"/>
      <use xlink:href="#DejaVuSans-30" transform="translate(63.623047 0.765625)"/>
      <use xlink:href="#DejaVuSans-30" transform="translate(128.203125 39.046875) scale(0.7)"/>
      <use xlink:href="#DejaVuSans-2e" transform="translate(172.739258 39.046875) scale(0.7)"/>
      <use xlink:href="#DejaVuSans-30" transform="translate(194.990234 39.046875) scale(0.7)"/>
     </g>
    </g>
   </g>
   <g id="xtick_21">
    <g id="line2d_27">
     <path d="M 352.454767 111.913873 
L 354.229184 112.412379 
" style="fill: none; stroke: #000000; stroke-width: 0.8; stroke-linecap: square"/>
    </g>
    <g id="text_27">
     <!-- $10^{1.0}$ -->
     <g transform="translate(359.295863 117.137902) scale(0.1 -0.1)">
      <use xlink:href="#DejaVuSans-31" transform="translate(0 0.765625)"/>
      <use xlink:href="#DejaVuSans-30" transform="translate(63.623047 0.765625)"/>
      <use xlink:href="#DejaVuSans-31" transform="translate(128.203125 39.046875) scale(0.7)"/>
      <use xlink:href="#DejaVuSans-2e" transform="translate(172.739258 39.046875) scale(0.7)"/>
      <use xlink:href="#DejaVuSans-30" transform="translate(194.990234 39.046875) scale(0.7)"/>
     </g>
    </g>
   </g>
   <g id="xtick_22">
    <g id="line2d_28">
     <path d="M 353.06175 98.51589 
L 354.856342 99.00356 
" style="fill: none; stroke: #000000; stroke-width: 0.8; stroke-linecap: square"/>
    </g>
    <g id="text_28">
     <!-- $10^{2.0}$ -->
     <g transform="translate(360.105899 103.791703) scale(0.1 -0.1)">
      <use xlink:href="#DejaVuSans-31" transform="translate(0 0.765625)"/>
      <use xlink:href="#DejaVuSans-30" transform="translate(63.623047 0.765625)"/>
      <use xlink:href="#DejaVuSans-32" transform="translate(128.203125 39.046875) scale(0.7)"/>
      <use xlink:href="#DejaVuSans-2e" transform="translate(172.739258 39.046875) scale(0.7)"/>
      <use xlink:href="#DejaVuSans-30" transform="translate(194.990234 39.046875) scale(0.7)"/>
     </g>
    </g>
   </g>
   <g id="xtick_23">
    <g id="line2d_29">
     <path d="M 353.682162 84.821503 
L 355.497392 85.297734 
" style="fill: none; stroke: #000000; stroke-width: 0.8; stroke-linecap: square"/>
    </g>
    <g id="text_29">
     <!-- $10^{3.0}$ -->
     <g transform="translate(360.93375 90.151975) scale(0.1 -0.1)">
      <defs>
       <path id="DejaVuSans-33" d="M 2597 2516 
Q 3050 2419 3304 2112 
Q 3559 1806 3559 1356 
Q 3559 666 3084 287 
Q 2609 -91 1734 -91 
Q 1441 -91 1130 -33 
Q 819 25 488 141 
L 488 750 
Q 750 597 1062 519 
Q 1375 441 1716 441 
Q 2309 441 2620 675 
Q 2931 909 2931 1356 
Q 2931 1769 2642 2001 
Q 2353 2234 1838 2234 
L 1294 2234 
L 1294 2753 
L 1863 2753 
Q 2328 2753 2575 2939 
Q 2822 3125 2822 3475 
Q 2822 3834 2567 4026 
Q 2313 4219 1838 4219 
Q 1578 4219 1281 4162 
Q 984 4106 628 3988 
L 628 4550 
Q 988 4650 1302 4700 
Q 1616 4750 1894 4750 
Q 2613 4750 3031 4423 
Q 3450 4097 3450 3541 
Q 3450 3153 3228 2886 
Q 3006 2619 2597 2516 
z
" transform="scale(0.015625)"/>
      </defs>
      <use xlink:href="#DejaVuSans-31" transform="translate(0 0.765625)"/>
      <use xlink:href="#DejaVuSans-30" transform="translate(63.623047 0.765625)"/>
      <use xlink:href="#DejaVuSans-33" transform="translate(128.203125 39.046875) scale(0.7)"/>
      <use xlink:href="#DejaVuSans-2e" transform="translate(172.739258 39.046875) scale(0.7)"/>
      <use xlink:href="#DejaVuSans-30" transform="translate(194.990234 39.046875) scale(0.7)"/>
     </g>
    </g>
   </g>
   <g id="text_30">
    <!-- elapsed -->
    <g transform="translate(395.576133 114.01016) rotate(-87.378092) scale(0.1 -0.1)">
     <use xlink:href="#DejaVuSans-65"/>
     <use xlink:href="#DejaVuSans-6c" x="61.523438"/>
     <use xlink:href="#DejaVuSans-61" x="89.306641"/>
     <use xlink:href="#DejaVuSans-70" x="150.585938"/>
     <use xlink:href="#DejaVuSans-73" x="214.0625"/>
     <use xlink:href="#DejaVuSans-65" x="266.162109"/>
     <use xlink:href="#DejaVuSans-64" x="327.685547"/>
    </g>
   </g>
  </g>
  <g id="axes_2">
   <g id="Poly3DCollection_3">
    <path d="M 275.617088 115.90251 
L 305.828867 124.942908 
L 314.35815 117.091443 
L 284.512691 108.37677 
z
" clip-path="url(#p75f989d0b8)" style="fill: #c30000"/>
    <path d="M 266.389484 123.709123 
L 296.974245 133.093858 
L 305.828867 124.942908 
L 275.617088 115.90251 
z
" clip-path="url(#p75f989d0b8)" style="fill: #c30000"/>
    <path d="M 305.828867 124.942908 
L 337.375247 134.382665 
L 345.497282 126.183859 
L 314.35815 117.091443 
z
" clip-path="url(#p75f989d0b8)" style="fill: #c30000"/>
    <path d="M 256.810942 131.812633 
L 287.775309 141.561759 
L 296.974245 133.093858 
L 266.389484 123.709123 
z
" clip-path="url(#p75f989d0b8)" style="fill: #c30000"/>
    <path d="M 296.974245 133.093858 
L 328.93643 142.901246 
L 337.375247 134.382665 
L 305.828867 124.942908 
z
" clip-path="url(#p75f989d0b8)" style="fill: #c30000"/>
    <path d="M 246.861052 140.230305 
L 278.211576 150.365466 
L 287.775309 141.561759 
L 256.810942 131.812633 
z
" clip-path="url(#p75f989d0b8)" style="fill: #c30000"/>
    <path d="M 287.775309 141.561759 
L 320.161932 151.758683 
L 328.93643 142.901246 
L 296.974245 133.093858 
z
" clip-path="url(#p75f989d0b8)" style="fill: #c30000"/>
    <path d="M 278.211576 150.365466 
L 311.031316 160.975603 
L 320.161932 151.758683 
L 287.775309 141.561759 
z
" clip-path="url(#p75f989d0b8)" style="fill: #c30000"/>
   </g>
   <g id="text_31">
    <!-- stream -->
    <g transform="translate(274.1775 37.432941) scale(0.12 -0.12)">
     <defs>
      <path id="DejaVuSans-6d" d="M 3328 2828 
Q 3544 3216 3844 3400 
Q 4144 3584 4550 3584 
Q 5097 3584 5394 3201 
Q 5691 2819 5691 2113 
L 5691 0 
L 5113 0 
L 5113 2094 
Q 5113 2597 4934 2840 
Q 4756 3084 4391 3084 
Q 3944 3084 3684 2787 
Q 3425 2491 3425 1978 
L 3425 0 
L 2847 0 
L 2847 2094 
Q 2847 2600 2669 2842 
Q 2491 3084 2119 3084 
Q 1678 3084 1418 2786 
Q 1159 2488 1159 1978 
L 1159 0 
L 581 0 
L 581 3500 
L 1159 3500 
L 1159 2956 
Q 1356 3278 1631 3431 
Q 1906 3584 2284 3584 
Q 2666 3584 2933 3390 
Q 3200 3197 3328 2828 
z
" transform="scale(0.015625)"/>
     </defs>
     <use xlink:href="#DejaVuSans-73"/>
     <use xlink:href="#DejaVuSans-74" x="52.099609"/>
     <use xlink:href="#DejaVuSans-72" x="91.308594"/>
     <use xlink:href="#DejaVuSans-65" x="130.171875"/>
     <use xlink:href="#DejaVuSans-61" x="191.695312"/>
     <use xlink:href="#DejaVuSans-6d" x="252.974609"/>
    </g>
   </g>
   <g id="Poly3DCollection_4">
    <path d="M 275.617088 115.90251 
L 284.512691 108.37677 
L 314.35815 117.091443 
L 305.828867 124.942908 
z
" clip-path="url(#p75f989d0b8)" style="fill: #7c0e5b"/>
    <path d="M 275.617088 115.90251 
L 274.98782 79.937666 
L 284.15232 72.859991 
L 284.512691 108.37677 
z
" clip-path="url(#p75f989d0b8)" style="fill: #cd1797"/>
    <path d="M 284.512691 108.37677 
L 284.15232 72.859991 
L 314.871849 81.056499 
L 314.35815 117.091443 
z
" clip-path="url(#p75f989d0b8)" style="fill: #610b47"/>
    <path d="M 266.389484 123.709123 
L 275.617088 115.90251 
L 305.828867 124.942908 
L 296.974245 133.093858 
z
" clip-path="url(#p75f989d0b8)" style="fill: #6e313e"/>
    <path d="M 305.828867 124.942908 
L 314.35815 117.091443 
L 345.497282 126.183859 
L 337.375247 134.382665 
z
" clip-path="url(#p75f989d0b8)" style="fill: #73701d"/>
    <path d="M 266.389484 123.709123 
L 265.514464 89.010463 
L 275.017574 81.6382 
L 275.617088 115.90251 
z
" clip-path="url(#p75f989d0b8)" style="fill: #b75167"/>
    <path d="M 275.617088 115.90251 
L 275.017574 81.6382 
L 306.082949 90.176309 
L 305.828867 124.942908 
z
" clip-path="url(#p75f989d0b8)" style="fill: #562631"/>
    <path d="M 275.617088 115.90251 
L 305.828867 124.942908 
L 306.095567 88.449747 
L 274.98782 79.937666 
z
" clip-path="url(#p75f989d0b8)" style="fill: #cd1797"/>
    <path d="M 305.828867 124.942908 
L 306.091864 88.956441 
L 314.86472 81.556558 
L 314.35815 117.091443 
z
" clip-path="url(#p75f989d0b8)" style="fill: #beba30"/>
    <path d="M 305.828867 124.942908 
L 314.35815 117.091443 
L 314.871849 81.056499 
L 306.095567 88.449747 
z
" clip-path="url(#p75f989d0b8)" style="fill: #610b47"/>
    <path d="M 314.35815 117.091443 
L 314.86472 81.556558 
L 346.942809 90.126757 
L 345.497282 126.183859 
z
" clip-path="url(#p75f989d0b8)" style="fill: #595817"/>
    <path d="M 274.98782 79.937666 
L 306.095567 88.449747 
L 314.871849 81.056499 
L 284.15232 72.859991 
z
" clip-path="url(#p75f989d0b8)" style="fill: #b21483"/>
    <path d="M 256.810942 131.812633 
L 266.389484 123.709123 
L 296.974245 133.093858 
L 287.775309 141.561759 
z
" clip-path="url(#p75f989d0b8)" style="fill: #021e27"/>
    <path d="M 296.974245 133.093858 
L 305.828867 124.942908 
L 337.375247 134.382665 
L 328.93643 142.901246 
z
" clip-path="url(#p75f989d0b8)" style="fill: #861b86"/>
    <path d="M 266.389484 123.709123 
L 296.974245 133.093858 
L 296.974245 97.883277 
L 265.514464 89.010463 
z
" clip-path="url(#p75f989d0b8)" style="fill: #b75167"/>
    <path d="M 296.974245 133.093858 
L 296.974245 99.109701 
L 306.074104 91.386629 
L 305.828867 124.942908 
z
" clip-path="url(#p75f989d0b8)" style="fill: #de2ddd"/>
    <path d="M 296.974245 133.093858 
L 305.828867 124.942908 
L 306.082949 90.176309 
L 296.974245 97.883277 
z
" clip-path="url(#p75f989d0b8)" style="fill: #562631"/>
    <path d="M 256.810942 131.812633 
L 255.378021 88.831176 
L 265.319376 81.274273 
L 266.389484 123.709123 
z
" clip-path="url(#p75f989d0b8)" style="fill: #033140"/>
    <path d="M 305.828867 124.942908 
L 306.074104 91.386629 
L 338.519605 100.331601 
L 337.375247 134.382665 
z
" clip-path="url(#p75f989d0b8)" style="fill: #691568"/>
    <path d="M 266.389484 123.709123 
L 265.319376 81.274273 
L 296.974245 90.0269 
L 296.974245 133.093858 
z
" clip-path="url(#p75f989d0b8)" style="fill: #01171e"/>
    <path d="M 305.828867 124.942908 
L 337.375247 134.382665 
L 338.602535 97.863962 
L 306.091864 88.956441 
z
" clip-path="url(#p75f989d0b8)" style="fill: #beba30"/>
    <path d="M 265.514464 89.010463 
L 296.974245 97.883277 
L 306.082949 90.176309 
L 275.017574 81.6382 
z
" clip-path="url(#p75f989d0b8)" style="fill: #9f4759"/>
    <path d="M 337.375247 134.382665 
L 345.497282 126.183859 
L 346.942809 90.126757 
L 338.602535 97.863962 
z
" clip-path="url(#p75f989d0b8)" style="fill: #595817"/>
    <path d="M 306.091864 88.956441 
L 338.602535 97.863962 
L 346.942809 90.126757 
L 314.86472 81.556558 
z
" clip-path="url(#p75f989d0b8)" style="fill: #a5a22a"/>
    <path d="M 246.861052 140.230305 
L 256.810942 131.812633 
L 287.775309 141.561759 
L 278.211576 150.365466 
z
" clip-path="url(#p75f989d0b8)" style="fill: #743900"/>
    <path d="M 287.775309 141.561759 
L 296.974245 133.093858 
L 328.93643 142.901246 
L 320.161932 151.758683 
z
" clip-path="url(#p75f989d0b8)" style="fill: #446d44"/>
    <path d="M 287.775309 141.561759 
L 287.501702 106.019244 
L 296.974245 98.00205 
L 296.974245 133.093858 
z
" clip-path="url(#p75f989d0b8)" style="fill: #71b470"/>
    <path d="M 296.974245 133.093858 
L 328.93643 142.901246 
L 329.859924 108.413086 
L 296.974245 99.109701 
z
" clip-path="url(#p75f989d0b8)" style="fill: #de2ddd"/>
    <path d="M 296.974245 133.093858 
L 296.974245 98.00205 
L 329.890044 107.288269 
L 328.93643 142.901246 
z
" clip-path="url(#p75f989d0b8)" style="fill: #355535"/>
    <path d="M 256.810942 131.812633 
L 287.775309 141.561759 
L 287.439478 97.936039 
L 255.378021 88.831176 
z
" clip-path="url(#p75f989d0b8)" style="fill: #033140"/>
    <path d="M 328.93643 142.901246 
L 337.375247 134.382665 
L 338.519605 100.331601 
L 329.859924 108.413086 
z
" clip-path="url(#p75f989d0b8)" style="fill: #691568"/>
    <path d="M 287.775309 141.561759 
L 296.974245 133.093858 
L 296.974245 90.0269 
L 287.439478 97.936039 
z
" clip-path="url(#p75f989d0b8)" style="fill: #01171e"/>
    <path d="M 246.861052 140.230305 
L 244.62875 86.940508 
L 255.057366 79.212898 
L 256.810942 131.812633 
z
" clip-path="url(#p75f989d0b8)" style="fill: #c05f01"/>
    <path d="M 296.974245 99.109701 
L 329.859924 108.413086 
L 338.519605 100.331601 
L 306.074104 91.386629 
z
" clip-path="url(#p75f989d0b8)" style="fill: #c127c0"/>
    <path d="M 256.810942 131.812633 
L 255.057366 79.212898 
L 287.364252 88.164011 
L 287.775309 141.561759 
z
" clip-path="url(#p75f989d0b8)" style="fill: #5a2d00"/>
    <path d="M 255.378021 88.831176 
L 287.439478 97.936039 
L 296.974245 90.0269 
L 265.319376 81.274273 
z
" clip-path="url(#p75f989d0b8)" style="fill: #022b38"/>
    <path d="M 278.211576 150.365466 
L 287.775309 141.561759 
L 320.161932 151.758683 
L 311.031316 160.975603 
z
" clip-path="url(#p75f989d0b8)" style="fill: #474b36"/>
    <path d="M 287.775309 141.561759 
L 320.161932 151.758683 
L 320.867931 115.685511 
L 287.501702 106.019244 
z
" clip-path="url(#p75f989d0b8)" style="fill: #71b470"/>
    <path d="M 320.161932 151.758683 
L 328.93643 142.901246 
L 329.890044 107.288269 
L 320.867931 115.685511 
z
" clip-path="url(#p75f989d0b8)" style="fill: #355535"/>
    <path d="M 278.211576 150.365466 
L 277.490538 104.781557 
L 287.428931 96.565998 
L 287.775309 141.561759 
z
" clip-path="url(#p75f989d0b8)" style="fill: #767c5a"/>
    <path d="M 287.775309 141.561759 
L 287.428931 96.565998 
L 321.055868 106.082823 
L 320.161932 151.758683 
z
" clip-path="url(#p75f989d0b8)" style="fill: #383a2a"/>
    <path d="M 246.861052 140.230305 
L 278.211576 150.365466 
L 277.355781 96.262198 
L 244.62875 86.940508 
z
" clip-path="url(#p75f989d0b8)" style="fill: #c05f01"/>
    <path d="M 287.501702 106.019244 
L 320.867931 115.685511 
L 329.890044 107.288269 
L 296.974245 98.00205 
z
" clip-path="url(#p75f989d0b8)" style="fill: #629c62"/>
    <path d="M 278.211576 150.365466 
L 287.775309 141.561759 
L 287.364252 88.164011 
L 277.355781 96.262198 
z
" clip-path="url(#p75f989d0b8)" style="fill: #5a2d00"/>
    <path d="M 244.62875 86.940508 
L 277.355781 96.262198 
L 287.364252 88.164011 
L 255.057366 79.212898 
z
" clip-path="url(#p75f989d0b8)" style="fill: #a65300"/>
    <path d="M 278.211576 150.365466 
L 311.031316 160.975603 
L 311.584677 114.699193 
L 277.490538 104.781557 
z
" clip-path="url(#p75f989d0b8)" style="fill: #767c5a"/>
    <path d="M 311.031316 160.975603 
L 320.161932 151.758683 
L 321.055868 106.082823 
L 311.584677 114.699193 
z
" clip-path="url(#p75f989d0b8)" style="fill: #383a2a"/>
    <path d="M 277.490538 104.781557 
L 311.584677 114.699193 
L 321.055868 106.082823 
L 287.428931 96.565998 
z
" clip-path="url(#p75f989d0b8)" style="fill: #676c4e"/>
   </g>
  </g>
  <g id="patch_10">
   <path d="M 387.105882 174.727059 
L 518.4 174.727059 
L 518.4 43.432941 
L 387.105882 43.432941 
z
" style="fill: #ffffff"/>
  </g>
  <g id="pane3d_7">
   <g id="patch_11">
    <path d="M 397.019494 142.354137 
L 440.377099 106.010932 
L 439.774387 53.597534 
L 394.341896 86.752097 
" style="fill: #f2f2f2; opacity: 0.5; stroke: #f2f2f2; stroke-linejoin: miter"/>
   </g>
  </g>
  <g id="pane3d_8">
   <g id="patch_12">
    <path d="M 440.377099 106.010932 
L 509.950586 126.233198 
L 512.433418 72.014481 
L 439.774387 53.597534 
" style="fill: #e6e6e6; opacity: 0.5; stroke: #e6e6e6; stroke-linejoin: miter"/>
   </g>
  </g>
  <g id="pane3d_9">
   <g id="patch_13">
    <path d="M 397.019494 142.354137 
L 470.770788 166.44131 
L 509.950586 126.233198 
L 440.377099 106.010932 
" style="fill: #ececec; opacity: 0.5; stroke: #ececec; stroke-linejoin: miter"/>
   </g>
  </g>
  <g id="grid3d_7">
   <g id="Line3DCollection_7">
    <path d="M 401.486259 143.812983 
L 444.608346 107.240789 
L 444.184534 54.715378 
" style="fill: none; stroke: #b0b0b0; stroke-width: 0.8"/>
    <path d="M 417.025858 148.888215 
L 459.310941 111.514253 
L 459.517565 58.601855 
" style="fill: none; stroke: #b0b0b0; stroke-width: 0.8"/>
    <path d="M 432.922987 154.080218 
L 474.323502 115.877812 
L 475.18797 62.573845 
" style="fill: none; stroke: #b0b0b0; stroke-width: 0.8"/>
    <path d="M 449.19013 159.393067 
L 489.655936 120.334345 
L 491.207007 66.634204 
" style="fill: none; stroke: #b0b0b0; stroke-width: 0.8"/>
   </g>
  </g>
  <g id="grid3d_8">
   <g id="Line3DCollection_8">
    <path d="M 397.483666 84.459376 
L 400.007199 139.849783 
L 473.481727 163.659219 
" style="fill: none; stroke: #b0b0b0; stroke-width: 0.8"/>
   </g>
  </g>
  <g id="grid3d_9">
   <g id="Line3DCollection_9">
    <path d="M 510.010416 124.926652 
L 440.362545 104.745286 
L 396.955076 141.016459 
" style="fill: none; stroke: #b0b0b0; stroke-width: 0.8"/>
    <path d="M 510.264237 119.383854 
L 440.300819 99.377428 
L 396.681736 135.340381 
" style="fill: none; stroke: #b0b0b0; stroke-width: 0.8"/>
    <path d="M 510.520391 113.790108 
L 440.238553 93.962583 
L 396.405788 129.610147 
" style="fill: none; stroke: #b0b0b0; stroke-width: 0.8"/>
    <path d="M 510.77891 108.14471 
L 440.175739 88.500129 
L 396.127195 123.824981 
" style="fill: none; stroke: #b0b0b0; stroke-width: 0.8"/>
    <path d="M 511.039828 102.446941 
L 440.11237 82.989436 
L 395.845918 117.984087 
" style="fill: none; stroke: #b0b0b0; stroke-width: 0.8"/>
    <path d="M 511.303177 96.696069 
L 440.04844 77.429863 
L 395.561919 112.086657 
" style="fill: none; stroke: #b0b0b0; stroke-width: 0.8"/>
    <path d="M 511.568992 90.891348 
L 439.983939 71.820756 
L 395.275157 106.131865 
" style="fill: none; stroke: #b0b0b0; stroke-width: 0.8"/>
    <path d="M 511.837308 85.032018 
L 439.918862 66.16145 
L 394.985593 100.118872 
" style="fill: none; stroke: #b0b0b0; stroke-width: 0.8"/>
    <path d="M 512.10816 79.117304 
L 439.853199 60.451269 
L 394.693184 94.046819 
" style="fill: none; stroke: #b0b0b0; stroke-width: 0.8"/>
    <path d="M 512.381584 73.146418 
L 439.786944 54.689522 
L 394.39789 87.914832 
" style="fill: none; stroke: #b0b0b0; stroke-width: 0.8"/>
   </g>
  </g>
  <g id="axis3d_7">
   <g id="line2d_30">
    <path d="M 397.019494 142.354137 
L 470.770788 166.44131 
" style="fill: none; stroke: #000000; stroke-width: 0.8; stroke-linecap: square"/>
   </g>
   <g id="xtick_24">
    <g id="line2d_31">
     <path d="M 401.861764 143.494514 
L 400.733638 144.451286 
" style="fill: none; stroke: #000000; stroke-width: 0.8; stroke-linecap: square"/>
    </g>
    <g id="text_32">
     <!-- 0.005 -->
     <g transform="translate(379.614298 167.18233) scale(0.1 -0.1)">
      <use xlink:href="#DejaVuSans-30"/>
      <use xlink:href="#DejaVuSans-2e" x="63.623047"/>
      <use xlink:href="#DejaVuSans-30" x="95.410156"/>
      <use xlink:href="#DejaVuSans-30" x="159.033203"/>
      <use xlink:href="#DejaVuSans-35" x="222.65625"/>
     </g>
    </g>
   </g>
   <g id="xtick_25">
    <g id="line2d_32">
     <path d="M 417.394414 148.562464 
L 416.287145 149.541131 
" style="fill: none; stroke: #000000; stroke-width: 0.8; stroke-linecap: square"/>
    </g>
    <g id="text_33">
     <!-- 0.01 -->
     <g transform="translate(398.367408 172.477122) scale(0.1 -0.1)">
      <use xlink:href="#DejaVuSans-30"/>
      <use xlink:href="#DejaVuSans-2e" x="63.623047"/>
      <use xlink:href="#DejaVuSans-30" x="95.410156"/>
      <use xlink:href="#DejaVuSans-31" x="159.033203"/>
     </g>
    </g>
   </g>
   <g id="xtick_26">
    <g id="line2d_33">
     <path d="M 433.284174 153.746932 
L 432.199027 154.748253 
" style="fill: none; stroke: #000000; stroke-width: 0.8; stroke-linecap: square"/>
    </g>
    <g id="text_34">
     <!-- 0.05 -->
     <g transform="translate(414.300314 177.894679) scale(0.1 -0.1)">
      <use xlink:href="#DejaVuSans-30"/>
      <use xlink:href="#DejaVuSans-2e" x="63.623047"/>
      <use xlink:href="#DejaVuSans-30" x="95.410156"/>
      <use xlink:href="#DejaVuSans-35" x="159.033203"/>
     </g>
    </g>
   </g>
   <g id="xtick_27">
    <g id="line2d_34">
     <path d="M 449.543503 159.051981 
L 448.481814 160.076753 
" style="fill: none; stroke: #000000; stroke-width: 0.8; stroke-linecap: square"/>
    </g>
    <g id="text_35">
     <!-- 0.1 -->
     <g transform="translate(433.78822 183.439319) scale(0.1 -0.1)">
      <use xlink:href="#DejaVuSans-30"/>
      <use xlink:href="#DejaVuSans-2e" x="63.623047"/>
      <use xlink:href="#DejaVuSans-31" x="95.410156"/>
     </g>
    </g>
   </g>
   <g id="text_36">
    <!-- support -->
    <g transform="translate(397.386452 186.318757) rotate(-341.912962) scale(0.1 -0.1)">
     <use xlink:href="#DejaVuSans-73"/>
     <use xlink:href="#DejaVuSans-75" x="52.099609"/>
     <use xlink:href="#DejaVuSans-70" x="115.478516"/>
     <use xlink:href="#DejaVuSans-70" x="178.955078"/>
     <use xlink:href="#DejaVuSans-6f" x="242.431641"/>
     <use xlink:href="#DejaVuSans-72" x="303.613281"/>
     <use xlink:href="#DejaVuSans-74" x="344.726562"/>
    </g>
   </g>
  </g>
  <g id="axis3d_8">
   <g id="line2d_35">
    <path d="M 509.950586 126.233198 
L 470.770788 166.44131 
" style="fill: none; stroke: #000000; stroke-width: 0.8; stroke-linecap: square"/>
   </g>
   <g id="xtick_28">
    <g id="line2d_36">
     <path d="M 472.862555 163.458577 
L 474.721672 164.061024 
" style="fill: none; stroke: #000000; stroke-width: 0.8; stroke-linecap: square"/>
    </g>
    <g id="text_37">
     <!-- -1 -->
     <g transform="translate(481.385129 184.689208) scale(0.1 -0.1)">
      <use xlink:href="#DejaVuSans-2d"/>
      <use xlink:href="#DejaVuSans-31" x="36.083984"/>
     </g>
    </g>
   </g>
   <g id="text_38">
    <!-- window -->
    <g transform="translate(506.979859 188.99679) rotate(-45.742112) scale(0.1 -0.1)">
     <use xlink:href="#DejaVuSans-77"/>
     <use xlink:href="#DejaVuSans-69" x="81.787109"/>
     <use xlink:href="#DejaVuSans-6e" x="109.570312"/>
     <use xlink:href="#DejaVuSans-64" x="172.949219"/>
     <use xlink:href="#DejaVuSans-6f" x="236.425781"/>
     <use xlink:href="#DejaVuSans-77" x="297.607422"/>
    </g>
   </g>
  </g>
  <g id="axis3d_9">
   <g id="line2d_37">
    <path d="M 509.950586 126.233198 
L 512.433418 72.014481 
" style="fill: none; stroke: #000000; stroke-width: 0.8; stroke-linecap: square"/>
   </g>
   <g id="xtick_29">
    <g id="line2d_38">
     <path d="M 509.425849 124.757267 
L 511.180942 125.265827 
" style="fill: none; stroke: #000000; stroke-width: 0.8; stroke-linecap: square"/>
    </g>
    <g id="text_39">
     <!-- $10^{-0.22}$ -->
     <g transform="translate(511.122204 129.933225) scale(0.1 -0.1)">
      <use xlink:href="#DejaVuSans-31" transform="translate(0 0.765625)"/>
      <use xlink:href="#DejaVuSans-30" transform="translate(63.623047 0.765625)"/>
      <use xlink:href="#DejaVuSans-2212" transform="translate(128.203125 39.046875) scale(0.7)"/>
      <use xlink:href="#DejaVuSans-30" transform="translate(186.855469 39.046875) scale(0.7)"/>
      <use xlink:href="#DejaVuSans-2e" transform="translate(231.391602 39.046875) scale(0.7)"/>
      <use xlink:href="#DejaVuSans-32" transform="translate(249.792578 39.046875) scale(0.7)"/>
      <use xlink:href="#DejaVuSans-32" transform="translate(294.328711 39.046875) scale(0.7)"/>
     </g>
    </g>
   </g>
   <g id="xtick_30">
    <g id="line2d_39">
     <path d="M 509.676896 119.2159 
L 511.440325 119.720162 
" style="fill: none; stroke: #000000; stroke-width: 0.8; stroke-linecap: square"/>
    </g>
    <g id="text_40">
     <!-- $10^{-0.2}$ -->
     <g transform="translate(513.657285 124.41241) scale(0.1 -0.1)">
      <use xlink:href="#DejaVuSans-31" transform="translate(0 0.765625)"/>
      <use xlink:href="#DejaVuSans-30" transform="translate(63.623047 0.765625)"/>
      <use xlink:href="#DejaVuSans-2212" transform="translate(128.203125 39.046875) scale(0.7)"/>
      <use xlink:href="#DejaVuSans-30" transform="translate(186.855469 39.046875) scale(0.7)"/>
      <use xlink:href="#DejaVuSans-2e" transform="translate(231.391602 39.046875) scale(0.7)"/>
      <use xlink:href="#DejaVuSans-32" transform="translate(249.792578 39.046875) scale(0.7)"/>
     </g>
    </g>
   </g>
   <g id="xtick_31">
    <g id="line2d_40">
     <path d="M 509.930249 113.623621 
L 511.702093 114.123483 
" style="fill: none; stroke: #000000; stroke-width: 0.8; stroke-linecap: square"/>
    </g>
    <g id="text_41">
     <!-- $10^{-0.18}$ -->
     <g transform="translate(511.595427 118.841161) scale(0.1 -0.1)">
      <use xlink:href="#DejaVuSans-31" transform="translate(0 0.765625)"/>
      <use xlink:href="#DejaVuSans-30" transform="translate(63.623047 0.765625)"/>
      <use xlink:href="#DejaVuSans-2212" transform="translate(128.203125 39.046875) scale(0.7)"/>
      <use xlink:href="#DejaVuSans-30" transform="translate(186.855469 39.046875) scale(0.7)"/>
      <use xlink:href="#DejaVuSans-2e" transform="translate(231.391602 39.046875) scale(0.7)"/>
      <use xlink:href="#DejaVuSans-31" transform="translate(253.642578 39.046875) scale(0.7)"/>
      <use xlink:href="#DejaVuSans-38" transform="translate(298.178711 39.046875) scale(0.7)"/>
     </g>
    </g>
   </g>
   <g id="xtick_32">
    <g id="line2d_41">
     <path d="M 510.185941 107.979723 
L 511.96628 108.475083 
" style="fill: none; stroke: #000000; stroke-width: 0.8; stroke-linecap: square"/>
    </g>
    <g id="text_42">
     <!-- $10^{-0.15}$ -->
     <g transform="translate(511.936672 113.218784) scale(0.1 -0.1)">
      <use xlink:href="#DejaVuSans-31" transform="translate(0 0.765625)"/>
      <use xlink:href="#DejaVuSans-30" transform="translate(63.623047 0.765625)"/>
      <use xlink:href="#DejaVuSans-2212" transform="translate(128.203125 39.046875) scale(0.7)"/>
      <use xlink:href="#DejaVuSans-30" transform="translate(186.855469 39.046875) scale(0.7)"/>
      <use xlink:href="#DejaVuSans-2e" transform="translate(231.391602 39.046875) scale(0.7)"/>
      <use xlink:href="#DejaVuSans-31" transform="translate(253.642578 39.046875) scale(0.7)"/>
      <use xlink:href="#DejaVuSans-35" transform="translate(298.178711 39.046875) scale(0.7)"/>
     </g>
    </g>
   </g>
   <g id="xtick_33">
    <g id="line2d_42">
     <path d="M 510.444004 102.283489 
L 512.232921 102.774242 
" style="fill: none; stroke: #000000; stroke-width: 0.8; stroke-linecap: square"/>
    </g>
    <g id="text_43">
     <!-- $10^{-0.12}$ -->
     <g transform="translate(512.281063 107.544571) scale(0.1 -0.1)">
      <use xlink:href="#DejaVuSans-31" transform="translate(0 0.765625)"/>
      <use xlink:href="#DejaVuSans-30" transform="translate(63.623047 0.765625)"/>
      <use xlink:href="#DejaVuSans-2212" transform="translate(128.203125 39.046875) scale(0.7)"/>
      <use xlink:href="#DejaVuSans-30" transform="translate(186.855469 39.046875) scale(0.7)"/>
      <use xlink:href="#DejaVuSans-2e" transform="translate(231.391602 39.046875) scale(0.7)"/>
      <use xlink:href="#DejaVuSans-31" transform="translate(253.642578 39.046875) scale(0.7)"/>
      <use xlink:href="#DejaVuSans-32" transform="translate(298.178711 39.046875) scale(0.7)"/>
     </g>
    </g>
   </g>
   <g id="xtick_34">
    <g id="line2d_43">
     <path d="M 510.704471 96.534188 
L 512.502048 97.020226 
" style="fill: none; stroke: #000000; stroke-width: 0.8; stroke-linecap: square"/>
    </g>
    <g id="text_44">
     <!-- $10^{-0.1}$ -->
     <g transform="translate(514.878644 101.817802) scale(0.1 -0.1)">
      <use xlink:href="#DejaVuSans-31" transform="translate(0 0.765625)"/>
      <use xlink:href="#DejaVuSans-30" transform="translate(63.623047 0.765625)"/>
      <use xlink:href="#DejaVuSans-2212" transform="translate(128.203125 39.046875) scale(0.7)"/>
      <use xlink:href="#DejaVuSans-30" transform="translate(186.855469 39.046875) scale(0.7)"/>
      <use xlink:href="#DejaVuSans-2e" transform="translate(231.391602 39.046875) scale(0.7)"/>
      <use xlink:href="#DejaVuSans-31" transform="translate(253.642578 39.046875) scale(0.7)"/>
     </g>
    </g>
   </g>
   <g id="xtick_35">
    <g id="line2d_44">
     <path d="M 510.967375 90.731075 
L 512.773697 91.212287 
" style="fill: none; stroke: #000000; stroke-width: 0.8; stroke-linecap: square"/>
    </g>
    <g id="text_45">
     <!-- $10^{-0.07}$ -->
     <g transform="translate(512.97946 96.037745) scale(0.1 -0.1)">
      <defs>
       <path id="DejaVuSans-37" d="M 525 4666 
L 3525 4666 
L 3525 4397 
L 1831 0 
L 1172 0 
L 2766 4134 
L 525 4134 
L 525 4666 
z
" transform="scale(0.015625)"/>
      </defs>
      <use xlink:href="#DejaVuSans-31" transform="translate(0 0.765625)"/>
      <use xlink:href="#DejaVuSans-30" transform="translate(63.623047 0.765625)"/>
      <use xlink:href="#DejaVuSans-2212" transform="translate(128.203125 39.046875) scale(0.7)"/>
      <use xlink:href="#DejaVuSans-30" transform="translate(186.855469 39.046875) scale(0.7)"/>
      <use xlink:href="#DejaVuSans-2e" transform="translate(231.391602 39.046875) scale(0.7)"/>
      <use xlink:href="#DejaVuSans-30" transform="translate(253.642578 39.046875) scale(0.7)"/>
      <use xlink:href="#DejaVuSans-37" transform="translate(298.178711 39.046875) scale(0.7)"/>
     </g>
    </g>
   </g>
   <g id="xtick_36">
    <g id="line2d_45">
     <path d="M 511.232753 84.873389 
L 513.047905 85.349664 
" style="fill: none; stroke: #000000; stroke-width: 0.8; stroke-linecap: square"/>
    </g>
    <g id="text_46">
     <!-- $10^{-0.05}$ -->
     <g transform="translate(513.333555 90.203651) scale(0.1 -0.1)">
      <use xlink:href="#DejaVuSans-31" transform="translate(0 0.765625)"/>
      <use xlink:href="#DejaVuSans-30" transform="translate(63.623047 0.765625)"/>
      <use xlink:href="#DejaVuSans-2212" transform="translate(128.203125 39.046875) scale(0.7)"/>
      <use xlink:href="#DejaVuSans-30" transform="translate(186.855469 39.046875) scale(0.7)"/>
      <use xlink:href="#DejaVuSans-2e" transform="translate(231.391602 39.046875) scale(0.7)"/>
      <use xlink:href="#DejaVuSans-30" transform="translate(253.642578 39.046875) scale(0.7)"/>
      <use xlink:href="#DejaVuSans-35" transform="translate(298.178711 39.046875) scale(0.7)"/>
     </g>
    </g>
   </g>
   <g id="xtick_37">
    <g id="line2d_46">
     <path d="M 511.500637 78.960359 
L 513.324706 79.431581 
" style="fill: none; stroke: #000000; stroke-width: 0.8; stroke-linecap: square"/>
    </g>
    <g id="text_47">
     <!-- $10^{-0.02}$ -->
     <g transform="translate(513.690976 84.314759) scale(0.1 -0.1)">
      <use xlink:href="#DejaVuSans-31" transform="translate(0 0.765625)"/>
      <use xlink:href="#DejaVuSans-30" transform="translate(63.623047 0.765625)"/>
      <use xlink:href="#DejaVuSans-2212" transform="translate(128.203125 39.046875) scale(0.7)"/>
      <use xlink:href="#DejaVuSans-30" transform="translate(186.855469 39.046875) scale(0.7)"/>
      <use xlink:href="#DejaVuSans-2e" transform="translate(231.391602 39.046875) scale(0.7)"/>
      <use xlink:href="#DejaVuSans-30" transform="translate(253.642578 39.046875) scale(0.7)"/>
      <use xlink:href="#DejaVuSans-32" transform="translate(298.178711 39.046875) scale(0.7)"/>
     </g>
    </g>
   </g>
   <g id="xtick_38">
    <g id="line2d_47">
     <path d="M 511.771065 72.991196 
L 513.604138 73.457248 
" style="fill: none; stroke: #000000; stroke-width: 0.8; stroke-linecap: square"/>
    </g>
    <g id="text_48">
     <!-- $10^{0.0}$ -->
     <g transform="translate(519.20177 78.370294) scale(0.1 -0.1)">
      <use xlink:href="#DejaVuSans-31" transform="translate(0 0.765625)"/>
      <use xlink:href="#DejaVuSans-30" transform="translate(63.623047 0.765625)"/>
      <use xlink:href="#DejaVuSans-30" transform="translate(128.203125 39.046875) scale(0.7)"/>
      <use xlink:href="#DejaVuSans-2e" transform="translate(172.739258 39.046875) scale(0.7)"/>
      <use xlink:href="#DejaVuSans-30" transform="translate(194.990234 39.046875) scale(0.7)"/>
     </g>
    </g>
   </g>
   <g id="text_49">
    <!-- elapsed -->
    <g transform="translate(553.129074 114.01016) rotate(-87.378092) scale(0.1 -0.1)">
     <use xlink:href="#DejaVuSans-65"/>
     <use xlink:href="#DejaVuSans-6c" x="61.523438"/>
     <use xlink:href="#DejaVuSans-61" x="89.306641"/>
     <use xlink:href="#DejaVuSans-70" x="150.585938"/>
     <use xlink:href="#DejaVuSans-73" x="214.0625"/>
     <use xlink:href="#DejaVuSans-65" x="266.162109"/>
     <use xlink:href="#DejaVuSans-64" x="327.685547"/>
    </g>
   </g>
  </g>
  <g id="axes_3">
   <g id="Poly3DCollection_5">
    <path d="M 441.634949 65.930304 
L 441.55212 57.767 
L 456.927748 61.70493 
L 456.912257 69.931491 
z
" clip-path="url(#pd2e5569609)" style="fill: #6a6a5e"/>
    <path d="M 456.888649 82.46885 
L 456.927748 61.70493 
L 472.643279 65.729914 
L 472.345004 86.653295 
z
" clip-path="url(#pd2e5569609)" style="fill: #0b5d43"/>
    <path d="M 472.012288 109.992704 
L 472.643279 65.729914 
L 488.710109 69.844871 
L 487.506665 114.44009 
z
" clip-path="url(#pd2e5569609)" style="fill: #472950"/>
    <path d="M 487.313748 121.588914 
L 488.710109 69.844871 
L 505.140152 74.052853 
L 503.050223 126.183859 
z
" clip-path="url(#pd2e5569609)" style="fill: #173f18"/>
    <path d="M 435.646578 142.909325 
L 472.012288 109.992704 
L 487.506665 114.44009 
L 451.968185 148.09941 
z
" clip-path="url(#pd2e5569609)" style="fill: #5b3567"/>
    <path d="M 451.984355 155.6091 
L 487.313748 121.588914 
L 503.050223 126.183859 
L 468.584257 160.975603 
z
" clip-path="url(#pd2e5569609)" style="fill: #1e501f"/>
    <path d="M 402.542726 95.559193 
L 402.181691 86.940508 
L 441.55212 57.767 
L 441.634949 65.930304 
z
" clip-path="url(#pd2e5569609)" style="fill: #e0e1c7"/>
    <path d="M 402.542726 95.559193 
L 441.634949 65.930304 
L 456.912257 69.931491 
L 418.604092 100.234002 
z
" clip-path="url(#pd2e5569609)" style="fill: #878878"/>
    <path d="M 418.988299 113.456613 
L 456.888649 82.46885 
L 472.345004 86.653295 
L 435.258043 118.346213 
z
" clip-path="url(#pd2e5569609)" style="fill: #0e7655"/>
    <path d="M 418.988299 113.456613 
L 418.351653 91.546223 
L 456.927748 61.70493 
L 456.888649 82.46885 
z
" clip-path="url(#pd2e5569609)" style="fill: #17c48e"/>
    <path d="M 435.646578 142.909325 
L 434.908722 96.262198 
L 472.643279 65.729914 
L 472.012288 109.992704 
z
" clip-path="url(#pd2e5569609)" style="fill: #9758aa"/>
    <path d="M 402.181691 86.940508 
L 418.351653 91.546223 
L 456.927748 61.70493 
L 441.55212 57.767 
z
" clip-path="url(#pd2e5569609)" style="fill: #c3c3ad"/>
    <path d="M 418.604092 100.234002 
L 456.912257 69.931491 
L 456.927748 61.70493 
L 418.351653 91.546223 
z
" clip-path="url(#pd2e5569609)" style="fill: #6a6a5e"/>
    <path d="M 451.984355 155.6091 
L 451.866968 101.092441 
L 488.710109 69.844871 
L 487.313748 121.588914 
z
" clip-path="url(#pd2e5569609)" style="fill: #318533"/>
    <path d="M 435.258043 118.346213 
L 472.345004 86.653295 
L 472.643279 65.729914 
L 434.908722 96.262198 
z
" clip-path="url(#pd2e5569609)" style="fill: #0b5d43"/>
    <path d="M 451.968185 148.09941 
L 487.506665 114.44009 
L 488.710109 69.844871 
L 451.866968 101.092441 
z
" clip-path="url(#pd2e5569609)" style="fill: #472950"/>
    <path d="M 418.351653 91.546223 
L 434.908722 96.262198 
L 472.643279 65.729914 
L 456.927748 61.70493 
z
" clip-path="url(#pd2e5569609)" style="fill: #14aa7b"/>
    <path d="M 468.584257 160.975603 
L 503.050223 126.183859 
L 505.140152 74.052853 
L 469.241149 106.041155 
z
" clip-path="url(#pd2e5569609)" style="fill: #173f18"/>
    <path d="M 434.908722 96.262198 
L 451.866968 101.092441 
L 488.710109 69.844871 
L 472.643279 65.729914 
z
" clip-path="url(#pd2e5569609)" style="fill: #834c94"/>
    <path d="M 451.866968 101.092441 
L 469.241149 106.041155 
L 505.140152 74.052853 
L 488.710109 69.844871 
z
" clip-path="url(#pd2e5569609)" style="fill: #2a732c"/>
    <path d="M 402.542726 95.559193 
L 418.604092 100.234002 
L 418.351653 91.546223 
L 402.181691 86.940508 
z
" clip-path="url(#pd2e5569609)" style="fill: #e0e1c7"/>
    <path d="M 418.988299 113.456613 
L 435.258043 118.346213 
L 434.908722 96.262198 
L 418.351653 91.546223 
z
" clip-path="url(#pd2e5569609)" style="fill: #17c48e"/>
    <path d="M 435.646578 142.909325 
L 451.968185 148.09941 
L 451.866968 101.092441 
L 434.908722 96.262198 
z
" clip-path="url(#pd2e5569609)" style="fill: #9758aa"/>
    <path d="M 451.984355 155.6091 
L 468.584257 160.975603 
L 469.241149 106.041155 
L 451.866968 101.092441 
z
" clip-path="url(#pd2e5569609)" style="fill: #318533"/>
   </g>
   <g id="text_50">
    <!-- default -->
    <g transform="translate(431.641379 37.432941) scale(0.12 -0.12)">
     <defs>
      <path id="DejaVuSans-66" d="M 2375 4863 
L 2375 4384 
L 1825 4384 
Q 1516 4384 1395 4259 
Q 1275 4134 1275 3809 
L 1275 3500 
L 2222 3500 
L 2222 3053 
L 1275 3053 
L 1275 0 
L 697 0 
L 697 3053 
L 147 3053 
L 147 3500 
L 697 3500 
L 697 3744 
Q 697 4328 969 4595 
Q 1241 4863 1831 4863 
L 2375 4863 
z
" transform="scale(0.015625)"/>
     </defs>
     <use xlink:href="#DejaVuSans-64"/>
     <use xlink:href="#DejaVuSans-65" x="63.476562"/>
     <use xlink:href="#DejaVuSans-66" x="125"/>
     <use xlink:href="#DejaVuSans-61" x="160.205078"/>
     <use xlink:href="#DejaVuSans-75" x="221.484375"/>
     <use xlink:href="#DejaVuSans-6c" x="284.863281"/>
     <use xlink:href="#DejaVuSans-74" x="312.646484"/>
    </g>
   </g>
   <g id="Poly3DCollection_6">
    <path d="M 402.181691 86.940508 
L 418.351653 91.546223 
L 456.927748 61.70493 
L 441.55212 57.767 
z
" clip-path="url(#pd2e5569609)" style="fill: #c30000"/>
    <path d="M 418.351653 91.546223 
L 434.908722 96.262198 
L 472.643279 65.729914 
L 456.927748 61.70493 
z
" clip-path="url(#pd2e5569609)" style="fill: #c30000"/>
    <path d="M 434.908722 96.262198 
L 451.866968 101.092441 
L 488.710109 69.844871 
L 472.643279 65.729914 
z
" clip-path="url(#pd2e5569609)" style="fill: #c30000"/>
    <path d="M 451.866968 101.092441 
L 469.241149 106.041155 
L 505.140152 74.052853 
L 488.710109 69.844871 
z
" clip-path="url(#pd2e5569609)" style="fill: #c30000"/>
   </g>
  </g>
 </g>
 <defs>
  <clipPath id="p5283607e8f">
   <rect x="72" y="43.432941" width="131.294118" height="131.294118"/>
  </clipPath>
  <clipPath id="p75f989d0b8">
   <rect x="229.552941" y="43.432941" width="131.294118" height="131.294118"/>
  </clipPath>
  <clipPath id="pd2e5569609">
   <rect x="387.105882" y="43.432941" width="131.294118" height="131.294118"/>
  </clipPath>
 </defs>
</svg>
