<?xml version="1.0" encoding="utf-8" standalone="no"?>
<!DOCTYPE svg PUBLIC "-//W3C//DTD SVG 1.1//EN"
  "http://www.w3.org/Graphics/SVG/1.1/DTD/svg11.dtd">
<svg xmlns:xlink="http://www.w3.org/1999/xlink" width="576pt" height="216pt" viewBox="0 0 576 216" xmlns="http://www.w3.org/2000/svg" version="1.1">
 <metadata>
  <rdf:RDF xmlns:dc="http://purl.org/dc/elements/1.1/" xmlns:cc="http://creativecommons.org/ns#" xmlns:rdf="http://www.w3.org/1999/02/22-rdf-syntax-ns#">
   <cc:Work>
    <dc:type rdf:resource="http://purl.org/dc/dcmitype/StillImage"/>
    <dc:date>2025-08-02T20:09:28.560446</dc:date>
    <dc:format>image/svg+xml</dc:format>
    <dc:creator>
     <cc:Agent>
      <dc:title>Matplotlib v3.9.0, https://matplotlib.org/</dc:title>
     </cc:Agent>
    </dc:creator>
   </cc:Work>
  </rdf:RDF>
 </metadata>
 <defs>
  <style type="text/css">*{stroke-linejoin: round; stroke-linecap: butt}</style>
 </defs>
 <g id="figure_1">
  <g id="patch_1">
   <path d="M 0 216 
L 576 216 
L 576 0 
L 0 0 
z
" style="fill: #ffffff"/>
  </g>
  <g id="patch_2">
   <path d="M 90.294545 192.24 
L 256.614545 192.24 
L 256.614545 25.92 
L 90.294545 25.92 
z
" style="fill: #ffffff"/>
  </g>
  <g id="pane3d_1">
   <g id="patch_3">
    <path d="M 102.852852 151.230818 
L 157.777148 105.192184 
L 157.013648 38.796244 
L 99.460941 80.795588 
" style="fill: #f2f2f2; opacity: 0.5; stroke: #f2f2f2; stroke-linejoin: miter"/>
   </g>
  </g>
  <g id="pane3d_2">
   <g id="patch_4">
    <path d="M 157.777148 105.192184 
L 245.911046 130.809229 
L 249.056234 62.126357 
L 157.013648 38.796244 
" style="fill: #e6e6e6; opacity: 0.5; stroke: #e6e6e6; stroke-linejoin: miter"/>
   </g>
  </g>
  <g id="pane3d_3">
   <g id="patch_5">
    <path d="M 102.852852 151.230818 
L 196.279089 181.743827 
L 245.911046 130.809229 
L 157.777148 105.192184 
" style="fill: #ececec; opacity: 0.5; stroke: #ececec; stroke-linejoin: miter"/>
   </g>
  </g>
  <g id="grid3d_1">
   <g id="Line3DCollection_1">
    <path d="M 108.511236 153.078846 
L 163.137182 106.750135 
L 162.600308 40.2123 
" style="fill: none; stroke: #b0b0b0; stroke-width: 0.8"/>
    <path d="M 134.858 161.683699 
L 188.056988 113.993338 
L 188.592574 46.800582 
" style="fill: none; stroke: #b0b0b0; stroke-width: 0.8"/>
    <path d="M 162.019249 170.554563 
L 213.682244 121.441588 
L 215.353019 53.583574 
" style="fill: none; stroke: #b0b0b0; stroke-width: 0.8"/>
   </g>
  </g>
  <g id="grid3d_2">
   <g id="Line3DCollection_2">
    <path d="M 103.440854 77.891229 
L 106.637601 148.058367 
L 199.713236 178.219547 
" style="fill: none; stroke: #b0b0b0; stroke-width: 0.8"/>
    <path d="M 116.737324 68.188071 
L 119.29645 137.447469 
L 211.184234 166.44748 
" style="fill: none; stroke: #b0b0b0; stroke-width: 0.8"/>
    <path d="M 129.517532 58.861657 
L 131.48473 127.231011 
L 222.206762 155.135655 
" style="fill: none; stroke: #b0b0b0; stroke-width: 0.8"/>
    <path d="M 141.810974 49.890463 
L 143.2282 117.387401 
L 232.806615 144.257598 
" style="fill: none; stroke: #b0b0b0; stroke-width: 0.8"/>
   </g>
  </g>
  <g id="grid3d_3">
   <g id="Line3DCollection_3">
    <path d="M 245.971304 129.493341 
L 157.76249 103.917475 
L 102.787975 149.883587 
" style="fill: none; stroke: #b0b0b0; stroke-width: 0.8"/>
    <path d="M 246.779697 111.840112 
L 157.565959 86.826648 
L 101.917203 131.80146 
" style="fill: none; stroke: #b0b0b0; stroke-width: 0.8"/>
    <path d="M 247.606906 93.775982 
L 157.365075 69.35721 
L 101.025383 113.282224 
" style="fill: none; stroke: #b0b0b0; stroke-width: 0.8"/>
    <path d="M 248.453596 75.286437 
L 157.15969 51.496437 
L 100.11174 94.309836 
" style="fill: none; stroke: #b0b0b0; stroke-width: 0.8"/>
   </g>
  </g>
  <g id="axis3d_1">
   <g id="line2d_1">
    <path d="M 102.852852 151.230818 
L 196.279089 181.743827 
" style="fill: none; stroke: #000000; stroke-width: 0.8; stroke-linecap: square"/>
   </g>
   <g id="xtick_1">
    <g id="line2d_2">
     <path d="M 108.986915 152.675418 
L 107.557835 153.887433 
" style="fill: none; stroke: #000000; stroke-width: 0.8; stroke-linecap: square"/>
    </g>
    <g id="text_1">
     <!-- 0.01 -->
     <g transform="translate(89.832544 176.423114) scale(0.1 -0.1)">
      <defs>
       <path id="DejaVuSans-30" d="M 2034 4250 
Q 1547 4250 1301 3770 
Q 1056 3291 1056 2328 
Q 1056 1369 1301 889 
Q 1547 409 2034 409 
Q 2525 409 2770 889 
Q 3016 1369 3016 2328 
Q 3016 3291 2770 3770 
Q 2525 4250 2034 4250 
z
M 2034 4750 
Q 2819 4750 3233 4129 
Q 3647 3509 3647 2328 
Q 3647 1150 3233 529 
Q 2819 -91 2034 -91 
Q 1250 -91 836 529 
Q 422 1150 422 2328 
Q 422 3509 836 4129 
Q 1250 4750 2034 4750 
z
" transform="scale(0.015625)"/>
       <path id="DejaVuSans-2e" d="M 684 794 
L 1344 794 
L 1344 0 
L 684 0 
L 684 794 
z
" transform="scale(0.015625)"/>
       <path id="DejaVuSans-31" d="M 794 531 
L 1825 531 
L 1825 4091 
L 703 3866 
L 703 4441 
L 1819 4666 
L 2450 4666 
L 2450 531 
L 3481 531 
L 3481 0 
L 794 0 
L 794 531 
z
" transform="scale(0.015625)"/>
      </defs>
      <use xlink:href="#DejaVuSans-30"/>
      <use xlink:href="#DejaVuSans-2e" x="63.623047"/>
      <use xlink:href="#DejaVuSans-30" x="95.410156"/>
      <use xlink:href="#DejaVuSans-31" x="159.033203"/>
     </g>
    </g>
   </g>
   <g id="xtick_2">
    <g id="line2d_3">
     <path d="M 135.321826 161.267901 
L 133.928326 162.517108 
" style="fill: none; stroke: #000000; stroke-width: 0.8; stroke-linecap: square"/>
    </g>
    <g id="text_2">
     <!-- 0.05 -->
     <g transform="translate(116.223207 185.321175) scale(0.1 -0.1)">
      <defs>
       <path id="DejaVuSans-35" d="M 691 4666 
L 3169 4666 
L 3169 4134 
L 1269 4134 
L 1269 2991 
Q 1406 3038 1543 3061 
Q 1681 3084 1819 3084 
Q 2600 3084 3056 2656 
Q 3513 2228 3513 1497 
Q 3513 744 3044 326 
Q 2575 -91 1722 -91 
Q 1428 -91 1123 -41 
Q 819 9 494 109 
L 494 744 
Q 775 591 1075 516 
Q 1375 441 1709 441 
Q 2250 441 2565 725 
Q 2881 1009 2881 1497 
Q 2881 1984 2565 2268 
Q 2250 2553 1709 2553 
Q 1456 2553 1204 2497 
Q 953 2441 691 2322 
L 691 4666 
z
" transform="scale(0.015625)"/>
      </defs>
      <use xlink:href="#DejaVuSans-30"/>
      <use xlink:href="#DejaVuSans-2e" x="63.623047"/>
      <use xlink:href="#DejaVuSans-30" x="95.410156"/>
      <use xlink:href="#DejaVuSans-35" x="159.033203"/>
     </g>
    </g>
   </g>
   <g id="xtick_3">
    <g id="line2d_4">
     <path d="M 162.470258 170.125816 
L 161.115238 171.413954 
" style="fill: none; stroke: #000000; stroke-width: 0.8; stroke-linecap: square"/>
    </g>
    <g id="text_3">
     <!-- 0.1 -->
     <g transform="translate(146.615977 194.496002) scale(0.1 -0.1)">
      <use xlink:href="#DejaVuSans-30"/>
      <use xlink:href="#DejaVuSans-2e" x="63.623047"/>
      <use xlink:href="#DejaVuSans-31" x="95.410156"/>
     </g>
    </g>
   </g>
   <g id="text_4">
    <!-- support -->
    <g transform="translate(112.856474 198.196915) rotate(-341.912962) scale(0.1 -0.1)">
     <defs>
      <path id="DejaVuSans-73" d="M 2834 3397 
L 2834 2853 
Q 2591 2978 2328 3040 
Q 2066 3103 1784 3103 
Q 1356 3103 1142 2972 
Q 928 2841 928 2578 
Q 928 2378 1081 2264 
Q 1234 2150 1697 2047 
L 1894 2003 
Q 2506 1872 2764 1633 
Q 3022 1394 3022 966 
Q 3022 478 2636 193 
Q 2250 -91 1575 -91 
Q 1294 -91 989 -36 
Q 684 19 347 128 
L 347 722 
Q 666 556 975 473 
Q 1284 391 1588 391 
Q 1994 391 2212 530 
Q 2431 669 2431 922 
Q 2431 1156 2273 1281 
Q 2116 1406 1581 1522 
L 1381 1569 
Q 847 1681 609 1914 
Q 372 2147 372 2553 
Q 372 3047 722 3315 
Q 1072 3584 1716 3584 
Q 2034 3584 2315 3537 
Q 2597 3491 2834 3397 
z
" transform="scale(0.015625)"/>
      <path id="DejaVuSans-75" d="M 544 1381 
L 544 3500 
L 1119 3500 
L 1119 1403 
Q 1119 906 1312 657 
Q 1506 409 1894 409 
Q 2359 409 2629 706 
Q 2900 1003 2900 1516 
L 2900 3500 
L 3475 3500 
L 3475 0 
L 2900 0 
L 2900 538 
Q 2691 219 2414 64 
Q 2138 -91 1772 -91 
Q 1169 -91 856 284 
Q 544 659 544 1381 
z
M 1991 3584 
L 1991 3584 
z
" transform="scale(0.015625)"/>
      <path id="DejaVuSans-70" d="M 1159 525 
L 1159 -1331 
L 581 -1331 
L 581 3500 
L 1159 3500 
L 1159 2969 
Q 1341 3281 1617 3432 
Q 1894 3584 2278 3584 
Q 2916 3584 3314 3078 
Q 3713 2572 3713 1747 
Q 3713 922 3314 415 
Q 2916 -91 2278 -91 
Q 1894 -91 1617 61 
Q 1341 213 1159 525 
z
M 3116 1747 
Q 3116 2381 2855 2742 
Q 2594 3103 2138 3103 
Q 1681 3103 1420 2742 
Q 1159 2381 1159 1747 
Q 1159 1113 1420 752 
Q 1681 391 2138 391 
Q 2594 391 2855 752 
Q 3116 1113 3116 1747 
z
" transform="scale(0.015625)"/>
      <path id="DejaVuSans-6f" d="M 1959 3097 
Q 1497 3097 1228 2736 
Q 959 2375 959 1747 
Q 959 1119 1226 758 
Q 1494 397 1959 397 
Q 2419 397 2687 759 
Q 2956 1122 2956 1747 
Q 2956 2369 2687 2733 
Q 2419 3097 1959 3097 
z
M 1959 3584 
Q 2709 3584 3137 3096 
Q 3566 2609 3566 1747 
Q 3566 888 3137 398 
Q 2709 -91 1959 -91 
Q 1206 -91 779 398 
Q 353 888 353 1747 
Q 353 2609 779 3096 
Q 1206 3584 1959 3584 
z
" transform="scale(0.015625)"/>
      <path id="DejaVuSans-72" d="M 2631 2963 
Q 2534 3019 2420 3045 
Q 2306 3072 2169 3072 
Q 1681 3072 1420 2755 
Q 1159 2438 1159 1844 
L 1159 0 
L 581 0 
L 581 3500 
L 1159 3500 
L 1159 2956 
Q 1341 3275 1631 3429 
Q 1922 3584 2338 3584 
Q 2397 3584 2469 3576 
Q 2541 3569 2628 3553 
L 2631 2963 
z
" transform="scale(0.015625)"/>
      <path id="DejaVuSans-74" d="M 1172 4494 
L 1172 3500 
L 2356 3500 
L 2356 3053 
L 1172 3053 
L 1172 1153 
Q 1172 725 1289 603 
Q 1406 481 1766 481 
L 2356 481 
L 2356 0 
L 1766 0 
Q 1100 0 847 248 
Q 594 497 594 1153 
L 594 3053 
L 172 3053 
L 172 3500 
L 594 3500 
L 594 4494 
L 1172 4494 
z
" transform="scale(0.015625)"/>
     </defs>
     <use xlink:href="#DejaVuSans-73"/>
     <use xlink:href="#DejaVuSans-75" x="52.099609"/>
     <use xlink:href="#DejaVuSans-70" x="115.478516"/>
     <use xlink:href="#DejaVuSans-70" x="178.955078"/>
     <use xlink:href="#DejaVuSans-6f" x="242.431641"/>
     <use xlink:href="#DejaVuSans-72" x="303.613281"/>
     <use xlink:href="#DejaVuSans-74" x="344.726562"/>
    </g>
   </g>
  </g>
  <g id="axis3d_2">
   <g id="line2d_5">
    <path d="M 245.911046 130.809229 
L 196.279089 181.743827 
" style="fill: none; stroke: #000000; stroke-width: 0.8; stroke-linecap: square"/>
   </g>
   <g id="xtick_4">
    <g id="line2d_6">
     <path d="M 198.928885 177.965378 
L 201.283967 178.728542 
" style="fill: none; stroke: #000000; stroke-width: 0.8; stroke-linecap: square"/>
    </g>
    <g id="text_5">
     <!-- 1000 -->
     <g transform="translate(199.873499 199.246101) scale(0.1 -0.1)">
      <use xlink:href="#DejaVuSans-31"/>
      <use xlink:href="#DejaVuSans-30" x="63.623047"/>
      <use xlink:href="#DejaVuSans-30" x="127.246094"/>
      <use xlink:href="#DejaVuSans-30" x="190.869141"/>
     </g>
    </g>
   </g>
   <g id="xtick_5">
    <g id="line2d_7">
     <path d="M 210.410675 166.203343 
L 212.733313 166.936373 
" style="fill: none; stroke: #000000; stroke-width: 0.8; stroke-linecap: square"/>
    </g>
    <g id="text_6">
     <!-- 2000 -->
     <g transform="translate(211.098127 187.194999) scale(0.1 -0.1)">
      <defs>
       <path id="DejaVuSans-32" d="M 1228 531 
L 3431 531 
L 3431 0 
L 469 0 
L 469 531 
Q 828 903 1448 1529 
Q 2069 2156 2228 2338 
Q 2531 2678 2651 2914 
Q 2772 3150 2772 3378 
Q 2772 3750 2511 3984 
Q 2250 4219 1831 4219 
Q 1534 4219 1204 4116 
Q 875 4013 500 3803 
L 500 4441 
Q 881 4594 1212 4672 
Q 1544 4750 1819 4750 
Q 2544 4750 2975 4387 
Q 3406 4025 3406 3419 
Q 3406 3131 3298 2873 
Q 3191 2616 2906 2266 
Q 2828 2175 2409 1742 
Q 1991 1309 1228 531 
z
" transform="scale(0.015625)"/>
      </defs>
      <use xlink:href="#DejaVuSans-32"/>
      <use xlink:href="#DejaVuSans-30" x="63.623047"/>
      <use xlink:href="#DejaVuSans-30" x="127.246094"/>
      <use xlink:href="#DejaVuSans-30" x="190.869141"/>
     </g>
    </g>
   </g>
   <g id="xtick_6">
    <g id="line2d_8">
     <path d="M 221.443759 154.900968 
L 223.734665 155.605614 
" style="fill: none; stroke: #000000; stroke-width: 0.8; stroke-linecap: square"/>
    </g>
    <g id="text_7">
     <!-- 5000 -->
     <g transform="translate(221.883512 175.615482) scale(0.1 -0.1)">
      <use xlink:href="#DejaVuSans-35"/>
      <use xlink:href="#DejaVuSans-30" x="63.623047"/>
      <use xlink:href="#DejaVuSans-30" x="127.246094"/>
      <use xlink:href="#DejaVuSans-30" x="190.869141"/>
     </g>
    </g>
   </g>
   <g id="xtick_7">
    <g id="line2d_9">
     <path d="M 232.053935 144.031822 
L 234.313811 144.709701 
" style="fill: none; stroke: #000000; stroke-width: 0.8; stroke-linecap: square"/>
    </g>
    <g id="text_8">
     <!-- 10000 -->
     <g transform="translate(229.073693 164.4804) scale(0.1 -0.1)">
      <use xlink:href="#DejaVuSans-31"/>
      <use xlink:href="#DejaVuSans-30" x="63.623047"/>
      <use xlink:href="#DejaVuSans-30" x="127.246094"/>
      <use xlink:href="#DejaVuSans-30" x="190.869141"/>
      <use xlink:href="#DejaVuSans-30" x="254.492188"/>
     </g>
    </g>
   </g>
   <g id="text_9">
    <!-- window -->
    <g transform="translate(237.933917 198.680808) rotate(-45.742112) scale(0.1 -0.1)">
     <defs>
      <path id="DejaVuSans-77" d="M 269 3500 
L 844 3500 
L 1563 769 
L 2278 3500 
L 2956 3500 
L 3675 769 
L 4391 3500 
L 4966 3500 
L 4050 0 
L 3372 0 
L 2619 2869 
L 1863 0 
L 1184 0 
L 269 3500 
z
" transform="scale(0.015625)"/>
      <path id="DejaVuSans-69" d="M 603 3500 
L 1178 3500 
L 1178 0 
L 603 0 
L 603 3500 
z
M 603 4863 
L 1178 4863 
L 1178 4134 
L 603 4134 
L 603 4863 
z
" transform="scale(0.015625)"/>
      <path id="DejaVuSans-6e" d="M 3513 2113 
L 3513 0 
L 2938 0 
L 2938 2094 
Q 2938 2591 2744 2837 
Q 2550 3084 2163 3084 
Q 1697 3084 1428 2787 
Q 1159 2491 1159 1978 
L 1159 0 
L 581 0 
L 581 3500 
L 1159 3500 
L 1159 2956 
Q 1366 3272 1645 3428 
Q 1925 3584 2291 3584 
Q 2894 3584 3203 3211 
Q 3513 2838 3513 2113 
z
" transform="scale(0.015625)"/>
      <path id="DejaVuSans-64" d="M 2906 2969 
L 2906 4863 
L 3481 4863 
L 3481 0 
L 2906 0 
L 2906 525 
Q 2725 213 2448 61 
Q 2172 -91 1784 -91 
Q 1150 -91 751 415 
Q 353 922 353 1747 
Q 353 2572 751 3078 
Q 1150 3584 1784 3584 
Q 2172 3584 2448 3432 
Q 2725 3281 2906 2969 
z
M 947 1747 
Q 947 1113 1208 752 
Q 1469 391 1925 391 
Q 2381 391 2643 752 
Q 2906 1113 2906 1747 
Q 2906 2381 2643 2742 
Q 2381 3103 1925 3103 
Q 1469 3103 1208 2742 
Q 947 2381 947 1747 
z
" transform="scale(0.015625)"/>
     </defs>
     <use xlink:href="#DejaVuSans-77"/>
     <use xlink:href="#DejaVuSans-69" x="81.787109"/>
     <use xlink:href="#DejaVuSans-6e" x="109.570312"/>
     <use xlink:href="#DejaVuSans-64" x="172.949219"/>
     <use xlink:href="#DejaVuSans-6f" x="236.425781"/>
     <use xlink:href="#DejaVuSans-77" x="297.607422"/>
    </g>
   </g>
  </g>
  <g id="axis3d_3">
   <g id="line2d_10">
    <path d="M 245.911046 130.809229 
L 249.056234 62.126357 
" style="fill: none; stroke: #000000; stroke-width: 0.8; stroke-linecap: square"/>
   </g>
   <g id="xtick_8">
    <g id="line2d_11">
     <path d="M 245.230959 129.27868 
L 247.453756 129.923173 
" style="fill: none; stroke: #000000; stroke-width: 0.8; stroke-linecap: square"/>
    </g>
    <g id="text_10">
     <!-- $10^{0.0}$ -->
     <g transform="translate(252.052445 134.495544) scale(0.1 -0.1)">
      <use xlink:href="#DejaVuSans-31" transform="translate(0 0.765625)"/>
      <use xlink:href="#DejaVuSans-30" transform="translate(63.623047 0.765625)"/>
      <use xlink:href="#DejaVuSans-30" transform="translate(128.203125 39.046875) scale(0.7)"/>
      <use xlink:href="#DejaVuSans-2e" transform="translate(172.739258 39.046875) scale(0.7)"/>
      <use xlink:href="#DejaVuSans-30" transform="translate(194.990234 39.046875) scale(0.7)"/>
     </g>
    </g>
   </g>
   <g id="xtick_9">
    <g id="line2d_12">
     <path d="M 246.030514 111.630059 
L 248.279865 112.260724 
" style="fill: none; stroke: #000000; stroke-width: 0.8; stroke-linecap: square"/>
    </g>
    <g id="text_11">
     <!-- $10^{1.0}$ -->
     <g transform="translate(253.065637 116.898166) scale(0.1 -0.1)">
      <use xlink:href="#DejaVuSans-31" transform="translate(0 0.765625)"/>
      <use xlink:href="#DejaVuSans-30" transform="translate(63.623047 0.765625)"/>
      <use xlink:href="#DejaVuSans-31" transform="translate(128.203125 39.046875) scale(0.7)"/>
      <use xlink:href="#DejaVuSans-2e" transform="translate(172.739258 39.046875) scale(0.7)"/>
      <use xlink:href="#DejaVuSans-30" transform="translate(194.990234 39.046875) scale(0.7)"/>
     </g>
    </g>
   </g>
   <g id="xtick_10">
    <g id="line2d_13">
     <path d="M 246.848672 93.57081 
L 249.125219 94.186827 
" style="fill: none; stroke: #000000; stroke-width: 0.8; stroke-linecap: square"/>
    </g>
    <g id="text_12">
     <!-- $10^{2.0}$ -->
     <g transform="translate(254.102297 98.893196) scale(0.1 -0.1)">
      <use xlink:href="#DejaVuSans-31" transform="translate(0 0.765625)"/>
      <use xlink:href="#DejaVuSans-30" transform="translate(63.623047 0.765625)"/>
      <use xlink:href="#DejaVuSans-32" transform="translate(128.203125 39.046875) scale(0.7)"/>
      <use xlink:href="#DejaVuSans-2e" transform="translate(172.739258 39.046875) scale(0.7)"/>
      <use xlink:href="#DejaVuSans-30" transform="translate(194.990234 39.046875) scale(0.7)"/>
     </g>
    </g>
   </g>
   <g id="xtick_11">
    <g id="line2d_14">
     <path d="M 247.68609 75.086435 
L 249.990498 75.686934 
" style="fill: none; stroke: #000000; stroke-width: 0.8; stroke-linecap: square"/>
    </g>
    <g id="text_13">
     <!-- $10^{3.0}$ -->
     <g transform="translate(255.16325 80.466307) scale(0.1 -0.1)">
      <defs>
       <path id="DejaVuSans-33" d="M 2597 2516 
Q 3050 2419 3304 2112 
Q 3559 1806 3559 1356 
Q 3559 666 3084 287 
Q 2609 -91 1734 -91 
Q 1441 -91 1130 -33 
Q 819 25 488 141 
L 488 750 
Q 750 597 1062 519 
Q 1375 441 1716 441 
Q 2309 441 2620 675 
Q 2931 909 2931 1356 
Q 2931 1769 2642 2001 
Q 2353 2234 1838 2234 
L 1294 2234 
L 1294 2753 
L 1863 2753 
Q 2328 2753 2575 2939 
Q 2822 3125 2822 3475 
Q 2822 3834 2567 4026 
Q 2313 4219 1838 4219 
Q 1578 4219 1281 4162 
Q 984 4106 628 3988 
L 628 4550 
Q 988 4650 1302 4700 
Q 1616 4750 1894 4750 
Q 2613 4750 3031 4423 
Q 3450 4097 3450 3541 
Q 3450 3153 3228 2886 
Q 3006 2619 2597 2516 
z
" transform="scale(0.015625)"/>
      </defs>
      <use xlink:href="#DejaVuSans-31" transform="translate(0 0.765625)"/>
      <use xlink:href="#DejaVuSans-30" transform="translate(63.623047 0.765625)"/>
      <use xlink:href="#DejaVuSans-33" transform="translate(128.203125 39.046875) scale(0.7)"/>
      <use xlink:href="#DejaVuSans-2e" transform="translate(172.739258 39.046875) scale(0.7)"/>
      <use xlink:href="#DejaVuSans-30" transform="translate(194.990234 39.046875) scale(0.7)"/>
     </g>
    </g>
   </g>
   <g id="text_14">
    <!-- elapsed -->
    <g transform="translate(289.526602 111.497396) rotate(-87.378092) scale(0.1 -0.1)">
     <defs>
      <path id="DejaVuSans-65" d="M 3597 1894 
L 3597 1613 
L 953 1613 
Q 991 1019 1311 708 
Q 1631 397 2203 397 
Q 2534 397 2845 478 
Q 3156 559 3463 722 
L 3463 178 
Q 3153 47 2828 -22 
Q 2503 -91 2169 -91 
Q 1331 -91 842 396 
Q 353 884 353 1716 
Q 353 2575 817 3079 
Q 1281 3584 2069 3584 
Q 2775 3584 3186 3129 
Q 3597 2675 3597 1894 
z
M 3022 2063 
Q 3016 2534 2758 2815 
Q 2500 3097 2075 3097 
Q 1594 3097 1305 2825 
Q 1016 2553 972 2059 
L 3022 2063 
z
" transform="scale(0.015625)"/>
      <path id="DejaVuSans-6c" d="M 603 4863 
L 1178 4863 
L 1178 0 
L 603 0 
L 603 4863 
z
" transform="scale(0.015625)"/>
      <path id="DejaVuSans-61" d="M 2194 1759 
Q 1497 1759 1228 1600 
Q 959 1441 959 1056 
Q 959 750 1161 570 
Q 1363 391 1709 391 
Q 2188 391 2477 730 
Q 2766 1069 2766 1631 
L 2766 1759 
L 2194 1759 
z
M 3341 1997 
L 3341 0 
L 2766 0 
L 2766 531 
Q 2569 213 2275 61 
Q 1981 -91 1556 -91 
Q 1019 -91 701 211 
Q 384 513 384 1019 
Q 384 1609 779 1909 
Q 1175 2209 1959 2209 
L 2766 2209 
L 2766 2266 
Q 2766 2663 2505 2880 
Q 2244 3097 1772 3097 
Q 1472 3097 1187 3025 
Q 903 2953 641 2809 
L 641 3341 
Q 956 3463 1253 3523 
Q 1550 3584 1831 3584 
Q 2591 3584 2966 3190 
Q 3341 2797 3341 1997 
z
" transform="scale(0.015625)"/>
     </defs>
     <use xlink:href="#DejaVuSans-65"/>
     <use xlink:href="#DejaVuSans-6c" x="61.523438"/>
     <use xlink:href="#DejaVuSans-61" x="89.306641"/>
     <use xlink:href="#DejaVuSans-70" x="150.585938"/>
     <use xlink:href="#DejaVuSans-73" x="214.0625"/>
     <use xlink:href="#DejaVuSans-65" x="266.162109"/>
     <use xlink:href="#DejaVuSans-64" x="327.685547"/>
    </g>
   </g>
  </g>
  <g id="axes_1">
   <g id="Poly3DCollection_1">
    <path d="M 148.647417 117.722579 
L 173.979277 125.302739 
L 184.944136 115.497173 
L 159.916139 108.189167 
z
" clip-path="url(#p9dd1d91afb)" style="fill: #c30000"/>
    <path d="M 173.979277 125.302739 
L 200.046332 133.102894 
L 210.68507 123.013352 
L 184.944136 115.497173 
z
" clip-path="url(#p9dd1d91afb)" style="fill: #c30000"/>
    <path d="M 136.958128 127.611795 
L 162.599226 135.479599 
L 173.979277 125.302739 
L 148.647417 117.722579 
z
" clip-path="url(#p9dd1d91afb)" style="fill: #c30000"/>
    <path d="M 200.046332 133.102894 
L 226.881059 141.132763 
L 237.169845 130.746727 
L 210.68507 123.013352 
z
" clip-path="url(#p9dd1d91afb)" style="fill: #c30000"/>
    <path d="M 162.599226 135.479599 
L 188.998792 143.580135 
L 200.046332 133.102894 
L 173.979277 125.302739 
z
" clip-path="url(#p9dd1d91afb)" style="fill: #c30000"/>
    <path d="M 124.824277 137.877112 
L 150.779946 146.049251 
L 162.599226 135.479599 
L 136.958128 127.611795 
z
" clip-path="url(#p9dd1d91afb)" style="fill: #c30000"/>
    <path d="M 188.998792 143.580135 
L 216.190985 151.923882 
L 226.881059 141.132763 
L 200.046332 133.102894 
z
" clip-path="url(#p9dd1d91afb)" style="fill: #c30000"/>
    <path d="M 150.779946 146.049251 
L 177.518427 154.467858 
L 188.998792 143.580135 
L 162.599226 135.479599 
z
" clip-path="url(#p9dd1d91afb)" style="fill: #c30000"/>
    <path d="M 112.220014 148.540403 
L 138.495506 157.034881 
L 150.779946 146.049251 
L 124.824277 137.877112 
z
" clip-path="url(#p9dd1d91afb)" style="fill: #c30000"/>
    <path d="M 177.518427 154.467858 
L 205.075677 163.144254 
L 216.190985 151.923882 
L 188.998792 143.580135 
z
" clip-path="url(#p9dd1d91afb)" style="fill: #c30000"/>
    <path d="M 138.495506 157.034881 
L 165.579291 165.790668 
L 177.518427 154.467858 
L 150.779946 146.049251 
z
" clip-path="url(#p9dd1d91afb)" style="fill: #c30000"/>
    <path d="M 165.579291 165.790668 
L 193.509248 174.82001 
L 205.075677 163.144254 
L 177.518427 154.467858 
z
" clip-path="url(#p9dd1d91afb)" style="fill: #c30000"/>
   </g>
   <g id="text_15">
    <!-- graph -->
    <g transform="translate(155.890483 19.92) scale(0.12 -0.12)">
     <defs>
      <path id="DejaVuSans-67" d="M 2906 1791 
Q 2906 2416 2648 2759 
Q 2391 3103 1925 3103 
Q 1463 3103 1205 2759 
Q 947 2416 947 1791 
Q 947 1169 1205 825 
Q 1463 481 1925 481 
Q 2391 481 2648 825 
Q 2906 1169 2906 1791 
z
M 3481 434 
Q 3481 -459 3084 -895 
Q 2688 -1331 1869 -1331 
Q 1566 -1331 1297 -1286 
Q 1028 -1241 775 -1147 
L 775 -588 
Q 1028 -725 1275 -790 
Q 1522 -856 1778 -856 
Q 2344 -856 2625 -561 
Q 2906 -266 2906 331 
L 2906 616 
Q 2728 306 2450 153 
Q 2172 0 1784 0 
Q 1141 0 747 490 
Q 353 981 353 1791 
Q 353 2603 747 3093 
Q 1141 3584 1784 3584 
Q 2172 3584 2450 3431 
Q 2728 3278 2906 2969 
L 2906 3500 
L 3481 3500 
L 3481 434 
z
" transform="scale(0.015625)"/>
      <path id="DejaVuSans-68" d="M 3513 2113 
L 3513 0 
L 2938 0 
L 2938 2094 
Q 2938 2591 2744 2837 
Q 2550 3084 2163 3084 
Q 1697 3084 1428 2787 
Q 1159 2491 1159 1978 
L 1159 0 
L 581 0 
L 581 4863 
L 1159 4863 
L 1159 2956 
Q 1366 3272 1645 3428 
Q 1925 3584 2291 3584 
Q 2894 3584 3203 3211 
Q 3513 2838 3513 2113 
z
" transform="scale(0.015625)"/>
     </defs>
     <use xlink:href="#DejaVuSans-67"/>
     <use xlink:href="#DejaVuSans-72" x="63.476562"/>
     <use xlink:href="#DejaVuSans-61" x="104.589844"/>
     <use xlink:href="#DejaVuSans-70" x="165.869141"/>
     <use xlink:href="#DejaVuSans-68" x="229.345703"/>
    </g>
   </g>
   <g id="Poly3DCollection_2">
    <path d="M 159.916139 108.189167 
L 159.724932 89.344638 
L 185.05767 96.474539 
L 184.944136 115.497173 
z
" clip-path="url(#p9dd1d91afb)" style="fill: #4e5e12"/>
    <path d="M 148.647417 117.722579 
L 148.313643 98.646192 
L 159.724932 89.344638 
L 159.916139 108.189167 
z
" clip-path="url(#p9dd1d91afb)" style="fill: #a5c726"/>
    <path d="M 148.647417 117.722579 
L 159.916139 108.189167 
L 184.944136 115.497173 
L 173.979277 125.302739 
z
" clip-path="url(#p9dd1d91afb)" style="fill: #637817"/>
    <path d="M 184.944136 115.497173 
L 185.004769 105.338212 
L 210.917868 112.758753 
L 210.68507 123.013352 
z
" clip-path="url(#p9dd1d91afb)" style="fill: #671f23"/>
    <path d="M 173.979277 125.302739 
L 173.967763 115.019285 
L 185.004769 105.338212 
L 184.944136 115.497173 
z
" clip-path="url(#p9dd1d91afb)" style="fill: #da414b"/>
    <path d="M 148.313643 98.646192 
L 173.957715 106.044944 
L 185.05767 96.474539 
L 159.724932 89.344638 
z
" clip-path="url(#p9dd1d91afb)" style="fill: #8fad21"/>
    <path d="M 173.979277 125.302739 
L 184.944136 115.497173 
L 185.05767 96.474539 
L 173.957715 106.044944 
z
" clip-path="url(#p9dd1d91afb)" style="fill: #4e5e12"/>
    <path d="M 173.979277 125.302739 
L 184.944136 115.497173 
L 210.68507 123.013352 
L 200.046332 133.102894 
z
" clip-path="url(#p9dd1d91afb)" style="fill: #84272d"/>
    <path d="M 148.647417 117.722579 
L 173.979277 125.302739 
L 173.957715 106.044944 
L 148.313643 98.646192 
z
" clip-path="url(#p9dd1d91afb)" style="fill: #a5c726"/>
    <path d="M 148.647417 117.722579 
L 148.209809 92.711746 
L 173.951005 100.052678 
L 173.979277 125.302739 
z
" clip-path="url(#p9dd1d91afb)" style="fill: #125d18"/>
    <path d="M 136.958128 127.611795 
L 148.647417 117.722579 
L 173.979277 125.302739 
L 162.599226 135.479599 
z
" clip-path="url(#p9dd1d91afb)" style="fill: #17771e"/>
    <path d="M 136.958128 127.611795 
L 136.319559 102.289537 
L 148.209809 92.711746 
L 148.647417 117.722579 
z
" clip-path="url(#p9dd1d91afb)" style="fill: #27c632"/>
    <path d="M 173.967763 115.019285 
L 200.211408 122.722095 
L 210.917868 112.758753 
L 185.004769 105.338212 
z
" clip-path="url(#p9dd1d91afb)" style="fill: #bd3941"/>
    <path d="M 210.68507 123.013352 
L 210.85264 115.632016 
L 237.468551 123.295804 
L 237.169845 130.746727 
z
" clip-path="url(#p9dd1d91afb)" style="fill: #101d53"/>
    <path d="M 200.046332 133.102894 
L 200.165151 125.630981 
L 210.85264 115.632016 
L 210.68507 123.013352 
z
" clip-path="url(#p9dd1d91afb)" style="fill: #223daf"/>
    <path d="M 200.046332 133.102894 
L 210.68507 123.013352 
L 210.917868 112.758753 
L 200.211408 122.722095 
z
" clip-path="url(#p9dd1d91afb)" style="fill: #671f23"/>
    <path d="M 173.979277 125.302739 
L 200.046332 133.102894 
L 200.211408 122.722095 
L 173.967763 115.019285 
z
" clip-path="url(#p9dd1d91afb)" style="fill: #da414b"/>
    <path d="M 173.979277 125.302739 
L 173.967391 114.687297 
L 200.216737 122.38693 
L 200.046332 133.102894 
z
" clip-path="url(#p9dd1d91afb)" style="fill: #402208"/>
    <path d="M 200.046332 133.102894 
L 210.68507 123.013352 
L 237.169845 130.746727 
L 226.881059 141.132763 
z
" clip-path="url(#p9dd1d91afb)" style="fill: #14256a"/>
    <path d="M 162.599226 135.479599 
L 162.507106 124.733313 
L 173.967391 114.687297 
L 173.979277 125.302739 
z
" clip-path="url(#p9dd1d91afb)" style="fill: #884711"/>
    <path d="M 162.599226 135.479599 
L 173.979277 125.302739 
L 200.046332 133.102894 
L 188.998792 143.580135 
z
" clip-path="url(#p9dd1d91afb)" style="fill: #522b0a"/>
    <path d="M 200.165151 125.630981 
L 227.134548 133.590054 
L 237.468551 123.295804 
L 210.85264 115.632016 
z
" clip-path="url(#p9dd1d91afb)" style="fill: #1d3598"/>
    <path d="M 162.599226 135.479599 
L 173.979277 125.302739 
L 173.951005 100.052678 
L 162.380068 109.913705 
z
" clip-path="url(#p9dd1d91afb)" style="fill: #125d18"/>
    <path d="M 136.319559 102.289537 
L 162.380068 109.913705 
L 173.951005 100.052678 
L 148.209809 92.711746 
z
" clip-path="url(#p9dd1d91afb)" style="fill: #22ac2c"/>
    <path d="M 136.958128 127.611795 
L 162.599226 135.479599 
L 162.380068 109.913705 
L 136.319559 102.289537 
z
" clip-path="url(#p9dd1d91afb)" style="fill: #27c632"/>
    <path d="M 124.824277 137.877112 
L 136.958128 127.611795 
L 162.599226 135.479599 
L 150.779946 146.049251 
z
" clip-path="url(#p9dd1d91afb)" style="fill: #76403d"/>
    <path d="M 226.881059 141.132763 
L 237.169845 130.746727 
L 237.468551 123.295804 
L 227.134548 133.590054 
z
" clip-path="url(#p9dd1d91afb)" style="fill: #101d53"/>
    <path d="M 162.507106 124.733313 
L 189.093668 132.731575 
L 200.216737 122.38693 
L 173.967391 114.687297 
z
" clip-path="url(#p9dd1d91afb)" style="fill: #763e0f"/>
    <path d="M 200.046332 133.102894 
L 226.881059 141.132763 
L 227.134548 133.590054 
L 200.165151 125.630981 
z
" clip-path="url(#p9dd1d91afb)" style="fill: #223daf"/>
    <path d="M 200.046332 133.102894 
L 200.180697 124.653322 
L 227.167718 132.60305 
L 226.881059 141.132763 
z
" clip-path="url(#p9dd1d91afb)" style="fill: #5e2a44"/>
    <path d="M 136.958128 127.611795 
L 135.793694 81.436504 
L 162.19951 88.850811 
L 162.599226 135.479599 
z
" clip-path="url(#p9dd1d91afb)" style="fill: #5c322f"/>
    <path d="M 188.998792 143.580135 
L 189.0736 135.026254 
L 200.180697 124.653322 
L 200.046332 133.102894 
z
" clip-path="url(#p9dd1d91afb)" style="fill: #c85a91"/>
    <path d="M 188.998792 143.580135 
L 200.046332 133.102894 
L 200.216737 122.38693 
L 189.093668 132.731575 
z
" clip-path="url(#p9dd1d91afb)" style="fill: #402208"/>
    <path d="M 124.824277 137.877112 
L 123.265197 91.111424 
L 135.793694 81.436504 
L 136.958128 127.611795 
z
" clip-path="url(#p9dd1d91afb)" style="fill: #c36964"/>
    <path d="M 162.599226 135.479599 
L 188.998792 143.580135 
L 189.093668 132.731575 
L 162.507106 124.733313 
z
" clip-path="url(#p9dd1d91afb)" style="fill: #884711"/>
    <path d="M 162.599226 135.479599 
L 162.476238 121.132377 
L 189.125464 129.095865 
L 188.998792 143.580135 
z
" clip-path="url(#p9dd1d91afb)" style="fill: #39243b"/>
    <path d="M 188.998792 143.580135 
L 200.046332 133.102894 
L 226.881059 141.132763 
L 216.190985 151.923882 
z
" clip-path="url(#p9dd1d91afb)" style="fill: #793658"/>
    <path d="M 150.779946 146.049251 
L 150.541459 131.523647 
L 162.476238 121.132377 
L 162.599226 135.479599 
z
" clip-path="url(#p9dd1d91afb)" style="fill: #784c7e"/>
    <path d="M 150.779946 146.049251 
L 162.599226 135.479599 
L 188.998792 143.580135 
L 177.518427 154.467858 
z
" clip-path="url(#p9dd1d91afb)" style="fill: #492e4c"/>
    <path d="M 189.0736 135.026254 
L 216.422215 143.288507 
L 227.167718 132.60305 
L 200.180697 124.653322 
z
" clip-path="url(#p9dd1d91afb)" style="fill: #ad4e7e"/>
    <path d="M 112.220014 148.540403 
L 124.824277 137.877112 
L 150.779946 146.049251 
L 138.495506 157.034881 
z
" clip-path="url(#p9dd1d91afb)" style="fill: #806685"/>
    <path d="M 216.190985 151.923882 
L 226.881059 141.132763 
L 227.167718 132.60305 
L 216.422215 143.288507 
z
" clip-path="url(#p9dd1d91afb)" style="fill: #5e2a44"/>
    <path d="M 150.779946 146.049251 
L 162.599226 135.479599 
L 162.19951 88.850811 
L 150.004542 98.821466 
z
" clip-path="url(#p9dd1d91afb)" style="fill: #5c322f"/>
    <path d="M 188.998792 143.580135 
L 216.190985 151.923882 
L 216.422215 143.288507 
L 189.0736 135.026254 
z
" clip-path="url(#p9dd1d91afb)" style="fill: #c85a91"/>
    <path d="M 188.998792 143.580135 
L 189.092596 132.854188 
L 216.480937 141.095515 
L 216.190985 151.923882 
z
" clip-path="url(#p9dd1d91afb)" style="fill: #315f62"/>
    <path d="M 150.541459 131.523647 
L 177.536072 139.802869 
L 189.125464 129.095865 
L 162.476238 121.132377 
z
" clip-path="url(#p9dd1d91afb)" style="fill: #68426d"/>
    <path d="M 124.824277 137.877112 
L 150.779946 146.049251 
L 150.004542 98.821466 
L 123.265197 91.111424 
z
" clip-path="url(#p9dd1d91afb)" style="fill: #c36964"/>
    <path d="M 177.518427 154.467858 
L 177.531493 143.60861 
L 189.092596 132.854188 
L 188.998792 143.580135 
z
" clip-path="url(#p9dd1d91afb)" style="fill: #67c8d0"/>
    <path d="M 177.518427 154.467858 
L 188.998792 143.580135 
L 189.125464 129.095865 
L 177.536072 139.802869 
z
" clip-path="url(#p9dd1d91afb)" style="fill: #39243b"/>
    <path d="M 150.779946 146.049251 
L 177.518427 154.467858 
L 177.536072 139.802869 
L 150.541459 131.523647 
z
" clip-path="url(#p9dd1d91afb)" style="fill: #784c7e"/>
    <path d="M 177.518427 154.467858 
L 188.998792 143.580135 
L 216.190985 151.923882 
L 205.075677 163.144254 
z
" clip-path="url(#p9dd1d91afb)" style="fill: #3e797e"/>
    <path d="M 123.265197 91.111424 
L 150.004542 98.821466 
L 162.19951 88.850811 
L 135.793694 81.436504 
z
" clip-path="url(#p9dd1d91afb)" style="fill: #a95b57"/>
    <path d="M 150.779946 146.049251 
L 150.463926 126.801325 
L 177.54181 135.034321 
L 177.518427 154.467858 
z
" clip-path="url(#p9dd1d91afb)" style="fill: #41461a"/>
    <path d="M 124.824277 137.877112 
L 122.602892 71.245126 
L 149.674933 78.745846 
L 150.779946 146.049251 
z
" clip-path="url(#p9dd1d91afb)" style="fill: #644f68"/>
    <path d="M 138.495506 157.034881 
L 138.014313 137.545374 
L 150.463926 126.801325 
L 150.779946 146.049251 
z
" clip-path="url(#p9dd1d91afb)" style="fill: #8a9437"/>
    <path d="M 112.220014 148.540403 
L 109.392191 81.034262 
L 122.602892 71.245126 
L 124.824277 137.877112 
z
" clip-path="url(#p9dd1d91afb)" style="fill: #d5a8dc"/>
    <path d="M 138.495506 157.034881 
L 150.779946 146.049251 
L 177.518427 154.467858 
L 165.579291 165.790668 
z
" clip-path="url(#p9dd1d91afb)" style="fill: #545921"/>
    <path d="M 177.531493 143.60861 
L 205.290244 152.180908 
L 216.480937 141.095515 
L 189.092596 132.854188 
z
" clip-path="url(#p9dd1d91afb)" style="fill: #59aeb5"/>
    <path d="M 205.075677 163.144254 
L 216.190985 151.923882 
L 216.480937 141.095515 
L 205.290244 152.180908 
z
" clip-path="url(#p9dd1d91afb)" style="fill: #315f62"/>
    <path d="M 177.518427 154.467858 
L 205.075677 163.144254 
L 205.290244 152.180908 
L 177.531493 143.60861 
z
" clip-path="url(#p9dd1d91afb)" style="fill: #67c8d0"/>
    <path d="M 177.518427 154.467858 
L 177.534095 141.446296 
L 205.332975 149.997578 
L 205.075677 163.144254 
z
" clip-path="url(#p9dd1d91afb)" style="fill: #57050f"/>
    <path d="M 165.579291 165.790668 
L 165.490209 152.60628 
L 177.534095 141.446296 
L 177.518427 154.467858 
z
" clip-path="url(#p9dd1d91afb)" style="fill: #b90b20"/>
    <path d="M 138.014313 137.545374 
L 165.446332 146.112457 
L 177.54181 135.034321 
L 150.463926 126.801325 
z
" clip-path="url(#p9dd1d91afb)" style="fill: #78802f"/>
    <path d="M 165.579291 165.790668 
L 177.518427 154.467858 
L 177.54181 135.034321 
L 165.446332 146.112457 
z
" clip-path="url(#p9dd1d91afb)" style="fill: #41461a"/>
    <path d="M 138.495506 157.034881 
L 150.779946 146.049251 
L 149.674933 78.745846 
L 136.811888 88.844257 
z
" clip-path="url(#p9dd1d91afb)" style="fill: #644f68"/>
    <path d="M 165.579291 165.790668 
L 177.518427 154.467858 
L 205.075677 163.144254 
L 193.509248 174.82001 
z
" clip-path="url(#p9dd1d91afb)" style="fill: #700714"/>
    <path d="M 138.495506 157.034881 
L 165.579291 165.790668 
L 165.446332 146.112457 
L 138.014313 137.545374 
z
" clip-path="url(#p9dd1d91afb)" style="fill: #8a9437"/>
    <path d="M 112.220014 148.540403 
L 138.495506 157.034881 
L 136.811888 88.844257 
L 109.392191 81.034262 
z
" clip-path="url(#p9dd1d91afb)" style="fill: #d5a8dc"/>
    <path d="M 165.490209 152.60628 
L 193.668423 161.508535 
L 205.332975 149.997578 
L 177.534095 141.446296 
z
" clip-path="url(#p9dd1d91afb)" style="fill: #a10a1c"/>
    <path d="M 193.509248 174.82001 
L 205.075677 163.144254 
L 205.332975 149.997578 
L 193.668423 161.508535 
z
" clip-path="url(#p9dd1d91afb)" style="fill: #57050f"/>
    <path d="M 109.392191 81.034262 
L 136.811888 88.844257 
L 149.674933 78.745846 
L 122.602892 71.245126 
z
" clip-path="url(#p9dd1d91afb)" style="fill: #b992bf"/>
    <path d="M 165.579291 165.790668 
L 193.509248 174.82001 
L 193.668423 161.508535 
L 165.490209 152.60628 
z
" clip-path="url(#p9dd1d91afb)" style="fill: #b90b20"/>
   </g>
  </g>
  <g id="patch_6">
   <path d="M 333.785455 192.24 
L 500.105455 192.24 
L 500.105455 25.92 
L 333.785455 25.92 
z
" style="fill: #ffffff"/>
  </g>
  <g id="pane3d_4">
   <g id="patch_7">
    <path d="M 346.343762 151.230818 
L 401.268057 105.192184 
L 400.504557 38.796244 
L 342.951851 80.795588 
" style="fill: #f2f2f2; opacity: 0.5; stroke: #f2f2f2; stroke-linejoin: miter"/>
   </g>
  </g>
  <g id="pane3d_5">
   <g id="patch_8">
    <path d="M 401.268057 105.192184 
L 489.401955 130.809229 
L 492.547143 62.126357 
L 400.504557 38.796244 
" style="fill: #e6e6e6; opacity: 0.5; stroke: #e6e6e6; stroke-linejoin: miter"/>
   </g>
  </g>
  <g id="pane3d_6">
   <g id="patch_9">
    <path d="M 346.343762 151.230818 
L 439.769998 181.743827 
L 489.401955 130.809229 
L 401.268057 105.192184 
" style="fill: #ececec; opacity: 0.5; stroke: #ececec; stroke-linejoin: miter"/>
   </g>
  </g>
  <g id="grid3d_4">
   <g id="Line3DCollection_4">
    <path d="M 352.002145 153.078846 
L 406.628091 106.750135 
L 406.091217 40.2123 
" style="fill: none; stroke: #b0b0b0; stroke-width: 0.8"/>
    <path d="M 371.687307 159.50802 
L 425.252959 112.163648 
L 425.514706 45.135588 
" style="fill: none; stroke: #b0b0b0; stroke-width: 0.8"/>
    <path d="M 391.82538 166.085115 
L 444.270485 117.691292 
L 445.36557 50.167203 
" style="fill: none; stroke: #b0b0b0; stroke-width: 0.8"/>
    <path d="M 412.432177 172.815295 
L 463.693216 123.336713 
L 465.658072 55.310761 
" style="fill: none; stroke: #b0b0b0; stroke-width: 0.8"/>
   </g>
  </g>
  <g id="grid3d_5">
   <g id="Line3DCollection_5">
    <path d="M 346.931763 77.891229 
L 350.12851 148.058367 
L 443.204145 178.219547 
" style="fill: none; stroke: #b0b0b0; stroke-width: 0.8"/>
   </g>
  </g>
  <g id="grid3d_6">
   <g id="Line3DCollection_6">
    <path d="M 489.462213 129.493341 
L 401.253399 103.917475 
L 346.278884 149.883587 
" style="fill: none; stroke: #b0b0b0; stroke-width: 0.8"/>
    <path d="M 492.228711 69.080106 
L 400.581711 45.505712 
L 343.295783 87.937568 
" style="fill: none; stroke: #b0b0b0; stroke-width: 0.8"/>
   </g>
  </g>
  <g id="axis3d_4">
   <g id="line2d_15">
    <path d="M 346.343762 151.230818 
L 439.769998 181.743827 
" style="fill: none; stroke: #000000; stroke-width: 0.8; stroke-linecap: square"/>
   </g>
   <g id="xtick_12">
    <g id="line2d_16">
     <path d="M 352.477824 152.675418 
L 351.048744 153.887433 
" style="fill: none; stroke: #000000; stroke-width: 0.8; stroke-linecap: square"/>
    </g>
    <g id="text_16">
     <!-- 0.005 -->
     <g transform="translate(330.142203 176.423114) scale(0.1 -0.1)">
      <use xlink:href="#DejaVuSans-30"/>
      <use xlink:href="#DejaVuSans-2e" x="63.623047"/>
      <use xlink:href="#DejaVuSans-30" x="95.410156"/>
      <use xlink:href="#DejaVuSans-30" x="159.033203"/>
      <use xlink:href="#DejaVuSans-35" x="222.65625"/>
     </g>
    </g>
   </g>
   <g id="xtick_13">
    <g id="line2d_17">
     <path d="M 372.154185 159.095367 
L 370.751526 160.335117 
" style="fill: none; stroke: #000000; stroke-width: 0.8; stroke-linecap: square"/>
    </g>
    <g id="text_17">
     <!-- 0.01 -->
     <g transform="translate(353.040962 183.071208) scale(0.1 -0.1)">
      <use xlink:href="#DejaVuSans-30"/>
      <use xlink:href="#DejaVuSans-2e" x="63.623047"/>
      <use xlink:href="#DejaVuSans-30" x="95.410156"/>
      <use xlink:href="#DejaVuSans-31" x="159.033203"/>
     </g>
    </g>
   </g>
   <g id="xtick_14">
    <g id="line2d_18">
     <path d="M 392.282923 165.662916 
L 390.908287 166.931365 
" style="fill: none; stroke: #000000; stroke-width: 0.8; stroke-linecap: square"/>
    </g>
    <g id="text_18">
     <!-- 0.05 -->
     <g transform="translate(373.214894 189.873192) scale(0.1 -0.1)">
      <use xlink:href="#DejaVuSans-30"/>
      <use xlink:href="#DejaVuSans-2e" x="63.623047"/>
      <use xlink:href="#DejaVuSans-30" x="95.410156"/>
      <use xlink:href="#DejaVuSans-35" x="159.033203"/>
     </g>
    </g>
   </g>
   <g id="xtick_15">
    <g id="line2d_19">
     <path d="M 412.879822 172.383216 
L 411.534901 173.681371 
" style="fill: none; stroke: #000000; stroke-width: 0.8; stroke-linecap: square"/>
    </g>
    <g id="text_19">
     <!-- 0.1 -->
     <g transform="translate(397.042531 196.834472) scale(0.1 -0.1)">
      <use xlink:href="#DejaVuSans-30"/>
      <use xlink:href="#DejaVuSans-2e" x="63.623047"/>
      <use xlink:href="#DejaVuSans-31" x="95.410156"/>
     </g>
    </g>
   </g>
   <g id="text_20">
    <!-- support -->
    <g transform="translate(356.347383 198.196915) rotate(-341.912962) scale(0.1 -0.1)">
     <use xlink:href="#DejaVuSans-73"/>
     <use xlink:href="#DejaVuSans-75" x="52.099609"/>
     <use xlink:href="#DejaVuSans-70" x="115.478516"/>
     <use xlink:href="#DejaVuSans-70" x="178.955078"/>
     <use xlink:href="#DejaVuSans-6f" x="242.431641"/>
     <use xlink:href="#DejaVuSans-72" x="303.613281"/>
     <use xlink:href="#DejaVuSans-74" x="344.726562"/>
    </g>
   </g>
  </g>
  <g id="axis3d_5">
   <g id="line2d_20">
    <path d="M 489.401955 130.809229 
L 439.769998 181.743827 
" style="fill: none; stroke: #000000; stroke-width: 0.8; stroke-linecap: square"/>
   </g>
   <g id="xtick_16">
    <g id="line2d_21">
     <path d="M 442.419794 177.965378 
L 444.774876 178.728542 
" style="fill: none; stroke: #000000; stroke-width: 0.8; stroke-linecap: square"/>
    </g>
    <g id="text_21">
     <!-- -1 -->
     <g transform="translate(451.104252 199.246101) scale(0.1 -0.1)">
      <defs>
       <path id="DejaVuSans-2d" d="M 313 2009 
L 1997 2009 
L 1997 1497 
L 313 1497 
L 313 2009 
z
" transform="scale(0.015625)"/>
      </defs>
      <use xlink:href="#DejaVuSans-2d"/>
      <use xlink:href="#DejaVuSans-31" x="36.083984"/>
     </g>
    </g>
   </g>
   <g id="text_22">
    <!-- window -->
    <g transform="translate(481.424826 198.680808) rotate(-45.742112) scale(0.1 -0.1)">
     <use xlink:href="#DejaVuSans-77"/>
     <use xlink:href="#DejaVuSans-69" x="81.787109"/>
     <use xlink:href="#DejaVuSans-6e" x="109.570312"/>
     <use xlink:href="#DejaVuSans-64" x="172.949219"/>
     <use xlink:href="#DejaVuSans-6f" x="236.425781"/>
     <use xlink:href="#DejaVuSans-77" x="297.607422"/>
    </g>
   </g>
  </g>
  <g id="axis3d_6">
   <g id="line2d_22">
    <path d="M 489.401955 130.809229 
L 492.547143 62.126357 
" style="fill: none; stroke: #000000; stroke-width: 0.8; stroke-linecap: square"/>
   </g>
   <g id="xtick_17">
    <g id="line2d_23">
     <path d="M 488.721869 129.27868 
L 490.944665 129.923173 
" style="fill: none; stroke: #000000; stroke-width: 0.8; stroke-linecap: square"/>
    </g>
    <g id="text_23">
     <!-- $10^{0.0}$ -->
     <g transform="translate(495.543354 134.495544) scale(0.1 -0.1)">
      <use xlink:href="#DejaVuSans-31" transform="translate(0 0.765625)"/>
      <use xlink:href="#DejaVuSans-30" transform="translate(63.623047 0.765625)"/>
      <use xlink:href="#DejaVuSans-30" transform="translate(128.203125 39.046875) scale(0.7)"/>
      <use xlink:href="#DejaVuSans-2e" transform="translate(172.739258 39.046875) scale(0.7)"/>
      <use xlink:href="#DejaVuSans-30" transform="translate(194.990234 39.046875) scale(0.7)"/>
     </g>
    </g>
   </g>
   <g id="xtick_18">
    <g id="line2d_24">
     <path d="M 491.458091 68.88188 
L 493.771856 69.47705 
" style="fill: none; stroke: #000000; stroke-width: 0.8; stroke-linecap: square"/>
    </g>
    <g id="text_24">
     <!-- $10^{1.0}$ -->
     <g transform="translate(499.010258 74.281486) scale(0.1 -0.1)">
      <use xlink:href="#DejaVuSans-31" transform="translate(0 0.765625)"/>
      <use xlink:href="#DejaVuSans-30" transform="translate(63.623047 0.765625)"/>
      <use xlink:href="#DejaVuSans-31" transform="translate(128.203125 39.046875) scale(0.7)"/>
      <use xlink:href="#DejaVuSans-2e" transform="translate(172.739258 39.046875) scale(0.7)"/>
      <use xlink:href="#DejaVuSans-30" transform="translate(194.990234 39.046875) scale(0.7)"/>
     </g>
    </g>
   </g>
   <g id="text_25">
    <!-- elapsed -->
    <g transform="translate(533.017511 111.497396) rotate(-87.378092) scale(0.1 -0.1)">
     <use xlink:href="#DejaVuSans-65"/>
     <use xlink:href="#DejaVuSans-6c" x="61.523438"/>
     <use xlink:href="#DejaVuSans-61" x="89.306641"/>
     <use xlink:href="#DejaVuSans-70" x="150.585938"/>
     <use xlink:href="#DejaVuSans-73" x="214.0625"/>
     <use xlink:href="#DejaVuSans-65" x="266.162109"/>
     <use xlink:href="#DejaVuSans-64" x="327.685547"/>
    </g>
   </g>
  </g>
  <g id="axes_2">
   <g id="Poly3DCollection_3">
    <path d="M 355.710923 148.540403 
L 375.343194 154.887226 
L 422.112377 113.650996 
L 403.407048 108.189167 
z
" clip-path="url(#pe47e902346)" style="fill: #c30000"/>
    <path d="M 375.343194 154.887226 
L 395.424958 161.379363 
L 441.214505 119.228689 
L 422.112377 113.650996 
z
" clip-path="url(#pe47e902346)" style="fill: #c30000"/>
    <path d="M 395.424958 161.379363 
L 415.97183 168.021863 
L 460.726192 124.925969 
L 441.214505 119.228689 
z
" clip-path="url(#pe47e902346)" style="fill: #c30000"/>
    <path d="M 415.97183 168.021863 
L 437.000157 174.82001 
L 480.660754 130.746727 
L 460.726192 124.925969 
z
" clip-path="url(#pe47e902346)" style="fill: #c30000"/>
   </g>
   <g id="text_26">
    <!-- default -->
    <g transform="translate(395.833892 19.92) scale(0.12 -0.12)">
     <defs>
      <path id="DejaVuSans-66" d="M 2375 4863 
L 2375 4384 
L 1825 4384 
Q 1516 4384 1395 4259 
Q 1275 4134 1275 3809 
L 1275 3500 
L 2222 3500 
L 2222 3053 
L 1275 3053 
L 1275 0 
L 697 0 
L 697 3053 
L 147 3053 
L 147 3500 
L 697 3500 
L 697 3744 
Q 697 4328 969 4595 
Q 1241 4863 1831 4863 
L 2375 4863 
z
" transform="scale(0.015625)"/>
     </defs>
     <use xlink:href="#DejaVuSans-64"/>
     <use xlink:href="#DejaVuSans-65" x="63.476562"/>
     <use xlink:href="#DejaVuSans-66" x="125"/>
     <use xlink:href="#DejaVuSans-61" x="160.205078"/>
     <use xlink:href="#DejaVuSans-75" x="221.484375"/>
     <use xlink:href="#DejaVuSans-6c" x="284.863281"/>
     <use xlink:href="#DejaVuSans-74" x="312.646484"/>
    </g>
   </g>
   <g id="Poly3DCollection_4">
    <path d="M 403.407048 108.189167 
L 402.756543 44.078016 
L 422.233992 49.066484 
L 422.112377 113.650996 
z
" clip-path="url(#pe47e902346)" style="fill: #4b222d"/>
    <path d="M 422.112377 113.650996 
L 422.206232 63.808624 
L 441.930233 69.021761 
L 441.214505 119.228689 
z
" clip-path="url(#pe47e902346)" style="fill: #375968"/>
    <path d="M 441.214505 119.228689 
L 441.590273 92.869304 
L 461.44263 98.377408 
L 460.726192 124.925969 
z
" clip-path="url(#pe47e902346)" style="fill: #24354e"/>
    <path d="M 460.726192 124.925969 
L 461.258413 105.203808 
L 481.457069 110.883486 
L 480.660754 130.746727 
z
" clip-path="url(#pe47e902346)" style="fill: #2b1c2d"/>
    <path d="M 355.710923 148.540403 
L 403.407048 108.189167 
L 422.112377 113.650996 
L 375.343194 154.887226 
z
" clip-path="url(#pe47e902346)" style="fill: #5f2c3a"/>
    <path d="M 375.343194 154.887226 
L 422.112377 113.650996 
L 441.214505 119.228689 
L 395.424958 161.379363 
z
" clip-path="url(#pe47e902346)" style="fill: #477285"/>
    <path d="M 355.710923 148.540403 
L 352.8831 81.034262 
L 402.756543 44.078016 
L 403.407048 108.189167 
z
" clip-path="url(#pe47e902346)" style="fill: #9e4960"/>
    <path d="M 395.424958 161.379363 
L 441.214505 119.228689 
L 460.726192 124.925969 
L 415.97183 168.021863 
z
" clip-path="url(#pe47e902346)" style="fill: #2e4464"/>
    <path d="M 375.343194 154.887226 
L 373.819067 102.433904 
L 422.206232 63.808624 
L 422.112377 113.650996 
z
" clip-path="url(#pe47e902346)" style="fill: #75bddd"/>
    <path d="M 395.424958 161.379363 
L 394.986627 133.668135 
L 441.590273 92.869304 
L 441.214505 119.228689 
z
" clip-path="url(#pe47e902346)" style="fill: #4c71a6"/>
    <path d="M 375.343194 154.887226 
L 422.112377 113.650996 
L 422.233992 49.066484 
L 373.36679 86.868663 
z
" clip-path="url(#pe47e902346)" style="fill: #4b222d"/>
    <path d="M 415.97183 168.021863 
L 460.726192 124.925969 
L 480.660754 130.746727 
L 437.000157 174.82001 
z
" clip-path="url(#pe47e902346)" style="fill: #38233a"/>
    <path d="M 395.424958 161.379363 
L 441.214505 119.228689 
L 441.930233 69.021761 
L 394.58904 108.532775 
z
" clip-path="url(#pe47e902346)" style="fill: #375968"/>
    <path d="M 415.97183 168.021863 
L 415.927195 147.292612 
L 461.258413 105.203808 
L 460.726192 124.925969 
z
" clip-path="url(#pe47e902346)" style="fill: #5c3b60"/>
    <path d="M 415.97183 168.021863 
L 460.726192 124.925969 
L 461.44263 98.377408 
L 415.911724 140.107687 
z
" clip-path="url(#pe47e902346)" style="fill: #24354e"/>
    <path d="M 394.986627 133.668135 
L 415.911724 140.107687 
L 461.44263 98.377408 
L 441.590273 92.869304 
z
" clip-path="url(#pe47e902346)" style="fill: #426290"/>
    <path d="M 352.8831 81.034262 
L 373.36679 86.868663 
L 422.233992 49.066484 
L 402.756543 44.078016 
z
" clip-path="url(#pe47e902346)" style="fill: #893f53"/>
    <path d="M 373.819067 102.433904 
L 394.58904 108.532775 
L 441.930233 69.021761 
L 422.206232 63.808624 
z
" clip-path="url(#pe47e902346)" style="fill: #65a4bf"/>
    <path d="M 437.000157 174.82001 
L 480.660754 130.746727 
L 481.457069 110.883486 
L 437.249837 153.939809 
z
" clip-path="url(#pe47e902346)" style="fill: #2b1c2d"/>
    <path d="M 415.927195 147.292612 
L 437.249837 153.939809 
L 481.457069 110.883486 
L 461.258413 105.203808 
z
" clip-path="url(#pe47e902346)" style="fill: #503353"/>
    <path d="M 355.710923 148.540403 
L 375.343194 154.887226 
L 373.36679 86.868663 
L 352.8831 81.034262 
z
" clip-path="url(#pe47e902346)" style="fill: #9e4960"/>
    <path d="M 375.343194 154.887226 
L 395.424958 161.379363 
L 394.58904 108.532775 
L 373.819067 102.433904 
z
" clip-path="url(#pe47e902346)" style="fill: #75bddd"/>
    <path d="M 395.424958 161.379363 
L 415.97183 168.021863 
L 415.911724 140.107687 
L 394.986627 133.668135 
z
" clip-path="url(#pe47e902346)" style="fill: #4c71a6"/>
    <path d="M 415.97183 168.021863 
L 437.000157 174.82001 
L 437.249837 153.939809 
L 415.927195 147.292612 
z
" clip-path="url(#pe47e902346)" style="fill: #5c3b60"/>
   </g>
  </g>
 </g>
 <defs>
  <clipPath id="p9dd1d91afb">
   <rect x="90.294545" y="25.92" width="166.32" height="166.32"/>
  </clipPath>
  <clipPath id="pe47e902346">
   <rect x="333.785455" y="25.92" width="166.32" height="166.32"/>
  </clipPath>
 </defs>
</svg>
