<?xml version="1.0" encoding="utf-8" standalone="no"?>
<!DOCTYPE svg PUBLIC "-//W3C//DTD SVG 1.1//EN"
  "http://www.w3.org/Graphics/SVG/1.1/DTD/svg11.dtd">
<svg xmlns:xlink="http://www.w3.org/1999/xlink" width="576pt" height="216pt" viewBox="0 0 576 216" xmlns="http://www.w3.org/2000/svg" version="1.1">
 <metadata>
  <rdf:RDF xmlns:dc="http://purl.org/dc/elements/1.1/" xmlns:cc="http://creativecommons.org/ns#" xmlns:rdf="http://www.w3.org/1999/02/22-rdf-syntax-ns#">
   <cc:Work>
    <dc:type rdf:resource="http://purl.org/dc/dcmitype/StillImage"/>
    <dc:date>2025-08-02T22:57:42.866420</dc:date>
    <dc:format>image/svg+xml</dc:format>
    <dc:creator>
     <cc:Agent>
      <dc:title>Matplotlib v3.9.0, https://matplotlib.org/</dc:title>
     </cc:Agent>
    </dc:creator>
   </cc:Work>
  </rdf:RDF>
 </metadata>
 <defs>
  <style type="text/css">*{stroke-linejoin: round; stroke-linecap: butt}</style>
 </defs>
 <g id="figure_1">
  <g id="patch_1">
   <path d="M 0 216 
L 576 216 
L 576 0 
L 0 0 
z
" style="fill: #ffffff"/>
  </g>
  <g id="patch_2">
   <path d="M 90.294545 192.24 
L 256.614545 192.24 
L 256.614545 25.92 
L 90.294545 25.92 
z
" style="fill: #ffffff"/>
  </g>
  <g id="pane3d_1">
   <g id="patch_3">
    <path d="M 102.852852 151.230818 
L 157.777148 105.192184 
L 157.013648 38.796244 
L 99.460941 80.795588 
" style="fill: #f2f2f2; opacity: 0.5; stroke: #f2f2f2; stroke-linejoin: miter"/>
   </g>
  </g>
  <g id="pane3d_2">
   <g id="patch_4">
    <path d="M 157.777148 105.192184 
L 245.911046 130.809229 
L 249.056234 62.126357 
L 157.013648 38.796244 
" style="fill: #e6e6e6; opacity: 0.5; stroke: #e6e6e6; stroke-linejoin: miter"/>
   </g>
  </g>
  <g id="pane3d_3">
   <g id="patch_5">
    <path d="M 102.852852 151.230818 
L 196.279089 181.743827 
L 245.911046 130.809229 
L 157.777148 105.192184 
" style="fill: #ececec; opacity: 0.5; stroke: #ececec; stroke-linejoin: miter"/>
   </g>
  </g>
  <g id="grid3d_1">
   <g id="Line3DCollection_1">
    <path d="M 108.511236 153.078846 
L 163.137182 106.750135 
L 162.600308 40.2123 
" style="fill: none; stroke: #b0b0b0; stroke-width: 0.8"/>
    <path d="M 134.858 161.683699 
L 188.056988 113.993338 
L 188.592574 46.800582 
" style="fill: none; stroke: #b0b0b0; stroke-width: 0.8"/>
    <path d="M 162.019249 170.554563 
L 213.682244 121.441588 
L 215.353019 53.583574 
" style="fill: none; stroke: #b0b0b0; stroke-width: 0.8"/>
   </g>
  </g>
  <g id="grid3d_2">
   <g id="Line3DCollection_2">
    <path d="M 103.440854 77.891229 
L 106.637601 148.058367 
L 199.713236 178.219547 
" style="fill: none; stroke: #b0b0b0; stroke-width: 0.8"/>
    <path d="M 116.737324 68.188071 
L 119.29645 137.447469 
L 211.184234 166.44748 
" style="fill: none; stroke: #b0b0b0; stroke-width: 0.8"/>
    <path d="M 129.517532 58.861657 
L 131.48473 127.231011 
L 222.206762 155.135655 
" style="fill: none; stroke: #b0b0b0; stroke-width: 0.8"/>
    <path d="M 141.810974 49.890463 
L 143.2282 117.387401 
L 232.806615 144.257598 
" style="fill: none; stroke: #b0b0b0; stroke-width: 0.8"/>
   </g>
  </g>
  <g id="grid3d_3">
   <g id="Line3DCollection_3">
    <path d="M 245.911046 130.809229 
L 157.777148 105.192184 
L 102.852852 151.230818 
" style="fill: none; stroke: #b0b0b0; stroke-width: 0.8"/>
    <path d="M 246.51832 117.547914 
L 157.62948 92.350579 
L 102.198832 137.649651 
" style="fill: none; stroke: #b0b0b0; stroke-width: 0.8"/>
    <path d="M 247.136191 104.055189 
L 157.479359 79.295635 
L 101.532961 123.822418 
" style="fill: none; stroke: #b0b0b0; stroke-width: 0.8"/>
    <path d="M 247.764939 90.324944 
L 157.326722 66.02199 
L 100.854916 109.742372 
" style="fill: none; stroke: #b0b0b0; stroke-width: 0.8"/>
    <path d="M 248.404853 76.350852 
L 157.171507 52.524104 
L 100.164359 95.402515 
" style="fill: none; stroke: #b0b0b0; stroke-width: 0.8"/>
    <path d="M 249.056234 62.126357 
L 157.013648 38.796244 
L 99.460941 80.795588 
" style="fill: none; stroke: #b0b0b0; stroke-width: 0.8"/>
   </g>
  </g>
  <g id="axis3d_1">
   <g id="line2d_1">
    <path d="M 102.852852 151.230818 
L 196.279089 181.743827 
" style="fill: none; stroke: #000000; stroke-width: 0.8; stroke-linecap: square"/>
   </g>
   <g id="xtick_1">
    <g id="line2d_2">
     <path d="M 108.986915 152.675418 
L 107.557835 153.887433 
" style="fill: none; stroke: #000000; stroke-width: 0.8; stroke-linecap: square"/>
    </g>
    <g id="text_1">
     <!-- 0.01 -->
     <g transform="translate(89.832544 176.423114) scale(0.1 -0.1)">
      <defs>
       <path id="DejaVuSans-30" d="M 2034 4250 
Q 1547 4250 1301 3770 
Q 1056 3291 1056 2328 
Q 1056 1369 1301 889 
Q 1547 409 2034 409 
Q 2525 409 2770 889 
Q 3016 1369 3016 2328 
Q 3016 3291 2770 3770 
Q 2525 4250 2034 4250 
z
M 2034 4750 
Q 2819 4750 3233 4129 
Q 3647 3509 3647 2328 
Q 3647 1150 3233 529 
Q 2819 -91 2034 -91 
Q 1250 -91 836 529 
Q 422 1150 422 2328 
Q 422 3509 836 4129 
Q 1250 4750 2034 4750 
z
" transform="scale(0.015625)"/>
       <path id="DejaVuSans-2e" d="M 684 794 
L 1344 794 
L 1344 0 
L 684 0 
L 684 794 
z
" transform="scale(0.015625)"/>
       <path id="DejaVuSans-31" d="M 794 531 
L 1825 531 
L 1825 4091 
L 703 3866 
L 703 4441 
L 1819 4666 
L 2450 4666 
L 2450 531 
L 3481 531 
L 3481 0 
L 794 0 
L 794 531 
z
" transform="scale(0.015625)"/>
      </defs>
      <use xlink:href="#DejaVuSans-30"/>
      <use xlink:href="#DejaVuSans-2e" x="63.623047"/>
      <use xlink:href="#DejaVuSans-30" x="95.410156"/>
      <use xlink:href="#DejaVuSans-31" x="159.033203"/>
     </g>
    </g>
   </g>
   <g id="xtick_2">
    <g id="line2d_3">
     <path d="M 135.321826 161.267901 
L 133.928326 162.517108 
" style="fill: none; stroke: #000000; stroke-width: 0.8; stroke-linecap: square"/>
    </g>
    <g id="text_2">
     <!-- 0.05 -->
     <g transform="translate(116.223207 185.321175) scale(0.1 -0.1)">
      <defs>
       <path id="DejaVuSans-35" d="M 691 4666 
L 3169 4666 
L 3169 4134 
L 1269 4134 
L 1269 2991 
Q 1406 3038 1543 3061 
Q 1681 3084 1819 3084 
Q 2600 3084 3056 2656 
Q 3513 2228 3513 1497 
Q 3513 744 3044 326 
Q 2575 -91 1722 -91 
Q 1428 -91 1123 -41 
Q 819 9 494 109 
L 494 744 
Q 775 591 1075 516 
Q 1375 441 1709 441 
Q 2250 441 2565 725 
Q 2881 1009 2881 1497 
Q 2881 1984 2565 2268 
Q 2250 2553 1709 2553 
Q 1456 2553 1204 2497 
Q 953 2441 691 2322 
L 691 4666 
z
" transform="scale(0.015625)"/>
      </defs>
      <use xlink:href="#DejaVuSans-30"/>
      <use xlink:href="#DejaVuSans-2e" x="63.623047"/>
      <use xlink:href="#DejaVuSans-30" x="95.410156"/>
      <use xlink:href="#DejaVuSans-35" x="159.033203"/>
     </g>
    </g>
   </g>
   <g id="xtick_3">
    <g id="line2d_4">
     <path d="M 162.470258 170.125816 
L 161.115238 171.413954 
" style="fill: none; stroke: #000000; stroke-width: 0.8; stroke-linecap: square"/>
    </g>
    <g id="text_3">
     <!-- 0.1 -->
     <g transform="translate(146.615977 194.496002) scale(0.1 -0.1)">
      <use xlink:href="#DejaVuSans-30"/>
      <use xlink:href="#DejaVuSans-2e" x="63.623047"/>
      <use xlink:href="#DejaVuSans-31" x="95.410156"/>
     </g>
    </g>
   </g>
   <g id="text_4">
    <!-- support -->
    <g transform="translate(112.856474 198.196915) rotate(-341.912962) scale(0.1 -0.1)">
     <defs>
      <path id="DejaVuSans-73" d="M 2834 3397 
L 2834 2853 
Q 2591 2978 2328 3040 
Q 2066 3103 1784 3103 
Q 1356 3103 1142 2972 
Q 928 2841 928 2578 
Q 928 2378 1081 2264 
Q 1234 2150 1697 2047 
L 1894 2003 
Q 2506 1872 2764 1633 
Q 3022 1394 3022 966 
Q 3022 478 2636 193 
Q 2250 -91 1575 -91 
Q 1294 -91 989 -36 
Q 684 19 347 128 
L 347 722 
Q 666 556 975 473 
Q 1284 391 1588 391 
Q 1994 391 2212 530 
Q 2431 669 2431 922 
Q 2431 1156 2273 1281 
Q 2116 1406 1581 1522 
L 1381 1569 
Q 847 1681 609 1914 
Q 372 2147 372 2553 
Q 372 3047 722 3315 
Q 1072 3584 1716 3584 
Q 2034 3584 2315 3537 
Q 2597 3491 2834 3397 
z
" transform="scale(0.015625)"/>
      <path id="DejaVuSans-75" d="M 544 1381 
L 544 3500 
L 1119 3500 
L 1119 1403 
Q 1119 906 1312 657 
Q 1506 409 1894 409 
Q 2359 409 2629 706 
Q 2900 1003 2900 1516 
L 2900 3500 
L 3475 3500 
L 3475 0 
L 2900 0 
L 2900 538 
Q 2691 219 2414 64 
Q 2138 -91 1772 -91 
Q 1169 -91 856 284 
Q 544 659 544 1381 
z
M 1991 3584 
L 1991 3584 
z
" transform="scale(0.015625)"/>
      <path id="DejaVuSans-70" d="M 1159 525 
L 1159 -1331 
L 581 -1331 
L 581 3500 
L 1159 3500 
L 1159 2969 
Q 1341 3281 1617 3432 
Q 1894 3584 2278 3584 
Q 2916 3584 3314 3078 
Q 3713 2572 3713 1747 
Q 3713 922 3314 415 
Q 2916 -91 2278 -91 
Q 1894 -91 1617 61 
Q 1341 213 1159 525 
z
M 3116 1747 
Q 3116 2381 2855 2742 
Q 2594 3103 2138 3103 
Q 1681 3103 1420 2742 
Q 1159 2381 1159 1747 
Q 1159 1113 1420 752 
Q 1681 391 2138 391 
Q 2594 391 2855 752 
Q 3116 1113 3116 1747 
z
" transform="scale(0.015625)"/>
      <path id="DejaVuSans-6f" d="M 1959 3097 
Q 1497 3097 1228 2736 
Q 959 2375 959 1747 
Q 959 1119 1226 758 
Q 1494 397 1959 397 
Q 2419 397 2687 759 
Q 2956 1122 2956 1747 
Q 2956 2369 2687 2733 
Q 2419 3097 1959 3097 
z
M 1959 3584 
Q 2709 3584 3137 3096 
Q 3566 2609 3566 1747 
Q 3566 888 3137 398 
Q 2709 -91 1959 -91 
Q 1206 -91 779 398 
Q 353 888 353 1747 
Q 353 2609 779 3096 
Q 1206 3584 1959 3584 
z
" transform="scale(0.015625)"/>
      <path id="DejaVuSans-72" d="M 2631 2963 
Q 2534 3019 2420 3045 
Q 2306 3072 2169 3072 
Q 1681 3072 1420 2755 
Q 1159 2438 1159 1844 
L 1159 0 
L 581 0 
L 581 3500 
L 1159 3500 
L 1159 2956 
Q 1341 3275 1631 3429 
Q 1922 3584 2338 3584 
Q 2397 3584 2469 3576 
Q 2541 3569 2628 3553 
L 2631 2963 
z
" transform="scale(0.015625)"/>
      <path id="DejaVuSans-74" d="M 1172 4494 
L 1172 3500 
L 2356 3500 
L 2356 3053 
L 1172 3053 
L 1172 1153 
Q 1172 725 1289 603 
Q 1406 481 1766 481 
L 2356 481 
L 2356 0 
L 1766 0 
Q 1100 0 847 248 
Q 594 497 594 1153 
L 594 3053 
L 172 3053 
L 172 3500 
L 594 3500 
L 594 4494 
L 1172 4494 
z
" transform="scale(0.015625)"/>
     </defs>
     <use xlink:href="#DejaVuSans-73"/>
     <use xlink:href="#DejaVuSans-75" x="52.099609"/>
     <use xlink:href="#DejaVuSans-70" x="115.478516"/>
     <use xlink:href="#DejaVuSans-70" x="178.955078"/>
     <use xlink:href="#DejaVuSans-6f" x="242.431641"/>
     <use xlink:href="#DejaVuSans-72" x="303.613281"/>
     <use xlink:href="#DejaVuSans-74" x="344.726562"/>
    </g>
   </g>
  </g>
  <g id="axis3d_2">
   <g id="line2d_5">
    <path d="M 245.911046 130.809229 
L 196.279089 181.743827 
" style="fill: none; stroke: #000000; stroke-width: 0.8; stroke-linecap: square"/>
   </g>
   <g id="xtick_4">
    <g id="line2d_6">
     <path d="M 198.928885 177.965378 
L 201.283967 178.728542 
" style="fill: none; stroke: #000000; stroke-width: 0.8; stroke-linecap: square"/>
    </g>
    <g id="text_5">
     <!-- 1000 -->
     <g transform="translate(199.873499 199.246101) scale(0.1 -0.1)">
      <use xlink:href="#DejaVuSans-31"/>
      <use xlink:href="#DejaVuSans-30" x="63.623047"/>
      <use xlink:href="#DejaVuSans-30" x="127.246094"/>
      <use xlink:href="#DejaVuSans-30" x="190.869141"/>
     </g>
    </g>
   </g>
   <g id="xtick_5">
    <g id="line2d_7">
     <path d="M 210.410675 166.203343 
L 212.733313 166.936373 
" style="fill: none; stroke: #000000; stroke-width: 0.8; stroke-linecap: square"/>
    </g>
    <g id="text_6">
     <!-- 2000 -->
     <g transform="translate(211.098127 187.194999) scale(0.1 -0.1)">
      <defs>
       <path id="DejaVuSans-32" d="M 1228 531 
L 3431 531 
L 3431 0 
L 469 0 
L 469 531 
Q 828 903 1448 1529 
Q 2069 2156 2228 2338 
Q 2531 2678 2651 2914 
Q 2772 3150 2772 3378 
Q 2772 3750 2511 3984 
Q 2250 4219 1831 4219 
Q 1534 4219 1204 4116 
Q 875 4013 500 3803 
L 500 4441 
Q 881 4594 1212 4672 
Q 1544 4750 1819 4750 
Q 2544 4750 2975 4387 
Q 3406 4025 3406 3419 
Q 3406 3131 3298 2873 
Q 3191 2616 2906 2266 
Q 2828 2175 2409 1742 
Q 1991 1309 1228 531 
z
" transform="scale(0.015625)"/>
      </defs>
      <use xlink:href="#DejaVuSans-32"/>
      <use xlink:href="#DejaVuSans-30" x="63.623047"/>
      <use xlink:href="#DejaVuSans-30" x="127.246094"/>
      <use xlink:href="#DejaVuSans-30" x="190.869141"/>
     </g>
    </g>
   </g>
   <g id="xtick_6">
    <g id="line2d_8">
     <path d="M 221.443759 154.900968 
L 223.734665 155.605614 
" style="fill: none; stroke: #000000; stroke-width: 0.8; stroke-linecap: square"/>
    </g>
    <g id="text_7">
     <!-- 5000 -->
     <g transform="translate(221.883512 175.615482) scale(0.1 -0.1)">
      <use xlink:href="#DejaVuSans-35"/>
      <use xlink:href="#DejaVuSans-30" x="63.623047"/>
      <use xlink:href="#DejaVuSans-30" x="127.246094"/>
      <use xlink:href="#DejaVuSans-30" x="190.869141"/>
     </g>
    </g>
   </g>
   <g id="xtick_7">
    <g id="line2d_9">
     <path d="M 232.053935 144.031822 
L 234.313811 144.709701 
" style="fill: none; stroke: #000000; stroke-width: 0.8; stroke-linecap: square"/>
    </g>
    <g id="text_8">
     <!-- 10000 -->
     <g transform="translate(229.073693 164.4804) scale(0.1 -0.1)">
      <use xlink:href="#DejaVuSans-31"/>
      <use xlink:href="#DejaVuSans-30" x="63.623047"/>
      <use xlink:href="#DejaVuSans-30" x="127.246094"/>
      <use xlink:href="#DejaVuSans-30" x="190.869141"/>
      <use xlink:href="#DejaVuSans-30" x="254.492188"/>
     </g>
    </g>
   </g>
   <g id="text_9">
    <!-- window -->
    <g transform="translate(237.933917 198.680808) rotate(-45.742112) scale(0.1 -0.1)">
     <defs>
      <path id="DejaVuSans-77" d="M 269 3500 
L 844 3500 
L 1563 769 
L 2278 3500 
L 2956 3500 
L 3675 769 
L 4391 3500 
L 4966 3500 
L 4050 0 
L 3372 0 
L 2619 2869 
L 1863 0 
L 1184 0 
L 269 3500 
z
" transform="scale(0.015625)"/>
      <path id="DejaVuSans-69" d="M 603 3500 
L 1178 3500 
L 1178 0 
L 603 0 
L 603 3500 
z
M 603 4863 
L 1178 4863 
L 1178 4134 
L 603 4134 
L 603 4863 
z
" transform="scale(0.015625)"/>
      <path id="DejaVuSans-6e" d="M 3513 2113 
L 3513 0 
L 2938 0 
L 2938 2094 
Q 2938 2591 2744 2837 
Q 2550 3084 2163 3084 
Q 1697 3084 1428 2787 
Q 1159 2491 1159 1978 
L 1159 0 
L 581 0 
L 581 3500 
L 1159 3500 
L 1159 2956 
Q 1366 3272 1645 3428 
Q 1925 3584 2291 3584 
Q 2894 3584 3203 3211 
Q 3513 2838 3513 2113 
z
" transform="scale(0.015625)"/>
      <path id="DejaVuSans-64" d="M 2906 2969 
L 2906 4863 
L 3481 4863 
L 3481 0 
L 2906 0 
L 2906 525 
Q 2725 213 2448 61 
Q 2172 -91 1784 -91 
Q 1150 -91 751 415 
Q 353 922 353 1747 
Q 353 2572 751 3078 
Q 1150 3584 1784 3584 
Q 2172 3584 2448 3432 
Q 2725 3281 2906 2969 
z
M 947 1747 
Q 947 1113 1208 752 
Q 1469 391 1925 391 
Q 2381 391 2643 752 
Q 2906 1113 2906 1747 
Q 2906 2381 2643 2742 
Q 2381 3103 1925 3103 
Q 1469 3103 1208 2742 
Q 947 2381 947 1747 
z
" transform="scale(0.015625)"/>
     </defs>
     <use xlink:href="#DejaVuSans-77"/>
     <use xlink:href="#DejaVuSans-69" x="81.787109"/>
     <use xlink:href="#DejaVuSans-6e" x="109.570312"/>
     <use xlink:href="#DejaVuSans-64" x="172.949219"/>
     <use xlink:href="#DejaVuSans-6f" x="236.425781"/>
     <use xlink:href="#DejaVuSans-77" x="297.607422"/>
    </g>
   </g>
  </g>
  <g id="axis3d_3">
   <g id="line2d_10">
    <path d="M 245.911046 130.809229 
L 249.056234 62.126357 
" style="fill: none; stroke: #000000; stroke-width: 0.8; stroke-linecap: square"/>
   </g>
   <g id="xtick_8">
    <g id="line2d_11">
     <path d="M 245.17136 130.594231 
L 247.392177 131.239735 
" style="fill: none; stroke: #000000; stroke-width: 0.8; stroke-linecap: square"/>
    </g>
    <g id="text_10">
     <!-- 0.0 -->
     <g transform="translate(256.175353 135.807347) scale(0.1 -0.1)">
      <use xlink:href="#DejaVuSans-30"/>
      <use xlink:href="#DejaVuSans-2e" x="63.623047"/>
      <use xlink:href="#DejaVuSans-30" x="95.410156"/>
     </g>
    </g>
   </g>
   <g id="xtick_9">
    <g id="line2d_12">
     <path d="M 245.771996 117.336353 
L 248.012758 117.971543 
" style="fill: none; stroke: #000000; stroke-width: 0.8; stroke-linecap: square"/>
    </g>
    <g id="text_11">
     <!-- 0.2 -->
     <g transform="translate(256.936492 122.587698) scale(0.1 -0.1)">
      <use xlink:href="#DejaVuSans-30"/>
      <use xlink:href="#DejaVuSans-2e" x="63.623047"/>
      <use xlink:href="#DejaVuSans-32" x="95.410156"/>
     </g>
    </g>
   </g>
   <g id="xtick_10">
    <g id="line2d_13">
     <path d="M 246.383109 103.847219 
L 248.644177 104.471634 
" style="fill: none; stroke: #000000; stroke-width: 0.8; stroke-linecap: square"/>
    </g>
    <g id="text_12">
     <!-- 0.4 -->
     <g transform="translate(257.710848 109.13849) scale(0.1 -0.1)">
      <defs>
       <path id="DejaVuSans-34" d="M 2419 4116 
L 825 1625 
L 2419 1625 
L 2419 4116 
z
M 2253 4666 
L 3047 4666 
L 3047 1625 
L 3713 1625 
L 3713 1100 
L 3047 1100 
L 3047 0 
L 2419 0 
L 2419 1100 
L 313 1100 
L 313 1709 
L 2253 4666 
z
" transform="scale(0.015625)"/>
      </defs>
      <use xlink:href="#DejaVuSans-30"/>
      <use xlink:href="#DejaVuSans-2e" x="63.623047"/>
      <use xlink:href="#DejaVuSans-34" x="95.410156"/>
     </g>
    </g>
   </g>
   <g id="xtick_11">
    <g id="line2d_14">
     <path d="M 247.004975 90.120724 
L 249.286721 90.733884 
" style="fill: none; stroke: #000000; stroke-width: 0.8; stroke-linecap: square"/>
    </g>
    <g id="text_13">
     <!-- 0.6 -->
     <g transform="translate(258.498769 95.453692) scale(0.1 -0.1)">
      <defs>
       <path id="DejaVuSans-36" d="M 2113 2584 
Q 1688 2584 1439 2293 
Q 1191 2003 1191 1497 
Q 1191 994 1439 701 
Q 1688 409 2113 409 
Q 2538 409 2786 701 
Q 3034 994 3034 1497 
Q 3034 2003 2786 2293 
Q 2538 2584 2113 2584 
z
M 3366 4563 
L 3366 3988 
Q 3128 4100 2886 4159 
Q 2644 4219 2406 4219 
Q 1781 4219 1451 3797 
Q 1122 3375 1075 2522 
Q 1259 2794 1537 2939 
Q 1816 3084 2150 3084 
Q 2853 3084 3261 2657 
Q 3669 2231 3669 1497 
Q 3669 778 3244 343 
Q 2819 -91 2113 -91 
Q 1303 -91 875 529 
Q 447 1150 447 2328 
Q 447 3434 972 4092 
Q 1497 4750 2381 4750 
Q 2619 4750 2861 4703 
Q 3103 4656 3366 4563 
z
" transform="scale(0.015625)"/>
      </defs>
      <use xlink:href="#DejaVuSans-30"/>
      <use xlink:href="#DejaVuSans-2e" x="63.623047"/>
      <use xlink:href="#DejaVuSans-36" x="95.410156"/>
     </g>
    </g>
   </g>
   <g id="xtick_12">
    <g id="line2d_15">
     <path d="M 247.637882 76.150547 
L 249.940685 76.751954 
" style="fill: none; stroke: #000000; stroke-width: 0.8; stroke-linecap: square"/>
    </g>
    <g id="text_14">
     <!-- 0.8 -->
     <g transform="translate(259.300613 81.527057) scale(0.1 -0.1)">
      <defs>
       <path id="DejaVuSans-38" d="M 2034 2216 
Q 1584 2216 1326 1975 
Q 1069 1734 1069 1313 
Q 1069 891 1326 650 
Q 1584 409 2034 409 
Q 2484 409 2743 651 
Q 3003 894 3003 1313 
Q 3003 1734 2745 1975 
Q 2488 2216 2034 2216 
z
M 1403 2484 
Q 997 2584 770 2862 
Q 544 3141 544 3541 
Q 544 4100 942 4425 
Q 1341 4750 2034 4750 
Q 2731 4750 3128 4425 
Q 3525 4100 3525 3541 
Q 3525 3141 3298 2862 
Q 3072 2584 2669 2484 
Q 3125 2378 3379 2068 
Q 3634 1759 3634 1313 
Q 3634 634 3220 271 
Q 2806 -91 2034 -91 
Q 1263 -91 848 271 
Q 434 634 434 1313 
Q 434 1759 690 2068 
Q 947 2378 1403 2484 
z
M 1172 3481 
Q 1172 3119 1398 2916 
Q 1625 2713 2034 2713 
Q 2441 2713 2670 2916 
Q 2900 3119 2900 3481 
Q 2900 3844 2670 4047 
Q 2441 4250 2034 4250 
Q 1625 4250 1398 4047 
Q 1172 3844 1172 3481 
z
" transform="scale(0.015625)"/>
      </defs>
      <use xlink:href="#DejaVuSans-30"/>
      <use xlink:href="#DejaVuSans-2e" x="63.623047"/>
      <use xlink:href="#DejaVuSans-38" x="95.410156"/>
     </g>
    </g>
   </g>
   <g id="xtick_13">
    <g id="line2d_16">
     <path d="M 248.282124 61.930143 
L 250.606377 62.519273 
" style="fill: none; stroke: #000000; stroke-width: 0.8; stroke-linecap: square"/>
    </g>
    <g id="text_15">
     <!-- 1.0 -->
     <g transform="translate(260.116754 67.35212) scale(0.1 -0.1)">
      <use xlink:href="#DejaVuSans-31"/>
      <use xlink:href="#DejaVuSans-2e" x="63.623047"/>
      <use xlink:href="#DejaVuSans-30" x="95.410156"/>
     </g>
    </g>
   </g>
   <g id="text_16">
    <!-- recall -->
    <g transform="translate(289.798713 105.555185) rotate(-87.378092) scale(0.1 -0.1)">
     <defs>
      <path id="DejaVuSans-65" d="M 3597 1894 
L 3597 1613 
L 953 1613 
Q 991 1019 1311 708 
Q 1631 397 2203 397 
Q 2534 397 2845 478 
Q 3156 559 3463 722 
L 3463 178 
Q 3153 47 2828 -22 
Q 2503 -91 2169 -91 
Q 1331 -91 842 396 
Q 353 884 353 1716 
Q 353 2575 817 3079 
Q 1281 3584 2069 3584 
Q 2775 3584 3186 3129 
Q 3597 2675 3597 1894 
z
M 3022 2063 
Q 3016 2534 2758 2815 
Q 2500 3097 2075 3097 
Q 1594 3097 1305 2825 
Q 1016 2553 972 2059 
L 3022 2063 
z
" transform="scale(0.015625)"/>
      <path id="DejaVuSans-63" d="M 3122 3366 
L 3122 2828 
Q 2878 2963 2633 3030 
Q 2388 3097 2138 3097 
Q 1578 3097 1268 2742 
Q 959 2388 959 1747 
Q 959 1106 1268 751 
Q 1578 397 2138 397 
Q 2388 397 2633 464 
Q 2878 531 3122 666 
L 3122 134 
Q 2881 22 2623 -34 
Q 2366 -91 2075 -91 
Q 1284 -91 818 406 
Q 353 903 353 1747 
Q 353 2603 823 3093 
Q 1294 3584 2113 3584 
Q 2378 3584 2631 3529 
Q 2884 3475 3122 3366 
z
" transform="scale(0.015625)"/>
      <path id="DejaVuSans-61" d="M 2194 1759 
Q 1497 1759 1228 1600 
Q 959 1441 959 1056 
Q 959 750 1161 570 
Q 1363 391 1709 391 
Q 2188 391 2477 730 
Q 2766 1069 2766 1631 
L 2766 1759 
L 2194 1759 
z
M 3341 1997 
L 3341 0 
L 2766 0 
L 2766 531 
Q 2569 213 2275 61 
Q 1981 -91 1556 -91 
Q 1019 -91 701 211 
Q 384 513 384 1019 
Q 384 1609 779 1909 
Q 1175 2209 1959 2209 
L 2766 2209 
L 2766 2266 
Q 2766 2663 2505 2880 
Q 2244 3097 1772 3097 
Q 1472 3097 1187 3025 
Q 903 2953 641 2809 
L 641 3341 
Q 956 3463 1253 3523 
Q 1550 3584 1831 3584 
Q 2591 3584 2966 3190 
Q 3341 2797 3341 1997 
z
" transform="scale(0.015625)"/>
      <path id="DejaVuSans-6c" d="M 603 4863 
L 1178 4863 
L 1178 0 
L 603 0 
L 603 4863 
z
" transform="scale(0.015625)"/>
     </defs>
     <use xlink:href="#DejaVuSans-72"/>
     <use xlink:href="#DejaVuSans-65" x="38.863281"/>
     <use xlink:href="#DejaVuSans-63" x="100.386719"/>
     <use xlink:href="#DejaVuSans-61" x="155.367188"/>
     <use xlink:href="#DejaVuSans-6c" x="216.646484"/>
     <use xlink:href="#DejaVuSans-6c" x="244.429688"/>
    </g>
   </g>
  </g>
  <g id="axes_1">
   <g id="Poly3DCollection_1">
    <path d="M 148.670114 119.019773 
L 159.929144 109.470898 
L 184.936415 116.790783 
L 173.980743 126.612022 
z
" clip-path="url(#p131dedb872)" style="fill: #0a4232"/>
    <path d="M 159.929144 109.470898 
L 159.62547 79.542015 
L 185.116745 86.57671 
L 184.936415 116.790783 
z
" clip-path="url(#p131dedb872)" style="fill: #083327"/>
    <path d="M 148.670114 119.019773 
L 148.13996 88.719612 
L 159.62547 79.542015 
L 159.929144 109.470898 
z
" clip-path="url(#p131dedb872)" style="fill: #106d52"/>
    <path d="M 173.980743 126.612022 
L 184.936415 116.790783 
L 210.65543 124.319003 
L 200.025317 134.424426 
z
" clip-path="url(#p131dedb872)" style="fill: #507b07"/>
    <path d="M 173.980743 126.612022 
L 184.936415 116.790783 
L 185.116745 86.57671 
L 173.946491 96.021278 
z
" clip-path="url(#p131dedb872)" style="fill: #083327"/>
    <path d="M 184.936415 116.790783 
L 185.162214 78.958362 
L 211.522578 86.121608 
L 210.65543 124.319003 
z
" clip-path="url(#p131dedb872)" style="fill: #3f6005"/>
    <path d="M 148.670114 119.019773 
L 148.237305 94.28322 
L 173.952782 101.639527 
L 173.980743 126.612022 
z
" clip-path="url(#p131dedb872)" style="fill: #0d3a5e"/>
    <path d="M 136.991237 128.924724 
L 148.670114 119.019773 
L 173.980743 126.612022 
L 162.610587 136.804826 
z
" clip-path="url(#p131dedb872)" style="fill: #114a79"/>
    <path d="M 148.670114 119.019773 
L 173.980743 126.612022 
L 173.946491 96.021278 
L 148.13996 88.719612 
z
" clip-path="url(#p131dedb872)" style="fill: #106d52"/>
    <path d="M 173.980743 126.612022 
L 173.937851 88.30445 
L 185.162214 78.958362 
L 184.936415 116.790783 
z
" clip-path="url(#p131dedb872)" style="fill: #85cc0c"/>
    <path d="M 136.991237 128.924724 
L 136.359693 103.881028 
L 148.237305 94.28322 
L 148.670114 119.019773 
z
" clip-path="url(#p131dedb872)" style="fill: #1c7bc8"/>
    <path d="M 148.13996 88.719612 
L 173.946491 96.021278 
L 185.116745 86.57671 
L 159.62547 79.542015 
z
" clip-path="url(#p131dedb872)" style="fill: #0e5f47"/>
    <path d="M 200.025317 134.424426 
L 210.65543 124.319003 
L 237.117012 132.064579 
L 226.836229 142.466704 
z
" clip-path="url(#p131dedb872)" style="fill: #576311"/>
    <path d="M 173.980743 126.612022 
L 173.95598 104.495557 
L 200.380373 112.096661 
L 200.025317 134.424426 
z
" clip-path="url(#p131dedb872)" style="fill: #486318"/>
    <path d="M 162.610587 136.804826 
L 162.41864 114.413309 
L 173.95598 104.495557 
L 173.980743 126.612022 
z
" clip-path="url(#p131dedb872)" style="fill: #99d234"/>
    <path d="M 162.610587 136.804826 
L 173.980743 126.612022 
L 200.025317 134.424426 
L 188.987094 144.917817 
z
" clip-path="url(#p131dedb872)" style="fill: #5c7f1f"/>
    <path d="M 136.991237 128.924724 
L 136.566259 112.07235 
L 162.464748 119.7921 
L 162.610587 136.804826 
z
" clip-path="url(#p131dedb872)" style="fill: #48064e"/>
    <path d="M 200.025317 134.424426 
L 210.65543 124.319003 
L 211.522578 86.121608 
L 200.640398 95.744957 
z
" clip-path="url(#p131dedb872)" style="fill: #3f6005"/>
    <path d="M 162.610587 136.804826 
L 173.980743 126.612022 
L 173.952782 101.639527 
L 162.393845 111.520871 
z
" clip-path="url(#p131dedb872)" style="fill: #0d3a5e"/>
    <path d="M 136.359693 103.881028 
L 162.393845 111.520871 
L 173.952782 101.639527 
L 148.237305 94.28322 
z
" clip-path="url(#p131dedb872)" style="fill: #186bae"/>
    <path d="M 124.868582 139.206047 
L 124.299797 122.144949 
L 136.566259 112.07235 
L 136.991237 128.924724 
z
" clip-path="url(#p131dedb872)" style="fill: #980da6"/>
    <path d="M 173.980743 126.612022 
L 200.025317 134.424426 
L 200.640398 95.744957 
L 173.937851 88.30445 
z
" clip-path="url(#p131dedb872)" style="fill: #85cc0c"/>
    <path d="M 136.991237 128.924724 
L 162.610587 136.804826 
L 162.393845 111.520871 
L 136.359693 103.881028 
z
" clip-path="url(#p131dedb872)" style="fill: #1c7bc8"/>
    <path d="M 124.868582 139.206047 
L 136.991237 128.924724 
L 162.610587 136.804826 
L 150.80197 147.390689 
z
" clip-path="url(#p131dedb872)" style="fill: #5c0864"/>
    <path d="M 210.65543 124.319003 
L 211.97249 66.303261 
L 239.465843 73.475514 
L 237.117012 132.064579 
z
" clip-path="url(#p131dedb872)" style="fill: #444e0d"/>
    <path d="M 173.937851 88.30445 
L 200.640398 95.744957 
L 211.522578 86.121608 
L 185.162214 78.958362 
z
" clip-path="url(#p131dedb872)" style="fill: #73b10a"/>
    <path d="M 200.025317 134.424426 
L 200.959754 75.662238 
L 211.97249 66.303261 
L 210.65543 124.319003 
z
" clip-path="url(#p131dedb872)" style="fill: #8fa51c"/>
    <path d="M 162.610587 136.804826 
L 162.501587 124.089572 
L 189.099352 132.081636 
L 188.987094 144.917817 
z
" clip-path="url(#p131dedb872)" style="fill: #173e3c"/>
    <path d="M 162.41864 114.413309 
L 189.184798 122.311231 
L 200.380373 112.096661 
L 173.95598 104.495557 
z
" clip-path="url(#p131dedb872)" style="fill: #85b72d"/>
    <path d="M 188.987094 144.917817 
L 200.025317 134.424426 
L 200.380373 112.096661 
L 189.184798 122.311231 
z
" clip-path="url(#p131dedb872)" style="fill: #486318"/>
    <path d="M 188.987094 144.917817 
L 200.025317 134.424426 
L 226.836229 142.466704 
L 216.154828 153.274177 
z
" clip-path="url(#p131dedb872)" style="fill: #4a3763"/>
    <path d="M 124.299797 122.144949 
L 150.519176 130.166437 
L 162.464748 119.7921 
L 136.566259 112.07235 
z
" clip-path="url(#p131dedb872)" style="fill: #840b90"/>
    <path d="M 150.80197 147.390689 
L 150.590622 134.51804 
L 162.501587 124.089572 
L 162.610587 136.804826 
z
" clip-path="url(#p131dedb872)" style="fill: #31847f"/>
    <path d="M 162.610587 136.804826 
L 188.987094 144.917817 
L 189.184798 122.311231 
L 162.41864 114.413309 
z
" clip-path="url(#p131dedb872)" style="fill: #99d234"/>
    <path d="M 150.80197 147.390689 
L 162.610587 136.804826 
L 162.464748 119.7921 
L 150.519176 130.166437 
z
" clip-path="url(#p131dedb872)" style="fill: #48064e"/>
    <path d="M 124.868582 139.206047 
L 124.449399 126.632372 
L 150.593566 134.697327 
L 150.80197 147.390689 
z
" clip-path="url(#p131dedb872)" style="fill: #513419"/>
    <path d="M 150.80197 147.390689 
L 162.610587 136.804826 
L 188.987094 144.917817 
L 177.516798 155.821954 
z
" clip-path="url(#p131dedb872)" style="fill: #1d504d"/>
    <path d="M 124.868582 139.206047 
L 150.80197 147.390689 
L 150.519176 130.166437 
L 124.299797 122.144949 
z
" clip-path="url(#p131dedb872)" style="fill: #980da6"/>
    <path d="M 112.276364 149.88561 
L 111.743129 137.156157 
L 124.449399 126.632372 
L 124.868582 139.206047 
z
" clip-path="url(#p131dedb872)" style="fill: #ab6d35"/>
    <path d="M 226.836229 142.466704 
L 237.117012 132.064579 
L 239.465843 73.475514 
L 228.830702 83.119971 
z
" clip-path="url(#p131dedb872)" style="fill: #444e0d"/>
    <path d="M 112.276364 149.88561 
L 124.868582 139.206047 
L 150.80197 147.390689 
L 138.529033 158.392793 
z
" clip-path="url(#p131dedb872)" style="fill: #674220"/>
    <path d="M 200.025317 134.424426 
L 226.836229 142.466704 
L 228.830702 83.119971 
L 200.959754 75.662238 
z
" clip-path="url(#p131dedb872)" style="fill: #8fa51c"/>
    <path d="M 200.025317 134.424426 
L 200.959754 75.662238 
L 228.830702 83.119971 
L 226.836229 142.466704 
z
" clip-path="url(#p131dedb872)" style="fill: #3a2b4e"/>
    <path d="M 188.987094 144.917817 
L 189.507651 85.394604 
L 200.959754 75.662238 
L 200.025317 134.424426 
z
" clip-path="url(#p131dedb872)" style="fill: #7b5ba5"/>
    <path d="M 150.590622 134.51804 
L 177.532434 142.826342 
L 189.099352 132.081636 
L 162.501587 124.089572 
z
" clip-path="url(#p131dedb872)" style="fill: #2a736e"/>
    <path d="M 177.516798 155.821954 
L 188.987094 144.917817 
L 189.099352 132.081636 
L 177.532434 142.826342 
z
" clip-path="url(#p131dedb872)" style="fill: #173e3c"/>
    <path d="M 150.80197 147.390689 
L 150.696743 140.981564 
L 177.524582 149.352023 
L 177.516798 155.821954 
z
" clip-path="url(#p131dedb872)" style="fill: #0d5763"/>
    <path d="M 111.743129 137.156157 
L 138.21174 145.541655 
L 150.593566 134.697327 
L 124.449399 126.632372 
z
" clip-path="url(#p131dedb872)" style="fill: #945f2e"/>
    <path d="M 150.80197 147.390689 
L 177.516798 155.821954 
L 177.532434 142.826342 
L 150.590622 134.51804 
z
" clip-path="url(#p131dedb872)" style="fill: #31847f"/>
    <path d="M 138.529033 158.392793 
L 138.368839 151.904533 
L 150.696743 140.981564 
L 150.80197 147.390689 
z
" clip-path="url(#p131dedb872)" style="fill: #1bb8d2"/>
    <path d="M 200.959754 75.662238 
L 228.830702 83.119971 
L 239.465843 73.475514 
L 211.97249 66.303261 
z
" clip-path="url(#p131dedb872)" style="fill: #7c8f18"/>
    <path d="M 177.516798 155.821954 
L 188.987094 144.917817 
L 216.154828 153.274177 
L 205.048925 164.511161 
z
" clip-path="url(#p131dedb872)" style="fill: #715f55"/>
    <path d="M 138.529033 158.392793 
L 150.80197 147.390689 
L 150.593566 134.697327 
L 138.21174 145.541655 
z
" clip-path="url(#p131dedb872)" style="fill: #513419"/>
    <path d="M 112.276364 149.88561 
L 138.529033 158.392793 
L 138.21174 145.541655 
L 111.743129 137.156157 
z
" clip-path="url(#p131dedb872)" style="fill: #ab6d35"/>
    <path d="M 138.529033 158.392793 
L 150.80197 147.390689 
L 177.516798 155.821954 
L 165.588553 167.161436 
z
" clip-path="url(#p131dedb872)" style="fill: #106f7f"/>
    <path d="M 216.154828 153.274177 
L 226.836229 142.466704 
L 228.830702 83.119971 
L 217.764641 93.155206 
z
" clip-path="url(#p131dedb872)" style="fill: #3a2b4e"/>
    <path d="M 138.368839 151.904533 
L 165.544297 160.611405 
L 177.524582 149.352023 
L 150.696743 140.981564 
z
" clip-path="url(#p131dedb872)" style="fill: #18a0b6"/>
    <path d="M 188.987094 144.917817 
L 189.507651 85.394604 
L 217.764641 93.155206 
L 216.154828 153.274177 
z
" clip-path="url(#p131dedb872)" style="fill: #594a43"/>
    <path d="M 188.987094 144.917817 
L 216.154828 153.274177 
L 217.764641 93.155206 
L 189.507651 85.394604 
z
" clip-path="url(#p131dedb872)" style="fill: #7b5ba5"/>
    <path d="M 177.516798 155.821954 
L 177.589351 95.523158 
L 189.507651 85.394604 
L 188.987094 144.917817 
z
" clip-path="url(#p131dedb872)" style="fill: #bc9e8d"/>
    <path d="M 165.588553 167.161436 
L 177.516798 155.821954 
L 177.524582 149.352023 
L 165.544297 160.611405 
z
" clip-path="url(#p131dedb872)" style="fill: #0d5763"/>
    <path d="M 138.529033 158.392793 
L 165.588553 167.161436 
L 165.544297 160.611405 
L 138.368839 151.904533 
z
" clip-path="url(#p131dedb872)" style="fill: #1bb8d2"/>
    <path d="M 189.507651 85.394604 
L 217.764641 93.155206 
L 228.830702 83.119971 
L 200.959754 75.662238 
z
" clip-path="url(#p131dedb872)" style="fill: #6b4f8f"/>
    <path d="M 165.588553 167.161436 
L 177.516798 155.821954 
L 205.048925 164.511161 
L 193.492702 176.203781 
z
" clip-path="url(#p131dedb872)" style="fill: #623f26"/>
    <path d="M 177.516798 155.821954 
L 177.576859 105.905579 
L 206.035582 114.097693 
L 205.048925 164.511161 
z
" clip-path="url(#p131dedb872)" style="fill: #4d311e"/>
    <path d="M 205.048925 164.511161 
L 216.154828 153.274177 
L 217.764641 93.155206 
L 206.240929 103.605462 
z
" clip-path="url(#p131dedb872)" style="fill: #594a43"/>
    <path d="M 165.588553 167.161436 
L 165.246914 116.598002 
L 177.576859 105.905579 
L 177.516798 155.821954 
z
" clip-path="url(#p131dedb872)" style="fill: #a3683f"/>
    <path d="M 177.516798 155.821954 
L 205.048925 164.511161 
L 206.240929 103.605462 
L 177.589351 95.523158 
z
" clip-path="url(#p131dedb872)" style="fill: #bc9e8d"/>
    <path d="M 177.589351 95.523158 
L 206.240929 103.605462 
L 217.764641 93.155206 
L 189.507651 85.394604 
z
" clip-path="url(#p131dedb872)" style="fill: #a3897b"/>
    <path d="M 193.492702 176.203781 
L 205.048925 164.511161 
L 206.035582 114.097693 
L 194.103374 125.134507 
z
" clip-path="url(#p131dedb872)" style="fill: #4d311e"/>
    <path d="M 165.588553 167.161436 
L 193.492702 176.203781 
L 194.103374 125.134507 
L 165.246914 116.598002 
z
" clip-path="url(#p131dedb872)" style="fill: #a3683f"/>
    <path d="M 165.246914 116.598002 
L 194.103374 125.134507 
L 206.035582 114.097693 
L 177.576859 105.905579 
z
" clip-path="url(#p131dedb872)" style="fill: #8d5a36"/>
   </g>
   <g id="text_17">
    <!-- graph -->
    <g transform="translate(155.890483 19.92) scale(0.12 -0.12)">
     <defs>
      <path id="DejaVuSans-67" d="M 2906 1791 
Q 2906 2416 2648 2759 
Q 2391 3103 1925 3103 
Q 1463 3103 1205 2759 
Q 947 2416 947 1791 
Q 947 1169 1205 825 
Q 1463 481 1925 481 
Q 2391 481 2648 825 
Q 2906 1169 2906 1791 
z
M 3481 434 
Q 3481 -459 3084 -895 
Q 2688 -1331 1869 -1331 
Q 1566 -1331 1297 -1286 
Q 1028 -1241 775 -1147 
L 775 -588 
Q 1028 -725 1275 -790 
Q 1522 -856 1778 -856 
Q 2344 -856 2625 -561 
Q 2906 -266 2906 331 
L 2906 616 
Q 2728 306 2450 153 
Q 2172 0 1784 0 
Q 1141 0 747 490 
Q 353 981 353 1791 
Q 353 2603 747 3093 
Q 1141 3584 1784 3584 
Q 2172 3584 2450 3431 
Q 2728 3278 2906 2969 
L 2906 3500 
L 3481 3500 
L 3481 434 
z
" transform="scale(0.015625)"/>
      <path id="DejaVuSans-68" d="M 3513 2113 
L 3513 0 
L 2938 0 
L 2938 2094 
Q 2938 2591 2744 2837 
Q 2550 3084 2163 3084 
Q 1697 3084 1428 2787 
Q 1159 2491 1159 1978 
L 1159 0 
L 581 0 
L 581 4863 
L 1159 4863 
L 1159 2956 
Q 1366 3272 1645 3428 
Q 1925 3584 2291 3584 
Q 2894 3584 3203 3211 
Q 3513 2838 3513 2113 
z
" transform="scale(0.015625)"/>
     </defs>
     <use xlink:href="#DejaVuSans-67"/>
     <use xlink:href="#DejaVuSans-72" x="63.476562"/>
     <use xlink:href="#DejaVuSans-61" x="104.589844"/>
     <use xlink:href="#DejaVuSans-70" x="165.869141"/>
     <use xlink:href="#DejaVuSans-68" x="229.345703"/>
    </g>
   </g>
  </g>
 </g>
 <defs>
  <clipPath id="p131dedb872">
   <rect x="90.294545" y="25.92" width="166.32" height="166.32"/>
  </clipPath>
 </defs>
</svg>
