<?xml version="1.0" encoding="utf-8" standalone="no"?>
<!DOCTYPE svg PUBLIC "-//W3C//DTD SVG 1.1//EN"
  "http://www.w3.org/Graphics/SVG/1.1/DTD/svg11.dtd">
<svg xmlns:xlink="http://www.w3.org/1999/xlink" width="576pt" height="216pt" viewBox="0 0 576 216" xmlns="http://www.w3.org/2000/svg" version="1.1">
 <metadata>
  <rdf:RDF xmlns:dc="http://purl.org/dc/elements/1.1/" xmlns:cc="http://creativecommons.org/ns#" xmlns:rdf="http://www.w3.org/1999/02/22-rdf-syntax-ns#">
   <cc:Work>
    <dc:type rdf:resource="http://purl.org/dc/dcmitype/StillImage"/>
    <dc:date>2025-08-13T11:03:42.043862</dc:date>
    <dc:format>image/svg+xml</dc:format>
    <dc:creator>
     <cc:Agent>
      <dc:title>Matplotlib v3.9.0, https://matplotlib.org/</dc:title>
     </cc:Agent>
    </dc:creator>
   </cc:Work>
  </rdf:RDF>
 </metadata>
 <defs>
  <style type="text/css">*{stroke-linejoin: round; stroke-linecap: butt}</style>
 </defs>
 <g id="figure_1">
  <g id="patch_1">
   <path d="M 0 216 
L 576 216 
L 576 0 
L 0 0 
z
" style="fill: #ffffff"/>
  </g>
  <g id="patch_2">
   <path d="M 72 174.727059 
L 203.294118 174.727059 
L 203.294118 43.432941 
L 72 43.432941 
z
" style="fill: #ffffff"/>
  </g>
  <g id="pane3d_1">
   <g id="patch_3">
    <path d="M 81.913611 142.354137 
L 125.271217 106.010932 
L 124.668505 53.597534 
L 79.236014 86.752097 
" style="fill: #f2f2f2; opacity: 0.5; stroke: #f2f2f2; stroke-linejoin: miter"/>
   </g>
  </g>
  <g id="pane3d_2">
   <g id="patch_4">
    <path d="M 125.271217 106.010932 
L 194.844704 126.233198 
L 197.327536 72.014481 
L 124.668505 53.597534 
" style="fill: #e6e6e6; opacity: 0.5; stroke: #e6e6e6; stroke-linejoin: miter"/>
   </g>
  </g>
  <g id="pane3d_3">
   <g id="patch_5">
    <path d="M 81.913611 142.354137 
L 155.664905 166.44131 
L 194.844704 126.233198 
L 125.271217 106.010932 
" style="fill: #ececec; opacity: 0.5; stroke: #ececec; stroke-linejoin: miter"/>
   </g>
  </g>
  <g id="grid3d_1">
   <g id="Line3DCollection_1">
    <path d="M 86.380377 143.812983 
L 129.502463 107.240789 
L 129.078651 54.715378 
" style="fill: none; stroke: #b0b0b0; stroke-width: 0.8"/>
    <path d="M 94.106243 146.33625 
L 136.815618 109.366434 
L 136.70368 56.648101 
" style="fill: none; stroke: #b0b0b0; stroke-width: 0.8"/>
    <path d="M 101.919975 148.888215 
L 144.205059 111.514253 
L 144.411683 58.601855 
" style="fill: none; stroke: #b0b0b0; stroke-width: 0.8"/>
    <path d="M 109.823082 151.46937 
L 151.671984 113.684593 
L 152.204022 60.576985 
" style="fill: none; stroke: #b0b0b0; stroke-width: 0.8"/>
    <path d="M 117.817105 154.080218 
L 159.21762 115.877812 
L 160.082088 62.573845 
" style="fill: none; stroke: #b0b0b0; stroke-width: 0.8"/>
    <path d="M 125.903622 156.721274 
L 166.843217 118.094272 
L 168.047304 64.592795 
" style="fill: none; stroke: #b0b0b0; stroke-width: 0.8"/>
    <path d="M 134.084248 159.393067 
L 174.550054 120.334345 
L 176.101124 66.634204 
" style="fill: none; stroke: #b0b0b0; stroke-width: 0.8"/>
    <path d="M 142.360635 162.096135 
L 182.339435 122.59841 
L 184.245036 68.698448 
" style="fill: none; stroke: #b0b0b0; stroke-width: 0.8"/>
   </g>
  </g>
  <g id="grid3d_2">
   <g id="Line3DCollection_2">
    <path d="M 82.377783 84.459376 
L 84.901317 139.849783 
L 158.375844 163.659219 
" style="fill: none; stroke: #b0b0b0; stroke-width: 0.8"/>
   </g>
  </g>
  <g id="grid3d_3">
   <g id="Line3DCollection_3">
    <path d="M 195.220719 118.02198 
L 125.179775 98.058893 
L 81.508679 133.945461 
" style="fill: none; stroke: #b0b0b0; stroke-width: 0.8"/>
    <path d="M 195.877931 103.670143 
L 125.02009 84.17227 
L 80.800429 119.238189 
" style="fill: none; stroke: #b0b0b0; stroke-width: 0.8"/>
    <path d="M 196.55081 88.9762 
L 124.856783 69.970703 
L 80.074641 104.166734 
" style="fill: none; stroke: #b0b0b0; stroke-width: 0.8"/>
    <path d="M 197.239921 73.927774 
L 124.68973 55.443358 
L 79.330656 88.717399 
" style="fill: none; stroke: #b0b0b0; stroke-width: 0.8"/>
   </g>
  </g>
  <g id="axis3d_1">
   <g id="line2d_1">
    <path d="M 81.913611 142.354137 
L 155.664905 166.44131 
" style="fill: none; stroke: #000000; stroke-width: 0.8; stroke-linecap: square"/>
   </g>
   <g id="xtick_1">
    <g id="line2d_2">
     <path d="M 86.755881 143.494514 
L 85.627756 144.451286 
" style="fill: none; stroke: #000000; stroke-width: 0.8; stroke-linecap: square"/>
    </g>
    <g id="text_1">
     <!-- 20 -->
     <g transform="translate(72.459978 167.18233) scale(0.1 -0.1)">
      <defs>
       <path id="DejaVuSans-32" d="M 1228 531 
L 3431 531 
L 3431 0 
L 469 0 
L 469 531 
Q 828 903 1448 1529 
Q 2069 2156 2228 2338 
Q 2531 2678 2651 2914 
Q 2772 3150 2772 3378 
Q 2772 3750 2511 3984 
Q 2250 4219 1831 4219 
Q 1534 4219 1204 4116 
Q 875 4013 500 3803 
L 500 4441 
Q 881 4594 1212 4672 
Q 1544 4750 1819 4750 
Q 2544 4750 2975 4387 
Q 3406 4025 3406 3419 
Q 3406 3131 3298 2873 
Q 3191 2616 2906 2266 
Q 2828 2175 2409 1742 
Q 1991 1309 1228 531 
z
" transform="scale(0.015625)"/>
       <path id="DejaVuSans-30" d="M 2034 4250 
Q 1547 4250 1301 3770 
Q 1056 3291 1056 2328 
Q 1056 1369 1301 889 
Q 1547 409 2034 409 
Q 2525 409 2770 889 
Q 3016 1369 3016 2328 
Q 3016 3291 2770 3770 
Q 2525 4250 2034 4250 
z
M 2034 4750 
Q 2819 4750 3233 4129 
Q 3647 3509 3647 2328 
Q 3647 1150 3233 529 
Q 2819 -91 2034 -91 
Q 1250 -91 836 529 
Q 422 1150 422 2328 
Q 422 3509 836 4129 
Q 1250 4750 2034 4750 
z
" transform="scale(0.015625)"/>
      </defs>
      <use xlink:href="#DejaVuSans-32"/>
      <use xlink:href="#DejaVuSans-30" x="63.623047"/>
     </g>
    </g>
   </g>
   <g id="xtick_2">
    <g id="line2d_3">
     <path d="M 94.478324 146.014171 
L 93.360474 146.981798 
" style="fill: none; stroke: #000000; stroke-width: 0.8; stroke-linecap: square"/>
    </g>
    <g id="text_2">
     <!-- 25 -->
     <g transform="translate(80.201549 169.814643) scale(0.1 -0.1)">
      <defs>
       <path id="DejaVuSans-35" d="M 691 4666 
L 3169 4666 
L 3169 4134 
L 1269 4134 
L 1269 2991 
Q 1406 3038 1543 3061 
Q 1681 3084 1819 3084 
Q 2600 3084 3056 2656 
Q 3513 2228 3513 1497 
Q 3513 744 3044 326 
Q 2575 -91 1722 -91 
Q 1428 -91 1123 -41 
Q 819 9 494 109 
L 494 744 
Q 775 591 1075 516 
Q 1375 441 1709 441 
Q 2250 441 2565 725 
Q 2881 1009 2881 1497 
Q 2881 1984 2565 2268 
Q 2250 2553 1709 2553 
Q 1456 2553 1204 2497 
Q 953 2441 691 2322 
L 691 4666 
z
" transform="scale(0.015625)"/>
      </defs>
      <use xlink:href="#DejaVuSans-32"/>
      <use xlink:href="#DejaVuSans-35" x="63.623047"/>
     </g>
    </g>
   </g>
   <g id="xtick_3">
    <g id="line2d_4">
     <path d="M 102.288532 148.562464 
L 101.181263 149.541131 
" style="fill: none; stroke: #000000; stroke-width: 0.8; stroke-linecap: square"/>
    </g>
    <g id="text_3">
     <!-- 50 -->
     <g transform="translate(88.031839 172.477122) scale(0.1 -0.1)">
      <use xlink:href="#DejaVuSans-35"/>
      <use xlink:href="#DejaVuSans-30" x="63.623047"/>
     </g>
    </g>
   </g>
   <g id="xtick_4">
    <g id="line2d_5">
     <path d="M 110.188008 151.139884 
L 109.091637 152.129781 
" style="fill: none; stroke: #000000; stroke-width: 0.8; stroke-linecap: square"/>
    </g>
    <g id="text_4">
     <!-- 100 -->
     <g transform="translate(92.77113 175.17029) scale(0.1 -0.1)">
      <defs>
       <path id="DejaVuSans-31" d="M 794 531 
L 1825 531 
L 1825 4091 
L 703 3866 
L 703 4441 
L 1819 4666 
L 2450 4666 
L 2450 531 
L 3481 531 
L 3481 0 
L 794 0 
L 794 531 
z
" transform="scale(0.015625)"/>
      </defs>
      <use xlink:href="#DejaVuSans-31"/>
      <use xlink:href="#DejaVuSans-30" x="63.623047"/>
      <use xlink:href="#DejaVuSans-30" x="127.246094"/>
     </g>
    </g>
   </g>
   <g id="xtick_5">
    <g id="line2d_6">
     <path d="M 118.178292 153.746932 
L 117.093145 154.748253 
" style="fill: none; stroke: #000000; stroke-width: 0.8; stroke-linecap: square"/>
    </g>
    <g id="text_5">
     <!-- 200 -->
     <g transform="translate(100.783494 177.894679) scale(0.1 -0.1)">
      <use xlink:href="#DejaVuSans-32"/>
      <use xlink:href="#DejaVuSans-30" x="63.623047"/>
      <use xlink:href="#DejaVuSans-30" x="127.246094"/>
     </g>
    </g>
   </g>
   <g id="xtick_6">
    <g id="line2d_7">
     <path d="M 126.260959 156.384122 
L 125.187369 157.397067 
" style="fill: none; stroke: #000000; stroke-width: 0.8; stroke-linecap: square"/>
    </g>
    <g id="text_6">
     <!-- 250 -->
     <g transform="translate(108.889286 180.650836) scale(0.1 -0.1)">
      <use xlink:href="#DejaVuSans-32"/>
      <use xlink:href="#DejaVuSans-35" x="63.623047"/>
      <use xlink:href="#DejaVuSans-30" x="127.246094"/>
     </g>
    </g>
   </g>
   <g id="xtick_7">
    <g id="line2d_8">
     <path d="M 134.437621 159.051981 
L 133.375932 160.076753 
" style="fill: none; stroke: #000000; stroke-width: 0.8; stroke-linecap: square"/>
    </g>
    <g id="text_7">
     <!-- 500 -->
     <g transform="translate(117.09015 183.439319) scale(0.1 -0.1)">
      <use xlink:href="#DejaVuSans-35"/>
      <use xlink:href="#DejaVuSans-30" x="63.623047"/>
      <use xlink:href="#DejaVuSans-30" x="127.246094"/>
     </g>
    </g>
   </g>
   <g id="xtick_8">
    <g id="line2d_9">
     <path d="M 142.709927 161.751046 
L 141.660491 162.787854 
" style="fill: none; stroke: #000000; stroke-width: 0.8; stroke-linecap: square"/>
    </g>
    <g id="text_8">
     <!-- 1000 -->
     <g transform="translate(122.206517 186.260701) scale(0.1 -0.1)">
      <use xlink:href="#DejaVuSans-31"/>
      <use xlink:href="#DejaVuSans-30" x="63.623047"/>
      <use xlink:href="#DejaVuSans-30" x="127.246094"/>
      <use xlink:href="#DejaVuSans-30" x="190.869141"/>
     </g>
    </g>
   </g>
   <g id="text_9">
    <!-- support -->
    <g transform="translate(82.28057 186.318757) rotate(-341.912962) scale(0.1 -0.1)">
     <defs>
      <path id="DejaVuSans-73" d="M 2834 3397 
L 2834 2853 
Q 2591 2978 2328 3040 
Q 2066 3103 1784 3103 
Q 1356 3103 1142 2972 
Q 928 2841 928 2578 
Q 928 2378 1081 2264 
Q 1234 2150 1697 2047 
L 1894 2003 
Q 2506 1872 2764 1633 
Q 3022 1394 3022 966 
Q 3022 478 2636 193 
Q 2250 -91 1575 -91 
Q 1294 -91 989 -36 
Q 684 19 347 128 
L 347 722 
Q 666 556 975 473 
Q 1284 391 1588 391 
Q 1994 391 2212 530 
Q 2431 669 2431 922 
Q 2431 1156 2273 1281 
Q 2116 1406 1581 1522 
L 1381 1569 
Q 847 1681 609 1914 
Q 372 2147 372 2553 
Q 372 3047 722 3315 
Q 1072 3584 1716 3584 
Q 2034 3584 2315 3537 
Q 2597 3491 2834 3397 
z
" transform="scale(0.015625)"/>
      <path id="DejaVuSans-75" d="M 544 1381 
L 544 3500 
L 1119 3500 
L 1119 1403 
Q 1119 906 1312 657 
Q 1506 409 1894 409 
Q 2359 409 2629 706 
Q 2900 1003 2900 1516 
L 2900 3500 
L 3475 3500 
L 3475 0 
L 2900 0 
L 2900 538 
Q 2691 219 2414 64 
Q 2138 -91 1772 -91 
Q 1169 -91 856 284 
Q 544 659 544 1381 
z
M 1991 3584 
L 1991 3584 
z
" transform="scale(0.015625)"/>
      <path id="DejaVuSans-70" d="M 1159 525 
L 1159 -1331 
L 581 -1331 
L 581 3500 
L 1159 3500 
L 1159 2969 
Q 1341 3281 1617 3432 
Q 1894 3584 2278 3584 
Q 2916 3584 3314 3078 
Q 3713 2572 3713 1747 
Q 3713 922 3314 415 
Q 2916 -91 2278 -91 
Q 1894 -91 1617 61 
Q 1341 213 1159 525 
z
M 3116 1747 
Q 3116 2381 2855 2742 
Q 2594 3103 2138 3103 
Q 1681 3103 1420 2742 
Q 1159 2381 1159 1747 
Q 1159 1113 1420 752 
Q 1681 391 2138 391 
Q 2594 391 2855 752 
Q 3116 1113 3116 1747 
z
" transform="scale(0.015625)"/>
      <path id="DejaVuSans-6f" d="M 1959 3097 
Q 1497 3097 1228 2736 
Q 959 2375 959 1747 
Q 959 1119 1226 758 
Q 1494 397 1959 397 
Q 2419 397 2687 759 
Q 2956 1122 2956 1747 
Q 2956 2369 2687 2733 
Q 2419 3097 1959 3097 
z
M 1959 3584 
Q 2709 3584 3137 3096 
Q 3566 2609 3566 1747 
Q 3566 888 3137 398 
Q 2709 -91 1959 -91 
Q 1206 -91 779 398 
Q 353 888 353 1747 
Q 353 2609 779 3096 
Q 1206 3584 1959 3584 
z
" transform="scale(0.015625)"/>
      <path id="DejaVuSans-72" d="M 2631 2963 
Q 2534 3019 2420 3045 
Q 2306 3072 2169 3072 
Q 1681 3072 1420 2755 
Q 1159 2438 1159 1844 
L 1159 0 
L 581 0 
L 581 3500 
L 1159 3500 
L 1159 2956 
Q 1341 3275 1631 3429 
Q 1922 3584 2338 3584 
Q 2397 3584 2469 3576 
Q 2541 3569 2628 3553 
L 2631 2963 
z
" transform="scale(0.015625)"/>
      <path id="DejaVuSans-74" d="M 1172 4494 
L 1172 3500 
L 2356 3500 
L 2356 3053 
L 1172 3053 
L 1172 1153 
Q 1172 725 1289 603 
Q 1406 481 1766 481 
L 2356 481 
L 2356 0 
L 1766 0 
Q 1100 0 847 248 
Q 594 497 594 1153 
L 594 3053 
L 172 3053 
L 172 3500 
L 594 3500 
L 594 4494 
L 1172 4494 
z
" transform="scale(0.015625)"/>
     </defs>
     <use xlink:href="#DejaVuSans-73"/>
     <use xlink:href="#DejaVuSans-75" x="52.099609"/>
     <use xlink:href="#DejaVuSans-70" x="115.478516"/>
     <use xlink:href="#DejaVuSans-70" x="178.955078"/>
     <use xlink:href="#DejaVuSans-6f" x="242.431641"/>
     <use xlink:href="#DejaVuSans-72" x="303.613281"/>
     <use xlink:href="#DejaVuSans-74" x="344.726562"/>
    </g>
   </g>
  </g>
  <g id="axis3d_2">
   <g id="line2d_10">
    <path d="M 194.844704 126.233198 
L 155.664905 166.44131 
" style="fill: none; stroke: #000000; stroke-width: 0.8; stroke-linecap: square"/>
   </g>
   <g id="xtick_9">
    <g id="line2d_11">
     <path d="M 157.756672 163.458577 
L 159.61579 164.061024 
" style="fill: none; stroke: #000000; stroke-width: 0.8; stroke-linecap: square"/>
    </g>
    <g id="text_10">
     <!-- -1 -->
     <g transform="translate(166.279246 184.689208) scale(0.1 -0.1)">
      <defs>
       <path id="DejaVuSans-2d" d="M 313 2009 
L 1997 2009 
L 1997 1497 
L 313 1497 
L 313 2009 
z
" transform="scale(0.015625)"/>
      </defs>
      <use xlink:href="#DejaVuSans-2d"/>
      <use xlink:href="#DejaVuSans-31" x="36.083984"/>
     </g>
    </g>
   </g>
   <g id="text_11">
    <!-- window -->
    <g transform="translate(191.873976 188.99679) rotate(-45.742112) scale(0.1 -0.1)">
     <defs>
      <path id="DejaVuSans-77" d="M 269 3500 
L 844 3500 
L 1563 769 
L 2278 3500 
L 2956 3500 
L 3675 769 
L 4391 3500 
L 4966 3500 
L 4050 0 
L 3372 0 
L 2619 2869 
L 1863 0 
L 1184 0 
L 269 3500 
z
" transform="scale(0.015625)"/>
      <path id="DejaVuSans-69" d="M 603 3500 
L 1178 3500 
L 1178 0 
L 603 0 
L 603 3500 
z
M 603 4863 
L 1178 4863 
L 1178 4134 
L 603 4134 
L 603 4863 
z
" transform="scale(0.015625)"/>
      <path id="DejaVuSans-6e" d="M 3513 2113 
L 3513 0 
L 2938 0 
L 2938 2094 
Q 2938 2591 2744 2837 
Q 2550 3084 2163 3084 
Q 1697 3084 1428 2787 
Q 1159 2491 1159 1978 
L 1159 0 
L 581 0 
L 581 3500 
L 1159 3500 
L 1159 2956 
Q 1366 3272 1645 3428 
Q 1925 3584 2291 3584 
Q 2894 3584 3203 3211 
Q 3513 2838 3513 2113 
z
" transform="scale(0.015625)"/>
      <path id="DejaVuSans-64" d="M 2906 2969 
L 2906 4863 
L 3481 4863 
L 3481 0 
L 2906 0 
L 2906 525 
Q 2725 213 2448 61 
Q 2172 -91 1784 -91 
Q 1150 -91 751 415 
Q 353 922 353 1747 
Q 353 2572 751 3078 
Q 1150 3584 1784 3584 
Q 2172 3584 2448 3432 
Q 2725 3281 2906 2969 
z
M 947 1747 
Q 947 1113 1208 752 
Q 1469 391 1925 391 
Q 2381 391 2643 752 
Q 2906 1113 2906 1747 
Q 2906 2381 2643 2742 
Q 2381 3103 1925 3103 
Q 1469 3103 1208 2742 
Q 947 2381 947 1747 
z
" transform="scale(0.015625)"/>
     </defs>
     <use xlink:href="#DejaVuSans-77"/>
     <use xlink:href="#DejaVuSans-69" x="81.787109"/>
     <use xlink:href="#DejaVuSans-6e" x="109.570312"/>
     <use xlink:href="#DejaVuSans-64" x="172.949219"/>
     <use xlink:href="#DejaVuSans-6f" x="236.425781"/>
     <use xlink:href="#DejaVuSans-77" x="297.607422"/>
    </g>
   </g>
  </g>
  <g id="axis3d_3">
   <g id="line2d_12">
    <path d="M 194.844704 126.233198 
L 197.327536 72.014481 
" style="fill: none; stroke: #000000; stroke-width: 0.8; stroke-linecap: square"/>
   </g>
   <g id="xtick_10">
    <g id="line2d_13">
     <path d="M 194.632696 117.854382 
L 196.398173 118.357578 
" style="fill: none; stroke: #000000; stroke-width: 0.8; stroke-linecap: square"/>
    </g>
    <g id="text_12">
     <!-- $10^{-1.0}$ -->
     <g transform="translate(198.483729 123.055985) scale(0.1 -0.1)">
      <defs>
       <path id="DejaVuSans-2212" d="M 678 2272 
L 4684 2272 
L 4684 1741 
L 678 1741 
L 678 2272 
z
" transform="scale(0.015625)"/>
       <path id="DejaVuSans-2e" d="M 684 794 
L 1344 794 
L 1344 0 
L 684 0 
L 684 794 
z
" transform="scale(0.015625)"/>
      </defs>
      <use xlink:href="#DejaVuSans-31" transform="translate(0 0.765625)"/>
      <use xlink:href="#DejaVuSans-30" transform="translate(63.623047 0.765625)"/>
      <use xlink:href="#DejaVuSans-2212" transform="translate(128.203125 39.046875) scale(0.7)"/>
      <use xlink:href="#DejaVuSans-31" transform="translate(186.855469 39.046875) scale(0.7)"/>
      <use xlink:href="#DejaVuSans-2e" transform="translate(231.391602 39.046875) scale(0.7)"/>
      <use xlink:href="#DejaVuSans-30" transform="translate(253.642578 39.046875) scale(0.7)"/>
     </g>
    </g>
   </g>
   <g id="xtick_11">
    <g id="line2d_14">
     <path d="M 195.28272 103.506359 
L 197.069796 103.998107 
" style="fill: none; stroke: #000000; stroke-width: 0.8; stroke-linecap: square"/>
    </g>
    <g id="text_13">
     <!-- $10^{0.0}$ -->
     <g transform="translate(202.251248 108.762688) scale(0.1 -0.1)">
      <use xlink:href="#DejaVuSans-31" transform="translate(0 0.765625)"/>
      <use xlink:href="#DejaVuSans-30" transform="translate(63.623047 0.765625)"/>
      <use xlink:href="#DejaVuSans-30" transform="translate(128.203125 39.046875) scale(0.7)"/>
      <use xlink:href="#DejaVuSans-2e" transform="translate(172.739258 39.046875) scale(0.7)"/>
      <use xlink:href="#DejaVuSans-30" transform="translate(194.990234 39.046875) scale(0.7)"/>
     </g>
    </g>
   </g>
   <g id="xtick_12">
    <g id="line2d_15">
     <path d="M 195.948233 88.816462 
L 197.757441 89.296068 
" style="fill: none; stroke: #000000; stroke-width: 0.8; stroke-linecap: square"/>
    </g>
    <g id="text_14">
     <!-- $10^{1.0}$ -->
     <g transform="translate(203.139317 94.130808) scale(0.1 -0.1)">
      <use xlink:href="#DejaVuSans-31" transform="translate(0 0.765625)"/>
      <use xlink:href="#DejaVuSans-30" transform="translate(63.623047 0.765625)"/>
      <use xlink:href="#DejaVuSans-31" transform="translate(128.203125 39.046875) scale(0.7)"/>
      <use xlink:href="#DejaVuSans-2e" transform="translate(172.739258 39.046875) scale(0.7)"/>
      <use xlink:href="#DejaVuSans-30" transform="translate(194.990234 39.046875) scale(0.7)"/>
     </g>
    </g>
   </g>
   <g id="xtick_13">
    <g id="line2d_16">
     <path d="M 196.629794 73.772325 
L 198.461688 74.239057 
" style="fill: none; stroke: #000000; stroke-width: 0.8; stroke-linecap: square"/>
    </g>
    <g id="text_15">
     <!-- $10^{2.0}$ -->
     <g transform="translate(204.048675 79.148172) scale(0.1 -0.1)">
      <use xlink:href="#DejaVuSans-31" transform="translate(0 0.765625)"/>
      <use xlink:href="#DejaVuSans-30" transform="translate(63.623047 0.765625)"/>
      <use xlink:href="#DejaVuSans-32" transform="translate(128.203125 39.046875) scale(0.7)"/>
      <use xlink:href="#DejaVuSans-2e" transform="translate(172.739258 39.046875) scale(0.7)"/>
      <use xlink:href="#DejaVuSans-30" transform="translate(194.990234 39.046875) scale(0.7)"/>
     </g>
    </g>
   </g>
   <g id="text_16">
    <!-- elapsed -->
    <g transform="translate(238.023192 114.01016) rotate(-87.378092) scale(0.1 -0.1)">
     <defs>
      <path id="DejaVuSans-65" d="M 3597 1894 
L 3597 1613 
L 953 1613 
Q 991 1019 1311 708 
Q 1631 397 2203 397 
Q 2534 397 2845 478 
Q 3156 559 3463 722 
L 3463 178 
Q 3153 47 2828 -22 
Q 2503 -91 2169 -91 
Q 1331 -91 842 396 
Q 353 884 353 1716 
Q 353 2575 817 3079 
Q 1281 3584 2069 3584 
Q 2775 3584 3186 3129 
Q 3597 2675 3597 1894 
z
M 3022 2063 
Q 3016 2534 2758 2815 
Q 2500 3097 2075 3097 
Q 1594 3097 1305 2825 
Q 1016 2553 972 2059 
L 3022 2063 
z
" transform="scale(0.015625)"/>
      <path id="DejaVuSans-6c" d="M 603 4863 
L 1178 4863 
L 1178 0 
L 603 0 
L 603 4863 
z
" transform="scale(0.015625)"/>
      <path id="DejaVuSans-61" d="M 2194 1759 
Q 1497 1759 1228 1600 
Q 959 1441 959 1056 
Q 959 750 1161 570 
Q 1363 391 1709 391 
Q 2188 391 2477 730 
Q 2766 1069 2766 1631 
L 2766 1759 
L 2194 1759 
z
M 3341 1997 
L 3341 0 
L 2766 0 
L 2766 531 
Q 2569 213 2275 61 
Q 1981 -91 1556 -91 
Q 1019 -91 701 211 
Q 384 513 384 1019 
Q 384 1609 779 1909 
Q 1175 2209 1959 2209 
L 2766 2209 
L 2766 2266 
Q 2766 2663 2505 2880 
Q 2244 3097 1772 3097 
Q 1472 3097 1187 3025 
Q 903 2953 641 2809 
L 641 3341 
Q 956 3463 1253 3523 
Q 1550 3584 1831 3584 
Q 2591 3584 2966 3190 
Q 3341 2797 3341 1997 
z
" transform="scale(0.015625)"/>
     </defs>
     <use xlink:href="#DejaVuSans-65"/>
     <use xlink:href="#DejaVuSans-6c" x="61.523438"/>
     <use xlink:href="#DejaVuSans-61" x="89.306641"/>
     <use xlink:href="#DejaVuSans-70" x="150.585938"/>
     <use xlink:href="#DejaVuSans-73" x="214.0625"/>
     <use xlink:href="#DejaVuSans-65" x="266.162109"/>
     <use xlink:href="#DejaVuSans-64" x="327.685547"/>
    </g>
   </g>
  </g>
  <g id="axes_1">
   <g id="Poly3DCollection_1">
    <path d="M 126.747178 87.426538 
L 126.446238 57.767 
L 134.092257 59.725261 
L 134.216514 89.496623 
z
" clip-path="url(#pdf97ba11be)" style="fill: #2a4a46"/>
    <path d="M 141.765593 91.588808 
L 141.785597 80.965824 
L 149.481271 83.041107 
L 149.395701 93.70345 
z
" clip-path="url(#pdf97ba11be)" style="fill: #56572b"/>
    <path d="M 134.216514 89.496623 
L 134.114345 65.017567 
L 141.811861 67.017795 
L 141.765593 91.588808 
z
" clip-path="url(#pdf97ba11be)" style="fill: #5d1452"/>
    <path d="M 149.380333 95.618223 
L 149.395701 93.70345 
L 157.108147 95.840911 
L 157.080751 97.762689 
z
" clip-path="url(#pdf97ba11be)" style="fill: #47254d"/>
    <path d="M 156.925549 108.649808 
L 157.108147 95.840911 
L 164.904274 98.001564 
L 164.639776 110.856802 
z
" clip-path="url(#pdf97ba11be)" style="fill: #3a3c28"/>
    <path d="M 164.580552 113.735256 
L 164.904274 98.001564 
L 172.785449 100.185788 
L 172.359327 115.976307 
z
" clip-path="url(#pdf97ba11be)" style="fill: #314f13"/>
    <path d="M 172.207865 121.588914 
L 172.785449 100.185788 
L 180.753072 102.39397 
L 180.033701 123.874005 
z
" clip-path="url(#pdf97ba11be)" style="fill: #150567"/>
    <path d="M 180.033701 123.874005 
L 180.753072 102.39397 
L 188.808574 104.626508 
L 187.944341 126.183859 
z
" clip-path="url(#pdf97ba11be)" style="fill: #35400b"/>
    <path d="M 88.385768 118.21202 
L 126.747178 87.426538 
L 134.216514 89.496623 
L 96.22843 120.62295 
z
" clip-path="url(#pdf97ba11be)" style="fill: #365e59"/>
    <path d="M 96.22843 120.62295 
L 134.216514 89.496623 
L 141.765593 91.588808 
L 104.16151 123.061674 
z
" clip-path="url(#pdf97ba11be)" style="fill: #771a69"/>
    <path d="M 88.385768 118.21202 
L 87.075808 86.940508 
L 126.446238 57.767 
L 126.747178 87.426538 
z
" clip-path="url(#pdf97ba11be)" style="fill: #599c93"/>
    <path d="M 104.16151 123.061674 
L 141.765593 91.588808 
L 149.395701 93.70345 
L 112.18658 125.528678 
z
" clip-path="url(#pdf97ba11be)" style="fill: #6e7036"/>
    <path d="M 120.518372 141.498044 
L 156.925549 108.649808 
L 164.639776 110.856802 
L 128.641417 144.072935 
z
" clip-path="url(#pdf97ba11be)" style="fill: #4b4d33"/>
    <path d="M 104.16151 123.061674 
L 103.836389 111.872559 
L 141.785597 80.965824 
L 141.765593 91.588808 
z
" clip-path="url(#pdf97ba11be)" style="fill: #b6b95a"/>
    <path d="M 96.22843 120.62295 
L 95.311803 94.819138 
L 134.114345 65.017567 
L 134.216514 89.496623 
z
" clip-path="url(#pdf97ba11be)" style="fill: #c52baf"/>
    <path d="M 112.231904 127.54406 
L 112.18658 125.528678 
L 149.395701 93.70345 
L 149.380333 95.618223 
z
" clip-path="url(#pdf97ba11be)" style="fill: #964ea4"/>
    <path d="M 120.518372 141.498044 
L 120.305249 128.024456 
L 157.108147 95.840911 
L 156.925549 108.649808 
z
" clip-path="url(#pdf97ba11be)" style="fill: #7c8055"/>
    <path d="M 128.668763 147.097881 
L 164.580552 113.735256 
L 172.359327 115.976307 
L 136.865779 149.713772 
z
" clip-path="url(#pdf97ba11be)" style="fill: #3e6518"/>
    <path d="M 112.231904 127.54406 
L 149.380333 95.618223 
L 157.080751 97.762689 
L 120.337248 130.047393 
z
" clip-path="url(#pdf97ba11be)" style="fill: #5a2f63"/>
    <path d="M 96.22843 120.62295 
L 134.216514 89.496623 
L 134.092257 59.725261 
L 95.113255 89.229826 
z
" clip-path="url(#pdf97ba11be)" style="fill: #2a4a46"/>
    <path d="M 136.878473 155.6091 
L 172.207865 121.588914 
L 180.033701 123.874005 
L 145.130086 158.276724 
z
" clip-path="url(#pdf97ba11be)" style="fill: #1b0684"/>
    <path d="M 112.18658 125.528678 
L 120.305249 128.024456 
L 157.108147 95.840911 
L 149.395701 93.70345 
z
" clip-path="url(#pdf97ba11be)" style="fill: #82448e"/>
    <path d="M 112.18658 125.528678 
L 149.395701 93.70345 
L 149.481271 83.041107 
L 111.933987 114.296968 
z
" clip-path="url(#pdf97ba11be)" style="fill: #56572b"/>
    <path d="M 128.668763 147.097881 
L 128.519166 130.549513 
L 164.904274 98.001564 
L 164.580552 113.735256 
z
" clip-path="url(#pdf97ba11be)" style="fill: #67a727"/>
    <path d="M 104.16151 123.061674 
L 141.765593 91.588808 
L 141.811861 67.017795 
L 103.408831 97.158001 
z
" clip-path="url(#pdf97ba11be)" style="fill: #5d1452"/>
    <path d="M 120.337248 130.047393 
L 157.080751 97.762689 
L 157.108147 95.840911 
L 120.305249 128.024456 
z
" clip-path="url(#pdf97ba11be)" style="fill: #47254d"/>
    <path d="M 128.641417 144.072935 
L 164.639776 110.856802 
L 164.904274 98.001564 
L 128.519166 130.549513 
z
" clip-path="url(#pdf97ba11be)" style="fill: #3a3c28"/>
    <path d="M 103.836389 111.872559 
L 111.933987 114.296968 
L 149.481271 83.041107 
L 141.785597 80.965824 
z
" clip-path="url(#pdf97ba11be)" style="fill: #9ea04e"/>
    <path d="M 145.130086 158.276724 
L 180.033701 123.874005 
L 187.944341 126.183859 
L 153.478375 160.975603 
z
" clip-path="url(#pdf97ba11be)" style="fill: #43520e"/>
    <path d="M 136.878473 155.6091 
L 136.830015 133.104369 
L 172.785449 100.185788 
L 172.207865 121.588914 
z
" clip-path="url(#pdf97ba11be)" style="fill: #2c0bda"/>
    <path d="M 120.305249 128.024456 
L 128.519166 130.549513 
L 164.904274 98.001564 
L 157.108147 95.840911 
z
" clip-path="url(#pdf97ba11be)" style="fill: #6b6f4a"/>
    <path d="M 136.865779 149.713772 
L 172.359327 115.976307 
L 172.785449 100.185788 
L 136.830015 133.104369 
z
" clip-path="url(#pdf97ba11be)" style="fill: #314f13"/>
    <path d="M 87.075808 86.940508 
L 95.113255 89.229826 
L 134.092257 59.725261 
L 126.446238 57.767 
z
" clip-path="url(#pdf97ba11be)" style="fill: #4d8880"/>
    <path d="M 95.311803 94.819138 
L 103.408831 97.158001 
L 141.811861 67.017795 
L 134.114345 65.017567 
z
" clip-path="url(#pdf97ba11be)" style="fill: #ab2597"/>
    <path d="M 145.130086 158.276724 
L 145.239523 135.689554 
L 180.753072 102.39397 
L 180.033701 123.874005 
z
" clip-path="url(#pdf97ba11be)" style="fill: #708716"/>
    <path d="M 145.130086 158.276724 
L 180.033701 123.874005 
L 180.753072 102.39397 
L 145.239523 135.689554 
z
" clip-path="url(#pdf97ba11be)" style="fill: #150567"/>
    <path d="M 128.519166 130.549513 
L 136.830015 133.104369 
L 172.785449 100.185788 
L 164.904274 98.001564 
z
" clip-path="url(#pdf97ba11be)" style="fill: #599122"/>
    <path d="M 153.478375 160.975603 
L 187.944341 126.183859 
L 188.808574 104.626508 
L 153.749457 138.305611 
z
" clip-path="url(#pdf97ba11be)" style="fill: #35400b"/>
    <path d="M 136.830015 133.104369 
L 145.239523 135.689554 
L 180.753072 102.39397 
L 172.785449 100.185788 
z
" clip-path="url(#pdf97ba11be)" style="fill: #2609be"/>
    <path d="M 145.239523 135.689554 
L 153.749457 138.305611 
L 188.808574 104.626508 
L 180.753072 102.39397 
z
" clip-path="url(#pdf97ba11be)" style="fill: #617613"/>
    <path d="M 88.385768 118.21202 
L 96.22843 120.62295 
L 95.113255 89.229826 
L 87.075808 86.940508 
z
" clip-path="url(#pdf97ba11be)" style="fill: #599c93"/>
    <path d="M 104.16151 123.061674 
L 112.18658 125.528678 
L 111.933987 114.296968 
L 103.836389 111.872559 
z
" clip-path="url(#pdf97ba11be)" style="fill: #b6b95a"/>
    <path d="M 96.22843 120.62295 
L 104.16151 123.061674 
L 103.408831 97.158001 
L 95.311803 94.819138 
z
" clip-path="url(#pdf97ba11be)" style="fill: #c52baf"/>
    <path d="M 112.231904 127.54406 
L 120.337248 130.047393 
L 120.305249 128.024456 
L 112.18658 125.528678 
z
" clip-path="url(#pdf97ba11be)" style="fill: #964ea4"/>
    <path d="M 120.518372 141.498044 
L 128.641417 144.072935 
L 128.519166 130.549513 
L 120.305249 128.024456 
z
" clip-path="url(#pdf97ba11be)" style="fill: #7c8055"/>
    <path d="M 128.668763 147.097881 
L 136.865779 149.713772 
L 136.830015 133.104369 
L 128.519166 130.549513 
z
" clip-path="url(#pdf97ba11be)" style="fill: #67a727"/>
    <path d="M 136.878473 155.6091 
L 145.130086 158.276724 
L 145.239523 135.689554 
L 136.830015 133.104369 
z
" clip-path="url(#pdf97ba11be)" style="fill: #2c0bda"/>
    <path d="M 145.130086 158.276724 
L 153.478375 160.975603 
L 153.749457 138.305611 
L 145.239523 135.689554 
z
" clip-path="url(#pdf97ba11be)" style="fill: #708716"/>
   </g>
   <g id="text_17">
    <!-- default -->
    <g transform="translate(116.535496 37.432941) scale(0.12 -0.12)">
     <defs>
      <path id="DejaVuSans-66" d="M 2375 4863 
L 2375 4384 
L 1825 4384 
Q 1516 4384 1395 4259 
Q 1275 4134 1275 3809 
L 1275 3500 
L 2222 3500 
L 2222 3053 
L 1275 3053 
L 1275 0 
L 697 0 
L 697 3053 
L 147 3053 
L 147 3500 
L 697 3500 
L 697 3744 
Q 697 4328 969 4595 
Q 1241 4863 1831 4863 
L 2375 4863 
z
" transform="scale(0.015625)"/>
     </defs>
     <use xlink:href="#DejaVuSans-64"/>
     <use xlink:href="#DejaVuSans-65" x="63.476562"/>
     <use xlink:href="#DejaVuSans-66" x="125"/>
     <use xlink:href="#DejaVuSans-61" x="160.205078"/>
     <use xlink:href="#DejaVuSans-75" x="221.484375"/>
     <use xlink:href="#DejaVuSans-6c" x="284.863281"/>
     <use xlink:href="#DejaVuSans-74" x="312.646484"/>
    </g>
   </g>
   <g id="Poly3DCollection_2">
    <path d="M 88.385768 118.21202 
L 96.22843 120.62295 
L 134.216514 89.496623 
L 126.747178 87.426538 
z
" clip-path="url(#pdf97ba11be)" style="fill: #c30000"/>
    <path d="M 96.22843 120.62295 
L 104.16151 123.061674 
L 141.765593 91.588808 
L 134.216514 89.496623 
z
" clip-path="url(#pdf97ba11be)" style="fill: #c30000"/>
    <path d="M 104.16151 123.061674 
L 112.18658 125.528678 
L 149.395701 93.70345 
L 141.765593 91.588808 
z
" clip-path="url(#pdf97ba11be)" style="fill: #c30000"/>
    <path d="M 112.18658 125.528678 
L 120.305249 128.024456 
L 157.108147 95.840911 
L 149.395701 93.70345 
z
" clip-path="url(#pdf97ba11be)" style="fill: #c30000"/>
    <path d="M 120.305249 128.024456 
L 128.519166 130.549513 
L 164.904274 98.001564 
L 157.108147 95.840911 
z
" clip-path="url(#pdf97ba11be)" style="fill: #c30000"/>
    <path d="M 128.519166 130.549513 
L 136.830015 133.104369 
L 172.785449 100.185788 
L 164.904274 98.001564 
z
" clip-path="url(#pdf97ba11be)" style="fill: #c30000"/>
    <path d="M 136.830015 133.104369 
L 145.239523 135.689554 
L 180.753072 102.39397 
L 172.785449 100.185788 
z
" clip-path="url(#pdf97ba11be)" style="fill: #c30000"/>
    <path d="M 145.239523 135.689554 
L 153.749457 138.305611 
L 188.808574 104.626508 
L 180.753072 102.39397 
z
" clip-path="url(#pdf97ba11be)" style="fill: #c30000"/>
   </g>
  </g>
  <g id="patch_6">
   <path d="M 229.552941 174.727059 
L 360.847059 174.727059 
L 360.847059 43.432941 
L 229.552941 43.432941 
z
" style="fill: #ffffff"/>
  </g>
  <g id="pane3d_4">
   <g id="patch_7">
    <path d="M 239.466552 142.354137 
L 282.824158 106.010932 
L 282.221446 53.597534 
L 236.788955 86.752097 
" style="fill: #f2f2f2; opacity: 0.5; stroke: #f2f2f2; stroke-linejoin: miter"/>
   </g>
  </g>
  <g id="pane3d_5">
   <g id="patch_8">
    <path d="M 282.824158 106.010932 
L 352.397645 126.233198 
L 354.880477 72.014481 
L 282.221446 53.597534 
" style="fill: #e6e6e6; opacity: 0.5; stroke: #e6e6e6; stroke-linejoin: miter"/>
   </g>
  </g>
  <g id="pane3d_6">
   <g id="patch_9">
    <path d="M 239.466552 142.354137 
L 313.217847 166.44131 
L 352.397645 126.233198 
L 282.824158 106.010932 
" style="fill: #ececec; opacity: 0.5; stroke: #ececec; stroke-linejoin: miter"/>
   </g>
  </g>
  <g id="grid3d_4">
   <g id="Line3DCollection_4">
    <path d="M 243.933318 143.812983 
L 287.055404 107.240789 
L 286.631593 54.715378 
" style="fill: none; stroke: #b0b0b0; stroke-width: 0.8"/>
    <path d="M 275.370046 154.080218 
L 316.770561 115.877812 
L 317.635029 62.573845 
" style="fill: none; stroke: #b0b0b0; stroke-width: 0.8"/>
   </g>
  </g>
  <g id="grid3d_5">
   <g id="Line3DCollection_5">
    <path d="M 239.930725 84.459376 
L 242.454258 139.849783 
L 315.928785 163.659219 
" style="fill: none; stroke: #b0b0b0; stroke-width: 0.8"/>
    <path d="M 250.427047 76.799639 
L 252.447238 131.473469 
L 324.984068 154.366272 
" style="fill: none; stroke: #b0b0b0; stroke-width: 0.8"/>
    <path d="M 260.515829 69.437305 
L 262.068747 123.408529 
L 333.685325 145.436641 
" style="fill: none; stroke: #b0b0b0; stroke-width: 0.8"/>
    <path d="M 270.220354 62.355385 
L 271.339121 115.637918 
L 342.05292 136.849431 
" style="fill: none; stroke: #b0b0b0; stroke-width: 0.8"/>
   </g>
  </g>
  <g id="grid3d_6">
   <g id="Line3DCollection_6">
    <path d="M 352.558799 122.713999 
L 282.78496 102.60219 
L 239.29303 138.750836 
" style="fill: none; stroke: #b0b0b0; stroke-width: 0.8"/>
    <path d="M 352.823086 116.942653 
L 282.720701 97.014012 
L 239.008379 132.83986 
" style="fill: none; stroke: #b0b0b0; stroke-width: 0.8"/>
    <path d="M 353.089898 111.116163 
L 282.655856 91.37499 
L 238.720904 126.870254 
" style="fill: none; stroke: #b0b0b0; stroke-width: 0.8"/>
    <path d="M 353.359271 105.233735 
L 282.590419 85.684425 
L 238.430563 120.841142 
" style="fill: none; stroke: #b0b0b0; stroke-width: 0.8"/>
    <path d="M 353.631243 99.29456 
L 282.524382 79.941608 
L 238.137314 114.751629 
" style="fill: none; stroke: #b0b0b0; stroke-width: 0.8"/>
    <path d="M 353.905852 93.297812 
L 282.457735 74.145816 
L 237.841112 108.600804 
" style="fill: none; stroke: #b0b0b0; stroke-width: 0.8"/>
    <path d="M 354.183135 87.242649 
L 282.39047 68.296313 
L 237.541912 102.387736 
" style="fill: none; stroke: #b0b0b0; stroke-width: 0.8"/>
    <path d="M 354.463133 81.128216 
L 282.322579 62.392347 
L 237.23967 96.111474 
" style="fill: none; stroke: #b0b0b0; stroke-width: 0.8"/>
    <path d="M 354.745885 74.953636 
L 282.254053 56.433157 
L 236.934337 89.771051 
" style="fill: none; stroke: #b0b0b0; stroke-width: 0.8"/>
   </g>
  </g>
  <g id="axis3d_4">
   <g id="line2d_17">
    <path d="M 239.466552 142.354137 
L 313.217847 166.44131 
" style="fill: none; stroke: #000000; stroke-width: 0.8; stroke-linecap: square"/>
   </g>
   <g id="xtick_14">
    <g id="line2d_18">
     <path d="M 244.308823 143.494514 
L 243.180697 144.451286 
" style="fill: none; stroke: #000000; stroke-width: 0.8; stroke-linecap: square"/>
    </g>
    <g id="text_18">
     <!-- 0.05 -->
     <g transform="translate(225.242607 167.18233) scale(0.1 -0.1)">
      <use xlink:href="#DejaVuSans-30"/>
      <use xlink:href="#DejaVuSans-2e" x="63.623047"/>
      <use xlink:href="#DejaVuSans-30" x="95.410156"/>
      <use xlink:href="#DejaVuSans-35" x="159.033203"/>
     </g>
    </g>
   </g>
   <g id="xtick_15">
    <g id="line2d_19">
     <path d="M 275.731233 153.746932 
L 274.646086 154.748253 
" style="fill: none; stroke: #000000; stroke-width: 0.8; stroke-linecap: square"/>
    </g>
    <g id="text_19">
     <!-- 0.1 -->
     <g transform="translate(259.928623 177.894679) scale(0.1 -0.1)">
      <use xlink:href="#DejaVuSans-30"/>
      <use xlink:href="#DejaVuSans-2e" x="63.623047"/>
      <use xlink:href="#DejaVuSans-31" x="95.410156"/>
     </g>
    </g>
   </g>
   <g id="text_20">
    <!-- support -->
    <g transform="translate(239.833511 186.318757) rotate(-341.912962) scale(0.1 -0.1)">
     <use xlink:href="#DejaVuSans-73"/>
     <use xlink:href="#DejaVuSans-75" x="52.099609"/>
     <use xlink:href="#DejaVuSans-70" x="115.478516"/>
     <use xlink:href="#DejaVuSans-70" x="178.955078"/>
     <use xlink:href="#DejaVuSans-6f" x="242.431641"/>
     <use xlink:href="#DejaVuSans-72" x="303.613281"/>
     <use xlink:href="#DejaVuSans-74" x="344.726562"/>
    </g>
   </g>
  </g>
  <g id="axis3d_5">
   <g id="line2d_20">
    <path d="M 352.397645 126.233198 
L 313.217847 166.44131 
" style="fill: none; stroke: #000000; stroke-width: 0.8; stroke-linecap: square"/>
   </g>
   <g id="xtick_16">
    <g id="line2d_21">
     <path d="M 315.309613 163.458577 
L 317.168731 164.061024 
" style="fill: none; stroke: #000000; stroke-width: 0.8; stroke-linecap: square"/>
    </g>
    <g id="text_21">
     <!-- 1000 -->
     <g transform="translate(316.092344 184.689208) scale(0.1 -0.1)">
      <use xlink:href="#DejaVuSans-31"/>
      <use xlink:href="#DejaVuSans-30" x="63.623047"/>
      <use xlink:href="#DejaVuSans-30" x="127.246094"/>
      <use xlink:href="#DejaVuSans-30" x="190.869141"/>
     </g>
    </g>
   </g>
   <g id="xtick_17">
    <g id="line2d_22">
     <path d="M 324.373415 154.173548 
L 326.206921 154.752207 
" style="fill: none; stroke: #000000; stroke-width: 0.8; stroke-linecap: square"/>
    </g>
    <g id="text_22">
     <!-- 2000 -->
     <g transform="translate(324.901129 175.117086) scale(0.1 -0.1)">
      <use xlink:href="#DejaVuSans-32"/>
      <use xlink:href="#DejaVuSans-30" x="63.623047"/>
      <use xlink:href="#DejaVuSans-30" x="127.246094"/>
      <use xlink:href="#DejaVuSans-30" x="190.869141"/>
     </g>
    </g>
   </g>
   <g id="xtick_18">
    <g id="line2d_23">
     <path d="M 333.083005 145.251378 
L 334.891462 145.80763 
" style="fill: none; stroke: #000000; stroke-width: 0.8; stroke-linecap: square"/>
    </g>
    <g id="text_23">
     <!-- 5000 -->
     <g transform="translate(333.365123 165.919634) scale(0.1 -0.1)">
      <use xlink:href="#DejaVuSans-35"/>
      <use xlink:href="#DejaVuSans-30" x="63.623047"/>
      <use xlink:href="#DejaVuSans-30" x="127.246094"/>
      <use xlink:href="#DejaVuSans-30" x="190.869141"/>
     </g>
    </g>
   </g>
   <g id="xtick_19">
    <g id="line2d_24">
     <path d="M 341.458749 136.671202 
L 343.24271 137.206324 
" style="fill: none; stroke: #000000; stroke-width: 0.8; stroke-linecap: square"/>
    </g>
    <g id="text_24">
     <!-- 10000 -->
     <g transform="translate(338.322932 157.075275) scale(0.1 -0.1)">
      <use xlink:href="#DejaVuSans-31"/>
      <use xlink:href="#DejaVuSans-30" x="63.623047"/>
      <use xlink:href="#DejaVuSans-30" x="127.246094"/>
      <use xlink:href="#DejaVuSans-30" x="190.869141"/>
      <use xlink:href="#DejaVuSans-30" x="254.492188"/>
     </g>
    </g>
   </g>
   <g id="text_25">
    <!-- window -->
    <g transform="translate(349.426917 188.99679) rotate(-45.742112) scale(0.1 -0.1)">
     <use xlink:href="#DejaVuSans-77"/>
     <use xlink:href="#DejaVuSans-69" x="81.787109"/>
     <use xlink:href="#DejaVuSans-6e" x="109.570312"/>
     <use xlink:href="#DejaVuSans-64" x="172.949219"/>
     <use xlink:href="#DejaVuSans-6f" x="236.425781"/>
     <use xlink:href="#DejaVuSans-77" x="297.607422"/>
    </g>
   </g>
  </g>
  <g id="axis3d_6">
   <g id="line2d_25">
    <path d="M 352.397645 126.233198 
L 354.880477 72.014481 
" style="fill: none; stroke: #000000; stroke-width: 0.8; stroke-linecap: square"/>
   </g>
   <g id="xtick_20">
    <g id="line2d_26">
     <path d="M 351.973125 122.545183 
L 353.731545 123.052035 
" style="fill: none; stroke: #000000; stroke-width: 0.8; stroke-linecap: square"/>
    </g>
    <g id="text_26">
     <!-- $10^{-0.1}$ -->
     <g transform="translate(355.753027 127.729311) scale(0.1 -0.1)">
      <use xlink:href="#DejaVuSans-31" transform="translate(0 0.765625)"/>
      <use xlink:href="#DejaVuSans-30" transform="translate(63.623047 0.765625)"/>
      <use xlink:href="#DejaVuSans-2212" transform="translate(128.203125 39.046875) scale(0.7)"/>
      <use xlink:href="#DejaVuSans-30" transform="translate(186.855469 39.046875) scale(0.7)"/>
      <use xlink:href="#DejaVuSans-2e" transform="translate(231.391602 39.046875) scale(0.7)"/>
      <use xlink:href="#DejaVuSans-31" transform="translate(253.642578 39.046875) scale(0.7)"/>
     </g>
    </g>
   </g>
   <g id="xtick_21">
    <g id="line2d_27">
     <path d="M 352.234522 116.775337 
L 354.001623 117.277687 
" style="fill: none; stroke: #000000; stroke-width: 0.8; stroke-linecap: square"/>
    </g>
    <g id="text_27">
     <!-- $10^{0.0}$ -->
     <g transform="translate(359.001916 121.980989) scale(0.1 -0.1)">
      <use xlink:href="#DejaVuSans-31" transform="translate(0 0.765625)"/>
      <use xlink:href="#DejaVuSans-30" transform="translate(63.623047 0.765625)"/>
      <use xlink:href="#DejaVuSans-30" transform="translate(128.203125 39.046875) scale(0.7)"/>
      <use xlink:href="#DejaVuSans-2e" transform="translate(172.739258 39.046875) scale(0.7)"/>
      <use xlink:href="#DejaVuSans-30" transform="translate(194.990234 39.046875) scale(0.7)"/>
     </g>
    </g>
   </g>
   <g id="xtick_22">
    <g id="line2d_28">
     <path d="M 352.498417 110.950384 
L 354.274284 111.448122 
" style="fill: none; stroke: #000000; stroke-width: 0.8; stroke-linecap: square"/>
    </g>
    <g id="text_28">
     <!-- $10^{0.1}$ -->
     <g transform="translate(359.354119 116.17808) scale(0.1 -0.1)">
      <use xlink:href="#DejaVuSans-31" transform="translate(0 0.765625)"/>
      <use xlink:href="#DejaVuSans-30" transform="translate(63.623047 0.765625)"/>
      <use xlink:href="#DejaVuSans-30" transform="translate(128.203125 39.046875) scale(0.7)"/>
      <use xlink:href="#DejaVuSans-2e" transform="translate(172.739258 39.046875) scale(0.7)"/>
      <use xlink:href="#DejaVuSans-31" transform="translate(194.990234 39.046875) scale(0.7)"/>
     </g>
    </g>
   </g>
   <g id="xtick_23">
    <g id="line2d_29">
     <path d="M 352.764844 105.06953 
L 354.549565 105.562544 
" style="fill: none; stroke: #000000; stroke-width: 0.8; stroke-linecap: square"/>
    </g>
    <g id="text_29">
     <!-- $10^{0.2}$ -->
     <g transform="translate(359.909682 110.319803) scale(0.1 -0.1)">
      <use xlink:href="#DejaVuSans-31" transform="translate(0 0.765625)"/>
      <use xlink:href="#DejaVuSans-30" transform="translate(63.623047 0.765625)"/>
      <use xlink:href="#DejaVuSans-30" transform="translate(128.203125 39.046875) scale(0.7)"/>
      <use xlink:href="#DejaVuSans-2e" transform="translate(172.739258 39.046875) scale(0.7)"/>
      <use xlink:href="#DejaVuSans-32" transform="translate(191.140234 39.046875) scale(0.7)"/>
     </g>
    </g>
   </g>
   <g id="xtick_24">
    <g id="line2d_30">
     <path d="M 353.033839 99.131966 
L 354.827503 99.620142 
" style="fill: none; stroke: #000000; stroke-width: 0.8; stroke-linecap: square"/>
    </g>
    <g id="text_30">
     <!-- $10^{0.3}$ -->
     <g transform="translate(360.068653 104.405361) scale(0.1 -0.1)">
      <defs>
       <path id="DejaVuSans-33" d="M 2597 2516 
Q 3050 2419 3304 2112 
Q 3559 1806 3559 1356 
Q 3559 666 3084 287 
Q 2609 -91 1734 -91 
Q 1441 -91 1130 -33 
Q 819 25 488 141 
L 488 750 
Q 750 597 1062 519 
Q 1375 441 1716 441 
Q 2309 441 2620 675 
Q 2931 909 2931 1356 
Q 2931 1769 2642 2001 
Q 2353 2234 1838 2234 
L 1294 2234 
L 1294 2753 
L 1863 2753 
Q 2328 2753 2575 2939 
Q 2822 3125 2822 3475 
Q 2822 3834 2567 4026 
Q 2313 4219 1838 4219 
Q 1578 4219 1281 4162 
Q 984 4106 628 3988 
L 628 4550 
Q 988 4650 1302 4700 
Q 1616 4750 1894 4750 
Q 2613 4750 3031 4423 
Q 3450 4097 3450 3541 
Q 3450 3153 3228 2886 
Q 3006 2619 2597 2516 
z
" transform="scale(0.015625)"/>
      </defs>
      <use xlink:href="#DejaVuSans-31" transform="translate(0 0.765625)"/>
      <use xlink:href="#DejaVuSans-30" transform="translate(63.623047 0.765625)"/>
      <use xlink:href="#DejaVuSans-30" transform="translate(128.203125 39.046875) scale(0.7)"/>
      <use xlink:href="#DejaVuSans-2e" transform="translate(172.739258 39.046875) scale(0.7)"/>
      <use xlink:href="#DejaVuSans-33" transform="translate(194.990234 39.046875) scale(0.7)"/>
     </g>
    </g>
   </g>
   <g id="xtick_25">
    <g id="line2d_31">
     <path d="M 353.305442 93.136869 
L 355.108138 93.62009 
" style="fill: none; stroke: #000000; stroke-width: 0.8; stroke-linecap: square"/>
    </g>
    <g id="text_31">
     <!-- $10^{0.4}$ -->
     <g transform="translate(360.431083 98.433943) scale(0.1 -0.1)">
      <defs>
       <path id="DejaVuSans-34" d="M 2419 4116 
L 825 1625 
L 2419 1625 
L 2419 4116 
z
M 2253 4666 
L 3047 4666 
L 3047 1625 
L 3713 1625 
L 3713 1100 
L 3047 1100 
L 3047 0 
L 2419 0 
L 2419 1100 
L 313 1100 
L 313 1709 
L 2253 4666 
z
" transform="scale(0.015625)"/>
      </defs>
      <use xlink:href="#DejaVuSans-31" transform="translate(0 0.765625)"/>
      <use xlink:href="#DejaVuSans-30" transform="translate(63.623047 0.765625)"/>
      <use xlink:href="#DejaVuSans-30" transform="translate(128.203125 39.046875) scale(0.7)"/>
      <use xlink:href="#DejaVuSans-2e" transform="translate(172.739258 39.046875) scale(0.7)"/>
      <use xlink:href="#DejaVuSans-34" transform="translate(194.990234 39.046875) scale(0.7)"/>
     </g>
    </g>
   </g>
   <g id="xtick_26">
    <g id="line2d_32">
     <path d="M 353.579689 87.083398 
L 355.391509 87.561543 
" style="fill: none; stroke: #000000; stroke-width: 0.8; stroke-linecap: square"/>
    </g>
    <g id="text_32">
     <!-- $10^{0.5}$ -->
     <g transform="translate(360.797022 92.404721) scale(0.1 -0.1)">
      <use xlink:href="#DejaVuSans-31" transform="translate(0 0.765625)"/>
      <use xlink:href="#DejaVuSans-30" transform="translate(63.623047 0.765625)"/>
      <use xlink:href="#DejaVuSans-30" transform="translate(128.203125 39.046875) scale(0.7)"/>
      <use xlink:href="#DejaVuSans-2e" transform="translate(172.739258 39.046875) scale(0.7)"/>
      <use xlink:href="#DejaVuSans-35" transform="translate(194.990234 39.046875) scale(0.7)"/>
     </g>
    </g>
   </g>
   <g id="xtick_27">
    <g id="line2d_33">
     <path d="M 353.856619 80.970696 
L 355.677656 81.443644 
" style="fill: none; stroke: #000000; stroke-width: 0.8; stroke-linecap: square"/>
    </g>
    <g id="text_33">
     <!-- $10^{0.6}$ -->
     <g transform="translate(361.166519 86.316853) scale(0.1 -0.1)">
      <defs>
       <path id="DejaVuSans-36" d="M 2113 2584 
Q 1688 2584 1439 2293 
Q 1191 2003 1191 1497 
Q 1191 994 1439 701 
Q 1688 409 2113 409 
Q 2538 409 2786 701 
Q 3034 994 3034 1497 
Q 3034 2003 2786 2293 
Q 2538 2584 2113 2584 
z
M 3366 4563 
L 3366 3988 
Q 3128 4100 2886 4159 
Q 2644 4219 2406 4219 
Q 1781 4219 1451 3797 
Q 1122 3375 1075 2522 
Q 1259 2794 1537 2939 
Q 1816 3084 2150 3084 
Q 2853 3084 3261 2657 
Q 3669 2231 3669 1497 
Q 3669 778 3244 343 
Q 2819 -91 2113 -91 
Q 1303 -91 875 529 
Q 447 1150 447 2328 
Q 447 3434 972 4092 
Q 1497 4750 2381 4750 
Q 2619 4750 2861 4703 
Q 3103 4656 3366 4563 
z
" transform="scale(0.015625)"/>
      </defs>
      <use xlink:href="#DejaVuSans-31" transform="translate(0 0.765625)"/>
      <use xlink:href="#DejaVuSans-30" transform="translate(63.623047 0.765625)"/>
      <use xlink:href="#DejaVuSans-30" transform="translate(128.203125 39.046875) scale(0.7)"/>
      <use xlink:href="#DejaVuSans-2e" transform="translate(172.739258 39.046875) scale(0.7)"/>
      <use xlink:href="#DejaVuSans-36" transform="translate(194.990234 39.046875) scale(0.7)"/>
     </g>
    </g>
   </g>
   <g id="xtick_28">
    <g id="line2d_34">
     <path d="M 354.136273 74.79789 
L 355.96662 75.265514 
" style="fill: none; stroke: #000000; stroke-width: 0.8; stroke-linecap: square"/>
    </g>
    <g id="text_34">
     <!-- $10^{0.7}$ -->
     <g transform="translate(361.839629 80.169477) scale(0.1 -0.1)">
      <defs>
       <path id="DejaVuSans-37" d="M 525 4666 
L 3525 4666 
L 3525 4397 
L 1831 0 
L 1172 0 
L 2766 4134 
L 525 4134 
L 525 4666 
z
" transform="scale(0.015625)"/>
      </defs>
      <use xlink:href="#DejaVuSans-31" transform="translate(0 0.765625)"/>
      <use xlink:href="#DejaVuSans-30" transform="translate(63.623047 0.765625)"/>
      <use xlink:href="#DejaVuSans-30" transform="translate(128.203125 39.046875) scale(0.7)"/>
      <use xlink:href="#DejaVuSans-2e" transform="translate(172.739258 39.046875) scale(0.7)"/>
      <use xlink:href="#DejaVuSans-37" transform="translate(189.565234 39.046875) scale(0.7)"/>
     </g>
    </g>
   </g>
   <g id="text_35">
    <!-- elapsed -->
    <g transform="translate(395.576133 114.01016) rotate(-87.378092) scale(0.1 -0.1)">
     <use xlink:href="#DejaVuSans-65"/>
     <use xlink:href="#DejaVuSans-6c" x="61.523438"/>
     <use xlink:href="#DejaVuSans-61" x="89.306641"/>
     <use xlink:href="#DejaVuSans-70" x="150.585938"/>
     <use xlink:href="#DejaVuSans-73" x="214.0625"/>
     <use xlink:href="#DejaVuSans-65" x="266.162109"/>
     <use xlink:href="#DejaVuSans-64" x="327.685547"/>
    </g>
   </g>
  </g>
  <g id="axes_2">
   <g id="Poly3DCollection_3">
    <path d="M 275.474783 107.769318 
L 305.889149 116.694308 
L 314.474312 108.942926 
L 284.431162 100.341611 
z
" clip-path="url(#p13f6891cc6)" style="fill: #c30000"/>
    <path d="M 266.181867 115.476121 
L 296.974245 124.743407 
L 305.889149 116.694308 
L 275.474783 107.769318 
z
" clip-path="url(#p13f6891cc6)" style="fill: #c30000"/>
    <path d="M 305.889149 116.694308 
L 337.656416 126.016302 
L 345.828595 117.919617 
L 314.474312 108.942926 
z
" clip-path="url(#p13f6891cc6)" style="fill: #c30000"/>
    <path d="M 256.533083 123.478054 
L 287.710229 133.107713 
L 296.974245 124.743407 
L 266.181867 115.476121 
z
" clip-path="url(#p13f6891cc6)" style="fill: #c30000"/>
    <path d="M 296.974245 124.743407 
L 329.163239 134.43102 
L 337.656416 126.016302 
L 305.889149 116.694308 
z
" clip-path="url(#p13f6891cc6)" style="fill: #c30000"/>
    <path d="M 246.507589 131.792398 
L 278.076186 141.806109 
L 287.710229 133.107713 
L 256.533083 123.478054 
z
" clip-path="url(#p13f6891cc6)" style="fill: #c30000"/>
    <path d="M 287.710229 133.107713 
L 320.329772 143.182884 
L 329.163239 134.43102 
L 296.974245 124.743407 
z
" clip-path="url(#p13f6891cc6)" style="fill: #c30000"/>
    <path d="M 278.076186 141.806109 
L 311.135146 152.29257 
L 320.329772 143.182884 
L 287.710229 133.107713 
z
" clip-path="url(#p13f6891cc6)" style="fill: #c30000"/>
   </g>
   <g id="text_36">
    <!-- graph+logarithm -->
    <g transform="translate(243.651563 37.432941) scale(0.12 -0.12)">
     <defs>
      <path id="DejaVuSans-67" d="M 2906 1791 
Q 2906 2416 2648 2759 
Q 2391 3103 1925 3103 
Q 1463 3103 1205 2759 
Q 947 2416 947 1791 
Q 947 1169 1205 825 
Q 1463 481 1925 481 
Q 2391 481 2648 825 
Q 2906 1169 2906 1791 
z
M 3481 434 
Q 3481 -459 3084 -895 
Q 2688 -1331 1869 -1331 
Q 1566 -1331 1297 -1286 
Q 1028 -1241 775 -1147 
L 775 -588 
Q 1028 -725 1275 -790 
Q 1522 -856 1778 -856 
Q 2344 -856 2625 -561 
Q 2906 -266 2906 331 
L 2906 616 
Q 2728 306 2450 153 
Q 2172 0 1784 0 
Q 1141 0 747 490 
Q 353 981 353 1791 
Q 353 2603 747 3093 
Q 1141 3584 1784 3584 
Q 2172 3584 2450 3431 
Q 2728 3278 2906 2969 
L 2906 3500 
L 3481 3500 
L 3481 434 
z
" transform="scale(0.015625)"/>
      <path id="DejaVuSans-68" d="M 3513 2113 
L 3513 0 
L 2938 0 
L 2938 2094 
Q 2938 2591 2744 2837 
Q 2550 3084 2163 3084 
Q 1697 3084 1428 2787 
Q 1159 2491 1159 1978 
L 1159 0 
L 581 0 
L 581 4863 
L 1159 4863 
L 1159 2956 
Q 1366 3272 1645 3428 
Q 1925 3584 2291 3584 
Q 2894 3584 3203 3211 
Q 3513 2838 3513 2113 
z
" transform="scale(0.015625)"/>
      <path id="DejaVuSans-2b" d="M 2944 4013 
L 2944 2272 
L 4684 2272 
L 4684 1741 
L 2944 1741 
L 2944 0 
L 2419 0 
L 2419 1741 
L 678 1741 
L 678 2272 
L 2419 2272 
L 2419 4013 
L 2944 4013 
z
" transform="scale(0.015625)"/>
      <path id="DejaVuSans-6d" d="M 3328 2828 
Q 3544 3216 3844 3400 
Q 4144 3584 4550 3584 
Q 5097 3584 5394 3201 
Q 5691 2819 5691 2113 
L 5691 0 
L 5113 0 
L 5113 2094 
Q 5113 2597 4934 2840 
Q 4756 3084 4391 3084 
Q 3944 3084 3684 2787 
Q 3425 2491 3425 1978 
L 3425 0 
L 2847 0 
L 2847 2094 
Q 2847 2600 2669 2842 
Q 2491 3084 2119 3084 
Q 1678 3084 1418 2786 
Q 1159 2488 1159 1978 
L 1159 0 
L 581 0 
L 581 3500 
L 1159 3500 
L 1159 2956 
Q 1356 3278 1631 3431 
Q 1906 3584 2284 3584 
Q 2666 3584 2933 3390 
Q 3200 3197 3328 2828 
z
" transform="scale(0.015625)"/>
     </defs>
     <use xlink:href="#DejaVuSans-67"/>
     <use xlink:href="#DejaVuSans-72" x="63.476562"/>
     <use xlink:href="#DejaVuSans-61" x="104.589844"/>
     <use xlink:href="#DejaVuSans-70" x="165.869141"/>
     <use xlink:href="#DejaVuSans-68" x="229.345703"/>
     <use xlink:href="#DejaVuSans-2b" x="292.724609"/>
     <use xlink:href="#DejaVuSans-6c" x="376.513672"/>
     <use xlink:href="#DejaVuSans-6f" x="404.296875"/>
     <use xlink:href="#DejaVuSans-67" x="465.478516"/>
     <use xlink:href="#DejaVuSans-61" x="528.955078"/>
     <use xlink:href="#DejaVuSans-72" x="590.234375"/>
     <use xlink:href="#DejaVuSans-69" x="631.347656"/>
     <use xlink:href="#DejaVuSans-74" x="659.130859"/>
     <use xlink:href="#DejaVuSans-68" x="698.339844"/>
     <use xlink:href="#DejaVuSans-6d" x="761.71875"/>
    </g>
   </g>
   <g id="Poly3DCollection_4">
    <path d="M 275.474783 107.769318 
L 284.431162 100.341611 
L 314.474312 108.942926 
L 305.889149 116.694308 
z
" clip-path="url(#p13f6891cc6)" style="fill: #1c183d"/>
    <path d="M 275.474783 107.769318 
L 274.727028 65.032476 
L 284.00308 58.151524 
L 284.431162 100.341611 
z
" clip-path="url(#p13f6891cc6)" style="fill: #2e2866"/>
    <path d="M 305.828867 124.942908 
L 305.889149 116.694308 
L 314.474312 108.942926 
L 314.35815 117.091443 
z
" clip-path="url(#p13f6891cc6)" style="fill: #043f40"/>
    <path d="M 284.431162 100.341611 
L 284.00308 58.151524 
L 315.08477 66.120488 
L 314.474312 108.942926 
z
" clip-path="url(#p13f6891cc6)" style="fill: #161330"/>
    <path d="M 314.35815 117.091443 
L 314.474312 108.942926 
L 345.828595 117.919617 
L 345.497282 126.183859 
z
" clip-path="url(#p13f6891cc6)" style="fill: #021e1e"/>
    <path d="M 305.828867 124.942908 
L 314.35815 117.091443 
L 345.497282 126.183859 
L 337.375247 134.382665 
z
" clip-path="url(#p13f6891cc6)" style="fill: #032627"/>
    <path d="M 266.181867 115.476121 
L 275.474783 107.769318 
L 305.889149 116.694308 
L 296.974245 124.743407 
z
" clip-path="url(#p13f6891cc6)" style="fill: #67296d"/>
    <path d="M 305.889149 116.694308 
L 337.656416 126.016302 
L 345.828595 117.919617 
L 314.474312 108.942926 
z
" clip-path="url(#p13f6891cc6)" style="fill: #043738"/>
    <path d="M 266.181867 115.476121 
L 265.08201 71.861596 
L 274.721512 64.717251 
L 275.474783 107.769318 
z
" clip-path="url(#p13f6891cc6)" style="fill: #ab44b5"/>
    <path d="M 296.974245 133.093858 
L 296.974245 124.743407 
L 305.889149 116.694308 
L 305.828867 124.942908 
z
" clip-path="url(#p13f6891cc6)" style="fill: #c92fb3"/>
    <path d="M 275.474783 107.769318 
L 305.889149 116.694308 
L 306.206197 73.311969 
L 274.727028 65.032476 
z
" clip-path="url(#p13f6891cc6)" style="fill: #2e2866"/>
    <path d="M 275.474783 107.769318 
L 274.721512 64.717251 
L 306.208538 72.991739 
L 305.889149 116.694308 
z
" clip-path="url(#p13f6891cc6)" style="fill: #512055"/>
    <path d="M 305.828867 124.942908 
L 337.375247 134.382665 
L 337.656416 126.016302 
L 305.889149 116.694308 
z
" clip-path="url(#p13f6891cc6)" style="fill: #043f40"/>
    <path d="M 305.828867 124.942908 
L 305.889149 116.694308 
L 337.656416 126.016302 
L 337.375247 134.382665 
z
" clip-path="url(#p13f6891cc6)" style="fill: #5f1655"/>
    <path d="M 305.889149 116.694308 
L 314.474312 108.942926 
L 315.08477 66.120488 
L 306.206197 73.311969 
z
" clip-path="url(#p13f6891cc6)" style="fill: #161330"/>
    <path d="M 337.375247 134.382665 
L 345.497282 126.183859 
L 345.828595 117.919617 
L 337.656416 126.016302 
z
" clip-path="url(#p13f6891cc6)" style="fill: #021e1e"/>
    <path d="M 296.974245 133.093858 
L 305.828867 124.942908 
L 337.375247 134.382665 
L 328.93643 142.901246 
z
" clip-path="url(#p13f6891cc6)" style="fill: #791c6c"/>
    <path d="M 274.727028 65.032476 
L 306.206197 73.311969 
L 315.08477 66.120488 
L 284.00308 58.151524 
z
" clip-path="url(#p13f6891cc6)" style="fill: #282358"/>
    <path d="M 256.533083 123.478054 
L 266.181867 115.476121 
L 296.974245 124.743407 
L 287.710229 133.107713 
z
" clip-path="url(#p13f6891cc6)" style="fill: #7a1f55"/>
    <path d="M 296.974245 124.743407 
L 329.163239 134.43102 
L 337.656416 126.016302 
L 305.889149 116.694308 
z
" clip-path="url(#p13f6891cc6)" style="fill: #ae299c"/>
    <path d="M 256.533083 123.478054 
L 255.059919 79.289497 
L 265.08201 71.861596 
L 266.181867 115.476121 
z
" clip-path="url(#p13f6891cc6)" style="fill: #ca338d"/>
    <path d="M 287.775309 141.561759 
L 287.710229 133.107713 
L 296.974245 124.743407 
L 296.974245 133.093858 
z
" clip-path="url(#p13f6891cc6)" style="fill: #28bdbc"/>
    <path d="M 266.181867 115.476121 
L 265.08201 71.861596 
L 296.974245 80.46501 
L 296.974245 124.743407 
z
" clip-path="url(#p13f6891cc6)" style="fill: #5f1842"/>
    <path d="M 266.181867 115.476121 
L 296.974245 124.743407 
L 296.974245 80.46501 
L 265.08201 71.861596 
z
" clip-path="url(#p13f6891cc6)" style="fill: #ab44b5"/>
    <path d="M 296.974245 133.093858 
L 296.974245 124.743407 
L 329.163239 134.43102 
L 328.93643 142.901246 
z
" clip-path="url(#p13f6891cc6)" style="fill: #135959"/>
    <path d="M 296.974245 133.093858 
L 328.93643 142.901246 
L 329.163239 134.43102 
L 296.974245 124.743407 
z
" clip-path="url(#p13f6891cc6)" style="fill: #c92fb3"/>
    <path d="M 296.974245 124.743407 
L 305.889149 116.694308 
L 306.208538 72.991739 
L 296.974245 80.46501 
z
" clip-path="url(#p13f6891cc6)" style="fill: #512055"/>
    <path d="M 328.93643 142.901246 
L 337.375247 134.382665 
L 337.656416 126.016302 
L 329.163239 134.43102 
z
" clip-path="url(#p13f6891cc6)" style="fill: #5f1655"/>
    <path d="M 287.775309 141.561759 
L 296.974245 133.093858 
L 328.93643 142.901246 
L 320.161932 151.758683 
z
" clip-path="url(#p13f6891cc6)" style="fill: #187271"/>
    <path d="M 265.08201 71.861596 
L 296.974245 80.46501 
L 306.208538 72.991739 
L 274.721512 64.717251 
z
" clip-path="url(#p13f6891cc6)" style="fill: #953b9d"/>
    <path d="M 246.507589 131.792398 
L 256.533083 123.478054 
L 287.710229 133.107713 
L 278.076186 141.806109 
z
" clip-path="url(#p13f6891cc6)" style="fill: #4d4c13"/>
    <path d="M 287.710229 133.107713 
L 320.329772 143.182884 
L 329.163239 134.43102 
L 296.974245 124.743407 
z
" clip-path="url(#p13f6891cc6)" style="fill: #23a4a3"/>
    <path d="M 246.507589 131.792398 
L 244.62875 86.940508 
L 255.057366 79.212898 
L 256.533083 123.478054 
z
" clip-path="url(#p13f6891cc6)" style="fill: #807e20"/>
    <path d="M 278.194361 149.277095 
L 278.076186 141.806109 
L 287.710229 133.107713 
L 287.767032 140.486647 
z
" clip-path="url(#p13f6891cc6)" style="fill: #7e6ca6"/>
    <path d="M 256.533083 123.478054 
L 287.710229 133.107713 
L 287.364852 88.241848 
L 255.059919 79.289497 
z
" clip-path="url(#p13f6891cc6)" style="fill: #ca338d"/>
    <path d="M 256.533083 123.478054 
L 255.057366 79.212898 
L 287.364252 88.164011 
L 287.710229 133.107713 
z
" clip-path="url(#p13f6891cc6)" style="fill: #3c3c0f"/>
    <path d="M 287.775309 141.561759 
L 320.161932 151.758683 
L 320.329772 143.182884 
L 287.710229 133.107713 
z
" clip-path="url(#p13f6891cc6)" style="fill: #28bdbc"/>
    <path d="M 287.767032 140.486647 
L 287.710229 133.107713 
L 320.329772 143.182884 
L 320.183274 150.668242 
z
" clip-path="url(#p13f6891cc6)" style="fill: #3b334e"/>
    <path d="M 287.710229 133.107713 
L 296.974245 124.743407 
L 296.974245 80.46501 
L 287.364852 88.241848 
z
" clip-path="url(#p13f6891cc6)" style="fill: #5f1842"/>
    <path d="M 320.161932 151.758683 
L 328.93643 142.901246 
L 329.163239 134.43102 
L 320.329772 143.182884 
z
" clip-path="url(#p13f6891cc6)" style="fill: #135959"/>
    <path d="M 255.059919 79.289497 
L 287.364852 88.241848 
L 296.974245 80.46501 
L 265.08201 71.861596 
z
" clip-path="url(#p13f6891cc6)" style="fill: #b02c7a"/>
    <path d="M 278.194361 149.277095 
L 287.767032 140.486647 
L 320.183274 150.668242 
L 311.044517 159.871669 
z
" clip-path="url(#p13f6891cc6)" style="fill: #4c4164"/>
    <path d="M 278.076186 141.806109 
L 311.135146 152.29257 
L 320.329772 143.182884 
L 287.710229 133.107713 
z
" clip-path="url(#p13f6891cc6)" style="fill: #6d5e90"/>
    <path d="M 246.507589 131.792398 
L 278.076186 141.806109 
L 277.355781 96.262198 
L 244.62875 86.940508 
z
" clip-path="url(#p13f6891cc6)" style="fill: #807e20"/>
    <path d="M 278.194361 149.277095 
L 311.044517 159.871669 
L 311.135146 152.29257 
L 278.076186 141.806109 
z
" clip-path="url(#p13f6891cc6)" style="fill: #7e6ca6"/>
    <path d="M 278.076186 141.806109 
L 287.710229 133.107713 
L 287.364252 88.164011 
L 277.355781 96.262198 
z
" clip-path="url(#p13f6891cc6)" style="fill: #3c3c0f"/>
    <path d="M 311.044517 159.871669 
L 320.183274 150.668242 
L 320.329772 143.182884 
L 311.135146 152.29257 
z
" clip-path="url(#p13f6891cc6)" style="fill: #3b334e"/>
    <path d="M 244.62875 86.940508 
L 277.355781 96.262198 
L 287.364252 88.164011 
L 255.057366 79.212898 
z
" clip-path="url(#p13f6891cc6)" style="fill: #6f6e1c"/>
   </g>
  </g>
  <g id="patch_10">
   <path d="M 387.105882 174.727059 
L 518.4 174.727059 
L 518.4 43.432941 
L 387.105882 43.432941 
z
" style="fill: #ffffff"/>
  </g>
  <g id="pane3d_7">
   <g id="patch_11">
    <path d="M 397.019494 142.354137 
L 440.377099 106.010932 
L 439.774387 53.597534 
L 394.341896 86.752097 
" style="fill: #f2f2f2; opacity: 0.5; stroke: #f2f2f2; stroke-linejoin: miter"/>
   </g>
  </g>
  <g id="pane3d_8">
   <g id="patch_12">
    <path d="M 440.377099 106.010932 
L 509.950586 126.233198 
L 512.433418 72.014481 
L 439.774387 53.597534 
" style="fill: #e6e6e6; opacity: 0.5; stroke: #e6e6e6; stroke-linejoin: miter"/>
   </g>
  </g>
  <g id="pane3d_9">
   <g id="patch_13">
    <path d="M 397.019494 142.354137 
L 470.770788 166.44131 
L 509.950586 126.233198 
L 440.377099 106.010932 
" style="fill: #ececec; opacity: 0.5; stroke: #ececec; stroke-linejoin: miter"/>
   </g>
  </g>
  <g id="grid3d_7">
   <g id="Line3DCollection_7">
    <path d="M 401.486259 143.812983 
L 444.608346 107.240789 
L 444.184534 54.715378 
" style="fill: none; stroke: #b0b0b0; stroke-width: 0.8"/>
    <path d="M 432.922987 154.080218 
L 474.323502 115.877812 
L 475.18797 62.573845 
" style="fill: none; stroke: #b0b0b0; stroke-width: 0.8"/>
   </g>
  </g>
  <g id="grid3d_8">
   <g id="Line3DCollection_8">
    <path d="M 397.483666 84.459376 
L 400.007199 139.849783 
L 473.481727 163.659219 
" style="fill: none; stroke: #b0b0b0; stroke-width: 0.8"/>
    <path d="M 407.979988 76.799639 
L 410.000179 131.473469 
L 482.537009 154.366272 
" style="fill: none; stroke: #b0b0b0; stroke-width: 0.8"/>
    <path d="M 418.06877 69.437305 
L 419.621689 123.408529 
L 491.238266 145.436641 
" style="fill: none; stroke: #b0b0b0; stroke-width: 0.8"/>
    <path d="M 427.773295 62.355385 
L 428.892063 115.637918 
L 499.605861 136.849431 
" style="fill: none; stroke: #b0b0b0; stroke-width: 0.8"/>
   </g>
  </g>
  <g id="grid3d_9">
   <g id="Line3DCollection_9">
    <path d="M 509.994429 125.275788 
L 440.366434 105.08348 
L 396.97229 141.373925 
" style="fill: none; stroke: #b0b0b0; stroke-width: 0.8"/>
    <path d="M 510.251075 119.671278 
L 440.304019 99.655724 
L 396.695912 135.634765 
" style="fill: none; stroke: #b0b0b0; stroke-width: 0.8"/>
    <path d="M 510.510108 114.014663 
L 440.241052 94.17991 
L 396.416868 129.840219 
" style="fill: none; stroke: #b0b0b0; stroke-width: 0.8"/>
    <path d="M 510.771561 108.305212 
L 440.177524 88.655396 
L 396.135117 123.989484 
" style="fill: none; stroke: #b0b0b0; stroke-width: 0.8"/>
    <path d="M 511.035466 102.542182 
L 440.113429 83.08153 
L 395.850621 118.081737 
" style="fill: none; stroke: #b0b0b0; stroke-width: 0.8"/>
    <path d="M 511.30186 96.724816 
L 440.048759 77.457647 
L 395.563339 112.116141 
" style="fill: none; stroke: #b0b0b0; stroke-width: 0.8"/>
    <path d="M 511.570778 90.852341 
L 439.983506 71.783072 
L 395.27323 106.091842 
" style="fill: none; stroke: #b0b0b0; stroke-width: 0.8"/>
    <path d="M 511.842255 84.92397 
L 439.917662 66.057115 
L 394.980252 100.00797 
" style="fill: none; stroke: #b0b0b0; stroke-width: 0.8"/>
    <path d="M 512.116329 78.938901 
L 439.851219 60.279076 
L 394.684363 93.863636 
" style="fill: none; stroke: #b0b0b0; stroke-width: 0.8"/>
    <path d="M 512.393037 72.896318 
L 439.784169 54.448241 
L 394.385518 87.657934 
" style="fill: none; stroke: #b0b0b0; stroke-width: 0.8"/>
   </g>
  </g>
  <g id="axis3d_7">
   <g id="line2d_35">
    <path d="M 397.019494 142.354137 
L 470.770788 166.44131 
" style="fill: none; stroke: #000000; stroke-width: 0.8; stroke-linecap: square"/>
   </g>
   <g id="xtick_29">
    <g id="line2d_36">
     <path d="M 401.861764 143.494514 
L 400.733638 144.451286 
" style="fill: none; stroke: #000000; stroke-width: 0.8; stroke-linecap: square"/>
    </g>
    <g id="text_37">
     <!-- 0.05 -->
     <g transform="translate(382.795548 167.18233) scale(0.1 -0.1)">
      <use xlink:href="#DejaVuSans-30"/>
      <use xlink:href="#DejaVuSans-2e" x="63.623047"/>
      <use xlink:href="#DejaVuSans-30" x="95.410156"/>
      <use xlink:href="#DejaVuSans-35" x="159.033203"/>
     </g>
    </g>
   </g>
   <g id="xtick_30">
    <g id="line2d_37">
     <path d="M 433.284174 153.746932 
L 432.199027 154.748253 
" style="fill: none; stroke: #000000; stroke-width: 0.8; stroke-linecap: square"/>
    </g>
    <g id="text_38">
     <!-- 0.1 -->
     <g transform="translate(417.481564 177.894679) scale(0.1 -0.1)">
      <use xlink:href="#DejaVuSans-30"/>
      <use xlink:href="#DejaVuSans-2e" x="63.623047"/>
      <use xlink:href="#DejaVuSans-31" x="95.410156"/>
     </g>
    </g>
   </g>
   <g id="text_39">
    <!-- support -->
    <g transform="translate(397.386452 186.318757) rotate(-341.912962) scale(0.1 -0.1)">
     <use xlink:href="#DejaVuSans-73"/>
     <use xlink:href="#DejaVuSans-75" x="52.099609"/>
     <use xlink:href="#DejaVuSans-70" x="115.478516"/>
     <use xlink:href="#DejaVuSans-70" x="178.955078"/>
     <use xlink:href="#DejaVuSans-6f" x="242.431641"/>
     <use xlink:href="#DejaVuSans-72" x="303.613281"/>
     <use xlink:href="#DejaVuSans-74" x="344.726562"/>
    </g>
   </g>
  </g>
  <g id="axis3d_8">
   <g id="line2d_38">
    <path d="M 509.950586 126.233198 
L 470.770788 166.44131 
" style="fill: none; stroke: #000000; stroke-width: 0.8; stroke-linecap: square"/>
   </g>
   <g id="xtick_31">
    <g id="line2d_39">
     <path d="M 472.862555 163.458577 
L 474.721672 164.061024 
" style="fill: none; stroke: #000000; stroke-width: 0.8; stroke-linecap: square"/>
    </g>
    <g id="text_40">
     <!-- 1000 -->
     <g transform="translate(473.645285 184.689208) scale(0.1 -0.1)">
      <use xlink:href="#DejaVuSans-31"/>
      <use xlink:href="#DejaVuSans-30" x="63.623047"/>
      <use xlink:href="#DejaVuSans-30" x="127.246094"/>
      <use xlink:href="#DejaVuSans-30" x="190.869141"/>
     </g>
    </g>
   </g>
   <g id="xtick_32">
    <g id="line2d_40">
     <path d="M 481.926357 154.173548 
L 483.759863 154.752207 
" style="fill: none; stroke: #000000; stroke-width: 0.8; stroke-linecap: square"/>
    </g>
    <g id="text_41">
     <!-- 2000 -->
     <g transform="translate(482.45407 175.117086) scale(0.1 -0.1)">
      <use xlink:href="#DejaVuSans-32"/>
      <use xlink:href="#DejaVuSans-30" x="63.623047"/>
      <use xlink:href="#DejaVuSans-30" x="127.246094"/>
      <use xlink:href="#DejaVuSans-30" x="190.869141"/>
     </g>
    </g>
   </g>
   <g id="xtick_33">
    <g id="line2d_41">
     <path d="M 490.635946 145.251378 
L 492.444403 145.80763 
" style="fill: none; stroke: #000000; stroke-width: 0.8; stroke-linecap: square"/>
    </g>
    <g id="text_42">
     <!-- 5000 -->
     <g transform="translate(490.918064 165.919634) scale(0.1 -0.1)">
      <use xlink:href="#DejaVuSans-35"/>
      <use xlink:href="#DejaVuSans-30" x="63.623047"/>
      <use xlink:href="#DejaVuSans-30" x="127.246094"/>
      <use xlink:href="#DejaVuSans-30" x="190.869141"/>
     </g>
    </g>
   </g>
   <g id="xtick_34">
    <g id="line2d_42">
     <path d="M 499.01169 136.671202 
L 500.795651 137.206324 
" style="fill: none; stroke: #000000; stroke-width: 0.8; stroke-linecap: square"/>
    </g>
    <g id="text_43">
     <!-- 10000 -->
     <g transform="translate(495.875873 157.075275) scale(0.1 -0.1)">
      <use xlink:href="#DejaVuSans-31"/>
      <use xlink:href="#DejaVuSans-30" x="63.623047"/>
      <use xlink:href="#DejaVuSans-30" x="127.246094"/>
      <use xlink:href="#DejaVuSans-30" x="190.869141"/>
      <use xlink:href="#DejaVuSans-30" x="254.492188"/>
     </g>
    </g>
   </g>
   <g id="text_44">
    <!-- window -->
    <g transform="translate(506.979859 188.99679) rotate(-45.742112) scale(0.1 -0.1)">
     <use xlink:href="#DejaVuSans-77"/>
     <use xlink:href="#DejaVuSans-69" x="81.787109"/>
     <use xlink:href="#DejaVuSans-6e" x="109.570312"/>
     <use xlink:href="#DejaVuSans-64" x="172.949219"/>
     <use xlink:href="#DejaVuSans-6f" x="236.425781"/>
     <use xlink:href="#DejaVuSans-77" x="297.607422"/>
    </g>
   </g>
  </g>
  <g id="axis3d_9">
   <g id="line2d_43">
    <path d="M 509.950586 126.233198 
L 512.433418 72.014481 
" style="fill: none; stroke: #000000; stroke-width: 0.8; stroke-linecap: square"/>
   </g>
   <g id="xtick_35">
    <g id="line2d_44">
     <path d="M 509.410036 125.106313 
L 511.164604 125.615142 
" style="fill: none; stroke: #000000; stroke-width: 0.8; stroke-linecap: square"/>
    </g>
    <g id="text_45">
     <!-- $10^{-0.1}$ -->
     <g transform="translate(513.151097 130.280987) scale(0.1 -0.1)">
      <use xlink:href="#DejaVuSans-31" transform="translate(0 0.765625)"/>
      <use xlink:href="#DejaVuSans-30" transform="translate(63.623047 0.765625)"/>
      <use xlink:href="#DejaVuSans-2212" transform="translate(128.203125 39.046875) scale(0.7)"/>
      <use xlink:href="#DejaVuSans-30" transform="translate(186.855469 39.046875) scale(0.7)"/>
      <use xlink:href="#DejaVuSans-2e" transform="translate(231.391602 39.046875) scale(0.7)"/>
      <use xlink:href="#DejaVuSans-31" transform="translate(253.642578 39.046875) scale(0.7)"/>
     </g>
    </g>
   </g>
   <g id="xtick_36">
    <g id="line2d_45">
     <path d="M 509.663878 119.50325 
L 511.426874 120.007736 
" style="fill: none; stroke: #000000; stroke-width: 0.8; stroke-linecap: square"/>
    </g>
    <g id="text_46">
     <!-- $10^{0.0}$ -->
     <g transform="translate(516.389909 124.698687) scale(0.1 -0.1)">
      <use xlink:href="#DejaVuSans-31" transform="translate(0 0.765625)"/>
      <use xlink:href="#DejaVuSans-30" transform="translate(63.623047 0.765625)"/>
      <use xlink:href="#DejaVuSans-30" transform="translate(128.203125 39.046875) scale(0.7)"/>
      <use xlink:href="#DejaVuSans-2e" transform="translate(172.739258 39.046875) scale(0.7)"/>
      <use xlink:href="#DejaVuSans-30" transform="translate(194.990234 39.046875) scale(0.7)"/>
     </g>
    </g>
   </g>
   <g id="xtick_37">
    <g id="line2d_46">
     <path d="M 509.920079 113.848116 
L 511.691585 114.348156 
" style="fill: none; stroke: #000000; stroke-width: 0.8; stroke-linecap: square"/>
    </g>
    <g id="text_47">
     <!-- $10^{0.1}$ -->
     <g transform="translate(516.731853 119.064806) scale(0.1 -0.1)">
      <use xlink:href="#DejaVuSans-31" transform="translate(0 0.765625)"/>
      <use xlink:href="#DejaVuSans-30" transform="translate(63.623047 0.765625)"/>
      <use xlink:href="#DejaVuSans-30" transform="translate(128.203125 39.046875) scale(0.7)"/>
      <use xlink:href="#DejaVuSans-2e" transform="translate(172.739258 39.046875) scale(0.7)"/>
      <use xlink:href="#DejaVuSans-31" transform="translate(194.990234 39.046875) scale(0.7)"/>
     </g>
    </g>
   </g>
   <g id="xtick_38">
    <g id="line2d_47">
     <path d="M 510.178672 108.140182 
L 511.958769 108.635671 
" style="fill: none; stroke: #000000; stroke-width: 0.8; stroke-linecap: square"/>
    </g>
    <g id="text_48">
     <!-- $10^{0.2}$ -->
     <g transform="translate(517.27697 113.378626) scale(0.1 -0.1)">
      <use xlink:href="#DejaVuSans-31" transform="translate(0 0.765625)"/>
      <use xlink:href="#DejaVuSans-30" transform="translate(63.623047 0.765625)"/>
      <use xlink:href="#DejaVuSans-30" transform="translate(128.203125 39.046875) scale(0.7)"/>
      <use xlink:href="#DejaVuSans-2e" transform="translate(172.739258 39.046875) scale(0.7)"/>
      <use xlink:href="#DejaVuSans-32" transform="translate(191.140234 39.046875) scale(0.7)"/>
     </g>
    </g>
   </g>
   <g id="xtick_39">
    <g id="line2d_48">
     <path d="M 510.43969 102.378704 
L 512.228464 102.869535 
" style="fill: none; stroke: #000000; stroke-width: 0.8; stroke-linecap: square"/>
    </g>
    <g id="text_49">
     <!-- $10^{0.3}$ -->
     <g transform="translate(517.425307 107.639415) scale(0.1 -0.1)">
      <use xlink:href="#DejaVuSans-31" transform="translate(0 0.765625)"/>
      <use xlink:href="#DejaVuSans-30" transform="translate(63.623047 0.765625)"/>
      <use xlink:href="#DejaVuSans-30" transform="translate(128.203125 39.046875) scale(0.7)"/>
      <use xlink:href="#DejaVuSans-2e" transform="translate(172.739258 39.046875) scale(0.7)"/>
      <use xlink:href="#DejaVuSans-33" transform="translate(194.990234 39.046875) scale(0.7)"/>
     </g>
    </g>
   </g>
   <g id="xtick_40">
    <g id="line2d_49">
     <path d="M 510.703169 96.562927 
L 512.500703 97.048988 
" style="fill: none; stroke: #000000; stroke-width: 0.8; stroke-linecap: square"/>
    </g>
    <g id="text_50">
     <!-- $10^{0.4}$ -->
     <g transform="translate(517.776907 101.846428) scale(0.1 -0.1)">
      <use xlink:href="#DejaVuSans-31" transform="translate(0 0.765625)"/>
      <use xlink:href="#DejaVuSans-30" transform="translate(63.623047 0.765625)"/>
      <use xlink:href="#DejaVuSans-30" transform="translate(128.203125 39.046875) scale(0.7)"/>
      <use xlink:href="#DejaVuSans-2e" transform="translate(172.739258 39.046875) scale(0.7)"/>
      <use xlink:href="#DejaVuSans-34" transform="translate(194.990234 39.046875) scale(0.7)"/>
     </g>
    </g>
   </g>
   <g id="xtick_41">
    <g id="line2d_50">
     <path d="M 510.969142 90.692078 
L 512.775523 91.173258 
" style="fill: none; stroke: #000000; stroke-width: 0.8; stroke-linecap: square"/>
    </g>
    <g id="text_51">
     <!-- $10^{0.5}$ -->
     <g transform="translate(518.131817 95.998904) scale(0.1 -0.1)">
      <use xlink:href="#DejaVuSans-31" transform="translate(0 0.765625)"/>
      <use xlink:href="#DejaVuSans-30" transform="translate(63.623047 0.765625)"/>
      <use xlink:href="#DejaVuSans-30" transform="translate(128.203125 39.046875) scale(0.7)"/>
      <use xlink:href="#DejaVuSans-2e" transform="translate(172.739258 39.046875) scale(0.7)"/>
      <use xlink:href="#DejaVuSans-35" transform="translate(194.990234 39.046875) scale(0.7)"/>
     </g>
    </g>
   </g>
   <g id="xtick_42">
    <g id="line2d_51">
     <path d="M 511.237646 84.765372 
L 513.052961 85.241555 
" style="fill: none; stroke: #000000; stroke-width: 0.8; stroke-linecap: square"/>
    </g>
    <g id="text_52">
     <!-- $10^{0.6}$ -->
     <g transform="translate(518.490084 90.096072) scale(0.1 -0.1)">
      <use xlink:href="#DejaVuSans-31" transform="translate(0 0.765625)"/>
      <use xlink:href="#DejaVuSans-30" transform="translate(63.623047 0.765625)"/>
      <use xlink:href="#DejaVuSans-30" transform="translate(128.203125 39.046875) scale(0.7)"/>
      <use xlink:href="#DejaVuSans-2e" transform="translate(172.739258 39.046875) scale(0.7)"/>
      <use xlink:href="#DejaVuSans-36" transform="translate(194.990234 39.046875) scale(0.7)"/>
     </g>
    </g>
   </g>
   <g id="xtick_43">
    <g id="line2d_52">
     <path d="M 511.508717 78.782008 
L 513.333055 79.253076 
" style="fill: none; stroke: #000000; stroke-width: 0.8; stroke-linecap: square"/>
    </g>
    <g id="text_53">
     <!-- $10^{0.7}$ -->
     <g transform="translate(519.151756 84.137141) scale(0.1 -0.1)">
      <use xlink:href="#DejaVuSans-31" transform="translate(0 0.765625)"/>
      <use xlink:href="#DejaVuSans-30" transform="translate(63.623047 0.765625)"/>
      <use xlink:href="#DejaVuSans-30" transform="translate(128.203125 39.046875) scale(0.7)"/>
      <use xlink:href="#DejaVuSans-2e" transform="translate(172.739258 39.046875) scale(0.7)"/>
      <use xlink:href="#DejaVuSans-37" transform="translate(189.565234 39.046875) scale(0.7)"/>
     </g>
    </g>
   </g>
   <g id="xtick_44">
    <g id="line2d_53">
     <path d="M 511.782392 72.741169 
L 513.615842 73.207002 
" style="fill: none; stroke: #000000; stroke-width: 0.8; stroke-linecap: square"/>
    </g>
    <g id="text_54">
     <!-- $10^{0.8}$ -->
     <g transform="translate(519.316882 78.121309) scale(0.1 -0.1)">
      <defs>
       <path id="DejaVuSans-38" d="M 2034 2216 
Q 1584 2216 1326 1975 
Q 1069 1734 1069 1313 
Q 1069 891 1326 650 
Q 1584 409 2034 409 
Q 2484 409 2743 651 
Q 3003 894 3003 1313 
Q 3003 1734 2745 1975 
Q 2488 2216 2034 2216 
z
M 1403 2484 
Q 997 2584 770 2862 
Q 544 3141 544 3541 
Q 544 4100 942 4425 
Q 1341 4750 2034 4750 
Q 2731 4750 3128 4425 
Q 3525 4100 3525 3541 
Q 3525 3141 3298 2862 
Q 3072 2584 2669 2484 
Q 3125 2378 3379 2068 
Q 3634 1759 3634 1313 
Q 3634 634 3220 271 
Q 2806 -91 2034 -91 
Q 1263 -91 848 271 
Q 434 634 434 1313 
Q 434 1759 690 2068 
Q 947 2378 1403 2484 
z
M 1172 3481 
Q 1172 3119 1398 2916 
Q 1625 2713 2034 2713 
Q 2441 2713 2670 2916 
Q 2900 3119 2900 3481 
Q 2900 3844 2670 4047 
Q 2441 4250 2034 4250 
Q 1625 4250 1398 4047 
Q 1172 3844 1172 3481 
z
" transform="scale(0.015625)"/>
      </defs>
      <use xlink:href="#DejaVuSans-31" transform="translate(0 0.765625)"/>
      <use xlink:href="#DejaVuSans-30" transform="translate(63.623047 0.765625)"/>
      <use xlink:href="#DejaVuSans-30" transform="translate(128.203125 39.046875) scale(0.7)"/>
      <use xlink:href="#DejaVuSans-2e" transform="translate(172.739258 39.046875) scale(0.7)"/>
      <use xlink:href="#DejaVuSans-38" transform="translate(193.152734 39.046875) scale(0.7)"/>
     </g>
    </g>
   </g>
   <g id="text_55">
    <!-- elapsed -->
    <g transform="translate(553.129074 114.01016) rotate(-87.378092) scale(0.1 -0.1)">
     <use xlink:href="#DejaVuSans-65"/>
     <use xlink:href="#DejaVuSans-6c" x="61.523438"/>
     <use xlink:href="#DejaVuSans-61" x="89.306641"/>
     <use xlink:href="#DejaVuSans-70" x="150.585938"/>
     <use xlink:href="#DejaVuSans-73" x="214.0625"/>
     <use xlink:href="#DejaVuSans-65" x="266.162109"/>
     <use xlink:href="#DejaVuSans-64" x="327.685547"/>
    </g>
   </g>
  </g>
  <g id="axes_3">
   <g id="Poly3DCollection_5">
    <path d="M 433.074776 110.458464 
L 463.422157 119.421876 
L 471.988845 111.637174 
L 442.011058 102.998131 
z
" clip-path="url(#pf44e83d237)" style="fill: #c30000"/>
    <path d="M 423.80346 118.198495 
L 454.527186 127.504894 
L 463.422157 119.421876 
L 433.074776 110.458464 
z
" clip-path="url(#pf44e83d237)" style="fill: #c30000"/>
    <path d="M 463.422157 119.421876 
L 495.116373 128.783089 
L 503.271979 120.652393 
L 471.988845 111.637174 
z
" clip-path="url(#pf44e83d237)" style="fill: #c30000"/>
    <path d="M 414.17791 126.234254 
L 445.284694 135.903711 
L 454.527186 127.504894 
L 423.80346 118.198495 
z
" clip-path="url(#pf44e83d237)" style="fill: #c30000"/>
    <path d="M 454.527186 127.504894 
L 486.641167 137.23241 
L 495.116373 128.783089 
L 463.422157 119.421876 
z
" clip-path="url(#pf44e83d237)" style="fill: #c30000"/>
    <path d="M 404.177429 134.583019 
L 435.673909 144.637203 
L 445.284694 135.903711 
L 414.17791 126.234254 
z
" clip-path="url(#pf44e83d237)" style="fill: #c30000"/>
    <path d="M 445.284694 135.903711 
L 477.827197 146.019458 
L 486.641167 137.23241 
L 454.527186 127.504894 
z
" clip-path="url(#pf44e83d237)" style="fill: #c30000"/>
    <path d="M 435.673909 144.637203 
L 468.65374 155.164896 
L 477.827197 146.019458 
L 445.284694 135.903711 
z
" clip-path="url(#pf44e83d237)" style="fill: #c30000"/>
   </g>
   <g id="text_56">
    <!-- graph -->
    <g transform="translate(435.188879 37.432941) scale(0.12 -0.12)">
     <use xlink:href="#DejaVuSans-67"/>
     <use xlink:href="#DejaVuSans-72" x="63.476562"/>
     <use xlink:href="#DejaVuSans-61" x="104.589844"/>
     <use xlink:href="#DejaVuSans-70" x="165.869141"/>
     <use xlink:href="#DejaVuSans-68" x="229.345703"/>
    </g>
   </g>
   <g id="Poly3DCollection_6">
    <path d="M 433.074776 110.458464 
L 442.011058 102.998131 
L 471.988845 111.637174 
L 463.422157 119.421876 
z
" clip-path="url(#pf44e83d237)" style="fill: #797b80"/>
    <path d="M 433.074776 110.458464 
L 432.29522 65.90414 
L 441.564747 59.011505 
L 442.011058 102.998131 
z
" clip-path="url(#pf44e83d237)" style="fill: #c8cbd4"/>
    <path d="M 463.385328 124.46127 
L 463.422157 119.421876 
L 471.988845 111.637174 
L 471.917875 116.615592 
z
" clip-path="url(#pf44e83d237)" style="fill: #b0171c"/>
    <path d="M 442.011058 102.998131 
L 441.564747 59.011505 
L 472.625259 66.993982 
L 471.988845 111.637174 
z
" clip-path="url(#pf44e83d237)" style="fill: #5f6064"/>
    <path d="M 471.917875 116.615592 
L 471.988845 111.637174 
L 503.271979 120.652393 
L 503.069568 125.701316 
z
" clip-path="url(#pf44e83d237)" style="fill: #530b0d"/>
    <path d="M 463.385328 124.46127 
L 471.917875 116.615592 
L 503.069568 125.701316 
L 494.944603 133.89422 
z
" clip-path="url(#pf44e83d237)" style="fill: #6a0e11"/>
    <path d="M 423.80346 118.198495 
L 433.074776 110.458464 
L 463.422157 119.421876 
L 454.527186 127.504894 
z
" clip-path="url(#pf44e83d237)" style="fill: #6e153d"/>
    <path d="M 463.422157 119.421876 
L 495.116373 128.783089 
L 503.271979 120.652393 
L 471.988845 111.637174 
z
" clip-path="url(#pf44e83d237)" style="fill: #991418"/>
    <path d="M 423.80346 118.198495 
L 422.668746 73.201736 
L 432.297584 66.039264 
L 433.074776 110.458464 
z
" clip-path="url(#pf44e83d237)" style="fill: #b62366"/>
    <path d="M 454.527186 133.093858 
L 454.527186 127.504894 
L 463.422157 119.421876 
L 463.381808 124.942908 
z
" clip-path="url(#pf44e83d237)" style="fill: #424b49"/>
    <path d="M 433.074776 110.458464 
L 432.297584 66.039264 
L 463.751664 74.33472 
L 463.422157 119.421876 
z
" clip-path="url(#pf44e83d237)" style="fill: #561030"/>
    <path d="M 433.074776 110.458464 
L 463.422157 119.421876 
L 463.752667 74.197454 
L 432.29522 65.90414 
z
" clip-path="url(#pf44e83d237)" style="fill: #c8cbd4"/>
    <path d="M 463.381808 124.942908 
L 463.422157 119.421876 
L 495.116373 128.783089 
L 494.928188 134.382665 
z
" clip-path="url(#pf44e83d237)" style="fill: #1f2322"/>
    <path d="M 463.385328 124.46127 
L 494.944603 133.89422 
L 495.116373 128.783089 
L 463.422157 119.421876 
z
" clip-path="url(#pf44e83d237)" style="fill: #b0171c"/>
    <path d="M 463.422157 119.421876 
L 471.988845 111.637174 
L 472.625259 66.993982 
L 463.752667 74.197454 
z
" clip-path="url(#pf44e83d237)" style="fill: #5f6064"/>
    <path d="M 494.944603 133.89422 
L 503.069568 125.701316 
L 503.271979 120.652393 
L 495.116373 128.783089 
z
" clip-path="url(#pf44e83d237)" style="fill: #530b0d"/>
    <path d="M 432.29522 65.90414 
L 463.752667 74.197454 
L 472.625259 66.993982 
L 441.564747 59.011505 
z
" clip-path="url(#pf44e83d237)" style="fill: #aeb0b8"/>
    <path d="M 454.527186 133.093858 
L 463.381808 124.942908 
L 494.928188 134.382665 
L 486.489372 142.901246 
z
" clip-path="url(#pf44e83d237)" style="fill: #282d2c"/>
    <path d="M 414.17791 126.234254 
L 423.80346 118.198495 
L 454.527186 127.504894 
L 445.284694 135.903711 
z
" clip-path="url(#pf44e83d237)" style="fill: #2d0966"/>
    <path d="M 454.527186 127.504894 
L 486.641167 137.23241 
L 495.116373 128.783089 
L 463.422157 119.421876 
z
" clip-path="url(#pf44e83d237)" style="fill: #39413f"/>
    <path d="M 414.17791 126.234254 
L 412.639628 80.092422 
L 422.654922 72.653558 
L 423.80346 118.198495 
z
" clip-path="url(#pf44e83d237)" style="fill: #4b0fa9"/>
    <path d="M 445.324686 141.098818 
L 445.284694 135.903711 
L 454.527186 127.504894 
L 454.527186 132.636531 
z
" clip-path="url(#pf44e83d237)" style="fill: #463473"/>
    <path d="M 423.80346 118.198495 
L 454.527186 127.504894 
L 454.527186 81.826594 
L 422.668746 73.201736 
z
" clip-path="url(#pf44e83d237)" style="fill: #b62366"/>
    <path d="M 423.80346 118.198495 
L 422.654922 72.653558 
L 454.527186 81.269652 
L 454.527186 127.504894 
z
" clip-path="url(#pf44e83d237)" style="fill: #230750"/>
    <path d="M 454.527186 133.093858 
L 486.489372 142.901246 
L 486.641167 137.23241 
L 454.527186 127.504894 
z
" clip-path="url(#pf44e83d237)" style="fill: #424b49"/>
    <path d="M 454.527186 127.504894 
L 463.422157 119.421876 
L 463.751664 74.33472 
L 454.527186 81.826594 
z
" clip-path="url(#pf44e83d237)" style="fill: #561030"/>
    <path d="M 454.527186 132.636531 
L 454.527186 127.504894 
L 486.641167 137.23241 
L 486.501791 142.437429 
z
" clip-path="url(#pf44e83d237)" style="fill: #211836"/>
    <path d="M 486.489372 142.901246 
L 494.928188 134.382665 
L 495.116373 128.783089 
L 486.641167 137.23241 
z
" clip-path="url(#pf44e83d237)" style="fill: #1f2322"/>
    <path d="M 422.668746 73.201736 
L 454.527186 81.826594 
L 463.751664 74.33472 
L 432.297584 66.039264 
z
" clip-path="url(#pf44e83d237)" style="fill: #9e1e58"/>
    <path d="M 445.324686 141.098818 
L 454.527186 132.636531 
L 486.501791 142.437429 
L 477.724063 151.289147 
z
" clip-path="url(#pf44e83d237)" style="fill: #2a1f45"/>
    <path d="M 404.177429 134.583019 
L 414.17791 126.234254 
L 445.284694 135.903711 
L 435.673909 144.637203 
z
" clip-path="url(#pf44e83d237)" style="fill: #3a5d33"/>
    <path d="M 445.284694 135.903711 
L 477.827197 146.019458 
L 486.641167 137.23241 
L 454.527186 127.504894 
z
" clip-path="url(#pf44e83d237)" style="fill: #3d2d64"/>
    <path d="M 404.177429 134.583019 
L 402.181691 86.940508 
L 412.610307 79.212898 
L 414.17791 126.234254 
z
" clip-path="url(#pf44e83d237)" style="fill: #619955"/>
    <path d="M 435.749341 149.405983 
L 435.673909 144.637203 
L 445.284694 135.903711 
L 445.320954 140.613963 
z
" clip-path="url(#pf44e83d237)" style="fill: #72b745"/>
    <path d="M 414.17791 126.234254 
L 445.284694 135.903711 
L 444.924074 89.057739 
L 412.639628 80.092422 
z
" clip-path="url(#pf44e83d237)" style="fill: #4b0fa9"/>
    <path d="M 414.17791 126.234254 
L 412.610307 79.212898 
L 444.917194 88.164011 
L 445.284694 135.903711 
z
" clip-path="url(#pf44e83d237)" style="fill: #2e4828"/>
    <path d="M 445.324686 141.098818 
L 477.724063 151.289147 
L 477.827197 146.019458 
L 445.284694 135.903711 
z
" clip-path="url(#pf44e83d237)" style="fill: #463473"/>
    <path d="M 445.320954 140.613963 
L 445.284694 135.903711 
L 477.827197 146.019458 
L 477.733687 150.797376 
z
" clip-path="url(#pf44e83d237)" style="fill: #365620"/>
    <path d="M 445.284694 135.903711 
L 454.527186 127.504894 
L 454.527186 81.269652 
L 444.924074 89.057739 
z
" clip-path="url(#pf44e83d237)" style="fill: #230750"/>
    <path d="M 477.724063 151.289147 
L 486.501791 142.437429 
L 486.641167 137.23241 
L 477.827197 146.019458 
z
" clip-path="url(#pf44e83d237)" style="fill: #211836"/>
    <path d="M 412.639628 80.092422 
L 444.924074 89.057739 
L 454.527186 81.269652 
L 422.654922 72.653558 
z
" clip-path="url(#pf44e83d237)" style="fill: #410d93"/>
    <path d="M 435.749341 149.405983 
L 445.320954 140.613963 
L 477.733687 150.797376 
L 468.595895 160.002402 
z
" clip-path="url(#pf44e83d237)" style="fill: #456f29"/>
    <path d="M 435.673909 144.637203 
L 468.65374 155.164896 
L 477.827197 146.019458 
L 445.284694 135.903711 
z
" clip-path="url(#pf44e83d237)" style="fill: #639f3c"/>
    <path d="M 404.177429 134.583019 
L 435.673909 144.637203 
L 434.908722 96.262198 
L 402.181691 86.940508 
z
" clip-path="url(#pf44e83d237)" style="fill: #619955"/>
    <path d="M 435.749341 149.405983 
L 468.595895 160.002402 
L 468.65374 155.164896 
L 435.673909 144.637203 
z
" clip-path="url(#pf44e83d237)" style="fill: #72b745"/>
    <path d="M 435.673909 144.637203 
L 445.284694 135.903711 
L 444.917194 88.164011 
L 434.908722 96.262198 
z
" clip-path="url(#pf44e83d237)" style="fill: #2e4828"/>
    <path d="M 468.595895 160.002402 
L 477.733687 150.797376 
L 477.827197 146.019458 
L 468.65374 155.164896 
z
" clip-path="url(#pf44e83d237)" style="fill: #365620"/>
    <path d="M 402.181691 86.940508 
L 434.908722 96.262198 
L 444.917194 88.164011 
L 412.610307 79.212898 
z
" clip-path="url(#pf44e83d237)" style="fill: #54854a"/>
   </g>
  </g>
 </g>
 <defs>
  <clipPath id="pdf97ba11be">
   <rect x="72" y="43.432941" width="131.294118" height="131.294118"/>
  </clipPath>
  <clipPath id="p13f6891cc6">
   <rect x="229.552941" y="43.432941" width="131.294118" height="131.294118"/>
  </clipPath>
  <clipPath id="pf44e83d237">
   <rect x="387.105882" y="43.432941" width="131.294118" height="131.294118"/>
  </clipPath>
 </defs>
</svg>
