<?xml version="1.0" encoding="utf-8" standalone="no"?>
<!DOCTYPE svg PUBLIC "-//W3C//DTD SVG 1.1//EN"
  "http://www.w3.org/Graphics/SVG/1.1/DTD/svg11.dtd">
<svg xmlns:xlink="http://www.w3.org/1999/xlink" width="576pt" height="216pt" viewBox="0 0 576 216" xmlns="http://www.w3.org/2000/svg" version="1.1">
 <metadata>
  <rdf:RDF xmlns:dc="http://purl.org/dc/elements/1.1/" xmlns:cc="http://creativecommons.org/ns#" xmlns:rdf="http://www.w3.org/1999/02/22-rdf-syntax-ns#">
   <cc:Work>
    <dc:type rdf:resource="http://purl.org/dc/dcmitype/StillImage"/>
    <dc:date>2025-08-13T11:03:41.451599</dc:date>
    <dc:format>image/svg+xml</dc:format>
    <dc:creator>
     <cc:Agent>
      <dc:title>Matplotlib v3.9.0, https://matplotlib.org/</dc:title>
     </cc:Agent>
    </dc:creator>
   </cc:Work>
  </rdf:RDF>
 </metadata>
 <defs>
  <style type="text/css">*{stroke-linejoin: round; stroke-linecap: butt}</style>
 </defs>
 <g id="figure_1">
  <g id="patch_1">
   <path d="M 0 216 
L 576 216 
L 576 0 
L 0 0 
z
" style="fill: #ffffff"/>
  </g>
  <g id="patch_2">
   <path d="M 72 174.727059 
L 203.294118 174.727059 
L 203.294118 43.432941 
L 72 43.432941 
z
" style="fill: #ffffff"/>
  </g>
  <g id="pane3d_1">
   <g id="patch_3">
    <path d="M 81.913611 142.354137 
L 125.271217 106.010932 
L 124.668505 53.597534 
L 79.236014 86.752097 
" style="fill: #f2f2f2; opacity: 0.5; stroke: #f2f2f2; stroke-linejoin: miter"/>
   </g>
  </g>
  <g id="pane3d_2">
   <g id="patch_4">
    <path d="M 125.271217 106.010932 
L 194.844704 126.233198 
L 197.327536 72.014481 
L 124.668505 53.597534 
" style="fill: #e6e6e6; opacity: 0.5; stroke: #e6e6e6; stroke-linejoin: miter"/>
   </g>
  </g>
  <g id="pane3d_3">
   <g id="patch_5">
    <path d="M 81.913611 142.354137 
L 155.664905 166.44131 
L 194.844704 126.233198 
L 125.271217 106.010932 
" style="fill: #ececec; opacity: 0.5; stroke: #ececec; stroke-linejoin: miter"/>
   </g>
  </g>
  <g id="grid3d_1">
   <g id="Line3DCollection_1">
    <path d="M 86.380377 143.812983 
L 129.502463 107.240789 
L 129.078651 54.715378 
" style="fill: none; stroke: #b0b0b0; stroke-width: 0.8"/>
    <path d="M 94.106243 146.33625 
L 136.815618 109.366434 
L 136.70368 56.648101 
" style="fill: none; stroke: #b0b0b0; stroke-width: 0.8"/>
    <path d="M 101.919975 148.888215 
L 144.205059 111.514253 
L 144.411683 58.601855 
" style="fill: none; stroke: #b0b0b0; stroke-width: 0.8"/>
    <path d="M 109.823082 151.46937 
L 151.671984 113.684593 
L 152.204022 60.576985 
" style="fill: none; stroke: #b0b0b0; stroke-width: 0.8"/>
    <path d="M 117.817105 154.080218 
L 159.21762 115.877812 
L 160.082088 62.573845 
" style="fill: none; stroke: #b0b0b0; stroke-width: 0.8"/>
    <path d="M 125.903622 156.721274 
L 166.843217 118.094272 
L 168.047304 64.592795 
" style="fill: none; stroke: #b0b0b0; stroke-width: 0.8"/>
    <path d="M 134.084248 159.393067 
L 174.550054 120.334345 
L 176.101124 66.634204 
" style="fill: none; stroke: #b0b0b0; stroke-width: 0.8"/>
    <path d="M 142.360635 162.096135 
L 182.339435 122.59841 
L 184.245036 68.698448 
" style="fill: none; stroke: #b0b0b0; stroke-width: 0.8"/>
   </g>
  </g>
  <g id="grid3d_2">
   <g id="Line3DCollection_2">
    <path d="M 82.377783 84.459376 
L 84.901317 139.849783 
L 158.375844 163.659219 
" style="fill: none; stroke: #b0b0b0; stroke-width: 0.8"/>
   </g>
  </g>
  <g id="grid3d_3">
   <g id="Line3DCollection_3">
    <path d="M 195.231007 117.797313 
L 125.177274 97.841389 
L 81.497597 133.715331 
" style="fill: none; stroke: #b0b0b0; stroke-width: 0.8"/>
    <path d="M 195.909181 102.987732 
L 125.012501 83.512366 
L 80.766737 118.538551 
" style="fill: none; stroke: #b0b0b0; stroke-width: 0.8"/>
    <path d="M 196.604039 87.813805 
L 124.843872 68.847952 
L 80.017198 102.973886 
" style="fill: none; stroke: #b0b0b0; stroke-width: 0.8"/>
    <path d="M 197.316205 72.26192 
L 124.671249 53.836232 
L 79.248254 87.006275 
" style="fill: none; stroke: #b0b0b0; stroke-width: 0.8"/>
   </g>
  </g>
  <g id="axis3d_1">
   <g id="line2d_1">
    <path d="M 81.913611 142.354137 
L 155.664905 166.44131 
" style="fill: none; stroke: #000000; stroke-width: 0.8; stroke-linecap: square"/>
   </g>
   <g id="xtick_1">
    <g id="line2d_2">
     <path d="M 86.755881 143.494514 
L 85.627756 144.451286 
" style="fill: none; stroke: #000000; stroke-width: 0.8; stroke-linecap: square"/>
    </g>
    <g id="text_1">
     <!-- 20 -->
     <g transform="translate(72.459978 167.18233) scale(0.1 -0.1)">
      <defs>
       <path id="DejaVuSans-32" d="M 1228 531 
L 3431 531 
L 3431 0 
L 469 0 
L 469 531 
Q 828 903 1448 1529 
Q 2069 2156 2228 2338 
Q 2531 2678 2651 2914 
Q 2772 3150 2772 3378 
Q 2772 3750 2511 3984 
Q 2250 4219 1831 4219 
Q 1534 4219 1204 4116 
Q 875 4013 500 3803 
L 500 4441 
Q 881 4594 1212 4672 
Q 1544 4750 1819 4750 
Q 2544 4750 2975 4387 
Q 3406 4025 3406 3419 
Q 3406 3131 3298 2873 
Q 3191 2616 2906 2266 
Q 2828 2175 2409 1742 
Q 1991 1309 1228 531 
z
" transform="scale(0.015625)"/>
       <path id="DejaVuSans-30" d="M 2034 4250 
Q 1547 4250 1301 3770 
Q 1056 3291 1056 2328 
Q 1056 1369 1301 889 
Q 1547 409 2034 409 
Q 2525 409 2770 889 
Q 3016 1369 3016 2328 
Q 3016 3291 2770 3770 
Q 2525 4250 2034 4250 
z
M 2034 4750 
Q 2819 4750 3233 4129 
Q 3647 3509 3647 2328 
Q 3647 1150 3233 529 
Q 2819 -91 2034 -91 
Q 1250 -91 836 529 
Q 422 1150 422 2328 
Q 422 3509 836 4129 
Q 1250 4750 2034 4750 
z
" transform="scale(0.015625)"/>
      </defs>
      <use xlink:href="#DejaVuSans-32"/>
      <use xlink:href="#DejaVuSans-30" x="63.623047"/>
     </g>
    </g>
   </g>
   <g id="xtick_2">
    <g id="line2d_3">
     <path d="M 94.478324 146.014171 
L 93.360474 146.981798 
" style="fill: none; stroke: #000000; stroke-width: 0.8; stroke-linecap: square"/>
    </g>
    <g id="text_2">
     <!-- 25 -->
     <g transform="translate(80.201549 169.814643) scale(0.1 -0.1)">
      <defs>
       <path id="DejaVuSans-35" d="M 691 4666 
L 3169 4666 
L 3169 4134 
L 1269 4134 
L 1269 2991 
Q 1406 3038 1543 3061 
Q 1681 3084 1819 3084 
Q 2600 3084 3056 2656 
Q 3513 2228 3513 1497 
Q 3513 744 3044 326 
Q 2575 -91 1722 -91 
Q 1428 -91 1123 -41 
Q 819 9 494 109 
L 494 744 
Q 775 591 1075 516 
Q 1375 441 1709 441 
Q 2250 441 2565 725 
Q 2881 1009 2881 1497 
Q 2881 1984 2565 2268 
Q 2250 2553 1709 2553 
Q 1456 2553 1204 2497 
Q 953 2441 691 2322 
L 691 4666 
z
" transform="scale(0.015625)"/>
      </defs>
      <use xlink:href="#DejaVuSans-32"/>
      <use xlink:href="#DejaVuSans-35" x="63.623047"/>
     </g>
    </g>
   </g>
   <g id="xtick_3">
    <g id="line2d_4">
     <path d="M 102.288532 148.562464 
L 101.181263 149.541131 
" style="fill: none; stroke: #000000; stroke-width: 0.8; stroke-linecap: square"/>
    </g>
    <g id="text_3">
     <!-- 50 -->
     <g transform="translate(88.031839 172.477122) scale(0.1 -0.1)">
      <use xlink:href="#DejaVuSans-35"/>
      <use xlink:href="#DejaVuSans-30" x="63.623047"/>
     </g>
    </g>
   </g>
   <g id="xtick_4">
    <g id="line2d_5">
     <path d="M 110.188008 151.139884 
L 109.091637 152.129781 
" style="fill: none; stroke: #000000; stroke-width: 0.8; stroke-linecap: square"/>
    </g>
    <g id="text_4">
     <!-- 100 -->
     <g transform="translate(92.77113 175.17029) scale(0.1 -0.1)">
      <defs>
       <path id="DejaVuSans-31" d="M 794 531 
L 1825 531 
L 1825 4091 
L 703 3866 
L 703 4441 
L 1819 4666 
L 2450 4666 
L 2450 531 
L 3481 531 
L 3481 0 
L 794 0 
L 794 531 
z
" transform="scale(0.015625)"/>
      </defs>
      <use xlink:href="#DejaVuSans-31"/>
      <use xlink:href="#DejaVuSans-30" x="63.623047"/>
      <use xlink:href="#DejaVuSans-30" x="127.246094"/>
     </g>
    </g>
   </g>
   <g id="xtick_5">
    <g id="line2d_6">
     <path d="M 118.178292 153.746932 
L 117.093145 154.748253 
" style="fill: none; stroke: #000000; stroke-width: 0.8; stroke-linecap: square"/>
    </g>
    <g id="text_5">
     <!-- 200 -->
     <g transform="translate(100.783494 177.894679) scale(0.1 -0.1)">
      <use xlink:href="#DejaVuSans-32"/>
      <use xlink:href="#DejaVuSans-30" x="63.623047"/>
      <use xlink:href="#DejaVuSans-30" x="127.246094"/>
     </g>
    </g>
   </g>
   <g id="xtick_6">
    <g id="line2d_7">
     <path d="M 126.260959 156.384122 
L 125.187369 157.397067 
" style="fill: none; stroke: #000000; stroke-width: 0.8; stroke-linecap: square"/>
    </g>
    <g id="text_6">
     <!-- 250 -->
     <g transform="translate(108.889286 180.650836) scale(0.1 -0.1)">
      <use xlink:href="#DejaVuSans-32"/>
      <use xlink:href="#DejaVuSans-35" x="63.623047"/>
      <use xlink:href="#DejaVuSans-30" x="127.246094"/>
     </g>
    </g>
   </g>
   <g id="xtick_7">
    <g id="line2d_8">
     <path d="M 134.437621 159.051981 
L 133.375932 160.076753 
" style="fill: none; stroke: #000000; stroke-width: 0.8; stroke-linecap: square"/>
    </g>
    <g id="text_7">
     <!-- 500 -->
     <g transform="translate(117.09015 183.439319) scale(0.1 -0.1)">
      <use xlink:href="#DejaVuSans-35"/>
      <use xlink:href="#DejaVuSans-30" x="63.623047"/>
      <use xlink:href="#DejaVuSans-30" x="127.246094"/>
     </g>
    </g>
   </g>
   <g id="xtick_8">
    <g id="line2d_9">
     <path d="M 142.709927 161.751046 
L 141.660491 162.787854 
" style="fill: none; stroke: #000000; stroke-width: 0.8; stroke-linecap: square"/>
    </g>
    <g id="text_8">
     <!-- 1000 -->
     <g transform="translate(122.206517 186.260701) scale(0.1 -0.1)">
      <use xlink:href="#DejaVuSans-31"/>
      <use xlink:href="#DejaVuSans-30" x="63.623047"/>
      <use xlink:href="#DejaVuSans-30" x="127.246094"/>
      <use xlink:href="#DejaVuSans-30" x="190.869141"/>
     </g>
    </g>
   </g>
   <g id="text_9">
    <!-- support -->
    <g transform="translate(82.28057 186.318757) rotate(-341.912962) scale(0.1 -0.1)">
     <defs>
      <path id="DejaVuSans-73" d="M 2834 3397 
L 2834 2853 
Q 2591 2978 2328 3040 
Q 2066 3103 1784 3103 
Q 1356 3103 1142 2972 
Q 928 2841 928 2578 
Q 928 2378 1081 2264 
Q 1234 2150 1697 2047 
L 1894 2003 
Q 2506 1872 2764 1633 
Q 3022 1394 3022 966 
Q 3022 478 2636 193 
Q 2250 -91 1575 -91 
Q 1294 -91 989 -36 
Q 684 19 347 128 
L 347 722 
Q 666 556 975 473 
Q 1284 391 1588 391 
Q 1994 391 2212 530 
Q 2431 669 2431 922 
Q 2431 1156 2273 1281 
Q 2116 1406 1581 1522 
L 1381 1569 
Q 847 1681 609 1914 
Q 372 2147 372 2553 
Q 372 3047 722 3315 
Q 1072 3584 1716 3584 
Q 2034 3584 2315 3537 
Q 2597 3491 2834 3397 
z
" transform="scale(0.015625)"/>
      <path id="DejaVuSans-75" d="M 544 1381 
L 544 3500 
L 1119 3500 
L 1119 1403 
Q 1119 906 1312 657 
Q 1506 409 1894 409 
Q 2359 409 2629 706 
Q 2900 1003 2900 1516 
L 2900 3500 
L 3475 3500 
L 3475 0 
L 2900 0 
L 2900 538 
Q 2691 219 2414 64 
Q 2138 -91 1772 -91 
Q 1169 -91 856 284 
Q 544 659 544 1381 
z
M 1991 3584 
L 1991 3584 
z
" transform="scale(0.015625)"/>
      <path id="DejaVuSans-70" d="M 1159 525 
L 1159 -1331 
L 581 -1331 
L 581 3500 
L 1159 3500 
L 1159 2969 
Q 1341 3281 1617 3432 
Q 1894 3584 2278 3584 
Q 2916 3584 3314 3078 
Q 3713 2572 3713 1747 
Q 3713 922 3314 415 
Q 2916 -91 2278 -91 
Q 1894 -91 1617 61 
Q 1341 213 1159 525 
z
M 3116 1747 
Q 3116 2381 2855 2742 
Q 2594 3103 2138 3103 
Q 1681 3103 1420 2742 
Q 1159 2381 1159 1747 
Q 1159 1113 1420 752 
Q 1681 391 2138 391 
Q 2594 391 2855 752 
Q 3116 1113 3116 1747 
z
" transform="scale(0.015625)"/>
      <path id="DejaVuSans-6f" d="M 1959 3097 
Q 1497 3097 1228 2736 
Q 959 2375 959 1747 
Q 959 1119 1226 758 
Q 1494 397 1959 397 
Q 2419 397 2687 759 
Q 2956 1122 2956 1747 
Q 2956 2369 2687 2733 
Q 2419 3097 1959 3097 
z
M 1959 3584 
Q 2709 3584 3137 3096 
Q 3566 2609 3566 1747 
Q 3566 888 3137 398 
Q 2709 -91 1959 -91 
Q 1206 -91 779 398 
Q 353 888 353 1747 
Q 353 2609 779 3096 
Q 1206 3584 1959 3584 
z
" transform="scale(0.015625)"/>
      <path id="DejaVuSans-72" d="M 2631 2963 
Q 2534 3019 2420 3045 
Q 2306 3072 2169 3072 
Q 1681 3072 1420 2755 
Q 1159 2438 1159 1844 
L 1159 0 
L 581 0 
L 581 3500 
L 1159 3500 
L 1159 2956 
Q 1341 3275 1631 3429 
Q 1922 3584 2338 3584 
Q 2397 3584 2469 3576 
Q 2541 3569 2628 3553 
L 2631 2963 
z
" transform="scale(0.015625)"/>
      <path id="DejaVuSans-74" d="M 1172 4494 
L 1172 3500 
L 2356 3500 
L 2356 3053 
L 1172 3053 
L 1172 1153 
Q 1172 725 1289 603 
Q 1406 481 1766 481 
L 2356 481 
L 2356 0 
L 1766 0 
Q 1100 0 847 248 
Q 594 497 594 1153 
L 594 3053 
L 172 3053 
L 172 3500 
L 594 3500 
L 594 4494 
L 1172 4494 
z
" transform="scale(0.015625)"/>
     </defs>
     <use xlink:href="#DejaVuSans-73"/>
     <use xlink:href="#DejaVuSans-75" x="52.099609"/>
     <use xlink:href="#DejaVuSans-70" x="115.478516"/>
     <use xlink:href="#DejaVuSans-70" x="178.955078"/>
     <use xlink:href="#DejaVuSans-6f" x="242.431641"/>
     <use xlink:href="#DejaVuSans-72" x="303.613281"/>
     <use xlink:href="#DejaVuSans-74" x="344.726562"/>
    </g>
   </g>
  </g>
  <g id="axis3d_2">
   <g id="line2d_10">
    <path d="M 194.844704 126.233198 
L 155.664905 166.44131 
" style="fill: none; stroke: #000000; stroke-width: 0.8; stroke-linecap: square"/>
   </g>
   <g id="xtick_9">
    <g id="line2d_11">
     <path d="M 157.756672 163.458577 
L 159.61579 164.061024 
" style="fill: none; stroke: #000000; stroke-width: 0.8; stroke-linecap: square"/>
    </g>
    <g id="text_10">
     <!-- -1 -->
     <g transform="translate(166.279246 184.689208) scale(0.1 -0.1)">
      <defs>
       <path id="DejaVuSans-2d" d="M 313 2009 
L 1997 2009 
L 1997 1497 
L 313 1497 
L 313 2009 
z
" transform="scale(0.015625)"/>
      </defs>
      <use xlink:href="#DejaVuSans-2d"/>
      <use xlink:href="#DejaVuSans-31" x="36.083984"/>
     </g>
    </g>
   </g>
   <g id="text_11">
    <!-- window -->
    <g transform="translate(191.873976 188.99679) rotate(-45.742112) scale(0.1 -0.1)">
     <defs>
      <path id="DejaVuSans-77" d="M 269 3500 
L 844 3500 
L 1563 769 
L 2278 3500 
L 2956 3500 
L 3675 769 
L 4391 3500 
L 4966 3500 
L 4050 0 
L 3372 0 
L 2619 2869 
L 1863 0 
L 1184 0 
L 269 3500 
z
" transform="scale(0.015625)"/>
      <path id="DejaVuSans-69" d="M 603 3500 
L 1178 3500 
L 1178 0 
L 603 0 
L 603 3500 
z
M 603 4863 
L 1178 4863 
L 1178 4134 
L 603 4134 
L 603 4863 
z
" transform="scale(0.015625)"/>
      <path id="DejaVuSans-6e" d="M 3513 2113 
L 3513 0 
L 2938 0 
L 2938 2094 
Q 2938 2591 2744 2837 
Q 2550 3084 2163 3084 
Q 1697 3084 1428 2787 
Q 1159 2491 1159 1978 
L 1159 0 
L 581 0 
L 581 3500 
L 1159 3500 
L 1159 2956 
Q 1366 3272 1645 3428 
Q 1925 3584 2291 3584 
Q 2894 3584 3203 3211 
Q 3513 2838 3513 2113 
z
" transform="scale(0.015625)"/>
      <path id="DejaVuSans-64" d="M 2906 2969 
L 2906 4863 
L 3481 4863 
L 3481 0 
L 2906 0 
L 2906 525 
Q 2725 213 2448 61 
Q 2172 -91 1784 -91 
Q 1150 -91 751 415 
Q 353 922 353 1747 
Q 353 2572 751 3078 
Q 1150 3584 1784 3584 
Q 2172 3584 2448 3432 
Q 2725 3281 2906 2969 
z
M 947 1747 
Q 947 1113 1208 752 
Q 1469 391 1925 391 
Q 2381 391 2643 752 
Q 2906 1113 2906 1747 
Q 2906 2381 2643 2742 
Q 2381 3103 1925 3103 
Q 1469 3103 1208 2742 
Q 947 2381 947 1747 
z
" transform="scale(0.015625)"/>
     </defs>
     <use xlink:href="#DejaVuSans-77"/>
     <use xlink:href="#DejaVuSans-69" x="81.787109"/>
     <use xlink:href="#DejaVuSans-6e" x="109.570312"/>
     <use xlink:href="#DejaVuSans-64" x="172.949219"/>
     <use xlink:href="#DejaVuSans-6f" x="236.425781"/>
     <use xlink:href="#DejaVuSans-77" x="297.607422"/>
    </g>
   </g>
  </g>
  <g id="axis3d_3">
   <g id="line2d_12">
    <path d="M 194.844704 126.233198 
L 197.327536 72.014481 
" style="fill: none; stroke: #000000; stroke-width: 0.8; stroke-linecap: square"/>
   </g>
   <g id="xtick_10">
    <g id="line2d_13">
     <path d="M 194.642872 117.629774 
L 196.408687 118.132794 
" style="fill: none; stroke: #000000; stroke-width: 0.8; stroke-linecap: square"/>
    </g>
    <g id="text_12">
     <!-- $10^{-1.0}$ -->
     <g transform="translate(198.497311 122.832219) scale(0.1 -0.1)">
      <defs>
       <path id="DejaVuSans-2212" d="M 678 2272 
L 4684 2272 
L 4684 1741 
L 678 1741 
L 678 2272 
z
" transform="scale(0.015625)"/>
       <path id="DejaVuSans-2e" d="M 684 794 
L 1344 794 
L 1344 0 
L 684 0 
L 684 794 
z
" transform="scale(0.015625)"/>
      </defs>
      <use xlink:href="#DejaVuSans-31" transform="translate(0 0.765625)"/>
      <use xlink:href="#DejaVuSans-30" transform="translate(63.623047 0.765625)"/>
      <use xlink:href="#DejaVuSans-2212" transform="translate(128.203125 39.046875) scale(0.7)"/>
      <use xlink:href="#DejaVuSans-31" transform="translate(186.855469 39.046875) scale(0.7)"/>
      <use xlink:href="#DejaVuSans-2e" transform="translate(231.391602 39.046875) scale(0.7)"/>
      <use xlink:href="#DejaVuSans-30" transform="translate(253.642578 39.046875) scale(0.7)"/>
     </g>
    </g>
   </g>
   <g id="xtick_11">
    <g id="line2d_14">
     <path d="M 195.313628 102.824133 
L 197.101731 103.315326 
" style="fill: none; stroke: #000000; stroke-width: 0.8; stroke-linecap: square"/>
    </g>
    <g id="text_13">
     <!-- $10^{0.0}$ -->
     <g transform="translate(202.292494 108.083112) scale(0.1 -0.1)">
      <use xlink:href="#DejaVuSans-31" transform="translate(0 0.765625)"/>
      <use xlink:href="#DejaVuSans-30" transform="translate(63.623047 0.765625)"/>
      <use xlink:href="#DejaVuSans-30" transform="translate(128.203125 39.046875) scale(0.7)"/>
      <use xlink:href="#DejaVuSans-2e" transform="translate(172.739258 39.046875) scale(0.7)"/>
      <use xlink:href="#DejaVuSans-30" transform="translate(194.990234 39.046875) scale(0.7)"/>
     </g>
    </g>
   </g>
   <g id="xtick_12">
    <g id="line2d_15">
     <path d="M 196.000879 87.654393 
L 197.811839 88.133021 
" style="fill: none; stroke: #000000; stroke-width: 0.8; stroke-linecap: square"/>
    </g>
    <g id="text_14">
     <!-- $10^{1.0}$ -->
     <g transform="translate(203.209564 92.973415) scale(0.1 -0.1)">
      <use xlink:href="#DejaVuSans-31" transform="translate(0 0.765625)"/>
      <use xlink:href="#DejaVuSans-30" transform="translate(63.623047 0.765625)"/>
      <use xlink:href="#DejaVuSans-31" transform="translate(128.203125 39.046875) scale(0.7)"/>
      <use xlink:href="#DejaVuSans-2e" transform="translate(172.739258 39.046875) scale(0.7)"/>
      <use xlink:href="#DejaVuSans-30" transform="translate(194.990234 39.046875) scale(0.7)"/>
     </g>
    </g>
   </g>
   <g id="xtick_13">
    <g id="line2d_16">
     <path d="M 196.705242 72.106955 
L 198.539649 72.572235 
" style="fill: none; stroke: #000000; stroke-width: 0.8; stroke-linecap: square"/>
    </g>
    <g id="text_15">
     <!-- $10^{2.0}$ -->
     <g transform="translate(204.149332 77.48974) scale(0.1 -0.1)">
      <use xlink:href="#DejaVuSans-31" transform="translate(0 0.765625)"/>
      <use xlink:href="#DejaVuSans-30" transform="translate(63.623047 0.765625)"/>
      <use xlink:href="#DejaVuSans-32" transform="translate(128.203125 39.046875) scale(0.7)"/>
      <use xlink:href="#DejaVuSans-2e" transform="translate(172.739258 39.046875) scale(0.7)"/>
      <use xlink:href="#DejaVuSans-30" transform="translate(194.990234 39.046875) scale(0.7)"/>
     </g>
    </g>
   </g>
   <g id="text_16">
    <!-- elapsed -->
    <g transform="translate(238.023192 114.01016) rotate(-87.378092) scale(0.1 -0.1)">
     <defs>
      <path id="DejaVuSans-65" d="M 3597 1894 
L 3597 1613 
L 953 1613 
Q 991 1019 1311 708 
Q 1631 397 2203 397 
Q 2534 397 2845 478 
Q 3156 559 3463 722 
L 3463 178 
Q 3153 47 2828 -22 
Q 2503 -91 2169 -91 
Q 1331 -91 842 396 
Q 353 884 353 1716 
Q 353 2575 817 3079 
Q 1281 3584 2069 3584 
Q 2775 3584 3186 3129 
Q 3597 2675 3597 1894 
z
M 3022 2063 
Q 3016 2534 2758 2815 
Q 2500 3097 2075 3097 
Q 1594 3097 1305 2825 
Q 1016 2553 972 2059 
L 3022 2063 
z
" transform="scale(0.015625)"/>
      <path id="DejaVuSans-6c" d="M 603 4863 
L 1178 4863 
L 1178 0 
L 603 0 
L 603 4863 
z
" transform="scale(0.015625)"/>
      <path id="DejaVuSans-61" d="M 2194 1759 
Q 1497 1759 1228 1600 
Q 959 1441 959 1056 
Q 959 750 1161 570 
Q 1363 391 1709 391 
Q 2188 391 2477 730 
Q 2766 1069 2766 1631 
L 2766 1759 
L 2194 1759 
z
M 3341 1997 
L 3341 0 
L 2766 0 
L 2766 531 
Q 2569 213 2275 61 
Q 1981 -91 1556 -91 
Q 1019 -91 701 211 
Q 384 513 384 1019 
Q 384 1609 779 1909 
Q 1175 2209 1959 2209 
L 2766 2209 
L 2766 2266 
Q 2766 2663 2505 2880 
Q 2244 3097 1772 3097 
Q 1472 3097 1187 3025 
Q 903 2953 641 2809 
L 641 3341 
Q 956 3463 1253 3523 
Q 1550 3584 1831 3584 
Q 2591 3584 2966 3190 
Q 3341 2797 3341 1997 
z
" transform="scale(0.015625)"/>
     </defs>
     <use xlink:href="#DejaVuSans-65"/>
     <use xlink:href="#DejaVuSans-6c" x="61.523438"/>
     <use xlink:href="#DejaVuSans-61" x="89.306641"/>
     <use xlink:href="#DejaVuSans-70" x="150.585938"/>
     <use xlink:href="#DejaVuSans-73" x="214.0625"/>
     <use xlink:href="#DejaVuSans-65" x="266.162109"/>
     <use xlink:href="#DejaVuSans-64" x="327.685547"/>
    </g>
   </g>
  </g>
  <g id="axes_1">
   <g id="Poly3DCollection_1">
    <path d="M 126.740444 86.762806 
L 126.446238 57.767 
L 134.092257 59.725261 
L 134.213734 88.830471 
z
" clip-path="url(#paa118fea3e)" style="fill: #1a3b4f"/>
    <path d="M 141.766852 90.920222 
L 141.786381 80.549382 
L 149.484626 82.623103 
L 149.401086 93.032415 
z
" clip-path="url(#paa118fea3e)" style="fill: #39521f"/>
    <path d="M 134.213734 88.830471 
L 134.113818 64.891232 
L 141.8121 66.890971 
L 141.766852 90.920222 
z
" clip-path="url(#paa118fea3e)" style="fill: #5d5d55"/>
    <path d="M 149.386329 94.871223 
L 149.401086 93.032415 
L 157.117748 95.167414 
L 157.091439 97.01296 
z
" clip-path="url(#paa118fea3e)" style="fill: #0e0503"/>
    <path d="M 156.940127 107.627199 
L 157.117748 95.167414 
L 164.918182 97.32559 
L 164.660892 109.830545 
z
" clip-path="url(#paa118fea3e)" style="fill: #092d36"/>
    <path d="M 164.556583 114.900201 
L 164.918182 97.32559 
L 172.803758 99.507324 
L 172.327778 117.145373 
z
" clip-path="url(#paa118fea3e)" style="fill: #574c1a"/>
    <path d="M 172.207865 121.588914 
L 172.803758 99.507324 
L 180.775878 101.713001 
L 180.033701 123.874005 
z
" clip-path="url(#paa118fea3e)" style="fill: #0f0952"/>
    <path d="M 180.121207 121.261127 
L 180.775878 101.713001 
L 188.835975 103.94302 
L 188.049459 123.561796 
z
" clip-path="url(#paa118fea3e)" style="fill: #2f3757"/>
    <path d="M 88.356507 117.513498 
L 126.740444 86.762806 
L 134.213734 88.830471 
L 96.203524 119.921811 
z
" clip-path="url(#paa118fea3e)" style="fill: #214b66"/>
    <path d="M 96.203524 119.921811 
L 134.213734 88.830471 
L 141.766852 90.920222 
L 104.14106 122.357907 
z
" clip-path="url(#paa118fea3e)" style="fill: #77786d"/>
    <path d="M 88.356507 117.513498 
L 87.075808 86.940508 
L 126.446238 57.767 
L 126.740444 86.762806 
z
" clip-path="url(#paa118fea3e)" style="fill: #367da9"/>
    <path d="M 104.14106 122.357907 
L 141.766852 90.920222 
L 149.401086 93.032415 
L 112.170693 124.822267 
z
" clip-path="url(#paa118fea3e)" style="fill: #496928"/>
    <path d="M 120.50137 140.423193 
L 156.940127 107.627199 
L 164.660892 109.830545 
L 128.631665 142.994174 
z
" clip-path="url(#paa118fea3e)" style="fill: #0c3a46"/>
    <path d="M 104.14106 122.357907 
L 103.823635 111.433613 
L 141.786381 80.549382 
L 141.766852 90.920222 
z
" clip-path="url(#paa118fea3e)" style="fill: #79ae42"/>
    <path d="M 96.203524 119.921811 
L 95.307065 94.685756 
L 134.113818 64.891232 
L 134.213734 88.830471 
z
" clip-path="url(#paa118fea3e)" style="fill: #c6c6b4"/>
    <path d="M 128.679827 148.321788 
L 164.556583 114.900201 
L 172.327778 117.145373 
L 136.868424 150.942087 
z
" clip-path="url(#paa118fea3e)" style="fill: #6f6121"/>
    <path d="M 112.214223 126.757869 
L 112.170693 124.822267 
L 149.401086 93.032415 
L 149.386329 94.871223 
z
" clip-path="url(#paa118fea3e)" style="fill: #1e0a07"/>
    <path d="M 120.50137 140.423193 
L 120.294033 127.315387 
L 157.117748 95.167414 
L 156.940127 107.627199 
z
" clip-path="url(#paa118fea3e)" style="fill: #135f73"/>
    <path d="M 136.878473 155.6091 
L 172.207865 121.588914 
L 180.033701 123.874005 
L 145.130086 158.276724 
z
" clip-path="url(#paa118fea3e)" style="fill: #130c69"/>
    <path d="M 96.203524 119.921811 
L 134.213734 88.830471 
L 134.092257 59.725261 
L 95.113255 89.229826 
z
" clip-path="url(#paa118fea3e)" style="fill: #1a3b4f"/>
    <path d="M 112.214223 126.757869 
L 149.386329 94.871223 
L 157.091439 97.01296 
L 120.324765 129.25826 
z
" clip-path="url(#paa118fea3e)" style="fill: #120604"/>
    <path d="M 112.170693 124.822267 
L 120.294033 127.315387 
L 157.117748 95.167414 
L 149.401086 93.032415 
z
" clip-path="url(#paa118fea3e)" style="fill: #1a0906"/>
    <path d="M 128.679827 148.321788 
L 128.512731 129.837772 
L 164.918182 97.32559 
L 164.556583 114.900201 
z
" clip-path="url(#paa118fea3e)" style="fill: #b8a036"/>
    <path d="M 112.170693 124.822267 
L 149.401086 93.032415 
L 149.484626 82.623103 
L 111.924077 113.856328 
z
" clip-path="url(#paa118fea3e)" style="fill: #39521f"/>
    <path d="M 104.14106 122.357907 
L 141.766852 90.920222 
L 141.8121 66.890971 
L 103.40494 97.024087 
z
" clip-path="url(#paa118fea3e)" style="fill: #5d5d55"/>
    <path d="M 120.324765 129.25826 
L 157.091439 97.01296 
L 157.117748 95.167414 
L 120.294033 127.315387 
z
" clip-path="url(#paa118fea3e)" style="fill: #0e0503"/>
    <path d="M 103.823635 111.433613 
L 111.924077 113.856328 
L 149.484626 82.623103 
L 141.786381 80.549382 
z
" clip-path="url(#paa118fea3e)" style="fill: #699739"/>
    <path d="M 128.631665 142.994174 
L 164.660892 109.830545 
L 164.918182 97.32559 
L 128.512731 129.837772 
z
" clip-path="url(#paa118fea3e)" style="fill: #092d36"/>
    <path d="M 136.878473 155.6091 
L 136.828476 132.389943 
L 172.803758 99.507324 
L 172.207865 121.588914 
z
" clip-path="url(#paa118fea3e)" style="fill: #2013ae"/>
    <path d="M 120.294033 127.315387 
L 128.512731 129.837772 
L 164.918182 97.32559 
L 157.117748 95.167414 
z
" clip-path="url(#paa118fea3e)" style="fill: #115364"/>
    <path d="M 145.143381 155.532622 
L 180.121207 121.261127 
L 188.049459 123.561796 
L 153.511305 158.22171 
z
" clip-path="url(#paa118fea3e)" style="fill: #3c4770"/>
    <path d="M 136.868424 150.942087 
L 172.327778 117.145373 
L 172.803758 99.507324 
L 136.828476 132.389943 
z
" clip-path="url(#paa118fea3e)" style="fill: #574c1a"/>
    <path d="M 87.075808 86.940508 
L 95.113255 89.229826 
L 134.092257 59.725261 
L 126.446238 57.767 
z
" clip-path="url(#paa118fea3e)" style="fill: #2f6c92"/>
    <path d="M 95.307065 94.685756 
L 103.40494 97.024087 
L 141.8121 66.890971 
L 134.113818 64.891232 
z
" clip-path="url(#paa118fea3e)" style="fill: #acac9c"/>
    <path d="M 145.130086 158.276724 
L 180.033701 123.874005 
L 180.775878 101.713001 
L 145.242997 134.972428 
z
" clip-path="url(#paa118fea3e)" style="fill: #0f0952"/>
    <path d="M 128.512731 129.837772 
L 136.828476 132.389943 
L 172.803758 99.507324 
L 164.918182 97.32559 
z
" clip-path="url(#paa118fea3e)" style="fill: #9f8b2f"/>
    <path d="M 145.143381 155.532622 
L 145.242997 134.972428 
L 180.775878 101.713001 
L 180.121207 121.261127 
z
" clip-path="url(#paa118fea3e)" style="fill: #6476b9"/>
    <path d="M 136.828476 132.389943 
L 145.242997 134.972428 
L 180.775878 101.713001 
L 172.803758 99.507324 
z
" clip-path="url(#paa118fea3e)" style="fill: #1c1197"/>
    <path d="M 153.511305 158.22171 
L 188.049459 123.561796 
L 188.835975 103.94302 
L 153.758065 137.585772 
z
" clip-path="url(#paa118fea3e)" style="fill: #2f3757"/>
    <path d="M 145.242997 134.972428 
L 153.758065 137.585772 
L 188.835975 103.94302 
L 180.775878 101.713001 
z
" clip-path="url(#paa118fea3e)" style="fill: #5766a0"/>
    <path d="M 88.356507 117.513498 
L 96.203524 119.921811 
L 95.113255 89.229826 
L 87.075808 86.940508 
z
" clip-path="url(#paa118fea3e)" style="fill: #367da9"/>
    <path d="M 104.14106 122.357907 
L 112.170693 124.822267 
L 111.924077 113.856328 
L 103.823635 111.433613 
z
" clip-path="url(#paa118fea3e)" style="fill: #79ae42"/>
    <path d="M 96.203524 119.921811 
L 104.14106 122.357907 
L 103.40494 97.024087 
L 95.307065 94.685756 
z
" clip-path="url(#paa118fea3e)" style="fill: #c6c6b4"/>
    <path d="M 112.214223 126.757869 
L 120.324765 129.25826 
L 120.294033 127.315387 
L 112.170693 124.822267 
z
" clip-path="url(#paa118fea3e)" style="fill: #1e0a07"/>
    <path d="M 120.50137 140.423193 
L 128.631665 142.994174 
L 128.512731 129.837772 
L 120.294033 127.315387 
z
" clip-path="url(#paa118fea3e)" style="fill: #135f73"/>
    <path d="M 128.679827 148.321788 
L 136.868424 150.942087 
L 136.828476 132.389943 
L 128.512731 129.837772 
z
" clip-path="url(#paa118fea3e)" style="fill: #b8a036"/>
    <path d="M 136.878473 155.6091 
L 145.130086 158.276724 
L 145.242997 134.972428 
L 136.828476 132.389943 
z
" clip-path="url(#paa118fea3e)" style="fill: #2013ae"/>
    <path d="M 145.143381 155.532622 
L 153.511305 158.22171 
L 153.758065 137.585772 
L 145.242997 134.972428 
z
" clip-path="url(#paa118fea3e)" style="fill: #6476b9"/>
   </g>
   <g id="text_17">
    <!-- default -->
    <g transform="translate(116.535496 37.432941) scale(0.12 -0.12)">
     <defs>
      <path id="DejaVuSans-66" d="M 2375 4863 
L 2375 4384 
L 1825 4384 
Q 1516 4384 1395 4259 
Q 1275 4134 1275 3809 
L 1275 3500 
L 2222 3500 
L 2222 3053 
L 1275 3053 
L 1275 0 
L 697 0 
L 697 3053 
L 147 3053 
L 147 3500 
L 697 3500 
L 697 3744 
Q 697 4328 969 4595 
Q 1241 4863 1831 4863 
L 2375 4863 
z
" transform="scale(0.015625)"/>
     </defs>
     <use xlink:href="#DejaVuSans-64"/>
     <use xlink:href="#DejaVuSans-65" x="63.476562"/>
     <use xlink:href="#DejaVuSans-66" x="125"/>
     <use xlink:href="#DejaVuSans-61" x="160.205078"/>
     <use xlink:href="#DejaVuSans-75" x="221.484375"/>
     <use xlink:href="#DejaVuSans-6c" x="284.863281"/>
     <use xlink:href="#DejaVuSans-74" x="312.646484"/>
    </g>
   </g>
   <g id="Poly3DCollection_2">
    <path d="M 88.356507 117.513498 
L 96.203524 119.921811 
L 134.213734 88.830471 
L 126.740444 86.762806 
z
" clip-path="url(#paa118fea3e)" style="fill: #c30000"/>
    <path d="M 96.203524 119.921811 
L 104.14106 122.357907 
L 141.766852 90.920222 
L 134.213734 88.830471 
z
" clip-path="url(#paa118fea3e)" style="fill: #c30000"/>
    <path d="M 104.14106 122.357907 
L 112.170693 124.822267 
L 149.401086 93.032415 
L 141.766852 90.920222 
z
" clip-path="url(#paa118fea3e)" style="fill: #c30000"/>
    <path d="M 112.170693 124.822267 
L 120.294033 127.315387 
L 157.117748 95.167414 
L 149.401086 93.032415 
z
" clip-path="url(#paa118fea3e)" style="fill: #c30000"/>
    <path d="M 120.294033 127.315387 
L 128.512731 129.837772 
L 164.918182 97.32559 
L 157.117748 95.167414 
z
" clip-path="url(#paa118fea3e)" style="fill: #c30000"/>
    <path d="M 128.512731 129.837772 
L 136.828476 132.389943 
L 172.803758 99.507324 
L 164.918182 97.32559 
z
" clip-path="url(#paa118fea3e)" style="fill: #c30000"/>
    <path d="M 136.828476 132.389943 
L 145.242997 134.972428 
L 180.775878 101.713001 
L 172.803758 99.507324 
z
" clip-path="url(#paa118fea3e)" style="fill: #c30000"/>
    <path d="M 145.242997 134.972428 
L 153.758065 137.585772 
L 188.835975 103.94302 
L 180.775878 101.713001 
z
" clip-path="url(#paa118fea3e)" style="fill: #c30000"/>
   </g>
  </g>
  <g id="patch_6">
   <path d="M 229.552941 174.727059 
L 360.847059 174.727059 
L 360.847059 43.432941 
L 229.552941 43.432941 
z
" style="fill: #ffffff"/>
  </g>
  <g id="pane3d_4">
   <g id="patch_7">
    <path d="M 239.466552 142.354137 
L 282.824158 106.010932 
L 282.221446 53.597534 
L 236.788955 86.752097 
" style="fill: #f2f2f2; opacity: 0.5; stroke: #f2f2f2; stroke-linejoin: miter"/>
   </g>
  </g>
  <g id="pane3d_5">
   <g id="patch_8">
    <path d="M 282.824158 106.010932 
L 352.397645 126.233198 
L 354.880477 72.014481 
L 282.221446 53.597534 
" style="fill: #e6e6e6; opacity: 0.5; stroke: #e6e6e6; stroke-linejoin: miter"/>
   </g>
  </g>
  <g id="pane3d_6">
   <g id="patch_9">
    <path d="M 239.466552 142.354137 
L 313.217847 166.44131 
L 352.397645 126.233198 
L 282.824158 106.010932 
" style="fill: #ececec; opacity: 0.5; stroke: #ececec; stroke-linejoin: miter"/>
   </g>
  </g>
  <g id="grid3d_4">
   <g id="Line3DCollection_4">
    <path d="M 243.933318 143.812983 
L 287.055404 107.240789 
L 286.631593 54.715378 
" style="fill: none; stroke: #b0b0b0; stroke-width: 0.8"/>
    <path d="M 275.370046 154.080218 
L 316.770561 115.877812 
L 317.635029 62.573845 
" style="fill: none; stroke: #b0b0b0; stroke-width: 0.8"/>
   </g>
  </g>
  <g id="grid3d_5">
   <g id="Line3DCollection_5">
    <path d="M 239.930725 84.459376 
L 242.454258 139.849783 
L 315.928785 163.659219 
" style="fill: none; stroke: #b0b0b0; stroke-width: 0.8"/>
    <path d="M 250.427047 76.799639 
L 252.447238 131.473469 
L 324.984068 154.366272 
" style="fill: none; stroke: #b0b0b0; stroke-width: 0.8"/>
    <path d="M 260.515829 69.437305 
L 262.068747 123.408529 
L 333.685325 145.436641 
" style="fill: none; stroke: #b0b0b0; stroke-width: 0.8"/>
    <path d="M 270.220354 62.355385 
L 271.339121 115.637918 
L 342.05292 136.849431 
" style="fill: none; stroke: #b0b0b0; stroke-width: 0.8"/>
   </g>
  </g>
  <g id="grid3d_6">
   <g id="Line3DCollection_6">
    <path d="M 352.490596 124.203383 
L 282.801548 104.044713 
L 239.366472 140.27591 
" style="fill: none; stroke: #b0b0b0; stroke-width: 0.8"/>
    <path d="M 352.769987 118.102195 
L 282.733609 98.136552 
L 239.065577 134.027626 
" style="fill: none; stroke: #b0b0b0; stroke-width: 0.8"/>
    <path d="M 353.052204 111.939287 
L 282.665015 92.171474 
L 238.761522 127.713727 
" style="fill: none; stroke: #b0b0b0; stroke-width: 0.8"/>
    <path d="M 353.337291 105.713717 
L 282.595758 86.148654 
L 238.454257 121.333175 
" style="fill: none; stroke: #b0b0b0; stroke-width: 0.8"/>
    <path d="M 353.625292 99.424525 
L 282.525826 80.067248 
L 238.143732 114.884908 
" style="fill: none; stroke: #b0b0b0; stroke-width: 0.8"/>
    <path d="M 353.91625 93.07073 
L 282.455211 73.926398 
L 237.829893 108.367844 
" style="fill: none; stroke: #b0b0b0; stroke-width: 0.8"/>
    <path d="M 354.210213 86.651333 
L 282.383903 67.725228 
L 237.512688 101.780874 
" style="fill: none; stroke: #b0b0b0; stroke-width: 0.8"/>
    <path d="M 354.507227 80.165312 
L 282.311891 61.462844 
L 237.192062 95.122868 
" style="fill: none; stroke: #b0b0b0; stroke-width: 0.8"/>
    <path d="M 354.807339 73.611624 
L 282.239164 55.138337 
L 236.86796 88.392671 
" style="fill: none; stroke: #b0b0b0; stroke-width: 0.8"/>
   </g>
  </g>
  <g id="axis3d_4">
   <g id="line2d_17">
    <path d="M 239.466552 142.354137 
L 313.217847 166.44131 
" style="fill: none; stroke: #000000; stroke-width: 0.8; stroke-linecap: square"/>
   </g>
   <g id="xtick_14">
    <g id="line2d_18">
     <path d="M 244.308823 143.494514 
L 243.180697 144.451286 
" style="fill: none; stroke: #000000; stroke-width: 0.8; stroke-linecap: square"/>
    </g>
    <g id="text_18">
     <!-- 0.05 -->
     <g transform="translate(225.242607 167.18233) scale(0.1 -0.1)">
      <use xlink:href="#DejaVuSans-30"/>
      <use xlink:href="#DejaVuSans-2e" x="63.623047"/>
      <use xlink:href="#DejaVuSans-30" x="95.410156"/>
      <use xlink:href="#DejaVuSans-35" x="159.033203"/>
     </g>
    </g>
   </g>
   <g id="xtick_15">
    <g id="line2d_19">
     <path d="M 275.731233 153.746932 
L 274.646086 154.748253 
" style="fill: none; stroke: #000000; stroke-width: 0.8; stroke-linecap: square"/>
    </g>
    <g id="text_19">
     <!-- 0.1 -->
     <g transform="translate(259.928623 177.894679) scale(0.1 -0.1)">
      <use xlink:href="#DejaVuSans-30"/>
      <use xlink:href="#DejaVuSans-2e" x="63.623047"/>
      <use xlink:href="#DejaVuSans-31" x="95.410156"/>
     </g>
    </g>
   </g>
   <g id="text_20">
    <!-- support -->
    <g transform="translate(239.833511 186.318757) rotate(-341.912962) scale(0.1 -0.1)">
     <use xlink:href="#DejaVuSans-73"/>
     <use xlink:href="#DejaVuSans-75" x="52.099609"/>
     <use xlink:href="#DejaVuSans-70" x="115.478516"/>
     <use xlink:href="#DejaVuSans-70" x="178.955078"/>
     <use xlink:href="#DejaVuSans-6f" x="242.431641"/>
     <use xlink:href="#DejaVuSans-72" x="303.613281"/>
     <use xlink:href="#DejaVuSans-74" x="344.726562"/>
    </g>
   </g>
  </g>
  <g id="axis3d_5">
   <g id="line2d_20">
    <path d="M 352.397645 126.233198 
L 313.217847 166.44131 
" style="fill: none; stroke: #000000; stroke-width: 0.8; stroke-linecap: square"/>
   </g>
   <g id="xtick_16">
    <g id="line2d_21">
     <path d="M 315.309613 163.458577 
L 317.168731 164.061024 
" style="fill: none; stroke: #000000; stroke-width: 0.8; stroke-linecap: square"/>
    </g>
    <g id="text_21">
     <!-- 1000 -->
     <g transform="translate(316.092344 184.689208) scale(0.1 -0.1)">
      <use xlink:href="#DejaVuSans-31"/>
      <use xlink:href="#DejaVuSans-30" x="63.623047"/>
      <use xlink:href="#DejaVuSans-30" x="127.246094"/>
      <use xlink:href="#DejaVuSans-30" x="190.869141"/>
     </g>
    </g>
   </g>
   <g id="xtick_17">
    <g id="line2d_22">
     <path d="M 324.373415 154.173548 
L 326.206921 154.752207 
" style="fill: none; stroke: #000000; stroke-width: 0.8; stroke-linecap: square"/>
    </g>
    <g id="text_22">
     <!-- 2000 -->
     <g transform="translate(324.901129 175.117086) scale(0.1 -0.1)">
      <use xlink:href="#DejaVuSans-32"/>
      <use xlink:href="#DejaVuSans-30" x="63.623047"/>
      <use xlink:href="#DejaVuSans-30" x="127.246094"/>
      <use xlink:href="#DejaVuSans-30" x="190.869141"/>
     </g>
    </g>
   </g>
   <g id="xtick_18">
    <g id="line2d_23">
     <path d="M 333.083005 145.251378 
L 334.891462 145.80763 
" style="fill: none; stroke: #000000; stroke-width: 0.8; stroke-linecap: square"/>
    </g>
    <g id="text_23">
     <!-- 5000 -->
     <g transform="translate(333.365123 165.919634) scale(0.1 -0.1)">
      <use xlink:href="#DejaVuSans-35"/>
      <use xlink:href="#DejaVuSans-30" x="63.623047"/>
      <use xlink:href="#DejaVuSans-30" x="127.246094"/>
      <use xlink:href="#DejaVuSans-30" x="190.869141"/>
     </g>
    </g>
   </g>
   <g id="xtick_19">
    <g id="line2d_24">
     <path d="M 341.458749 136.671202 
L 343.24271 137.206324 
" style="fill: none; stroke: #000000; stroke-width: 0.8; stroke-linecap: square"/>
    </g>
    <g id="text_24">
     <!-- 10000 -->
     <g transform="translate(338.322932 157.075275) scale(0.1 -0.1)">
      <use xlink:href="#DejaVuSans-31"/>
      <use xlink:href="#DejaVuSans-30" x="63.623047"/>
      <use xlink:href="#DejaVuSans-30" x="127.246094"/>
      <use xlink:href="#DejaVuSans-30" x="190.869141"/>
      <use xlink:href="#DejaVuSans-30" x="254.492188"/>
     </g>
    </g>
   </g>
   <g id="text_25">
    <!-- window -->
    <g transform="translate(349.426917 188.99679) rotate(-45.742112) scale(0.1 -0.1)">
     <use xlink:href="#DejaVuSans-77"/>
     <use xlink:href="#DejaVuSans-69" x="81.787109"/>
     <use xlink:href="#DejaVuSans-6e" x="109.570312"/>
     <use xlink:href="#DejaVuSans-64" x="172.949219"/>
     <use xlink:href="#DejaVuSans-6f" x="236.425781"/>
     <use xlink:href="#DejaVuSans-77" x="297.607422"/>
    </g>
   </g>
  </g>
  <g id="axis3d_6">
   <g id="line2d_25">
    <path d="M 352.397645 126.233198 
L 354.880477 72.014481 
" style="fill: none; stroke: #000000; stroke-width: 0.8; stroke-linecap: square"/>
   </g>
   <g id="xtick_20">
    <g id="line2d_26">
     <path d="M 351.905667 124.034183 
L 353.661847 124.542187 
" style="fill: none; stroke: #000000; stroke-width: 0.8; stroke-linecap: square"/>
    </g>
    <g id="text_26">
     <!-- $10^{-0.1}$ -->
     <g transform="translate(355.662988 129.212807) scale(0.1 -0.1)">
      <use xlink:href="#DejaVuSans-31" transform="translate(0 0.765625)"/>
      <use xlink:href="#DejaVuSans-30" transform="translate(63.623047 0.765625)"/>
      <use xlink:href="#DejaVuSans-2212" transform="translate(128.203125 39.046875) scale(0.7)"/>
      <use xlink:href="#DejaVuSans-30" transform="translate(186.855469 39.046875) scale(0.7)"/>
      <use xlink:href="#DejaVuSans-2e" transform="translate(231.391602 39.046875) scale(0.7)"/>
      <use xlink:href="#DejaVuSans-31" transform="translate(253.642578 39.046875) scale(0.7)"/>
     </g>
    </g>
   </g>
   <g id="xtick_21">
    <g id="line2d_27">
     <path d="M 352.182004 117.934576 
L 353.947361 118.437835 
" style="fill: none; stroke: #000000; stroke-width: 0.8; stroke-linecap: square"/>
    </g>
    <g id="text_27">
     <!-- $10^{0.0}$ -->
     <g transform="translate(358.931821 123.135879) scale(0.1 -0.1)">
      <use xlink:href="#DejaVuSans-31" transform="translate(0 0.765625)"/>
      <use xlink:href="#DejaVuSans-30" transform="translate(63.623047 0.765625)"/>
      <use xlink:href="#DejaVuSans-30" transform="translate(128.203125 39.046875) scale(0.7)"/>
      <use xlink:href="#DejaVuSans-2e" transform="translate(172.739258 39.046875) scale(0.7)"/>
      <use xlink:href="#DejaVuSans-30" transform="translate(194.990234 39.046875) scale(0.7)"/>
     </g>
    </g>
   </g>
   <g id="xtick_22">
    <g id="line2d_28">
     <path d="M 352.461136 111.773289 
L 354.235764 112.271682 
" style="fill: none; stroke: #000000; stroke-width: 0.8; stroke-linecap: square"/>
    </g>
    <g id="text_28">
     <!-- $10^{0.1}$ -->
     <g transform="translate(359.304363 116.997852) scale(0.1 -0.1)">
      <use xlink:href="#DejaVuSans-31" transform="translate(0 0.765625)"/>
      <use xlink:href="#DejaVuSans-30" transform="translate(63.623047 0.765625)"/>
      <use xlink:href="#DejaVuSans-30" transform="translate(128.203125 39.046875) scale(0.7)"/>
      <use xlink:href="#DejaVuSans-2e" transform="translate(172.739258 39.046875) scale(0.7)"/>
      <use xlink:href="#DejaVuSans-31" transform="translate(194.990234 39.046875) scale(0.7)"/>
     </g>
    </g>
   </g>
   <g id="xtick_23">
    <g id="line2d_29">
     <path d="M 352.743104 105.549382 
L 354.527103 106.042784 
" style="fill: none; stroke: #000000; stroke-width: 0.8; stroke-linecap: square"/>
    </g>
    <g id="text_29">
     <!-- $10^{0.2}$ -->
     <g transform="translate(359.88067 110.797801) scale(0.1 -0.1)">
      <use xlink:href="#DejaVuSans-31" transform="translate(0 0.765625)"/>
      <use xlink:href="#DejaVuSans-30" transform="translate(63.623047 0.765625)"/>
      <use xlink:href="#DejaVuSans-30" transform="translate(128.203125 39.046875) scale(0.7)"/>
      <use xlink:href="#DejaVuSans-2e" transform="translate(172.739258 39.046875) scale(0.7)"/>
      <use xlink:href="#DejaVuSans-32" transform="translate(191.140234 39.046875) scale(0.7)"/>
     </g>
    </g>
   </g>
   <g id="xtick_24">
    <g id="line2d_30">
     <path d="M 353.027953 99.261896 
L 354.821421 99.750179 
" style="fill: none; stroke: #000000; stroke-width: 0.8; stroke-linecap: square"/>
    </g>
    <g id="text_30">
     <!-- $10^{0.3}$ -->
     <g transform="translate(360.060798 104.534781) scale(0.1 -0.1)">
      <defs>
       <path id="DejaVuSans-33" d="M 2597 2516 
Q 3050 2419 3304 2112 
Q 3559 1806 3559 1356 
Q 3559 666 3084 287 
Q 2609 -91 1734 -91 
Q 1441 -91 1130 -33 
Q 819 25 488 141 
L 488 750 
Q 750 597 1062 519 
Q 1375 441 1716 441 
Q 2309 441 2620 675 
Q 2931 909 2931 1356 
Q 2931 1769 2642 2001 
Q 2353 2234 1838 2234 
L 1294 2234 
L 1294 2753 
L 1863 2753 
Q 2328 2753 2575 2939 
Q 2822 3125 2822 3475 
Q 2822 3834 2567 4026 
Q 2313 4219 1838 4219 
Q 1578 4219 1281 4162 
Q 984 4106 628 3988 
L 628 4550 
Q 988 4650 1302 4700 
Q 1616 4750 1894 4750 
Q 2613 4750 3031 4423 
Q 3450 4097 3450 3541 
Q 3450 3153 3228 2886 
Q 3006 2619 2597 2516 
z
" transform="scale(0.015625)"/>
      </defs>
      <use xlink:href="#DejaVuSans-31" transform="translate(0 0.765625)"/>
      <use xlink:href="#DejaVuSans-30" transform="translate(63.623047 0.765625)"/>
      <use xlink:href="#DejaVuSans-30" transform="translate(128.203125 39.046875) scale(0.7)"/>
      <use xlink:href="#DejaVuSans-2e" transform="translate(172.739258 39.046875) scale(0.7)"/>
      <use xlink:href="#DejaVuSans-33" transform="translate(194.990234 39.046875) scale(0.7)"/>
     </g>
    </g>
   </g>
   <g id="xtick_25">
    <g id="line2d_31">
     <path d="M 353.315727 92.909851 
L 355.118765 93.392883 
" style="fill: none; stroke: #000000; stroke-width: 0.8; stroke-linecap: square"/>
    </g>
    <g id="text_31">
     <!-- $10^{0.4}$ -->
     <g transform="translate(360.444807 98.207828) scale(0.1 -0.1)">
      <defs>
       <path id="DejaVuSans-34" d="M 2419 4116 
L 825 1625 
L 2419 1625 
L 2419 4116 
z
M 2253 4666 
L 3047 4666 
L 3047 1625 
L 3713 1625 
L 3713 1100 
L 3047 1100 
L 3047 0 
L 2419 0 
L 2419 1100 
L 313 1100 
L 313 1709 
L 2253 4666 
z
" transform="scale(0.015625)"/>
      </defs>
      <use xlink:href="#DejaVuSans-31" transform="translate(0 0.765625)"/>
      <use xlink:href="#DejaVuSans-30" transform="translate(63.623047 0.765625)"/>
      <use xlink:href="#DejaVuSans-30" transform="translate(128.203125 39.046875) scale(0.7)"/>
      <use xlink:href="#DejaVuSans-2e" transform="translate(172.739258 39.046875) scale(0.7)"/>
      <use xlink:href="#DejaVuSans-34" transform="translate(194.990234 39.046875) scale(0.7)"/>
     </g>
    </g>
   </g>
   <g id="xtick_26">
    <g id="line2d_32">
     <path d="M 353.606471 86.492248 
L 355.419182 86.969894 
" style="fill: none; stroke: #000000; stroke-width: 0.8; stroke-linecap: square"/>
    </g>
    <g id="text_32">
     <!-- $10^{0.5}$ -->
     <g transform="translate(360.832756 91.815958) scale(0.1 -0.1)">
      <use xlink:href="#DejaVuSans-31" transform="translate(0 0.765625)"/>
      <use xlink:href="#DejaVuSans-30" transform="translate(63.623047 0.765625)"/>
      <use xlink:href="#DejaVuSans-30" transform="translate(128.203125 39.046875) scale(0.7)"/>
      <use xlink:href="#DejaVuSans-2e" transform="translate(172.739258 39.046875) scale(0.7)"/>
      <use xlink:href="#DejaVuSans-35" transform="translate(194.990234 39.046875) scale(0.7)"/>
     </g>
    </g>
   </g>
   <g id="xtick_27">
    <g id="line2d_33">
     <path d="M 353.90023 80.008067 
L 355.722719 80.48019 
" style="fill: none; stroke: #000000; stroke-width: 0.8; stroke-linecap: square"/>
    </g>
    <g id="text_33">
     <!-- $10^{0.6}$ -->
     <g transform="translate(361.224706 85.358166) scale(0.1 -0.1)">
      <defs>
       <path id="DejaVuSans-36" d="M 2113 2584 
Q 1688 2584 1439 2293 
Q 1191 2003 1191 1497 
Q 1191 994 1439 701 
Q 1688 409 2113 409 
Q 2538 409 2786 701 
Q 3034 994 3034 1497 
Q 3034 2003 2786 2293 
Q 2538 2584 2113 2584 
z
M 3366 4563 
L 3366 3988 
Q 3128 4100 2886 4159 
Q 2644 4219 2406 4219 
Q 1781 4219 1451 3797 
Q 1122 3375 1075 2522 
Q 1259 2794 1537 2939 
Q 1816 3084 2150 3084 
Q 2853 3084 3261 2657 
Q 3669 2231 3669 1497 
Q 3669 778 3244 343 
Q 2819 -91 2113 -91 
Q 1303 -91 875 529 
Q 447 1150 447 2328 
Q 447 3434 972 4092 
Q 1497 4750 2381 4750 
Q 2619 4750 2861 4703 
Q 3103 4656 3366 4563 
z
" transform="scale(0.015625)"/>
      </defs>
      <use xlink:href="#DejaVuSans-31" transform="translate(0 0.765625)"/>
      <use xlink:href="#DejaVuSans-30" transform="translate(63.623047 0.765625)"/>
      <use xlink:href="#DejaVuSans-30" transform="translate(128.203125 39.046875) scale(0.7)"/>
      <use xlink:href="#DejaVuSans-2e" transform="translate(172.739258 39.046875) scale(0.7)"/>
      <use xlink:href="#DejaVuSans-36" transform="translate(194.990234 39.046875) scale(0.7)"/>
     </g>
    </g>
   </g>
   <g id="xtick_28">
    <g id="line2d_34">
     <path d="M 354.197054 73.456267 
L 356.029425 73.922723 
" style="fill: none; stroke: #000000; stroke-width: 0.8; stroke-linecap: square"/>
    </g>
    <g id="text_34">
     <!-- $10^{0.7}$ -->
     <g transform="translate(361.920719 78.833428) scale(0.1 -0.1)">
      <defs>
       <path id="DejaVuSans-37" d="M 525 4666 
L 3525 4666 
L 3525 4397 
L 1831 0 
L 1172 0 
L 2766 4134 
L 525 4134 
L 525 4666 
z
" transform="scale(0.015625)"/>
      </defs>
      <use xlink:href="#DejaVuSans-31" transform="translate(0 0.765625)"/>
      <use xlink:href="#DejaVuSans-30" transform="translate(63.623047 0.765625)"/>
      <use xlink:href="#DejaVuSans-30" transform="translate(128.203125 39.046875) scale(0.7)"/>
      <use xlink:href="#DejaVuSans-2e" transform="translate(172.739258 39.046875) scale(0.7)"/>
      <use xlink:href="#DejaVuSans-37" transform="translate(189.565234 39.046875) scale(0.7)"/>
     </g>
    </g>
   </g>
   <g id="text_35">
    <!-- elapsed -->
    <g transform="translate(395.576133 114.01016) rotate(-87.378092) scale(0.1 -0.1)">
     <use xlink:href="#DejaVuSans-65"/>
     <use xlink:href="#DejaVuSans-6c" x="61.523438"/>
     <use xlink:href="#DejaVuSans-61" x="89.306641"/>
     <use xlink:href="#DejaVuSans-70" x="150.585938"/>
     <use xlink:href="#DejaVuSans-73" x="214.0625"/>
     <use xlink:href="#DejaVuSans-65" x="266.162109"/>
     <use xlink:href="#DejaVuSans-64" x="327.685547"/>
    </g>
   </g>
  </g>
  <g id="axes_2">
   <g id="Poly3DCollection_3">
    <path d="M 275.494777 108.912051 
L 305.880678 117.8534 
L 314.457991 110.087831 
L 284.442616 101.470454 
z
" clip-path="url(#p9f099bd783)" style="fill: #c30000"/>
    <path d="M 266.211041 116.633002 
L 296.974245 125.916942 
L 305.880678 117.8534 
L 275.494777 108.912051 
z
" clip-path="url(#p9f099bd783)" style="fill: #c30000"/>
    <path d="M 305.880678 117.8534 
L 337.616901 127.192094 
L 345.782038 119.080927 
L 314.457991 110.087831 
z
" clip-path="url(#p9f099bd783)" style="fill: #c30000"/>
    <path d="M 256.572131 124.649337 
L 287.719376 134.295944 
L 296.974245 125.916942 
L 266.211041 116.633002 
z
" clip-path="url(#p9f099bd783)" style="fill: #c30000"/>
    <path d="M 296.974245 125.916942 
L 329.13136 135.621547 
L 337.616901 127.192094 
L 305.880678 117.8534 
z
" clip-path="url(#p9f099bd783)" style="fill: #c30000"/>
    <path d="M 246.557268 132.97834 
L 278.095218 143.009288 
L 287.719376 134.295944 
L 256.572131 124.649337 
z
" clip-path="url(#p9f099bd783)" style="fill: #c30000"/>
    <path d="M 287.719376 134.295944 
L 320.306178 144.388396 
L 329.13136 135.621547 
L 296.974245 125.916942 
z
" clip-path="url(#p9f099bd783)" style="fill: #c30000"/>
    <path d="M 278.095218 143.009288 
L 311.120548 153.513311 
L 320.306178 144.388396 
L 287.719376 134.295944 
z
" clip-path="url(#p9f099bd783)" style="fill: #c30000"/>
   </g>
   <g id="text_36">
    <!-- graph+logarithm -->
    <g transform="translate(243.651563 37.432941) scale(0.12 -0.12)">
     <defs>
      <path id="DejaVuSans-67" d="M 2906 1791 
Q 2906 2416 2648 2759 
Q 2391 3103 1925 3103 
Q 1463 3103 1205 2759 
Q 947 2416 947 1791 
Q 947 1169 1205 825 
Q 1463 481 1925 481 
Q 2391 481 2648 825 
Q 2906 1169 2906 1791 
z
M 3481 434 
Q 3481 -459 3084 -895 
Q 2688 -1331 1869 -1331 
Q 1566 -1331 1297 -1286 
Q 1028 -1241 775 -1147 
L 775 -588 
Q 1028 -725 1275 -790 
Q 1522 -856 1778 -856 
Q 2344 -856 2625 -561 
Q 2906 -266 2906 331 
L 2906 616 
Q 2728 306 2450 153 
Q 2172 0 1784 0 
Q 1141 0 747 490 
Q 353 981 353 1791 
Q 353 2603 747 3093 
Q 1141 3584 1784 3584 
Q 2172 3584 2450 3431 
Q 2728 3278 2906 2969 
L 2906 3500 
L 3481 3500 
L 3481 434 
z
" transform="scale(0.015625)"/>
      <path id="DejaVuSans-68" d="M 3513 2113 
L 3513 0 
L 2938 0 
L 2938 2094 
Q 2938 2591 2744 2837 
Q 2550 3084 2163 3084 
Q 1697 3084 1428 2787 
Q 1159 2491 1159 1978 
L 1159 0 
L 581 0 
L 581 4863 
L 1159 4863 
L 1159 2956 
Q 1366 3272 1645 3428 
Q 1925 3584 2291 3584 
Q 2894 3584 3203 3211 
Q 3513 2838 3513 2113 
z
" transform="scale(0.015625)"/>
      <path id="DejaVuSans-2b" d="M 2944 4013 
L 2944 2272 
L 4684 2272 
L 4684 1741 
L 2944 1741 
L 2944 0 
L 2419 0 
L 2419 1741 
L 678 1741 
L 678 2272 
L 2419 2272 
L 2419 4013 
L 2944 4013 
z
" transform="scale(0.015625)"/>
      <path id="DejaVuSans-6d" d="M 3328 2828 
Q 3544 3216 3844 3400 
Q 4144 3584 4550 3584 
Q 5097 3584 5394 3201 
Q 5691 2819 5691 2113 
L 5691 0 
L 5113 0 
L 5113 2094 
Q 5113 2597 4934 2840 
Q 4756 3084 4391 3084 
Q 3944 3084 3684 2787 
Q 3425 2491 3425 1978 
L 3425 0 
L 2847 0 
L 2847 2094 
Q 2847 2600 2669 2842 
Q 2491 3084 2119 3084 
Q 1678 3084 1418 2786 
Q 1159 2488 1159 1978 
L 1159 0 
L 581 0 
L 581 3500 
L 1159 3500 
L 1159 2956 
Q 1356 3278 1631 3431 
Q 1906 3584 2284 3584 
Q 2666 3584 2933 3390 
Q 3200 3197 3328 2828 
z
" transform="scale(0.015625)"/>
     </defs>
     <use xlink:href="#DejaVuSans-67"/>
     <use xlink:href="#DejaVuSans-72" x="63.476562"/>
     <use xlink:href="#DejaVuSans-61" x="104.589844"/>
     <use xlink:href="#DejaVuSans-70" x="165.869141"/>
     <use xlink:href="#DejaVuSans-68" x="229.345703"/>
     <use xlink:href="#DejaVuSans-2b" x="292.724609"/>
     <use xlink:href="#DejaVuSans-6c" x="376.513672"/>
     <use xlink:href="#DejaVuSans-6f" x="404.296875"/>
     <use xlink:href="#DejaVuSans-67" x="465.478516"/>
     <use xlink:href="#DejaVuSans-61" x="528.955078"/>
     <use xlink:href="#DejaVuSans-72" x="590.234375"/>
     <use xlink:href="#DejaVuSans-69" x="631.347656"/>
     <use xlink:href="#DejaVuSans-74" x="659.130859"/>
     <use xlink:href="#DejaVuSans-68" x="698.339844"/>
     <use xlink:href="#DejaVuSans-6d" x="761.71875"/>
    </g>
   </g>
   <g id="Poly3DCollection_4">
    <path d="M 275.494777 108.912051 
L 284.442616 101.470454 
L 314.457991 110.087831 
L 305.880678 117.8534 
z
" clip-path="url(#p9f099bd783)" style="fill: #6f7f1f"/>
    <path d="M 275.494777 108.912051 
L 274.730865 65.251789 
L 284.005276 58.367895 
L 284.442616 101.470454 
z
" clip-path="url(#p9f099bd783)" style="fill: #b7d233"/>
    <path d="M 305.832849 124.398037 
L 305.880678 117.8534 
L 314.457991 110.087831 
L 314.365824 116.553119 
z
" clip-path="url(#p9f099bd783)" style="fill: #30bd8d"/>
    <path d="M 284.442616 101.470454 
L 284.005276 58.367895 
L 315.081637 66.340262 
L 314.457991 110.087831 
z
" clip-path="url(#p9f099bd783)" style="fill: #566318"/>
    <path d="M 314.365824 116.553119 
L 314.457991 110.087831 
L 345.782038 119.080927 
L 345.519167 125.637964 
z
" clip-path="url(#p9f099bd783)" style="fill: #175942"/>
    <path d="M 305.832849 124.398037 
L 314.365824 116.553119 
L 345.519167 125.637964 
L 337.393817 133.830092 
z
" clip-path="url(#p9f099bd783)" style="fill: #1d7255"/>
    <path d="M 266.211041 116.633002 
L 275.494777 108.912051 
L 305.880678 117.8534 
L 296.974245 125.916942 
z
" clip-path="url(#p9f099bd783)" style="fill: #760d6b"/>
    <path d="M 305.880678 117.8534 
L 337.616901 127.192094 
L 345.782038 119.080927 
L 314.457991 110.087831 
z
" clip-path="url(#p9f099bd783)" style="fill: #2aa47a"/>
    <path d="M 266.211041 116.633002 
L 265.093512 72.317742 
L 274.729385 65.167221 
L 275.494777 108.912051 
z
" clip-path="url(#p9f099bd783)" style="fill: #c316b2"/>
    <path d="M 296.974245 133.059065 
L 296.974245 125.916942 
L 305.880678 117.8534 
L 305.829118 124.908536 
z
" clip-path="url(#p9f099bd783)" style="fill: #718b91"/>
    <path d="M 275.494777 108.912051 
L 305.880678 117.8534 
L 306.204569 73.534762 
L 274.730865 65.251789 
z
" clip-path="url(#p9f099bd783)" style="fill: #b7d233"/>
    <path d="M 275.494777 108.912051 
L 274.729385 65.167221 
L 306.205197 73.448853 
L 305.880678 117.8534 
z
" clip-path="url(#p9f099bd783)" style="fill: #5c0a54"/>
    <path d="M 305.829118 124.908536 
L 305.880678 117.8534 
L 337.616901 127.192094 
L 337.376418 134.347807 
z
" clip-path="url(#p9f099bd783)" style="fill: #354244"/>
    <path d="M 305.832849 124.398037 
L 337.393817 133.830092 
L 337.616901 127.192094 
L 305.880678 117.8534 
z
" clip-path="url(#p9f099bd783)" style="fill: #30bd8d"/>
    <path d="M 305.880678 117.8534 
L 314.457991 110.087831 
L 315.081637 66.340262 
L 306.204569 73.534762 
z
" clip-path="url(#p9f099bd783)" style="fill: #566318"/>
    <path d="M 337.393817 133.830092 
L 345.519167 125.637964 
L 345.782038 119.080927 
L 337.616901 127.192094 
z
" clip-path="url(#p9f099bd783)" style="fill: #175942"/>
    <path d="M 296.974245 133.059065 
L 305.829118 124.908536 
L 337.376418 134.347807 
L 328.937375 142.865961 
z
" clip-path="url(#p9f099bd783)" style="fill: #445457"/>
    <path d="M 274.730865 65.251789 
L 306.204569 73.534762 
L 315.081637 66.340262 
L 284.005276 58.367895 
z
" clip-path="url(#p9f099bd783)" style="fill: #9fb62c"/>
    <path d="M 256.572131 124.649337 
L 266.211041 116.633002 
L 296.974245 125.916942 
L 287.719376 134.295944 
z
" clip-path="url(#p9f099bd783)" style="fill: #458080"/>
    <path d="M 296.974245 125.916942 
L 329.13136 135.621547 
L 337.616901 127.192094 
L 305.880678 117.8534 
z
" clip-path="url(#p9f099bd783)" style="fill: #62797e"/>
    <path d="M 256.572131 124.649337 
L 255.084444 80.025127 
L 265.100307 72.587181 
L 266.211041 116.633002 
z
" clip-path="url(#p9f099bd783)" style="fill: #71d3d5"/>
    <path d="M 287.775309 141.561759 
L 287.719376 134.295944 
L 296.974245 125.916942 
L 296.974245 133.093858 
z
" clip-path="url(#p9f099bd783)" style="fill: #4f0ca1"/>
    <path d="M 266.211041 116.633002 
L 265.100307 72.587181 
L 296.974245 81.202214 
L 296.974245 125.916942 
z
" clip-path="url(#p9f099bd783)" style="fill: #366464"/>
    <path d="M 266.211041 116.633002 
L 296.974245 125.916942 
L 296.974245 80.928463 
L 265.093512 72.317742 
z
" clip-path="url(#p9f099bd783)" style="fill: #c316b2"/>
    <path d="M 296.974245 133.093858 
L 296.974245 125.916942 
L 329.13136 135.621547 
L 328.93643 142.901246 
z
" clip-path="url(#p9f099bd783)" style="fill: #25064c"/>
    <path d="M 296.974245 133.059065 
L 328.937375 142.865961 
L 329.13136 135.621547 
L 296.974245 125.916942 
z
" clip-path="url(#p9f099bd783)" style="fill: #718b91"/>
    <path d="M 296.974245 125.916942 
L 305.880678 117.8534 
L 306.205197 73.448853 
L 296.974245 80.928463 
z
" clip-path="url(#p9f099bd783)" style="fill: #5c0a54"/>
    <path d="M 328.937375 142.865961 
L 337.376418 134.347807 
L 337.616901 127.192094 
L 329.13136 135.621547 
z
" clip-path="url(#p9f099bd783)" style="fill: #354244"/>
    <path d="M 287.775309 141.561759 
L 296.974245 133.093858 
L 328.93643 142.901246 
L 320.161932 151.758683 
z
" clip-path="url(#p9f099bd783)" style="fill: #300861"/>
    <path d="M 265.093512 72.317742 
L 296.974245 80.928463 
L 306.205197 73.448853 
L 274.729385 65.167221 
z
" clip-path="url(#p9f099bd783)" style="fill: #aa139a"/>
    <path d="M 246.557268 132.97834 
L 256.572131 124.649337 
L 287.719376 134.295944 
L 278.095218 143.009288 
z
" clip-path="url(#p9f099bd783)" style="fill: #5f5652"/>
    <path d="M 287.719376 134.295944 
L 320.306178 144.388396 
L 329.13136 135.621547 
L 296.974245 125.916942 
z
" clip-path="url(#p9f099bd783)" style="fill: #450b8c"/>
    <path d="M 246.557268 132.97834 
L 244.62875 86.940508 
L 255.057366 79.212898 
L 256.572131 124.649337 
z
" clip-path="url(#p9f099bd783)" style="fill: #9d8e88"/>
    <path d="M 278.211012 150.329813 
L 278.095218 143.009288 
L 287.719376 134.295944 
L 287.775037 141.52654 
z
" clip-path="url(#p9f099bd783)" style="fill: #9912ac"/>
    <path d="M 256.572131 124.649337 
L 287.719376 134.295944 
L 287.370606 88.989359 
L 255.084444 80.025127 
z
" clip-path="url(#p9f099bd783)" style="fill: #71d3d5"/>
    <path d="M 256.572131 124.649337 
L 255.057366 79.212898 
L 287.364252 88.164011 
L 287.719376 134.295944 
z
" clip-path="url(#p9f099bd783)" style="fill: #4a4340"/>
    <path d="M 287.775309 141.561759 
L 320.161932 151.758683 
L 320.306178 144.388396 
L 287.719376 134.295944 
z
" clip-path="url(#p9f099bd783)" style="fill: #4f0ca1"/>
    <path d="M 287.775037 141.52654 
L 287.719376 134.295944 
L 320.306178 144.388396 
L 320.162631 151.722962 
z
" clip-path="url(#p9f099bd783)" style="fill: #480851"/>
    <path d="M 287.719376 134.295944 
L 296.974245 125.916942 
L 296.974245 81.202214 
L 287.370606 88.989359 
z
" clip-path="url(#p9f099bd783)" style="fill: #366464"/>
    <path d="M 320.161932 151.758683 
L 328.93643 142.901246 
L 329.13136 135.621547 
L 320.306178 144.388396 
z
" clip-path="url(#p9f099bd783)" style="fill: #25064c"/>
    <path d="M 278.211012 150.329813 
L 287.775037 141.52654 
L 320.162631 151.722962 
L 311.031749 160.939441 
z
" clip-path="url(#p9f099bd783)" style="fill: #5d0b68"/>
    <path d="M 255.084444 80.025127 
L 287.370606 88.989359 
L 296.974245 81.202214 
L 265.100307 72.587181 
z
" clip-path="url(#p9f099bd783)" style="fill: #63b7b9"/>
    <path d="M 278.095218 143.009288 
L 311.120548 153.513311 
L 320.306178 144.388396 
L 287.719376 134.295944 
z
" clip-path="url(#p9f099bd783)" style="fill: #850f96"/>
    <path d="M 246.557268 132.97834 
L 278.095218 143.009288 
L 277.355781 96.262198 
L 244.62875 86.940508 
z
" clip-path="url(#p9f099bd783)" style="fill: #9d8e88"/>
    <path d="M 278.211012 150.329813 
L 311.031749 160.939441 
L 311.120548 153.513311 
L 278.095218 143.009288 
z
" clip-path="url(#p9f099bd783)" style="fill: #9912ac"/>
    <path d="M 278.095218 143.009288 
L 287.719376 134.295944 
L 287.364252 88.164011 
L 277.355781 96.262198 
z
" clip-path="url(#p9f099bd783)" style="fill: #4a4340"/>
    <path d="M 311.031749 160.939441 
L 320.162631 151.722962 
L 320.306178 144.388396 
L 311.120548 153.513311 
z
" clip-path="url(#p9f099bd783)" style="fill: #480851"/>
    <path d="M 244.62875 86.940508 
L 277.355781 96.262198 
L 287.364252 88.164011 
L 255.057366 79.212898 
z
" clip-path="url(#p9f099bd783)" style="fill: #897c76"/>
   </g>
  </g>
  <g id="patch_10">
   <path d="M 387.105882 174.727059 
L 518.4 174.727059 
L 518.4 43.432941 
L 387.105882 43.432941 
z
" style="fill: #ffffff"/>
  </g>
  <g id="pane3d_7">
   <g id="patch_11">
    <path d="M 397.019494 142.354137 
L 440.377099 106.010932 
L 439.774387 53.597534 
L 394.341896 86.752097 
" style="fill: #f2f2f2; opacity: 0.5; stroke: #f2f2f2; stroke-linejoin: miter"/>
   </g>
  </g>
  <g id="pane3d_8">
   <g id="patch_12">
    <path d="M 440.377099 106.010932 
L 509.950586 126.233198 
L 512.433418 72.014481 
L 439.774387 53.597534 
" style="fill: #e6e6e6; opacity: 0.5; stroke: #e6e6e6; stroke-linejoin: miter"/>
   </g>
  </g>
  <g id="pane3d_9">
   <g id="patch_13">
    <path d="M 397.019494 142.354137 
L 470.770788 166.44131 
L 509.950586 126.233198 
L 440.377099 106.010932 
" style="fill: #ececec; opacity: 0.5; stroke: #ececec; stroke-linejoin: miter"/>
   </g>
  </g>
  <g id="grid3d_7">
   <g id="Line3DCollection_7">
    <path d="M 401.486259 143.812983 
L 444.608346 107.240789 
L 444.184534 54.715378 
" style="fill: none; stroke: #b0b0b0; stroke-width: 0.8"/>
    <path d="M 432.922987 154.080218 
L 474.323502 115.877812 
L 475.18797 62.573845 
" style="fill: none; stroke: #b0b0b0; stroke-width: 0.8"/>
   </g>
  </g>
  <g id="grid3d_8">
   <g id="Line3DCollection_8">
    <path d="M 397.483666 84.459376 
L 400.007199 139.849783 
L 473.481727 163.659219 
" style="fill: none; stroke: #b0b0b0; stroke-width: 0.8"/>
    <path d="M 407.979988 76.799639 
L 410.000179 131.473469 
L 482.537009 154.366272 
" style="fill: none; stroke: #b0b0b0; stroke-width: 0.8"/>
    <path d="M 418.06877 69.437305 
L 419.621689 123.408529 
L 491.238266 145.436641 
" style="fill: none; stroke: #b0b0b0; stroke-width: 0.8"/>
    <path d="M 427.773295 62.355385 
L 428.892063 115.637918 
L 499.605861 136.849431 
" style="fill: none; stroke: #b0b0b0; stroke-width: 0.8"/>
   </g>
  </g>
  <g id="grid3d_9">
   <g id="Line3DCollection_9">
    <path d="M 510.066957 123.691942 
L 440.348793 103.549345 
L 396.894195 139.752229 
" style="fill: none; stroke: #b0b0b0; stroke-width: 0.8"/>
    <path d="M 510.344569 117.629614 
L 440.281289 97.679039 
L 396.595207 133.543552 
" style="fill: none; stroke: #b0b0b0; stroke-width: 0.8"/>
    <path d="M 510.62497 111.506377 
L 440.213139 91.752568 
L 396.293101 127.27012 
" style="fill: none; stroke: #b0b0b0; stroke-width: 0.8"/>
    <path d="M 510.908202 105.321309 
L 440.144335 85.769123 
L 395.987827 120.930915 
" style="fill: none; stroke: #b0b0b0; stroke-width: 0.8"/>
    <path d="M 511.194309 99.073468 
L 440.074865 79.727877 
L 395.679336 114.524898 
" style="fill: none; stroke: #b0b0b0; stroke-width: 0.8"/>
    <path d="M 511.483334 92.761894 
L 440.004721 73.627989 
L 395.367576 108.051005 
" style="fill: none; stroke: #b0b0b0; stroke-width: 0.8"/>
    <path d="M 511.775323 86.385607 
L 439.933893 67.468602 
L 395.052496 101.508154 
" style="fill: none; stroke: #b0b0b0; stroke-width: 0.8"/>
    <path d="M 512.070321 79.943606 
L 439.862371 61.248839 
L 394.734041 94.895236 
" style="fill: none; stroke: #b0b0b0; stroke-width: 0.8"/>
    <path d="M 512.368375 73.434871 
L 439.790144 54.967809 
L 394.412158 88.211119 
" style="fill: none; stroke: #b0b0b0; stroke-width: 0.8"/>
   </g>
  </g>
  <g id="axis3d_7">
   <g id="line2d_35">
    <path d="M 397.019494 142.354137 
L 470.770788 166.44131 
" style="fill: none; stroke: #000000; stroke-width: 0.8; stroke-linecap: square"/>
   </g>
   <g id="xtick_29">
    <g id="line2d_36">
     <path d="M 401.861764 143.494514 
L 400.733638 144.451286 
" style="fill: none; stroke: #000000; stroke-width: 0.8; stroke-linecap: square"/>
    </g>
    <g id="text_37">
     <!-- 0.05 -->
     <g transform="translate(382.795548 167.18233) scale(0.1 -0.1)">
      <use xlink:href="#DejaVuSans-30"/>
      <use xlink:href="#DejaVuSans-2e" x="63.623047"/>
      <use xlink:href="#DejaVuSans-30" x="95.410156"/>
      <use xlink:href="#DejaVuSans-35" x="159.033203"/>
     </g>
    </g>
   </g>
   <g id="xtick_30">
    <g id="line2d_37">
     <path d="M 433.284174 153.746932 
L 432.199027 154.748253 
" style="fill: none; stroke: #000000; stroke-width: 0.8; stroke-linecap: square"/>
    </g>
    <g id="text_38">
     <!-- 0.1 -->
     <g transform="translate(417.481564 177.894679) scale(0.1 -0.1)">
      <use xlink:href="#DejaVuSans-30"/>
      <use xlink:href="#DejaVuSans-2e" x="63.623047"/>
      <use xlink:href="#DejaVuSans-31" x="95.410156"/>
     </g>
    </g>
   </g>
   <g id="text_39">
    <!-- support -->
    <g transform="translate(397.386452 186.318757) rotate(-341.912962) scale(0.1 -0.1)">
     <use xlink:href="#DejaVuSans-73"/>
     <use xlink:href="#DejaVuSans-75" x="52.099609"/>
     <use xlink:href="#DejaVuSans-70" x="115.478516"/>
     <use xlink:href="#DejaVuSans-70" x="178.955078"/>
     <use xlink:href="#DejaVuSans-6f" x="242.431641"/>
     <use xlink:href="#DejaVuSans-72" x="303.613281"/>
     <use xlink:href="#DejaVuSans-74" x="344.726562"/>
    </g>
   </g>
  </g>
  <g id="axis3d_8">
   <g id="line2d_38">
    <path d="M 509.950586 126.233198 
L 470.770788 166.44131 
" style="fill: none; stroke: #000000; stroke-width: 0.8; stroke-linecap: square"/>
   </g>
   <g id="xtick_31">
    <g id="line2d_39">
     <path d="M 472.862555 163.458577 
L 474.721672 164.061024 
" style="fill: none; stroke: #000000; stroke-width: 0.8; stroke-linecap: square"/>
    </g>
    <g id="text_40">
     <!-- 1000 -->
     <g transform="translate(473.645285 184.689208) scale(0.1 -0.1)">
      <use xlink:href="#DejaVuSans-31"/>
      <use xlink:href="#DejaVuSans-30" x="63.623047"/>
      <use xlink:href="#DejaVuSans-30" x="127.246094"/>
      <use xlink:href="#DejaVuSans-30" x="190.869141"/>
     </g>
    </g>
   </g>
   <g id="xtick_32">
    <g id="line2d_40">
     <path d="M 481.926357 154.173548 
L 483.759863 154.752207 
" style="fill: none; stroke: #000000; stroke-width: 0.8; stroke-linecap: square"/>
    </g>
    <g id="text_41">
     <!-- 2000 -->
     <g transform="translate(482.45407 175.117086) scale(0.1 -0.1)">
      <use xlink:href="#DejaVuSans-32"/>
      <use xlink:href="#DejaVuSans-30" x="63.623047"/>
      <use xlink:href="#DejaVuSans-30" x="127.246094"/>
      <use xlink:href="#DejaVuSans-30" x="190.869141"/>
     </g>
    </g>
   </g>
   <g id="xtick_33">
    <g id="line2d_41">
     <path d="M 490.635946 145.251378 
L 492.444403 145.80763 
" style="fill: none; stroke: #000000; stroke-width: 0.8; stroke-linecap: square"/>
    </g>
    <g id="text_42">
     <!-- 5000 -->
     <g transform="translate(490.918064 165.919634) scale(0.1 -0.1)">
      <use xlink:href="#DejaVuSans-35"/>
      <use xlink:href="#DejaVuSans-30" x="63.623047"/>
      <use xlink:href="#DejaVuSans-30" x="127.246094"/>
      <use xlink:href="#DejaVuSans-30" x="190.869141"/>
     </g>
    </g>
   </g>
   <g id="xtick_34">
    <g id="line2d_42">
     <path d="M 499.01169 136.671202 
L 500.795651 137.206324 
" style="fill: none; stroke: #000000; stroke-width: 0.8; stroke-linecap: square"/>
    </g>
    <g id="text_43">
     <!-- 10000 -->
     <g transform="translate(495.875873 157.075275) scale(0.1 -0.1)">
      <use xlink:href="#DejaVuSans-31"/>
      <use xlink:href="#DejaVuSans-30" x="63.623047"/>
      <use xlink:href="#DejaVuSans-30" x="127.246094"/>
      <use xlink:href="#DejaVuSans-30" x="190.869141"/>
      <use xlink:href="#DejaVuSans-30" x="254.492188"/>
     </g>
    </g>
   </g>
   <g id="text_44">
    <!-- window -->
    <g transform="translate(506.979859 188.99679) rotate(-45.742112) scale(0.1 -0.1)">
     <use xlink:href="#DejaVuSans-77"/>
     <use xlink:href="#DejaVuSans-69" x="81.787109"/>
     <use xlink:href="#DejaVuSans-6e" x="109.570312"/>
     <use xlink:href="#DejaVuSans-64" x="172.949219"/>
     <use xlink:href="#DejaVuSans-6f" x="236.425781"/>
     <use xlink:href="#DejaVuSans-77" x="297.607422"/>
    </g>
   </g>
  </g>
  <g id="axis3d_9">
   <g id="line2d_43">
    <path d="M 509.950586 126.233198 
L 512.433418 72.014481 
" style="fill: none; stroke: #000000; stroke-width: 0.8; stroke-linecap: square"/>
   </g>
   <g id="xtick_35">
    <g id="line2d_44">
     <path d="M 509.481773 123.522874 
L 511.238722 124.030482 
" style="fill: none; stroke: #000000; stroke-width: 0.8; stroke-linecap: square"/>
    </g>
    <g id="text_45">
     <!-- $10^{-0.1}$ -->
     <g transform="translate(513.246848 128.703386) scale(0.1 -0.1)">
      <use xlink:href="#DejaVuSans-31" transform="translate(0 0.765625)"/>
      <use xlink:href="#DejaVuSans-30" transform="translate(63.623047 0.765625)"/>
      <use xlink:href="#DejaVuSans-2212" transform="translate(128.203125 39.046875) scale(0.7)"/>
      <use xlink:href="#DejaVuSans-30" transform="translate(186.855469 39.046875) scale(0.7)"/>
      <use xlink:href="#DejaVuSans-2e" transform="translate(231.391602 39.046875) scale(0.7)"/>
      <use xlink:href="#DejaVuSans-31" transform="translate(253.642578 39.046875) scale(0.7)"/>
     </g>
    </g>
   </g>
   <g id="xtick_36">
    <g id="line2d_45">
     <path d="M 509.75635 117.462118 
L 511.522417 117.965007 
" style="fill: none; stroke: #000000; stroke-width: 0.8; stroke-linecap: square"/>
    </g>
    <g id="text_46">
     <!-- $10^{0.0}$ -->
     <g transform="translate(516.51333 122.665192) scale(0.1 -0.1)">
      <use xlink:href="#DejaVuSans-31" transform="translate(0 0.765625)"/>
      <use xlink:href="#DejaVuSans-30" transform="translate(63.623047 0.765625)"/>
      <use xlink:href="#DejaVuSans-30" transform="translate(128.203125 39.046875) scale(0.7)"/>
      <use xlink:href="#DejaVuSans-2e" transform="translate(172.739258 39.046875) scale(0.7)"/>
      <use xlink:href="#DejaVuSans-30" transform="translate(194.990234 39.046875) scale(0.7)"/>
     </g>
    </g>
   </g>
   <g id="xtick_37">
    <g id="line2d_46">
     <path d="M 510.033684 111.340494 
L 511.808964 111.838543 
" style="fill: none; stroke: #000000; stroke-width: 0.8; stroke-linecap: square"/>
    </g>
    <g id="text_47">
     <!-- $10^{0.1}$ -->
     <g transform="translate(516.883473 116.566704) scale(0.1 -0.1)">
      <use xlink:href="#DejaVuSans-31" transform="translate(0 0.765625)"/>
      <use xlink:href="#DejaVuSans-30" transform="translate(63.623047 0.765625)"/>
      <use xlink:href="#DejaVuSans-30" transform="translate(128.203125 39.046875) scale(0.7)"/>
      <use xlink:href="#DejaVuSans-2e" transform="translate(172.739258 39.046875) scale(0.7)"/>
      <use xlink:href="#DejaVuSans-31" transform="translate(194.990234 39.046875) scale(0.7)"/>
     </g>
    </g>
   </g>
   <g id="xtick_38">
    <g id="line2d_47">
     <path d="M 510.313818 105.157079 
L 512.098408 105.650165 
" style="fill: none; stroke: #000000; stroke-width: 0.8; stroke-linecap: square"/>
    </g>
    <g id="text_48">
     <!-- $10^{0.2}$ -->
     <g transform="translate(517.45733 110.407014) scale(0.1 -0.1)">
      <use xlink:href="#DejaVuSans-31" transform="translate(0 0.765625)"/>
      <use xlink:href="#DejaVuSans-30" transform="translate(63.623047 0.765625)"/>
      <use xlink:href="#DejaVuSans-30" transform="translate(128.203125 39.046875) scale(0.7)"/>
      <use xlink:href="#DejaVuSans-2e" transform="translate(172.739258 39.046875) scale(0.7)"/>
      <use xlink:href="#DejaVuSans-32" transform="translate(191.140234 39.046875) scale(0.7)"/>
     </g>
    </g>
   </g>
   <g id="xtick_39">
    <g id="line2d_48">
     <path d="M 510.596794 98.910935 
L 512.390791 99.39893 
" style="fill: none; stroke: #000000; stroke-width: 0.8; stroke-linecap: square"/>
    </g>
    <g id="text_49">
     <!-- $10^{0.3}$ -->
     <g transform="translate(517.634957 104.185197) scale(0.1 -0.1)">
      <use xlink:href="#DejaVuSans-31" transform="translate(0 0.765625)"/>
      <use xlink:href="#DejaVuSans-30" transform="translate(63.623047 0.765625)"/>
      <use xlink:href="#DejaVuSans-30" transform="translate(128.203125 39.046875) scale(0.7)"/>
      <use xlink:href="#DejaVuSans-2e" transform="translate(172.739258 39.046875) scale(0.7)"/>
      <use xlink:href="#DejaVuSans-33" transform="translate(194.990234 39.046875) scale(0.7)"/>
     </g>
    </g>
   </g>
   <g id="xtick_40">
    <g id="line2d_49">
     <path d="M 510.882656 92.6011 
L 512.686159 93.083875 
" style="fill: none; stroke: #000000; stroke-width: 0.8; stroke-linecap: square"/>
    </g>
    <g id="text_50">
     <!-- $10^{0.4}$ -->
     <g transform="translate(518.016413 97.900306) scale(0.1 -0.1)">
      <use xlink:href="#DejaVuSans-31" transform="translate(0 0.765625)"/>
      <use xlink:href="#DejaVuSans-30" transform="translate(63.623047 0.765625)"/>
      <use xlink:href="#DejaVuSans-30" transform="translate(128.203125 39.046875) scale(0.7)"/>
      <use xlink:href="#DejaVuSans-2e" transform="translate(172.739258 39.046875) scale(0.7)"/>
      <use xlink:href="#DejaVuSans-34" transform="translate(194.990234 39.046875) scale(0.7)"/>
     </g>
    </g>
   </g>
   <g id="xtick_41">
    <g id="line2d_50">
     <path d="M 511.171447 86.226597 
L 512.984559 86.704018 
" style="fill: none; stroke: #000000; stroke-width: 0.8; stroke-linecap: square"/>
    </g>
    <g id="text_51">
     <!-- $10^{0.5}$ -->
     <g transform="translate(518.401755 91.55138) scale(0.1 -0.1)">
      <use xlink:href="#DejaVuSans-31" transform="translate(0 0.765625)"/>
      <use xlink:href="#DejaVuSans-30" transform="translate(63.623047 0.765625)"/>
      <use xlink:href="#DejaVuSans-30" transform="translate(128.203125 39.046875) scale(0.7)"/>
      <use xlink:href="#DejaVuSans-2e" transform="translate(172.739258 39.046875) scale(0.7)"/>
      <use xlink:href="#DejaVuSans-35" transform="translate(194.990234 39.046875) scale(0.7)"/>
     </g>
    </g>
   </g>
   <g id="xtick_42">
    <g id="line2d_51">
     <path d="M 511.463213 79.786425 
L 513.286036 80.258357 
" style="fill: none; stroke: #000000; stroke-width: 0.8; stroke-linecap: square"/>
    </g>
    <g id="text_52">
     <!-- $10^{0.6}$ -->
     <g transform="translate(518.791044 85.137433) scale(0.1 -0.1)">
      <use xlink:href="#DejaVuSans-31" transform="translate(0 0.765625)"/>
      <use xlink:href="#DejaVuSans-30" transform="translate(63.623047 0.765625)"/>
      <use xlink:href="#DejaVuSans-30" transform="translate(128.203125 39.046875) scale(0.7)"/>
      <use xlink:href="#DejaVuSans-2e" transform="translate(172.739258 39.046875) scale(0.7)"/>
      <use xlink:href="#DejaVuSans-36" transform="translate(194.990234 39.046875) scale(0.7)"/>
     </g>
    </g>
   </g>
   <g id="xtick_43">
    <g id="line2d_52">
     <path d="M 511.758 73.279565 
L 513.590638 73.745868 
" style="fill: none; stroke: #000000; stroke-width: 0.8; stroke-linecap: square"/>
    </g>
    <g id="text_53">
     <!-- $10^{0.7}$ -->
     <g transform="translate(519.48434 78.657462) scale(0.1 -0.1)">
      <use xlink:href="#DejaVuSans-31" transform="translate(0 0.765625)"/>
      <use xlink:href="#DejaVuSans-30" transform="translate(63.623047 0.765625)"/>
      <use xlink:href="#DejaVuSans-30" transform="translate(128.203125 39.046875) scale(0.7)"/>
      <use xlink:href="#DejaVuSans-2e" transform="translate(172.739258 39.046875) scale(0.7)"/>
      <use xlink:href="#DejaVuSans-37" transform="translate(189.565234 39.046875) scale(0.7)"/>
     </g>
    </g>
   </g>
   <g id="text_54">
    <!-- elapsed -->
    <g transform="translate(553.129074 114.01016) rotate(-87.378092) scale(0.1 -0.1)">
     <use xlink:href="#DejaVuSans-65"/>
     <use xlink:href="#DejaVuSans-6c" x="61.523438"/>
     <use xlink:href="#DejaVuSans-61" x="89.306641"/>
     <use xlink:href="#DejaVuSans-70" x="150.585938"/>
     <use xlink:href="#DejaVuSans-73" x="214.0625"/>
     <use xlink:href="#DejaVuSans-65" x="266.162109"/>
     <use xlink:href="#DejaVuSans-64" x="327.685547"/>
    </g>
   </g>
  </g>
  <g id="axes_3">
   <g id="Poly3DCollection_5">
    <path d="M 433.03957 108.446315 
L 463.437072 117.381002 
L 472.017584 109.62121 
L 441.990889 101.010374 
z
" clip-path="url(#p8c3d6cc1f6)" style="fill: #c30000"/>
    <path d="M 423.752092 116.161504 
L 454.527186 125.438663 
L 463.437072 117.381002 
L 433.03957 108.446315 
z
" clip-path="url(#p8c3d6cc1f6)" style="fill: #c30000"/>
    <path d="M 463.437072 117.381002 
L 495.185947 126.712896 
L 503.353954 118.607626 
L 472.017584 109.62121 
z
" clip-path="url(#p8c3d6cc1f6)" style="fill: #c30000"/>
    <path d="M 414.109158 124.171975 
L 445.26859 133.811681 
L 454.527186 125.438663 
L 423.752092 116.161504 
z
" clip-path="url(#p8c3d6cc1f6)" style="fill: #c30000"/>
    <path d="M 454.527186 125.438663 
L 486.697293 135.136349 
L 495.185947 126.712896 
L 463.437072 117.381002 
z
" clip-path="url(#p8c3d6cc1f6)" style="fill: #c30000"/>
    <path d="M 404.089963 132.495009 
L 435.640403 142.518939 
L 445.26859 133.811681 
L 414.109158 124.171975 
z
" clip-path="url(#p8c3d6cc1f6)" style="fill: #c30000"/>
    <path d="M 445.26859 133.811681 
L 477.868735 143.897097 
L 486.697293 135.136349 
L 454.527186 125.438663 
z
" clip-path="url(#p8c3d6cc1f6)" style="fill: #c30000"/>
    <path d="M 435.640403 142.518939 
L 468.679439 153.015812 
L 477.868735 143.897097 
L 445.26859 133.811681 
z
" clip-path="url(#p8c3d6cc1f6)" style="fill: #c30000"/>
   </g>
   <g id="text_55">
    <!-- graph -->
    <g transform="translate(435.188879 37.432941) scale(0.12 -0.12)">
     <use xlink:href="#DejaVuSans-67"/>
     <use xlink:href="#DejaVuSans-72" x="63.476562"/>
     <use xlink:href="#DejaVuSans-61" x="104.589844"/>
     <use xlink:href="#DejaVuSans-70" x="165.869141"/>
     <use xlink:href="#DejaVuSans-68" x="229.345703"/>
    </g>
   </g>
   <g id="Poly3DCollection_6">
    <path d="M 433.03957 108.446315 
L 441.990889 101.010374 
L 472.017584 109.62121 
L 463.437072 117.381002 
z
" clip-path="url(#p8c3d6cc1f6)" style="fill: #0f243c"/>
    <path d="M 433.03957 108.446315 
L 432.280843 65.082436 
L 441.556522 58.200813 
L 441.990889 101.010374 
z
" clip-path="url(#p8c3d6cc1f6)" style="fill: #183c63"/>
    <path d="M 463.38559 124.425391 
L 463.437072 117.381002 
L 472.017584 109.62121 
L 471.91838 116.580145 
z
" clip-path="url(#p8c3d6cc1f6)" style="fill: #033ab8"/>
    <path d="M 441.990889 101.010374 
L 441.556522 58.200813 
L 472.636997 66.170553 
L 472.017584 109.62121 
z
" clip-path="url(#p8c3d6cc1f6)" style="fill: #0c1c2f"/>
    <path d="M 471.91838 116.580145 
L 472.017584 109.62121 
L 503.353954 118.607626 
L 503.07101 125.66537 
z
" clip-path="url(#p8c3d6cc1f6)" style="fill: #011b57"/>
    <path d="M 463.38559 124.425391 
L 471.91838 116.580145 
L 503.07101 125.66537 
L 494.945826 133.857834 
z
" clip-path="url(#p8c3d6cc1f6)" style="fill: #02236f"/>
    <path d="M 423.752092 116.161504 
L 433.03957 108.446315 
L 463.437072 117.381002 
L 454.527186 125.438663 
z
" clip-path="url(#p8c3d6cc1f6)" style="fill: #7a521d"/>
    <path d="M 463.437072 117.381002 
L 495.185947 126.712896 
L 503.353954 118.607626 
L 472.017584 109.62121 
z
" clip-path="url(#p8c3d6cc1f6)" style="fill: #0232a0"/>
    <path d="M 423.752092 116.161504 
L 422.633045 71.786044 
L 432.27315 64.642722 
L 433.03957 108.446315 
z
" clip-path="url(#p8c3d6cc1f6)" style="fill: #cb8731"/>
    <path d="M 454.527186 132.021963 
L 454.527186 125.438663 
L 463.437072 117.381002 
L 463.389547 123.883968 
z
" clip-path="url(#p8c3d6cc1f6)" style="fill: #8010a6"/>
    <path d="M 433.03957 108.446315 
L 463.437072 117.381002 
L 463.758768 73.362722 
L 432.280843 65.082436 
z
" clip-path="url(#p8c3d6cc1f6)" style="fill: #183c63"/>
    <path d="M 433.03957 108.446315 
L 432.27315 64.642722 
L 463.762032 72.916026 
L 463.437072 117.381002 
z
" clip-path="url(#p8c3d6cc1f6)" style="fill: #604017"/>
    <path d="M 463.38559 124.425391 
L 494.945826 133.857834 
L 495.185947 126.712896 
L 463.437072 117.381002 
z
" clip-path="url(#p8c3d6cc1f6)" style="fill: #033ab8"/>
    <path d="M 463.389547 123.883968 
L 463.437072 117.381002 
L 495.185947 126.712896 
L 494.964279 133.308747 
z
" clip-path="url(#p8c3d6cc1f6)" style="fill: #3c074e"/>
    <path d="M 463.437072 117.381002 
L 472.017584 109.62121 
L 472.636997 66.170553 
L 463.758768 73.362722 
z
" clip-path="url(#p8c3d6cc1f6)" style="fill: #0c1c2f"/>
    <path d="M 494.945826 133.857834 
L 503.07101 125.66537 
L 503.353954 118.607626 
L 495.185947 126.712896 
z
" clip-path="url(#p8c3d6cc1f6)" style="fill: #011b57"/>
    <path d="M 432.280843 65.082436 
L 463.758768 73.362722 
L 472.636997 66.170553 
L 441.556522 58.200813 
z
" clip-path="url(#p8c3d6cc1f6)" style="fill: #153456"/>
    <path d="M 454.527186 132.021963 
L 463.389547 123.883968 
L 494.964279 133.308747 
L 486.518482 141.814125 
z
" clip-path="url(#p8c3d6cc1f6)" style="fill: #4d0964"/>
    <path d="M 414.109158 124.171975 
L 423.752092 116.161504 
L 454.527186 125.438663 
L 445.26859 133.811681 
z
" clip-path="url(#p8c3d6cc1f6)" style="fill: #343613"/>
    <path d="M 454.527186 125.438663 
L 486.697293 135.136349 
L 495.185947 126.712896 
L 463.437072 117.381002 
z
" clip-path="url(#p8c3d6cc1f6)" style="fill: #6f0d90"/>
    <path d="M 414.109158 124.171975 
L 412.625373 79.664821 
L 422.644286 72.231794 
L 423.752092 116.161504 
z
" clip-path="url(#p8c3d6cc1f6)" style="fill: #575a1f"/>
    <path d="M 445.32825 141.561759 
L 445.26859 133.811681 
L 454.527186 125.438663 
L 454.527186 133.093858 
z
" clip-path="url(#p8c3d6cc1f6)" style="fill: #b38f69"/>
    <path d="M 423.752092 116.161504 
L 422.644286 72.231794 
L 454.527186 80.841138 
L 454.527186 125.438663 
z
" clip-path="url(#p8c3d6cc1f6)" style="fill: #292b0f"/>
    <path d="M 423.752092 116.161504 
L 454.527186 125.438663 
L 454.527186 80.388247 
L 422.633045 71.786044 
z
" clip-path="url(#p8c3d6cc1f6)" style="fill: #cb8731"/>
    <path d="M 454.527186 133.093858 
L 454.527186 125.438663 
L 486.697293 135.136349 
L 486.489372 142.901246 
z
" clip-path="url(#p8c3d6cc1f6)" style="fill: #554332"/>
    <path d="M 454.527186 132.021963 
L 486.518482 141.814125 
L 486.697293 135.136349 
L 454.527186 125.438663 
z
" clip-path="url(#p8c3d6cc1f6)" style="fill: #8010a6"/>
    <path d="M 454.527186 125.438663 
L 463.437072 117.381002 
L 463.762032 72.916026 
L 454.527186 80.388247 
z
" clip-path="url(#p8c3d6cc1f6)" style="fill: #604017"/>
    <path d="M 486.518482 141.814125 
L 494.964279 133.308747 
L 495.185947 126.712896 
L 486.697293 135.136349 
z
" clip-path="url(#p8c3d6cc1f6)" style="fill: #3c074e"/>
    <path d="M 445.32825 141.561759 
L 454.527186 133.093858 
L 486.489372 142.901246 
L 477.714873 151.758683 
z
" clip-path="url(#p8c3d6cc1f6)" style="fill: #6c5640"/>
    <path d="M 422.633045 71.786044 
L 454.527186 80.388247 
L 463.762032 72.916026 
L 432.27315 64.642722 
z
" clip-path="url(#p8c3d6cc1f6)" style="fill: #b0752a"/>
    <path d="M 404.089963 132.495009 
L 414.109158 124.171975 
L 445.26859 133.811681 
L 435.640403 142.518939 
z
" clip-path="url(#p8c3d6cc1f6)" style="fill: #0a6a00"/>
    <path d="M 445.26859 133.811681 
L 477.868735 143.897097 
L 486.697293 135.136349 
L 454.527186 125.438663 
z
" clip-path="url(#p8c3d6cc1f6)" style="fill: #9b7c5b"/>
    <path d="M 404.089963 132.495009 
L 402.189432 87.125295 
L 412.616382 79.395139 
L 414.109158 124.171975 
z
" clip-path="url(#p8c3d6cc1f6)" style="fill: #11af01"/>
    <path d="M 435.746593 149.232282 
L 435.640403 142.518939 
L 445.26859 133.811681 
L 445.319633 140.442381 
z
" clip-path="url(#p8c3d6cc1f6)" style="fill: #52331d"/>
    <path d="M 414.109158 124.171975 
L 445.26859 133.811681 
L 444.920729 88.623237 
L 412.625373 79.664821 
z
" clip-path="url(#p8c3d6cc1f6)" style="fill: #575a1f"/>
    <path d="M 414.109158 124.171975 
L 412.616382 79.395139 
L 444.918619 88.349198 
L 445.26859 133.811681 
z
" clip-path="url(#p8c3d6cc1f6)" style="fill: #085300"/>
    <path d="M 445.32825 141.561759 
L 477.714873 151.758683 
L 477.868735 143.897097 
L 445.26859 133.811681 
z
" clip-path="url(#p8c3d6cc1f6)" style="fill: #b38f69"/>
    <path d="M 445.319633 140.442381 
L 445.26859 133.811681 
L 477.868735 143.897097 
L 477.737093 150.623344 
z
" clip-path="url(#p8c3d6cc1f6)" style="fill: #27180e"/>
    <path d="M 445.26859 133.811681 
L 454.527186 125.438663 
L 454.527186 80.841138 
L 444.920729 88.623237 
z
" clip-path="url(#p8c3d6cc1f6)" style="fill: #292b0f"/>
    <path d="M 477.714873 151.758683 
L 486.489372 142.901246 
L 486.697293 135.136349 
L 477.868735 143.897097 
z
" clip-path="url(#p8c3d6cc1f6)" style="fill: #554332"/>
    <path d="M 412.625373 79.664821 
L 444.920729 88.623237 
L 454.527186 80.841138 
L 422.644286 72.231794 
z
" clip-path="url(#p8c3d6cc1f6)" style="fill: #4b4e1b"/>
    <path d="M 435.746593 149.232282 
L 445.319633 140.442381 
L 477.737093 150.623344 
L 468.598002 159.826214 
z
" clip-path="url(#p8c3d6cc1f6)" style="fill: #321f12"/>
    <path d="M 435.640403 142.518939 
L 468.679439 153.015812 
L 477.868735 143.897097 
L 445.26859 133.811681 
z
" clip-path="url(#p8c3d6cc1f6)" style="fill: #472c19"/>
    <path d="M 404.089963 132.495009 
L 435.640403 142.518939 
L 434.911693 96.449997 
L 402.189432 87.125295 
z
" clip-path="url(#p8c3d6cc1f6)" style="fill: #11af01"/>
    <path d="M 435.746593 149.232282 
L 468.598002 159.826214 
L 468.679439 153.015812 
L 435.640403 142.518939 
z
" clip-path="url(#p8c3d6cc1f6)" style="fill: #52331d"/>
    <path d="M 435.640403 142.518939 
L 445.26859 133.811681 
L 444.918619 88.349198 
L 434.911693 96.449997 
z
" clip-path="url(#p8c3d6cc1f6)" style="fill: #085300"/>
    <path d="M 468.598002 159.826214 
L 477.737093 150.623344 
L 477.868735 143.897097 
L 468.679439 153.015812 
z
" clip-path="url(#p8c3d6cc1f6)" style="fill: #27180e"/>
    <path d="M 402.189432 87.125295 
L 434.911693 96.449997 
L 444.918619 88.349198 
L 412.616382 79.395139 
z
" clip-path="url(#p8c3d6cc1f6)" style="fill: #0f9801"/>
   </g>
  </g>
 </g>
 <defs>
  <clipPath id="paa118fea3e">
   <rect x="72" y="43.432941" width="131.294118" height="131.294118"/>
  </clipPath>
  <clipPath id="p9f099bd783">
   <rect x="229.552941" y="43.432941" width="131.294118" height="131.294118"/>
  </clipPath>
  <clipPath id="p8c3d6cc1f6">
   <rect x="387.105882" y="43.432941" width="131.294118" height="131.294118"/>
  </clipPath>
 </defs>
</svg>
