<?xml version="1.0" encoding="utf-8" standalone="no"?>
<!DOCTYPE svg PUBLIC "-//W3C//DTD SVG 1.1//EN"
  "http://www.w3.org/Graphics/SVG/1.1/DTD/svg11.dtd">
<svg xmlns:xlink="http://www.w3.org/1999/xlink" width="576pt" height="216pt" viewBox="0 0 576 216" xmlns="http://www.w3.org/2000/svg" version="1.1">
 <metadata>
  <rdf:RDF xmlns:dc="http://purl.org/dc/elements/1.1/" xmlns:cc="http://creativecommons.org/ns#" xmlns:rdf="http://www.w3.org/1999/02/22-rdf-syntax-ns#">
   <cc:Work>
    <dc:type rdf:resource="http://purl.org/dc/dcmitype/StillImage"/>
    <dc:date>2025-08-13T11:03:39.678523</dc:date>
    <dc:format>image/svg+xml</dc:format>
    <dc:creator>
     <cc:Agent>
      <dc:title>Matplotlib v3.9.0, https://matplotlib.org/</dc:title>
     </cc:Agent>
    </dc:creator>
   </cc:Work>
  </rdf:RDF>
 </metadata>
 <defs>
  <style type="text/css">*{stroke-linejoin: round; stroke-linecap: butt}</style>
 </defs>
 <g id="figure_1">
  <g id="patch_1">
   <path d="M 0 216 
L 576 216 
L 576 0 
L 0 0 
z
" style="fill: #ffffff"/>
  </g>
  <g id="patch_2">
   <path d="M 72 174.727059 
L 203.294118 174.727059 
L 203.294118 43.432941 
L 72 43.432941 
z
" style="fill: #ffffff"/>
  </g>
  <g id="pane3d_1">
   <g id="patch_3">
    <path d="M 81.913611 142.354137 
L 125.271217 106.010932 
L 124.668505 53.597534 
L 79.236014 86.752097 
" style="fill: #f2f2f2; opacity: 0.5; stroke: #f2f2f2; stroke-linejoin: miter"/>
   </g>
  </g>
  <g id="pane3d_2">
   <g id="patch_4">
    <path d="M 125.271217 106.010932 
L 194.844704 126.233198 
L 197.327536 72.014481 
L 124.668505 53.597534 
" style="fill: #e6e6e6; opacity: 0.5; stroke: #e6e6e6; stroke-linejoin: miter"/>
   </g>
  </g>
  <g id="pane3d_3">
   <g id="patch_5">
    <path d="M 81.913611 142.354137 
L 155.664905 166.44131 
L 194.844704 126.233198 
L 125.271217 106.010932 
" style="fill: #ececec; opacity: 0.5; stroke: #ececec; stroke-linejoin: miter"/>
   </g>
  </g>
  <g id="grid3d_1">
   <g id="Line3DCollection_1">
    <path d="M 86.380377 143.812983 
L 129.502463 107.240789 
L 129.078651 54.715378 
" style="fill: none; stroke: #b0b0b0; stroke-width: 0.8"/>
    <path d="M 92.554088 145.829317 
L 135.346922 108.939542 
L 135.17208 56.259884 
" style="fill: none; stroke: #b0b0b0; stroke-width: 0.8"/>
    <path d="M 98.783843 147.863955 
L 141.240052 110.652442 
L 141.318438 57.817807 
" style="fill: none; stroke: #b0b0b0; stroke-width: 0.8"/>
    <path d="M 105.070407 149.917147 
L 147.182463 112.379666 
L 147.518421 59.389322 
" style="fill: none; stroke: #b0b0b0; stroke-width: 0.8"/>
    <path d="M 111.414563 151.989148 
L 153.174775 114.121395 
L 153.772732 60.974607 
" style="fill: none; stroke: #b0b0b0; stroke-width: 0.8"/>
    <path d="M 117.817105 154.080218 
L 159.21762 115.877812 
L 160.082088 62.573845 
" style="fill: none; stroke: #b0b0b0; stroke-width: 0.8"/>
    <path d="M 124.278842 156.190621 
L 165.31164 117.649103 
L 166.447219 64.187221 
" style="fill: none; stroke: #b0b0b0; stroke-width: 0.8"/>
    <path d="M 130.800599 158.320627 
L 171.457487 119.435458 
L 172.868869 65.814922 
" style="fill: none; stroke: #b0b0b0; stroke-width: 0.8"/>
    <path d="M 137.383217 160.47051 
L 177.655827 121.23707 
L 179.347794 67.45714 
" style="fill: none; stroke: #b0b0b0; stroke-width: 0.8"/>
    <path d="M 144.027552 162.64055 
L 183.907333 123.054136 
L 185.884762 69.114071 
" style="fill: none; stroke: #b0b0b0; stroke-width: 0.8"/>
   </g>
  </g>
  <g id="grid3d_2">
   <g id="Line3DCollection_2">
    <path d="M 82.377783 84.459376 
L 84.901317 139.849783 
L 158.375844 163.659219 
" style="fill: none; stroke: #b0b0b0; stroke-width: 0.8"/>
   </g>
  </g>
  <g id="grid3d_3">
   <g id="Line3DCollection_3">
    <path d="M 195.806601 105.227811 
L 125.037412 85.678696 
L 80.877329 120.835069 
" style="fill: none; stroke: #b0b0b0; stroke-width: 0.8"/>
    <path d="M 196.957667 80.091472 
L 124.75813 61.391569 
L 79.63547 95.047055 
" style="fill: none; stroke: #b0b0b0; stroke-width: 0.8"/>
   </g>
  </g>
  <g id="axis3d_1">
   <g id="line2d_1">
    <path d="M 81.913611 142.354137 
L 155.664905 166.44131 
" style="fill: none; stroke: #000000; stroke-width: 0.8; stroke-linecap: square"/>
   </g>
   <g id="xtick_1">
    <g id="line2d_2">
     <path d="M 86.755881 143.494514 
L 85.627756 144.451286 
" style="fill: none; stroke: #000000; stroke-width: 0.8; stroke-linecap: square"/>
    </g>
    <g id="text_1">
     <!-- 5 -->
     <g transform="translate(75.641228 167.18233) scale(0.1 -0.1)">
      <defs>
       <path id="DejaVuSans-35" d="M 691 4666 
L 3169 4666 
L 3169 4134 
L 1269 4134 
L 1269 2991 
Q 1406 3038 1543 3061 
Q 1681 3084 1819 3084 
Q 2600 3084 3056 2656 
Q 3513 2228 3513 1497 
Q 3513 744 3044 326 
Q 2575 -91 1722 -91 
Q 1428 -91 1123 -41 
Q 819 9 494 109 
L 494 744 
Q 775 591 1075 516 
Q 1375 441 1709 441 
Q 2250 441 2565 725 
Q 2881 1009 2881 1497 
Q 2881 1984 2565 2268 
Q 2250 2553 1709 2553 
Q 1456 2553 1204 2497 
Q 953 2441 691 2322 
L 691 4666 
z
" transform="scale(0.015625)"/>
      </defs>
      <use xlink:href="#DejaVuSans-35"/>
     </g>
    </g>
   </g>
   <g id="xtick_2">
    <g id="line2d_3">
     <path d="M 92.926862 145.507965 
L 91.806932 146.473406 
" style="fill: none; stroke: #000000; stroke-width: 0.8; stroke-linecap: square"/>
    </g>
    <g id="text_2">
     <!-- 10 -->
     <g transform="translate(78.646186 169.285783) scale(0.1 -0.1)">
      <defs>
       <path id="DejaVuSans-31" d="M 794 531 
L 1825 531 
L 1825 4091 
L 703 3866 
L 703 4441 
L 1819 4666 
L 2450 4666 
L 2450 531 
L 3481 531 
L 3481 0 
L 794 0 
L 794 531 
z
" transform="scale(0.015625)"/>
       <path id="DejaVuSans-30" d="M 2034 4250 
Q 1547 4250 1301 3770 
Q 1056 3291 1056 2328 
Q 1056 1369 1301 889 
Q 1547 409 2034 409 
Q 2525 409 2770 889 
Q 3016 1369 3016 2328 
Q 3016 3291 2770 3770 
Q 2525 4250 2034 4250 
z
M 2034 4750 
Q 2819 4750 3233 4129 
Q 3647 3509 3647 2328 
Q 3647 1150 3233 529 
Q 2819 -91 2034 -91 
Q 1250 -91 836 529 
Q 422 1150 422 2328 
Q 422 3509 836 4129 
Q 1250 4750 2034 4750 
z
" transform="scale(0.015625)"/>
      </defs>
      <use xlink:href="#DejaVuSans-31"/>
      <use xlink:href="#DejaVuSans-30" x="63.623047"/>
     </g>
    </g>
   </g>
   <g id="xtick_3">
    <g id="line2d_4">
     <path d="M 99.153821 147.53968 
L 98.042283 148.513908 
" style="fill: none; stroke: #000000; stroke-width: 0.8; stroke-linecap: square"/>
    </g>
    <g id="text_3">
     <!-- 20 -->
     <g transform="translate(84.888979 171.408477) scale(0.1 -0.1)">
      <defs>
       <path id="DejaVuSans-32" d="M 1228 531 
L 3431 531 
L 3431 0 
L 469 0 
L 469 531 
Q 828 903 1448 1529 
Q 2069 2156 2228 2338 
Q 2531 2678 2651 2914 
Q 2772 3150 2772 3378 
Q 2772 3750 2511 3984 
Q 2250 4219 1831 4219 
Q 1534 4219 1204 4116 
Q 875 4013 500 3803 
L 500 4441 
Q 881 4594 1212 4672 
Q 1544 4750 1819 4750 
Q 2544 4750 2975 4387 
Q 3406 4025 3406 3419 
Q 3406 3131 3298 2873 
Q 3191 2616 2906 2266 
Q 2828 2175 2409 1742 
Q 1991 1309 1228 531 
z
" transform="scale(0.015625)"/>
      </defs>
      <use xlink:href="#DejaVuSans-32"/>
      <use xlink:href="#DejaVuSans-30" x="63.623047"/>
     </g>
    </g>
   </g>
   <g id="xtick_4">
    <g id="line2d_5">
     <path d="M 105.437524 149.589909 
L 104.334577 150.573045 
" style="fill: none; stroke: #000000; stroke-width: 0.8; stroke-linecap: square"/>
    </g>
    <g id="text_4">
     <!-- 25 -->
     <g transform="translate(91.189138 173.550677) scale(0.1 -0.1)">
      <use xlink:href="#DejaVuSans-32"/>
      <use xlink:href="#DejaVuSans-35" x="63.623047"/>
     </g>
    </g>
   </g>
   <g id="xtick_5">
    <g id="line2d_6">
     <path d="M 111.77875 151.658907 
L 110.684598 152.651073 
" style="fill: none; stroke: #000000; stroke-width: 0.8; stroke-linecap: square"/>
    </g>
    <g id="text_5">
     <!-- 50 -->
     <g transform="translate(97.547457 175.712653) scale(0.1 -0.1)">
      <use xlink:href="#DejaVuSans-35"/>
      <use xlink:href="#DejaVuSans-30" x="63.623047"/>
     </g>
    </g>
   </g>
   <g id="xtick_6">
    <g id="line2d_7">
     <path d="M 118.178292 153.746932 
L 117.093145 154.748253 
" style="fill: none; stroke: #000000; stroke-width: 0.8; stroke-linecap: square"/>
    </g>
    <g id="text_6">
     <!-- 100 -->
     <g transform="translate(100.783494 177.894679) scale(0.1 -0.1)">
      <use xlink:href="#DejaVuSans-31"/>
      <use xlink:href="#DejaVuSans-30" x="63.623047"/>
      <use xlink:href="#DejaVuSans-30" x="127.246094"/>
     </g>
    </g>
   </g>
   <g id="xtick_7">
    <g id="line2d_8">
     <path d="M 124.636958 155.854248 
L 123.56103 156.864852 
" style="fill: none; stroke: #000000; stroke-width: 0.8; stroke-linecap: square"/>
    </g>
    <g id="text_7">
     <!-- 200 -->
     <g transform="translate(107.260575 180.097036) scale(0.1 -0.1)">
      <use xlink:href="#DejaVuSans-32"/>
      <use xlink:href="#DejaVuSans-30" x="63.623047"/>
      <use xlink:href="#DejaVuSans-30" x="127.246094"/>
     </g>
    </g>
   </g>
   <g id="xtick_8">
    <g id="line2d_9">
     <path d="M 131.155572 157.981123 
L 130.089081 159.00114 
" style="fill: none; stroke: #000000; stroke-width: 0.8; stroke-linecap: square"/>
    </g>
    <g id="text_8">
     <!-- 250 -->
     <g transform="translate(113.798289 182.32001) scale(0.1 -0.1)">
      <use xlink:href="#DejaVuSans-32"/>
      <use xlink:href="#DejaVuSans-35" x="63.623047"/>
      <use xlink:href="#DejaVuSans-30" x="127.246094"/>
     </g>
    </g>
   </g>
   <g id="xtick_9">
    <g id="line2d_10">
     <path d="M 137.734972 160.127832 
L 136.678141 161.157393 
" style="fill: none; stroke: #000000; stroke-width: 0.8; stroke-linecap: square"/>
    </g>
    <g id="text_9">
     <!-- 500 -->
     <g transform="translate(120.397491 184.563891) scale(0.1 -0.1)">
      <use xlink:href="#DejaVuSans-35"/>
      <use xlink:href="#DejaVuSans-30" x="63.623047"/>
      <use xlink:href="#DejaVuSans-30" x="127.246094"/>
     </g>
    </g>
   </g>
   <g id="xtick_10">
    <g id="line2d_11">
     <path d="M 144.376013 162.294652 
L 143.329071 163.333892 
" style="fill: none; stroke: #000000; stroke-width: 0.8; stroke-linecap: square"/>
    </g>
    <g id="text_10">
     <!-- 1000 -->
     <g transform="translate(123.877802 186.828977) scale(0.1 -0.1)">
      <use xlink:href="#DejaVuSans-31"/>
      <use xlink:href="#DejaVuSans-30" x="63.623047"/>
      <use xlink:href="#DejaVuSans-30" x="127.246094"/>
      <use xlink:href="#DejaVuSans-30" x="190.869141"/>
     </g>
    </g>
   </g>
   <g id="text_11">
    <!-- support -->
    <g transform="translate(82.28057 186.318757) rotate(-341.912962) scale(0.1 -0.1)">
     <defs>
      <path id="DejaVuSans-73" d="M 2834 3397 
L 2834 2853 
Q 2591 2978 2328 3040 
Q 2066 3103 1784 3103 
Q 1356 3103 1142 2972 
Q 928 2841 928 2578 
Q 928 2378 1081 2264 
Q 1234 2150 1697 2047 
L 1894 2003 
Q 2506 1872 2764 1633 
Q 3022 1394 3022 966 
Q 3022 478 2636 193 
Q 2250 -91 1575 -91 
Q 1294 -91 989 -36 
Q 684 19 347 128 
L 347 722 
Q 666 556 975 473 
Q 1284 391 1588 391 
Q 1994 391 2212 530 
Q 2431 669 2431 922 
Q 2431 1156 2273 1281 
Q 2116 1406 1581 1522 
L 1381 1569 
Q 847 1681 609 1914 
Q 372 2147 372 2553 
Q 372 3047 722 3315 
Q 1072 3584 1716 3584 
Q 2034 3584 2315 3537 
Q 2597 3491 2834 3397 
z
" transform="scale(0.015625)"/>
      <path id="DejaVuSans-75" d="M 544 1381 
L 544 3500 
L 1119 3500 
L 1119 1403 
Q 1119 906 1312 657 
Q 1506 409 1894 409 
Q 2359 409 2629 706 
Q 2900 1003 2900 1516 
L 2900 3500 
L 3475 3500 
L 3475 0 
L 2900 0 
L 2900 538 
Q 2691 219 2414 64 
Q 2138 -91 1772 -91 
Q 1169 -91 856 284 
Q 544 659 544 1381 
z
M 1991 3584 
L 1991 3584 
z
" transform="scale(0.015625)"/>
      <path id="DejaVuSans-70" d="M 1159 525 
L 1159 -1331 
L 581 -1331 
L 581 3500 
L 1159 3500 
L 1159 2969 
Q 1341 3281 1617 3432 
Q 1894 3584 2278 3584 
Q 2916 3584 3314 3078 
Q 3713 2572 3713 1747 
Q 3713 922 3314 415 
Q 2916 -91 2278 -91 
Q 1894 -91 1617 61 
Q 1341 213 1159 525 
z
M 3116 1747 
Q 3116 2381 2855 2742 
Q 2594 3103 2138 3103 
Q 1681 3103 1420 2742 
Q 1159 2381 1159 1747 
Q 1159 1113 1420 752 
Q 1681 391 2138 391 
Q 2594 391 2855 752 
Q 3116 1113 3116 1747 
z
" transform="scale(0.015625)"/>
      <path id="DejaVuSans-6f" d="M 1959 3097 
Q 1497 3097 1228 2736 
Q 959 2375 959 1747 
Q 959 1119 1226 758 
Q 1494 397 1959 397 
Q 2419 397 2687 759 
Q 2956 1122 2956 1747 
Q 2956 2369 2687 2733 
Q 2419 3097 1959 3097 
z
M 1959 3584 
Q 2709 3584 3137 3096 
Q 3566 2609 3566 1747 
Q 3566 888 3137 398 
Q 2709 -91 1959 -91 
Q 1206 -91 779 398 
Q 353 888 353 1747 
Q 353 2609 779 3096 
Q 1206 3584 1959 3584 
z
" transform="scale(0.015625)"/>
      <path id="DejaVuSans-72" d="M 2631 2963 
Q 2534 3019 2420 3045 
Q 2306 3072 2169 3072 
Q 1681 3072 1420 2755 
Q 1159 2438 1159 1844 
L 1159 0 
L 581 0 
L 581 3500 
L 1159 3500 
L 1159 2956 
Q 1341 3275 1631 3429 
Q 1922 3584 2338 3584 
Q 2397 3584 2469 3576 
Q 2541 3569 2628 3553 
L 2631 2963 
z
" transform="scale(0.015625)"/>
      <path id="DejaVuSans-74" d="M 1172 4494 
L 1172 3500 
L 2356 3500 
L 2356 3053 
L 1172 3053 
L 1172 1153 
Q 1172 725 1289 603 
Q 1406 481 1766 481 
L 2356 481 
L 2356 0 
L 1766 0 
Q 1100 0 847 248 
Q 594 497 594 1153 
L 594 3053 
L 172 3053 
L 172 3500 
L 594 3500 
L 594 4494 
L 1172 4494 
z
" transform="scale(0.015625)"/>
     </defs>
     <use xlink:href="#DejaVuSans-73"/>
     <use xlink:href="#DejaVuSans-75" x="52.099609"/>
     <use xlink:href="#DejaVuSans-70" x="115.478516"/>
     <use xlink:href="#DejaVuSans-70" x="178.955078"/>
     <use xlink:href="#DejaVuSans-6f" x="242.431641"/>
     <use xlink:href="#DejaVuSans-72" x="303.613281"/>
     <use xlink:href="#DejaVuSans-74" x="344.726562"/>
    </g>
   </g>
  </g>
  <g id="axis3d_2">
   <g id="line2d_12">
    <path d="M 194.844704 126.233198 
L 155.664905 166.44131 
" style="fill: none; stroke: #000000; stroke-width: 0.8; stroke-linecap: square"/>
   </g>
   <g id="xtick_11">
    <g id="line2d_13">
     <path d="M 157.756672 163.458577 
L 159.61579 164.061024 
" style="fill: none; stroke: #000000; stroke-width: 0.8; stroke-linecap: square"/>
    </g>
    <g id="text_12">
     <!-- -1 -->
     <g transform="translate(166.279246 184.689208) scale(0.1 -0.1)">
      <defs>
       <path id="DejaVuSans-2d" d="M 313 2009 
L 1997 2009 
L 1997 1497 
L 313 1497 
L 313 2009 
z
" transform="scale(0.015625)"/>
      </defs>
      <use xlink:href="#DejaVuSans-2d"/>
      <use xlink:href="#DejaVuSans-31" x="36.083984"/>
     </g>
    </g>
   </g>
   <g id="text_13">
    <!-- window -->
    <g transform="translate(191.873976 188.99679) rotate(-45.742112) scale(0.1 -0.1)">
     <defs>
      <path id="DejaVuSans-77" d="M 269 3500 
L 844 3500 
L 1563 769 
L 2278 3500 
L 2956 3500 
L 3675 769 
L 4391 3500 
L 4966 3500 
L 4050 0 
L 3372 0 
L 2619 2869 
L 1863 0 
L 1184 0 
L 269 3500 
z
" transform="scale(0.015625)"/>
      <path id="DejaVuSans-69" d="M 603 3500 
L 1178 3500 
L 1178 0 
L 603 0 
L 603 3500 
z
M 603 4863 
L 1178 4863 
L 1178 4134 
L 603 4134 
L 603 4863 
z
" transform="scale(0.015625)"/>
      <path id="DejaVuSans-6e" d="M 3513 2113 
L 3513 0 
L 2938 0 
L 2938 2094 
Q 2938 2591 2744 2837 
Q 2550 3084 2163 3084 
Q 1697 3084 1428 2787 
Q 1159 2491 1159 1978 
L 1159 0 
L 581 0 
L 581 3500 
L 1159 3500 
L 1159 2956 
Q 1366 3272 1645 3428 
Q 1925 3584 2291 3584 
Q 2894 3584 3203 3211 
Q 3513 2838 3513 2113 
z
" transform="scale(0.015625)"/>
      <path id="DejaVuSans-64" d="M 2906 2969 
L 2906 4863 
L 3481 4863 
L 3481 0 
L 2906 0 
L 2906 525 
Q 2725 213 2448 61 
Q 2172 -91 1784 -91 
Q 1150 -91 751 415 
Q 353 922 353 1747 
Q 353 2572 751 3078 
Q 1150 3584 1784 3584 
Q 2172 3584 2448 3432 
Q 2725 3281 2906 2969 
z
M 947 1747 
Q 947 1113 1208 752 
Q 1469 391 1925 391 
Q 2381 391 2643 752 
Q 2906 1113 2906 1747 
Q 2906 2381 2643 2742 
Q 2381 3103 1925 3103 
Q 1469 3103 1208 2742 
Q 947 2381 947 1747 
z
" transform="scale(0.015625)"/>
     </defs>
     <use xlink:href="#DejaVuSans-77"/>
     <use xlink:href="#DejaVuSans-69" x="81.787109"/>
     <use xlink:href="#DejaVuSans-6e" x="109.570312"/>
     <use xlink:href="#DejaVuSans-64" x="172.949219"/>
     <use xlink:href="#DejaVuSans-6f" x="236.425781"/>
     <use xlink:href="#DejaVuSans-77" x="297.607422"/>
    </g>
   </g>
  </g>
  <g id="axis3d_3">
   <g id="line2d_14">
    <path d="M 194.844704 126.233198 
L 197.327536 72.014481 
" style="fill: none; stroke: #000000; stroke-width: 0.8; stroke-linecap: square"/>
   </g>
   <g id="xtick_12">
    <g id="line2d_15">
     <path d="M 195.212171 105.063607 
L 196.996901 105.556617 
" style="fill: none; stroke: #000000; stroke-width: 0.8; stroke-linecap: square"/>
    </g>
    <g id="text_14">
     <!-- $10^{-1.0}$ -->
     <g transform="translate(199.257099 110.313903) scale(0.1 -0.1)">
      <defs>
       <path id="DejaVuSans-2212" d="M 678 2272 
L 4684 2272 
L 4684 1741 
L 678 1741 
L 678 2272 
z
" transform="scale(0.015625)"/>
       <path id="DejaVuSans-2e" d="M 684 794 
L 1344 794 
L 1344 0 
L 684 0 
L 684 794 
z
" transform="scale(0.015625)"/>
      </defs>
      <use xlink:href="#DejaVuSans-31" transform="translate(0 0.765625)"/>
      <use xlink:href="#DejaVuSans-30" transform="translate(63.623047 0.765625)"/>
      <use xlink:href="#DejaVuSans-2212" transform="translate(128.203125 39.046875) scale(0.7)"/>
      <use xlink:href="#DejaVuSans-31" transform="translate(186.855469 39.046875) scale(0.7)"/>
      <use xlink:href="#DejaVuSans-2e" transform="translate(231.391602 39.046875) scale(0.7)"/>
      <use xlink:href="#DejaVuSans-30" transform="translate(253.642578 39.046875) scale(0.7)"/>
     </g>
    </g>
   </g>
   <g id="xtick_13">
    <g id="line2d_16">
     <path d="M 196.350634 79.934249 
L 198.173233 80.406308 
" style="fill: none; stroke: #000000; stroke-width: 0.8; stroke-linecap: square"/>
    </g>
    <g id="text_15">
     <!-- $10^{0.0}$ -->
     <g transform="translate(203.676227 85.284651) scale(0.1 -0.1)">
      <use xlink:href="#DejaVuSans-31" transform="translate(0 0.765625)"/>
      <use xlink:href="#DejaVuSans-30" transform="translate(63.623047 0.765625)"/>
      <use xlink:href="#DejaVuSans-30" transform="translate(128.203125 39.046875) scale(0.7)"/>
      <use xlink:href="#DejaVuSans-2e" transform="translate(172.739258 39.046875) scale(0.7)"/>
      <use xlink:href="#DejaVuSans-30" transform="translate(194.990234 39.046875) scale(0.7)"/>
     </g>
    </g>
   </g>
   <g id="text_16">
    <!-- elapsed -->
    <g transform="translate(238.023192 114.01016) rotate(-87.378092) scale(0.1 -0.1)">
     <defs>
      <path id="DejaVuSans-65" d="M 3597 1894 
L 3597 1613 
L 953 1613 
Q 991 1019 1311 708 
Q 1631 397 2203 397 
Q 2534 397 2845 478 
Q 3156 559 3463 722 
L 3463 178 
Q 3153 47 2828 -22 
Q 2503 -91 2169 -91 
Q 1331 -91 842 396 
Q 353 884 353 1716 
Q 353 2575 817 3079 
Q 1281 3584 2069 3584 
Q 2775 3584 3186 3129 
Q 3597 2675 3597 1894 
z
M 3022 2063 
Q 3016 2534 2758 2815 
Q 2500 3097 2075 3097 
Q 1594 3097 1305 2825 
Q 1016 2553 972 2059 
L 3022 2063 
z
" transform="scale(0.015625)"/>
      <path id="DejaVuSans-6c" d="M 603 4863 
L 1178 4863 
L 1178 0 
L 603 0 
L 603 4863 
z
" transform="scale(0.015625)"/>
      <path id="DejaVuSans-61" d="M 2194 1759 
Q 1497 1759 1228 1600 
Q 959 1441 959 1056 
Q 959 750 1161 570 
Q 1363 391 1709 391 
Q 2188 391 2477 730 
Q 2766 1069 2766 1631 
L 2766 1759 
L 2194 1759 
z
M 3341 1997 
L 3341 0 
L 2766 0 
L 2766 531 
Q 2569 213 2275 61 
Q 1981 -91 1556 -91 
Q 1019 -91 701 211 
Q 384 513 384 1019 
Q 384 1609 779 1909 
Q 1175 2209 1959 2209 
L 2766 2209 
L 2766 2266 
Q 2766 2663 2505 2880 
Q 2244 3097 1772 3097 
Q 1472 3097 1187 3025 
Q 903 2953 641 2809 
L 641 3341 
Q 956 3463 1253 3523 
Q 1550 3584 1831 3584 
Q 2591 3584 2966 3190 
Q 3341 2797 3341 1997 
z
" transform="scale(0.015625)"/>
     </defs>
     <use xlink:href="#DejaVuSans-65"/>
     <use xlink:href="#DejaVuSans-6c" x="61.523438"/>
     <use xlink:href="#DejaVuSans-61" x="89.306641"/>
     <use xlink:href="#DejaVuSans-70" x="150.585938"/>
     <use xlink:href="#DejaVuSans-73" x="214.0625"/>
     <use xlink:href="#DejaVuSans-65" x="266.162109"/>
     <use xlink:href="#DejaVuSans-64" x="327.685547"/>
    </g>
   </g>
  </g>
  <g id="axes_1">
   <g id="Poly3DCollection_1">
    <path d="M 126.514658 64.510268 
L 126.446238 57.767 
L 132.556409 59.331907 
L 132.592766 66.096028 
z
" clip-path="url(#pc4764c05db)" style="fill: #105f2a"/>
    <path d="M 132.592766 66.096028 
L 132.577565 63.267793 
L 138.722075 64.858592 
L 138.723635 67.695553 
z
" clip-path="url(#pc4764c05db)" style="fill: #0c0625"/>
    <path d="M 138.725737 71.519776 
L 138.723635 67.695553 
L 144.907954 69.309024 
L 144.891346 73.144982 
z
" clip-path="url(#pc4764c05db)" style="fill: #012841"/>
    <path d="M 144.879582 75.862065 
L 144.907954 69.309024 
L 151.146426 70.936622 
L 151.08553 77.509752 
z
" clip-path="url(#pc4764c05db)" style="fill: #2e4836"/>
    <path d="M 151.000884 86.646312 
L 151.146426 70.936622 
L 157.439765 72.578536 
L 157.215134 88.335978 
z
" clip-path="url(#pc4764c05db)" style="fill: #5f4566"/>
    <path d="M 163.077841 111.0595 
L 163.788699 74.234953 
L 170.193967 75.906068 
L 169.292386 112.840241 
z
" clip-path="url(#pc4764c05db)" style="fill: #15312e"/>
    <path d="M 157.075314 98.144095 
L 157.439765 72.578536 
L 163.788699 74.234953 
L 163.293698 99.877491 
z
" clip-path="url(#pc4764c05db)" style="fill: #0f0319"/>
    <path d="M 169.292386 112.840241 
L 170.193967 75.906068 
L 176.656322 77.592077 
L 175.560687 114.636385 
z
" clip-path="url(#pc4764c05db)" style="fill: #06194f"/>
    <path d="M 175.550882 114.967933 
L 176.656322 77.592077 
L 183.176531 79.29318 
L 181.871876 116.780628 
z
" clip-path="url(#pc4764c05db)" style="fill: #4d2156"/>
    <path d="M 181.609001 124.333982 
L 183.176531 79.29318 
L 189.755375 81.009581 
L 187.944341 126.183859 
z
" clip-path="url(#pc4764c05db)" style="fill: #205a40"/>
    <path d="M 127.016343 144.234527 
L 163.077841 111.0595 
L 169.292386 112.840241 
L 133.563984 146.313187 
z
" clip-path="url(#pc4764c05db)" style="fill: #1b3e3b"/>
    <path d="M 87.374067 94.060582 
L 126.514658 64.510268 
L 132.592766 66.096028 
L 93.7611 95.912672 
z
" clip-path="url(#pc4764c05db)" style="fill: #157a36"/>
    <path d="M 87.374067 94.060582 
L 87.075808 86.940508 
L 126.446238 57.767 
L 126.514658 64.510268 
z
" clip-path="url(#pc4764c05db)" style="fill: #22ca5a"/>
    <path d="M 133.563984 146.313187 
L 169.292386 112.840241 
L 175.560687 114.636385 
L 140.17285 148.411283 
z
" clip-path="url(#pc4764c05db)" style="fill: #082065"/>
    <path d="M 120.343597 130.448815 
L 157.075314 98.144095 
L 163.293698 99.877491 
L 126.893981 132.473768 
z
" clip-path="url(#pc4764c05db)" style="fill: #130320"/>
    <path d="M 146.791956 158.813982 
L 181.609001 124.333982 
L 187.944341 126.183859 
L 153.478375 160.975603 
z
" clip-path="url(#pc4764c05db)" style="fill: #297352"/>
    <path d="M 93.7611 95.912672 
L 93.651209 92.926825 
L 132.577565 63.267793 
L 132.592766 66.096028 
z
" clip-path="url(#pc4764c05db)" style="fill: #1a0c4e"/>
    <path d="M 93.7611 95.912672 
L 132.592766 66.096028 
L 138.723635 67.695553 
L 100.208083 97.782146 
z
" clip-path="url(#pc4764c05db)" style="fill: #10072f"/>
    <path d="M 93.7611 95.912672 
L 132.592766 66.096028 
L 132.556409 59.331907 
L 93.498213 88.769811 
z
" clip-path="url(#pc4764c05db)" style="fill: #105f2a"/>
    <path d="M 113.635987 118.144612 
L 151.000884 86.646312 
L 157.215134 88.335978 
L 120.180212 120.11962 
z
" clip-path="url(#pc4764c05db)" style="fill: #7a5883"/>
    <path d="M 140.17263 148.759765 
L 175.550882 114.967933 
L 181.871876 116.780628 
L 146.841618 150.878585 
z
" clip-path="url(#pc4764c05db)" style="fill: #632a6e"/>
    <path d="M 100.335845 101.818184 
L 100.208083 97.782146 
L 138.723635 67.695553 
L 138.725737 71.519776 
z
" clip-path="url(#pc4764c05db)" style="fill: #03548a"/>
    <path d="M 87.075808 86.940508 
L 93.498213 88.769811 
L 132.556409 59.331907 
L 126.446238 57.767 
z
" clip-path="url(#pc4764c05db)" style="fill: #1eaf4e"/>
    <path d="M 100.335845 101.818184 
L 138.725737 71.519776 
L 144.891346 73.144982 
L 106.822921 103.718078 
z
" clip-path="url(#pc4764c05db)" style="fill: #023353"/>
    <path d="M 93.651209 92.926825 
L 100.113263 94.786773 
L 138.722075 64.858592 
L 132.577565 63.267793 
z
" clip-path="url(#pc4764c05db)" style="fill: #170a44"/>
    <path d="M 100.208083 97.782146 
L 138.723635 67.695553 
L 138.722075 64.858592 
L 100.113263 94.786773 
z
" clip-path="url(#pc4764c05db)" style="fill: #0c0625"/>
    <path d="M 106.898722 106.584731 
L 144.879582 75.862065 
L 151.08553 77.509752 
L 113.43212 108.511592 
z
" clip-path="url(#pc4764c05db)" style="fill: #3b5d45"/>
    <path d="M 106.898722 106.584731 
L 106.715862 99.66925 
L 144.907954 69.309024 
L 144.879582 75.862065 
z
" clip-path="url(#pc4764c05db)" style="fill: #629a73"/>
    <path d="M 100.208083 97.782146 
L 106.715862 99.66925 
L 144.907954 69.309024 
L 138.723635 67.695553 
z
" clip-path="url(#pc4764c05db)" style="fill: #034978"/>
    <path d="M 113.635987 118.144612 
L 113.285302 101.574234 
L 151.146426 70.936622 
L 151.000884 86.646312 
z
" clip-path="url(#pc4764c05db)" style="fill: #ca92d8"/>
    <path d="M 127.016343 144.234527 
L 126.612705 105.438869 
L 163.788699 74.234953 
L 163.077841 111.0595 
z
" clip-path="url(#pc4764c05db)" style="fill: #2c6761"/>
    <path d="M 106.822921 103.718078 
L 144.891346 73.144982 
L 144.907954 69.309024 
L 106.715862 99.66925 
z
" clip-path="url(#pc4764c05db)" style="fill: #012841"/>
    <path d="M 120.343597 130.448815 
L 119.917284 103.497353 
L 157.439765 72.578536 
L 157.075314 98.144095 
z
" clip-path="url(#pc4764c05db)" style="fill: #200535"/>
    <path d="M 113.43212 108.511592 
L 151.08553 77.509752 
L 151.146426 70.936622 
L 113.285302 101.574234 
z
" clip-path="url(#pc4764c05db)" style="fill: #2e4836"/>
    <path d="M 106.715862 99.66925 
L 113.285302 101.574234 
L 151.146426 70.936622 
L 144.907954 69.309024 
z
" clip-path="url(#pc4764c05db)" style="fill: #558564"/>
    <path d="M 120.180212 120.11962 
L 157.215134 88.335978 
L 157.439765 72.578536 
L 119.917284 103.497353 
z
" clip-path="url(#pc4764c05db)" style="fill: #5f4566"/>
    <path d="M 133.563984 146.313187 
L 169.292386 112.840241 
L 170.193967 75.906068 
L 133.37248 107.399045 
z
" clip-path="url(#pc4764c05db)" style="fill: #15312e"/>
    <path d="M 133.563984 146.313187 
L 133.37248 107.399045 
L 170.193967 75.906068 
L 169.292386 112.840241 
z
" clip-path="url(#pc4764c05db)" style="fill: #0d35a8"/>
    <path d="M 126.893981 132.473768 
L 163.293698 99.877491 
L 163.788699 74.234953 
L 126.612705 105.438869 
z
" clip-path="url(#pc4764c05db)" style="fill: #0f0319"/>
    <path d="M 113.285302 101.574234 
L 119.917284 103.497353 
L 157.439765 72.578536 
L 151.146426 70.936622 
z
" clip-path="url(#pc4764c05db)" style="fill: #af7fbc"/>
    <path d="M 140.17263 148.759765 
L 140.197541 109.378153 
L 176.656322 77.592077 
L 175.550882 114.967933 
z
" clip-path="url(#pc4764c05db)" style="fill: #a345b5"/>
    <path d="M 140.17285 148.411283 
L 175.560687 114.636385 
L 176.656322 77.592077 
L 140.197541 109.378153 
z
" clip-path="url(#pc4764c05db)" style="fill: #06194f"/>
    <path d="M 146.791956 158.813982 
L 147.088838 111.376468 
L 183.176531 79.29318 
L 181.609001 124.333982 
z
" clip-path="url(#pc4764c05db)" style="fill: #45bf88"/>
    <path d="M 119.917284 103.497353 
L 126.612705 105.438869 
L 163.788699 74.234953 
L 157.439765 72.578536 
z
" clip-path="url(#pc4764c05db)" style="fill: #1c052e"/>
    <path d="M 146.841618 150.878585 
L 181.871876 116.780628 
L 183.176531 79.29318 
L 147.088838 111.376468 
z
" clip-path="url(#pc4764c05db)" style="fill: #4d2156"/>
    <path d="M 153.478375 160.975603 
L 187.944341 126.183859 
L 189.755375 81.009581 
L 154.04734 113.394271 
z
" clip-path="url(#pc4764c05db)" style="fill: #205a40"/>
    <path d="M 126.612705 105.438869 
L 133.37248 107.399045 
L 170.193967 75.906068 
L 163.788699 74.234953 
z
" clip-path="url(#pc4764c05db)" style="fill: #265954"/>
    <path d="M 133.37248 107.399045 
L 140.197541 109.378153 
L 176.656322 77.592077 
L 170.193967 75.906068 
z
" clip-path="url(#pc4764c05db)" style="fill: #0b2e92"/>
    <path d="M 140.197541 109.378153 
L 147.088838 111.376468 
L 183.176531 79.29318 
L 176.656322 77.592077 
z
" clip-path="url(#pc4764c05db)" style="fill: #8e3c9d"/>
    <path d="M 87.374067 94.060582 
L 93.7611 95.912672 
L 93.498213 88.769811 
L 87.075808 86.940508 
z
" clip-path="url(#pc4764c05db)" style="fill: #22ca5a"/>
    <path d="M 147.088838 111.376468 
L 154.04734 113.394271 
L 189.755375 81.009581 
L 183.176531 79.29318 
z
" clip-path="url(#pc4764c05db)" style="fill: #3ca676"/>
    <path d="M 93.7611 95.912672 
L 100.208083 97.782146 
L 100.113263 94.786773 
L 93.651209 92.926825 
z
" clip-path="url(#pc4764c05db)" style="fill: #1a0c4e"/>
    <path d="M 100.335845 101.818184 
L 106.822921 103.718078 
L 106.715862 99.66925 
L 100.208083 97.782146 
z
" clip-path="url(#pc4764c05db)" style="fill: #03548a"/>
    <path d="M 106.898722 106.584731 
L 113.43212 108.511592 
L 113.285302 101.574234 
L 106.715862 99.66925 
z
" clip-path="url(#pc4764c05db)" style="fill: #629a73"/>
    <path d="M 113.635987 118.144612 
L 120.180212 120.11962 
L 119.917284 103.497353 
L 113.285302 101.574234 
z
" clip-path="url(#pc4764c05db)" style="fill: #ca92d8"/>
    <path d="M 127.016343 144.234527 
L 133.563984 146.313187 
L 133.37248 107.399045 
L 126.612705 105.438869 
z
" clip-path="url(#pc4764c05db)" style="fill: #2c6761"/>
    <path d="M 120.343597 130.448815 
L 126.893981 132.473768 
L 126.612705 105.438869 
L 119.917284 103.497353 
z
" clip-path="url(#pc4764c05db)" style="fill: #200535"/>
    <path d="M 133.563984 146.313187 
L 140.17285 148.411283 
L 140.197541 109.378153 
L 133.37248 107.399045 
z
" clip-path="url(#pc4764c05db)" style="fill: #0d35a8"/>
    <path d="M 140.17263 148.759765 
L 146.841618 150.878585 
L 147.088838 111.376468 
L 140.197541 109.378153 
z
" clip-path="url(#pc4764c05db)" style="fill: #a345b5"/>
    <path d="M 146.791956 158.813982 
L 153.478375 160.975603 
L 154.04734 113.394271 
L 147.088838 111.376468 
z
" clip-path="url(#pc4764c05db)" style="fill: #45bf88"/>
   </g>
   <g id="text_17">
    <!-- default -->
    <g transform="translate(116.535496 37.432941) scale(0.12 -0.12)">
     <defs>
      <path id="DejaVuSans-66" d="M 2375 4863 
L 2375 4384 
L 1825 4384 
Q 1516 4384 1395 4259 
Q 1275 4134 1275 3809 
L 1275 3500 
L 2222 3500 
L 2222 3053 
L 1275 3053 
L 1275 0 
L 697 0 
L 697 3053 
L 147 3053 
L 147 3500 
L 697 3500 
L 697 3744 
Q 697 4328 969 4595 
Q 1241 4863 1831 4863 
L 2375 4863 
z
" transform="scale(0.015625)"/>
     </defs>
     <use xlink:href="#DejaVuSans-64"/>
     <use xlink:href="#DejaVuSans-65" x="63.476562"/>
     <use xlink:href="#DejaVuSans-66" x="125"/>
     <use xlink:href="#DejaVuSans-61" x="160.205078"/>
     <use xlink:href="#DejaVuSans-75" x="221.484375"/>
     <use xlink:href="#DejaVuSans-6c" x="284.863281"/>
     <use xlink:href="#DejaVuSans-74" x="312.646484"/>
    </g>
   </g>
   <g id="Poly3DCollection_2">
    <path d="M 87.374067 94.060582 
L 93.7611 95.912672 
L 132.592766 66.096028 
L 126.514658 64.510268 
z
" clip-path="url(#pc4764c05db)" style="fill: #c30000"/>
    <path d="M 93.7611 95.912672 
L 100.208083 97.782146 
L 138.723635 67.695553 
L 132.592766 66.096028 
z
" clip-path="url(#pc4764c05db)" style="fill: #c30000"/>
    <path d="M 100.208083 97.782146 
L 106.715862 99.66925 
L 144.907954 69.309024 
L 138.723635 67.695553 
z
" clip-path="url(#pc4764c05db)" style="fill: #c30000"/>
    <path d="M 106.715862 99.66925 
L 113.285302 101.574234 
L 151.146426 70.936622 
L 144.907954 69.309024 
z
" clip-path="url(#pc4764c05db)" style="fill: #c30000"/>
    <path d="M 113.285302 101.574234 
L 119.917284 103.497353 
L 157.439765 72.578536 
L 151.146426 70.936622 
z
" clip-path="url(#pc4764c05db)" style="fill: #c30000"/>
    <path d="M 119.917284 103.497353 
L 126.612705 105.438869 
L 163.788699 74.234953 
L 157.439765 72.578536 
z
" clip-path="url(#pc4764c05db)" style="fill: #c30000"/>
    <path d="M 126.612705 105.438869 
L 133.37248 107.399045 
L 170.193967 75.906068 
L 163.788699 74.234953 
z
" clip-path="url(#pc4764c05db)" style="fill: #c30000"/>
    <path d="M 133.37248 107.399045 
L 140.197541 109.378153 
L 176.656322 77.592077 
L 170.193967 75.906068 
z
" clip-path="url(#pc4764c05db)" style="fill: #c30000"/>
    <path d="M 140.197541 109.378153 
L 147.088838 111.376468 
L 183.176531 79.29318 
L 176.656322 77.592077 
z
" clip-path="url(#pc4764c05db)" style="fill: #c30000"/>
    <path d="M 147.088838 111.376468 
L 154.04734 113.394271 
L 189.755375 81.009581 
L 183.176531 79.29318 
z
" clip-path="url(#pc4764c05db)" style="fill: #c30000"/>
   </g>
  </g>
  <g id="patch_6">
   <path d="M 229.552941 174.727059 
L 360.847059 174.727059 
L 360.847059 43.432941 
L 229.552941 43.432941 
z
" style="fill: #ffffff"/>
  </g>
  <g id="pane3d_4">
   <g id="patch_7">
    <path d="M 239.466552 142.354137 
L 282.824158 106.010932 
L 282.221446 53.597534 
L 236.788955 86.752097 
" style="fill: #f2f2f2; opacity: 0.5; stroke: #f2f2f2; stroke-linejoin: miter"/>
   </g>
  </g>
  <g id="pane3d_5">
   <g id="patch_8">
    <path d="M 282.824158 106.010932 
L 352.397645 126.233198 
L 354.880477 72.014481 
L 282.221446 53.597534 
" style="fill: #e6e6e6; opacity: 0.5; stroke: #e6e6e6; stroke-linejoin: miter"/>
   </g>
  </g>
  <g id="pane3d_6">
   <g id="patch_9">
    <path d="M 239.466552 142.354137 
L 313.217847 166.44131 
L 352.397645 126.233198 
L 282.824158 106.010932 
" style="fill: #ececec; opacity: 0.5; stroke: #ececec; stroke-linejoin: miter"/>
   </g>
  </g>
  <g id="grid3d_4">
   <g id="Line3DCollection_4">
    <path d="M 243.933318 143.812983 
L 287.055404 107.240789 
L 286.631593 54.715378 
" style="fill: none; stroke: #b0b0b0; stroke-width: 0.8"/>
    <path d="M 259.472916 148.888215 
L 301.758 111.514253 
L 301.964624 58.601855 
" style="fill: none; stroke: #b0b0b0; stroke-width: 0.8"/>
    <path d="M 275.370046 154.080218 
L 316.770561 115.877812 
L 317.635029 62.573845 
" style="fill: none; stroke: #b0b0b0; stroke-width: 0.8"/>
    <path d="M 291.637189 159.393067 
L 332.102995 120.334345 
L 333.654066 66.634204 
" style="fill: none; stroke: #b0b0b0; stroke-width: 0.8"/>
   </g>
  </g>
  <g id="grid3d_5">
   <g id="Line3DCollection_5">
    <path d="M 239.930725 84.459376 
L 242.454258 139.849783 
L 315.928785 163.659219 
" style="fill: none; stroke: #b0b0b0; stroke-width: 0.8"/>
    <path d="M 250.427047 76.799639 
L 252.447238 131.473469 
L 324.984068 154.366272 
" style="fill: none; stroke: #b0b0b0; stroke-width: 0.8"/>
    <path d="M 260.515829 69.437305 
L 262.068747 123.408529 
L 333.685325 145.436641 
" style="fill: none; stroke: #b0b0b0; stroke-width: 0.8"/>
    <path d="M 270.220354 62.355385 
L 271.339121 115.637918 
L 342.05292 136.849431 
" style="fill: none; stroke: #b0b0b0; stroke-width: 0.8"/>
   </g>
  </g>
  <g id="grid3d_6">
   <g id="Line3DCollection_6">
    <path d="M 352.479021 124.456147 
L 282.804363 104.28954 
L 239.378936 140.534716 
" style="fill: none; stroke: #b0b0b0; stroke-width: 0.8"/>
    <path d="M 353.57353 100.554868 
L 282.538392 81.160026 
L 238.199551 116.044027 
" style="fill: none; stroke: #b0b0b0; stroke-width: 0.8"/>
    <path d="M 354.712073 75.692 
L 282.262246 57.145613 
L 236.970856 90.529375 
" style="fill: none; stroke: #b0b0b0; stroke-width: 0.8"/>
   </g>
  </g>
  <g id="axis3d_4">
   <g id="line2d_17">
    <path d="M 239.466552 142.354137 
L 313.217847 166.44131 
" style="fill: none; stroke: #000000; stroke-width: 0.8; stroke-linecap: square"/>
   </g>
   <g id="xtick_14">
    <g id="line2d_18">
     <path d="M 244.308823 143.494514 
L 243.180697 144.451286 
" style="fill: none; stroke: #000000; stroke-width: 0.8; stroke-linecap: square"/>
    </g>
    <g id="text_18">
     <!-- 0.005 -->
     <g transform="translate(222.061357 167.18233) scale(0.1 -0.1)">
      <use xlink:href="#DejaVuSans-30"/>
      <use xlink:href="#DejaVuSans-2e" x="63.623047"/>
      <use xlink:href="#DejaVuSans-30" x="95.410156"/>
      <use xlink:href="#DejaVuSans-30" x="159.033203"/>
      <use xlink:href="#DejaVuSans-35" x="222.65625"/>
     </g>
    </g>
   </g>
   <g id="xtick_15">
    <g id="line2d_19">
     <path d="M 259.841473 148.562464 
L 258.734204 149.541131 
" style="fill: none; stroke: #000000; stroke-width: 0.8; stroke-linecap: square"/>
    </g>
    <g id="text_19">
     <!-- 0.01 -->
     <g transform="translate(240.814467 172.477122) scale(0.1 -0.1)">
      <use xlink:href="#DejaVuSans-30"/>
      <use xlink:href="#DejaVuSans-2e" x="63.623047"/>
      <use xlink:href="#DejaVuSans-30" x="95.410156"/>
      <use xlink:href="#DejaVuSans-31" x="159.033203"/>
     </g>
    </g>
   </g>
   <g id="xtick_16">
    <g id="line2d_20">
     <path d="M 275.731233 153.746932 
L 274.646086 154.748253 
" style="fill: none; stroke: #000000; stroke-width: 0.8; stroke-linecap: square"/>
    </g>
    <g id="text_20">
     <!-- 0.05 -->
     <g transform="translate(256.747373 177.894679) scale(0.1 -0.1)">
      <use xlink:href="#DejaVuSans-30"/>
      <use xlink:href="#DejaVuSans-2e" x="63.623047"/>
      <use xlink:href="#DejaVuSans-30" x="95.410156"/>
      <use xlink:href="#DejaVuSans-35" x="159.033203"/>
     </g>
    </g>
   </g>
   <g id="xtick_17">
    <g id="line2d_21">
     <path d="M 291.990562 159.051981 
L 290.928873 160.076753 
" style="fill: none; stroke: #000000; stroke-width: 0.8; stroke-linecap: square"/>
    </g>
    <g id="text_21">
     <!-- 0.1 -->
     <g transform="translate(276.235278 183.439319) scale(0.1 -0.1)">
      <use xlink:href="#DejaVuSans-30"/>
      <use xlink:href="#DejaVuSans-2e" x="63.623047"/>
      <use xlink:href="#DejaVuSans-31" x="95.410156"/>
     </g>
    </g>
   </g>
   <g id="text_22">
    <!-- support -->
    <g transform="translate(239.833511 186.318757) rotate(-341.912962) scale(0.1 -0.1)">
     <use xlink:href="#DejaVuSans-73"/>
     <use xlink:href="#DejaVuSans-75" x="52.099609"/>
     <use xlink:href="#DejaVuSans-70" x="115.478516"/>
     <use xlink:href="#DejaVuSans-70" x="178.955078"/>
     <use xlink:href="#DejaVuSans-6f" x="242.431641"/>
     <use xlink:href="#DejaVuSans-72" x="303.613281"/>
     <use xlink:href="#DejaVuSans-74" x="344.726562"/>
    </g>
   </g>
  </g>
  <g id="axis3d_5">
   <g id="line2d_22">
    <path d="M 352.397645 126.233198 
L 313.217847 166.44131 
" style="fill: none; stroke: #000000; stroke-width: 0.8; stroke-linecap: square"/>
   </g>
   <g id="xtick_18">
    <g id="line2d_23">
     <path d="M 315.309613 163.458577 
L 317.168731 164.061024 
" style="fill: none; stroke: #000000; stroke-width: 0.8; stroke-linecap: square"/>
    </g>
    <g id="text_23">
     <!-- 1000 -->
     <g transform="translate(316.092344 184.689208) scale(0.1 -0.1)">
      <use xlink:href="#DejaVuSans-31"/>
      <use xlink:href="#DejaVuSans-30" x="63.623047"/>
      <use xlink:href="#DejaVuSans-30" x="127.246094"/>
      <use xlink:href="#DejaVuSans-30" x="190.869141"/>
     </g>
    </g>
   </g>
   <g id="xtick_19">
    <g id="line2d_24">
     <path d="M 324.373415 154.173548 
L 326.206921 154.752207 
" style="fill: none; stroke: #000000; stroke-width: 0.8; stroke-linecap: square"/>
    </g>
    <g id="text_24">
     <!-- 2000 -->
     <g transform="translate(324.901129 175.117086) scale(0.1 -0.1)">
      <use xlink:href="#DejaVuSans-32"/>
      <use xlink:href="#DejaVuSans-30" x="63.623047"/>
      <use xlink:href="#DejaVuSans-30" x="127.246094"/>
      <use xlink:href="#DejaVuSans-30" x="190.869141"/>
     </g>
    </g>
   </g>
   <g id="xtick_20">
    <g id="line2d_25">
     <path d="M 333.083005 145.251378 
L 334.891462 145.80763 
" style="fill: none; stroke: #000000; stroke-width: 0.8; stroke-linecap: square"/>
    </g>
    <g id="text_25">
     <!-- 5000 -->
     <g transform="translate(333.365123 165.919634) scale(0.1 -0.1)">
      <use xlink:href="#DejaVuSans-35"/>
      <use xlink:href="#DejaVuSans-30" x="63.623047"/>
      <use xlink:href="#DejaVuSans-30" x="127.246094"/>
      <use xlink:href="#DejaVuSans-30" x="190.869141"/>
     </g>
    </g>
   </g>
   <g id="xtick_21">
    <g id="line2d_26">
     <path d="M 341.458749 136.671202 
L 343.24271 137.206324 
" style="fill: none; stroke: #000000; stroke-width: 0.8; stroke-linecap: square"/>
    </g>
    <g id="text_26">
     <!-- 10000 -->
     <g transform="translate(338.322932 157.075275) scale(0.1 -0.1)">
      <use xlink:href="#DejaVuSans-31"/>
      <use xlink:href="#DejaVuSans-30" x="63.623047"/>
      <use xlink:href="#DejaVuSans-30" x="127.246094"/>
      <use xlink:href="#DejaVuSans-30" x="190.869141"/>
      <use xlink:href="#DejaVuSans-30" x="254.492188"/>
     </g>
    </g>
   </g>
   <g id="text_27">
    <!-- window -->
    <g transform="translate(349.426917 188.99679) rotate(-45.742112) scale(0.1 -0.1)">
     <use xlink:href="#DejaVuSans-77"/>
     <use xlink:href="#DejaVuSans-69" x="81.787109"/>
     <use xlink:href="#DejaVuSans-6e" x="109.570312"/>
     <use xlink:href="#DejaVuSans-64" x="172.949219"/>
     <use xlink:href="#DejaVuSans-6f" x="236.425781"/>
     <use xlink:href="#DejaVuSans-77" x="297.607422"/>
    </g>
   </g>
  </g>
  <g id="axis3d_6">
   <g id="line2d_27">
    <path d="M 352.397645 126.233198 
L 354.880477 72.014481 
" style="fill: none; stroke: #000000; stroke-width: 0.8; stroke-linecap: square"/>
   </g>
   <g id="xtick_22">
    <g id="line2d_28">
     <path d="M 351.894219 124.286882 
L 353.650019 124.79508 
" style="fill: none; stroke: #000000; stroke-width: 0.8; stroke-linecap: square"/>
    </g>
    <g id="text_28">
     <!-- $10^{-1.0}$ -->
     <g transform="translate(355.647707 129.464574) scale(0.1 -0.1)">
      <use xlink:href="#DejaVuSans-31" transform="translate(0 0.765625)"/>
      <use xlink:href="#DejaVuSans-30" transform="translate(63.623047 0.765625)"/>
      <use xlink:href="#DejaVuSans-2212" transform="translate(128.203125 39.046875) scale(0.7)"/>
      <use xlink:href="#DejaVuSans-31" transform="translate(186.855469 39.046875) scale(0.7)"/>
      <use xlink:href="#DejaVuSans-2e" transform="translate(231.391602 39.046875) scale(0.7)"/>
      <use xlink:href="#DejaVuSans-30" transform="translate(253.642578 39.046875) scale(0.7)"/>
     </g>
    </g>
   </g>
   <g id="xtick_23">
    <g id="line2d_29">
     <path d="M 352.976758 100.39193 
L 354.768524 100.881139 
" style="fill: none; stroke: #000000; stroke-width: 0.8; stroke-linecap: square"/>
    </g>
    <g id="text_29">
     <!-- $10^{0.0}$ -->
     <g transform="translate(359.99248 105.660391) scale(0.1 -0.1)">
      <use xlink:href="#DejaVuSans-31" transform="translate(0 0.765625)"/>
      <use xlink:href="#DejaVuSans-30" transform="translate(63.623047 0.765625)"/>
      <use xlink:href="#DejaVuSans-30" transform="translate(128.203125 39.046875) scale(0.7)"/>
      <use xlink:href="#DejaVuSans-2e" transform="translate(172.739258 39.046875) scale(0.7)"/>
      <use xlink:href="#DejaVuSans-30" transform="translate(194.990234 39.046875) scale(0.7)"/>
     </g>
    </g>
   </g>
   <g id="xtick_24">
    <g id="line2d_30">
     <path d="M 354.102832 75.53604 
L 355.932065 76.004305 
" style="fill: none; stroke: #000000; stroke-width: 0.8; stroke-linecap: square"/>
    </g>
    <g id="text_30">
     <!-- $10^{1.0}$ -->
     <g transform="translate(361.495013 80.904568) scale(0.1 -0.1)">
      <use xlink:href="#DejaVuSans-31" transform="translate(0 0.765625)"/>
      <use xlink:href="#DejaVuSans-30" transform="translate(63.623047 0.765625)"/>
      <use xlink:href="#DejaVuSans-31" transform="translate(128.203125 39.046875) scale(0.7)"/>
      <use xlink:href="#DejaVuSans-2e" transform="translate(172.739258 39.046875) scale(0.7)"/>
      <use xlink:href="#DejaVuSans-30" transform="translate(194.990234 39.046875) scale(0.7)"/>
     </g>
    </g>
   </g>
   <g id="text_31">
    <!-- elapsed -->
    <g transform="translate(395.576133 114.01016) rotate(-87.378092) scale(0.1 -0.1)">
     <use xlink:href="#DejaVuSans-65"/>
     <use xlink:href="#DejaVuSans-6c" x="61.523438"/>
     <use xlink:href="#DejaVuSans-61" x="89.306641"/>
     <use xlink:href="#DejaVuSans-70" x="150.585938"/>
     <use xlink:href="#DejaVuSans-73" x="214.0625"/>
     <use xlink:href="#DejaVuSans-65" x="266.162109"/>
     <use xlink:href="#DejaVuSans-64" x="327.685547"/>
    </g>
   </g>
  </g>
  <g id="axes_2">
   <g id="Poly3DCollection_3">
    <path d="M 275.192296 91.624169 
L 290.432562 95.921222 
L 299.324281 88.53682 
L 284.269378 84.396772 
z
" clip-path="url(#pa4c2e5a3db)" style="fill: #c30000"/>
    <path d="M 290.432562 95.921222 
L 306.008868 100.313022 
L 314.704917 92.766443 
L 299.324281 88.53682 
z
" clip-path="url(#pa4c2e5a3db)" style="fill: #c30000"/>
    <path d="M 265.769574 99.126774 
L 281.198499 103.589935 
L 290.432562 95.921222 
L 275.192296 91.624169 
z
" clip-path="url(#pa4c2e5a3db)" style="fill: #c30000"/>
    <path d="M 306.008868 100.313022 
L 321.93245 104.802739 
L 330.421971 97.08858 
L 314.704917 92.766443 
z
" clip-path="url(#pa4c2e5a3db)" style="fill: #c30000"/>
    <path d="M 281.198499 103.589935 
L 296.974245 108.153421 
L 306.008868 100.313022 
L 290.432562 95.921222 
z
" clip-path="url(#pa4c2e5a3db)" style="fill: #c30000"/>
    <path d="M 321.93245 104.802739 
L 338.215054 109.393682 
L 346.486604 101.5063 
L 330.421971 97.08858 
z
" clip-path="url(#pa4c2e5a3db)" style="fill: #c30000"/>
    <path d="M 255.981089 106.920608 
L 271.601932 111.559699 
L 281.198499 103.589935 
L 265.769574 99.126774 
z
" clip-path="url(#pa4c2e5a3db)" style="fill: #c30000"/>
    <path d="M 296.974245 108.153421 
L 313.108639 112.820655 
L 321.93245 104.802739 
L 306.008868 100.313022 
z
" clip-path="url(#pa4c2e5a3db)" style="fill: #c30000"/>
    <path d="M 271.601932 111.559699 
L 287.580883 116.305141 
L 296.974245 108.153421 
L 281.198499 103.589935 
z
" clip-path="url(#pa4c2e5a3db)" style="fill: #c30000"/>
    <path d="M 313.108639 112.820655 
L 329.614053 117.595215 
L 338.215054 109.393682 
L 321.93245 104.802739 
z
" clip-path="url(#pa4c2e5a3db)" style="fill: #c30000"/>
    <path d="M 245.80512 115.022966 
L 261.621089 119.848598 
L 271.601932 111.559699 
L 255.981089 106.920608 
z
" clip-path="url(#pa4c2e5a3db)" style="fill: #c30000"/>
    <path d="M 287.580883 116.305141 
L 303.930398 121.160633 
L 313.108639 112.820655 
L 296.974245 108.153421 
z
" clip-path="url(#pa4c2e5a3db)" style="fill: #c30000"/>
    <path d="M 261.621089 119.848598 
L 277.806982 124.787098 
L 287.580883 116.305141 
L 271.601932 111.559699 
z
" clip-path="url(#pa4c2e5a3db)" style="fill: #c30000"/>
    <path d="M 303.930398 121.160633 
L 320.663518 126.130048 
L 329.614053 117.595215 
L 313.108639 112.820655 
z
" clip-path="url(#pa4c2e5a3db)" style="fill: #c30000"/>
    <path d="M 277.806982 124.787098 
L 294.375932 129.842472 
L 303.930398 121.160633 
L 287.580883 116.305141 
z
" clip-path="url(#pa4c2e5a3db)" style="fill: #c30000"/>
    <path d="M 294.375932 129.842472 
L 311.341699 135.01892 
L 320.663518 126.130048 
L 303.930398 121.160633 
z
" clip-path="url(#pa4c2e5a3db)" style="fill: #c30000"/>
   </g>
   <g id="text_32">
    <!-- graph+logarithm -->
    <g transform="translate(243.651563 37.432941) scale(0.12 -0.12)">
     <defs>
      <path id="DejaVuSans-67" d="M 2906 1791 
Q 2906 2416 2648 2759 
Q 2391 3103 1925 3103 
Q 1463 3103 1205 2759 
Q 947 2416 947 1791 
Q 947 1169 1205 825 
Q 1463 481 1925 481 
Q 2391 481 2648 825 
Q 2906 1169 2906 1791 
z
M 3481 434 
Q 3481 -459 3084 -895 
Q 2688 -1331 1869 -1331 
Q 1566 -1331 1297 -1286 
Q 1028 -1241 775 -1147 
L 775 -588 
Q 1028 -725 1275 -790 
Q 1522 -856 1778 -856 
Q 2344 -856 2625 -561 
Q 2906 -266 2906 331 
L 2906 616 
Q 2728 306 2450 153 
Q 2172 0 1784 0 
Q 1141 0 747 490 
Q 353 981 353 1791 
Q 353 2603 747 3093 
Q 1141 3584 1784 3584 
Q 2172 3584 2450 3431 
Q 2728 3278 2906 2969 
L 2906 3500 
L 3481 3500 
L 3481 434 
z
" transform="scale(0.015625)"/>
      <path id="DejaVuSans-68" d="M 3513 2113 
L 3513 0 
L 2938 0 
L 2938 2094 
Q 2938 2591 2744 2837 
Q 2550 3084 2163 3084 
Q 1697 3084 1428 2787 
Q 1159 2491 1159 1978 
L 1159 0 
L 581 0 
L 581 4863 
L 1159 4863 
L 1159 2956 
Q 1366 3272 1645 3428 
Q 1925 3584 2291 3584 
Q 2894 3584 3203 3211 
Q 3513 2838 3513 2113 
z
" transform="scale(0.015625)"/>
      <path id="DejaVuSans-2b" d="M 2944 4013 
L 2944 2272 
L 4684 2272 
L 4684 1741 
L 2944 1741 
L 2944 0 
L 2419 0 
L 2419 1741 
L 678 1741 
L 678 2272 
L 2419 2272 
L 2419 4013 
L 2944 4013 
z
" transform="scale(0.015625)"/>
      <path id="DejaVuSans-6d" d="M 3328 2828 
Q 3544 3216 3844 3400 
Q 4144 3584 4550 3584 
Q 5097 3584 5394 3201 
Q 5691 2819 5691 2113 
L 5691 0 
L 5113 0 
L 5113 2094 
Q 5113 2597 4934 2840 
Q 4756 3084 4391 3084 
Q 3944 3084 3684 2787 
Q 3425 2491 3425 1978 
L 3425 0 
L 2847 0 
L 2847 2094 
Q 2847 2600 2669 2842 
Q 2491 3084 2119 3084 
Q 1678 3084 1418 2786 
Q 1159 2488 1159 1978 
L 1159 0 
L 581 0 
L 581 3500 
L 1159 3500 
L 1159 2956 
Q 1356 3278 1631 3431 
Q 1906 3584 2284 3584 
Q 2666 3584 2933 3390 
Q 3200 3197 3328 2828 
z
" transform="scale(0.015625)"/>
     </defs>
     <use xlink:href="#DejaVuSans-67"/>
     <use xlink:href="#DejaVuSans-72" x="63.476562"/>
     <use xlink:href="#DejaVuSans-61" x="104.589844"/>
     <use xlink:href="#DejaVuSans-70" x="165.869141"/>
     <use xlink:href="#DejaVuSans-68" x="229.345703"/>
     <use xlink:href="#DejaVuSans-2b" x="292.724609"/>
     <use xlink:href="#DejaVuSans-6c" x="376.513672"/>
     <use xlink:href="#DejaVuSans-6f" x="404.296875"/>
     <use xlink:href="#DejaVuSans-67" x="465.478516"/>
     <use xlink:href="#DejaVuSans-61" x="528.955078"/>
     <use xlink:href="#DejaVuSans-72" x="590.234375"/>
     <use xlink:href="#DejaVuSans-69" x="631.347656"/>
     <use xlink:href="#DejaVuSans-74" x="659.130859"/>
     <use xlink:href="#DejaVuSans-68" x="698.339844"/>
     <use xlink:href="#DejaVuSans-6d" x="761.71875"/>
    </g>
   </g>
   <g id="Poly3DCollection_4">
    <path d="M 275.192296 91.624169 
L 284.269378 84.396772 
L 299.324281 88.53682 
L 290.432562 95.921222 
z
" clip-path="url(#pa4c2e5a3db)" style="fill: #3f7c27"/>
    <path d="M 284.269378 84.396772 
L 284.008044 58.640724 
L 299.373149 62.585479 
L 299.324281 88.53682 
z
" clip-path="url(#pa4c2e5a3db)" style="fill: #32611f"/>
    <path d="M 275.192296 91.624169 
L 274.735703 65.528325 
L 284.008044 58.640724 
L 284.269378 84.396772 
z
" clip-path="url(#pa4c2e5a3db)" style="fill: #69cd41"/>
    <path d="M 299.324281 88.53682 
L 299.343398 78.3849 
L 314.850721 82.538577 
L 314.704917 92.766443 
z
" clip-path="url(#pa4c2e5a3db)" style="fill: #2e592b"/>
    <path d="M 314.509891 106.447135 
L 314.704917 92.766443 
L 330.421971 97.08858 
L 330.050089 110.869172 
z
" clip-path="url(#pa4c2e5a3db)" style="fill: #240b61"/>
    <path d="M 290.432562 95.921222 
L 290.378335 85.637185 
L 299.343398 78.3849 
L 299.324281 88.53682 
z
" clip-path="url(#pa4c2e5a3db)" style="fill: #62bc5b"/>
    <path d="M 305.907616 114.16745 
L 314.509891 106.447135 
L 330.050089 110.869172 
L 321.64966 118.758989 
z
" clip-path="url(#pa4c2e5a3db)" style="fill: #2e0e7c"/>
    <path d="M 305.907616 114.16745 
L 306.008868 100.313022 
L 314.704917 92.766443 
L 314.509891 106.447135 
z
" clip-path="url(#pa4c2e5a3db)" style="fill: #4b17cd"/>
    <path d="M 290.432562 95.921222 
L 299.324281 88.53682 
L 314.704917 92.766443 
L 306.008868 100.313022 
z
" clip-path="url(#pa4c2e5a3db)" style="fill: #3b7237"/>
    <path d="M 321.431983 129.501759 
L 329.763725 121.480761 
L 345.501648 126.074946 
L 337.378951 134.272421 
z
" clip-path="url(#pa4c2e5a3db)" style="fill: #6b2155"/>
    <path d="M 329.763725 121.480761 
L 330.421971 97.08858 
L 346.486604 101.5063 
L 345.501648 126.074946 
z
" clip-path="url(#pa4c2e5a3db)" style="fill: #541a42"/>
    <path d="M 290.432562 95.921222 
L 299.324281 88.53682 
L 299.373149 62.585479 
L 290.293909 69.625862 
z
" clip-path="url(#pa4c2e5a3db)" style="fill: #32611f"/>
    <path d="M 321.431983 129.501759 
L 321.93245 104.802739 
L 330.421971 97.08858 
L 329.763725 121.480761 
z
" clip-path="url(#pa4c2e5a3db)" style="fill: #b1378c"/>
    <path d="M 265.769574 99.126774 
L 275.192296 91.624169 
L 290.432562 95.921222 
L 281.198499 103.589935 
z
" clip-path="url(#pa4c2e5a3db)" style="fill: #6d6d5e"/>
    <path d="M 290.378335 85.637185 
L 306.084592 89.951467 
L 314.850721 82.538577 
L 299.343398 78.3849 
z
" clip-path="url(#pa4c2e5a3db)" style="fill: #55a44f"/>
    <path d="M 275.192296 91.624169 
L 290.432562 95.921222 
L 290.293909 69.625862 
L 274.735703 65.528325 
z
" clip-path="url(#pa4c2e5a3db)" style="fill: #69cd41"/>
    <path d="M 275.192296 91.624169 
L 274.720208 64.642722 
L 290.289202 68.733277 
L 290.432562 95.921222 
z
" clip-path="url(#pa4c2e5a3db)" style="fill: #55554a"/>
    <path d="M 306.008868 100.313022 
L 314.704917 92.766443 
L 314.850721 82.538577 
L 306.084592 89.951467 
z
" clip-path="url(#pa4c2e5a3db)" style="fill: #2e592b"/>
    <path d="M 274.735703 65.528325 
L 290.293909 69.625862 
L 299.373149 62.585479 
L 284.008044 58.640724 
z
" clip-path="url(#pa4c2e5a3db)" style="fill: #5bb238"/>
    <path d="M 321.64966 118.758989 
L 330.050089 110.869172 
L 330.421971 97.08858 
L 321.93245 104.802739 
z
" clip-path="url(#pa4c2e5a3db)" style="fill: #240b61"/>
    <path d="M 306.008868 100.313022 
L 321.93245 104.802739 
L 330.421971 97.08858 
L 314.704917 92.766443 
z
" clip-path="url(#pa4c2e5a3db)" style="fill: #4114b2"/>
    <path d="M 290.432562 95.921222 
L 290.382858 86.494939 
L 306.078276 90.815758 
L 306.008868 100.313022 
z
" clip-path="url(#pa4c2e5a3db)" style="fill: #503d69"/>
    <path d="M 265.769574 99.126774 
L 265.080104 71.786044 
L 274.720208 64.642722 
L 275.192296 91.624169 
z
" clip-path="url(#pa4c2e5a3db)" style="fill: #b4b49c"/>
    <path d="M 290.432562 95.921222 
L 306.008868 100.313022 
L 306.084592 89.951467 
L 290.378335 85.637185 
z
" clip-path="url(#pa4c2e5a3db)" style="fill: #62bc5b"/>
    <path d="M 305.902929 114.808855 
L 306.008868 100.313022 
L 321.93245 104.802739 
L 321.636569 119.405024 
z
" clip-path="url(#pa4c2e5a3db)" style="fill: #315943"/>
    <path d="M 305.907616 114.16745 
L 321.64966 118.758989 
L 321.93245 104.802739 
L 306.008868 100.313022 
z
" clip-path="url(#pa4c2e5a3db)" style="fill: #4b17cd"/>
    <path d="M 281.198499 103.589935 
L 281.076308 94.040181 
L 290.382858 86.494939 
L 290.432562 95.921222 
z
" clip-path="url(#pa4c2e5a3db)" style="fill: #aa82df"/>
    <path d="M 337.378951 134.272421 
L 345.501648 126.074946 
L 346.486604 101.5063 
L 338.215054 109.393682 
z
" clip-path="url(#pa4c2e5a3db)" style="fill: #541a42"/>
    <path d="M 296.974245 122.83437 
L 305.902929 114.808855 
L 321.636569 119.405024 
L 312.913645 127.61006 
z
" clip-path="url(#pa4c2e5a3db)" style="fill: #3f7256"/>
    <path d="M 296.974245 122.83437 
L 296.974245 108.153421 
L 306.008868 100.313022 
L 305.902929 114.808855 
z
" clip-path="url(#pa4c2e5a3db)" style="fill: #68bd8e"/>
    <path d="M 281.198499 103.589935 
L 290.432562 95.921222 
L 306.008868 100.313022 
L 296.974245 108.153421 
z
" clip-path="url(#pa4c2e5a3db)" style="fill: #664e87"/>
    <path d="M 312.77887 137.832142 
L 321.431983 129.501759 
L 337.378951 134.272421 
L 328.939419 142.789649 
z
" clip-path="url(#pa4c2e5a3db)" style="fill: #2e1a4f"/>
    <path d="M 321.431983 129.501759 
L 337.378951 134.272421 
L 338.215054 109.393682 
L 321.93245 104.802739 
z
" clip-path="url(#pa4c2e5a3db)" style="fill: #b1378c"/>
    <path d="M 321.431983 129.501759 
L 321.93245 104.802739 
L 338.215054 109.393682 
L 337.378951 134.272421 
z
" clip-path="url(#pa4c2e5a3db)" style="fill: #24143d"/>
    <path d="M 321.93245 104.802739 
L 338.215054 109.393682 
L 346.486604 101.5063 
L 330.421971 97.08858 
z
" clip-path="url(#pa4c2e5a3db)" style="fill: #9a307a"/>
    <path d="M 281.198499 103.589935 
L 290.432562 95.921222 
L 290.289202 68.733277 
L 280.845972 76.038273 
z
" clip-path="url(#pa4c2e5a3db)" style="fill: #55554a"/>
    <path d="M 312.77887 137.832142 
L 313.108639 112.820655 
L 321.93245 104.802739 
L 321.431983 129.501759 
z
" clip-path="url(#pa4c2e5a3db)" style="fill: #4d2b82"/>
    <path d="M 281.076308 94.040181 
L 296.974245 98.531241 
L 306.078276 90.815758 
L 290.382858 86.494939 
z
" clip-path="url(#pa4c2e5a3db)" style="fill: #9371c2"/>
    <path d="M 255.981089 106.920608 
L 265.769574 99.126774 
L 281.198499 103.589935 
L 271.601932 111.559699 
z
" clip-path="url(#pa4c2e5a3db)" style="fill: #5f3f73"/>
    <path d="M 265.769574 99.126774 
L 265.107278 72.863624 
L 280.859869 77.124422 
L 281.198499 103.589935 
z
" clip-path="url(#pa4c2e5a3db)" style="fill: #4a315a"/>
    <path d="M 296.974245 108.153421 
L 306.008868 100.313022 
L 306.078276 90.815758 
L 296.974245 98.531241 
z
" clip-path="url(#pa4c2e5a3db)" style="fill: #503d69"/>
    <path d="M 265.769574 99.126774 
L 281.198499 103.589935 
L 280.845972 76.038273 
L 265.080104 71.786044 
z
" clip-path="url(#pa4c2e5a3db)" style="fill: #b4b49c"/>
    <path d="M 312.913645 127.61006 
L 321.636569 119.405024 
L 321.93245 104.802739 
L 313.108639 112.820655 
z
" clip-path="url(#pa4c2e5a3db)" style="fill: #315943"/>
    <path d="M 265.080104 71.786044 
L 280.845972 76.038273 
L 290.289202 68.733277 
L 274.720208 64.642722 
z
" clip-path="url(#pa4c2e5a3db)" style="fill: #9d9c87"/>
    <path d="M 296.974245 108.153421 
L 313.108639 112.820655 
L 321.93245 104.802739 
L 306.008868 100.313022 
z
" clip-path="url(#pa4c2e5a3db)" style="fill: #5aa47b"/>
    <path d="M 255.981089 106.920608 
L 255.093787 80.305392 
L 265.107278 72.863624 
L 265.769574 99.126774 
z
" clip-path="url(#pa4c2e5a3db)" style="fill: #9d69be"/>
    <path d="M 281.198499 103.589935 
L 296.974245 108.153421 
L 296.974245 98.531241 
L 281.076308 94.040181 
z
" clip-path="url(#pa4c2e5a3db)" style="fill: #aa82df"/>
    <path d="M 281.198499 103.589935 
L 281.062746 92.98018 
L 296.974245 97.463097 
L 296.974245 108.153421 
z
" clip-path="url(#pa4c2e5a3db)" style="fill: #5b311e"/>
    <path d="M 296.974245 122.83437 
L 296.974245 108.153421 
L 313.108639 112.820655 
L 312.913645 127.61006 
z
" clip-path="url(#pa4c2e5a3db)" style="fill: #131b0a"/>
    <path d="M 296.974245 122.83437 
L 312.913645 127.61006 
L 313.108639 112.820655 
L 296.974245 108.153421 
z
" clip-path="url(#pa4c2e5a3db)" style="fill: #68bd8e"/>
    <path d="M 328.939419 142.789649 
L 337.378951 134.272421 
L 338.215054 109.393682 
L 329.614053 117.595215 
z
" clip-path="url(#pa4c2e5a3db)" style="fill: #24143d"/>
    <path d="M 271.601932 111.559699 
L 271.379276 100.809801 
L 281.062746 92.98018 
L 281.198499 103.589935 
z
" clip-path="url(#pa4c2e5a3db)" style="fill: #c16940"/>
    <path d="M 287.695349 131.174671 
L 296.974245 122.83437 
L 312.913645 127.61006 
L 303.844661 136.14061 
z
" clip-path="url(#pa4c2e5a3db)" style="fill: #19230d"/>
    <path d="M 287.695349 131.174671 
L 287.580883 116.305141 
L 296.974245 108.153421 
L 296.974245 122.83437 
z
" clip-path="url(#pa4c2e5a3db)" style="fill: #293915"/>
    <path d="M 271.601932 111.559699 
L 281.198499 103.589935 
L 296.974245 108.153421 
L 287.580883 116.305141 
z
" clip-path="url(#pa4c2e5a3db)" style="fill: #743f27"/>
    <path d="M 303.784783 146.60234 
L 312.777409 137.942956 
L 328.93643 142.901246 
L 320.161932 151.758683 
z
" clip-path="url(#pa4c2e5a3db)" style="fill: #3c5c87"/>
    <path d="M 312.777409 137.942956 
L 313.108639 112.820655 
L 329.614053 117.595215 
L 328.93643 142.901246 
z
" clip-path="url(#pa4c2e5a3db)" style="fill: #2f4869"/>
    <path d="M 312.77887 137.832142 
L 328.939419 142.789649 
L 329.614053 117.595215 
L 313.108639 112.820655 
z
" clip-path="url(#pa4c2e5a3db)" style="fill: #4d2b82"/>
    <path d="M 313.108639 112.820655 
L 329.614053 117.595215 
L 338.215054 109.393682 
L 321.93245 104.802739 
z
" clip-path="url(#pa4c2e5a3db)" style="fill: #432571"/>
    <path d="M 271.601932 111.559699 
L 281.198499 103.589935 
L 280.859869 77.124422 
L 271.046386 84.737836 
z
" clip-path="url(#pa4c2e5a3db)" style="fill: #4a315a"/>
    <path d="M 303.784783 146.60234 
L 303.930398 121.160633 
L 313.108639 112.820655 
L 312.777409 137.942956 
z
" clip-path="url(#pa4c2e5a3db)" style="fill: #6499df"/>
    <path d="M 245.80512 115.022966 
L 255.981089 106.920608 
L 271.601932 111.559699 
L 261.621089 119.848598 
z
" clip-path="url(#pa4c2e5a3db)" style="fill: #50205b"/>
    <path d="M 271.379276 100.809801 
L 287.497498 105.473054 
L 296.974245 97.463097 
L 281.062746 92.98018 
z
" clip-path="url(#pa4c2e5a3db)" style="fill: #a75b38"/>
    <path d="M 255.981089 106.920608 
L 255.094766 80.334756 
L 271.046999 84.767436 
L 271.601932 111.559699 
z
" clip-path="url(#pa4c2e5a3db)" style="fill: #3f1947"/>
    <path d="M 255.981089 106.920608 
L 271.601932 111.559699 
L 271.046386 84.737836 
L 255.093787 80.305392 
z
" clip-path="url(#pa4c2e5a3db)" style="fill: #9d69be"/>
    <path d="M 287.580883 116.305141 
L 296.974245 108.153421 
L 296.974245 97.463097 
L 287.497498 105.473054 
z
" clip-path="url(#pa4c2e5a3db)" style="fill: #5b311e"/>
    <path d="M 255.093787 80.305392 
L 271.046386 84.737836 
L 280.859869 77.124422 
L 265.107278 72.863624 
z
" clip-path="url(#pa4c2e5a3db)" style="fill: #895ba5"/>
    <path d="M 303.844661 136.14061 
L 312.913645 127.61006 
L 313.108639 112.820655 
L 303.930398 121.160633 
z
" clip-path="url(#pa4c2e5a3db)" style="fill: #131b0a"/>
    <path d="M 287.580883 116.305141 
L 303.930398 121.160633 
L 313.108639 112.820655 
L 296.974245 108.153421 
z
" clip-path="url(#pa4c2e5a3db)" style="fill: #233212"/>
    <path d="M 245.80512 115.022966 
L 244.6764 88.078026 
L 255.094766 80.334756 
L 255.981089 106.920608 
z
" clip-path="url(#pa4c2e5a3db)" style="fill: #853697"/>
    <path d="M 271.601932 111.559699 
L 287.580883 116.305141 
L 287.497498 105.473054 
L 271.379276 100.809801 
z
" clip-path="url(#pa4c2e5a3db)" style="fill: #c16940"/>
    <path d="M 271.601932 111.559699 
L 271.378012 100.748768 
L 287.497024 105.411548 
L 287.580883 116.305141 
z
" clip-path="url(#pa4c2e5a3db)" style="fill: #173018"/>
    <path d="M 287.695349 131.174671 
L 303.844661 136.14061 
L 303.930398 121.160633 
L 287.580883 116.305141 
z
" clip-path="url(#pa4c2e5a3db)" style="fill: #293915"/>
    <path d="M 287.690594 130.556973 
L 287.580883 116.305141 
L 303.930398 121.160633 
L 303.848222 135.518408 
z
" clip-path="url(#pa4c2e5a3db)" style="fill: #4c3933"/>
    <path d="M 320.161932 151.758683 
L 328.93643 142.901246 
L 329.614053 117.595215 
L 320.663518 126.130048 
z
" clip-path="url(#pa4c2e5a3db)" style="fill: #2f4869"/>
    <path d="M 261.621089 119.848598 
L 261.30278 108.893897 
L 271.378012 100.748768 
L 271.601932 111.559699 
z
" clip-path="url(#pa4c2e5a3db)" style="fill: #316632"/>
    <path d="M 278.035329 139.223124 
L 287.690594 130.556973 
L 303.848222 135.518408 
L 294.407249 144.386331 
z
" clip-path="url(#pa4c2e5a3db)" style="fill: #624942"/>
    <path d="M 278.035329 139.223124 
L 277.806982 124.787098 
L 287.580883 116.305141 
L 287.690594 130.556973 
z
" clip-path="url(#pa4c2e5a3db)" style="fill: #a2796d"/>
    <path d="M 261.621089 119.848598 
L 271.601932 111.559699 
L 287.580883 116.305141 
L 277.806982 124.787098 
z
" clip-path="url(#pa4c2e5a3db)" style="fill: #1e3e1e"/>
    <path d="M 303.784783 146.60234 
L 320.161932 151.758683 
L 320.663518 126.130048 
L 303.930398 121.160633 
z
" clip-path="url(#pa4c2e5a3db)" style="fill: #6499df"/>
    <path d="M 303.930398 121.160633 
L 320.663518 126.130048 
L 329.614053 117.595215 
L 313.108639 112.820655 
z
" clip-path="url(#pa4c2e5a3db)" style="fill: #5785c2"/>
    <path d="M 261.621089 119.848598 
L 271.601932 111.559699 
L 271.046999 84.767436 
L 260.832032 92.692941 
z
" clip-path="url(#pa4c2e5a3db)" style="fill: #3f1947"/>
    <path d="M 261.30278 108.893897 
L 277.63237 113.748108 
L 287.497024 105.411548 
L 271.378012 100.748768 
z
" clip-path="url(#pa4c2e5a3db)" style="fill: #2a582b"/>
    <path d="M 245.80512 115.022966 
L 261.621089 119.848598 
L 260.832032 92.692941 
L 244.6764 88.078026 
z
" clip-path="url(#pa4c2e5a3db)" style="fill: #853697"/>
    <path d="M 277.806982 124.787098 
L 287.580883 116.305141 
L 287.497024 105.411548 
L 277.63237 113.748108 
z
" clip-path="url(#pa4c2e5a3db)" style="fill: #173018"/>
    <path d="M 244.6764 88.078026 
L 260.832032 92.692941 
L 271.046999 84.767436 
L 255.094766 80.334756 
z
" clip-path="url(#pa4c2e5a3db)" style="fill: #732e83"/>
    <path d="M 294.407249 144.386331 
L 303.848222 135.518408 
L 303.930398 121.160633 
L 294.375932 129.842472 
z
" clip-path="url(#pa4c2e5a3db)" style="fill: #4c3933"/>
    <path d="M 277.806982 124.787098 
L 294.375932 129.842472 
L 303.930398 121.160633 
L 287.580883 116.305141 
z
" clip-path="url(#pa4c2e5a3db)" style="fill: #8c695f"/>
    <path d="M 261.621089 119.848598 
L 277.806982 124.787098 
L 277.63237 113.748108 
L 261.30278 108.893897 
z
" clip-path="url(#pa4c2e5a3db)" style="fill: #316632"/>
    <path d="M 278.035329 139.223124 
L 294.407249 144.386331 
L 294.375932 129.842472 
L 277.806982 124.787098 
z
" clip-path="url(#pa4c2e5a3db)" style="fill: #a2796d"/>
    <path d="M 303.930398 121.160633 
L 303.995405 109.802527 
L 320.887524 114.684427 
L 320.663518 126.130048 
z
" clip-path="url(#pa4c2e5a3db)" style="fill: #3c4b5d"/>
    <path d="M 294.375932 129.842472 
L 294.351148 118.332171 
L 303.995405 109.802527 
L 303.930398 121.160633 
z
" clip-path="url(#pa4c2e5a3db)" style="fill: #809fc5"/>
    <path d="M 294.375932 129.842472 
L 303.930398 121.160633 
L 320.663518 126.130048 
L 311.341699 135.01892 
z
" clip-path="url(#pa4c2e5a3db)" style="fill: #4d6077"/>
    <path d="M 294.351148 118.332171 
L 311.480403 123.419429 
L 320.887524 114.684427 
L 303.995405 109.802527 
z
" clip-path="url(#pa4c2e5a3db)" style="fill: #6f8aab"/>
    <path d="M 311.341699 135.01892 
L 320.663518 126.130048 
L 320.887524 114.684427 
L 311.480403 123.419429 
z
" clip-path="url(#pa4c2e5a3db)" style="fill: #3c4b5d"/>
    <path d="M 294.375932 129.842472 
L 311.341699 135.01892 
L 311.480403 123.419429 
L 294.351148 118.332171 
z
" clip-path="url(#pa4c2e5a3db)" style="fill: #809fc5"/>
   </g>
  </g>
  <g id="patch_10">
   <path d="M 387.105882 174.727059 
L 518.4 174.727059 
L 518.4 43.432941 
L 387.105882 43.432941 
z
" style="fill: #ffffff"/>
  </g>
  <g id="pane3d_7">
   <g id="patch_11">
    <path d="M 397.019494 142.354137 
L 440.377099 106.010932 
L 439.774387 53.597534 
L 394.341896 86.752097 
" style="fill: #f2f2f2; opacity: 0.5; stroke: #f2f2f2; stroke-linejoin: miter"/>
   </g>
  </g>
  <g id="pane3d_8">
   <g id="patch_12">
    <path d="M 440.377099 106.010932 
L 509.950586 126.233198 
L 512.433418 72.014481 
L 439.774387 53.597534 
" style="fill: #e6e6e6; opacity: 0.5; stroke: #e6e6e6; stroke-linejoin: miter"/>
   </g>
  </g>
  <g id="pane3d_9">
   <g id="patch_13">
    <path d="M 397.019494 142.354137 
L 470.770788 166.44131 
L 509.950586 126.233198 
L 440.377099 106.010932 
" style="fill: #ececec; opacity: 0.5; stroke: #ececec; stroke-linejoin: miter"/>
   </g>
  </g>
  <g id="grid3d_7">
   <g id="Line3DCollection_7">
    <path d="M 401.486259 143.812983 
L 444.608346 107.240789 
L 444.184534 54.715378 
" style="fill: none; stroke: #b0b0b0; stroke-width: 0.8"/>
    <path d="M 417.025858 148.888215 
L 459.310941 111.514253 
L 459.517565 58.601855 
" style="fill: none; stroke: #b0b0b0; stroke-width: 0.8"/>
    <path d="M 432.922987 154.080218 
L 474.323502 115.877812 
L 475.18797 62.573845 
" style="fill: none; stroke: #b0b0b0; stroke-width: 0.8"/>
    <path d="M 449.19013 159.393067 
L 489.655936 120.334345 
L 491.207007 66.634204 
" style="fill: none; stroke: #b0b0b0; stroke-width: 0.8"/>
   </g>
  </g>
  <g id="grid3d_8">
   <g id="Line3DCollection_8">
    <path d="M 397.483666 84.459376 
L 400.007199 139.849783 
L 473.481727 163.659219 
" style="fill: none; stroke: #b0b0b0; stroke-width: 0.8"/>
    <path d="M 407.979988 76.799639 
L 410.000179 131.473469 
L 482.537009 154.366272 
" style="fill: none; stroke: #b0b0b0; stroke-width: 0.8"/>
    <path d="M 418.06877 69.437305 
L 419.621689 123.408529 
L 491.238266 145.436641 
" style="fill: none; stroke: #b0b0b0; stroke-width: 0.8"/>
    <path d="M 427.773295 62.355385 
L 428.892063 115.637918 
L 499.605861 136.849431 
" style="fill: none; stroke: #b0b0b0; stroke-width: 0.8"/>
   </g>
  </g>
  <g id="grid3d_9">
   <g id="Line3DCollection_9">
    <path d="M 510.032253 124.449796 
L 440.357234 104.283389 
L 396.931564 140.528214 
" style="fill: none; stroke: #b0b0b0; stroke-width: 0.8"/>
    <path d="M 511.13637 100.338709 
L 440.08893 80.951044 
L 395.741818 115.822372 
" style="fill: none; stroke: #b0b0b0; stroke-width: 0.8"/>
    <path d="M 512.285305 75.248909 
L 439.810271 56.718065 
L 394.501883 90.074311 
" style="fill: none; stroke: #b0b0b0; stroke-width: 0.8"/>
   </g>
  </g>
  <g id="axis3d_7">
   <g id="line2d_31">
    <path d="M 397.019494 142.354137 
L 470.770788 166.44131 
" style="fill: none; stroke: #000000; stroke-width: 0.8; stroke-linecap: square"/>
   </g>
   <g id="xtick_25">
    <g id="line2d_32">
     <path d="M 401.861764 143.494514 
L 400.733638 144.451286 
" style="fill: none; stroke: #000000; stroke-width: 0.8; stroke-linecap: square"/>
    </g>
    <g id="text_33">
     <!-- 0.005 -->
     <g transform="translate(379.614298 167.18233) scale(0.1 -0.1)">
      <use xlink:href="#DejaVuSans-30"/>
      <use xlink:href="#DejaVuSans-2e" x="63.623047"/>
      <use xlink:href="#DejaVuSans-30" x="95.410156"/>
      <use xlink:href="#DejaVuSans-30" x="159.033203"/>
      <use xlink:href="#DejaVuSans-35" x="222.65625"/>
     </g>
    </g>
   </g>
   <g id="xtick_26">
    <g id="line2d_33">
     <path d="M 417.394414 148.562464 
L 416.287145 149.541131 
" style="fill: none; stroke: #000000; stroke-width: 0.8; stroke-linecap: square"/>
    </g>
    <g id="text_34">
     <!-- 0.01 -->
     <g transform="translate(398.367408 172.477122) scale(0.1 -0.1)">
      <use xlink:href="#DejaVuSans-30"/>
      <use xlink:href="#DejaVuSans-2e" x="63.623047"/>
      <use xlink:href="#DejaVuSans-30" x="95.410156"/>
      <use xlink:href="#DejaVuSans-31" x="159.033203"/>
     </g>
    </g>
   </g>
   <g id="xtick_27">
    <g id="line2d_34">
     <path d="M 433.284174 153.746932 
L 432.199027 154.748253 
" style="fill: none; stroke: #000000; stroke-width: 0.8; stroke-linecap: square"/>
    </g>
    <g id="text_35">
     <!-- 0.05 -->
     <g transform="translate(414.300314 177.894679) scale(0.1 -0.1)">
      <use xlink:href="#DejaVuSans-30"/>
      <use xlink:href="#DejaVuSans-2e" x="63.623047"/>
      <use xlink:href="#DejaVuSans-30" x="95.410156"/>
      <use xlink:href="#DejaVuSans-35" x="159.033203"/>
     </g>
    </g>
   </g>
   <g id="xtick_28">
    <g id="line2d_35">
     <path d="M 449.543503 159.051981 
L 448.481814 160.076753 
" style="fill: none; stroke: #000000; stroke-width: 0.8; stroke-linecap: square"/>
    </g>
    <g id="text_36">
     <!-- 0.1 -->
     <g transform="translate(433.78822 183.439319) scale(0.1 -0.1)">
      <use xlink:href="#DejaVuSans-30"/>
      <use xlink:href="#DejaVuSans-2e" x="63.623047"/>
      <use xlink:href="#DejaVuSans-31" x="95.410156"/>
     </g>
    </g>
   </g>
   <g id="text_37">
    <!-- support -->
    <g transform="translate(397.386452 186.318757) rotate(-341.912962) scale(0.1 -0.1)">
     <use xlink:href="#DejaVuSans-73"/>
     <use xlink:href="#DejaVuSans-75" x="52.099609"/>
     <use xlink:href="#DejaVuSans-70" x="115.478516"/>
     <use xlink:href="#DejaVuSans-70" x="178.955078"/>
     <use xlink:href="#DejaVuSans-6f" x="242.431641"/>
     <use xlink:href="#DejaVuSans-72" x="303.613281"/>
     <use xlink:href="#DejaVuSans-74" x="344.726562"/>
    </g>
   </g>
  </g>
  <g id="axis3d_8">
   <g id="line2d_36">
    <path d="M 509.950586 126.233198 
L 470.770788 166.44131 
" style="fill: none; stroke: #000000; stroke-width: 0.8; stroke-linecap: square"/>
   </g>
   <g id="xtick_29">
    <g id="line2d_37">
     <path d="M 472.862555 163.458577 
L 474.721672 164.061024 
" style="fill: none; stroke: #000000; stroke-width: 0.8; stroke-linecap: square"/>
    </g>
    <g id="text_38">
     <!-- 1000 -->
     <g transform="translate(473.645285 184.689208) scale(0.1 -0.1)">
      <use xlink:href="#DejaVuSans-31"/>
      <use xlink:href="#DejaVuSans-30" x="63.623047"/>
      <use xlink:href="#DejaVuSans-30" x="127.246094"/>
      <use xlink:href="#DejaVuSans-30" x="190.869141"/>
     </g>
    </g>
   </g>
   <g id="xtick_30">
    <g id="line2d_38">
     <path d="M 481.926357 154.173548 
L 483.759863 154.752207 
" style="fill: none; stroke: #000000; stroke-width: 0.8; stroke-linecap: square"/>
    </g>
    <g id="text_39">
     <!-- 2000 -->
     <g transform="translate(482.45407 175.117086) scale(0.1 -0.1)">
      <use xlink:href="#DejaVuSans-32"/>
      <use xlink:href="#DejaVuSans-30" x="63.623047"/>
      <use xlink:href="#DejaVuSans-30" x="127.246094"/>
      <use xlink:href="#DejaVuSans-30" x="190.869141"/>
     </g>
    </g>
   </g>
   <g id="xtick_31">
    <g id="line2d_39">
     <path d="M 490.635946 145.251378 
L 492.444403 145.80763 
" style="fill: none; stroke: #000000; stroke-width: 0.8; stroke-linecap: square"/>
    </g>
    <g id="text_40">
     <!-- 5000 -->
     <g transform="translate(490.918064 165.919634) scale(0.1 -0.1)">
      <use xlink:href="#DejaVuSans-35"/>
      <use xlink:href="#DejaVuSans-30" x="63.623047"/>
      <use xlink:href="#DejaVuSans-30" x="127.246094"/>
      <use xlink:href="#DejaVuSans-30" x="190.869141"/>
     </g>
    </g>
   </g>
   <g id="xtick_32">
    <g id="line2d_40">
     <path d="M 499.01169 136.671202 
L 500.795651 137.206324 
" style="fill: none; stroke: #000000; stroke-width: 0.8; stroke-linecap: square"/>
    </g>
    <g id="text_41">
     <!-- 10000 -->
     <g transform="translate(495.875873 157.075275) scale(0.1 -0.1)">
      <use xlink:href="#DejaVuSans-31"/>
      <use xlink:href="#DejaVuSans-30" x="63.623047"/>
      <use xlink:href="#DejaVuSans-30" x="127.246094"/>
      <use xlink:href="#DejaVuSans-30" x="190.869141"/>
      <use xlink:href="#DejaVuSans-30" x="254.492188"/>
     </g>
    </g>
   </g>
   <g id="text_42">
    <!-- window -->
    <g transform="translate(506.979859 188.99679) rotate(-45.742112) scale(0.1 -0.1)">
     <use xlink:href="#DejaVuSans-77"/>
     <use xlink:href="#DejaVuSans-69" x="81.787109"/>
     <use xlink:href="#DejaVuSans-6e" x="109.570312"/>
     <use xlink:href="#DejaVuSans-64" x="172.949219"/>
     <use xlink:href="#DejaVuSans-6f" x="236.425781"/>
     <use xlink:href="#DejaVuSans-77" x="297.607422"/>
    </g>
   </g>
  </g>
  <g id="axis3d_9">
   <g id="line2d_41">
    <path d="M 509.950586 126.233198 
L 512.433418 72.014481 
" style="fill: none; stroke: #000000; stroke-width: 0.8; stroke-linecap: square"/>
   </g>
   <g id="xtick_33">
    <g id="line2d_42">
     <path d="M 509.447447 124.280533 
L 511.203257 124.788726 
" style="fill: none; stroke: #000000; stroke-width: 0.8; stroke-linecap: square"/>
    </g>
    <g id="text_43">
     <!-- $10^{-1.0}$ -->
     <g transform="translate(513.201032 129.458249) scale(0.1 -0.1)">
      <use xlink:href="#DejaVuSans-31" transform="translate(0 0.765625)"/>
      <use xlink:href="#DejaVuSans-30" transform="translate(63.623047 0.765625)"/>
      <use xlink:href="#DejaVuSans-2212" transform="translate(128.203125 39.046875) scale(0.7)"/>
      <use xlink:href="#DejaVuSans-31" transform="translate(186.855469 39.046875) scale(0.7)"/>
      <use xlink:href="#DejaVuSans-2e" transform="translate(231.391602 39.046875) scale(0.7)"/>
      <use xlink:href="#DejaVuSans-30" transform="translate(253.642578 39.046875) scale(0.7)"/>
     </g>
    </g>
   </g>
   <g id="xtick_34">
    <g id="line2d_43">
     <path d="M 510.539489 100.175831 
L 512.331581 100.664863 
" style="fill: none; stroke: #000000; stroke-width: 0.8; stroke-linecap: square"/>
    </g>
    <g id="text_44">
     <!-- $10^{0.0}$ -->
     <g transform="translate(517.558486 105.445137) scale(0.1 -0.1)">
      <use xlink:href="#DejaVuSans-31" transform="translate(0 0.765625)"/>
      <use xlink:href="#DejaVuSans-30" transform="translate(63.623047 0.765625)"/>
      <use xlink:href="#DejaVuSans-30" transform="translate(128.203125 39.046875) scale(0.7)"/>
      <use xlink:href="#DejaVuSans-2e" transform="translate(172.739258 39.046875) scale(0.7)"/>
      <use xlink:href="#DejaVuSans-30" transform="translate(194.990234 39.046875) scale(0.7)"/>
     </g>
    </g>
   </g>
   <g id="xtick_35">
    <g id="line2d_44">
     <path d="M 511.675841 75.093078 
L 513.505743 75.560958 
" style="fill: none; stroke: #000000; stroke-width: 0.8; stroke-linecap: square"/>
    </g>
    <g id="text_45">
     <!-- $10^{1.0}$ -->
     <g transform="translate(519.074728 80.463441) scale(0.1 -0.1)">
      <use xlink:href="#DejaVuSans-31" transform="translate(0 0.765625)"/>
      <use xlink:href="#DejaVuSans-30" transform="translate(63.623047 0.765625)"/>
      <use xlink:href="#DejaVuSans-31" transform="translate(128.203125 39.046875) scale(0.7)"/>
      <use xlink:href="#DejaVuSans-2e" transform="translate(172.739258 39.046875) scale(0.7)"/>
      <use xlink:href="#DejaVuSans-30" transform="translate(194.990234 39.046875) scale(0.7)"/>
     </g>
    </g>
   </g>
   <g id="text_46">
    <!-- elapsed -->
    <g transform="translate(553.129074 114.01016) rotate(-87.378092) scale(0.1 -0.1)">
     <use xlink:href="#DejaVuSans-65"/>
     <use xlink:href="#DejaVuSans-6c" x="61.523438"/>
     <use xlink:href="#DejaVuSans-61" x="89.306641"/>
     <use xlink:href="#DejaVuSans-70" x="150.585938"/>
     <use xlink:href="#DejaVuSans-73" x="214.0625"/>
     <use xlink:href="#DejaVuSans-65" x="266.162109"/>
     <use xlink:href="#DejaVuSans-64" x="327.685547"/>
    </g>
   </g>
  </g>
  <g id="axes_3">
   <g id="Poly3DCollection_5">
    <path d="M 432.741512 91.411275 
L 441.820186 84.186569 
L 456.877621 88.325069 
L 447.984372 95.706748 
z
" clip-path="url(#p16379bbfba)" style="fill: #4a557b"/>
    <path d="M 441.820186 84.186569 
L 441.55212 57.767 
L 456.927748 61.70493 
L 456.877621 88.325069 
z
" clip-path="url(#p16379bbfba)" style="fill: #3a4360"/>
    <path d="M 456.877621 88.325069 
L 456.895562 78.797419 
L 472.397737 82.954217 
L 472.260899 92.553127 
z
" clip-path="url(#p16379bbfba)" style="fill: #62585e"/>
    <path d="M 432.741512 91.411275 
L 432.27315 64.642722 
L 441.55212 57.767 
L 441.820186 84.186569 
z
" clip-path="url(#p16379bbfba)" style="fill: #7a8ecb"/>
    <path d="M 472.045336 107.674457 
L 472.260899 92.553127 
L 487.980711 96.87368 
L 487.569672 112.105294 
z
" clip-path="url(#p16379bbfba)" style="fill: #576837"/>
    <path d="M 447.984372 95.706748 
L 447.93348 86.055134 
L 456.895562 78.797419 
L 456.877621 88.325069 
z
" clip-path="url(#p16379bbfba)" style="fill: #d0bbc7"/>
    <path d="M 463.451476 115.410073 
L 472.045336 107.674457 
L 487.569672 112.105294 
L 479.17724 120.010574 
z
" clip-path="url(#p16379bbfba)" style="fill: #708546"/>
    <path d="M 463.451476 115.410073 
L 463.563388 100.096951 
L 472.260899 92.553127 
L 472.045336 107.674457 
z
" clip-path="url(#p16379bbfba)" style="fill: #b9dc74"/>
    <path d="M 447.984372 95.706748 
L 456.877621 88.325069 
L 472.260899 92.553127 
L 463.563388 100.096951 
z
" clip-path="url(#p16379bbfba)" style="fill: #7e7178"/>
    <path d="M 478.984943 129.500818 
L 487.316691 121.479831 
L 503.054627 126.07401 
L 494.931925 134.271474 
z
" clip-path="url(#p16379bbfba)" style="fill: #361f22"/>
    <path d="M 487.316691 121.479831 
L 487.980711 96.87368 
L 504.048224 101.289798 
L 503.054627 126.07401 
z
" clip-path="url(#p16379bbfba)" style="fill: #2a181a"/>
    <path d="M 447.984372 95.706748 
L 456.877621 88.325069 
L 456.927748 61.70493 
L 447.842143 68.733277 
z
" clip-path="url(#p16379bbfba)" style="fill: #3a4360"/>
    <path d="M 478.984943 129.500818 
L 479.489802 104.585052 
L 487.980711 96.87368 
L 487.316691 121.479831 
z
" clip-path="url(#p16379bbfba)" style="fill: #593338"/>
    <path d="M 447.93348 86.055134 
L 463.634456 90.372603 
L 472.397737 82.954217 
L 456.895562 78.797419 
z
" clip-path="url(#p16379bbfba)" style="fill: #b4a2ad"/>
    <path d="M 423.317078 98.911132 
L 432.741512 91.411275 
L 447.984372 95.706748 
L 438.74866 103.372683 
z
" clip-path="url(#p16379bbfba)" style="fill: #5c3f74"/>
    <path d="M 432.741512 91.411275 
L 432.28283 65.195982 
L 447.845084 69.290901 
L 447.984372 95.706748 
z
" clip-path="url(#p16379bbfba)" style="fill: #48315a"/>
    <path d="M 432.741512 91.411275 
L 447.984372 95.706748 
L 447.842143 68.733277 
L 432.27315 64.642722 
z
" clip-path="url(#p16379bbfba)" style="fill: #7a8ecb"/>
    <path d="M 463.563388 100.096951 
L 472.260899 92.553127 
L 472.397737 82.954217 
L 463.634456 90.372603 
z
" clip-path="url(#p16379bbfba)" style="fill: #62585e"/>
    <path d="M 479.17724 120.010574 
L 487.569672 112.105294 
L 487.980711 96.87368 
L 479.489802 104.585052 
z
" clip-path="url(#p16379bbfba)" style="fill: #576837"/>
    <path d="M 432.27315 64.642722 
L 447.842143 68.733277 
L 456.927748 61.70493 
L 441.55212 57.767 
z
" clip-path="url(#p16379bbfba)" style="fill: #6a7bb0"/>
    <path d="M 463.563388 100.096951 
L 479.489802 104.585052 
L 487.980711 96.87368 
L 472.260899 92.553127 
z
" clip-path="url(#p16379bbfba)" style="fill: #a1bf65"/>
    <path d="M 423.317078 98.911132 
L 422.647189 72.346898 
L 432.28283 65.195982 
L 432.741512 91.411275 
z
" clip-path="url(#p16379bbfba)" style="fill: #9968c0"/>
    <path d="M 447.984372 95.706748 
L 447.933849 86.125098 
L 463.63394 90.4431 
L 463.563388 100.096951 
z
" clip-path="url(#p16379bbfba)" style="fill: #634f1e"/>
    <path d="M 447.984372 95.706748 
L 463.563388 100.096951 
L 463.634456 90.372603 
L 447.93348 86.055134 
z
" clip-path="url(#p16379bbfba)" style="fill: #d0bbc7"/>
    <path d="M 463.451476 115.410073 
L 479.17724 120.010574 
L 479.489802 104.585052 
L 463.563388 100.096951 
z
" clip-path="url(#p16379bbfba)" style="fill: #b9dc74"/>
    <path d="M 463.451476 115.410073 
L 463.563388 100.096951 
L 479.489802 104.585052 
L 479.17724 120.010574 
z
" clip-path="url(#p16379bbfba)" style="fill: #474643"/>
    <path d="M 494.931925 134.271474 
L 503.054627 126.07401 
L 504.048224 101.289798 
L 495.775366 109.174362 
z
" clip-path="url(#p16379bbfba)" style="fill: #2a181a"/>
    <path d="M 438.74866 103.372683 
L 438.624455 93.665438 
L 447.933849 86.125098 
L 447.984372 95.706748 
z
" clip-path="url(#p16379bbfba)" style="fill: #d2a73f"/>
    <path d="M 454.527186 123.44312 
L 463.451476 115.410073 
L 479.17724 120.010574 
L 470.458502 128.223221 
z
" clip-path="url(#p16379bbfba)" style="fill: #5a5956"/>
    <path d="M 454.527186 123.44312 
L 454.527186 107.93454 
L 463.563388 100.096951 
L 463.451476 115.410073 
z
" clip-path="url(#p16379bbfba)" style="fill: #96938e"/>
    <path d="M 438.74866 103.372683 
L 447.984372 95.706748 
L 463.563388 100.096951 
L 454.527186 107.93454 
z
" clip-path="url(#p16379bbfba)" style="fill: #7f6526"/>
    <path d="M 470.331823 137.83119 
L 478.984943 129.500818 
L 494.931925 134.271474 
L 486.492385 142.78869 
z
" clip-path="url(#p16379bbfba)" style="fill: #274556"/>
    <path d="M 478.984943 129.500818 
L 494.931925 134.271474 
L 495.775366 109.174362 
L 479.489802 104.585052 
z
" clip-path="url(#p16379bbfba)" style="fill: #593338"/>
    <path d="M 478.984943 129.500818 
L 479.489802 104.585052 
L 495.775366 109.174362 
L 494.931925 134.271474 
z
" clip-path="url(#p16379bbfba)" style="fill: #1e3644"/>
    <path d="M 479.489802 104.585052 
L 495.775366 109.174362 
L 504.048224 101.289798 
L 487.980711 96.87368 
z
" clip-path="url(#p16379bbfba)" style="fill: #4e2c30"/>
    <path d="M 438.74866 103.372683 
L 447.984372 95.706748 
L 447.845084 69.290901 
L 438.406146 76.603589 
z
" clip-path="url(#p16379bbfba)" style="fill: #48315a"/>
    <path d="M 470.331823 137.83119 
L 470.664488 112.600127 
L 479.489802 104.585052 
L 478.984943 129.500818 
z
" clip-path="url(#p16379bbfba)" style="fill: #41728f"/>
    <path d="M 438.624455 93.665438 
L 454.527186 98.153622 
L 463.63394 90.4431 
L 447.933849 86.125098 
z
" clip-path="url(#p16379bbfba)" style="fill: #b79137"/>
    <path d="M 413.526747 106.702166 
L 423.317078 98.911132 
L 438.74866 103.372683 
L 429.150315 111.339614 
z
" clip-path="url(#p16379bbfba)" style="fill: #88162b"/>
    <path d="M 423.317078 98.911132 
L 422.647555 72.361427 
L 438.406333 76.618234 
L 438.74866 103.372683 
z
" clip-path="url(#p16379bbfba)" style="fill: #6a1122"/>
    <path d="M 423.317078 98.911132 
L 438.74866 103.372683 
L 438.406146 76.603589 
L 422.647189 72.346898 
z
" clip-path="url(#p16379bbfba)" style="fill: #9968c0"/>
    <path d="M 454.527186 107.93454 
L 463.563388 100.096951 
L 463.63394 90.4431 
L 454.527186 98.153622 
z
" clip-path="url(#p16379bbfba)" style="fill: #634f1e"/>
    <path d="M 422.647189 72.346898 
L 438.406146 76.603589 
L 447.845084 69.290901 
L 432.28283 65.195982 
z
" clip-path="url(#p16379bbfba)" style="fill: #855ba6"/>
    <path d="M 470.458502 128.223221 
L 479.17724 120.010574 
L 479.489802 104.585052 
L 470.664488 112.600127 
z
" clip-path="url(#p16379bbfba)" style="fill: #474643"/>
    <path d="M 454.527186 107.93454 
L 470.664488 112.600127 
L 479.489802 104.585052 
L 463.563388 100.096951 
z
" clip-path="url(#p16379bbfba)" style="fill: #82807b"/>
    <path d="M 413.526747 106.702166 
L 412.629755 79.796249 
L 422.647555 72.361427 
L 423.317078 98.911132 
z
" clip-path="url(#p16379bbfba)" style="fill: #e12447"/>
    <path d="M 438.74866 103.372683 
L 454.527186 107.93454 
L 454.527186 98.153622 
L 438.624455 93.665438 
z
" clip-path="url(#p16379bbfba)" style="fill: #d2a73f"/>
    <path d="M 438.74866 103.372683 
L 438.623548 93.594547 
L 454.527186 98.082186 
L 454.527186 107.93454 
z
" clip-path="url(#p16379bbfba)" style="fill: #323765"/>
    <path d="M 454.527186 123.44312 
L 454.527186 107.93454 
L 470.664488 112.600127 
L 470.458502 128.223221 
z
" clip-path="url(#p16379bbfba)" style="fill: #085c15"/>
    <path d="M 454.527186 123.44312 
L 470.458502 128.223221 
L 470.664488 112.600127 
L 454.527186 107.93454 
z
" clip-path="url(#p16379bbfba)" style="fill: #96938e"/>
    <path d="M 486.492385 142.78869 
L 494.931925 134.271474 
L 495.775366 109.174362 
L 487.172944 117.373021 
z
" clip-path="url(#p16379bbfba)" style="fill: #1e3644"/>
    <path d="M 429.150315 111.339614 
L 428.945112 101.432383 
L 438.623548 93.594547 
L 438.74866 103.372683 
z
" clip-path="url(#p16379bbfba)" style="fill: #6975d7"/>
    <path d="M 445.253035 131.791089 
L 454.527186 123.44312 
L 470.458502 128.223221 
L 461.394048 136.761515 
z
" clip-path="url(#p16379bbfba)" style="fill: #0a761b"/>
    <path d="M 445.253035 131.791089 
L 445.132117 116.083395 
L 454.527186 107.93454 
L 454.527186 123.44312 
z
" clip-path="url(#p16379bbfba)" style="fill: #11c42c"/>
    <path d="M 429.150315 111.339614 
L 438.74866 103.372683 
L 454.527186 107.93454 
L 445.132117 116.083395 
z
" clip-path="url(#p16379bbfba)" style="fill: #404782"/>
    <path d="M 461.338372 146.489199 
L 470.331823 137.83119 
L 486.492385 142.78869 
L 477.717103 151.644739 
z
" clip-path="url(#p16379bbfba)" style="fill: #2c5b53"/>
    <path d="M 470.331823 137.83119 
L 470.664488 112.600127 
L 487.172944 117.373021 
L 486.492385 142.78869 
z
" clip-path="url(#p16379bbfba)" style="fill: #224740"/>
    <path d="M 470.331823 137.83119 
L 486.492385 142.78869 
L 487.172944 117.373021 
L 470.664488 112.600127 
z
" clip-path="url(#p16379bbfba)" style="fill: #41728f"/>
    <path d="M 470.664488 112.600127 
L 487.172944 117.373021 
L 495.775366 109.174362 
L 479.489802 104.585052 
z
" clip-path="url(#p16379bbfba)" style="fill: #38637c"/>
    <path d="M 429.150315 111.339614 
L 438.74866 103.372683 
L 438.406333 76.618234 
L 428.588697 84.224612 
z
" clip-path="url(#p16379bbfba)" style="fill: #6a1122"/>
    <path d="M 461.338372 146.489199 
L 461.484618 120.937208 
L 470.664488 112.600127 
L 470.331823 137.83119 
z
" clip-path="url(#p16379bbfba)" style="fill: #499789"/>
    <path d="M 428.945112 101.432383 
L 445.055268 106.100455 
L 454.527186 98.082186 
L 438.623548 93.594547 
z
" clip-path="url(#p16379bbfba)" style="fill: #5b65bb"/>
    <path d="M 403.348791 114.801667 
L 413.526747 106.702166 
L 429.150315 111.339614 
L 419.167551 119.625625 
z
" clip-path="url(#p16379bbfba)" style="fill: #165806"/>
    <path d="M 413.526747 106.702166 
L 412.630279 79.811982 
L 428.589025 84.240471 
L 429.150315 111.339614 
z
" clip-path="url(#p16379bbfba)" style="fill: #114504"/>
    <path d="M 413.526747 106.702166 
L 429.150315 111.339614 
L 428.588697 84.224612 
L 412.629755 79.796249 
z
" clip-path="url(#p16379bbfba)" style="fill: #e12447"/>
    <path d="M 445.132117 116.083395 
L 454.527186 107.93454 
L 454.527186 98.082186 
L 445.055268 106.100455 
z
" clip-path="url(#p16379bbfba)" style="fill: #323765"/>
    <path d="M 412.629755 79.796249 
L 428.588697 84.224612 
L 438.406333 76.618234 
L 422.647555 72.361427 
z
" clip-path="url(#p16379bbfba)" style="fill: #c31f3e"/>
    <path d="M 461.394048 136.761515 
L 470.458502 128.223221 
L 470.664488 112.600127 
L 461.484618 120.937208 
z
" clip-path="url(#p16379bbfba)" style="fill: #085c15"/>
    <path d="M 445.132117 116.083395 
L 461.484618 120.937208 
L 470.664488 112.600127 
L 454.527186 107.93454 
z
" clip-path="url(#p16379bbfba)" style="fill: #0faa26"/>
    <path d="M 403.348791 114.801667 
L 402.207137 87.547959 
L 412.630279 79.811982 
L 413.526747 106.702166 
z
" clip-path="url(#p16379bbfba)" style="fill: #259209"/>
    <path d="M 429.150315 111.339614 
L 428.945112 101.432383 
L 445.055268 106.100455 
L 445.132117 116.083395 
z
" clip-path="url(#p16379bbfba)" style="fill: #164468"/>
    <path d="M 429.150315 111.339614 
L 445.132117 116.083395 
L 445.055268 106.100455 
L 428.945112 101.432383 
z
" clip-path="url(#p16379bbfba)" style="fill: #6975d7"/>
    <path d="M 445.253035 131.791089 
L 461.394048 136.761515 
L 461.484618 120.937208 
L 445.132117 116.083395 
z
" clip-path="url(#p16379bbfba)" style="fill: #11c42c"/>
    <path d="M 445.247596 131.084597 
L 445.132117 116.083395 
L 461.484618 120.937208 
L 461.398121 136.049879 
z
" clip-path="url(#p16379bbfba)" style="fill: #13285d"/>
    <path d="M 477.717103 151.644739 
L 486.492385 142.78869 
L 487.172944 117.373021 
L 478.220865 125.904926 
z
" clip-path="url(#p16379bbfba)" style="fill: #224740"/>
    <path d="M 419.167551 119.625625 
L 418.875853 109.586718 
L 428.945112 101.432383 
L 429.150315 111.339614 
z
" clip-path="url(#p16379bbfba)" style="fill: #2f91dd"/>
    <path d="M 435.596722 139.757435 
L 445.247596 131.084597 
L 461.398121 136.049879 
L 451.961349 144.924555 
z
" clip-path="url(#p16379bbfba)" style="fill: #183377"/>
    <path d="M 435.596722 139.757435 
L 435.35637 124.562432 
L 445.132117 116.083395 
L 445.247596 131.084597 
z
" clip-path="url(#p16379bbfba)" style="fill: #2854c6"/>
    <path d="M 419.167551 119.625625 
L 429.150315 111.339614 
L 445.132117 116.083395 
L 435.35637 124.562432 
z
" clip-path="url(#p16379bbfba)" style="fill: #1c5885"/>
    <path d="M 451.984355 155.6091 
L 461.337725 146.60234 
L 477.714873 151.758683 
L 468.584257 160.975603 
z
" clip-path="url(#p16379bbfba)" style="fill: #615944"/>
    <path d="M 461.337725 146.60234 
L 461.484618 120.937208 
L 478.220865 125.904926 
L 477.714873 151.758683 
z
" clip-path="url(#p16379bbfba)" style="fill: #4c4535"/>
    <path d="M 461.338372 146.489199 
L 477.717103 151.644739 
L 478.220865 125.904926 
L 461.484618 120.937208 
z
" clip-path="url(#p16379bbfba)" style="fill: #499789"/>
    <path d="M 461.484618 120.937208 
L 478.220865 125.904926 
L 487.172944 117.373021 
L 470.664488 112.600127 
z
" clip-path="url(#p16379bbfba)" style="fill: #3f8377"/>
    <path d="M 419.167551 119.625625 
L 429.150315 111.339614 
L 428.589025 84.240471 
L 418.369446 92.15859 
z
" clip-path="url(#p16379bbfba)" style="fill: #114504"/>
    <path d="M 451.984355 155.6091 
L 451.928386 129.616096 
L 461.484618 120.937208 
L 461.337725 146.60234 
z
" clip-path="url(#p16379bbfba)" style="fill: #a19370"/>
    <path d="M 418.875853 109.586718 
L 435.196355 114.446328 
L 445.055268 106.100455 
L 428.945112 101.432383 
z
" clip-path="url(#p16379bbfba)" style="fill: #297ec0"/>
    <path d="M 403.348791 114.801667 
L 419.167551 119.625625 
L 418.369446 92.15859 
L 402.207137 87.547959 
z
" clip-path="url(#p16379bbfba)" style="fill: #259209"/>
    <path d="M 435.35637 124.562432 
L 445.132117 116.083395 
L 445.055268 106.100455 
L 435.196355 114.446328 
z
" clip-path="url(#p16379bbfba)" style="fill: #164468"/>
    <path d="M 402.207137 87.547959 
L 418.369446 92.15859 
L 428.589025 84.240471 
L 412.630279 79.811982 
z
" clip-path="url(#p16379bbfba)" style="fill: #207f08"/>
    <path d="M 451.961349 144.924555 
L 461.398121 136.049879 
L 461.484618 120.937208 
L 451.928386 129.616096 
z
" clip-path="url(#p16379bbfba)" style="fill: #13285d"/>
    <path d="M 435.35637 124.562432 
L 451.928386 129.616096 
L 461.484618 120.937208 
L 445.132117 116.083395 
z
" clip-path="url(#p16379bbfba)" style="fill: #2349ac"/>
    <path d="M 419.167551 119.625625 
L 435.35637 124.562432 
L 435.196355 114.446328 
L 418.875853 109.586718 
z
" clip-path="url(#p16379bbfba)" style="fill: #2f91dd"/>
    <path d="M 435.596722 139.757435 
L 451.961349 144.924555 
L 451.928386 129.616096 
L 435.35637 124.562432 
z
" clip-path="url(#p16379bbfba)" style="fill: #2854c6"/>
    <path d="M 468.584257 160.975603 
L 477.714873 151.758683 
L 478.220865 125.904926 
L 468.897368 134.790815 
z
" clip-path="url(#p16379bbfba)" style="fill: #4c4535"/>
    <path d="M 451.984355 155.6091 
L 468.584257 160.975603 
L 468.897368 134.790815 
L 451.928386 129.616096 
z
" clip-path="url(#p16379bbfba)" style="fill: #a19370"/>
    <path d="M 451.928386 129.616096 
L 468.897368 134.790815 
L 478.220865 125.904926 
L 461.484618 120.937208 
z
" clip-path="url(#p16379bbfba)" style="fill: #8c7f61"/>
   </g>
   <g id="text_47">
    <!-- graph -->
    <g transform="translate(435.188879 37.432941) scale(0.12 -0.12)">
     <use xlink:href="#DejaVuSans-67"/>
     <use xlink:href="#DejaVuSans-72" x="63.476562"/>
     <use xlink:href="#DejaVuSans-61" x="104.589844"/>
     <use xlink:href="#DejaVuSans-70" x="165.869141"/>
     <use xlink:href="#DejaVuSans-68" x="229.345703"/>
    </g>
   </g>
   <g id="Poly3DCollection_6">
    <path d="M 432.741512 91.411275 
L 447.984372 95.706748 
L 456.877621 88.325069 
L 441.820186 84.186569 
z
" clip-path="url(#p16379bbfba)" style="fill: #c30000"/>
    <path d="M 447.984372 95.706748 
L 463.563388 100.096951 
L 472.260899 92.553127 
L 456.877621 88.325069 
z
" clip-path="url(#p16379bbfba)" style="fill: #c30000"/>
    <path d="M 423.317078 98.911132 
L 438.74866 103.372683 
L 447.984372 95.706748 
L 432.741512 91.411275 
z
" clip-path="url(#p16379bbfba)" style="fill: #c30000"/>
    <path d="M 463.563388 100.096951 
L 479.489802 104.585052 
L 487.980711 96.87368 
L 472.260899 92.553127 
z
" clip-path="url(#p16379bbfba)" style="fill: #c30000"/>
    <path d="M 438.74866 103.372683 
L 454.527186 107.93454 
L 463.563388 100.096951 
L 447.984372 95.706748 
z
" clip-path="url(#p16379bbfba)" style="fill: #c30000"/>
    <path d="M 479.489802 104.585052 
L 495.775366 109.174362 
L 504.048224 101.289798 
L 487.980711 96.87368 
z
" clip-path="url(#p16379bbfba)" style="fill: #c30000"/>
    <path d="M 413.526747 106.702166 
L 429.150315 111.339614 
L 438.74866 103.372683 
L 423.317078 98.911132 
z
" clip-path="url(#p16379bbfba)" style="fill: #c30000"/>
    <path d="M 454.527186 107.93454 
L 470.664488 112.600127 
L 479.489802 104.585052 
L 463.563388 100.096951 
z
" clip-path="url(#p16379bbfba)" style="fill: #c30000"/>
    <path d="M 429.150315 111.339614 
L 445.132117 116.083395 
L 454.527186 107.93454 
L 438.74866 103.372683 
z
" clip-path="url(#p16379bbfba)" style="fill: #c30000"/>
    <path d="M 470.664488 112.600127 
L 487.172944 117.373021 
L 495.775366 109.174362 
L 479.489802 104.585052 
z
" clip-path="url(#p16379bbfba)" style="fill: #c30000"/>
    <path d="M 403.348791 114.801667 
L 419.167551 119.625625 
L 429.150315 111.339614 
L 413.526747 106.702166 
z
" clip-path="url(#p16379bbfba)" style="fill: #c30000"/>
    <path d="M 445.132117 116.083395 
L 461.484618 120.937208 
L 470.664488 112.600127 
L 454.527186 107.93454 
z
" clip-path="url(#p16379bbfba)" style="fill: #c30000"/>
    <path d="M 419.167551 119.625625 
L 435.35637 124.562432 
L 445.132117 116.083395 
L 429.150315 111.339614 
z
" clip-path="url(#p16379bbfba)" style="fill: #c30000"/>
    <path d="M 461.484618 120.937208 
L 478.220865 125.904926 
L 487.172944 117.373021 
L 470.664488 112.600127 
z
" clip-path="url(#p16379bbfba)" style="fill: #c30000"/>
    <path d="M 435.35637 124.562432 
L 451.928386 129.616096 
L 461.484618 120.937208 
L 445.132117 116.083395 
z
" clip-path="url(#p16379bbfba)" style="fill: #c30000"/>
    <path d="M 451.928386 129.616096 
L 468.897368 134.790815 
L 478.220865 125.904926 
L 461.484618 120.937208 
z
" clip-path="url(#p16379bbfba)" style="fill: #c30000"/>
   </g>
  </g>
 </g>
 <defs>
  <clipPath id="pc4764c05db">
   <rect x="72" y="43.432941" width="131.294118" height="131.294118"/>
  </clipPath>
  <clipPath id="pa4c2e5a3db">
   <rect x="229.552941" y="43.432941" width="131.294118" height="131.294118"/>
  </clipPath>
  <clipPath id="p16379bbfba">
   <rect x="387.105882" y="43.432941" width="131.294118" height="131.294118"/>
  </clipPath>
 </defs>
</svg>
