<?xml version="1.0" encoding="utf-8" standalone="no"?>
<!DOCTYPE svg PUBLIC "-//W3C//DTD SVG 1.1//EN"
  "http://www.w3.org/Graphics/SVG/1.1/DTD/svg11.dtd">
<svg xmlns:xlink="http://www.w3.org/1999/xlink" width="576pt" height="216pt" viewBox="0 0 576 216" xmlns="http://www.w3.org/2000/svg" version="1.1">
 <metadata>
  <rdf:RDF xmlns:dc="http://purl.org/dc/elements/1.1/" xmlns:cc="http://creativecommons.org/ns#" xmlns:rdf="http://www.w3.org/1999/02/22-rdf-syntax-ns#">
   <cc:Work>
    <dc:type rdf:resource="http://purl.org/dc/dcmitype/StillImage"/>
    <dc:date>2025-08-13T11:03:40.992228</dc:date>
    <dc:format>image/svg+xml</dc:format>
    <dc:creator>
     <cc:Agent>
      <dc:title>Matplotlib v3.9.0, https://matplotlib.org/</dc:title>
     </cc:Agent>
    </dc:creator>
   </cc:Work>
  </rdf:RDF>
 </metadata>
 <defs>
  <style type="text/css">*{stroke-linejoin: round; stroke-linecap: butt}</style>
 </defs>
 <g id="figure_1">
  <g id="patch_1">
   <path d="M 0 216 
L 576 216 
L 576 0 
L 0 0 
z
" style="fill: #ffffff"/>
  </g>
  <g id="patch_2">
   <path d="M 72 174.727059 
L 203.294118 174.727059 
L 203.294118 43.432941 
L 72 43.432941 
z
" style="fill: #ffffff"/>
  </g>
  <g id="pane3d_1">
   <g id="patch_3">
    <path d="M 81.913611 142.354137 
L 125.271217 106.010932 
L 124.668505 53.597534 
L 79.236014 86.752097 
" style="fill: #f2f2f2; opacity: 0.5; stroke: #f2f2f2; stroke-linejoin: miter"/>
   </g>
  </g>
  <g id="pane3d_2">
   <g id="patch_4">
    <path d="M 125.271217 106.010932 
L 194.844704 126.233198 
L 197.327536 72.014481 
L 124.668505 53.597534 
" style="fill: #e6e6e6; opacity: 0.5; stroke: #e6e6e6; stroke-linejoin: miter"/>
   </g>
  </g>
  <g id="pane3d_3">
   <g id="patch_5">
    <path d="M 81.913611 142.354137 
L 155.664905 166.44131 
L 194.844704 126.233198 
L 125.271217 106.010932 
" style="fill: #ececec; opacity: 0.5; stroke: #ececec; stroke-linejoin: miter"/>
   </g>
  </g>
  <g id="grid3d_1">
   <g id="Line3DCollection_1">
    <path d="M 86.380377 143.812983 
L 129.502463 107.240789 
L 129.078651 54.715378 
" style="fill: none; stroke: #b0b0b0; stroke-width: 0.8"/>
    <path d="M 96.700984 147.183693 
L 139.27023 110.079893 
L 139.263728 57.296998 
" style="fill: none; stroke: #b0b0b0; stroke-width: 0.8"/>
    <path d="M 107.178688 150.605711 
L 149.174324 112.958622 
L 149.597119 59.916212 
" style="fill: none; stroke: #b0b0b0; stroke-width: 0.8"/>
    <path d="M 117.817105 154.080218 
L 159.21762 115.877812 
L 160.082088 62.573845 
" style="fill: none; stroke: #b0b0b0; stroke-width: 0.8"/>
    <path d="M 128.61996 157.60843 
L 169.403072 118.83832 
L 170.721993 65.270751 
" style="fill: none; stroke: #b0b0b0; stroke-width: 0.8"/>
    <path d="M 139.591095 161.191603 
L 179.733721 121.841032 
L 181.520295 68.007806 
" style="fill: none; stroke: #b0b0b0; stroke-width: 0.8"/>
   </g>
  </g>
  <g id="grid3d_2">
   <g id="Line3DCollection_2">
    <path d="M 82.377783 84.459376 
L 84.901317 139.849783 
L 158.375844 163.659219 
" style="fill: none; stroke: #b0b0b0; stroke-width: 0.8"/>
   </g>
  </g>
  <g id="grid3d_3">
   <g id="Line3DCollection_3">
    <path d="M 194.892272 125.194428 
L 125.259646 105.004668 
L 81.862396 141.290624 
" style="fill: none; stroke: #b0b0b0; stroke-width: 0.8"/>
    <path d="M 195.619826 109.306512 
L 125.082781 89.624085 
L 81.078654 125.015712 
" style="fill: none; stroke: #b0b0b0; stroke-width: 0.8"/>
    <path d="M 196.366718 92.996288 
L 124.901443 73.854468 
L 80.273274 108.291473 
" style="fill: none; stroke: #b0b0b0; stroke-width: 0.8"/>
    <path d="M 197.133731 76.24669 
L 124.71546 57.680868 
L 79.445347 91.099037 
" style="fill: none; stroke: #b0b0b0; stroke-width: 0.8"/>
   </g>
  </g>
  <g id="axis3d_1">
   <g id="line2d_1">
    <path d="M 81.913611 142.354137 
L 155.664905 166.44131 
" style="fill: none; stroke: #000000; stroke-width: 0.8; stroke-linecap: square"/>
   </g>
   <g id="xtick_1">
    <g id="line2d_2">
     <path d="M 86.755881 143.494514 
L 85.627756 144.451286 
" style="fill: none; stroke: #000000; stroke-width: 0.8; stroke-linecap: square"/>
    </g>
    <g id="text_1">
     <!-- 50 -->
     <g transform="translate(72.459978 167.18233) scale(0.1 -0.1)">
      <defs>
       <path id="DejaVuSans-35" d="M 691 4666 
L 3169 4666 
L 3169 4134 
L 1269 4134 
L 1269 2991 
Q 1406 3038 1543 3061 
Q 1681 3084 1819 3084 
Q 2600 3084 3056 2656 
Q 3513 2228 3513 1497 
Q 3513 744 3044 326 
Q 2575 -91 1722 -91 
Q 1428 -91 1123 -41 
Q 819 9 494 109 
L 494 744 
Q 775 591 1075 516 
Q 1375 441 1709 441 
Q 2250 441 2565 725 
Q 2881 1009 2881 1497 
Q 2881 1984 2565 2268 
Q 2250 2553 1709 2553 
Q 1456 2553 1204 2497 
Q 953 2441 691 2322 
L 691 4666 
z
" transform="scale(0.015625)"/>
       <path id="DejaVuSans-30" d="M 2034 4250 
Q 1547 4250 1301 3770 
Q 1056 3291 1056 2328 
Q 1056 1369 1301 889 
Q 1547 409 2034 409 
Q 2525 409 2770 889 
Q 3016 1369 3016 2328 
Q 3016 3291 2770 3770 
Q 2525 4250 2034 4250 
z
M 2034 4750 
Q 2819 4750 3233 4129 
Q 3647 3509 3647 2328 
Q 3647 1150 3233 529 
Q 2819 -91 2034 -91 
Q 1250 -91 836 529 
Q 422 1150 422 2328 
Q 422 3509 836 4129 
Q 1250 4750 2034 4750 
z
" transform="scale(0.015625)"/>
      </defs>
      <use xlink:href="#DejaVuSans-35"/>
      <use xlink:href="#DejaVuSans-30" x="63.623047"/>
     </g>
    </g>
   </g>
   <g id="xtick_2">
    <g id="line2d_3">
     <path d="M 97.071902 146.860397 
L 95.957544 147.831683 
" style="fill: none; stroke: #000000; stroke-width: 0.8; stroke-linecap: square"/>
    </g>
    <g id="text_2">
     <!-- 100 -->
     <g transform="translate(79.620463 170.698759) scale(0.1 -0.1)">
      <defs>
       <path id="DejaVuSans-31" d="M 794 531 
L 1825 531 
L 1825 4091 
L 703 3866 
L 703 4441 
L 1819 4666 
L 2450 4666 
L 2450 531 
L 3481 531 
L 3481 0 
L 794 0 
L 794 531 
z
" transform="scale(0.015625)"/>
      </defs>
      <use xlink:href="#DejaVuSans-31"/>
      <use xlink:href="#DejaVuSans-30" x="63.623047"/>
      <use xlink:href="#DejaVuSans-30" x="127.246094"/>
     </g>
    </g>
   </g>
   <g id="xtick_3">
    <g id="line2d_4">
     <path d="M 107.544836 150.277477 
L 106.444797 151.263609 
" style="fill: none; stroke: #000000; stroke-width: 0.8; stroke-linecap: square"/>
    </g>
    <g id="text_3">
     <!-- 200 -->
     <g transform="translate(90.120826 174.269125) scale(0.1 -0.1)">
      <defs>
       <path id="DejaVuSans-32" d="M 1228 531 
L 3431 531 
L 3431 0 
L 469 0 
L 469 531 
Q 828 903 1448 1529 
Q 2069 2156 2228 2338 
Q 2531 2678 2651 2914 
Q 2772 3150 2772 3378 
Q 2772 3750 2511 3984 
Q 2250 4219 1831 4219 
Q 1534 4219 1204 4116 
Q 875 4013 500 3803 
L 500 4441 
Q 881 4594 1212 4672 
Q 1544 4750 1819 4750 
Q 2544 4750 2975 4387 
Q 3406 4025 3406 3419 
Q 3406 3131 3298 2873 
Q 3191 2616 2906 2266 
Q 2828 2175 2409 1742 
Q 1991 1309 1228 531 
z
" transform="scale(0.015625)"/>
      </defs>
      <use xlink:href="#DejaVuSans-32"/>
      <use xlink:href="#DejaVuSans-30" x="63.623047"/>
      <use xlink:href="#DejaVuSans-30" x="127.246094"/>
     </g>
    </g>
   </g>
   <g id="xtick_4">
    <g id="line2d_5">
     <path d="M 118.178292 153.746932 
L 117.093145 154.748253 
" style="fill: none; stroke: #000000; stroke-width: 0.8; stroke-linecap: square"/>
    </g>
    <g id="text_4">
     <!-- 250 -->
     <g transform="translate(100.783494 177.894679) scale(0.1 -0.1)">
      <use xlink:href="#DejaVuSans-32"/>
      <use xlink:href="#DejaVuSans-35" x="63.623047"/>
      <use xlink:href="#DejaVuSans-30" x="127.246094"/>
     </g>
    </g>
   </g>
   <g id="xtick_5">
    <g id="line2d_6">
     <path d="M 128.975989 157.269975 
L 127.906327 158.286839 
" style="fill: none; stroke: #000000; stroke-width: 0.8; stroke-linecap: square"/>
    </g>
    <g id="text_5">
     <!-- 500 -->
     <g transform="translate(111.612262 181.57671) scale(0.1 -0.1)">
      <use xlink:href="#DejaVuSans-35"/>
      <use xlink:href="#DejaVuSans-30" x="63.623047"/>
      <use xlink:href="#DejaVuSans-30" x="127.246094"/>
     </g>
    </g>
   </g>
   <g id="xtick_6">
    <g id="line2d_7">
     <path d="M 139.941761 160.847857 
L 138.888201 161.880629 
" style="fill: none; stroke: #000000; stroke-width: 0.8; stroke-linecap: square"/>
    </g>
    <g id="text_6">
     <!-- 1000 -->
     <g transform="translate(119.429789 185.316549) scale(0.1 -0.1)">
      <use xlink:href="#DejaVuSans-31"/>
      <use xlink:href="#DejaVuSans-30" x="63.623047"/>
      <use xlink:href="#DejaVuSans-30" x="127.246094"/>
      <use xlink:href="#DejaVuSans-30" x="190.869141"/>
     </g>
    </g>
   </g>
   <g id="text_7">
    <!-- support -->
    <g transform="translate(82.28057 186.318757) rotate(-341.912962) scale(0.1 -0.1)">
     <defs>
      <path id="DejaVuSans-73" d="M 2834 3397 
L 2834 2853 
Q 2591 2978 2328 3040 
Q 2066 3103 1784 3103 
Q 1356 3103 1142 2972 
Q 928 2841 928 2578 
Q 928 2378 1081 2264 
Q 1234 2150 1697 2047 
L 1894 2003 
Q 2506 1872 2764 1633 
Q 3022 1394 3022 966 
Q 3022 478 2636 193 
Q 2250 -91 1575 -91 
Q 1294 -91 989 -36 
Q 684 19 347 128 
L 347 722 
Q 666 556 975 473 
Q 1284 391 1588 391 
Q 1994 391 2212 530 
Q 2431 669 2431 922 
Q 2431 1156 2273 1281 
Q 2116 1406 1581 1522 
L 1381 1569 
Q 847 1681 609 1914 
Q 372 2147 372 2553 
Q 372 3047 722 3315 
Q 1072 3584 1716 3584 
Q 2034 3584 2315 3537 
Q 2597 3491 2834 3397 
z
" transform="scale(0.015625)"/>
      <path id="DejaVuSans-75" d="M 544 1381 
L 544 3500 
L 1119 3500 
L 1119 1403 
Q 1119 906 1312 657 
Q 1506 409 1894 409 
Q 2359 409 2629 706 
Q 2900 1003 2900 1516 
L 2900 3500 
L 3475 3500 
L 3475 0 
L 2900 0 
L 2900 538 
Q 2691 219 2414 64 
Q 2138 -91 1772 -91 
Q 1169 -91 856 284 
Q 544 659 544 1381 
z
M 1991 3584 
L 1991 3584 
z
" transform="scale(0.015625)"/>
      <path id="DejaVuSans-70" d="M 1159 525 
L 1159 -1331 
L 581 -1331 
L 581 3500 
L 1159 3500 
L 1159 2969 
Q 1341 3281 1617 3432 
Q 1894 3584 2278 3584 
Q 2916 3584 3314 3078 
Q 3713 2572 3713 1747 
Q 3713 922 3314 415 
Q 2916 -91 2278 -91 
Q 1894 -91 1617 61 
Q 1341 213 1159 525 
z
M 3116 1747 
Q 3116 2381 2855 2742 
Q 2594 3103 2138 3103 
Q 1681 3103 1420 2742 
Q 1159 2381 1159 1747 
Q 1159 1113 1420 752 
Q 1681 391 2138 391 
Q 2594 391 2855 752 
Q 3116 1113 3116 1747 
z
" transform="scale(0.015625)"/>
      <path id="DejaVuSans-6f" d="M 1959 3097 
Q 1497 3097 1228 2736 
Q 959 2375 959 1747 
Q 959 1119 1226 758 
Q 1494 397 1959 397 
Q 2419 397 2687 759 
Q 2956 1122 2956 1747 
Q 2956 2369 2687 2733 
Q 2419 3097 1959 3097 
z
M 1959 3584 
Q 2709 3584 3137 3096 
Q 3566 2609 3566 1747 
Q 3566 888 3137 398 
Q 2709 -91 1959 -91 
Q 1206 -91 779 398 
Q 353 888 353 1747 
Q 353 2609 779 3096 
Q 1206 3584 1959 3584 
z
" transform="scale(0.015625)"/>
      <path id="DejaVuSans-72" d="M 2631 2963 
Q 2534 3019 2420 3045 
Q 2306 3072 2169 3072 
Q 1681 3072 1420 2755 
Q 1159 2438 1159 1844 
L 1159 0 
L 581 0 
L 581 3500 
L 1159 3500 
L 1159 2956 
Q 1341 3275 1631 3429 
Q 1922 3584 2338 3584 
Q 2397 3584 2469 3576 
Q 2541 3569 2628 3553 
L 2631 2963 
z
" transform="scale(0.015625)"/>
      <path id="DejaVuSans-74" d="M 1172 4494 
L 1172 3500 
L 2356 3500 
L 2356 3053 
L 1172 3053 
L 1172 1153 
Q 1172 725 1289 603 
Q 1406 481 1766 481 
L 2356 481 
L 2356 0 
L 1766 0 
Q 1100 0 847 248 
Q 594 497 594 1153 
L 594 3053 
L 172 3053 
L 172 3500 
L 594 3500 
L 594 4494 
L 1172 4494 
z
" transform="scale(0.015625)"/>
     </defs>
     <use xlink:href="#DejaVuSans-73"/>
     <use xlink:href="#DejaVuSans-75" x="52.099609"/>
     <use xlink:href="#DejaVuSans-70" x="115.478516"/>
     <use xlink:href="#DejaVuSans-70" x="178.955078"/>
     <use xlink:href="#DejaVuSans-6f" x="242.431641"/>
     <use xlink:href="#DejaVuSans-72" x="303.613281"/>
     <use xlink:href="#DejaVuSans-74" x="344.726562"/>
    </g>
   </g>
  </g>
  <g id="axis3d_2">
   <g id="line2d_8">
    <path d="M 194.844704 126.233198 
L 155.664905 166.44131 
" style="fill: none; stroke: #000000; stroke-width: 0.8; stroke-linecap: square"/>
   </g>
   <g id="xtick_7">
    <g id="line2d_9">
     <path d="M 157.756672 163.458577 
L 159.61579 164.061024 
" style="fill: none; stroke: #000000; stroke-width: 0.8; stroke-linecap: square"/>
    </g>
    <g id="text_8">
     <!-- -1 -->
     <g transform="translate(166.279246 184.689208) scale(0.1 -0.1)">
      <defs>
       <path id="DejaVuSans-2d" d="M 313 2009 
L 1997 2009 
L 1997 1497 
L 313 1497 
L 313 2009 
z
" transform="scale(0.015625)"/>
      </defs>
      <use xlink:href="#DejaVuSans-2d"/>
      <use xlink:href="#DejaVuSans-31" x="36.083984"/>
     </g>
    </g>
   </g>
   <g id="text_9">
    <!-- window -->
    <g transform="translate(191.873976 188.99679) rotate(-45.742112) scale(0.1 -0.1)">
     <defs>
      <path id="DejaVuSans-77" d="M 269 3500 
L 844 3500 
L 1563 769 
L 2278 3500 
L 2956 3500 
L 3675 769 
L 4391 3500 
L 4966 3500 
L 4050 0 
L 3372 0 
L 2619 2869 
L 1863 0 
L 1184 0 
L 269 3500 
z
" transform="scale(0.015625)"/>
      <path id="DejaVuSans-69" d="M 603 3500 
L 1178 3500 
L 1178 0 
L 603 0 
L 603 3500 
z
M 603 4863 
L 1178 4863 
L 1178 4134 
L 603 4134 
L 603 4863 
z
" transform="scale(0.015625)"/>
      <path id="DejaVuSans-6e" d="M 3513 2113 
L 3513 0 
L 2938 0 
L 2938 2094 
Q 2938 2591 2744 2837 
Q 2550 3084 2163 3084 
Q 1697 3084 1428 2787 
Q 1159 2491 1159 1978 
L 1159 0 
L 581 0 
L 581 3500 
L 1159 3500 
L 1159 2956 
Q 1366 3272 1645 3428 
Q 1925 3584 2291 3584 
Q 2894 3584 3203 3211 
Q 3513 2838 3513 2113 
z
" transform="scale(0.015625)"/>
      <path id="DejaVuSans-64" d="M 2906 2969 
L 2906 4863 
L 3481 4863 
L 3481 0 
L 2906 0 
L 2906 525 
Q 2725 213 2448 61 
Q 2172 -91 1784 -91 
Q 1150 -91 751 415 
Q 353 922 353 1747 
Q 353 2572 751 3078 
Q 1150 3584 1784 3584 
Q 2172 3584 2448 3432 
Q 2725 3281 2906 2969 
z
M 947 1747 
Q 947 1113 1208 752 
Q 1469 391 1925 391 
Q 2381 391 2643 752 
Q 2906 1113 2906 1747 
Q 2906 2381 2643 2742 
Q 2381 3103 1925 3103 
Q 1469 3103 1208 2742 
Q 947 2381 947 1747 
z
" transform="scale(0.015625)"/>
     </defs>
     <use xlink:href="#DejaVuSans-77"/>
     <use xlink:href="#DejaVuSans-69" x="81.787109"/>
     <use xlink:href="#DejaVuSans-6e" x="109.570312"/>
     <use xlink:href="#DejaVuSans-64" x="172.949219"/>
     <use xlink:href="#DejaVuSans-6f" x="236.425781"/>
     <use xlink:href="#DejaVuSans-77" x="297.607422"/>
    </g>
   </g>
  </g>
  <g id="axis3d_3">
   <g id="line2d_10">
    <path d="M 194.844704 126.233198 
L 197.327536 72.014481 
" style="fill: none; stroke: #000000; stroke-width: 0.8; stroke-linecap: square"/>
   </g>
   <g id="xtick_8">
    <g id="line2d_11">
     <path d="M 194.307839 125.024973 
L 196.062529 125.53374 
" style="fill: none; stroke: #000000; stroke-width: 0.8; stroke-linecap: square"/>
    </g>
    <g id="text_10">
     <!-- $10^{0.0}$ -->
     <g transform="translate(200.950133 130.199946) scale(0.1 -0.1)">
      <defs>
       <path id="DejaVuSans-2e" d="M 684 794 
L 1344 794 
L 1344 0 
L 684 0 
L 684 794 
z
" transform="scale(0.015625)"/>
      </defs>
      <use xlink:href="#DejaVuSans-31" transform="translate(0 0.765625)"/>
      <use xlink:href="#DejaVuSans-30" transform="translate(63.623047 0.765625)"/>
      <use xlink:href="#DejaVuSans-30" transform="translate(128.203125 39.046875) scale(0.7)"/>
      <use xlink:href="#DejaVuSans-2e" transform="translate(172.739258 39.046875) scale(0.7)"/>
      <use xlink:href="#DejaVuSans-30" transform="translate(194.990234 39.046875) scale(0.7)"/>
     </g>
    </g>
   </g>
   <g id="xtick_9">
    <g id="line2d_12">
     <path d="M 195.027438 109.141214 
L 196.806029 109.637506 
" style="fill: none; stroke: #000000; stroke-width: 0.8; stroke-linecap: square"/>
    </g>
    <g id="text_11">
     <!-- $10^{1.0}$ -->
     <g transform="translate(201.910564 114.375822) scale(0.1 -0.1)">
      <use xlink:href="#DejaVuSans-31" transform="translate(0 0.765625)"/>
      <use xlink:href="#DejaVuSans-30" transform="translate(63.623047 0.765625)"/>
      <use xlink:href="#DejaVuSans-31" transform="translate(128.203125 39.046875) scale(0.7)"/>
      <use xlink:href="#DejaVuSans-2e" transform="translate(172.739258 39.046875) scale(0.7)"/>
      <use xlink:href="#DejaVuSans-30" transform="translate(194.990234 39.046875) scale(0.7)"/>
     </g>
    </g>
   </g>
   <g id="xtick_10">
    <g id="line2d_13">
     <path d="M 195.766157 92.835429 
L 197.569308 93.318399 
" style="fill: none; stroke: #000000; stroke-width: 0.8; stroke-linecap: square"/>
    </g>
    <g id="text_12">
     <!-- $10^{2.0}$ -->
     <g transform="translate(202.896365 98.133702) scale(0.1 -0.1)">
      <use xlink:href="#DejaVuSans-31" transform="translate(0 0.765625)"/>
      <use xlink:href="#DejaVuSans-30" transform="translate(63.623047 0.765625)"/>
      <use xlink:href="#DejaVuSans-32" transform="translate(128.203125 39.046875) scale(0.7)"/>
      <use xlink:href="#DejaVuSans-2e" transform="translate(172.739258 39.046875) scale(0.7)"/>
      <use xlink:href="#DejaVuSans-30" transform="translate(194.990234 39.046875) scale(0.7)"/>
     </g>
    </g>
   </g>
   <g id="xtick_11">
    <g id="line2d_14">
     <path d="M 196.524768 76.090571 
L 198.353165 76.559316 
" style="fill: none; stroke: #000000; stroke-width: 0.8; stroke-linecap: square"/>
    </g>
    <g id="text_13">
     <!-- $10^{3.0}$ -->
     <g transform="translate(203.908554 81.456803) scale(0.1 -0.1)">
      <defs>
       <path id="DejaVuSans-33" d="M 2597 2516 
Q 3050 2419 3304 2112 
Q 3559 1806 3559 1356 
Q 3559 666 3084 287 
Q 2609 -91 1734 -91 
Q 1441 -91 1130 -33 
Q 819 25 488 141 
L 488 750 
Q 750 597 1062 519 
Q 1375 441 1716 441 
Q 2309 441 2620 675 
Q 2931 909 2931 1356 
Q 2931 1769 2642 2001 
Q 2353 2234 1838 2234 
L 1294 2234 
L 1294 2753 
L 1863 2753 
Q 2328 2753 2575 2939 
Q 2822 3125 2822 3475 
Q 2822 3834 2567 4026 
Q 2313 4219 1838 4219 
Q 1578 4219 1281 4162 
Q 984 4106 628 3988 
L 628 4550 
Q 988 4650 1302 4700 
Q 1616 4750 1894 4750 
Q 2613 4750 3031 4423 
Q 3450 4097 3450 3541 
Q 3450 3153 3228 2886 
Q 3006 2619 2597 2516 
z
" transform="scale(0.015625)"/>
      </defs>
      <use xlink:href="#DejaVuSans-31" transform="translate(0 0.765625)"/>
      <use xlink:href="#DejaVuSans-30" transform="translate(63.623047 0.765625)"/>
      <use xlink:href="#DejaVuSans-33" transform="translate(128.203125 39.046875) scale(0.7)"/>
      <use xlink:href="#DejaVuSans-2e" transform="translate(172.739258 39.046875) scale(0.7)"/>
      <use xlink:href="#DejaVuSans-30" transform="translate(194.990234 39.046875) scale(0.7)"/>
     </g>
    </g>
   </g>
   <g id="text_14">
    <!-- elapsed -->
    <g transform="translate(238.023192 114.01016) rotate(-87.378092) scale(0.1 -0.1)">
     <defs>
      <path id="DejaVuSans-65" d="M 3597 1894 
L 3597 1613 
L 953 1613 
Q 991 1019 1311 708 
Q 1631 397 2203 397 
Q 2534 397 2845 478 
Q 3156 559 3463 722 
L 3463 178 
Q 3153 47 2828 -22 
Q 2503 -91 2169 -91 
Q 1331 -91 842 396 
Q 353 884 353 1716 
Q 353 2575 817 3079 
Q 1281 3584 2069 3584 
Q 2775 3584 3186 3129 
Q 3597 2675 3597 1894 
z
M 3022 2063 
Q 3016 2534 2758 2815 
Q 2500 3097 2075 3097 
Q 1594 3097 1305 2825 
Q 1016 2553 972 2059 
L 3022 2063 
z
" transform="scale(0.015625)"/>
      <path id="DejaVuSans-6c" d="M 603 4863 
L 1178 4863 
L 1178 0 
L 603 0 
L 603 4863 
z
" transform="scale(0.015625)"/>
      <path id="DejaVuSans-61" d="M 2194 1759 
Q 1497 1759 1228 1600 
Q 959 1441 959 1056 
Q 959 750 1161 570 
Q 1363 391 1709 391 
Q 2188 391 2477 730 
Q 2766 1069 2766 1631 
L 2766 1759 
L 2194 1759 
z
M 3341 1997 
L 3341 0 
L 2766 0 
L 2766 531 
Q 2569 213 2275 61 
Q 1981 -91 1556 -91 
Q 1019 -91 701 211 
Q 384 513 384 1019 
Q 384 1609 779 1909 
Q 1175 2209 1959 2209 
L 2766 2209 
L 2766 2266 
Q 2766 2663 2505 2880 
Q 2244 3097 1772 3097 
Q 1472 3097 1187 3025 
Q 903 2953 641 2809 
L 641 3341 
Q 956 3463 1253 3523 
Q 1550 3584 1831 3584 
Q 2591 3584 2966 3190 
Q 3341 2797 3341 1997 
z
" transform="scale(0.015625)"/>
     </defs>
     <use xlink:href="#DejaVuSans-65"/>
     <use xlink:href="#DejaVuSans-6c" x="61.523438"/>
     <use xlink:href="#DejaVuSans-61" x="89.306641"/>
     <use xlink:href="#DejaVuSans-70" x="150.585938"/>
     <use xlink:href="#DejaVuSans-73" x="214.0625"/>
     <use xlink:href="#DejaVuSans-65" x="266.162109"/>
     <use xlink:href="#DejaVuSans-64" x="327.685547"/>
    </g>
   </g>
  </g>
  <g id="axes_1">
   <g id="Poly3DCollection_1">
    <path d="M 89.308111 140.230305 
L 99.601175 143.557901 
L 136.769506 111.241153 
L 126.95975 108.37677 
z
" clip-path="url(#p1927163bff)" style="fill: #c30000"/>
    <path d="M 99.601175 143.557901 
L 110.05016 146.935903 
L 146.717018 114.145759 
L 136.769506 111.241153 
z
" clip-path="url(#p1927163bff)" style="fill: #c30000"/>
    <path d="M 110.05016 146.935903 
L 120.658635 150.365466 
L 156.805209 117.091443 
L 146.717018 114.145759 
z
" clip-path="url(#p1927163bff)" style="fill: #c30000"/>
    <path d="M 120.658635 150.365466 
L 131.430281 153.84778 
L 167.037084 120.079081 
L 156.805209 117.091443 
z
" clip-path="url(#p1927163bff)" style="fill: #c30000"/>
    <path d="M 131.430281 153.84778 
L 142.36889 157.38407 
L 177.415734 123.109576 
L 167.037084 120.079081 
z
" clip-path="url(#p1927163bff)" style="fill: #c30000"/>
    <path d="M 142.36889 157.38407 
L 153.478375 160.975603 
L 187.944341 126.183859 
L 177.415734 123.109576 
z
" clip-path="url(#p1927163bff)" style="fill: #c30000"/>
   </g>
   <g id="text_15">
    <!-- default -->
    <g transform="translate(116.535496 37.432941) scale(0.12 -0.12)">
     <defs>
      <path id="DejaVuSans-66" d="M 2375 4863 
L 2375 4384 
L 1825 4384 
Q 1516 4384 1395 4259 
Q 1275 4134 1275 3809 
L 1275 3500 
L 2222 3500 
L 2222 3053 
L 1275 3053 
L 1275 0 
L 697 0 
L 697 3053 
L 147 3053 
L 147 3500 
L 697 3500 
L 697 3744 
Q 697 4328 969 4595 
Q 1241 4863 1831 4863 
L 2375 4863 
z
" transform="scale(0.015625)"/>
     </defs>
     <use xlink:href="#DejaVuSans-64"/>
     <use xlink:href="#DejaVuSans-65" x="63.476562"/>
     <use xlink:href="#DejaVuSans-66" x="125"/>
     <use xlink:href="#DejaVuSans-61" x="160.205078"/>
     <use xlink:href="#DejaVuSans-75" x="221.484375"/>
     <use xlink:href="#DejaVuSans-6c" x="284.863281"/>
     <use xlink:href="#DejaVuSans-74" x="312.646484"/>
    </g>
   </g>
   <g id="Poly3DCollection_2">
    <path d="M 126.95975 108.37677 
L 126.446238 57.767 
L 136.659438 60.382755 
L 136.769506 111.241153 
z
" clip-path="url(#p1927163bff)" style="fill: #094343"/>
    <path d="M 136.769506 111.241153 
L 136.686609 72.937643 
L 146.946738 75.656295 
L 146.717018 114.145759 
z
" clip-path="url(#p1927163bff)" style="fill: #10335f"/>
    <path d="M 146.717018 114.145759 
L 146.884424 86.097004 
L 157.206982 88.90785 
L 156.805209 117.091443 
z
" clip-path="url(#p1927163bff)" style="fill: #0c3313"/>
    <path d="M 156.805209 117.091443 
L 157.199676 89.420321 
L 167.668292 92.274687 
L 167.037084 120.079081 
z
" clip-path="url(#p1927163bff)" style="fill: #33024a"/>
    <path d="M 167.037084 120.079081 
L 167.451968 101.803652 
L 177.990698 104.746944 
L 177.415734 123.109576 
z
" clip-path="url(#p1927163bff)" style="fill: #07576a"/>
    <path d="M 89.308111 140.230305 
L 126.95975 108.37677 
L 136.769506 111.241153 
L 99.601175 143.557901 
z
" clip-path="url(#p1927163bff)" style="fill: #0b5656"/>
    <path d="M 177.415734 123.109576 
L 177.688678 114.392546 
L 188.295457 117.425644 
L 187.944341 126.183859 
z
" clip-path="url(#p1927163bff)" style="fill: #262312"/>
    <path d="M 99.601175 143.557901 
L 136.769506 111.241153 
L 146.717018 114.145759 
L 110.05016 146.935903 
z
" clip-path="url(#p1927163bff)" style="fill: #154179"/>
    <path d="M 110.05016 146.935903 
L 146.717018 114.145759 
L 156.805209 117.091443 
L 120.658635 150.365466 
z
" clip-path="url(#p1927163bff)" style="fill: #0f4218"/>
    <path d="M 89.308111 140.230305 
L 87.075808 86.940508 
L 126.446238 57.767 
L 126.95975 108.37677 
z
" clip-path="url(#p1927163bff)" style="fill: #138f8e"/>
    <path d="M 99.601175 143.557901 
L 98.255845 103.252845 
L 136.686609 72.937643 
L 136.769506 111.241153 
z
" clip-path="url(#p1927163bff)" style="fill: #226cc9"/>
    <path d="M 120.658635 150.365466 
L 156.805209 117.091443 
L 167.037084 120.079081 
L 131.430281 153.84778 
z
" clip-path="url(#p1927163bff)" style="fill: #41035f"/>
    <path d="M 110.05016 146.935903 
L 109.321853 117.437718 
L 146.884424 86.097004 
L 146.717018 114.145759 
z
" clip-path="url(#p1927163bff)" style="fill: #196d27"/>
    <path d="M 99.601175 143.557901 
L 136.769506 111.241153 
L 136.659438 60.382755 
L 97.813447 89.998926 
z
" clip-path="url(#p1927163bff)" style="fill: #094343"/>
    <path d="M 110.05016 146.935903 
L 146.717018 114.145759 
L 146.946738 75.656295 
L 109.050079 106.4302 
z
" clip-path="url(#p1927163bff)" style="fill: #10335f"/>
    <path d="M 131.430281 153.84778 
L 167.037084 120.079081 
L 177.415734 123.109576 
L 142.36889 157.38407 
z
" clip-path="url(#p1927163bff)" style="fill: #097087"/>
    <path d="M 120.658635 150.365466 
L 120.198285 121.262221 
L 157.199676 89.420321 
L 156.805209 117.091443 
z
" clip-path="url(#p1927163bff)" style="fill: #6c059d"/>
    <path d="M 120.658635 150.365466 
L 156.805209 117.091443 
L 157.206982 88.90785 
L 120.189744 120.722236 
z
" clip-path="url(#p1927163bff)" style="fill: #0c3313"/>
    <path d="M 131.430281 153.84778 
L 131.300477 134.636533 
L 167.451968 101.803652 
L 167.037084 120.079081 
z
" clip-path="url(#p1927163bff)" style="fill: #0fb9e0"/>
    <path d="M 142.36889 157.38407 
L 142.391783 148.225707 
L 177.688678 114.392546 
L 177.415734 123.109576 
z
" clip-path="url(#p1927163bff)" style="fill: #514926"/>
    <path d="M 142.36889 157.38407 
L 177.415734 123.109576 
L 187.944341 126.183859 
L 153.478375 160.975603 
z
" clip-path="url(#p1927163bff)" style="fill: #312c17"/>
    <path d="M 131.430281 153.84778 
L 167.037084 120.079081 
L 167.668292 92.274687 
L 131.232672 124.601293 
z
" clip-path="url(#p1927163bff)" style="fill: #33024a"/>
    <path d="M 109.321853 117.437718 
L 120.189744 120.722236 
L 157.206982 88.90785 
L 146.884424 86.097004 
z
" clip-path="url(#p1927163bff)" style="fill: #165f22"/>
    <path d="M 98.255845 103.252845 
L 109.050079 106.4302 
L 146.946738 75.656295 
L 136.686609 72.937643 
z
" clip-path="url(#p1927163bff)" style="fill: #1e5eae"/>
    <path d="M 142.36889 157.38407 
L 177.415734 123.109576 
L 177.990698 104.746944 
L 142.417146 138.079391 
z
" clip-path="url(#p1927163bff)" style="fill: #07576a"/>
    <path d="M 87.075808 86.940508 
L 97.813447 89.998926 
L 136.659438 60.382755 
L 126.446238 57.767 
z
" clip-path="url(#p1927163bff)" style="fill: #107c7c"/>
    <path d="M 142.391783 148.225707 
L 153.588414 151.77326 
L 188.295457 117.425644 
L 177.688678 114.392546 
z
" clip-path="url(#p1927163bff)" style="fill: #464021"/>
    <path d="M 153.478375 160.975603 
L 187.944341 126.183859 
L 188.295457 117.425644 
L 153.588414 151.77326 
z
" clip-path="url(#p1927163bff)" style="fill: #262312"/>
    <path d="M 131.300477 134.636533 
L 142.417146 138.079391 
L 177.990698 104.746944 
L 167.451968 101.803652 
z
" clip-path="url(#p1927163bff)" style="fill: #0da1c3"/>
    <path d="M 120.198285 121.262221 
L 131.232672 124.601293 
L 167.668292 92.274687 
L 157.199676 89.420321 
z
" clip-path="url(#p1927163bff)" style="fill: #5e0488"/>
    <path d="M 89.308111 140.230305 
L 99.601175 143.557901 
L 97.813447 89.998926 
L 87.075808 86.940508 
z
" clip-path="url(#p1927163bff)" style="fill: #138f8e"/>
    <path d="M 99.601175 143.557901 
L 110.05016 146.935903 
L 109.050079 106.4302 
L 98.255845 103.252845 
z
" clip-path="url(#p1927163bff)" style="fill: #226cc9"/>
    <path d="M 110.05016 146.935903 
L 120.658635 150.365466 
L 120.189744 120.722236 
L 109.321853 117.437718 
z
" clip-path="url(#p1927163bff)" style="fill: #196d27"/>
    <path d="M 120.658635 150.365466 
L 131.430281 153.84778 
L 131.232672 124.601293 
L 120.198285 121.262221 
z
" clip-path="url(#p1927163bff)" style="fill: #6c059d"/>
    <path d="M 131.430281 153.84778 
L 142.36889 157.38407 
L 142.417146 138.079391 
L 131.300477 134.636533 
z
" clip-path="url(#p1927163bff)" style="fill: #0fb9e0"/>
    <path d="M 142.36889 157.38407 
L 153.478375 160.975603 
L 153.588414 151.77326 
L 142.391783 148.225707 
z
" clip-path="url(#p1927163bff)" style="fill: #514926"/>
   </g>
  </g>
  <g id="patch_6">
   <path d="M 229.552941 174.727059 
L 360.847059 174.727059 
L 360.847059 43.432941 
L 229.552941 43.432941 
z
" style="fill: #ffffff"/>
  </g>
  <g id="pane3d_4">
   <g id="patch_7">
    <path d="M 239.466552 142.354137 
L 282.824158 106.010932 
L 282.221446 53.597534 
L 236.788955 86.752097 
" style="fill: #f2f2f2; opacity: 0.5; stroke: #f2f2f2; stroke-linejoin: miter"/>
   </g>
  </g>
  <g id="pane3d_5">
   <g id="patch_8">
    <path d="M 282.824158 106.010932 
L 352.397645 126.233198 
L 354.880477 72.014481 
L 282.221446 53.597534 
" style="fill: #e6e6e6; opacity: 0.5; stroke: #e6e6e6; stroke-linejoin: miter"/>
   </g>
  </g>
  <g id="pane3d_6">
   <g id="patch_9">
    <path d="M 239.466552 142.354137 
L 313.217847 166.44131 
L 352.397645 126.233198 
L 282.824158 106.010932 
" style="fill: #ececec; opacity: 0.5; stroke: #ececec; stroke-linejoin: miter"/>
   </g>
  </g>
  <g id="grid3d_4">
   <g id="Line3DCollection_4">
    <path d="M 243.933318 143.812983 
L 287.055404 107.240789 
L 286.631593 54.715378 
" style="fill: none; stroke: #b0b0b0; stroke-width: 0.8"/>
    <path d="M 264.731629 150.605711 
L 306.727265 112.958622 
L 307.150061 59.916212 
" style="fill: none; stroke: #b0b0b0; stroke-width: 0.8"/>
    <path d="M 286.172901 157.60843 
L 326.956013 118.83832 
L 328.274934 65.270751 
" style="fill: none; stroke: #b0b0b0; stroke-width: 0.8"/>
   </g>
  </g>
  <g id="grid3d_5">
   <g id="Line3DCollection_5">
    <path d="M 239.930725 84.459376 
L 242.454258 139.849783 
L 315.928785 163.659219 
" style="fill: none; stroke: #b0b0b0; stroke-width: 0.8"/>
    <path d="M 250.427047 76.799639 
L 252.447238 131.473469 
L 324.984068 154.366272 
" style="fill: none; stroke: #b0b0b0; stroke-width: 0.8"/>
    <path d="M 260.515829 69.437305 
L 262.068747 123.408529 
L 333.685325 145.436641 
" style="fill: none; stroke: #b0b0b0; stroke-width: 0.8"/>
    <path d="M 270.220354 62.355385 
L 271.339121 115.637918 
L 342.05292 136.849431 
" style="fill: none; stroke: #b0b0b0; stroke-width: 0.8"/>
   </g>
  </g>
  <g id="grid3d_6">
   <g id="Line3DCollection_6">
    <path d="M 352.445213 125.194428 
L 282.812587 105.004668 
L 239.415337 141.290624 
" style="fill: none; stroke: #b0b0b0; stroke-width: 0.8"/>
    <path d="M 353.391509 104.529753 
L 282.58259 85.003578 
L 238.395809 120.119457 
" style="fill: none; stroke: #b0b0b0; stroke-width: 0.8"/>
    <path d="M 354.370651 83.147792 
L 282.345 64.342096 
L 237.339512 98.184766 
" style="fill: none; stroke: #b0b0b0; stroke-width: 0.8"/>
   </g>
  </g>
  <g id="axis3d_4">
   <g id="line2d_15">
    <path d="M 239.466552 142.354137 
L 313.217847 166.44131 
" style="fill: none; stroke: #000000; stroke-width: 0.8; stroke-linecap: square"/>
   </g>
   <g id="xtick_12">
    <g id="line2d_16">
     <path d="M 244.308823 143.494514 
L 243.180697 144.451286 
" style="fill: none; stroke: #000000; stroke-width: 0.8; stroke-linecap: square"/>
    </g>
    <g id="text_16">
     <!-- 0.01 -->
     <g transform="translate(225.242607 167.18233) scale(0.1 -0.1)">
      <use xlink:href="#DejaVuSans-30"/>
      <use xlink:href="#DejaVuSans-2e" x="63.623047"/>
      <use xlink:href="#DejaVuSans-30" x="95.410156"/>
      <use xlink:href="#DejaVuSans-31" x="159.033203"/>
     </g>
    </g>
   </g>
   <g id="xtick_13">
    <g id="line2d_17">
     <path d="M 265.097777 150.277477 
L 263.997738 151.263609 
" style="fill: none; stroke: #000000; stroke-width: 0.8; stroke-linecap: square"/>
    </g>
    <g id="text_17">
     <!-- 0.05 -->
     <g transform="translate(246.084704 174.269125) scale(0.1 -0.1)">
      <use xlink:href="#DejaVuSans-30"/>
      <use xlink:href="#DejaVuSans-2e" x="63.623047"/>
      <use xlink:href="#DejaVuSans-30" x="95.410156"/>
      <use xlink:href="#DejaVuSans-35" x="159.033203"/>
     </g>
    </g>
   </g>
   <g id="xtick_14">
    <g id="line2d_18">
     <path d="M 286.52893 157.269975 
L 285.459268 158.286839 
" style="fill: none; stroke: #000000; stroke-width: 0.8; stroke-linecap: square"/>
    </g>
    <g id="text_18">
     <!-- 0.1 -->
     <g transform="translate(270.75739 181.57671) scale(0.1 -0.1)">
      <use xlink:href="#DejaVuSans-30"/>
      <use xlink:href="#DejaVuSans-2e" x="63.623047"/>
      <use xlink:href="#DejaVuSans-31" x="95.410156"/>
     </g>
    </g>
   </g>
   <g id="text_19">
    <!-- support -->
    <g transform="translate(239.833511 186.318757) rotate(-341.912962) scale(0.1 -0.1)">
     <use xlink:href="#DejaVuSans-73"/>
     <use xlink:href="#DejaVuSans-75" x="52.099609"/>
     <use xlink:href="#DejaVuSans-70" x="115.478516"/>
     <use xlink:href="#DejaVuSans-70" x="178.955078"/>
     <use xlink:href="#DejaVuSans-6f" x="242.431641"/>
     <use xlink:href="#DejaVuSans-72" x="303.613281"/>
     <use xlink:href="#DejaVuSans-74" x="344.726562"/>
    </g>
   </g>
  </g>
  <g id="axis3d_5">
   <g id="line2d_19">
    <path d="M 352.397645 126.233198 
L 313.217847 166.44131 
" style="fill: none; stroke: #000000; stroke-width: 0.8; stroke-linecap: square"/>
   </g>
   <g id="xtick_15">
    <g id="line2d_20">
     <path d="M 315.309613 163.458577 
L 317.168731 164.061024 
" style="fill: none; stroke: #000000; stroke-width: 0.8; stroke-linecap: square"/>
    </g>
    <g id="text_20">
     <!-- 1000 -->
     <g transform="translate(316.092344 184.689208) scale(0.1 -0.1)">
      <use xlink:href="#DejaVuSans-31"/>
      <use xlink:href="#DejaVuSans-30" x="63.623047"/>
      <use xlink:href="#DejaVuSans-30" x="127.246094"/>
      <use xlink:href="#DejaVuSans-30" x="190.869141"/>
     </g>
    </g>
   </g>
   <g id="xtick_16">
    <g id="line2d_21">
     <path d="M 324.373415 154.173548 
L 326.206921 154.752207 
" style="fill: none; stroke: #000000; stroke-width: 0.8; stroke-linecap: square"/>
    </g>
    <g id="text_21">
     <!-- 2000 -->
     <g transform="translate(324.901129 175.117086) scale(0.1 -0.1)">
      <use xlink:href="#DejaVuSans-32"/>
      <use xlink:href="#DejaVuSans-30" x="63.623047"/>
      <use xlink:href="#DejaVuSans-30" x="127.246094"/>
      <use xlink:href="#DejaVuSans-30" x="190.869141"/>
     </g>
    </g>
   </g>
   <g id="xtick_17">
    <g id="line2d_22">
     <path d="M 333.083005 145.251378 
L 334.891462 145.80763 
" style="fill: none; stroke: #000000; stroke-width: 0.8; stroke-linecap: square"/>
    </g>
    <g id="text_22">
     <!-- 5000 -->
     <g transform="translate(333.365123 165.919634) scale(0.1 -0.1)">
      <use xlink:href="#DejaVuSans-35"/>
      <use xlink:href="#DejaVuSans-30" x="63.623047"/>
      <use xlink:href="#DejaVuSans-30" x="127.246094"/>
      <use xlink:href="#DejaVuSans-30" x="190.869141"/>
     </g>
    </g>
   </g>
   <g id="xtick_18">
    <g id="line2d_23">
     <path d="M 341.458749 136.671202 
L 343.24271 137.206324 
" style="fill: none; stroke: #000000; stroke-width: 0.8; stroke-linecap: square"/>
    </g>
    <g id="text_23">
     <!-- 10000 -->
     <g transform="translate(338.322932 157.075275) scale(0.1 -0.1)">
      <use xlink:href="#DejaVuSans-31"/>
      <use xlink:href="#DejaVuSans-30" x="63.623047"/>
      <use xlink:href="#DejaVuSans-30" x="127.246094"/>
      <use xlink:href="#DejaVuSans-30" x="190.869141"/>
      <use xlink:href="#DejaVuSans-30" x="254.492188"/>
     </g>
    </g>
   </g>
   <g id="text_24">
    <!-- window -->
    <g transform="translate(349.426917 188.99679) rotate(-45.742112) scale(0.1 -0.1)">
     <use xlink:href="#DejaVuSans-77"/>
     <use xlink:href="#DejaVuSans-69" x="81.787109"/>
     <use xlink:href="#DejaVuSans-6e" x="109.570312"/>
     <use xlink:href="#DejaVuSans-64" x="172.949219"/>
     <use xlink:href="#DejaVuSans-6f" x="236.425781"/>
     <use xlink:href="#DejaVuSans-77" x="297.607422"/>
    </g>
   </g>
  </g>
  <g id="axis3d_6">
   <g id="line2d_24">
    <path d="M 352.397645 126.233198 
L 354.880477 72.014481 
" style="fill: none; stroke: #000000; stroke-width: 0.8; stroke-linecap: square"/>
   </g>
   <g id="xtick_19">
    <g id="line2d_25">
     <path d="M 351.86078 125.024973 
L 353.61547 125.53374 
" style="fill: none; stroke: #000000; stroke-width: 0.8; stroke-linecap: square"/>
    </g>
    <g id="text_25">
     <!-- $10^{0.0}$ -->
     <g transform="translate(358.503074 130.199946) scale(0.1 -0.1)">
      <use xlink:href="#DejaVuSans-31" transform="translate(0 0.765625)"/>
      <use xlink:href="#DejaVuSans-30" transform="translate(63.623047 0.765625)"/>
      <use xlink:href="#DejaVuSans-30" transform="translate(128.203125 39.046875) scale(0.7)"/>
      <use xlink:href="#DejaVuSans-2e" transform="translate(172.739258 39.046875) scale(0.7)"/>
      <use xlink:href="#DejaVuSans-30" transform="translate(194.990234 39.046875) scale(0.7)"/>
     </g>
    </g>
   </g>
   <g id="xtick_20">
    <g id="line2d_26">
     <path d="M 352.796728 104.365737 
L 354.582509 104.858181 
" style="fill: none; stroke: #000000; stroke-width: 0.8; stroke-linecap: square"/>
    </g>
    <g id="text_26">
     <!-- $10^{1.0}$ -->
     <g transform="translate(359.752232 109.618734) scale(0.1 -0.1)">
      <use xlink:href="#DejaVuSans-31" transform="translate(0 0.765625)"/>
      <use xlink:href="#DejaVuSans-30" transform="translate(63.623047 0.765625)"/>
      <use xlink:href="#DejaVuSans-31" transform="translate(128.203125 39.046875) scale(0.7)"/>
      <use xlink:href="#DejaVuSans-2e" transform="translate(172.739258 39.046875) scale(0.7)"/>
      <use xlink:href="#DejaVuSans-30" transform="translate(194.990234 39.046875) scale(0.7)"/>
     </g>
    </g>
   </g>
   <g id="xtick_21">
    <g id="line2d_27">
     <path d="M 353.76515 82.989697 
L 355.583142 83.46437 
" style="fill: none; stroke: #000000; stroke-width: 0.8; stroke-linecap: square"/>
    </g>
    <g id="text_27">
     <!-- $10^{2.0}$ -->
     <g transform="translate(361.044478 88.327613) scale(0.1 -0.1)">
      <use xlink:href="#DejaVuSans-31" transform="translate(0 0.765625)"/>
      <use xlink:href="#DejaVuSans-30" transform="translate(63.623047 0.765625)"/>
      <use xlink:href="#DejaVuSans-32" transform="translate(128.203125 39.046875) scale(0.7)"/>
      <use xlink:href="#DejaVuSans-2e" transform="translate(172.739258 39.046875) scale(0.7)"/>
      <use xlink:href="#DejaVuSans-30" transform="translate(194.990234 39.046875) scale(0.7)"/>
     </g>
    </g>
   </g>
   <g id="text_28">
    <!-- elapsed -->
    <g transform="translate(395.576133 114.01016) rotate(-87.378092) scale(0.1 -0.1)">
     <use xlink:href="#DejaVuSans-65"/>
     <use xlink:href="#DejaVuSans-6c" x="61.523438"/>
     <use xlink:href="#DejaVuSans-61" x="89.306641"/>
     <use xlink:href="#DejaVuSans-70" x="150.585938"/>
     <use xlink:href="#DejaVuSans-73" x="214.0625"/>
     <use xlink:href="#DejaVuSans-65" x="266.162109"/>
     <use xlink:href="#DejaVuSans-64" x="327.685547"/>
    </g>
   </g>
  </g>
  <g id="axes_2">
   <g id="Poly3DCollection_3">
    <path d="M 275.617088 115.90251 
L 295.614227 121.886338 
L 304.269959 114.145759 
L 284.512691 108.37677 
z
" clip-path="url(#p96c162f0b3)" style="fill: #c30000"/>
    <path d="M 295.614227 121.886338 
L 316.191734 128.043833 
L 324.590025 120.079081 
L 304.269959 114.145759 
z
" clip-path="url(#p96c162f0b3)" style="fill: #c30000"/>
    <path d="M 266.389484 123.709123 
L 286.630739 129.92002 
L 295.614227 121.886338 
L 275.617088 115.90251 
z
" clip-path="url(#p96c162f0b3)" style="fill: #c30000"/>
    <path d="M 316.191734 128.043833 
L 337.375247 134.382665 
L 345.497282 126.183859 
L 324.590025 120.079081 
z
" clip-path="url(#p96c162f0b3)" style="fill: #c30000"/>
    <path d="M 286.630739 129.92002 
L 307.470732 136.314637 
L 316.191734 128.043833 
L 295.614227 121.886338 
z
" clip-path="url(#p96c162f0b3)" style="fill: #c30000"/>
    <path d="M 256.810942 131.812633 
L 277.30052 138.263773 
L 286.630739 129.92002 
L 266.389484 123.709123 
z
" clip-path="url(#p96c162f0b3)" style="fill: #c30000"/>
    <path d="M 307.470732 136.314637 
L 328.93643 142.901246 
L 337.375247 134.382665 
L 316.191734 128.043833 
z
" clip-path="url(#p96c162f0b3)" style="fill: #c30000"/>
    <path d="M 277.30052 138.263773 
L 298.408055 144.909478 
L 307.470732 136.314637 
L 286.630739 129.92002 
z
" clip-path="url(#p96c162f0b3)" style="fill: #c30000"/>
    <path d="M 246.861052 140.230305 
L 267.603101 146.935903 
L 277.30052 138.263773 
L 256.810942 131.812633 
z
" clip-path="url(#p96c162f0b3)" style="fill: #c30000"/>
    <path d="M 298.408055 144.909478 
L 320.161932 151.758683 
L 328.93643 142.901246 
L 307.470732 136.314637 
z
" clip-path="url(#p96c162f0b3)" style="fill: #c30000"/>
    <path d="M 267.603101 146.935903 
L 288.983222 153.84778 
L 298.408055 144.909478 
L 277.30052 138.263773 
z
" clip-path="url(#p96c162f0b3)" style="fill: #c30000"/>
    <path d="M 288.983222 153.84778 
L 311.031316 160.975603 
L 320.161932 151.758683 
L 298.408055 144.909478 
z
" clip-path="url(#p96c162f0b3)" style="fill: #c30000"/>
   </g>
   <g id="text_29">
    <!-- graph+logarithm -->
    <g transform="translate(243.651563 37.432941) scale(0.12 -0.12)">
     <defs>
      <path id="DejaVuSans-67" d="M 2906 1791 
Q 2906 2416 2648 2759 
Q 2391 3103 1925 3103 
Q 1463 3103 1205 2759 
Q 947 2416 947 1791 
Q 947 1169 1205 825 
Q 1463 481 1925 481 
Q 2391 481 2648 825 
Q 2906 1169 2906 1791 
z
M 3481 434 
Q 3481 -459 3084 -895 
Q 2688 -1331 1869 -1331 
Q 1566 -1331 1297 -1286 
Q 1028 -1241 775 -1147 
L 775 -588 
Q 1028 -725 1275 -790 
Q 1522 -856 1778 -856 
Q 2344 -856 2625 -561 
Q 2906 -266 2906 331 
L 2906 616 
Q 2728 306 2450 153 
Q 2172 0 1784 0 
Q 1141 0 747 490 
Q 353 981 353 1791 
Q 353 2603 747 3093 
Q 1141 3584 1784 3584 
Q 2172 3584 2450 3431 
Q 2728 3278 2906 2969 
L 2906 3500 
L 3481 3500 
L 3481 434 
z
" transform="scale(0.015625)"/>
      <path id="DejaVuSans-68" d="M 3513 2113 
L 3513 0 
L 2938 0 
L 2938 2094 
Q 2938 2591 2744 2837 
Q 2550 3084 2163 3084 
Q 1697 3084 1428 2787 
Q 1159 2491 1159 1978 
L 1159 0 
L 581 0 
L 581 4863 
L 1159 4863 
L 1159 2956 
Q 1366 3272 1645 3428 
Q 1925 3584 2291 3584 
Q 2894 3584 3203 3211 
Q 3513 2838 3513 2113 
z
" transform="scale(0.015625)"/>
      <path id="DejaVuSans-2b" d="M 2944 4013 
L 2944 2272 
L 4684 2272 
L 4684 1741 
L 2944 1741 
L 2944 0 
L 2419 0 
L 2419 1741 
L 678 1741 
L 678 2272 
L 2419 2272 
L 2419 4013 
L 2944 4013 
z
" transform="scale(0.015625)"/>
      <path id="DejaVuSans-6d" d="M 3328 2828 
Q 3544 3216 3844 3400 
Q 4144 3584 4550 3584 
Q 5097 3584 5394 3201 
Q 5691 2819 5691 2113 
L 5691 0 
L 5113 0 
L 5113 2094 
Q 5113 2597 4934 2840 
Q 4756 3084 4391 3084 
Q 3944 3084 3684 2787 
Q 3425 2491 3425 1978 
L 3425 0 
L 2847 0 
L 2847 2094 
Q 2847 2600 2669 2842 
Q 2491 3084 2119 3084 
Q 1678 3084 1418 2786 
Q 1159 2488 1159 1978 
L 1159 0 
L 581 0 
L 581 3500 
L 1159 3500 
L 1159 2956 
Q 1356 3278 1631 3431 
Q 1906 3584 2284 3584 
Q 2666 3584 2933 3390 
Q 3200 3197 3328 2828 
z
" transform="scale(0.015625)"/>
     </defs>
     <use xlink:href="#DejaVuSans-67"/>
     <use xlink:href="#DejaVuSans-72" x="63.476562"/>
     <use xlink:href="#DejaVuSans-61" x="104.589844"/>
     <use xlink:href="#DejaVuSans-70" x="165.869141"/>
     <use xlink:href="#DejaVuSans-68" x="229.345703"/>
     <use xlink:href="#DejaVuSans-2b" x="292.724609"/>
     <use xlink:href="#DejaVuSans-6c" x="376.513672"/>
     <use xlink:href="#DejaVuSans-6f" x="404.296875"/>
     <use xlink:href="#DejaVuSans-67" x="465.478516"/>
     <use xlink:href="#DejaVuSans-61" x="528.955078"/>
     <use xlink:href="#DejaVuSans-72" x="590.234375"/>
     <use xlink:href="#DejaVuSans-69" x="631.347656"/>
     <use xlink:href="#DejaVuSans-74" x="659.130859"/>
     <use xlink:href="#DejaVuSans-68" x="698.339844"/>
     <use xlink:href="#DejaVuSans-6d" x="761.71875"/>
    </g>
   </g>
   <g id="Poly3DCollection_4">
    <path d="M 275.617088 115.90251 
L 284.512691 108.37677 
L 304.269959 114.145759 
L 295.614227 121.886338 
z
" clip-path="url(#p96c162f0b3)" style="fill: #797883"/>
    <path d="M 284.512691 108.37677 
L 283.999179 57.767 
L 304.574998 63.036777 
L 304.269959 114.145759 
z
" clip-path="url(#p96c162f0b3)" style="fill: #5f5e67"/>
    <path d="M 275.617088 115.90251 
L 274.720208 64.642722 
L 283.999179 57.767 
L 284.512691 108.37677 
z
" clip-path="url(#p96c162f0b3)" style="fill: #c8c7d9"/>
    <path d="M 295.614227 121.886338 
L 304.269959 114.145759 
L 324.590025 120.079081 
L 316.191734 128.043833 
z
" clip-path="url(#p96c162f0b3)" style="fill: #4b8343"/>
    <path d="M 304.269959 114.145759 
L 304.405921 91.365474 
L 325.112136 97.080383 
L 324.590025 120.079081 
z
" clip-path="url(#p96c162f0b3)" style="fill: #3b6734"/>
    <path d="M 295.614227 121.886338 
L 295.588402 98.821717 
L 304.405921 91.365474 
L 304.269959 114.145759 
z
" clip-path="url(#p96c162f0b3)" style="fill: #7dda6e"/>
    <path d="M 324.590025 120.079081 
L 324.83297 109.377472 
L 345.930379 115.380735 
L 345.497282 126.183859 
z
" clip-path="url(#p96c162f0b3)" style="fill: #0c083d"/>
    <path d="M 316.191734 128.043833 
L 316.364012 117.210084 
L 324.83297 109.377472 
L 324.590025 120.079081 
z
" clip-path="url(#p96c162f0b3)" style="fill: #191181"/>
    <path d="M 295.614227 121.886338 
L 304.269959 114.145759 
L 304.574998 63.036777 
L 295.556262 70.11713 
z
" clip-path="url(#p96c162f0b3)" style="fill: #5f5e67"/>
    <path d="M 316.191734 128.043833 
L 324.590025 120.079081 
L 345.497282 126.183859 
L 337.375247 134.382665 
z
" clip-path="url(#p96c162f0b3)" style="fill: #0f0a4e"/>
    <path d="M 275.617088 115.90251 
L 295.614227 121.886338 
L 295.556262 70.11713 
L 274.720208 64.642722 
z
" clip-path="url(#p96c162f0b3)" style="fill: #c8c7d9"/>
    <path d="M 316.191734 128.043833 
L 324.590025 120.079081 
L 325.112136 97.080383 
L 316.562046 104.756717 
z
" clip-path="url(#p96c162f0b3)" style="fill: #3b6734"/>
    <path d="M 286.630739 129.92002 
L 295.614227 121.886338 
L 316.191734 128.043833 
L 307.470732 136.314637 
z
" clip-path="url(#p96c162f0b3)" style="fill: #144e84"/>
    <path d="M 295.614227 121.886338 
L 316.191734 128.043833 
L 316.562046 104.756717 
L 295.588402 98.821717 
z
" clip-path="url(#p96c162f0b3)" style="fill: #7dda6e"/>
    <path d="M 295.588402 98.821717 
L 316.562046 104.756717 
L 325.112136 97.080383 
L 304.405921 91.365474 
z
" clip-path="url(#p96c162f0b3)" style="fill: #6cbd60"/>
    <path d="M 316.364012 117.210084 
L 337.74281 123.445608 
L 345.930379 115.380735 
L 324.83297 109.377472 
z
" clip-path="url(#p96c162f0b3)" style="fill: #160f70"/>
    <path d="M 295.614227 121.886338 
L 295.575621 87.407303 
L 316.745384 93.227444 
L 316.191734 128.043833 
z
" clip-path="url(#p96c162f0b3)" style="fill: #0f3d67"/>
    <path d="M 286.630739 129.92002 
L 286.331409 95.001794 
L 295.575621 87.407303 
L 295.614227 121.886338 
z
" clip-path="url(#p96c162f0b3)" style="fill: #2181db"/>
    <path d="M 337.375247 134.382665 
L 345.497282 126.183859 
L 345.930379 115.380735 
L 337.74281 123.445608 
z
" clip-path="url(#p96c162f0b3)" style="fill: #0c083d"/>
    <path d="M 274.720208 64.642722 
L 295.556262 70.11713 
L 304.574998 63.036777 
L 283.999179 57.767 
z
" clip-path="url(#p96c162f0b3)" style="fill: #aeadbd"/>
    <path d="M 316.191734 128.043833 
L 337.375247 134.382665 
L 337.74281 123.445608 
L 316.364012 117.210084 
z
" clip-path="url(#p96c162f0b3)" style="fill: #191181"/>
    <path d="M 316.191734 128.043833 
L 316.516931 107.593746 
L 338.06915 113.735152 
L 337.375247 134.382665 
z
" clip-path="url(#p96c162f0b3)" style="fill: #2c6802"/>
    <path d="M 307.470732 136.314637 
L 316.191734 128.043833 
L 337.375247 134.382665 
L 328.93643 142.901246 
z
" clip-path="url(#p96c162f0b3)" style="fill: #388503"/>
    <path d="M 307.470732 136.314637 
L 307.651825 115.60756 
L 316.516931 107.593746 
L 316.191734 128.043833 
z
" clip-path="url(#p96c162f0b3)" style="fill: #5ddd05"/>
    <path d="M 277.30052 138.263773 
L 286.630739 129.92002 
L 307.470732 136.314637 
L 298.408055 144.909478 
z
" clip-path="url(#p96c162f0b3)" style="fill: #602f0a"/>
    <path d="M 307.470732 136.314637 
L 316.191734 128.043833 
L 316.745384 93.227444 
L 307.779114 101.052665 
z
" clip-path="url(#p96c162f0b3)" style="fill: #0f3d67"/>
    <path d="M 286.630739 129.92002 
L 307.470732 136.314637 
L 307.779114 101.052665 
L 286.331409 95.001794 
z
" clip-path="url(#p96c162f0b3)" style="fill: #2181db"/>
    <path d="M 286.630739 129.92002 
L 286.249921 85.495897 
L 307.863111 91.447959 
L 307.470732 136.314637 
z
" clip-path="url(#p96c162f0b3)" style="fill: #4b2508"/>
    <path d="M 286.331409 95.001794 
L 307.779114 101.052665 
L 316.745384 93.227444 
L 295.575621 87.407303 
z
" clip-path="url(#p96c162f0b3)" style="fill: #1c70be"/>
    <path d="M 277.30052 138.263773 
L 276.561688 93.263491 
L 286.249921 85.495897 
L 286.630739 129.92002 
z
" clip-path="url(#p96c162f0b3)" style="fill: #9e4d11"/>
    <path d="M 328.93643 142.901246 
L 337.375247 134.382665 
L 338.06915 113.735152 
L 329.496287 121.993241 
z
" clip-path="url(#p96c162f0b3)" style="fill: #2c6802"/>
    <path d="M 307.651825 115.60756 
L 329.496287 121.993241 
L 338.06915 113.735152 
L 316.516931 107.593746 
z
" clip-path="url(#p96c162f0b3)" style="fill: #51c004"/>
    <path d="M 307.470732 136.314637 
L 328.93643 142.901246 
L 329.496287 121.993241 
L 307.651825 115.60756 
z
" clip-path="url(#p96c162f0b3)" style="fill: #5ddd05"/>
    <path d="M 298.408055 144.909478 
L 307.470732 136.314637 
L 328.93643 142.901246 
L 320.161932 151.758683 
z
" clip-path="url(#p96c162f0b3)" style="fill: #541264"/>
    <path d="M 307.470732 136.314637 
L 307.70739 109.253941 
L 329.668127 115.575798 
L 328.93643 142.901246 
z
" clip-path="url(#p96c162f0b3)" style="fill: #420e4e"/>
    <path d="M 298.408055 144.909478 
L 298.44103 117.504159 
L 307.70739 109.253941 
L 307.470732 136.314637 
z
" clip-path="url(#p96c162f0b3)" style="fill: #8b1da5"/>
    <path d="M 267.603101 146.935903 
L 277.30052 138.263773 
L 298.408055 144.909478 
L 288.983222 153.84778 
z
" clip-path="url(#p96c162f0b3)" style="fill: #874a6a"/>
    <path d="M 298.408055 144.909478 
L 307.470732 136.314637 
L 307.863111 91.447959 
L 298.462744 99.458198 
z
" clip-path="url(#p96c162f0b3)" style="fill: #4b2508"/>
    <path d="M 277.30052 138.263773 
L 298.408055 144.909478 
L 298.462744 99.458198 
L 276.561688 93.263491 
z
" clip-path="url(#p96c162f0b3)" style="fill: #9e4d11"/>
    <path d="M 277.30052 138.263773 
L 276.483987 88.530931 
L 298.468499 94.675214 
L 298.408055 144.909478 
z
" clip-path="url(#p96c162f0b3)" style="fill: #693a53"/>
    <path d="M 267.603101 146.935903 
L 266.359086 96.550276 
L 276.483987 88.530931 
L 277.30052 138.263773 
z
" clip-path="url(#p96c162f0b3)" style="fill: #df7baf"/>
    <path d="M 320.161932 151.758683 
L 328.93643 142.901246 
L 329.668127 115.575798 
L 320.703563 124.083956 
z
" clip-path="url(#p96c162f0b3)" style="fill: #420e4e"/>
    <path d="M 288.983222 153.84778 
L 298.408055 144.909478 
L 320.161932 151.758683 
L 311.031316 160.975603 
z
" clip-path="url(#p96c162f0b3)" style="fill: #26631b"/>
    <path d="M 298.408055 144.909478 
L 320.161932 151.758683 
L 320.703563 124.083956 
L 298.44103 117.504159 
z
" clip-path="url(#p96c162f0b3)" style="fill: #8b1da5"/>
    <path d="M 276.561688 93.263491 
L 298.462744 99.458198 
L 307.863111 91.447959 
L 286.249921 85.495897 
z
" clip-path="url(#p96c162f0b3)" style="fill: #89430e"/>
    <path d="M 298.44103 117.504159 
L 320.703563 124.083956 
L 329.668127 115.575798 
L 307.70739 109.253941 
z
" clip-path="url(#p96c162f0b3)" style="fill: #791a90"/>
    <path d="M 298.408055 144.909478 
L 298.447962 111.742752 
L 320.817478 118.263431 
L 320.161932 151.758683 
z
" clip-path="url(#p96c162f0b3)" style="fill: #1d4d15"/>
    <path d="M 288.983222 153.84778 
L 288.756237 120.25343 
L 298.447962 111.742752 
L 298.408055 144.909478 
z
" clip-path="url(#p96c162f0b3)" style="fill: #3ea32c"/>
    <path d="M 288.983222 153.84778 
L 298.408055 144.909478 
L 298.468499 94.675214 
L 288.639332 102.951264 
z
" clip-path="url(#p96c162f0b3)" style="fill: #693a53"/>
    <path d="M 267.603101 146.935903 
L 288.983222 153.84778 
L 288.639332 102.951264 
L 266.359086 96.550276 
z
" clip-path="url(#p96c162f0b3)" style="fill: #df7baf"/>
    <path d="M 311.031316 160.975603 
L 320.161932 151.758683 
L 320.817478 118.263431 
L 311.437025 127.047037 
z
" clip-path="url(#p96c162f0b3)" style="fill: #1d4d15"/>
    <path d="M 288.983222 153.84778 
L 311.031316 160.975603 
L 311.437025 127.047037 
L 288.756237 120.25343 
z
" clip-path="url(#p96c162f0b3)" style="fill: #3ea32c"/>
    <path d="M 266.359086 96.550276 
L 288.639332 102.951264 
L 298.468499 94.675214 
L 276.483987 88.530931 
z
" clip-path="url(#p96c162f0b3)" style="fill: #c26b98"/>
    <path d="M 288.756237 120.25343 
L 311.437025 127.047037 
L 320.817478 118.263431 
L 298.447962 111.742752 
z
" clip-path="url(#p96c162f0b3)" style="fill: #368e26"/>
   </g>
  </g>
  <g id="patch_10">
   <path d="M 387.105882 174.727059 
L 518.4 174.727059 
L 518.4 43.432941 
L 387.105882 43.432941 
z
" style="fill: #ffffff"/>
  </g>
  <g id="pane3d_7">
   <g id="patch_11">
    <path d="M 397.019494 142.354137 
L 440.377099 106.010932 
L 439.774387 53.597534 
L 394.341896 86.752097 
" style="fill: #f2f2f2; opacity: 0.5; stroke: #f2f2f2; stroke-linejoin: miter"/>
   </g>
  </g>
  <g id="pane3d_8">
   <g id="patch_12">
    <path d="M 440.377099 106.010932 
L 509.950586 126.233198 
L 512.433418 72.014481 
L 439.774387 53.597534 
" style="fill: #e6e6e6; opacity: 0.5; stroke: #e6e6e6; stroke-linejoin: miter"/>
   </g>
  </g>
  <g id="pane3d_9">
   <g id="patch_13">
    <path d="M 397.019494 142.354137 
L 470.770788 166.44131 
L 509.950586 126.233198 
L 440.377099 106.010932 
" style="fill: #ececec; opacity: 0.5; stroke: #ececec; stroke-linejoin: miter"/>
   </g>
  </g>
  <g id="grid3d_7">
   <g id="Line3DCollection_7">
    <path d="M 401.486259 143.812983 
L 444.608346 107.240789 
L 444.184534 54.715378 
" style="fill: none; stroke: #b0b0b0; stroke-width: 0.8"/>
    <path d="M 422.28457 150.605711 
L 464.280207 112.958622 
L 464.703002 59.916212 
" style="fill: none; stroke: #b0b0b0; stroke-width: 0.8"/>
    <path d="M 443.725842 157.60843 
L 484.508955 118.83832 
L 485.827875 65.270751 
" style="fill: none; stroke: #b0b0b0; stroke-width: 0.8"/>
   </g>
  </g>
  <g id="grid3d_8">
   <g id="Line3DCollection_8">
    <path d="M 397.483666 84.459376 
L 400.007199 139.849783 
L 473.481727 163.659219 
" style="fill: none; stroke: #b0b0b0; stroke-width: 0.8"/>
    <path d="M 407.979988 76.799639 
L 410.000179 131.473469 
L 482.537009 154.366272 
" style="fill: none; stroke: #b0b0b0; stroke-width: 0.8"/>
    <path d="M 418.06877 69.437305 
L 419.621689 123.408529 
L 491.238266 145.436641 
" style="fill: none; stroke: #b0b0b0; stroke-width: 0.8"/>
    <path d="M 427.773295 62.355385 
L 428.892063 115.637918 
L 499.605861 136.849431 
" style="fill: none; stroke: #b0b0b0; stroke-width: 0.8"/>
   </g>
  </g>
  <g id="grid3d_9">
   <g id="Line3DCollection_9">
    <path d="M 509.998154 125.194428 
L 440.365528 105.004668 
L 396.968279 141.290624 
" style="fill: none; stroke: #b0b0b0; stroke-width: 0.8"/>
    <path d="M 510.738886 109.018747 
L 440.185462 89.345685 
L 396.170334 124.72079 
" style="fill: none; stroke: #b0b0b0; stroke-width: 0.8"/>
    <path d="M 511.499667 92.405216 
L 440.000758 73.283364 
L 395.349955 107.685079 
" style="fill: none; stroke: #b0b0b0; stroke-width: 0.8"/>
    <path d="M 512.281325 75.335813 
L 439.811235 56.801919 
L 394.506181 90.163564 
" style="fill: none; stroke: #b0b0b0; stroke-width: 0.8"/>
   </g>
  </g>
  <g id="axis3d_7">
   <g id="line2d_28">
    <path d="M 397.019494 142.354137 
L 470.770788 166.44131 
" style="fill: none; stroke: #000000; stroke-width: 0.8; stroke-linecap: square"/>
   </g>
   <g id="xtick_22">
    <g id="line2d_29">
     <path d="M 401.861764 143.494514 
L 400.733638 144.451286 
" style="fill: none; stroke: #000000; stroke-width: 0.8; stroke-linecap: square"/>
    </g>
    <g id="text_30">
     <!-- 0.01 -->
     <g transform="translate(382.795548 167.18233) scale(0.1 -0.1)">
      <use xlink:href="#DejaVuSans-30"/>
      <use xlink:href="#DejaVuSans-2e" x="63.623047"/>
      <use xlink:href="#DejaVuSans-30" x="95.410156"/>
      <use xlink:href="#DejaVuSans-31" x="159.033203"/>
     </g>
    </g>
   </g>
   <g id="xtick_23">
    <g id="line2d_30">
     <path d="M 422.650718 150.277477 
L 421.55068 151.263609 
" style="fill: none; stroke: #000000; stroke-width: 0.8; stroke-linecap: square"/>
    </g>
    <g id="text_31">
     <!-- 0.05 -->
     <g transform="translate(403.637645 174.269125) scale(0.1 -0.1)">
      <use xlink:href="#DejaVuSans-30"/>
      <use xlink:href="#DejaVuSans-2e" x="63.623047"/>
      <use xlink:href="#DejaVuSans-30" x="95.410156"/>
      <use xlink:href="#DejaVuSans-35" x="159.033203"/>
     </g>
    </g>
   </g>
   <g id="xtick_24">
    <g id="line2d_31">
     <path d="M 444.081871 157.269975 
L 443.012209 158.286839 
" style="fill: none; stroke: #000000; stroke-width: 0.8; stroke-linecap: square"/>
    </g>
    <g id="text_32">
     <!-- 0.1 -->
     <g transform="translate(428.310331 181.57671) scale(0.1 -0.1)">
      <use xlink:href="#DejaVuSans-30"/>
      <use xlink:href="#DejaVuSans-2e" x="63.623047"/>
      <use xlink:href="#DejaVuSans-31" x="95.410156"/>
     </g>
    </g>
   </g>
   <g id="text_33">
    <!-- support -->
    <g transform="translate(397.386452 186.318757) rotate(-341.912962) scale(0.1 -0.1)">
     <use xlink:href="#DejaVuSans-73"/>
     <use xlink:href="#DejaVuSans-75" x="52.099609"/>
     <use xlink:href="#DejaVuSans-70" x="115.478516"/>
     <use xlink:href="#DejaVuSans-70" x="178.955078"/>
     <use xlink:href="#DejaVuSans-6f" x="242.431641"/>
     <use xlink:href="#DejaVuSans-72" x="303.613281"/>
     <use xlink:href="#DejaVuSans-74" x="344.726562"/>
    </g>
   </g>
  </g>
  <g id="axis3d_8">
   <g id="line2d_32">
    <path d="M 509.950586 126.233198 
L 470.770788 166.44131 
" style="fill: none; stroke: #000000; stroke-width: 0.8; stroke-linecap: square"/>
   </g>
   <g id="xtick_25">
    <g id="line2d_33">
     <path d="M 472.862555 163.458577 
L 474.721672 164.061024 
" style="fill: none; stroke: #000000; stroke-width: 0.8; stroke-linecap: square"/>
    </g>
    <g id="text_34">
     <!-- 1000 -->
     <g transform="translate(473.645285 184.689208) scale(0.1 -0.1)">
      <use xlink:href="#DejaVuSans-31"/>
      <use xlink:href="#DejaVuSans-30" x="63.623047"/>
      <use xlink:href="#DejaVuSans-30" x="127.246094"/>
      <use xlink:href="#DejaVuSans-30" x="190.869141"/>
     </g>
    </g>
   </g>
   <g id="xtick_26">
    <g id="line2d_34">
     <path d="M 481.926357 154.173548 
L 483.759863 154.752207 
" style="fill: none; stroke: #000000; stroke-width: 0.8; stroke-linecap: square"/>
    </g>
    <g id="text_35">
     <!-- 2000 -->
     <g transform="translate(482.45407 175.117086) scale(0.1 -0.1)">
      <use xlink:href="#DejaVuSans-32"/>
      <use xlink:href="#DejaVuSans-30" x="63.623047"/>
      <use xlink:href="#DejaVuSans-30" x="127.246094"/>
      <use xlink:href="#DejaVuSans-30" x="190.869141"/>
     </g>
    </g>
   </g>
   <g id="xtick_27">
    <g id="line2d_35">
     <path d="M 490.635946 145.251378 
L 492.444403 145.80763 
" style="fill: none; stroke: #000000; stroke-width: 0.8; stroke-linecap: square"/>
    </g>
    <g id="text_36">
     <!-- 5000 -->
     <g transform="translate(490.918064 165.919634) scale(0.1 -0.1)">
      <use xlink:href="#DejaVuSans-35"/>
      <use xlink:href="#DejaVuSans-30" x="63.623047"/>
      <use xlink:href="#DejaVuSans-30" x="127.246094"/>
      <use xlink:href="#DejaVuSans-30" x="190.869141"/>
     </g>
    </g>
   </g>
   <g id="xtick_28">
    <g id="line2d_36">
     <path d="M 499.01169 136.671202 
L 500.795651 137.206324 
" style="fill: none; stroke: #000000; stroke-width: 0.8; stroke-linecap: square"/>
    </g>
    <g id="text_37">
     <!-- 10000 -->
     <g transform="translate(495.875873 157.075275) scale(0.1 -0.1)">
      <use xlink:href="#DejaVuSans-31"/>
      <use xlink:href="#DejaVuSans-30" x="63.623047"/>
      <use xlink:href="#DejaVuSans-30" x="127.246094"/>
      <use xlink:href="#DejaVuSans-30" x="190.869141"/>
      <use xlink:href="#DejaVuSans-30" x="254.492188"/>
     </g>
    </g>
   </g>
   <g id="text_38">
    <!-- window -->
    <g transform="translate(506.979859 188.99679) rotate(-45.742112) scale(0.1 -0.1)">
     <use xlink:href="#DejaVuSans-77"/>
     <use xlink:href="#DejaVuSans-69" x="81.787109"/>
     <use xlink:href="#DejaVuSans-6e" x="109.570312"/>
     <use xlink:href="#DejaVuSans-64" x="172.949219"/>
     <use xlink:href="#DejaVuSans-6f" x="236.425781"/>
     <use xlink:href="#DejaVuSans-77" x="297.607422"/>
    </g>
   </g>
  </g>
  <g id="axis3d_9">
   <g id="line2d_37">
    <path d="M 509.950586 126.233198 
L 512.433418 72.014481 
" style="fill: none; stroke: #000000; stroke-width: 0.8; stroke-linecap: square"/>
   </g>
   <g id="xtick_29">
    <g id="line2d_38">
     <path d="M 509.413721 125.024973 
L 511.168411 125.53374 
" style="fill: none; stroke: #000000; stroke-width: 0.8; stroke-linecap: square"/>
    </g>
    <g id="text_39">
     <!-- $10^{0.0}$ -->
     <g transform="translate(516.056015 130.199946) scale(0.1 -0.1)">
      <use xlink:href="#DejaVuSans-31" transform="translate(0 0.765625)"/>
      <use xlink:href="#DejaVuSans-30" transform="translate(63.623047 0.765625)"/>
      <use xlink:href="#DejaVuSans-30" transform="translate(128.203125 39.046875) scale(0.7)"/>
      <use xlink:href="#DejaVuSans-2e" transform="translate(172.739258 39.046875) scale(0.7)"/>
      <use xlink:href="#DejaVuSans-30" transform="translate(194.990234 39.046875) scale(0.7)"/>
     </g>
    </g>
   </g>
   <g id="xtick_30">
    <g id="line2d_39">
     <path d="M 510.146354 108.853526 
L 511.925378 109.349588 
" style="fill: none; stroke: #000000; stroke-width: 0.8; stroke-linecap: square"/>
    </g>
    <g id="text_40">
     <!-- $10^{1.0}$ -->
     <g transform="translate(517.03384 114.089236) scale(0.1 -0.1)">
      <use xlink:href="#DejaVuSans-31" transform="translate(0 0.765625)"/>
      <use xlink:href="#DejaVuSans-30" transform="translate(63.623047 0.765625)"/>
      <use xlink:href="#DejaVuSans-31" transform="translate(128.203125 39.046875) scale(0.7)"/>
      <use xlink:href="#DejaVuSans-2e" transform="translate(172.739258 39.046875) scale(0.7)"/>
      <use xlink:href="#DejaVuSans-30" transform="translate(194.990234 39.046875) scale(0.7)"/>
     </g>
    </g>
   </g>
   <g id="xtick_31">
    <g id="line2d_40">
     <path d="M 510.89881 92.244521 
L 512.702851 92.726999 
" style="fill: none; stroke: #000000; stroke-width: 0.8; stroke-linecap: square"/>
    </g>
    <g id="text_41">
     <!-- $10^{2.0}$ -->
     <g transform="translate(518.037969 97.545149) scale(0.1 -0.1)">
      <use xlink:href="#DejaVuSans-31" transform="translate(0 0.765625)"/>
      <use xlink:href="#DejaVuSans-30" transform="translate(63.623047 0.765625)"/>
      <use xlink:href="#DejaVuSans-32" transform="translate(128.203125 39.046875) scale(0.7)"/>
      <use xlink:href="#DejaVuSans-2e" transform="translate(172.739258 39.046875) scale(0.7)"/>
      <use xlink:href="#DejaVuSans-30" transform="translate(194.990234 39.046875) scale(0.7)"/>
     </g>
    </g>
   </g>
   <g id="xtick_32">
    <g id="line2d_41">
     <path d="M 511.671905 75.179957 
L 513.501676 75.647912 
" style="fill: none; stroke: #000000; stroke-width: 0.8; stroke-linecap: square"/>
    </g>
    <g id="text_42">
     <!-- $10^{3.0}$ -->
     <g transform="translate(519.069477 80.54996) scale(0.1 -0.1)">
      <use xlink:href="#DejaVuSans-31" transform="translate(0 0.765625)"/>
      <use xlink:href="#DejaVuSans-30" transform="translate(63.623047 0.765625)"/>
      <use xlink:href="#DejaVuSans-33" transform="translate(128.203125 39.046875) scale(0.7)"/>
      <use xlink:href="#DejaVuSans-2e" transform="translate(172.739258 39.046875) scale(0.7)"/>
      <use xlink:href="#DejaVuSans-30" transform="translate(194.990234 39.046875) scale(0.7)"/>
     </g>
    </g>
   </g>
   <g id="text_43">
    <!-- elapsed -->
    <g transform="translate(553.129074 114.01016) rotate(-87.378092) scale(0.1 -0.1)">
     <use xlink:href="#DejaVuSans-65"/>
     <use xlink:href="#DejaVuSans-6c" x="61.523438"/>
     <use xlink:href="#DejaVuSans-61" x="89.306641"/>
     <use xlink:href="#DejaVuSans-70" x="150.585938"/>
     <use xlink:href="#DejaVuSans-73" x="214.0625"/>
     <use xlink:href="#DejaVuSans-65" x="266.162109"/>
     <use xlink:href="#DejaVuSans-64" x="327.685547"/>
    </g>
   </g>
  </g>
  <g id="axes_3">
   <g id="Poly3DCollection_5">
    <path d="M 433.170029 115.90251 
L 453.167168 121.886338 
L 461.822901 114.145759 
L 442.065632 108.37677 
z
" clip-path="url(#pf7f3c0d710)" style="fill: #c30000"/>
    <path d="M 453.167168 121.886338 
L 473.744675 128.043833 
L 482.142966 120.079081 
L 461.822901 114.145759 
z
" clip-path="url(#pf7f3c0d710)" style="fill: #c30000"/>
    <path d="M 423.942426 123.709123 
L 444.18368 129.92002 
L 453.167168 121.886338 
L 433.170029 115.90251 
z
" clip-path="url(#pf7f3c0d710)" style="fill: #c30000"/>
    <path d="M 473.744675 128.043833 
L 494.928188 134.382665 
L 503.050223 126.183859 
L 482.142966 120.079081 
z
" clip-path="url(#pf7f3c0d710)" style="fill: #c30000"/>
    <path d="M 444.18368 129.92002 
L 465.023673 136.314637 
L 473.744675 128.043833 
L 453.167168 121.886338 
z
" clip-path="url(#pf7f3c0d710)" style="fill: #c30000"/>
    <path d="M 414.363883 131.812633 
L 434.853461 138.263773 
L 444.18368 129.92002 
L 423.942426 123.709123 
z
" clip-path="url(#pf7f3c0d710)" style="fill: #c30000"/>
    <path d="M 465.023673 136.314637 
L 486.489372 142.901246 
L 494.928188 134.382665 
L 473.744675 128.043833 
z
" clip-path="url(#pf7f3c0d710)" style="fill: #c30000"/>
    <path d="M 434.853461 138.263773 
L 455.960996 144.909478 
L 465.023673 136.314637 
L 444.18368 129.92002 
z
" clip-path="url(#pf7f3c0d710)" style="fill: #c30000"/>
    <path d="M 404.413993 140.230305 
L 425.156042 146.935903 
L 434.853461 138.263773 
L 414.363883 131.812633 
z
" clip-path="url(#pf7f3c0d710)" style="fill: #c30000"/>
    <path d="M 455.960996 144.909478 
L 477.714873 151.758683 
L 486.489372 142.901246 
L 465.023673 136.314637 
z
" clip-path="url(#pf7f3c0d710)" style="fill: #c30000"/>
    <path d="M 425.156042 146.935903 
L 446.536163 153.84778 
L 455.960996 144.909478 
L 434.853461 138.263773 
z
" clip-path="url(#pf7f3c0d710)" style="fill: #c30000"/>
    <path d="M 446.536163 153.84778 
L 468.584257 160.975603 
L 477.714873 151.758683 
L 455.960996 144.909478 
z
" clip-path="url(#pf7f3c0d710)" style="fill: #c30000"/>
   </g>
   <g id="text_44">
    <!-- graph -->
    <g transform="translate(435.188879 37.432941) scale(0.12 -0.12)">
     <use xlink:href="#DejaVuSans-67"/>
     <use xlink:href="#DejaVuSans-72" x="63.476562"/>
     <use xlink:href="#DejaVuSans-61" x="104.589844"/>
     <use xlink:href="#DejaVuSans-70" x="165.869141"/>
     <use xlink:href="#DejaVuSans-68" x="229.345703"/>
    </g>
   </g>
   <g id="Poly3DCollection_6">
    <path d="M 433.170029 115.90251 
L 442.065632 108.37677 
L 461.822901 114.145759 
L 453.167168 121.886338 
z
" clip-path="url(#pf7f3c0d710)" style="fill: #251432"/>
    <path d="M 442.065632 108.37677 
L 441.669334 69.319142 
L 462.05828 74.70808 
L 461.822901 114.145759 
z
" clip-path="url(#pf7f3c0d710)" style="fill: #1d1027"/>
    <path d="M 433.170029 115.90251 
L 432.47799 76.350056 
L 441.669334 69.319142 
L 442.065632 108.37677 
z
" clip-path="url(#pf7f3c0d710)" style="fill: #3d2154"/>
    <path d="M 461.822901 114.145759 
L 461.934077 95.518162 
L 482.569879 101.273797 
L 482.142966 120.079081 
z
" clip-path="url(#pf7f3c0d710)" style="fill: #075433"/>
    <path d="M 453.167168 121.886338 
L 461.822901 114.145759 
L 482.142966 120.079081 
L 473.744675 128.043833 
z
" clip-path="url(#pf7f3c0d710)" style="fill: #096c42"/>
    <path d="M 453.167168 121.886338 
L 453.146052 103.027428 
L 461.934077 95.518162 
L 461.822901 114.145759 
z
" clip-path="url(#pf7f3c0d710)" style="fill: #10b36c"/>
    <path d="M 423.942426 123.709123 
L 433.170029 115.90251 
L 453.167168 121.886338 
L 444.18368 129.92002 
z
" clip-path="url(#pf7f3c0d710)" style="fill: #1e197a"/>
    <path d="M 453.167168 121.886338 
L 461.822901 114.145759 
L 462.05828 74.70808 
L 453.122448 81.946295 
z
" clip-path="url(#pf7f3c0d710)" style="fill: #1d1027"/>
    <path d="M 433.170029 115.90251 
L 453.167168 121.886338 
L 453.122448 81.946295 
L 432.47799 76.350056 
z
" clip-path="url(#pf7f3c0d710)" style="fill: #3d2154"/>
    <path d="M 482.142966 120.079081 
L 482.556747 101.852265 
L 503.787933 107.7825 
L 503.050223 126.183859 
z
" clip-path="url(#pf7f3c0d710)" style="fill: #092125"/>
    <path d="M 473.744675 128.043833 
L 482.142966 120.079081 
L 503.050223 126.183859 
L 494.928188 134.382665 
z
" clip-path="url(#pf7f3c0d710)" style="fill: #0c2a30"/>
    <path d="M 473.744675 128.043833 
L 474.038131 109.589806 
L 482.556747 101.852265 
L 482.142966 120.079081 
z
" clip-path="url(#pf7f3c0d710)" style="fill: #14454f"/>
    <path d="M 473.744675 128.043833 
L 482.142966 120.079081 
L 482.569879 101.273797 
L 474.047447 109.003956 
z
" clip-path="url(#pf7f3c0d710)" style="fill: #075433"/>
    <path d="M 453.146052 103.027428 
L 474.047447 109.003956 
L 482.569879 101.273797 
L 461.934077 95.518162 
z
" clip-path="url(#pf7f3c0d710)" style="fill: #0e9b5e"/>
    <path d="M 433.170029 115.90251 
L 432.27315 64.642722 
L 453.109203 70.11713 
L 453.167168 121.886338 
z
" clip-path="url(#pf7f3c0d710)" style="fill: #171460"/>
    <path d="M 453.167168 121.886338 
L 473.744675 128.043833 
L 474.047447 109.003956 
L 453.146052 103.027428 
z
" clip-path="url(#pf7f3c0d710)" style="fill: #10b36c"/>
    <path d="M 432.47799 76.350056 
L 453.122448 81.946295 
L 462.05828 74.70808 
L 441.669334 69.319142 
z
" clip-path="url(#pf7f3c0d710)" style="fill: #351d48"/>
    <path d="M 423.942426 123.709123 
L 422.633045 71.786044 
L 432.27315 64.642722 
L 433.170029 115.90251 
z
" clip-path="url(#pf7f3c0d710)" style="fill: #3229cb"/>
    <path d="M 444.18368 129.92002 
L 453.167168 121.886338 
L 473.744675 128.043833 
L 465.023673 136.314637 
z
" clip-path="url(#pf7f3c0d710)" style="fill: #242f4e"/>
    <path d="M 453.167168 121.886338 
L 453.136365 94.375803 
L 474.186391 100.266439 
L 473.744675 128.043833 
z
" clip-path="url(#pf7f3c0d710)" style="fill: #1c253d"/>
    <path d="M 444.18368 129.92002 
L 443.944873 102.062085 
L 453.136365 94.375803 
L 453.167168 121.886338 
z
" clip-path="url(#pf7f3c0d710)" style="fill: #3c4e82"/>
    <path d="M 494.928188 134.382665 
L 503.050223 126.183859 
L 503.787933 107.7825 
L 495.554347 115.750935 
z
" clip-path="url(#pf7f3c0d710)" style="fill: #092125"/>
    <path d="M 474.038131 109.589806 
L 495.554347 115.750935 
L 503.787933 107.7825 
L 482.556747 101.852265 
z
" clip-path="url(#pf7f3c0d710)" style="fill: #113c44"/>
    <path d="M 473.744675 128.043833 
L 474.00704 111.544968 
L 495.487993 117.725321 
L 494.928188 134.382665 
z
" clip-path="url(#pf7f3c0d710)" style="fill: #411e64"/>
    <path d="M 473.744675 128.043833 
L 494.928188 134.382665 
L 495.554347 115.750935 
L 474.038131 109.589806 
z
" clip-path="url(#pf7f3c0d710)" style="fill: #14454f"/>
    <path d="M 444.18368 129.92002 
L 453.167168 121.886338 
L 453.109203 70.11713 
L 443.734124 77.477239 
z
" clip-path="url(#pf7f3c0d710)" style="fill: #171460"/>
    <path d="M 465.023673 136.314637 
L 465.169767 119.609485 
L 474.00704 111.544968 
L 473.744675 128.043833 
z
" clip-path="url(#pf7f3c0d710)" style="fill: #893fd4"/>
    <path d="M 465.023673 136.314637 
L 473.744675 128.043833 
L 494.928188 134.382665 
L 486.489372 142.901246 
z
" clip-path="url(#pf7f3c0d710)" style="fill: #532680"/>
    <path d="M 423.942426 123.709123 
L 444.18368 129.92002 
L 443.734124 77.477239 
L 422.633045 71.786044 
z
" clip-path="url(#pf7f3c0d710)" style="fill: #3229cb"/>
    <path d="M 465.023673 136.314637 
L 473.744675 128.043833 
L 474.186391 100.266439 
L 465.26968 108.184895 
z
" clip-path="url(#pf7f3c0d710)" style="fill: #1c253d"/>
    <path d="M 434.853461 138.263773 
L 444.18368 129.92002 
L 465.023673 136.314637 
L 455.960996 144.909478 
z
" clip-path="url(#pf7f3c0d710)" style="fill: #842574"/>
    <path d="M 444.18368 129.92002 
L 465.023673 136.314637 
L 465.26968 108.184895 
L 443.944873 102.062085 
z
" clip-path="url(#pf7f3c0d710)" style="fill: #3c4e82"/>
    <path d="M 443.944873 102.062085 
L 465.26968 108.184895 
L 474.186391 100.266439 
L 453.136365 94.375803 
z
" clip-path="url(#pf7f3c0d710)" style="fill: #344471"/>
    <path d="M 444.18368 129.92002 
L 443.895636 96.318399 
L 465.320422 102.382779 
L 465.023673 136.314637 
z
" clip-path="url(#pf7f3c0d710)" style="fill: #671d5b"/>
    <path d="M 434.853461 138.263773 
L 434.294719 104.232251 
L 443.895636 96.318399 
L 444.18368 129.92002 
z
" clip-path="url(#pf7f3c0d710)" style="fill: #db3ec0"/>
    <path d="M 422.633045 71.786044 
L 443.734124 77.477239 
L 453.109203 70.11713 
L 432.27315 64.642722 
z
" clip-path="url(#pf7f3c0d710)" style="fill: #2b24b0"/>
    <path d="M 465.169767 119.609485 
L 486.941005 126.034842 
L 495.487993 117.725321 
L 474.00704 111.544968 
z
" clip-path="url(#pf7f3c0d710)" style="fill: #7737b8"/>
    <path d="M 486.489372 142.901246 
L 494.928188 134.382665 
L 495.487993 117.725321 
L 486.941005 126.034842 
z
" clip-path="url(#pf7f3c0d710)" style="fill: #411e64"/>
    <path d="M 465.023673 136.314637 
L 486.489372 142.901246 
L 486.941005 126.034842 
L 465.169767 119.609485 
z
" clip-path="url(#pf7f3c0d710)" style="fill: #893fd4"/>
    <path d="M 465.023673 136.314637 
L 465.211365 114.85299 
L 487.069635 121.231144 
L 486.489372 142.901246 
z
" clip-path="url(#pf7f3c0d710)" style="fill: #5a5710"/>
    <path d="M 455.960996 144.909478 
L 465.023673 136.314637 
L 486.489372 142.901246 
L 477.714873 151.758683 
z
" clip-path="url(#pf7f3c0d710)" style="fill: #746f14"/>
    <path d="M 455.960996 144.909478 
L 455.987146 123.1765 
L 465.211365 114.85299 
L 465.023673 136.314637 
z
" clip-path="url(#pf7f3c0d710)" style="fill: #c0b821"/>
    <path d="M 425.156042 146.935903 
L 434.853461 138.263773 
L 455.960996 144.909478 
L 446.536163 153.84778 
z
" clip-path="url(#pf7f3c0d710)" style="fill: #2e5560"/>
    <path d="M 455.960996 144.909478 
L 465.023673 136.314637 
L 465.320422 102.382779 
L 456.002349 110.541635 
z
" clip-path="url(#pf7f3c0d710)" style="fill: #671d5b"/>
    <path d="M 434.853461 138.263773 
L 455.960996 144.909478 
L 456.002349 110.541635 
L 434.294719 104.232251 
z
" clip-path="url(#pf7f3c0d710)" style="fill: #db3ec0"/>
    <path d="M 434.853461 138.263773 
L 434.221361 99.764238 
L 456.007781 106.027279 
L 455.960996 144.909478 
z
" clip-path="url(#pf7f3c0d710)" style="fill: #24424b"/>
    <path d="M 434.294719 104.232251 
L 456.002349 110.541635 
L 465.320422 102.382779 
L 443.895636 96.318399 
z
" clip-path="url(#pf7f3c0d710)" style="fill: #be36a7"/>
    <path d="M 425.156042 146.935903 
L 424.193195 107.93823 
L 434.221361 99.764238 
L 434.853461 138.263773 
z
" clip-path="url(#pf7f3c0d710)" style="fill: #4c8d9e"/>
    <path d="M 477.714873 151.758683 
L 486.489372 142.901246 
L 487.069635 121.231144 
L 478.144366 129.813659 
z
" clip-path="url(#pf7f3c0d710)" style="fill: #5a5710"/>
    <path d="M 455.987146 123.1765 
L 478.144366 129.813659 
L 487.069635 121.231144 
L 465.211365 114.85299 
z
" clip-path="url(#pf7f3c0d710)" style="fill: #a6a01d"/>
    <path d="M 455.960996 144.909478 
L 477.714873 151.758683 
L 478.144366 129.813659 
L 455.987146 123.1765 
z
" clip-path="url(#pf7f3c0d710)" style="fill: #c0b821"/>
    <path d="M 446.536163 153.84778 
L 455.960996 144.909478 
L 477.714873 151.758683 
L 468.584257 160.975603 
z
" clip-path="url(#pf7f3c0d710)" style="fill: #441a45"/>
    <path d="M 455.960996 144.909478 
L 455.991324 119.70461 
L 478.213001 126.306758 
L 477.714873 151.758683 
z
" clip-path="url(#pf7f3c0d710)" style="fill: #351436"/>
    <path d="M 446.536163 153.84778 
L 446.36369 128.321351 
L 455.991324 119.70461 
L 455.960996 144.909478 
z
" clip-path="url(#pf7f3c0d710)" style="fill: #702a73"/>
    <path d="M 446.536163 153.84778 
L 455.960996 144.909478 
L 456.007781 106.027279 
L 446.270037 114.46049 
z
" clip-path="url(#pf7f3c0d710)" style="fill: #24424b"/>
    <path d="M 425.156042 146.935903 
L 446.536163 153.84778 
L 446.270037 114.46049 
L 424.193195 107.93823 
z
" clip-path="url(#pf7f3c0d710)" style="fill: #4c8d9e"/>
    <path d="M 424.193195 107.93823 
L 446.270037 114.46049 
L 456.007781 106.027279 
L 434.221361 99.764238 
z
" clip-path="url(#pf7f3c0d710)" style="fill: #427a8a"/>
    <path d="M 468.584257 160.975603 
L 477.714873 151.758683 
L 478.213001 126.306758 
L 468.8925 135.197971 
z
" clip-path="url(#pf7f3c0d710)" style="fill: #351436"/>
    <path d="M 446.536163 153.84778 
L 468.584257 160.975603 
L 468.8925 135.197971 
L 446.36369 128.321351 
z
" clip-path="url(#pf7f3c0d710)" style="fill: #702a73"/>
    <path d="M 446.36369 128.321351 
L 468.8925 135.197971 
L 478.213001 126.306758 
L 455.991324 119.70461 
z
" clip-path="url(#pf7f3c0d710)" style="fill: #612563"/>
   </g>
  </g>
 </g>
 <defs>
  <clipPath id="p1927163bff">
   <rect x="72" y="43.432941" width="131.294118" height="131.294118"/>
  </clipPath>
  <clipPath id="p96c162f0b3">
   <rect x="229.552941" y="43.432941" width="131.294118" height="131.294118"/>
  </clipPath>
  <clipPath id="pf7f3c0d710">
   <rect x="387.105882" y="43.432941" width="131.294118" height="131.294118"/>
  </clipPath>
 </defs>
</svg>
