<?xml version="1.0" encoding="utf-8" standalone="no"?>
<!DOCTYPE svg PUBLIC "-//W3C//DTD SVG 1.1//EN"
  "http://www.w3.org/Graphics/SVG/1.1/DTD/svg11.dtd">
<svg xmlns:xlink="http://www.w3.org/1999/xlink" width="576pt" height="216pt" viewBox="0 0 576 216" xmlns="http://www.w3.org/2000/svg" version="1.1">
 <metadata>
  <rdf:RDF xmlns:dc="http://purl.org/dc/elements/1.1/" xmlns:cc="http://creativecommons.org/ns#" xmlns:rdf="http://www.w3.org/1999/02/22-rdf-syntax-ns#">
   <cc:Work>
    <dc:type rdf:resource="http://purl.org/dc/dcmitype/StillImage"/>
    <dc:date>2025-08-09T15:49:31.978628</dc:date>
    <dc:format>image/svg+xml</dc:format>
    <dc:creator>
     <cc:Agent>
      <dc:title>Matplotlib v3.9.0, https://matplotlib.org/</dc:title>
     </cc:Agent>
    </dc:creator>
   </cc:Work>
  </rdf:RDF>
 </metadata>
 <defs>
  <style type="text/css">*{stroke-linejoin: round; stroke-linecap: butt}</style>
 </defs>
 <g id="figure_1">
  <g id="patch_1">
   <path d="M 0 216 
L 576 216 
L 576 0 
L 0 0 
z
" style="fill: #ffffff"/>
  </g>
  <g id="patch_2">
   <path d="M 72 174.727059 
L 203.294118 174.727059 
L 203.294118 43.432941 
L 72 43.432941 
z
" style="fill: #ffffff"/>
  </g>
  <g id="pane3d_1">
   <g id="patch_3">
    <path d="M 81.913611 142.354137 
L 125.271217 106.010932 
L 124.668505 53.597534 
L 79.236014 86.752097 
" style="fill: #f2f2f2; opacity: 0.5; stroke: #f2f2f2; stroke-linejoin: miter"/>
   </g>
  </g>
  <g id="pane3d_2">
   <g id="patch_4">
    <path d="M 125.271217 106.010932 
L 194.844704 126.233198 
L 197.327536 72.014481 
L 124.668505 53.597534 
" style="fill: #e6e6e6; opacity: 0.5; stroke: #e6e6e6; stroke-linejoin: miter"/>
   </g>
  </g>
  <g id="pane3d_3">
   <g id="patch_5">
    <path d="M 81.913611 142.354137 
L 155.664905 166.44131 
L 194.844704 126.233198 
L 125.271217 106.010932 
" style="fill: #ececec; opacity: 0.5; stroke: #ececec; stroke-linejoin: miter"/>
   </g>
  </g>
  <g id="grid3d_1">
   <g id="Line3DCollection_1">
    <path d="M 86.380377 143.812983 
L 129.502463 107.240789 
L 129.078651 54.715378 
" style="fill: none; stroke: #b0b0b0; stroke-width: 0.8"/>
    <path d="M 92.554088 145.829317 
L 135.346922 108.939542 
L 135.17208 56.259884 
" style="fill: none; stroke: #b0b0b0; stroke-width: 0.8"/>
    <path d="M 98.783843 147.863955 
L 141.240052 110.652442 
L 141.318438 57.817807 
" style="fill: none; stroke: #b0b0b0; stroke-width: 0.8"/>
    <path d="M 105.070407 149.917147 
L 147.182463 112.379666 
L 147.518421 59.389322 
" style="fill: none; stroke: #b0b0b0; stroke-width: 0.8"/>
    <path d="M 111.414563 151.989148 
L 153.174775 114.121395 
L 153.772732 60.974607 
" style="fill: none; stroke: #b0b0b0; stroke-width: 0.8"/>
    <path d="M 117.817105 154.080218 
L 159.21762 115.877812 
L 160.082088 62.573845 
" style="fill: none; stroke: #b0b0b0; stroke-width: 0.8"/>
    <path d="M 124.278842 156.190621 
L 165.31164 117.649103 
L 166.447219 64.187221 
" style="fill: none; stroke: #b0b0b0; stroke-width: 0.8"/>
    <path d="M 130.800599 158.320627 
L 171.457487 119.435458 
L 172.868869 65.814922 
" style="fill: none; stroke: #b0b0b0; stroke-width: 0.8"/>
    <path d="M 137.383217 160.47051 
L 177.655827 121.23707 
L 179.347794 67.45714 
" style="fill: none; stroke: #b0b0b0; stroke-width: 0.8"/>
    <path d="M 144.027552 162.64055 
L 183.907333 123.054136 
L 185.884762 69.114071 
" style="fill: none; stroke: #b0b0b0; stroke-width: 0.8"/>
   </g>
  </g>
  <g id="grid3d_2">
   <g id="Line3DCollection_2">
    <path d="M 82.377783 84.459376 
L 84.901317 139.849783 
L 158.375844 163.659219 
" style="fill: none; stroke: #b0b0b0; stroke-width: 0.8"/>
   </g>
  </g>
  <g id="grid3d_3">
   <g id="Line3DCollection_3">
    <path d="M 194.929415 124.383311 
L 125.250611 104.218991 
L 81.822403 140.46014 
" style="fill: none; stroke: #b0b0b0; stroke-width: 0.8"/>
    <path d="M 195.172095 119.083802 
L 125.191596 99.086913 
L 81.561054 135.033058 
" style="fill: none; stroke: #b0b0b0; stroke-width: 0.8"/>
    <path d="M 195.416906 113.737751 
L 125.132088 93.911911 
L 81.297323 129.556503 
" style="fill: none; stroke: #b0b0b0; stroke-width: 0.8"/>
    <path d="M 195.663877 108.344542 
L 125.07208 88.693443 
L 81.031176 124.029794 
" style="fill: none; stroke: #b0b0b0; stroke-width: 0.8"/>
    <path d="M 195.913036 102.903548 
L 125.011565 83.430961 
L 80.762581 118.452239 
" style="fill: none; stroke: #b0b0b0; stroke-width: 0.8"/>
    <path d="M 196.164412 97.414131 
L 124.950538 78.123903 
L 80.491503 112.823133 
" style="fill: none; stroke: #b0b0b0; stroke-width: 0.8"/>
    <path d="M 196.418036 91.875643 
L 124.888992 72.771703 
L 80.217908 107.141759 
" style="fill: none; stroke: #b0b0b0; stroke-width: 0.8"/>
    <path d="M 196.673937 86.287422 
L 124.82692 67.373781 
L 79.941761 101.407384 
" style="fill: none; stroke: #b0b0b0; stroke-width: 0.8"/>
    <path d="M 196.932146 80.648795 
L 124.764316 61.929548 
L 79.663026 95.619264 
" style="fill: none; stroke: #b0b0b0; stroke-width: 0.8"/>
    <path d="M 197.192694 74.959078 
L 124.701172 56.438408 
L 79.381665 89.77664 
" style="fill: none; stroke: #b0b0b0; stroke-width: 0.8"/>
   </g>
  </g>
  <g id="axis3d_1">
   <g id="line2d_1">
    <path d="M 81.913611 142.354137 
L 155.664905 166.44131 
" style="fill: none; stroke: #000000; stroke-width: 0.8; stroke-linecap: square"/>
   </g>
   <g id="xtick_1">
    <g id="line2d_2">
     <path d="M 86.755881 143.494514 
L 85.627756 144.451286 
" style="fill: none; stroke: #000000; stroke-width: 0.8; stroke-linecap: square"/>
    </g>
    <g id="text_1">
     <!-- 5 -->
     <g transform="translate(75.641228 167.18233) scale(0.1 -0.1)">
      <defs>
       <path id="DejaVuSans-35" d="M 691 4666 
L 3169 4666 
L 3169 4134 
L 1269 4134 
L 1269 2991 
Q 1406 3038 1543 3061 
Q 1681 3084 1819 3084 
Q 2600 3084 3056 2656 
Q 3513 2228 3513 1497 
Q 3513 744 3044 326 
Q 2575 -91 1722 -91 
Q 1428 -91 1123 -41 
Q 819 9 494 109 
L 494 744 
Q 775 591 1075 516 
Q 1375 441 1709 441 
Q 2250 441 2565 725 
Q 2881 1009 2881 1497 
Q 2881 1984 2565 2268 
Q 2250 2553 1709 2553 
Q 1456 2553 1204 2497 
Q 953 2441 691 2322 
L 691 4666 
z
" transform="scale(0.015625)"/>
      </defs>
      <use xlink:href="#DejaVuSans-35"/>
     </g>
    </g>
   </g>
   <g id="xtick_2">
    <g id="line2d_3">
     <path d="M 92.926862 145.507965 
L 91.806932 146.473406 
" style="fill: none; stroke: #000000; stroke-width: 0.8; stroke-linecap: square"/>
    </g>
    <g id="text_2">
     <!-- 10 -->
     <g transform="translate(78.646186 169.285783) scale(0.1 -0.1)">
      <defs>
       <path id="DejaVuSans-31" d="M 794 531 
L 1825 531 
L 1825 4091 
L 703 3866 
L 703 4441 
L 1819 4666 
L 2450 4666 
L 2450 531 
L 3481 531 
L 3481 0 
L 794 0 
L 794 531 
z
" transform="scale(0.015625)"/>
       <path id="DejaVuSans-30" d="M 2034 4250 
Q 1547 4250 1301 3770 
Q 1056 3291 1056 2328 
Q 1056 1369 1301 889 
Q 1547 409 2034 409 
Q 2525 409 2770 889 
Q 3016 1369 3016 2328 
Q 3016 3291 2770 3770 
Q 2525 4250 2034 4250 
z
M 2034 4750 
Q 2819 4750 3233 4129 
Q 3647 3509 3647 2328 
Q 3647 1150 3233 529 
Q 2819 -91 2034 -91 
Q 1250 -91 836 529 
Q 422 1150 422 2328 
Q 422 3509 836 4129 
Q 1250 4750 2034 4750 
z
" transform="scale(0.015625)"/>
      </defs>
      <use xlink:href="#DejaVuSans-31"/>
      <use xlink:href="#DejaVuSans-30" x="63.623047"/>
     </g>
    </g>
   </g>
   <g id="xtick_3">
    <g id="line2d_4">
     <path d="M 99.153821 147.53968 
L 98.042283 148.513908 
" style="fill: none; stroke: #000000; stroke-width: 0.8; stroke-linecap: square"/>
    </g>
    <g id="text_3">
     <!-- 20 -->
     <g transform="translate(84.888979 171.408477) scale(0.1 -0.1)">
      <defs>
       <path id="DejaVuSans-32" d="M 1228 531 
L 3431 531 
L 3431 0 
L 469 0 
L 469 531 
Q 828 903 1448 1529 
Q 2069 2156 2228 2338 
Q 2531 2678 2651 2914 
Q 2772 3150 2772 3378 
Q 2772 3750 2511 3984 
Q 2250 4219 1831 4219 
Q 1534 4219 1204 4116 
Q 875 4013 500 3803 
L 500 4441 
Q 881 4594 1212 4672 
Q 1544 4750 1819 4750 
Q 2544 4750 2975 4387 
Q 3406 4025 3406 3419 
Q 3406 3131 3298 2873 
Q 3191 2616 2906 2266 
Q 2828 2175 2409 1742 
Q 1991 1309 1228 531 
z
" transform="scale(0.015625)"/>
      </defs>
      <use xlink:href="#DejaVuSans-32"/>
      <use xlink:href="#DejaVuSans-30" x="63.623047"/>
     </g>
    </g>
   </g>
   <g id="xtick_4">
    <g id="line2d_5">
     <path d="M 105.437524 149.589909 
L 104.334577 150.573045 
" style="fill: none; stroke: #000000; stroke-width: 0.8; stroke-linecap: square"/>
    </g>
    <g id="text_4">
     <!-- 25 -->
     <g transform="translate(91.189138 173.550677) scale(0.1 -0.1)">
      <use xlink:href="#DejaVuSans-32"/>
      <use xlink:href="#DejaVuSans-35" x="63.623047"/>
     </g>
    </g>
   </g>
   <g id="xtick_5">
    <g id="line2d_6">
     <path d="M 111.77875 151.658907 
L 110.684598 152.651073 
" style="fill: none; stroke: #000000; stroke-width: 0.8; stroke-linecap: square"/>
    </g>
    <g id="text_5">
     <!-- 50 -->
     <g transform="translate(97.547457 175.712653) scale(0.1 -0.1)">
      <use xlink:href="#DejaVuSans-35"/>
      <use xlink:href="#DejaVuSans-30" x="63.623047"/>
     </g>
    </g>
   </g>
   <g id="xtick_6">
    <g id="line2d_7">
     <path d="M 118.178292 153.746932 
L 117.093145 154.748253 
" style="fill: none; stroke: #000000; stroke-width: 0.8; stroke-linecap: square"/>
    </g>
    <g id="text_6">
     <!-- 100 -->
     <g transform="translate(100.783494 177.894679) scale(0.1 -0.1)">
      <use xlink:href="#DejaVuSans-31"/>
      <use xlink:href="#DejaVuSans-30" x="63.623047"/>
      <use xlink:href="#DejaVuSans-30" x="127.246094"/>
     </g>
    </g>
   </g>
   <g id="xtick_7">
    <g id="line2d_8">
     <path d="M 124.636958 155.854248 
L 123.56103 156.864852 
" style="fill: none; stroke: #000000; stroke-width: 0.8; stroke-linecap: square"/>
    </g>
    <g id="text_7">
     <!-- 200 -->
     <g transform="translate(107.260575 180.097036) scale(0.1 -0.1)">
      <use xlink:href="#DejaVuSans-32"/>
      <use xlink:href="#DejaVuSans-30" x="63.623047"/>
      <use xlink:href="#DejaVuSans-30" x="127.246094"/>
     </g>
    </g>
   </g>
   <g id="xtick_8">
    <g id="line2d_9">
     <path d="M 131.155572 157.981123 
L 130.089081 159.00114 
" style="fill: none; stroke: #000000; stroke-width: 0.8; stroke-linecap: square"/>
    </g>
    <g id="text_8">
     <!-- 250 -->
     <g transform="translate(113.798289 182.32001) scale(0.1 -0.1)">
      <use xlink:href="#DejaVuSans-32"/>
      <use xlink:href="#DejaVuSans-35" x="63.623047"/>
      <use xlink:href="#DejaVuSans-30" x="127.246094"/>
     </g>
    </g>
   </g>
   <g id="xtick_9">
    <g id="line2d_10">
     <path d="M 137.734972 160.127832 
L 136.678141 161.157393 
" style="fill: none; stroke: #000000; stroke-width: 0.8; stroke-linecap: square"/>
    </g>
    <g id="text_9">
     <!-- 500 -->
     <g transform="translate(120.397491 184.563891) scale(0.1 -0.1)">
      <use xlink:href="#DejaVuSans-35"/>
      <use xlink:href="#DejaVuSans-30" x="63.623047"/>
      <use xlink:href="#DejaVuSans-30" x="127.246094"/>
     </g>
    </g>
   </g>
   <g id="xtick_10">
    <g id="line2d_11">
     <path d="M 144.376013 162.294652 
L 143.329071 163.333892 
" style="fill: none; stroke: #000000; stroke-width: 0.8; stroke-linecap: square"/>
    </g>
    <g id="text_10">
     <!-- 1000 -->
     <g transform="translate(123.877802 186.828977) scale(0.1 -0.1)">
      <use xlink:href="#DejaVuSans-31"/>
      <use xlink:href="#DejaVuSans-30" x="63.623047"/>
      <use xlink:href="#DejaVuSans-30" x="127.246094"/>
      <use xlink:href="#DejaVuSans-30" x="190.869141"/>
     </g>
    </g>
   </g>
   <g id="text_11">
    <!-- support -->
    <g transform="translate(82.28057 186.318757) rotate(-341.912962) scale(0.1 -0.1)">
     <defs>
      <path id="DejaVuSans-73" d="M 2834 3397 
L 2834 2853 
Q 2591 2978 2328 3040 
Q 2066 3103 1784 3103 
Q 1356 3103 1142 2972 
Q 928 2841 928 2578 
Q 928 2378 1081 2264 
Q 1234 2150 1697 2047 
L 1894 2003 
Q 2506 1872 2764 1633 
Q 3022 1394 3022 966 
Q 3022 478 2636 193 
Q 2250 -91 1575 -91 
Q 1294 -91 989 -36 
Q 684 19 347 128 
L 347 722 
Q 666 556 975 473 
Q 1284 391 1588 391 
Q 1994 391 2212 530 
Q 2431 669 2431 922 
Q 2431 1156 2273 1281 
Q 2116 1406 1581 1522 
L 1381 1569 
Q 847 1681 609 1914 
Q 372 2147 372 2553 
Q 372 3047 722 3315 
Q 1072 3584 1716 3584 
Q 2034 3584 2315 3537 
Q 2597 3491 2834 3397 
z
" transform="scale(0.015625)"/>
      <path id="DejaVuSans-75" d="M 544 1381 
L 544 3500 
L 1119 3500 
L 1119 1403 
Q 1119 906 1312 657 
Q 1506 409 1894 409 
Q 2359 409 2629 706 
Q 2900 1003 2900 1516 
L 2900 3500 
L 3475 3500 
L 3475 0 
L 2900 0 
L 2900 538 
Q 2691 219 2414 64 
Q 2138 -91 1772 -91 
Q 1169 -91 856 284 
Q 544 659 544 1381 
z
M 1991 3584 
L 1991 3584 
z
" transform="scale(0.015625)"/>
      <path id="DejaVuSans-70" d="M 1159 525 
L 1159 -1331 
L 581 -1331 
L 581 3500 
L 1159 3500 
L 1159 2969 
Q 1341 3281 1617 3432 
Q 1894 3584 2278 3584 
Q 2916 3584 3314 3078 
Q 3713 2572 3713 1747 
Q 3713 922 3314 415 
Q 2916 -91 2278 -91 
Q 1894 -91 1617 61 
Q 1341 213 1159 525 
z
M 3116 1747 
Q 3116 2381 2855 2742 
Q 2594 3103 2138 3103 
Q 1681 3103 1420 2742 
Q 1159 2381 1159 1747 
Q 1159 1113 1420 752 
Q 1681 391 2138 391 
Q 2594 391 2855 752 
Q 3116 1113 3116 1747 
z
" transform="scale(0.015625)"/>
      <path id="DejaVuSans-6f" d="M 1959 3097 
Q 1497 3097 1228 2736 
Q 959 2375 959 1747 
Q 959 1119 1226 758 
Q 1494 397 1959 397 
Q 2419 397 2687 759 
Q 2956 1122 2956 1747 
Q 2956 2369 2687 2733 
Q 2419 3097 1959 3097 
z
M 1959 3584 
Q 2709 3584 3137 3096 
Q 3566 2609 3566 1747 
Q 3566 888 3137 398 
Q 2709 -91 1959 -91 
Q 1206 -91 779 398 
Q 353 888 353 1747 
Q 353 2609 779 3096 
Q 1206 3584 1959 3584 
z
" transform="scale(0.015625)"/>
      <path id="DejaVuSans-72" d="M 2631 2963 
Q 2534 3019 2420 3045 
Q 2306 3072 2169 3072 
Q 1681 3072 1420 2755 
Q 1159 2438 1159 1844 
L 1159 0 
L 581 0 
L 581 3500 
L 1159 3500 
L 1159 2956 
Q 1341 3275 1631 3429 
Q 1922 3584 2338 3584 
Q 2397 3584 2469 3576 
Q 2541 3569 2628 3553 
L 2631 2963 
z
" transform="scale(0.015625)"/>
      <path id="DejaVuSans-74" d="M 1172 4494 
L 1172 3500 
L 2356 3500 
L 2356 3053 
L 1172 3053 
L 1172 1153 
Q 1172 725 1289 603 
Q 1406 481 1766 481 
L 2356 481 
L 2356 0 
L 1766 0 
Q 1100 0 847 248 
Q 594 497 594 1153 
L 594 3053 
L 172 3053 
L 172 3500 
L 594 3500 
L 594 4494 
L 1172 4494 
z
" transform="scale(0.015625)"/>
     </defs>
     <use xlink:href="#DejaVuSans-73"/>
     <use xlink:href="#DejaVuSans-75" x="52.099609"/>
     <use xlink:href="#DejaVuSans-70" x="115.478516"/>
     <use xlink:href="#DejaVuSans-70" x="178.955078"/>
     <use xlink:href="#DejaVuSans-6f" x="242.431641"/>
     <use xlink:href="#DejaVuSans-72" x="303.613281"/>
     <use xlink:href="#DejaVuSans-74" x="344.726562"/>
    </g>
   </g>
  </g>
  <g id="axis3d_2">
   <g id="line2d_12">
    <path d="M 194.844704 126.233198 
L 155.664905 166.44131 
" style="fill: none; stroke: #000000; stroke-width: 0.8; stroke-linecap: square"/>
   </g>
   <g id="xtick_11">
    <g id="line2d_13">
     <path d="M 157.756672 163.458577 
L 159.61579 164.061024 
" style="fill: none; stroke: #000000; stroke-width: 0.8; stroke-linecap: square"/>
    </g>
    <g id="text_12">
     <!-- -1 -->
     <g transform="translate(166.279246 184.689208) scale(0.1 -0.1)">
      <defs>
       <path id="DejaVuSans-2d" d="M 313 2009 
L 1997 2009 
L 1997 1497 
L 313 1497 
L 313 2009 
z
" transform="scale(0.015625)"/>
      </defs>
      <use xlink:href="#DejaVuSans-2d"/>
      <use xlink:href="#DejaVuSans-31" x="36.083984"/>
     </g>
    </g>
   </g>
   <g id="text_13">
    <!-- window -->
    <g transform="translate(191.873976 188.99679) rotate(-45.742112) scale(0.1 -0.1)">
     <defs>
      <path id="DejaVuSans-77" d="M 269 3500 
L 844 3500 
L 1563 769 
L 2278 3500 
L 2956 3500 
L 3675 769 
L 4391 3500 
L 4966 3500 
L 4050 0 
L 3372 0 
L 2619 2869 
L 1863 0 
L 1184 0 
L 269 3500 
z
" transform="scale(0.015625)"/>
      <path id="DejaVuSans-69" d="M 603 3500 
L 1178 3500 
L 1178 0 
L 603 0 
L 603 3500 
z
M 603 4863 
L 1178 4863 
L 1178 4134 
L 603 4134 
L 603 4863 
z
" transform="scale(0.015625)"/>
      <path id="DejaVuSans-6e" d="M 3513 2113 
L 3513 0 
L 2938 0 
L 2938 2094 
Q 2938 2591 2744 2837 
Q 2550 3084 2163 3084 
Q 1697 3084 1428 2787 
Q 1159 2491 1159 1978 
L 1159 0 
L 581 0 
L 581 3500 
L 1159 3500 
L 1159 2956 
Q 1366 3272 1645 3428 
Q 1925 3584 2291 3584 
Q 2894 3584 3203 3211 
Q 3513 2838 3513 2113 
z
" transform="scale(0.015625)"/>
      <path id="DejaVuSans-64" d="M 2906 2969 
L 2906 4863 
L 3481 4863 
L 3481 0 
L 2906 0 
L 2906 525 
Q 2725 213 2448 61 
Q 2172 -91 1784 -91 
Q 1150 -91 751 415 
Q 353 922 353 1747 
Q 353 2572 751 3078 
Q 1150 3584 1784 3584 
Q 2172 3584 2448 3432 
Q 2725 3281 2906 2969 
z
M 947 1747 
Q 947 1113 1208 752 
Q 1469 391 1925 391 
Q 2381 391 2643 752 
Q 2906 1113 2906 1747 
Q 2906 2381 2643 2742 
Q 2381 3103 1925 3103 
Q 1469 3103 1208 2742 
Q 947 2381 947 1747 
z
" transform="scale(0.015625)"/>
     </defs>
     <use xlink:href="#DejaVuSans-77"/>
     <use xlink:href="#DejaVuSans-69" x="81.787109"/>
     <use xlink:href="#DejaVuSans-6e" x="109.570312"/>
     <use xlink:href="#DejaVuSans-64" x="172.949219"/>
     <use xlink:href="#DejaVuSans-6f" x="236.425781"/>
     <use xlink:href="#DejaVuSans-77" x="297.607422"/>
    </g>
   </g>
  </g>
  <g id="axis3d_3">
   <g id="line2d_14">
    <path d="M 194.844704 126.233198 
L 197.327536 72.014481 
" style="fill: none; stroke: #000000; stroke-width: 0.8; stroke-linecap: square"/>
   </g>
   <g id="xtick_12">
    <g id="line2d_15">
     <path d="M 194.344576 124.214065 
L 196.100486 124.722207 
" style="fill: none; stroke: #000000; stroke-width: 0.8; stroke-linecap: square"/>
    </g>
    <g id="text_14">
     <!-- $10^{-0.2}$ -->
     <g transform="translate(198.249169 129.392026) scale(0.1 -0.1)">
      <defs>
       <path id="DejaVuSans-2212" d="M 678 2272 
L 4684 2272 
L 4684 1741 
L 678 1741 
L 678 2272 
z
" transform="scale(0.015625)"/>
       <path id="DejaVuSans-2e" d="M 684 794 
L 1344 794 
L 1344 0 
L 684 0 
L 684 794 
z
" transform="scale(0.015625)"/>
      </defs>
      <use xlink:href="#DejaVuSans-31" transform="translate(0 0.765625)"/>
      <use xlink:href="#DejaVuSans-30" transform="translate(63.623047 0.765625)"/>
      <use xlink:href="#DejaVuSans-2212" transform="translate(128.203125 39.046875) scale(0.7)"/>
      <use xlink:href="#DejaVuSans-30" transform="translate(186.855469 39.046875) scale(0.7)"/>
      <use xlink:href="#DejaVuSans-2e" transform="translate(231.391602 39.046875) scale(0.7)"/>
      <use xlink:href="#DejaVuSans-32" transform="translate(249.792578 39.046875) scale(0.7)"/>
     </g>
    </g>
   </g>
   <g id="xtick_13">
    <g id="line2d_16">
     <path d="M 194.584604 118.915927 
L 196.348484 119.419954 
" style="fill: none; stroke: #000000; stroke-width: 0.8; stroke-linecap: square"/>
    </g>
    <g id="text_15">
     <!-- $10^{-0.1}$ -->
     <g transform="translate(198.419541 124.113557) scale(0.1 -0.1)">
      <use xlink:href="#DejaVuSans-31" transform="translate(0 0.765625)"/>
      <use xlink:href="#DejaVuSans-30" transform="translate(63.623047 0.765625)"/>
      <use xlink:href="#DejaVuSans-2212" transform="translate(128.203125 39.046875) scale(0.7)"/>
      <use xlink:href="#DejaVuSans-30" transform="translate(186.855469 39.046875) scale(0.7)"/>
      <use xlink:href="#DejaVuSans-2e" transform="translate(231.391602 39.046875) scale(0.7)"/>
      <use xlink:href="#DejaVuSans-31" transform="translate(253.642578 39.046875) scale(0.7)"/>
     </g>
    </g>
   </g>
   <g id="xtick_14">
    <g id="line2d_17">
     <path d="M 194.826738 113.571277 
L 196.598661 114.071098 
" style="fill: none; stroke: #000000; stroke-width: 0.8; stroke-linecap: square"/>
    </g>
    <g id="text_16">
     <!-- $10^{0.0}$ -->
     <g transform="translate(201.642709 118.789016) scale(0.1 -0.1)">
      <use xlink:href="#DejaVuSans-31" transform="translate(0 0.765625)"/>
      <use xlink:href="#DejaVuSans-30" transform="translate(63.623047 0.765625)"/>
      <use xlink:href="#DejaVuSans-30" transform="translate(128.203125 39.046875) scale(0.7)"/>
      <use xlink:href="#DejaVuSans-2e" transform="translate(172.739258 39.046875) scale(0.7)"/>
      <use xlink:href="#DejaVuSans-30" transform="translate(194.990234 39.046875) scale(0.7)"/>
     </g>
    </g>
   </g>
   <g id="xtick_15">
    <g id="line2d_18">
     <path d="M 195.071008 108.179501 
L 196.851047 108.675022 
" style="fill: none; stroke: #000000; stroke-width: 0.8; stroke-linecap: square"/>
    </g>
    <g id="text_17">
     <!-- $10^{0.1}$ -->
     <g transform="translate(201.968711 113.417795) scale(0.1 -0.1)">
      <use xlink:href="#DejaVuSans-31" transform="translate(0 0.765625)"/>
      <use xlink:href="#DejaVuSans-30" transform="translate(63.623047 0.765625)"/>
      <use xlink:href="#DejaVuSans-30" transform="translate(128.203125 39.046875) scale(0.7)"/>
      <use xlink:href="#DejaVuSans-2e" transform="translate(172.739258 39.046875) scale(0.7)"/>
      <use xlink:href="#DejaVuSans-31" transform="translate(194.990234 39.046875) scale(0.7)"/>
     </g>
    </g>
   </g>
   <g id="xtick_16">
    <g id="line2d_19">
     <path d="M 195.317441 102.739972 
L 197.10567 103.231096 
" style="fill: none; stroke: #000000; stroke-width: 0.8; stroke-linecap: square"/>
    </g>
    <g id="text_18">
     <!-- $10^{0.2}$ -->
     <g transform="translate(202.497583 107.999278) scale(0.1 -0.1)">
      <use xlink:href="#DejaVuSans-31" transform="translate(0 0.765625)"/>
      <use xlink:href="#DejaVuSans-30" transform="translate(63.623047 0.765625)"/>
      <use xlink:href="#DejaVuSans-30" transform="translate(128.203125 39.046875) scale(0.7)"/>
      <use xlink:href="#DejaVuSans-2e" transform="translate(172.739258 39.046875) scale(0.7)"/>
      <use xlink:href="#DejaVuSans-32" transform="translate(191.140234 39.046875) scale(0.7)"/>
     </g>
    </g>
   </g>
   <g id="xtick_17">
    <g id="line2d_20">
     <path d="M 195.566066 97.252053 
L 197.362562 97.738683 
" style="fill: none; stroke: #000000; stroke-width: 0.8; stroke-linecap: square"/>
    </g>
    <g id="text_19">
     <!-- $10^{0.3}$ -->
     <g transform="translate(202.629363 102.532837) scale(0.1 -0.1)">
      <defs>
       <path id="DejaVuSans-33" d="M 2597 2516 
Q 3050 2419 3304 2112 
Q 3559 1806 3559 1356 
Q 3559 666 3084 287 
Q 2609 -91 1734 -91 
Q 1441 -91 1130 -33 
Q 819 25 488 141 
L 488 750 
Q 750 597 1062 519 
Q 1375 441 1716 441 
Q 2309 441 2620 675 
Q 2931 909 2931 1356 
Q 2931 1769 2642 2001 
Q 2353 2234 1838 2234 
L 1294 2234 
L 1294 2753 
L 1863 2753 
Q 2328 2753 2575 2939 
Q 2822 3125 2822 3475 
Q 2822 3834 2567 4026 
Q 2313 4219 1838 4219 
Q 1578 4219 1281 4162 
Q 984 4106 628 3988 
L 628 4550 
Q 988 4650 1302 4700 
Q 1616 4750 1894 4750 
Q 2613 4750 3031 4423 
Q 3450 4097 3450 3541 
Q 3450 3153 3228 2886 
Q 3006 2619 2597 2516 
z
" transform="scale(0.015625)"/>
      </defs>
      <use xlink:href="#DejaVuSans-31" transform="translate(0 0.765625)"/>
      <use xlink:href="#DejaVuSans-30" transform="translate(63.623047 0.765625)"/>
      <use xlink:href="#DejaVuSans-30" transform="translate(128.203125 39.046875) scale(0.7)"/>
      <use xlink:href="#DejaVuSans-2e" transform="translate(172.739258 39.046875) scale(0.7)"/>
      <use xlink:href="#DejaVuSans-33" transform="translate(194.990234 39.046875) scale(0.7)"/>
     </g>
    </g>
   </g>
   <g id="xtick_18">
    <g id="line2d_21">
     <path d="M 195.816913 91.715096 
L 197.621752 92.197131 
" style="fill: none; stroke: #000000; stroke-width: 0.8; stroke-linecap: square"/>
    </g>
    <g id="text_20">
     <!-- $10^{0.4}$ -->
     <g transform="translate(202.964092 97.017834) scale(0.1 -0.1)">
      <defs>
       <path id="DejaVuSans-34" d="M 2419 4116 
L 825 1625 
L 2419 1625 
L 2419 4116 
z
M 2253 4666 
L 3047 4666 
L 3047 1625 
L 3713 1625 
L 3713 1100 
L 3047 1100 
L 3047 0 
L 2419 0 
L 2419 1100 
L 313 1100 
L 313 1709 
L 2253 4666 
z
" transform="scale(0.015625)"/>
      </defs>
      <use xlink:href="#DejaVuSans-31" transform="translate(0 0.765625)"/>
      <use xlink:href="#DejaVuSans-30" transform="translate(63.623047 0.765625)"/>
      <use xlink:href="#DejaVuSans-30" transform="translate(128.203125 39.046875) scale(0.7)"/>
      <use xlink:href="#DejaVuSans-2e" transform="translate(172.739258 39.046875) scale(0.7)"/>
      <use xlink:href="#DejaVuSans-34" transform="translate(194.990234 39.046875) scale(0.7)"/>
     </g>
    </g>
   </g>
   <g id="xtick_19">
    <g id="line2d_22">
     <path d="M 196.070011 86.12844 
L 197.883271 86.605778 
" style="fill: none; stroke: #000000; stroke-width: 0.8; stroke-linecap: square"/>
    </g>
    <g id="text_21">
     <!-- $10^{0.5}$ -->
     <g transform="translate(203.301807 91.45362) scale(0.1 -0.1)">
      <use xlink:href="#DejaVuSans-31" transform="translate(0 0.765625)"/>
      <use xlink:href="#DejaVuSans-30" transform="translate(63.623047 0.765625)"/>
      <use xlink:href="#DejaVuSans-30" transform="translate(128.203125 39.046875) scale(0.7)"/>
      <use xlink:href="#DejaVuSans-2e" transform="translate(172.739258 39.046875) scale(0.7)"/>
      <use xlink:href="#DejaVuSans-35" transform="translate(194.990234 39.046875) scale(0.7)"/>
     </g>
    </g>
   </g>
   <g id="xtick_20">
    <g id="line2d_23">
     <path d="M 196.325392 80.491413 
L 198.147151 80.96395 
" style="fill: none; stroke: #000000; stroke-width: 0.8; stroke-linecap: square"/>
    </g>
    <g id="text_22">
     <!-- $10^{0.6}$ -->
     <g transform="translate(203.642549 85.839531) scale(0.1 -0.1)">
      <defs>
       <path id="DejaVuSans-36" d="M 2113 2584 
Q 1688 2584 1439 2293 
Q 1191 2003 1191 1497 
Q 1191 994 1439 701 
Q 1688 409 2113 409 
Q 2538 409 2786 701 
Q 3034 994 3034 1497 
Q 3034 2003 2786 2293 
Q 2538 2584 2113 2584 
z
M 3366 4563 
L 3366 3988 
Q 3128 4100 2886 4159 
Q 2644 4219 2406 4219 
Q 1781 4219 1451 3797 
Q 1122 3375 1075 2522 
Q 1259 2794 1537 2939 
Q 1816 3084 2150 3084 
Q 2853 3084 3261 2657 
Q 3669 2231 3669 1497 
Q 3669 778 3244 343 
Q 2819 -91 2113 -91 
Q 1303 -91 875 529 
Q 447 1150 447 2328 
Q 447 3434 972 4092 
Q 1497 4750 2381 4750 
Q 2619 4750 2861 4703 
Q 3103 4656 3366 4563 
z
" transform="scale(0.015625)"/>
      </defs>
      <use xlink:href="#DejaVuSans-31" transform="translate(0 0.765625)"/>
      <use xlink:href="#DejaVuSans-30" transform="translate(63.623047 0.765625)"/>
      <use xlink:href="#DejaVuSans-30" transform="translate(128.203125 39.046875) scale(0.7)"/>
      <use xlink:href="#DejaVuSans-2e" transform="translate(172.739258 39.046875) scale(0.7)"/>
      <use xlink:href="#DejaVuSans-36" transform="translate(194.990234 39.046875) scale(0.7)"/>
     </g>
    </g>
   </g>
   <g id="xtick_21">
    <g id="line2d_24">
     <path d="M 196.583085 74.80333 
L 198.413424 75.270959 
" style="fill: none; stroke: #000000; stroke-width: 0.8; stroke-linecap: square"/>
    </g>
    <g id="text_23">
     <!-- $10^{0.7}$ -->
     <g transform="translate(204.286359 80.174895) scale(0.1 -0.1)">
      <defs>
       <path id="DejaVuSans-37" d="M 525 4666 
L 3525 4666 
L 3525 4397 
L 1831 0 
L 1172 0 
L 2766 4134 
L 525 4134 
L 525 4666 
z
" transform="scale(0.015625)"/>
      </defs>
      <use xlink:href="#DejaVuSans-31" transform="translate(0 0.765625)"/>
      <use xlink:href="#DejaVuSans-30" transform="translate(63.623047 0.765625)"/>
      <use xlink:href="#DejaVuSans-30" transform="translate(128.203125 39.046875) scale(0.7)"/>
      <use xlink:href="#DejaVuSans-2e" transform="translate(172.739258 39.046875) scale(0.7)"/>
      <use xlink:href="#DejaVuSans-37" transform="translate(189.565234 39.046875) scale(0.7)"/>
     </g>
    </g>
   </g>
   <g id="text_24">
    <!-- elapsed -->
    <g transform="translate(238.023192 114.01016) rotate(-87.378092) scale(0.1 -0.1)">
     <defs>
      <path id="DejaVuSans-65" d="M 3597 1894 
L 3597 1613 
L 953 1613 
Q 991 1019 1311 708 
Q 1631 397 2203 397 
Q 2534 397 2845 478 
Q 3156 559 3463 722 
L 3463 178 
Q 3153 47 2828 -22 
Q 2503 -91 2169 -91 
Q 1331 -91 842 396 
Q 353 884 353 1716 
Q 353 2575 817 3079 
Q 1281 3584 2069 3584 
Q 2775 3584 3186 3129 
Q 3597 2675 3597 1894 
z
M 3022 2063 
Q 3016 2534 2758 2815 
Q 2500 3097 2075 3097 
Q 1594 3097 1305 2825 
Q 1016 2553 972 2059 
L 3022 2063 
z
" transform="scale(0.015625)"/>
      <path id="DejaVuSans-6c" d="M 603 4863 
L 1178 4863 
L 1178 0 
L 603 0 
L 603 4863 
z
" transform="scale(0.015625)"/>
      <path id="DejaVuSans-61" d="M 2194 1759 
Q 1497 1759 1228 1600 
Q 959 1441 959 1056 
Q 959 750 1161 570 
Q 1363 391 1709 391 
Q 2188 391 2477 730 
Q 2766 1069 2766 1631 
L 2766 1759 
L 2194 1759 
z
M 3341 1997 
L 3341 0 
L 2766 0 
L 2766 531 
Q 2569 213 2275 61 
Q 1981 -91 1556 -91 
Q 1019 -91 701 211 
Q 384 513 384 1019 
Q 384 1609 779 1909 
Q 1175 2209 1959 2209 
L 2766 2209 
L 2766 2266 
Q 2766 2663 2505 2880 
Q 2244 3097 1772 3097 
Q 1472 3097 1187 3025 
Q 903 2953 641 2809 
L 641 3341 
Q 956 3463 1253 3523 
Q 1550 3584 1831 3584 
Q 2591 3584 2966 3190 
Q 3341 2797 3341 1997 
z
" transform="scale(0.015625)"/>
     </defs>
     <use xlink:href="#DejaVuSans-65"/>
     <use xlink:href="#DejaVuSans-6c" x="61.523438"/>
     <use xlink:href="#DejaVuSans-61" x="89.306641"/>
     <use xlink:href="#DejaVuSans-70" x="150.585938"/>
     <use xlink:href="#DejaVuSans-73" x="214.0625"/>
     <use xlink:href="#DejaVuSans-65" x="266.162109"/>
     <use xlink:href="#DejaVuSans-64" x="327.685547"/>
    </g>
   </g>
  </g>
  <g id="axes_1">
   <g id="Poly3DCollection_1">
    <path d="M 132.769109 98.904521 
L 132.629326 72.897944 
L 138.727386 74.518232 
L 138.741728 100.601268 
z
" clip-path="url(#p29fb8e829d)" style="fill: #4c2869"/>
    <path d="M 138.741728 100.601268 
L 138.732813 84.387596 
L 144.835465 86.051552 
L 144.765061 102.312423 
z
" clip-path="url(#p29fb8e829d)" style="fill: #173546"/>
    <path d="M 126.846568 97.222 
L 126.446238 57.767 
L 132.556409 59.331907 
L 132.769109 98.904521 
z
" clip-path="url(#p29fb8e829d)" style="fill: #320844"/>
    <path d="M 144.765061 102.312423 
L 144.821971 89.168225 
L 150.961886 90.855786 
L 150.839758 104.038169 
z
" clip-path="url(#p29fb8e829d)" style="fill: #2d5a21"/>
    <path d="M 150.839758 104.038169 
L 150.895336 98.039124 
L 157.052245 99.762345 
L 156.966479 105.778695 
z
" clip-path="url(#p29fb8e829d)" style="fill: #3e564b"/>
    <path d="M 156.966479 105.778695 
L 156.97169 105.413143 
L 163.152971 107.16759 
L 163.145894 107.534191 
z
" clip-path="url(#p29fb8e829d)" style="fill: #3e6119"/>
    <path d="M 163.094068 110.218904 
L 163.145894 107.534191 
L 169.378686 109.30485 
L 169.312963 111.997249 
z
" clip-path="url(#p29fb8e829d)" style="fill: #5d4947"/>
    <path d="M 169.293026 112.814002 
L 169.378686 109.30485 
L 175.665551 111.090871 
L 175.561466 114.610072 
z
" clip-path="url(#p29fb8e829d)" style="fill: #084a1c"/>
    <path d="M 175.3456 121.908668 
L 175.665551 111.090871 
L 182.007194 112.892454 
L 181.629638 123.74099 
z
" clip-path="url(#p29fb8e829d)" style="fill: #1b3c15"/>
    <path d="M 181.609001 124.333982 
L 182.007194 112.892454 
L 188.404335 114.709803 
L 187.944341 126.183859 
z
" clip-path="url(#p29fb8e829d)" style="fill: #230422"/>
    <path d="M 88.817321 128.514114 
L 126.846568 97.222 
L 132.769109 98.904521 
L 95.032993 130.471066 
z
" clip-path="url(#p29fb8e829d)" style="fill: #400b56"/>
    <path d="M 95.032993 130.471066 
L 132.769109 98.904521 
L 138.741728 100.601268 
L 101.305374 132.445873 
z
" clip-path="url(#p29fb8e829d)" style="fill: #613386"/>
    <path d="M 101.305374 132.445873 
L 138.741728 100.601268 
L 144.765061 102.312423 
L 107.635242 134.438779 
z
" clip-path="url(#p29fb8e829d)" style="fill: #1e4459"/>
    <path d="M 95.032993 130.471066 
L 94.025228 103.089242 
L 132.629326 72.897944 
L 132.769109 98.904521 
z
" clip-path="url(#p29fb8e829d)" style="fill: #a054de"/>
    <path d="M 107.635242 134.438779 
L 144.765061 102.312423 
L 150.839758 104.038169 
L 114.023391 136.450034 
z
" clip-path="url(#p29fb8e829d)" style="fill: #39742a"/>
    <path d="M 101.305374 132.445873 
L 100.765282 115.384218 
L 138.732813 84.387596 
L 138.741728 100.601268 
z
" clip-path="url(#p29fb8e829d)" style="fill: #317194"/>
    <path d="M 88.817321 128.514114 
L 87.075808 86.940508 
L 126.446238 57.767 
L 126.846568 97.222 
z
" clip-path="url(#p29fb8e829d)" style="fill: #6b128f"/>
    <path d="M 107.635242 134.438779 
L 107.26955 120.608888 
L 144.821971 89.168225 
L 144.765061 102.312423 
z
" clip-path="url(#p29fb8e829d)" style="fill: #5fc046"/>
    <path d="M 101.305374 132.445873 
L 138.741728 100.601268 
L 138.727386 74.518232 
L 100.435975 104.981335 
z
" clip-path="url(#p29fb8e829d)" style="fill: #4c2869"/>
    <path d="M 114.023391 136.450034 
L 150.839758 104.038169 
L 156.966479 105.778695 
L 120.470631 138.479894 
z
" clip-path="url(#p29fb8e829d)" style="fill: #4f6e60"/>
    <path d="M 107.635242 134.438779 
L 144.765061 102.312423 
L 144.835465 86.051552 
L 107.182749 117.326195 
z
" clip-path="url(#p29fb8e829d)" style="fill: #173546"/>
    <path d="M 114.023391 136.450034 
L 113.889861 130.140525 
L 150.895336 98.039124 
L 150.839758 104.038169 
z
" clip-path="url(#p29fb8e829d)" style="fill: #82b69f"/>
    <path d="M 95.032993 130.471066 
L 132.769109 98.904521 
L 132.556409 59.331907 
L 93.498213 88.769811 
z
" clip-path="url(#p29fb8e829d)" style="fill: #320844"/>
    <path d="M 120.470631 138.479894 
L 120.464552 138.095539 
L 156.97169 105.413143 
L 156.966479 105.778695 
z
" clip-path="url(#p29fb8e829d)" style="fill: #82cf35"/>
    <path d="M 114.023391 136.450034 
L 150.839758 104.038169 
L 150.961886 90.855786 
L 113.729833 122.578985 
z
" clip-path="url(#p29fb8e829d)" style="fill: #2d5a21"/>
    <path d="M 120.470631 138.479894 
L 156.966479 105.778695 
L 163.145894 107.534191 
L 126.977786 140.528617 
z
" clip-path="url(#p29fb8e829d)" style="fill: #4f7d20"/>
    <path d="M 100.765282 115.384218 
L 107.182749 117.326195 
L 144.835465 86.051552 
L 138.732813 84.387596 
z
" clip-path="url(#p29fb8e829d)" style="fill: #2b6281"/>
    <path d="M 120.470631 138.479894 
L 156.966479 105.778695 
L 157.052245 99.762345 
L 120.370534 132.151771 
z
" clip-path="url(#p29fb8e829d)" style="fill: #3e564b"/>
    <path d="M 120.464552 138.095539 
L 126.973775 140.143136 
L 163.152971 107.16759 
L 156.97169 105.413143 
z
" clip-path="url(#p29fb8e829d)" style="fill: #71b32e"/>
    <path d="M 113.889861 130.140525 
L 120.370534 132.151771 
L 157.052245 99.762345 
L 150.895336 98.039124 
z
" clip-path="url(#p29fb8e829d)" style="fill: #719e8a"/>
    <path d="M 127.00715 143.351022 
L 126.977786 140.528617 
L 163.145894 107.534191 
L 163.094068 110.218904 
z
" clip-path="url(#p29fb8e829d)" style="fill: #c59b97"/>
    <path d="M 107.26955 120.608888 
L 113.729833 122.578985 
L 150.961886 90.855786 
L 144.821971 89.168225 
z
" clip-path="url(#p29fb8e829d)" style="fill: #53a63d"/>
    <path d="M 127.00715 143.351022 
L 163.094068 110.218904 
L 169.312963 111.997249 
L 133.559623 145.427115 
z
" clip-path="url(#p29fb8e829d)" style="fill: #775e5b"/>
    <path d="M 126.977786 140.528617 
L 163.145894 107.534191 
L 163.152971 107.16759 
L 126.973775 140.143136 
z
" clip-path="url(#p29fb8e829d)" style="fill: #3e6119"/>
    <path d="M 94.025228 103.089242 
L 100.435975 104.981335 
L 138.727386 74.518232 
L 132.629326 72.897944 
z
" clip-path="url(#p29fb8e829d)" style="fill: #8b49c1"/>
    <path d="M 140.168017 156.051503 
L 175.3456 121.908668 
L 181.629638 123.74099 
L 146.795853 158.191286 
z
" clip-path="url(#p29fb8e829d)" style="fill: #224d1b"/>
    <path d="M 126.977786 140.528617 
L 133.545693 142.596467 
L 169.378686 109.30485 
L 163.145894 107.534191 
z
" clip-path="url(#p29fb8e829d)" style="fill: #ab8683"/>
    <path d="M 133.563848 146.285609 
L 133.545693 142.596467 
L 169.378686 109.30485 
L 169.293026 112.814002 
z
" clip-path="url(#p29fb8e829d)" style="fill: #119d3c"/>
    <path d="M 133.559623 145.427115 
L 169.312963 111.997249 
L 169.378686 109.30485 
L 133.545693 142.596467 
z
" clip-path="url(#p29fb8e829d)" style="fill: #5d4947"/>
    <path d="M 133.563848 146.285609 
L 169.293026 112.814002 
L 175.561466 114.610072 
L 140.172868 148.383625 
z
" clip-path="url(#p29fb8e829d)" style="fill: #0a5f24"/>
    <path d="M 140.168017 156.051503 
L 140.175208 144.683714 
L 175.665551 111.090871 
L 175.3456 121.908668 
z
" clip-path="url(#p29fb8e829d)" style="fill: #397f2d"/>
    <path d="M 146.791956 158.813982 
L 181.609001 124.333982 
L 187.944341 126.183859 
L 153.478375 160.975603 
z
" clip-path="url(#p29fb8e829d)" style="fill: #2d052b"/>
    <path d="M 133.545693 142.596467 
L 140.175208 144.683714 
L 175.665551 111.090871 
L 169.378686 109.30485 
z
" clip-path="url(#p29fb8e829d)" style="fill: #0e8834"/>
    <path d="M 140.172868 148.383625 
L 175.561466 114.610072 
L 175.665551 111.090871 
L 140.175208 144.683714 
z
" clip-path="url(#p29fb8e829d)" style="fill: #084a1c"/>
    <path d="M 87.075808 86.940508 
L 93.498213 88.769811 
L 132.556409 59.331907 
L 126.446238 57.767 
z
" clip-path="url(#p29fb8e829d)" style="fill: #5d107c"/>
    <path d="M 146.791956 158.813982 
L 146.867202 146.790633 
L 182.007194 112.892454 
L 181.609001 124.333982 
z
" clip-path="url(#p29fb8e829d)" style="fill: #4a0848"/>
    <path d="M 146.795853 158.191286 
L 181.629638 123.74099 
L 182.007194 112.892454 
L 146.867202 146.790633 
z
" clip-path="url(#p29fb8e829d)" style="fill: #1b3c15"/>
    <path d="M 140.175208 144.683714 
L 146.867202 146.790633 
L 182.007194 112.892454 
L 175.665551 111.090871 
z
" clip-path="url(#p29fb8e829d)" style="fill: #316e27"/>
    <path d="M 153.478375 160.975603 
L 187.944341 126.183859 
L 188.404335 114.709803 
L 153.622563 148.917501 
z
" clip-path="url(#p29fb8e829d)" style="fill: #230422"/>
    <path d="M 146.867202 146.790633 
L 153.622563 148.917501 
L 188.404335 114.709803 
L 182.007194 112.892454 
z
" clip-path="url(#p29fb8e829d)" style="fill: #41073e"/>
    <path d="M 95.032993 130.471066 
L 101.305374 132.445873 
L 100.435975 104.981335 
L 94.025228 103.089242 
z
" clip-path="url(#p29fb8e829d)" style="fill: #a054de"/>
    <path d="M 101.305374 132.445873 
L 107.635242 134.438779 
L 107.182749 117.326195 
L 100.765282 115.384218 
z
" clip-path="url(#p29fb8e829d)" style="fill: #317194"/>
    <path d="M 88.817321 128.514114 
L 95.032993 130.471066 
L 93.498213 88.769811 
L 87.075808 86.940508 
z
" clip-path="url(#p29fb8e829d)" style="fill: #6b128f"/>
    <path d="M 107.635242 134.438779 
L 114.023391 136.450034 
L 113.729833 122.578985 
L 107.26955 120.608888 
z
" clip-path="url(#p29fb8e829d)" style="fill: #5fc046"/>
    <path d="M 114.023391 136.450034 
L 120.470631 138.479894 
L 120.370534 132.151771 
L 113.889861 130.140525 
z
" clip-path="url(#p29fb8e829d)" style="fill: #82b69f"/>
    <path d="M 120.470631 138.479894 
L 126.977786 140.528617 
L 126.973775 140.143136 
L 120.464552 138.095539 
z
" clip-path="url(#p29fb8e829d)" style="fill: #82cf35"/>
    <path d="M 127.00715 143.351022 
L 133.559623 145.427115 
L 133.545693 142.596467 
L 126.977786 140.528617 
z
" clip-path="url(#p29fb8e829d)" style="fill: #c59b97"/>
    <path d="M 133.563848 146.285609 
L 140.172868 148.383625 
L 140.175208 144.683714 
L 133.545693 142.596467 
z
" clip-path="url(#p29fb8e829d)" style="fill: #119d3c"/>
    <path d="M 140.168017 156.051503 
L 146.795853 158.191286 
L 146.867202 146.790633 
L 140.175208 144.683714 
z
" clip-path="url(#p29fb8e829d)" style="fill: #397f2d"/>
    <path d="M 146.791956 158.813982 
L 153.478375 160.975603 
L 153.622563 148.917501 
L 146.867202 146.790633 
z
" clip-path="url(#p29fb8e829d)" style="fill: #4a0848"/>
   </g>
   <g id="text_25">
    <!-- default -->
    <g transform="translate(116.535496 37.432941) scale(0.12 -0.12)">
     <defs>
      <path id="DejaVuSans-66" d="M 2375 4863 
L 2375 4384 
L 1825 4384 
Q 1516 4384 1395 4259 
Q 1275 4134 1275 3809 
L 1275 3500 
L 2222 3500 
L 2222 3053 
L 1275 3053 
L 1275 0 
L 697 0 
L 697 3053 
L 147 3053 
L 147 3500 
L 697 3500 
L 697 3744 
Q 697 4328 969 4595 
Q 1241 4863 1831 4863 
L 2375 4863 
z
" transform="scale(0.015625)"/>
     </defs>
     <use xlink:href="#DejaVuSans-64"/>
     <use xlink:href="#DejaVuSans-65" x="63.476562"/>
     <use xlink:href="#DejaVuSans-66" x="125"/>
     <use xlink:href="#DejaVuSans-61" x="160.205078"/>
     <use xlink:href="#DejaVuSans-75" x="221.484375"/>
     <use xlink:href="#DejaVuSans-6c" x="284.863281"/>
     <use xlink:href="#DejaVuSans-74" x="312.646484"/>
    </g>
   </g>
   <g id="Poly3DCollection_2">
    <path d="M 88.817321 128.514114 
L 95.032993 130.471066 
L 132.769109 98.904521 
L 126.846568 97.222 
z
" clip-path="url(#p29fb8e829d)" style="fill: #c30000"/>
    <path d="M 95.032993 130.471066 
L 101.305374 132.445873 
L 138.741728 100.601268 
L 132.769109 98.904521 
z
" clip-path="url(#p29fb8e829d)" style="fill: #c30000"/>
    <path d="M 101.305374 132.445873 
L 107.635242 134.438779 
L 144.765061 102.312423 
L 138.741728 100.601268 
z
" clip-path="url(#p29fb8e829d)" style="fill: #c30000"/>
    <path d="M 107.635242 134.438779 
L 114.023391 136.450034 
L 150.839758 104.038169 
L 144.765061 102.312423 
z
" clip-path="url(#p29fb8e829d)" style="fill: #c30000"/>
    <path d="M 114.023391 136.450034 
L 120.470631 138.479894 
L 156.966479 105.778695 
L 150.839758 104.038169 
z
" clip-path="url(#p29fb8e829d)" style="fill: #c30000"/>
    <path d="M 120.470631 138.479894 
L 126.977786 140.528617 
L 163.145894 107.534191 
L 156.966479 105.778695 
z
" clip-path="url(#p29fb8e829d)" style="fill: #c30000"/>
    <path d="M 126.977786 140.528617 
L 133.545693 142.596467 
L 169.378686 109.30485 
L 163.145894 107.534191 
z
" clip-path="url(#p29fb8e829d)" style="fill: #c30000"/>
    <path d="M 133.545693 142.596467 
L 140.175208 144.683714 
L 175.665551 111.090871 
L 169.378686 109.30485 
z
" clip-path="url(#p29fb8e829d)" style="fill: #c30000"/>
    <path d="M 140.175208 144.683714 
L 146.867202 146.790633 
L 182.007194 112.892454 
L 175.665551 111.090871 
z
" clip-path="url(#p29fb8e829d)" style="fill: #c30000"/>
    <path d="M 146.867202 146.790633 
L 153.622563 148.917501 
L 188.404335 114.709803 
L 182.007194 112.892454 
z
" clip-path="url(#p29fb8e829d)" style="fill: #c30000"/>
   </g>
  </g>
  <g id="patch_6">
   <path d="M 229.552941 174.727059 
L 360.847059 174.727059 
L 360.847059 43.432941 
L 229.552941 43.432941 
z
" style="fill: #ffffff"/>
  </g>
  <g id="pane3d_4">
   <g id="patch_7">
    <path d="M 239.466552 142.354137 
L 282.824158 106.010932 
L 282.221446 53.597534 
L 236.788955 86.752097 
" style="fill: #f2f2f2; opacity: 0.5; stroke: #f2f2f2; stroke-linejoin: miter"/>
   </g>
  </g>
  <g id="pane3d_5">
   <g id="patch_8">
    <path d="M 282.824158 106.010932 
L 352.397645 126.233198 
L 354.880477 72.014481 
L 282.221446 53.597534 
" style="fill: #e6e6e6; opacity: 0.5; stroke: #e6e6e6; stroke-linejoin: miter"/>
   </g>
  </g>
  <g id="pane3d_6">
   <g id="patch_9">
    <path d="M 239.466552 142.354137 
L 313.217847 166.44131 
L 352.397645 126.233198 
L 282.824158 106.010932 
" style="fill: #ececec; opacity: 0.5; stroke: #ececec; stroke-linejoin: miter"/>
   </g>
  </g>
  <g id="grid3d_4">
   <g id="Line3DCollection_4">
    <path d="M 243.933318 143.812983 
L 287.055404 107.240789 
L 286.631593 54.715378 
" style="fill: none; stroke: #b0b0b0; stroke-width: 0.8"/>
    <path d="M 259.472916 148.888215 
L 301.758 111.514253 
L 301.964624 58.601855 
" style="fill: none; stroke: #b0b0b0; stroke-width: 0.8"/>
    <path d="M 275.370046 154.080218 
L 316.770561 115.877812 
L 317.635029 62.573845 
" style="fill: none; stroke: #b0b0b0; stroke-width: 0.8"/>
    <path d="M 291.637189 159.393067 
L 332.102995 120.334345 
L 333.654066 66.634204 
" style="fill: none; stroke: #b0b0b0; stroke-width: 0.8"/>
   </g>
  </g>
  <g id="grid3d_5">
   <g id="Line3DCollection_5">
    <path d="M 239.930725 84.459376 
L 242.454258 139.849783 
L 315.928785 163.659219 
" style="fill: none; stroke: #b0b0b0; stroke-width: 0.8"/>
    <path d="M 250.427047 76.799639 
L 252.447238 131.473469 
L 324.984068 154.366272 
" style="fill: none; stroke: #b0b0b0; stroke-width: 0.8"/>
    <path d="M 260.515829 69.437305 
L 262.068747 123.408529 
L 333.685325 145.436641 
" style="fill: none; stroke: #b0b0b0; stroke-width: 0.8"/>
    <path d="M 270.220354 62.355385 
L 271.339121 115.637918 
L 342.05292 136.849431 
" style="fill: none; stroke: #b0b0b0; stroke-width: 0.8"/>
   </g>
  </g>
  <g id="grid3d_6">
   <g id="Line3DCollection_6">
    <path d="M 352.445213 125.194428 
L 282.812587 105.004668 
L 239.415337 141.290624 
" style="fill: none; stroke: #b0b0b0; stroke-width: 0.8"/>
    <path d="M 353.322881 106.028412 
L 282.599258 86.453029 
L 238.469792 121.655763 
" style="fill: none; stroke: #b0b0b0; stroke-width: 0.8"/>
    <path d="M 354.228768 86.246152 
L 282.379403 67.333924 
L 237.492662 101.365027 
" style="fill: none; stroke: #b0b0b0; stroke-width: 0.8"/>
   </g>
  </g>
  <g id="axis3d_4">
   <g id="line2d_25">
    <path d="M 239.466552 142.354137 
L 313.217847 166.44131 
" style="fill: none; stroke: #000000; stroke-width: 0.8; stroke-linecap: square"/>
   </g>
   <g id="xtick_22">
    <g id="line2d_26">
     <path d="M 244.308823 143.494514 
L 243.180697 144.451286 
" style="fill: none; stroke: #000000; stroke-width: 0.8; stroke-linecap: square"/>
    </g>
    <g id="text_26">
     <!-- 0.005 -->
     <g transform="translate(222.061357 167.18233) scale(0.1 -0.1)">
      <use xlink:href="#DejaVuSans-30"/>
      <use xlink:href="#DejaVuSans-2e" x="63.623047"/>
      <use xlink:href="#DejaVuSans-30" x="95.410156"/>
      <use xlink:href="#DejaVuSans-30" x="159.033203"/>
      <use xlink:href="#DejaVuSans-35" x="222.65625"/>
     </g>
    </g>
   </g>
   <g id="xtick_23">
    <g id="line2d_27">
     <path d="M 259.841473 148.562464 
L 258.734204 149.541131 
" style="fill: none; stroke: #000000; stroke-width: 0.8; stroke-linecap: square"/>
    </g>
    <g id="text_27">
     <!-- 0.01 -->
     <g transform="translate(240.814467 172.477122) scale(0.1 -0.1)">
      <use xlink:href="#DejaVuSans-30"/>
      <use xlink:href="#DejaVuSans-2e" x="63.623047"/>
      <use xlink:href="#DejaVuSans-30" x="95.410156"/>
      <use xlink:href="#DejaVuSans-31" x="159.033203"/>
     </g>
    </g>
   </g>
   <g id="xtick_24">
    <g id="line2d_28">
     <path d="M 275.731233 153.746932 
L 274.646086 154.748253 
" style="fill: none; stroke: #000000; stroke-width: 0.8; stroke-linecap: square"/>
    </g>
    <g id="text_28">
     <!-- 0.05 -->
     <g transform="translate(256.747373 177.894679) scale(0.1 -0.1)">
      <use xlink:href="#DejaVuSans-30"/>
      <use xlink:href="#DejaVuSans-2e" x="63.623047"/>
      <use xlink:href="#DejaVuSans-30" x="95.410156"/>
      <use xlink:href="#DejaVuSans-35" x="159.033203"/>
     </g>
    </g>
   </g>
   <g id="xtick_25">
    <g id="line2d_29">
     <path d="M 291.990562 159.051981 
L 290.928873 160.076753 
" style="fill: none; stroke: #000000; stroke-width: 0.8; stroke-linecap: square"/>
    </g>
    <g id="text_29">
     <!-- 0.1 -->
     <g transform="translate(276.235278 183.439319) scale(0.1 -0.1)">
      <use xlink:href="#DejaVuSans-30"/>
      <use xlink:href="#DejaVuSans-2e" x="63.623047"/>
      <use xlink:href="#DejaVuSans-31" x="95.410156"/>
     </g>
    </g>
   </g>
   <g id="text_30">
    <!-- support -->
    <g transform="translate(239.833511 186.318757) rotate(-341.912962) scale(0.1 -0.1)">
     <use xlink:href="#DejaVuSans-73"/>
     <use xlink:href="#DejaVuSans-75" x="52.099609"/>
     <use xlink:href="#DejaVuSans-70" x="115.478516"/>
     <use xlink:href="#DejaVuSans-70" x="178.955078"/>
     <use xlink:href="#DejaVuSans-6f" x="242.431641"/>
     <use xlink:href="#DejaVuSans-72" x="303.613281"/>
     <use xlink:href="#DejaVuSans-74" x="344.726562"/>
    </g>
   </g>
  </g>
  <g id="axis3d_5">
   <g id="line2d_30">
    <path d="M 352.397645 126.233198 
L 313.217847 166.44131 
" style="fill: none; stroke: #000000; stroke-width: 0.8; stroke-linecap: square"/>
   </g>
   <g id="xtick_26">
    <g id="line2d_31">
     <path d="M 315.309613 163.458577 
L 317.168731 164.061024 
" style="fill: none; stroke: #000000; stroke-width: 0.8; stroke-linecap: square"/>
    </g>
    <g id="text_31">
     <!-- 1000 -->
     <g transform="translate(316.092344 184.689208) scale(0.1 -0.1)">
      <use xlink:href="#DejaVuSans-31"/>
      <use xlink:href="#DejaVuSans-30" x="63.623047"/>
      <use xlink:href="#DejaVuSans-30" x="127.246094"/>
      <use xlink:href="#DejaVuSans-30" x="190.869141"/>
     </g>
    </g>
   </g>
   <g id="xtick_27">
    <g id="line2d_32">
     <path d="M 324.373415 154.173548 
L 326.206921 154.752207 
" style="fill: none; stroke: #000000; stroke-width: 0.8; stroke-linecap: square"/>
    </g>
    <g id="text_32">
     <!-- 2000 -->
     <g transform="translate(324.901129 175.117086) scale(0.1 -0.1)">
      <use xlink:href="#DejaVuSans-32"/>
      <use xlink:href="#DejaVuSans-30" x="63.623047"/>
      <use xlink:href="#DejaVuSans-30" x="127.246094"/>
      <use xlink:href="#DejaVuSans-30" x="190.869141"/>
     </g>
    </g>
   </g>
   <g id="xtick_28">
    <g id="line2d_33">
     <path d="M 333.083005 145.251378 
L 334.891462 145.80763 
" style="fill: none; stroke: #000000; stroke-width: 0.8; stroke-linecap: square"/>
    </g>
    <g id="text_33">
     <!-- 5000 -->
     <g transform="translate(333.365123 165.919634) scale(0.1 -0.1)">
      <use xlink:href="#DejaVuSans-35"/>
      <use xlink:href="#DejaVuSans-30" x="63.623047"/>
      <use xlink:href="#DejaVuSans-30" x="127.246094"/>
      <use xlink:href="#DejaVuSans-30" x="190.869141"/>
     </g>
    </g>
   </g>
   <g id="xtick_29">
    <g id="line2d_34">
     <path d="M 341.458749 136.671202 
L 343.24271 137.206324 
" style="fill: none; stroke: #000000; stroke-width: 0.8; stroke-linecap: square"/>
    </g>
    <g id="text_34">
     <!-- 10000 -->
     <g transform="translate(338.322932 157.075275) scale(0.1 -0.1)">
      <use xlink:href="#DejaVuSans-31"/>
      <use xlink:href="#DejaVuSans-30" x="63.623047"/>
      <use xlink:href="#DejaVuSans-30" x="127.246094"/>
      <use xlink:href="#DejaVuSans-30" x="190.869141"/>
      <use xlink:href="#DejaVuSans-30" x="254.492188"/>
     </g>
    </g>
   </g>
   <g id="text_35">
    <!-- window -->
    <g transform="translate(349.426917 188.99679) rotate(-45.742112) scale(0.1 -0.1)">
     <use xlink:href="#DejaVuSans-77"/>
     <use xlink:href="#DejaVuSans-69" x="81.787109"/>
     <use xlink:href="#DejaVuSans-6e" x="109.570312"/>
     <use xlink:href="#DejaVuSans-64" x="172.949219"/>
     <use xlink:href="#DejaVuSans-6f" x="236.425781"/>
     <use xlink:href="#DejaVuSans-77" x="297.607422"/>
    </g>
   </g>
  </g>
  <g id="axis3d_6">
   <g id="line2d_35">
    <path d="M 352.397645 126.233198 
L 354.880477 72.014481 
" style="fill: none; stroke: #000000; stroke-width: 0.8; stroke-linecap: square"/>
   </g>
   <g id="xtick_30">
    <g id="line2d_36">
     <path d="M 351.86078 125.024973 
L 353.61547 125.53374 
" style="fill: none; stroke: #000000; stroke-width: 0.8; stroke-linecap: square"/>
    </g>
    <g id="text_36">
     <!-- $10^{0.0}$ -->
     <g transform="translate(358.503074 130.199946) scale(0.1 -0.1)">
      <use xlink:href="#DejaVuSans-31" transform="translate(0 0.765625)"/>
      <use xlink:href="#DejaVuSans-30" transform="translate(63.623047 0.765625)"/>
      <use xlink:href="#DejaVuSans-30" transform="translate(128.203125 39.046875) scale(0.7)"/>
      <use xlink:href="#DejaVuSans-2e" transform="translate(172.739258 39.046875) scale(0.7)"/>
      <use xlink:href="#DejaVuSans-30" transform="translate(194.990234 39.046875) scale(0.7)"/>
     </g>
    </g>
   </g>
   <g id="xtick_31">
    <g id="line2d_37">
     <path d="M 352.728851 105.863992 
L 354.512376 106.357648 
" style="fill: none; stroke: #000000; stroke-width: 0.8; stroke-linecap: square"/>
    </g>
    <g id="text_37">
     <!-- $10^{1.0}$ -->
     <g transform="translate(359.661649 111.111196) scale(0.1 -0.1)">
      <use xlink:href="#DejaVuSans-31" transform="translate(0 0.765625)"/>
      <use xlink:href="#DejaVuSans-30" transform="translate(63.623047 0.765625)"/>
      <use xlink:href="#DejaVuSans-31" transform="translate(128.203125 39.046875) scale(0.7)"/>
      <use xlink:href="#DejaVuSans-2e" transform="translate(172.739258 39.046875) scale(0.7)"/>
      <use xlink:href="#DejaVuSans-30" transform="translate(194.990234 39.046875) scale(0.7)"/>
     </g>
    </g>
   </g>
   <g id="xtick_32">
    <g id="line2d_38">
     <path d="M 353.624822 86.087181 
L 355.438144 86.564484 
" style="fill: none; stroke: #000000; stroke-width: 0.8; stroke-linecap: square"/>
    </g>
    <g id="text_38">
     <!-- $10^{2.0}$ -->
     <g transform="translate(360.857242 91.412528) scale(0.1 -0.1)">
      <use xlink:href="#DejaVuSans-31" transform="translate(0 0.765625)"/>
      <use xlink:href="#DejaVuSans-30" transform="translate(63.623047 0.765625)"/>
      <use xlink:href="#DejaVuSans-32" transform="translate(128.203125 39.046875) scale(0.7)"/>
      <use xlink:href="#DejaVuSans-2e" transform="translate(172.739258 39.046875) scale(0.7)"/>
      <use xlink:href="#DejaVuSans-30" transform="translate(194.990234 39.046875) scale(0.7)"/>
     </g>
    </g>
   </g>
   <g id="text_39">
    <!-- elapsed -->
    <g transform="translate(395.576133 114.01016) rotate(-87.378092) scale(0.1 -0.1)">
     <use xlink:href="#DejaVuSans-65"/>
     <use xlink:href="#DejaVuSans-6c" x="61.523438"/>
     <use xlink:href="#DejaVuSans-61" x="89.306641"/>
     <use xlink:href="#DejaVuSans-70" x="150.585938"/>
     <use xlink:href="#DejaVuSans-73" x="214.0625"/>
     <use xlink:href="#DejaVuSans-65" x="266.162109"/>
     <use xlink:href="#DejaVuSans-64" x="327.685547"/>
    </g>
   </g>
  </g>
  <g id="axes_2">
   <g id="Poly3DCollection_3">
    <path d="M 275.617088 115.90251 
L 290.561502 120.37439 
L 299.278803 112.688375 
L 284.512691 108.37677 
z
" clip-path="url(#p83da661ee5)" style="fill: #c30000"/>
    <path d="M 290.561502 120.37439 
L 305.828867 124.942908 
L 314.35815 117.091443 
L 299.278803 112.688375 
z
" clip-path="url(#p83da661ee5)" style="fill: #c30000"/>
    <path d="M 266.389484 123.709123 
L 281.515312 128.350385 
L 290.561502 120.37439 
L 275.617088 115.90251 
z
" clip-path="url(#p83da661ee5)" style="fill: #c30000"/>
    <path d="M 305.828867 124.942908 
L 321.429765 129.611231 
L 329.760806 121.588914 
L 314.35815 117.091443 
z
" clip-path="url(#p83da661ee5)" style="fill: #c30000"/>
    <path d="M 281.515312 128.350385 
L 296.974245 133.093858 
L 305.828867 124.942908 
L 290.561502 120.37439 
z
" clip-path="url(#p83da661ee5)" style="fill: #c30000"/>
    <path d="M 321.429765 129.611231 
L 337.375247 134.382665 
L 345.497282 126.183859 
L 329.760806 121.588914 
z
" clip-path="url(#p83da661ee5)" style="fill: #c30000"/>
    <path d="M 256.810942 131.812633 
L 272.121264 136.633085 
L 281.515312 128.350385 
L 266.389484 123.709123 
z
" clip-path="url(#p83da661ee5)" style="fill: #c30000"/>
    <path d="M 296.974245 133.093858 
L 312.777409 137.942956 
L 321.429765 129.611231 
L 305.828867 124.942908 
z
" clip-path="url(#p83da661ee5)" style="fill: #c30000"/>
    <path d="M 272.121264 136.633085 
L 287.775309 141.561759 
L 296.974245 133.093858 
L 281.515312 128.350385 
z
" clip-path="url(#p83da661ee5)" style="fill: #c30000"/>
    <path d="M 312.777409 137.942956 
L 328.93643 142.901246 
L 337.375247 134.382665 
L 321.429765 129.611231 
z
" clip-path="url(#p83da661ee5)" style="fill: #c30000"/>
    <path d="M 246.861052 140.230305 
L 262.358898 145.24053 
L 272.121264 136.633085 
L 256.810942 131.812633 
z
" clip-path="url(#p83da661ee5)" style="fill: #c30000"/>
    <path d="M 287.775309 141.561759 
L 303.784783 146.60234 
L 312.777409 137.942956 
L 296.974245 133.093858 
z
" clip-path="url(#p83da661ee5)" style="fill: #c30000"/>
    <path d="M 262.358898 145.24053 
L 278.211576 150.365466 
L 287.775309 141.561759 
L 272.121264 136.633085 
z
" clip-path="url(#p83da661ee5)" style="fill: #c30000"/>
    <path d="M 303.784783 146.60234 
L 320.161932 151.758683 
L 328.93643 142.901246 
L 312.777409 137.942956 
z
" clip-path="url(#p83da661ee5)" style="fill: #c30000"/>
    <path d="M 278.211576 150.365466 
L 294.431414 155.6091 
L 303.784783 146.60234 
L 287.775309 141.561759 
z
" clip-path="url(#p83da661ee5)" style="fill: #c30000"/>
    <path d="M 294.431414 155.6091 
L 311.031316 160.975603 
L 320.161932 151.758683 
L 303.784783 146.60234 
z
" clip-path="url(#p83da661ee5)" style="fill: #c30000"/>
   </g>
   <g id="text_40">
    <!-- graph -->
    <g transform="translate(277.635938 37.432941) scale(0.12 -0.12)">
     <defs>
      <path id="DejaVuSans-67" d="M 2906 1791 
Q 2906 2416 2648 2759 
Q 2391 3103 1925 3103 
Q 1463 3103 1205 2759 
Q 947 2416 947 1791 
Q 947 1169 1205 825 
Q 1463 481 1925 481 
Q 2391 481 2648 825 
Q 2906 1169 2906 1791 
z
M 3481 434 
Q 3481 -459 3084 -895 
Q 2688 -1331 1869 -1331 
Q 1566 -1331 1297 -1286 
Q 1028 -1241 775 -1147 
L 775 -588 
Q 1028 -725 1275 -790 
Q 1522 -856 1778 -856 
Q 2344 -856 2625 -561 
Q 2906 -266 2906 331 
L 2906 616 
Q 2728 306 2450 153 
Q 2172 0 1784 0 
Q 1141 0 747 490 
Q 353 981 353 1791 
Q 353 2603 747 3093 
Q 1141 3584 1784 3584 
Q 2172 3584 2450 3431 
Q 2728 3278 2906 2969 
L 2906 3500 
L 3481 3500 
L 3481 434 
z
" transform="scale(0.015625)"/>
      <path id="DejaVuSans-68" d="M 3513 2113 
L 3513 0 
L 2938 0 
L 2938 2094 
Q 2938 2591 2744 2837 
Q 2550 3084 2163 3084 
Q 1697 3084 1428 2787 
Q 1159 2491 1159 1978 
L 1159 0 
L 581 0 
L 581 4863 
L 1159 4863 
L 1159 2956 
Q 1366 3272 1645 3428 
Q 1925 3584 2291 3584 
Q 2894 3584 3203 3211 
Q 3513 2838 3513 2113 
z
" transform="scale(0.015625)"/>
     </defs>
     <use xlink:href="#DejaVuSans-67"/>
     <use xlink:href="#DejaVuSans-72" x="63.476562"/>
     <use xlink:href="#DejaVuSans-61" x="104.589844"/>
     <use xlink:href="#DejaVuSans-70" x="165.869141"/>
     <use xlink:href="#DejaVuSans-68" x="229.345703"/>
    </g>
   </g>
   <g id="Poly3DCollection_4">
    <path d="M 284.512691 108.37677 
L 284.395011 96.778713 
L 299.300797 101.00858 
L 299.278803 112.688375 
z
" clip-path="url(#p83da661ee5)" style="fill: #181262"/>
    <path d="M 275.617088 115.90251 
L 275.411673 104.162327 
L 284.395011 96.778713 
L 284.512691 108.37677 
z
" clip-path="url(#p83da661ee5)" style="fill: #3326d0"/>
    <path d="M 275.617088 115.90251 
L 284.512691 108.37677 
L 299.278803 112.688375 
L 290.561502 120.37439 
z
" clip-path="url(#p83da661ee5)" style="fill: #1f177d"/>
    <path d="M 299.278803 112.688375 
L 299.296995 103.027456 
L 314.496844 107.362365 
L 314.35815 117.091443 
z
" clip-path="url(#p83da661ee5)" style="fill: #621911"/>
    <path d="M 290.561502 120.37439 
L 290.509936 110.594967 
L 299.296995 103.027456 
L 299.278803 112.688375 
z
" clip-path="url(#p83da661ee5)" style="fill: #d13624"/>
    <path d="M 275.411673 104.162327 
L 290.499158 108.550965 
L 299.300797 101.00858 
L 284.395011 96.778713 
z
" clip-path="url(#p83da661ee5)" style="fill: #2c21b4"/>
    <path d="M 290.561502 120.37439 
L 299.278803 112.688375 
L 299.300797 101.00858 
L 290.499158 108.550965 
z
" clip-path="url(#p83da661ee5)" style="fill: #181262"/>
    <path d="M 290.561502 120.37439 
L 299.278803 112.688375 
L 314.35815 117.091443 
L 305.828867 124.942908 
z
" clip-path="url(#p83da661ee5)" style="fill: #7e2016"/>
    <path d="M 275.617088 115.90251 
L 290.561502 120.37439 
L 290.499158 108.550965 
L 275.411673 104.162327 
z
" clip-path="url(#p83da661ee5)" style="fill: #3326d0"/>
    <path d="M 314.35815 117.091443 
L 314.460803 109.890546 
L 329.956501 114.337206 
L 329.760806 121.588914 
z
" clip-path="url(#p83da661ee5)" style="fill: #40280b"/>
    <path d="M 275.617088 115.90251 
L 275.291714 97.306261 
L 290.462744 101.645163 
L 290.561502 120.37439 
z
" clip-path="url(#p83da661ee5)" style="fill: #560932"/>
    <path d="M 266.389484 123.709123 
L 275.617088 115.90251 
L 290.561502 120.37439 
L 281.515312 128.350385 
z
" clip-path="url(#p83da661ee5)" style="fill: #6e0b3f"/>
    <path d="M 290.509936 110.594967 
L 305.900844 115.094095 
L 314.496844 107.362365 
L 299.296995 103.027456 
z
" clip-path="url(#p83da661ee5)" style="fill: #b52f20"/>
    <path d="M 305.828867 124.942908 
L 305.882138 117.653673 
L 314.460803 109.890546 
L 314.35815 117.091443 
z
" clip-path="url(#p83da661ee5)" style="fill: #885417"/>
    <path d="M 305.828867 124.942908 
L 314.35815 117.091443 
L 314.496844 107.362365 
L 305.900844 115.094095 
z
" clip-path="url(#p83da661ee5)" style="fill: #621911"/>
    <path d="M 266.389484 123.709123 
L 265.914699 104.881652 
L 275.291714 97.306261 
L 275.617088 115.90251 
z
" clip-path="url(#p83da661ee5)" style="fill: #b71269"/>
    <path d="M 305.828867 124.942908 
L 314.35815 117.091443 
L 329.760806 121.588914 
L 321.429765 129.611231 
z
" clip-path="url(#p83da661ee5)" style="fill: #52330e"/>
    <path d="M 290.561502 120.37439 
L 305.828867 124.942908 
L 305.900844 115.094095 
L 290.509936 110.594967 
z
" clip-path="url(#p83da661ee5)" style="fill: #d13624"/>
    <path d="M 290.561502 120.37439 
L 290.494405 107.64968 
L 305.922524 112.127575 
L 305.828867 124.942908 
z
" clip-path="url(#p83da661ee5)" style="fill: #0f290a"/>
    <path d="M 329.760806 121.588914 
L 329.941593 114.889641 
L 345.767755 119.437198 
L 345.497282 126.183859 
z
" clip-path="url(#p83da661ee5)" style="fill: #21504a"/>
    <path d="M 305.882138 117.653673 
L 321.578512 122.270285 
L 329.956501 114.337206 
L 314.460803 109.890546 
z
" clip-path="url(#p83da661ee5)" style="fill: #764914"/>
    <path d="M 281.515312 128.350385 
L 281.350482 115.468119 
L 290.494405 107.64968 
L 290.561502 120.37439 
z
" clip-path="url(#p83da661ee5)" style="fill: #215815"/>
    <path d="M 281.515312 128.350385 
L 290.561502 120.37439 
L 305.828867 124.942908 
L 296.974245 133.093858 
z
" clip-path="url(#p83da661ee5)" style="fill: #14350c"/>
    <path d="M 321.429765 129.611231 
L 321.567179 122.829577 
L 329.941593 114.889641 
L 329.760806 121.588914 
z
" clip-path="url(#p83da661ee5)" style="fill: #45a99c"/>
    <path d="M 321.429765 129.611231 
L 329.760806 121.588914 
L 329.956501 114.337206 
L 321.578512 122.270285 
z
" clip-path="url(#p83da661ee5)" style="fill: #40280b"/>
    <path d="M 281.515312 128.350385 
L 290.561502 120.37439 
L 290.462744 101.645163 
L 281.272679 109.387487 
z
" clip-path="url(#p83da661ee5)" style="fill: #560932"/>
    <path d="M 321.429765 129.611231 
L 329.760806 121.588914 
L 345.497282 126.183859 
L 337.375247 134.382665 
z
" clip-path="url(#p83da661ee5)" style="fill: #2a665e"/>
    <path d="M 305.828867 124.942908 
L 321.429765 129.611231 
L 321.578512 122.270285 
L 305.882138 117.653673 
z
" clip-path="url(#p83da661ee5)" style="fill: #885417"/>
    <path d="M 265.914699 104.881652 
L 281.272679 109.387487 
L 290.462744 101.645163 
L 275.291714 97.306261 
z
" clip-path="url(#p83da661ee5)" style="fill: #9f105b"/>
    <path d="M 305.828867 124.942908 
L 305.894492 115.963271 
L 321.613009 120.567753 
L 321.429765 129.611231 
z
" clip-path="url(#p83da661ee5)" style="fill: #231552"/>
    <path d="M 266.389484 123.709123 
L 281.515312 128.350385 
L 281.272679 109.387487 
L 265.914699 104.881652 
z
" clip-path="url(#p83da661ee5)" style="fill: #b71269"/>
    <path d="M 256.810942 131.812633 
L 266.389484 123.709123 
L 281.515312 128.350385 
L 272.121264 136.633085 
z
" clip-path="url(#p83da661ee5)" style="fill: #37604b"/>
    <path d="M 321.567179 122.829577 
L 337.604779 127.5528 
L 345.767755 119.437198 
L 329.941593 114.889641 
z
" clip-path="url(#p83da661ee5)" style="fill: #3c9388"/>
    <path d="M 296.974245 133.093858 
L 296.974245 124.003239 
L 305.894492 115.963271 
L 305.828867 124.942908 
z
" clip-path="url(#p83da661ee5)" style="fill: #4b2cae"/>
    <path d="M 281.350482 115.468119 
L 296.974245 120.119354 
L 305.922524 112.127575 
L 290.494405 107.64968 
z
" clip-path="url(#p83da661ee5)" style="fill: #1c4c12"/>
    <path d="M 296.974245 133.093858 
L 305.828867 124.942908 
L 305.922524 112.127575 
L 296.974245 120.119354 
z
" clip-path="url(#p83da661ee5)" style="fill: #0f290a"/>
    <path d="M 296.974245 133.093858 
L 305.828867 124.942908 
L 321.429765 129.611231 
L 312.777409 137.942956 
z
" clip-path="url(#p83da661ee5)" style="fill: #2d1b69"/>
    <path d="M 337.375247 134.382665 
L 345.497282 126.183859 
L 345.767755 119.437198 
L 337.604779 127.5528 
z
" clip-path="url(#p83da661ee5)" style="fill: #21504a"/>
    <path d="M 266.389484 123.709123 
L 265.455697 86.680079 
L 281.038035 91.048892 
L 281.515312 128.350385 
z
" clip-path="url(#p83da661ee5)" style="fill: #2b4b3a"/>
    <path d="M 281.515312 128.350385 
L 296.974245 133.093858 
L 296.974245 120.119354 
L 281.350482 115.468119 
z
" clip-path="url(#p83da661ee5)" style="fill: #215815"/>
    <path d="M 321.429765 129.611231 
L 337.375247 134.382665 
L 337.604779 127.5528 
L 321.567179 122.829577 
z
" clip-path="url(#p83da661ee5)" style="fill: #45a99c"/>
    <path d="M 321.429765 129.611231 
L 321.592136 121.597914 
L 337.646469 126.312289 
L 337.375247 134.382665 
z
" clip-path="url(#p83da661ee5)" style="fill: #663b48"/>
    <path d="M 256.810942 131.812633 
L 255.560668 94.309795 
L 265.455697 86.680079 
L 266.389484 123.709123 
z
" clip-path="url(#p83da661ee5)" style="fill: #5b9e7c"/>
    <path d="M 296.974245 124.003239 
L 312.898122 128.787392 
L 321.613009 120.567753 
L 305.894492 115.963271 
z
" clip-path="url(#p83da661ee5)" style="fill: #412697"/>
    <path d="M 272.121264 136.633085 
L 281.515312 128.350385 
L 296.974245 133.093858 
L 287.775309 141.561759 
z
" clip-path="url(#p83da661ee5)" style="fill: #5d114b"/>
    <path d="M 281.515312 128.350385 
L 281.200052 103.711354 
L 296.974245 108.275751 
L 296.974245 133.093858 
z
" clip-path="url(#p83da661ee5)" style="fill: #490d3b"/>
    <path d="M 312.777409 137.942956 
L 312.88437 129.830454 
L 321.592136 121.597914 
L 321.429765 129.611231 
z
" clip-path="url(#p83da661ee5)" style="fill: #d87d99"/>
    <path d="M 312.777409 137.942956 
L 321.429765 129.611231 
L 321.613009 120.567753 
L 312.898122 128.787392 
z
" clip-path="url(#p83da661ee5)" style="fill: #231552"/>
    <path d="M 312.777409 137.942956 
L 321.429765 129.611231 
L 337.375247 134.382665 
L 328.93643 142.901246 
z
" clip-path="url(#p83da661ee5)" style="fill: #824c5c"/>
    <path d="M 272.121264 136.633085 
L 271.60448 111.682701 
L 281.200052 103.711354 
L 281.515312 128.350385 
z
" clip-path="url(#p83da661ee5)" style="fill: #9b1c7c"/>
    <path d="M 296.974245 133.093858 
L 312.777409 137.942956 
L 312.898122 128.787392 
L 296.974245 124.003239 
z
" clip-path="url(#p83da661ee5)" style="fill: #4b2cae"/>
    <path d="M 296.974245 133.093858 
L 296.974245 121.198454 
L 312.935371 125.962258 
L 312.777409 137.942956 
z
" clip-path="url(#p83da661ee5)" style="fill: #195d5d"/>
    <path d="M 246.861052 140.230305 
L 256.810942 131.812633 
L 272.121264 136.633085 
L 262.358898 145.24053 
z
" clip-path="url(#p83da661ee5)" style="fill: #0b7f29"/>
    <path d="M 312.88437 129.830454 
L 329.155214 134.73072 
L 337.646469 126.312289 
L 321.592136 121.597914 
z
" clip-path="url(#p83da661ee5)" style="fill: #bb6d85"/>
    <path d="M 272.121264 136.633085 
L 281.515312 128.350385 
L 281.038035 91.048892 
L 271.338738 98.852613 
z
" clip-path="url(#p83da661ee5)" style="fill: #2b4b3a"/>
    <path d="M 287.775309 141.561759 
L 287.682596 129.518091 
L 296.974245 121.198454 
L 296.974245 133.093858 
z
" clip-path="url(#p83da661ee5)" style="fill: #35c4c4"/>
    <path d="M 287.775309 141.561759 
L 296.974245 133.093858 
L 312.777409 137.942956 
L 303.784783 146.60234 
z
" clip-path="url(#p83da661ee5)" style="fill: #207777"/>
    <path d="M 328.93643 142.901246 
L 337.375247 134.382665 
L 337.646469 126.312289 
L 329.155214 134.73072 
z
" clip-path="url(#p83da661ee5)" style="fill: #663b48"/>
    <path d="M 256.810942 131.812633 
L 272.121264 136.633085 
L 271.338738 98.852613 
L 255.560668 94.309795 
z
" clip-path="url(#p83da661ee5)" style="fill: #5b9e7c"/>
    <path d="M 287.775309 141.561759 
L 296.974245 133.093858 
L 296.974245 108.275751 
L 287.581837 116.42907 
z
" clip-path="url(#p83da661ee5)" style="fill: #490d3b"/>
    <path d="M 312.777409 137.942956 
L 328.93643 142.901246 
L 329.155214 134.73072 
L 312.88437 129.830454 
z
" clip-path="url(#p83da661ee5)" style="fill: #d87d99"/>
    <path d="M 312.777409 137.942956 
L 312.913485 127.622186 
L 329.214773 132.506442 
L 328.93643 142.901246 
z
" clip-path="url(#p83da661ee5)" style="fill: #454e48"/>
    <path d="M 262.358898 145.24053 
L 272.121264 136.633085 
L 287.775309 141.561759 
L 278.211576 150.365466 
z
" clip-path="url(#p83da661ee5)" style="fill: #2e254c"/>
    <path d="M 255.560668 94.309795 
L 271.338738 98.852613 
L 281.038035 91.048892 
L 265.455697 86.680079 
z
" clip-path="url(#p83da661ee5)" style="fill: #4f8a6b"/>
    <path d="M 272.121264 136.633085 
L 287.775309 141.561759 
L 287.581837 116.42907 
L 271.60448 111.682701 
z
" clip-path="url(#p83da661ee5)" style="fill: #9b1c7c"/>
    <path d="M 256.810942 131.812633 
L 255.057366 79.212898 
L 271.023576 83.636579 
L 272.121264 136.633085 
z
" clip-path="url(#p83da661ee5)" style="fill: #096320"/>
    <path d="M 271.60448 111.682701 
L 287.581837 116.42907 
L 296.974245 108.275751 
L 281.200052 103.711354 
z
" clip-path="url(#p83da661ee5)" style="fill: #86186c"/>
    <path d="M 303.784783 146.60234 
L 303.84459 136.152889 
L 312.913485 127.622186 
L 312.777409 137.942956 
z
" clip-path="url(#p83da661ee5)" style="fill: #91a59a"/>
    <path d="M 287.682596 129.518091 
L 303.854211 134.471935 
L 312.935371 125.962258 
L 296.974245 121.198454 
z
" clip-path="url(#p83da661ee5)" style="fill: #2eaaaa"/>
    <path d="M 303.784783 146.60234 
L 312.777409 137.942956 
L 312.935371 125.962258 
L 303.854211 134.471935 
z
" clip-path="url(#p83da661ee5)" style="fill: #195d5d"/>
    <path d="M 303.784783 146.60234 
L 312.777409 137.942956 
L 328.93643 142.901246 
L 320.161932 151.758683 
z
" clip-path="url(#p83da661ee5)" style="fill: #58635d"/>
    <path d="M 246.861052 140.230305 
L 244.62875 86.940508 
L 255.057366 79.212898 
L 256.810942 131.812633 
z
" clip-path="url(#p83da661ee5)" style="fill: #13d243"/>
    <path d="M 272.121264 136.633085 
L 271.347399 99.27081 
L 287.485558 103.922118 
L 287.775309 141.561759 
z
" clip-path="url(#p83da661ee5)" style="fill: #241d3b"/>
    <path d="M 287.775309 141.561759 
L 303.784783 146.60234 
L 303.854211 134.471935 
L 287.682596 129.518091 
z
" clip-path="url(#p83da661ee5)" style="fill: #35c4c4"/>
    <path d="M 287.775309 141.561759 
L 287.647553 124.965875 
L 303.880457 129.886212 
L 303.784783 146.60234 
z
" clip-path="url(#p83da661ee5)" style="fill: #0d1034"/>
    <path d="M 262.358898 145.24053 
L 261.259256 107.395983 
L 271.347399 99.27081 
L 272.121264 136.633085 
z
" clip-path="url(#p83da661ee5)" style="fill: #4d3e7d"/>
    <path d="M 278.211576 150.365466 
L 287.775309 141.561759 
L 303.784783 146.60234 
L 294.431414 155.6091 
z
" clip-path="url(#p83da661ee5)" style="fill: #111443"/>
    <path d="M 303.84459 136.152889 
L 320.367914 141.23398 
L 329.214773 132.506442 
L 312.913485 127.622186 
z
" clip-path="url(#p83da661ee5)" style="fill: #7e8f85"/>
    <path d="M 278.211576 150.365466 
L 277.94576 133.56058 
L 287.647553 124.965875 
L 287.775309 141.561759 
z
" clip-path="url(#p83da661ee5)" style="fill: #1c216f"/>
    <path d="M 320.161932 151.758683 
L 328.93643 142.901246 
L 329.214773 132.506442 
L 320.367914 141.23398 
z
" clip-path="url(#p83da661ee5)" style="fill: #454e48"/>
    <path d="M 262.358898 145.24053 
L 272.121264 136.633085 
L 271.023576 83.636579 
L 260.798712 91.546223 
z
" clip-path="url(#p83da661ee5)" style="fill: #096320"/>
    <path d="M 303.784783 146.60234 
L 320.161932 151.758683 
L 320.367914 141.23398 
L 303.84459 136.152889 
z
" clip-path="url(#p83da661ee5)" style="fill: #91a59a"/>
    <path d="M 303.784783 146.60234 
L 303.865957 132.419627 
L 320.441515 137.473318 
L 320.161932 151.758683 
z
" clip-path="url(#p83da661ee5)" style="fill: #196745"/>
    <path d="M 246.861052 140.230305 
L 262.358898 145.24053 
L 260.798712 91.546223 
L 244.62875 86.940508 
z
" clip-path="url(#p83da661ee5)" style="fill: #13d243"/>
    <path d="M 278.211576 150.365466 
L 287.775309 141.561759 
L 287.485558 103.922118 
L 277.608491 112.238488 
z
" clip-path="url(#p83da661ee5)" style="fill: #241d3b"/>
    <path d="M 294.431414 155.6091 
L 303.784783 146.60234 
L 320.161932 151.758683 
L 311.031316 160.975603 
z
" clip-path="url(#p83da661ee5)" style="fill: #218359"/>
    <path d="M 294.431414 155.6091 
L 294.400491 141.247984 
L 303.865957 132.419627 
L 303.784783 146.60234 
z
" clip-path="url(#p83da661ee5)" style="fill: #36da93"/>
    <path d="M 294.431414 155.6091 
L 303.784783 146.60234 
L 303.880457 129.886212 
L 294.394966 138.681978 
z
" clip-path="url(#p83da661ee5)" style="fill: #0d1034"/>
    <path d="M 277.94576 133.56058 
L 294.394966 138.681978 
L 303.880457 129.886212 
L 287.647553 124.965875 
z
" clip-path="url(#p83da661ee5)" style="fill: #191d60"/>
    <path d="M 262.358898 145.24053 
L 278.211576 150.365466 
L 277.608491 112.238488 
L 261.259256 107.395983 
z
" clip-path="url(#p83da661ee5)" style="fill: #4d3e7d"/>
    <path d="M 278.211576 150.365466 
L 294.431414 155.6091 
L 294.394966 138.681978 
L 277.94576 133.56058 
z
" clip-path="url(#p83da661ee5)" style="fill: #1c216f"/>
    <path d="M 261.259256 107.395983 
L 277.608491 112.238488 
L 287.485558 103.922118 
L 271.347399 99.27081 
z
" clip-path="url(#p83da661ee5)" style="fill: #43366d"/>
    <path d="M 244.62875 86.940508 
L 260.798712 91.546223 
L 271.023576 83.636579 
L 255.057366 79.212898 
z
" clip-path="url(#p83da661ee5)" style="fill: #10b63b"/>
    <path d="M 311.031316 160.975603 
L 320.161932 151.758683 
L 320.441515 137.473318 
L 311.20429 146.510196 
z
" clip-path="url(#p83da661ee5)" style="fill: #196745"/>
    <path d="M 294.400491 141.247984 
L 311.20429 146.510196 
L 320.441515 137.473318 
L 303.865957 132.419627 
z
" clip-path="url(#p83da661ee5)" style="fill: #2fbd80"/>
    <path d="M 294.431414 155.6091 
L 311.031316 160.975603 
L 311.20429 146.510196 
L 294.400491 141.247984 
z
" clip-path="url(#p83da661ee5)" style="fill: #36da93"/>
   </g>
  </g>
  <g id="patch_10">
   <path d="M 387.105882 174.727059 
L 518.4 174.727059 
L 518.4 43.432941 
L 387.105882 43.432941 
z
" style="fill: #ffffff"/>
  </g>
  <g id="pane3d_7">
   <g id="patch_11">
    <path d="M 397.019494 142.354137 
L 440.377099 106.010932 
L 439.774387 53.597534 
L 394.341896 86.752097 
" style="fill: #f2f2f2; opacity: 0.5; stroke: #f2f2f2; stroke-linejoin: miter"/>
   </g>
  </g>
  <g id="pane3d_8">
   <g id="patch_12">
    <path d="M 440.377099 106.010932 
L 509.950586 126.233198 
L 512.433418 72.014481 
L 439.774387 53.597534 
" style="fill: #e6e6e6; opacity: 0.5; stroke: #e6e6e6; stroke-linejoin: miter"/>
   </g>
  </g>
  <g id="pane3d_9">
   <g id="patch_13">
    <path d="M 397.019494 142.354137 
L 470.770788 166.44131 
L 509.950586 126.233198 
L 440.377099 106.010932 
" style="fill: #ececec; opacity: 0.5; stroke: #ececec; stroke-linejoin: miter"/>
   </g>
  </g>
  <g id="grid3d_7">
   <g id="Line3DCollection_7">
    <path d="M 401.486259 143.812983 
L 444.608346 107.240789 
L 444.184534 54.715378 
" style="fill: none; stroke: #b0b0b0; stroke-width: 0.8"/>
    <path d="M 432.922987 154.080218 
L 474.323502 115.877812 
L 475.18797 62.573845 
" style="fill: none; stroke: #b0b0b0; stroke-width: 0.8"/>
   </g>
  </g>
  <g id="grid3d_8">
   <g id="Line3DCollection_8">
    <path d="M 397.483666 84.459376 
L 400.007199 139.849783 
L 473.481727 163.659219 
" style="fill: none; stroke: #b0b0b0; stroke-width: 0.8"/>
    <path d="M 407.979988 76.799639 
L 410.000179 131.473469 
L 482.537009 154.366272 
" style="fill: none; stroke: #b0b0b0; stroke-width: 0.8"/>
    <path d="M 418.06877 69.437305 
L 419.621689 123.408529 
L 491.238266 145.436641 
" style="fill: none; stroke: #b0b0b0; stroke-width: 0.8"/>
    <path d="M 427.773295 62.355385 
L 428.892063 115.637918 
L 499.605861 136.849431 
" style="fill: none; stroke: #b0b0b0; stroke-width: 0.8"/>
   </g>
  </g>
  <g id="grid3d_9">
   <g id="Line3DCollection_9">
    <path d="M 509.998154 125.194428 
L 440.365528 105.004668 
L 396.968279 141.290624 
" style="fill: none; stroke: #b0b0b0; stroke-width: 0.8"/>
    <path d="M 510.713041 109.583128 
L 440.191741 89.891705 
L 396.198189 125.299203 
" style="fill: none; stroke: #b0b0b0; stroke-width: 0.8"/>
    <path d="M 511.446595 93.564191 
L 440.013636 74.403212 
L 395.407213 108.874077 
" style="fill: none; stroke: #b0b0b0; stroke-width: 0.8"/>
    <path d="M 512.199556 77.121439 
L 439.831049 58.525014 
L 394.59449 91.997357 
" style="fill: none; stroke: #b0b0b0; stroke-width: 0.8"/>
   </g>
  </g>
  <g id="axis3d_7">
   <g id="line2d_39">
    <path d="M 397.019494 142.354137 
L 470.770788 166.44131 
" style="fill: none; stroke: #000000; stroke-width: 0.8; stroke-linecap: square"/>
   </g>
   <g id="xtick_33">
    <g id="line2d_40">
     <path d="M 401.861764 143.494514 
L 400.733638 144.451286 
" style="fill: none; stroke: #000000; stroke-width: 0.8; stroke-linecap: square"/>
    </g>
    <g id="text_41">
     <!-- 0.05 -->
     <g transform="translate(382.795548 167.18233) scale(0.1 -0.1)">
      <use xlink:href="#DejaVuSans-30"/>
      <use xlink:href="#DejaVuSans-2e" x="63.623047"/>
      <use xlink:href="#DejaVuSans-30" x="95.410156"/>
      <use xlink:href="#DejaVuSans-35" x="159.033203"/>
     </g>
    </g>
   </g>
   <g id="xtick_34">
    <g id="line2d_41">
     <path d="M 433.284174 153.746932 
L 432.199027 154.748253 
" style="fill: none; stroke: #000000; stroke-width: 0.8; stroke-linecap: square"/>
    </g>
    <g id="text_42">
     <!-- 0.1 -->
     <g transform="translate(417.481564 177.894679) scale(0.1 -0.1)">
      <use xlink:href="#DejaVuSans-30"/>
      <use xlink:href="#DejaVuSans-2e" x="63.623047"/>
      <use xlink:href="#DejaVuSans-31" x="95.410156"/>
     </g>
    </g>
   </g>
   <g id="text_43">
    <!-- support -->
    <g transform="translate(397.386452 186.318757) rotate(-341.912962) scale(0.1 -0.1)">
     <use xlink:href="#DejaVuSans-73"/>
     <use xlink:href="#DejaVuSans-75" x="52.099609"/>
     <use xlink:href="#DejaVuSans-70" x="115.478516"/>
     <use xlink:href="#DejaVuSans-70" x="178.955078"/>
     <use xlink:href="#DejaVuSans-6f" x="242.431641"/>
     <use xlink:href="#DejaVuSans-72" x="303.613281"/>
     <use xlink:href="#DejaVuSans-74" x="344.726562"/>
    </g>
   </g>
  </g>
  <g id="axis3d_8">
   <g id="line2d_42">
    <path d="M 509.950586 126.233198 
L 470.770788 166.44131 
" style="fill: none; stroke: #000000; stroke-width: 0.8; stroke-linecap: square"/>
   </g>
   <g id="xtick_35">
    <g id="line2d_43">
     <path d="M 472.862555 163.458577 
L 474.721672 164.061024 
" style="fill: none; stroke: #000000; stroke-width: 0.8; stroke-linecap: square"/>
    </g>
    <g id="text_44">
     <!-- 1000 -->
     <g transform="translate(473.645285 184.689208) scale(0.1 -0.1)">
      <use xlink:href="#DejaVuSans-31"/>
      <use xlink:href="#DejaVuSans-30" x="63.623047"/>
      <use xlink:href="#DejaVuSans-30" x="127.246094"/>
      <use xlink:href="#DejaVuSans-30" x="190.869141"/>
     </g>
    </g>
   </g>
   <g id="xtick_36">
    <g id="line2d_44">
     <path d="M 481.926357 154.173548 
L 483.759863 154.752207 
" style="fill: none; stroke: #000000; stroke-width: 0.8; stroke-linecap: square"/>
    </g>
    <g id="text_45">
     <!-- 2000 -->
     <g transform="translate(482.45407 175.117086) scale(0.1 -0.1)">
      <use xlink:href="#DejaVuSans-32"/>
      <use xlink:href="#DejaVuSans-30" x="63.623047"/>
      <use xlink:href="#DejaVuSans-30" x="127.246094"/>
      <use xlink:href="#DejaVuSans-30" x="190.869141"/>
     </g>
    </g>
   </g>
   <g id="xtick_37">
    <g id="line2d_45">
     <path d="M 490.635946 145.251378 
L 492.444403 145.80763 
" style="fill: none; stroke: #000000; stroke-width: 0.8; stroke-linecap: square"/>
    </g>
    <g id="text_46">
     <!-- 5000 -->
     <g transform="translate(490.918064 165.919634) scale(0.1 -0.1)">
      <use xlink:href="#DejaVuSans-35"/>
      <use xlink:href="#DejaVuSans-30" x="63.623047"/>
      <use xlink:href="#DejaVuSans-30" x="127.246094"/>
      <use xlink:href="#DejaVuSans-30" x="190.869141"/>
     </g>
    </g>
   </g>
   <g id="xtick_38">
    <g id="line2d_46">
     <path d="M 499.01169 136.671202 
L 500.795651 137.206324 
" style="fill: none; stroke: #000000; stroke-width: 0.8; stroke-linecap: square"/>
    </g>
    <g id="text_47">
     <!-- 10000 -->
     <g transform="translate(495.875873 157.075275) scale(0.1 -0.1)">
      <use xlink:href="#DejaVuSans-31"/>
      <use xlink:href="#DejaVuSans-30" x="63.623047"/>
      <use xlink:href="#DejaVuSans-30" x="127.246094"/>
      <use xlink:href="#DejaVuSans-30" x="190.869141"/>
      <use xlink:href="#DejaVuSans-30" x="254.492188"/>
     </g>
    </g>
   </g>
   <g id="text_48">
    <!-- window -->
    <g transform="translate(506.979859 188.99679) rotate(-45.742112) scale(0.1 -0.1)">
     <use xlink:href="#DejaVuSans-77"/>
     <use xlink:href="#DejaVuSans-69" x="81.787109"/>
     <use xlink:href="#DejaVuSans-6e" x="109.570312"/>
     <use xlink:href="#DejaVuSans-64" x="172.949219"/>
     <use xlink:href="#DejaVuSans-6f" x="236.425781"/>
     <use xlink:href="#DejaVuSans-77" x="297.607422"/>
    </g>
   </g>
  </g>
  <g id="axis3d_9">
   <g id="line2d_47">
    <path d="M 509.950586 126.233198 
L 512.433418 72.014481 
" style="fill: none; stroke: #000000; stroke-width: 0.8; stroke-linecap: square"/>
   </g>
   <g id="xtick_39">
    <g id="line2d_48">
     <path d="M 509.413721 125.024973 
L 511.168411 125.53374 
" style="fill: none; stroke: #000000; stroke-width: 0.8; stroke-linecap: square"/>
    </g>
    <g id="text_49">
     <!-- $10^{0.0}$ -->
     <g transform="translate(516.056015 130.199946) scale(0.1 -0.1)">
      <use xlink:href="#DejaVuSans-31" transform="translate(0 0.765625)"/>
      <use xlink:href="#DejaVuSans-30" transform="translate(63.623047 0.765625)"/>
      <use xlink:href="#DejaVuSans-30" transform="translate(128.203125 39.046875) scale(0.7)"/>
      <use xlink:href="#DejaVuSans-2e" transform="translate(172.739258 39.046875) scale(0.7)"/>
      <use xlink:href="#DejaVuSans-30" transform="translate(194.990234 39.046875) scale(0.7)"/>
     </g>
    </g>
   </g>
   <g id="xtick_40">
    <g id="line2d_49">
     <path d="M 510.120792 109.417756 
L 511.898967 109.91427 
" style="fill: none; stroke: #000000; stroke-width: 0.8; stroke-linecap: square"/>
    </g>
    <g id="text_50">
     <!-- $10^{1.0}$ -->
     <g transform="translate(516.999726 114.651306) scale(0.1 -0.1)">
      <use xlink:href="#DejaVuSans-31" transform="translate(0 0.765625)"/>
      <use xlink:href="#DejaVuSans-30" transform="translate(63.623047 0.765625)"/>
      <use xlink:href="#DejaVuSans-31" transform="translate(128.203125 39.046875) scale(0.7)"/>
      <use xlink:href="#DejaVuSans-2e" transform="translate(172.739258 39.046875) scale(0.7)"/>
      <use xlink:href="#DejaVuSans-30" transform="translate(194.990234 39.046875) scale(0.7)"/>
     </g>
    </g>
   </g>
   <g id="xtick_41">
    <g id="line2d_50">
     <path d="M 510.846318 93.403175 
L 512.648613 93.886617 
" style="fill: none; stroke: #000000; stroke-width: 0.8; stroke-linecap: square"/>
    </g>
    <g id="text_51">
     <!-- $10^{2.0}$ -->
     <g transform="translate(517.967926 98.699189) scale(0.1 -0.1)">
      <use xlink:href="#DejaVuSans-31" transform="translate(0 0.765625)"/>
      <use xlink:href="#DejaVuSans-30" transform="translate(63.623047 0.765625)"/>
      <use xlink:href="#DejaVuSans-32" transform="translate(128.203125 39.046875) scale(0.7)"/>
      <use xlink:href="#DejaVuSans-2e" transform="translate(172.739258 39.046875) scale(0.7)"/>
      <use xlink:href="#DejaVuSans-30" transform="translate(194.990234 39.046875) scale(0.7)"/>
     </g>
    </g>
   </g>
   <g id="xtick_42">
    <g id="line2d_51">
     <path d="M 511.591032 76.965068 
L 513.41811 77.434569 
" style="fill: none; stroke: #000000; stroke-width: 0.8; stroke-linecap: square"/>
    </g>
    <g id="text_52">
     <!-- $10^{3.0}$ -->
     <g transform="translate(518.961579 82.327687) scale(0.1 -0.1)">
      <use xlink:href="#DejaVuSans-31" transform="translate(0 0.765625)"/>
      <use xlink:href="#DejaVuSans-30" transform="translate(63.623047 0.765625)"/>
      <use xlink:href="#DejaVuSans-33" transform="translate(128.203125 39.046875) scale(0.7)"/>
      <use xlink:href="#DejaVuSans-2e" transform="translate(172.739258 39.046875) scale(0.7)"/>
      <use xlink:href="#DejaVuSans-30" transform="translate(194.990234 39.046875) scale(0.7)"/>
     </g>
    </g>
   </g>
   <g id="text_53">
    <!-- elapsed -->
    <g transform="translate(553.129074 114.01016) rotate(-87.378092) scale(0.1 -0.1)">
     <use xlink:href="#DejaVuSans-65"/>
     <use xlink:href="#DejaVuSans-6c" x="61.523438"/>
     <use xlink:href="#DejaVuSans-61" x="89.306641"/>
     <use xlink:href="#DejaVuSans-70" x="150.585938"/>
     <use xlink:href="#DejaVuSans-73" x="214.0625"/>
     <use xlink:href="#DejaVuSans-65" x="266.162109"/>
     <use xlink:href="#DejaVuSans-64" x="327.685547"/>
    </g>
   </g>
  </g>
  <g id="axes_3">
   <g id="Poly3DCollection_5">
    <path d="M 433.170029 115.90251 
L 463.381808 124.942908 
L 471.911091 117.091443 
L 442.065632 108.37677 
z
" clip-path="url(#pfeba245ff1)" style="fill: #c30000"/>
    <path d="M 423.942426 123.709123 
L 454.527186 133.093858 
L 463.381808 124.942908 
L 433.170029 115.90251 
z
" clip-path="url(#pfeba245ff1)" style="fill: #c30000"/>
    <path d="M 463.381808 124.942908 
L 494.928188 134.382665 
L 503.050223 126.183859 
L 471.911091 117.091443 
z
" clip-path="url(#pfeba245ff1)" style="fill: #c30000"/>
    <path d="M 414.363883 131.812633 
L 445.32825 141.561759 
L 454.527186 133.093858 
L 423.942426 123.709123 
z
" clip-path="url(#pfeba245ff1)" style="fill: #c30000"/>
    <path d="M 454.527186 133.093858 
L 486.489372 142.901246 
L 494.928188 134.382665 
L 463.381808 124.942908 
z
" clip-path="url(#pfeba245ff1)" style="fill: #c30000"/>
    <path d="M 404.413993 140.230305 
L 435.764518 150.365466 
L 445.32825 141.561759 
L 414.363883 131.812633 
z
" clip-path="url(#pfeba245ff1)" style="fill: #c30000"/>
    <path d="M 445.32825 141.561759 
L 477.714873 151.758683 
L 486.489372 142.901246 
L 454.527186 133.093858 
z
" clip-path="url(#pfeba245ff1)" style="fill: #c30000"/>
    <path d="M 435.764518 150.365466 
L 468.584257 160.975603 
L 477.714873 151.758683 
L 445.32825 141.561759 
z
" clip-path="url(#pfeba245ff1)" style="fill: #c30000"/>
   </g>
   <g id="text_54">
    <!-- stream -->
    <g transform="translate(431.730441 37.432941) scale(0.12 -0.12)">
     <defs>
      <path id="DejaVuSans-6d" d="M 3328 2828 
Q 3544 3216 3844 3400 
Q 4144 3584 4550 3584 
Q 5097 3584 5394 3201 
Q 5691 2819 5691 2113 
L 5691 0 
L 5113 0 
L 5113 2094 
Q 5113 2597 4934 2840 
Q 4756 3084 4391 3084 
Q 3944 3084 3684 2787 
Q 3425 2491 3425 1978 
L 3425 0 
L 2847 0 
L 2847 2094 
Q 2847 2600 2669 2842 
Q 2491 3084 2119 3084 
Q 1678 3084 1418 2786 
Q 1159 2488 1159 1978 
L 1159 0 
L 581 0 
L 581 3500 
L 1159 3500 
L 1159 2956 
Q 1356 3278 1631 3431 
Q 1906 3584 2284 3584 
Q 2666 3584 2933 3390 
Q 3200 3197 3328 2828 
z
" transform="scale(0.015625)"/>
     </defs>
     <use xlink:href="#DejaVuSans-73"/>
     <use xlink:href="#DejaVuSans-74" x="52.099609"/>
     <use xlink:href="#DejaVuSans-72" x="91.308594"/>
     <use xlink:href="#DejaVuSans-65" x="130.171875"/>
     <use xlink:href="#DejaVuSans-61" x="191.695312"/>
     <use xlink:href="#DejaVuSans-6d" x="252.974609"/>
    </g>
   </g>
   <g id="Poly3DCollection_6">
    <path d="M 433.170029 115.90251 
L 442.065632 108.37677 
L 471.911091 117.091443 
L 463.381808 124.942908 
z
" clip-path="url(#pfeba245ff1)" style="fill: #20692e"/>
    <path d="M 433.170029 115.90251 
L 432.406596 72.269653 
L 441.628476 65.292376 
L 442.065632 108.37677 
z
" clip-path="url(#pfeba245ff1)" style="fill: #36ad4d"/>
    <path d="M 442.065632 108.37677 
L 441.628476 65.292376 
L 472.534326 73.372759 
L 471.911091 117.091443 
z
" clip-path="url(#pfeba245ff1)" style="fill: #195224"/>
    <path d="M 423.942426 123.709123 
L 433.170029 115.90251 
L 463.381808 124.942908 
L 454.527186 133.093858 
z
" clip-path="url(#pfeba245ff1)" style="fill: #1e3e77"/>
    <path d="M 463.381808 124.942908 
L 471.911091 117.091443 
L 503.050223 126.183859 
L 494.928188 134.382665 
z
" clip-path="url(#pfeba245ff1)" style="fill: #6a6e3c"/>
    <path d="M 423.942426 123.709123 
L 422.87384 81.334662 
L 432.43798 74.063332 
L 433.170029 115.90251 
z
" clip-path="url(#pfeba245ff1)" style="fill: #3266c4"/>
    <path d="M 433.170029 115.90251 
L 432.43798 74.063332 
L 463.692102 82.484702 
L 463.381808 124.942908 
z
" clip-path="url(#pfeba245ff1)" style="fill: #18305d"/>
    <path d="M 433.170029 115.90251 
L 463.381808 124.942908 
L 463.705415 80.663077 
L 432.406596 72.269653 
z
" clip-path="url(#pfeba245ff1)" style="fill: #36ad4d"/>
    <path d="M 463.381808 124.942908 
L 463.690118 82.756241 
L 472.504883 75.438076 
L 471.911091 117.091443 
z
" clip-path="url(#pfeba245ff1)" style="fill: #afb563"/>
    <path d="M 463.381808 124.942908 
L 471.911091 117.091443 
L 472.534326 73.372759 
L 463.705415 80.663077 
z
" clip-path="url(#pfeba245ff1)" style="fill: #195224"/>
    <path d="M 471.911091 117.091443 
L 472.504883 75.438076 
L 504.744829 83.913758 
L 503.050223 126.183859 
z
" clip-path="url(#pfeba245ff1)" style="fill: #53562f"/>
    <path d="M 432.406596 72.269653 
L 463.705415 80.663077 
L 472.534326 73.372759 
L 441.628476 65.292376 
z
" clip-path="url(#pfeba245ff1)" style="fill: #2e9643"/>
    <path d="M 414.363883 131.812633 
L 423.942426 123.709123 
L 454.527186 133.093858 
L 445.32825 141.561759 
z
" clip-path="url(#pfeba245ff1)" style="fill: #7e2057"/>
    <path d="M 454.527186 133.093858 
L 463.381808 124.942908 
L 494.928188 134.382665 
L 486.489372 142.901246 
z
" clip-path="url(#pfeba245ff1)" style="fill: #80886d"/>
    <path d="M 423.942426 123.709123 
L 454.527186 133.093858 
L 454.527186 90.088236 
L 422.87384 81.334662 
z
" clip-path="url(#pfeba245ff1)" style="fill: #3266c4"/>
    <path d="M 454.527186 133.093858 
L 454.527186 93.480914 
L 463.667638 85.832133 
L 463.381808 124.942908 
z
" clip-path="url(#pfeba245ff1)" style="fill: #d4e1b4"/>
    <path d="M 454.527186 133.093858 
L 463.381808 124.942908 
L 463.692102 82.484702 
L 454.527186 90.088236 
z
" clip-path="url(#pfeba245ff1)" style="fill: #18305d"/>
    <path d="M 463.381808 124.942908 
L 463.667638 85.832133 
L 496.262104 94.691183 
L 494.928188 134.382665 
z
" clip-path="url(#pfeba245ff1)" style="fill: #646a55"/>
    <path d="M 414.363883 131.812633 
L 412.610307 79.212898 
L 422.633045 71.786044 
L 423.942426 123.709123 
z
" clip-path="url(#pfeba245ff1)" style="fill: #d03690"/>
    <path d="M 463.381808 124.942908 
L 494.928188 134.382665 
L 496.367092 91.567219 
L 463.690118 82.756241 
z
" clip-path="url(#pfeba245ff1)" style="fill: #afb563"/>
    <path d="M 423.942426 123.709123 
L 422.633045 71.786044 
L 454.527186 80.388247 
L 454.527186 133.093858 
z
" clip-path="url(#pfeba245ff1)" style="fill: #621944"/>
    <path d="M 494.928188 134.382665 
L 503.050223 126.183859 
L 504.744829 83.913758 
L 496.367092 91.567219 
z
" clip-path="url(#pfeba245ff1)" style="fill: #53562f"/>
    <path d="M 422.87384 81.334662 
L 454.527186 90.088236 
L 463.692102 82.484702 
L 432.43798 74.063332 
z
" clip-path="url(#pfeba245ff1)" style="fill: #2b58ab"/>
    <path d="M 463.690118 82.756241 
L 496.367092 91.567219 
L 504.744829 83.913758 
L 472.504883 75.438076 
z
" clip-path="url(#pfeba245ff1)" style="fill: #989d56"/>
    <path d="M 445.32825 141.561759 
L 454.527186 133.093858 
L 486.489372 142.901246 
L 477.714873 151.758683 
z
" clip-path="url(#pfeba245ff1)" style="fill: #093b64"/>
    <path d="M 445.32825 141.561759 
L 445.005138 99.588262 
L 454.527186 91.656869 
L 454.527186 133.093858 
z
" clip-path="url(#pfeba245ff1)" style="fill: #1062a5"/>
    <path d="M 454.527186 133.093858 
L 486.489372 142.901246 
L 487.565937 102.696584 
L 454.527186 93.480914 
z
" clip-path="url(#pfeba245ff1)" style="fill: #d4e1b4"/>
    <path d="M 454.527186 133.093858 
L 454.527186 91.656869 
L 487.615548 100.843856 
L 486.489372 142.901246 
z
" clip-path="url(#pfeba245ff1)" style="fill: #072e4e"/>
    <path d="M 486.489372 142.901246 
L 494.928188 134.382665 
L 496.262104 94.691183 
L 487.565937 102.696584 
z
" clip-path="url(#pfeba245ff1)" style="fill: #646a55"/>
    <path d="M 414.363883 131.812633 
L 445.32825 141.561759 
L 444.917194 88.164011 
L 412.610307 79.212898 
z
" clip-path="url(#pfeba245ff1)" style="fill: #d03690"/>
    <path d="M 445.32825 141.561759 
L 454.527186 133.093858 
L 454.527186 80.388247 
L 444.917194 88.164011 
z
" clip-path="url(#pfeba245ff1)" style="fill: #621944"/>
    <path d="M 454.527186 93.480914 
L 487.565937 102.696584 
L 496.262104 94.691183 
L 463.667638 85.832133 
z
" clip-path="url(#pfeba245ff1)" style="fill: #b8c39c"/>
    <path d="M 435.764518 150.365466 
L 445.32825 141.561759 
L 477.714873 151.758683 
L 468.584257 160.975603 
z
" clip-path="url(#pfeba245ff1)" style="fill: #75793d"/>
    <path d="M 412.610307 79.212898 
L 444.917194 88.164011 
L 454.527186 80.388247 
L 422.633045 71.786044 
z
" clip-path="url(#pfeba245ff1)" style="fill: #b52f7d"/>
    <path d="M 445.32825 141.561759 
L 477.714873 151.758683 
L 478.548717 109.153244 
L 445.005138 99.588262 
z
" clip-path="url(#pfeba245ff1)" style="fill: #1062a5"/>
    <path d="M 477.714873 151.758683 
L 486.489372 142.901246 
L 487.615548 100.843856 
L 478.548717 109.153244 
z
" clip-path="url(#pfeba245ff1)" style="fill: #072e4e"/>
    <path d="M 435.764518 150.365466 
L 434.914755 96.643619 
L 444.920089 88.540127 
L 445.32825 141.561759 
z
" clip-path="url(#pfeba245ff1)" style="fill: #c2c866"/>
    <path d="M 445.32825 141.561759 
L 444.920089 88.540127 
L 478.768423 97.927333 
L 477.714873 151.758683 
z
" clip-path="url(#pfeba245ff1)" style="fill: #5c5e30"/>
    <path d="M 445.005138 99.588262 
L 478.548717 109.153244 
L 487.615548 100.843856 
L 454.527186 91.656869 
z
" clip-path="url(#pfeba245ff1)" style="fill: #0e5590"/>
    <path d="M 435.764518 150.365466 
L 468.584257 160.975603 
L 469.236513 106.428848 
L 434.914755 96.643619 
z
" clip-path="url(#pfeba245ff1)" style="fill: #c2c866"/>
    <path d="M 468.584257 160.975603 
L 477.714873 151.758683 
L 478.768423 97.927333 
L 469.236513 106.428848 
z
" clip-path="url(#pfeba245ff1)" style="fill: #5c5e30"/>
    <path d="M 434.914755 96.643619 
L 469.236513 106.428848 
L 478.768423 97.927333 
L 444.920089 88.540127 
z
" clip-path="url(#pfeba245ff1)" style="fill: #a8ae58"/>
   </g>
  </g>
 </g>
 <defs>
  <clipPath id="p29fb8e829d">
   <rect x="72" y="43.432941" width="131.294118" height="131.294118"/>
  </clipPath>
  <clipPath id="p83da661ee5">
   <rect x="229.552941" y="43.432941" width="131.294118" height="131.294118"/>
  </clipPath>
  <clipPath id="pfeba245ff1">
   <rect x="387.105882" y="43.432941" width="131.294118" height="131.294118"/>
  </clipPath>
 </defs>
</svg>
