<?xml version="1.0" encoding="utf-8" standalone="no"?>
<!DOCTYPE svg PUBLIC "-//W3C//DTD SVG 1.1//EN"
  "http://www.w3.org/Graphics/SVG/1.1/DTD/svg11.dtd">
<svg xmlns:xlink="http://www.w3.org/1999/xlink" width="576pt" height="216pt" viewBox="0 0 576 216" xmlns="http://www.w3.org/2000/svg" version="1.1">
 <metadata>
  <rdf:RDF xmlns:dc="http://purl.org/dc/elements/1.1/" xmlns:cc="http://creativecommons.org/ns#" xmlns:rdf="http://www.w3.org/1999/02/22-rdf-syntax-ns#">
   <cc:Work>
    <dc:type rdf:resource="http://purl.org/dc/dcmitype/StillImage"/>
    <dc:date>2025-08-10T12:53:18.775397</dc:date>
    <dc:format>image/svg+xml</dc:format>
    <dc:creator>
     <cc:Agent>
      <dc:title>Matplotlib v3.9.0, https://matplotlib.org/</dc:title>
     </cc:Agent>
    </dc:creator>
   </cc:Work>
  </rdf:RDF>
 </metadata>
 <defs>
  <style type="text/css">*{stroke-linejoin: round; stroke-linecap: butt}</style>
 </defs>
 <g id="figure_1">
  <g id="patch_1">
   <path d="M 0 216 
L 576 216 
L 576 0 
L 0 0 
z
" style="fill: #ffffff"/>
  </g>
  <g id="patch_2">
   <path d="M 188.452174 157.601739 
L 285.495652 157.601739 
L 285.495652 60.558261 
L 188.452174 60.558261 
z
" style="fill: #ffffff"/>
  </g>
  <g id="pane3d_1">
   <g id="patch_3">
    <path d="M 195.779626 133.673927 
L 227.826552 106.811559 
L 227.381069 68.071221 
L 193.800532 92.576767 
" style="fill: #f2f2f2; opacity: 0.5; stroke: #f2f2f2; stroke-linejoin: miter"/>
   </g>
  </g>
  <g id="pane3d_2">
   <g id="patch_4">
    <path d="M 227.826552 106.811559 
L 279.250433 121.758451 
L 281.08557 81.683747 
L 227.381069 68.071221 
" style="fill: #e6e6e6; opacity: 0.5; stroke: #e6e6e6; stroke-linejoin: miter"/>
   </g>
  </g>
  <g id="pane3d_3">
   <g id="patch_5">
    <path d="M 195.779626 133.673927 
L 250.291452 151.47749 
L 279.250433 121.758451 
L 227.826552 106.811559 
" style="fill: #ececec; opacity: 0.5; stroke: #ececec; stroke-linejoin: miter"/>
   </g>
  </g>
  <g id="grid3d_1">
   <g id="Line3DCollection_1">
    <path d="M 199.081148 134.752205 
L 230.953995 107.720583 
L 230.640742 68.897453 
" style="fill: none; stroke: #b0b0b0; stroke-width: 0.8"/>
    <path d="M 210.566938 138.503464 
L 241.82113 110.87923 
L 241.973853 71.770066 
" style="fill: none; stroke: #b0b0b0; stroke-width: 0.8"/>
    <path d="M 222.31699 142.341031 
L 252.917371 114.104469 
L 253.556326 74.705886 
" style="fill: none; stroke: #b0b0b0; stroke-width: 0.8"/>
    <path d="M 234.340531 146.267919 
L 264.25004 117.398429 
L 265.396483 77.70702 
" style="fill: none; stroke: #b0b0b0; stroke-width: 0.8"/>
   </g>
  </g>
  <g id="grid3d_2">
   <g id="Line3DCollection_2">
    <path d="M 196.122709 90.882148 
L 197.98793 131.822883 
L 252.295189 149.421162 
" style="fill: none; stroke: #b0b0b0; stroke-width: 0.8"/>
    <path d="M 203.880861 85.220602 
L 205.374046 125.631695 
L 258.988224 142.552462 
" style="fill: none; stroke: #b0b0b0; stroke-width: 0.8"/>
    <path d="M 211.337787 79.778878 
L 212.485596 119.670652 
L 265.419588 135.9523 
" style="fill: none; stroke: #b0b0b0; stroke-width: 0.8"/>
    <path d="M 218.510696 74.544415 
L 219.337612 113.927157 
L 271.604332 129.605231 
" style="fill: none; stroke: #b0b0b0; stroke-width: 0.8"/>
   </g>
  </g>
  <g id="grid3d_3">
   <g id="Line3DCollection_3">
    <path d="M 279.250433 121.758451 
L 227.826552 106.811559 
L 195.779626 133.673927 
" style="fill: none; stroke: #b0b0b0; stroke-width: 0.8"/>
    <path d="M 280.147899 102.160078 
L 227.608455 87.845316 
L 194.812592 113.592842 
" style="fill: none; stroke: #b0b0b0; stroke-width: 0.8"/>
    <path d="M 281.08557 81.683747 
L 227.381069 68.071221 
L 193.800532 92.576767 
" style="fill: none; stroke: #b0b0b0; stroke-width: 0.8"/>
   </g>
  </g>
  <g id="axis3d_1">
   <g id="line2d_1">
    <path d="M 195.779626 133.673927 
L 250.291452 151.47749 
" style="fill: none; stroke: #000000; stroke-width: 0.8; stroke-linecap: square"/>
   </g>
   <g id="xtick_1">
    <g id="line2d_2">
     <path d="M 199.358695 134.516815 
L 198.524863 135.223994 
" style="fill: none; stroke: #000000; stroke-width: 0.8; stroke-linecap: square"/>
    </g>
    <g id="text_1">
     <!-- 0.005 -->
     <g transform="translate(177.188959 158.163762) scale(0.1 -0.1)">
      <defs>
       <path id="DejaVuSans-30" d="M 2034 4250 
Q 1547 4250 1301 3770 
Q 1056 3291 1056 2328 
Q 1056 1369 1301 889 
Q 1547 409 2034 409 
Q 2525 409 2770 889 
Q 3016 1369 3016 2328 
Q 3016 3291 2770 3770 
Q 2525 4250 2034 4250 
z
M 2034 4750 
Q 2819 4750 3233 4129 
Q 3647 3509 3647 2328 
Q 3647 1150 3233 529 
Q 2819 -91 2034 -91 
Q 1250 -91 836 529 
Q 422 1150 422 2328 
Q 422 3509 836 4129 
Q 1250 4750 2034 4750 
z
" transform="scale(0.015625)"/>
       <path id="DejaVuSans-2e" d="M 684 794 
L 1344 794 
L 1344 0 
L 684 0 
L 684 794 
z
" transform="scale(0.015625)"/>
       <path id="DejaVuSans-35" d="M 691 4666 
L 3169 4666 
L 3169 4134 
L 1269 4134 
L 1269 2991 
Q 1406 3038 1543 3061 
Q 1681 3084 1819 3084 
Q 2600 3084 3056 2656 
Q 3513 2228 3513 1497 
Q 3513 744 3044 326 
Q 2575 -91 1722 -91 
Q 1428 -91 1123 -41 
Q 819 9 494 109 
L 494 744 
Q 775 591 1075 516 
Q 1375 441 1709 441 
Q 2250 441 2565 725 
Q 2881 1009 2881 1497 
Q 2881 1984 2565 2268 
Q 2250 2553 1709 2553 
Q 1456 2553 1204 2497 
Q 953 2441 691 2322 
L 691 4666 
z
" transform="scale(0.015625)"/>
      </defs>
      <use xlink:href="#DejaVuSans-30"/>
      <use xlink:href="#DejaVuSans-2e" x="63.623047"/>
      <use xlink:href="#DejaVuSans-30" x="95.410156"/>
      <use xlink:href="#DejaVuSans-30" x="159.033203"/>
      <use xlink:href="#DejaVuSans-35" x="222.65625"/>
     </g>
    </g>
   </g>
   <g id="xtick_2">
    <g id="line2d_3">
     <path d="M 210.839349 138.262691 
L 210.020934 138.986054 
" style="fill: none; stroke: #000000; stroke-width: 0.8; stroke-linecap: square"/>
    </g>
    <g id="text_2">
     <!-- 0.01 -->
     <g transform="translate(191.888115 162.135661) scale(0.1 -0.1)">
      <defs>
       <path id="DejaVuSans-31" d="M 794 531 
L 1825 531 
L 1825 4091 
L 703 3866 
L 703 4441 
L 1819 4666 
L 2450 4666 
L 2450 531 
L 3481 531 
L 3481 0 
L 794 0 
L 794 531 
z
" transform="scale(0.015625)"/>
      </defs>
      <use xlink:href="#DejaVuSans-30"/>
      <use xlink:href="#DejaVuSans-2e" x="63.623047"/>
      <use xlink:href="#DejaVuSans-30" x="95.410156"/>
      <use xlink:href="#DejaVuSans-31" x="159.033203"/>
     </g>
    </g>
   </g>
   <g id="xtick_3">
    <g id="line2d_4">
     <path d="M 222.583955 142.094689 
L 221.78189 142.834796 
" style="fill: none; stroke: #000000; stroke-width: 0.8; stroke-linecap: square"/>
    </g>
    <g id="text_3">
     <!-- 0.05 -->
     <g transform="translate(203.673805 166.199903) scale(0.1 -0.1)">
      <use xlink:href="#DejaVuSans-30"/>
      <use xlink:href="#DejaVuSans-2e" x="63.623047"/>
      <use xlink:href="#DejaVuSans-30" x="95.410156"/>
      <use xlink:href="#DejaVuSans-35" x="159.033203"/>
     </g>
    </g>
   </g>
   <g id="xtick_4">
    <g id="line2d_5">
     <path d="M 234.60172 146.015812 
L 233.816993 146.773252 
" style="fill: none; stroke: #000000; stroke-width: 0.8; stroke-linecap: square"/>
    </g>
    <g id="text_4">
     <!-- 0.1 -->
     <g transform="translate(218.917976 170.359747) scale(0.1 -0.1)">
      <use xlink:href="#DejaVuSans-30"/>
      <use xlink:href="#DejaVuSans-2e" x="63.623047"/>
      <use xlink:href="#DejaVuSans-31" x="95.410156"/>
     </g>
    </g>
   </g>
   <g id="text_5">
    <!-- support -->
    <g transform="translate(186.681405 174.794019) rotate(-341.912962) scale(0.1 -0.1)">
     <defs>
      <path id="DejaVuSans-73" d="M 2834 3397 
L 2834 2853 
Q 2591 2978 2328 3040 
Q 2066 3103 1784 3103 
Q 1356 3103 1142 2972 
Q 928 2841 928 2578 
Q 928 2378 1081 2264 
Q 1234 2150 1697 2047 
L 1894 2003 
Q 2506 1872 2764 1633 
Q 3022 1394 3022 966 
Q 3022 478 2636 193 
Q 2250 -91 1575 -91 
Q 1294 -91 989 -36 
Q 684 19 347 128 
L 347 722 
Q 666 556 975 473 
Q 1284 391 1588 391 
Q 1994 391 2212 530 
Q 2431 669 2431 922 
Q 2431 1156 2273 1281 
Q 2116 1406 1581 1522 
L 1381 1569 
Q 847 1681 609 1914 
Q 372 2147 372 2553 
Q 372 3047 722 3315 
Q 1072 3584 1716 3584 
Q 2034 3584 2315 3537 
Q 2597 3491 2834 3397 
z
" transform="scale(0.015625)"/>
      <path id="DejaVuSans-75" d="M 544 1381 
L 544 3500 
L 1119 3500 
L 1119 1403 
Q 1119 906 1312 657 
Q 1506 409 1894 409 
Q 2359 409 2629 706 
Q 2900 1003 2900 1516 
L 2900 3500 
L 3475 3500 
L 3475 0 
L 2900 0 
L 2900 538 
Q 2691 219 2414 64 
Q 2138 -91 1772 -91 
Q 1169 -91 856 284 
Q 544 659 544 1381 
z
M 1991 3584 
L 1991 3584 
z
" transform="scale(0.015625)"/>
      <path id="DejaVuSans-70" d="M 1159 525 
L 1159 -1331 
L 581 -1331 
L 581 3500 
L 1159 3500 
L 1159 2969 
Q 1341 3281 1617 3432 
Q 1894 3584 2278 3584 
Q 2916 3584 3314 3078 
Q 3713 2572 3713 1747 
Q 3713 922 3314 415 
Q 2916 -91 2278 -91 
Q 1894 -91 1617 61 
Q 1341 213 1159 525 
z
M 3116 1747 
Q 3116 2381 2855 2742 
Q 2594 3103 2138 3103 
Q 1681 3103 1420 2742 
Q 1159 2381 1159 1747 
Q 1159 1113 1420 752 
Q 1681 391 2138 391 
Q 2594 391 2855 752 
Q 3116 1113 3116 1747 
z
" transform="scale(0.015625)"/>
      <path id="DejaVuSans-6f" d="M 1959 3097 
Q 1497 3097 1228 2736 
Q 959 2375 959 1747 
Q 959 1119 1226 758 
Q 1494 397 1959 397 
Q 2419 397 2687 759 
Q 2956 1122 2956 1747 
Q 2956 2369 2687 2733 
Q 2419 3097 1959 3097 
z
M 1959 3584 
Q 2709 3584 3137 3096 
Q 3566 2609 3566 1747 
Q 3566 888 3137 398 
Q 2709 -91 1959 -91 
Q 1206 -91 779 398 
Q 353 888 353 1747 
Q 353 2609 779 3096 
Q 1206 3584 1959 3584 
z
" transform="scale(0.015625)"/>
      <path id="DejaVuSans-72" d="M 2631 2963 
Q 2534 3019 2420 3045 
Q 2306 3072 2169 3072 
Q 1681 3072 1420 2755 
Q 1159 2438 1159 1844 
L 1159 0 
L 581 0 
L 581 3500 
L 1159 3500 
L 1159 2956 
Q 1341 3275 1631 3429 
Q 1922 3584 2338 3584 
Q 2397 3584 2469 3576 
Q 2541 3569 2628 3553 
L 2631 2963 
z
" transform="scale(0.015625)"/>
      <path id="DejaVuSans-74" d="M 1172 4494 
L 1172 3500 
L 2356 3500 
L 2356 3053 
L 1172 3053 
L 1172 1153 
Q 1172 725 1289 603 
Q 1406 481 1766 481 
L 2356 481 
L 2356 0 
L 1766 0 
Q 1100 0 847 248 
Q 594 497 594 1153 
L 594 3053 
L 172 3053 
L 172 3500 
L 594 3500 
L 594 4494 
L 1172 4494 
z
" transform="scale(0.015625)"/>
     </defs>
     <use xlink:href="#DejaVuSans-73"/>
     <use xlink:href="#DejaVuSans-75" x="52.099609"/>
     <use xlink:href="#DejaVuSans-70" x="115.478516"/>
     <use xlink:href="#DejaVuSans-70" x="178.955078"/>
     <use xlink:href="#DejaVuSans-6f" x="242.431641"/>
     <use xlink:href="#DejaVuSans-72" x="303.613281"/>
     <use xlink:href="#DejaVuSans-74" x="344.726562"/>
    </g>
   </g>
  </g>
  <g id="axis3d_2">
   <g id="line2d_6">
    <path d="M 279.250433 121.758451 
L 250.291452 151.47749 
" style="fill: none; stroke: #000000; stroke-width: 0.8; stroke-linecap: square"/>
   </g>
   <g id="xtick_5">
    <g id="line2d_7">
     <path d="M 251.83754 149.272861 
L 253.211671 149.718148 
" style="fill: none; stroke: #000000; stroke-width: 0.8; stroke-linecap: square"/>
    </g>
    <g id="text_6">
     <!-- 1000 -->
     <g transform="translate(252.464274 170.45691) scale(0.1 -0.1)">
      <use xlink:href="#DejaVuSans-31"/>
      <use xlink:href="#DejaVuSans-30" x="63.623047"/>
      <use xlink:href="#DejaVuSans-30" x="127.246094"/>
      <use xlink:href="#DejaVuSans-30" x="190.869141"/>
     </g>
    </g>
   </g>
   <g id="xtick_6">
    <g id="line2d_8">
     <path d="M 258.536872 142.410014 
L 259.892072 142.837718 
" style="fill: none; stroke: #000000; stroke-width: 0.8; stroke-linecap: square"/>
    </g>
    <g id="text_7">
     <!-- 2000 -->
     <g transform="translate(258.910597 163.308803) scale(0.1 -0.1)">
      <defs>
       <path id="DejaVuSans-32" d="M 1228 531 
L 3431 531 
L 3431 0 
L 469 0 
L 469 531 
Q 828 903 1448 1529 
Q 2069 2156 2228 2338 
Q 2531 2678 2651 2914 
Q 2772 3150 2772 3378 
Q 2772 3750 2511 3984 
Q 2250 4219 1831 4219 
Q 1534 4219 1204 4116 
Q 875 4013 500 3803 
L 500 4441 
Q 881 4594 1212 4672 
Q 1544 4750 1819 4750 
Q 2544 4750 2975 4387 
Q 3406 4025 3406 3419 
Q 3406 3131 3298 2873 
Q 3191 2616 2906 2266 
Q 2828 2175 2409 1742 
Q 1991 1309 1228 531 
z
" transform="scale(0.015625)"/>
      </defs>
      <use xlink:href="#DejaVuSans-32"/>
      <use xlink:href="#DejaVuSans-30" x="63.623047"/>
      <use xlink:href="#DejaVuSans-30" x="127.246094"/>
      <use xlink:href="#DejaVuSans-30" x="190.869141"/>
     </g>
    </g>
   </g>
   <g id="xtick_7">
    <g id="line2d_9">
     <path d="M 264.974395 135.815366 
L 266.31108 136.226509 
" style="fill: none; stroke: #000000; stroke-width: 0.8; stroke-linecap: square"/>
    </g>
    <g id="text_8">
     <!-- 5000 -->
     <g transform="translate(265.104497 156.440601) scale(0.1 -0.1)">
      <use xlink:href="#DejaVuSans-35"/>
      <use xlink:href="#DejaVuSans-30" x="63.623047"/>
      <use xlink:href="#DejaVuSans-30" x="127.246094"/>
      <use xlink:href="#DejaVuSans-30" x="190.869141"/>
     </g>
    </g>
   </g>
   <g id="xtick_8">
    <g id="line2d_10">
     <path d="M 271.165162 129.473497 
L 272.483742 129.869022 
" style="fill: none; stroke: #000000; stroke-width: 0.8; stroke-linecap: square"/>
    </g>
    <g id="text_9">
     <!-- 10000 -->
     <g transform="translate(267.879264 149.836178) scale(0.1 -0.1)">
      <use xlink:href="#DejaVuSans-31"/>
      <use xlink:href="#DejaVuSans-30" x="63.623047"/>
      <use xlink:href="#DejaVuSans-30" x="127.246094"/>
      <use xlink:href="#DejaVuSans-30" x="190.869141"/>
      <use xlink:href="#DejaVuSans-30" x="254.492188"/>
     </g>
    </g>
   </g>
   <g id="text_10">
    <!-- window -->
    <g transform="translate(281.185411 179.537616) rotate(-45.742112) scale(0.1 -0.1)">
     <defs>
      <path id="DejaVuSans-77" d="M 269 3500 
L 844 3500 
L 1563 769 
L 2278 3500 
L 2956 3500 
L 3675 769 
L 4391 3500 
L 4966 3500 
L 4050 0 
L 3372 0 
L 2619 2869 
L 1863 0 
L 1184 0 
L 269 3500 
z
" transform="scale(0.015625)"/>
      <path id="DejaVuSans-69" d="M 603 3500 
L 1178 3500 
L 1178 0 
L 603 0 
L 603 3500 
z
M 603 4863 
L 1178 4863 
L 1178 4134 
L 603 4134 
L 603 4863 
z
" transform="scale(0.015625)"/>
      <path id="DejaVuSans-6e" d="M 3513 2113 
L 3513 0 
L 2938 0 
L 2938 2094 
Q 2938 2591 2744 2837 
Q 2550 3084 2163 3084 
Q 1697 3084 1428 2787 
Q 1159 2491 1159 1978 
L 1159 0 
L 581 0 
L 581 3500 
L 1159 3500 
L 1159 2956 
Q 1366 3272 1645 3428 
Q 1925 3584 2291 3584 
Q 2894 3584 3203 3211 
Q 3513 2838 3513 2113 
z
" transform="scale(0.015625)"/>
      <path id="DejaVuSans-64" d="M 2906 2969 
L 2906 4863 
L 3481 4863 
L 3481 0 
L 2906 0 
L 2906 525 
Q 2725 213 2448 61 
Q 2172 -91 1784 -91 
Q 1150 -91 751 415 
Q 353 922 353 1747 
Q 353 2572 751 3078 
Q 1150 3584 1784 3584 
Q 2172 3584 2448 3432 
Q 2725 3281 2906 2969 
z
M 947 1747 
Q 947 1113 1208 752 
Q 1469 391 1925 391 
Q 2381 391 2643 752 
Q 2906 1113 2906 1747 
Q 2906 2381 2643 2742 
Q 2381 3103 1925 3103 
Q 1469 3103 1208 2742 
Q 947 2381 947 1747 
z
" transform="scale(0.015625)"/>
     </defs>
     <use xlink:href="#DejaVuSans-77"/>
     <use xlink:href="#DejaVuSans-69" x="81.787109"/>
     <use xlink:href="#DejaVuSans-6e" x="109.570312"/>
     <use xlink:href="#DejaVuSans-64" x="172.949219"/>
     <use xlink:href="#DejaVuSans-6f" x="236.425781"/>
     <use xlink:href="#DejaVuSans-77" x="297.607422"/>
    </g>
   </g>
  </g>
  <g id="axis3d_3">
   <g id="line2d_11">
    <path d="M 279.250433 121.758451 
L 281.08557 81.683747 
" style="fill: none; stroke: #000000; stroke-width: 0.8; stroke-linecap: square"/>
   </g>
   <g id="xtick_9">
    <g id="line2d_12">
     <path d="M 278.818845 121.633005 
L 280.114636 122.00964 
" style="fill: none; stroke: #000000; stroke-width: 0.8; stroke-linecap: square"/>
    </g>
    <g id="text_11">
     <!-- 0.0 -->
     <g transform="translate(289.452684 126.765427) scale(0.1 -0.1)">
      <use xlink:href="#DejaVuSans-30"/>
      <use xlink:href="#DejaVuSans-2e" x="63.623047"/>
      <use xlink:href="#DejaVuSans-30" x="95.410156"/>
     </g>
    </g>
   </g>
   <g id="xtick_10">
    <g id="line2d_13">
     <path d="M 279.706497 102.039815 
L 281.031777 102.400897 
" style="fill: none; stroke: #000000; stroke-width: 0.8; stroke-linecap: square"/>
    </g>
    <g id="text_12">
     <!-- 0.5 -->
     <g transform="translate(290.737042 107.274532) scale(0.1 -0.1)">
      <use xlink:href="#DejaVuSans-30"/>
      <use xlink:href="#DejaVuSans-2e" x="63.623047"/>
      <use xlink:href="#DejaVuSans-35" x="95.410156"/>
     </g>
    </g>
   </g>
   <g id="xtick_11">
    <g id="line2d_14">
     <path d="M 280.633897 81.569261 
L 281.990039 81.913003 
" style="fill: none; stroke: #000000; stroke-width: 0.8; stroke-linecap: square"/>
    </g>
    <g id="text_13">
     <!-- 1.0 -->
     <g transform="translate(292.078444 86.917952) scale(0.1 -0.1)">
      <use xlink:href="#DejaVuSans-31"/>
      <use xlink:href="#DejaVuSans-2e" x="63.623047"/>
      <use xlink:href="#DejaVuSans-30" x="95.410156"/>
     </g>
    </g>
   </g>
   <g id="text_14">
    <!-- precision -->
    <g transform="translate(321.786979 119.469097) rotate(-87.378092) scale(0.1 -0.1)">
     <defs>
      <path id="DejaVuSans-65" d="M 3597 1894 
L 3597 1613 
L 953 1613 
Q 991 1019 1311 708 
Q 1631 397 2203 397 
Q 2534 397 2845 478 
Q 3156 559 3463 722 
L 3463 178 
Q 3153 47 2828 -22 
Q 2503 -91 2169 -91 
Q 1331 -91 842 396 
Q 353 884 353 1716 
Q 353 2575 817 3079 
Q 1281 3584 2069 3584 
Q 2775 3584 3186 3129 
Q 3597 2675 3597 1894 
z
M 3022 2063 
Q 3016 2534 2758 2815 
Q 2500 3097 2075 3097 
Q 1594 3097 1305 2825 
Q 1016 2553 972 2059 
L 3022 2063 
z
" transform="scale(0.015625)"/>
      <path id="DejaVuSans-63" d="M 3122 3366 
L 3122 2828 
Q 2878 2963 2633 3030 
Q 2388 3097 2138 3097 
Q 1578 3097 1268 2742 
Q 959 2388 959 1747 
Q 959 1106 1268 751 
Q 1578 397 2138 397 
Q 2388 397 2633 464 
Q 2878 531 3122 666 
L 3122 134 
Q 2881 22 2623 -34 
Q 2366 -91 2075 -91 
Q 1284 -91 818 406 
Q 353 903 353 1747 
Q 353 2603 823 3093 
Q 1294 3584 2113 3584 
Q 2378 3584 2631 3529 
Q 2884 3475 3122 3366 
z
" transform="scale(0.015625)"/>
     </defs>
     <use xlink:href="#DejaVuSans-70"/>
     <use xlink:href="#DejaVuSans-72" x="63.476562"/>
     <use xlink:href="#DejaVuSans-65" x="102.339844"/>
     <use xlink:href="#DejaVuSans-63" x="163.863281"/>
     <use xlink:href="#DejaVuSans-69" x="218.84375"/>
     <use xlink:href="#DejaVuSans-73" x="246.626953"/>
     <use xlink:href="#DejaVuSans-69" x="298.726562"/>
     <use xlink:href="#DejaVuSans-6f" x="326.509766"/>
     <use xlink:href="#DejaVuSans-6e" x="387.691406"/>
    </g>
   </g>
  </g>
  <g id="axes_1">
   <g id="Poly3DCollection_1">
    <path d="M 222.512829 114.879604 
L 229.082186 109.308079 
L 239.987263 112.500107 
L 233.549477 118.190188 
z
" clip-path="url(#pe40bfbbf0a)" style="fill: #483139"/>
    <path d="M 229.082186 109.308079 
L 228.911843 92.519718 
L 240.019101 95.592115 
L 239.987263 112.500107 
z
" clip-path="url(#pe40bfbbf0a)" style="fill: #38262d"/>
    <path d="M 222.512829 114.879604 
L 222.215448 97.883209 
L 228.911843 92.519718 
L 229.082186 109.308079 
z
" clip-path="url(#pe40bfbbf0a)" style="fill: #77515e"/>
    <path d="M 239.987263 112.500107 
L 240.008953 100.981363 
L 251.288845 104.159391 
L 251.123475 115.759791 
z
" clip-path="url(#pe40bfbbf0a)" style="fill: #26201c"/>
    <path d="M 233.549477 118.190188 
L 239.987263 112.500107 
L 251.123475 115.759791 
L 244.824423 121.572253 
z
" clip-path="url(#pe40bfbbf0a)" style="fill: #312924"/>
    <path d="M 233.549477 118.190188 
L 233.487991 106.529466 
L 240.008953 100.981363 
L 239.987263 112.500107 
z
" clip-path="url(#pe40bfbbf0a)" style="fill: #51443c"/>
    <path d="M 222.512829 114.879604 
L 222.397999 108.316659 
L 233.514627 111.580993 
L 233.549477 118.190188 
z
" clip-path="url(#pe40bfbbf0a)" style="fill: #261f39"/>
    <path d="M 233.549477 118.190188 
L 239.987263 112.500107 
L 240.019101 95.592115 
L 233.459213 101.071902 
z
" clip-path="url(#pe40bfbbf0a)" style="fill: #38262d"/>
    <path d="M 215.698502 120.65889 
L 215.530972 114.015538 
L 222.397999 108.316659 
L 222.512829 114.879604 
z
" clip-path="url(#pe40bfbbf0a)" style="fill: #514279"/>
    <path d="M 215.698502 120.65889 
L 222.512829 114.879604 
L 233.549477 118.190188 
L 226.869014 124.094761 
z
" clip-path="url(#pe40bfbbf0a)" style="fill: #312849"/>
    <path d="M 222.512829 114.879604 
L 233.549477 118.190188 
L 233.459213 101.071902 
L 222.215448 97.883209 
z
" clip-path="url(#pe40bfbbf0a)" style="fill: #77515e"/>
    <path d="M 222.215448 97.883209 
L 233.459213 101.071902 
L 240.019101 95.592115 
L 228.911843 92.519718 
z
" clip-path="url(#pe40bfbbf0a)" style="fill: #674652"/>
    <path d="M 251.123475 115.759791 
L 251.306048 102.952687 
L 262.846326 106.190913 
L 262.498251 119.089304 
z
" clip-path="url(#pe40bfbbf0a)" style="fill: #45255b"/>
    <path d="M 244.824423 121.572253 
L 251.123475 115.759791 
L 262.498251 119.089304 
L 256.34547 125.02814 
z
" clip-path="url(#pe40bfbbf0a)" style="fill: #593074"/>
    <path d="M 244.824423 121.572253 
L 251.123475 115.759791 
L 251.288845 104.159391 
L 244.91025 109.828382 
z
" clip-path="url(#pe40bfbbf0a)" style="fill: #26201c"/>
    <path d="M 262.498251 119.089304 
L 262.498251 119.089304 
L 274.119339 122.490916 
L 274.119339 122.490916 
z
" clip-path="url(#pe40bfbbf0a)" style="fill: #133a08"/>
    <path d="M 244.824423 121.572253 
L 244.91918 108.606429 
L 251.306048 102.952687 
L 251.123475 115.759791 
z
" clip-path="url(#pe40bfbbf0a)" style="fill: #934fc0"/>
    <path d="M 233.487991 106.529466 
L 244.91025 109.828382 
L 251.288845 104.159391 
L 240.008953 100.981363 
z
" clip-path="url(#pe40bfbbf0a)" style="fill: #463b34"/>
    <path d="M 233.549477 118.190188 
L 233.51055 110.807744 
L 244.878757 114.13755 
L 244.824423 121.572253 
z
" clip-path="url(#pe40bfbbf0a)" style="fill: #246946"/>
    <path d="M 215.530972 114.015538 
L 226.78341 117.404338 
L 233.514627 111.580993 
L 222.397999 108.316659 
z
" clip-path="url(#pe40bfbbf0a)" style="fill: #473969"/>
    <path d="M 233.549477 118.190188 
L 244.824423 121.572253 
L 244.91025 109.828382 
L 233.487991 106.529466 
z
" clip-path="url(#pe40bfbbf0a)" style="fill: #51443c"/>
    <path d="M 256.34547 125.02814 
L 256.34547 125.02814 
L 262.498251 119.089304 
L 262.498251 119.089304 
z
" clip-path="url(#pe40bfbbf0a)" style="fill: #133a08"/>
    <path d="M 226.869014 124.094761 
L 233.549477 118.190188 
L 233.514627 111.580993 
L 226.78341 117.404338 
z
" clip-path="url(#pe40bfbbf0a)" style="fill: #261f39"/>
    <path d="M 226.869014 124.094761 
L 226.773393 116.621465 
L 233.51055 110.807744 
L 233.549477 118.190188 
z
" clip-path="url(#pe40bfbbf0a)" style="fill: #4cdf94"/>
    <path d="M 226.869014 124.094761 
L 233.549477 118.190188 
L 244.824423 121.572253 
L 238.285311 127.606231 
z
" clip-path="url(#pe40bfbbf0a)" style="fill: #2e875a"/>
    <path d="M 215.698502 120.65889 
L 215.596011 116.594624 
L 226.816645 120.001827 
L 226.869014 124.094761 
z
" clip-path="url(#pe40bfbbf0a)" style="fill: #3e2529"/>
    <path d="M 215.698502 120.65889 
L 226.869014 124.094761 
L 226.78341 117.404338 
L 215.530972 114.015538 
z
" clip-path="url(#pe40bfbbf0a)" style="fill: #514279"/>
    <path d="M 256.34547 125.02814 
L 262.498251 119.089304 
L 274.119339 122.490916 
L 268.120764 128.56029 
z
" clip-path="url(#pe40bfbbf0a)" style="fill: #103006"/>
    <path d="M 256.34547 125.02814 
L 268.120764 128.56029 
L 274.119339 122.490916 
L 262.498251 119.089304 
z
" clip-path="url(#pe40bfbbf0a)" style="fill: #174509"/>
    <path d="M 244.824423 121.572253 
L 244.845245 118.723071 
L 256.403608 122.158887 
L 256.34547 125.02814 
z
" clip-path="url(#pe40bfbbf0a)" style="fill: #545249"/>
    <path d="M 256.34547 125.02814 
L 262.498251 119.089304 
L 262.846326 106.190913 
L 256.610075 111.969371 
z
" clip-path="url(#pe40bfbbf0a)" style="fill: #45255b"/>
    <path d="M 208.625242 126.65778 
L 208.488086 122.54368 
L 215.596011 116.594624 
L 215.698502 120.65889 
z
" clip-path="url(#pe40bfbbf0a)" style="fill: #834f58"/>
    <path d="M 244.91918 108.606429 
L 256.610075 111.969371 
L 262.846326 106.190913 
L 251.306048 102.952687 
z
" clip-path="url(#pe40bfbbf0a)" style="fill: #7f45a7"/>
    <path d="M 238.285311 127.606231 
L 238.285311 124.722162 
L 244.845245 118.723071 
L 244.824423 121.572253 
z
" clip-path="url(#pe40bfbbf0a)" style="fill: #b3af9a"/>
    <path d="M 208.625242 126.65778 
L 215.698502 120.65889 
L 226.869014 124.094761 
L 219.93189 130.226186 
z
" clip-path="url(#pe40bfbbf0a)" style="fill: #4f3035"/>
    <path d="M 226.773393 116.621465 
L 238.285311 120.079759 
L 244.878757 114.13755 
L 233.51055 110.807744 
z
" clip-path="url(#pe40bfbbf0a)" style="fill: #42c181"/>
    <path d="M 268.120764 128.56029 
L 274.119339 122.490916 
L 274.119339 122.490916 
L 268.120764 128.56029 
z
" clip-path="url(#pe40bfbbf0a)" style="fill: #133a08"/>
    <path d="M 244.824423 121.572253 
L 256.34547 125.02814 
L 256.610075 111.969371 
L 244.91918 108.606429 
z
" clip-path="url(#pe40bfbbf0a)" style="fill: #934fc0"/>
    <path d="M 238.285311 127.606231 
L 244.824423 121.572253 
L 244.878757 114.13755 
L 238.285311 120.079759 
z
" clip-path="url(#pe40bfbbf0a)" style="fill: #246946"/>
    <path d="M 238.285311 127.606231 
L 244.824423 121.572253 
L 256.34547 125.02814 
L 249.955596 131.195824 
z
" clip-path="url(#pe40bfbbf0a)" style="fill: #6c695d"/>
    <path d="M 226.869014 124.094761 
L 226.831505 121.163196 
L 238.285311 124.653972 
L 238.285311 127.606231 
z
" clip-path="url(#pe40bfbbf0a)" style="fill: #384514"/>
    <path d="M 256.34547 125.02814 
L 268.120764 128.56029 
L 268.120764 128.56029 
L 256.34547 125.02814 
z
" clip-path="url(#pe40bfbbf0a)" style="fill: #133a08"/>
    <path d="M 256.34547 125.02814 
L 256.34547 125.02814 
L 268.120764 128.56029 
L 268.120764 128.56029 
z
" clip-path="url(#pe40bfbbf0a)" style="fill: #1b2120"/>
    <path d="M 208.488086 122.54368 
L 219.846073 126.082929 
L 226.816645 120.001827 
L 215.596011 116.594624 
z
" clip-path="url(#pe40bfbbf0a)" style="fill: #72454c"/>
    <path d="M 226.869014 124.094761 
L 238.285311 127.606231 
L 238.285311 120.079759 
L 226.773393 116.621465 
z
" clip-path="url(#pe40bfbbf0a)" style="fill: #4cdf94"/>
    <path d="M 238.285311 124.722162 
L 249.993891 128.291346 
L 256.403608 122.158887 
L 244.845245 118.723071 
z
" clip-path="url(#pe40bfbbf0a)" style="fill: #9b9885"/>
    <path d="M 219.93189 130.226186 
L 219.870425 127.258651 
L 226.831505 121.163196 
L 226.869014 124.094761 
z
" clip-path="url(#pe40bfbbf0a)" style="fill: #77922a"/>
    <path d="M 219.93189 130.226186 
L 226.869014 124.094761 
L 226.816645 120.001827 
L 219.846073 126.082929 
z
" clip-path="url(#pe40bfbbf0a)" style="fill: #3e2529"/>
    <path d="M 249.955596 131.195824 
L 249.955596 131.195824 
L 256.34547 125.02814 
L 256.34547 125.02814 
z
" clip-path="url(#pe40bfbbf0a)" style="fill: #1b2120"/>
    <path d="M 249.955596 131.195824 
L 256.34547 125.02814 
L 256.403608 122.158887 
L 249.993891 128.291346 
z
" clip-path="url(#pe40bfbbf0a)" style="fill: #545249"/>
    <path d="M 219.93189 130.226186 
L 226.869014 124.094761 
L 238.285311 127.606231 
L 231.492151 133.874633 
z
" clip-path="url(#pe40bfbbf0a)" style="fill: #485819"/>
    <path d="M 208.625242 126.65778 
L 208.524159 123.625712 
L 219.868644 127.17267 
L 219.93189 130.226186 
z
" clip-path="url(#pe40bfbbf0a)" style="fill: #38345a"/>
    <path d="M 208.625242 126.65778 
L 219.93189 130.226186 
L 219.846073 126.082929 
L 208.488086 122.54368 
z
" clip-path="url(#pe40bfbbf0a)" style="fill: #834f58"/>
    <path d="M 238.285311 127.606231 
L 238.285311 126.755586 
L 249.96689 130.339181 
L 249.955596 131.195824 
z
" clip-path="url(#pe40bfbbf0a)" style="fill: #60491c"/>
    <path d="M 249.955596 131.195824 
L 256.34547 125.02814 
L 268.120764 128.56029 
L 261.888439 134.866175 
z
" clip-path="url(#pe40bfbbf0a)" style="fill: #161b1b"/>
    <path d="M 249.955596 131.195824 
L 261.888439 134.866175 
L 268.120764 128.56029 
L 256.34547 125.02814 
z
" clip-path="url(#pe40bfbbf0a)" style="fill: #202726"/>
    <path d="M 238.285311 127.606231 
L 249.955596 131.195824 
L 249.993891 128.291346 
L 238.285311 124.722162 
z
" clip-path="url(#pe40bfbbf0a)" style="fill: #b3af9a"/>
    <path d="M 219.870425 127.258651 
L 231.469145 130.88606 
L 238.285311 124.653972 
L 226.831505 121.163196 
z
" clip-path="url(#pe40bfbbf0a)" style="fill: #677f24"/>
    <path d="M 201.278005 132.889033 
L 201.14943 129.819687 
L 208.524159 123.625712 
L 208.625242 126.65778 
z
" clip-path="url(#pe40bfbbf0a)" style="fill: #766ebe"/>
    <path d="M 231.492151 133.874633 
L 231.485523 133.013564 
L 238.285311 126.755586 
L 238.285311 127.606231 
z
" clip-path="url(#pe40bfbbf0a)" style="fill: #cc9a3c"/>
    <path d="M 231.492151 133.874633 
L 238.285311 127.606231 
L 238.285311 124.653972 
L 231.469145 130.88606 
z
" clip-path="url(#pe40bfbbf0a)" style="fill: #384514"/>
    <path d="M 201.278005 132.889033 
L 208.625242 126.65778 
L 219.93189 130.226186 
L 212.723023 136.597793 
z
" clip-path="url(#pe40bfbbf0a)" style="fill: #474273"/>
    <path d="M 261.888439 134.866175 
L 268.120764 128.56029 
L 268.120764 128.56029 
L 261.888439 134.866175 
z
" clip-path="url(#pe40bfbbf0a)" style="fill: #1b2120"/>
    <path d="M 219.93189 130.226186 
L 219.895858 128.48655 
L 231.478665 132.122691 
L 231.492151 133.874633 
z
" clip-path="url(#pe40bfbbf0a)" style="fill: #3a4320"/>
    <path d="M 231.492151 133.874633 
L 238.285311 127.606231 
L 249.955596 131.195824 
L 243.314655 137.605845 
z
" clip-path="url(#pe40bfbbf0a)" style="fill: #7b5d24"/>
    <path d="M 219.93189 130.226186 
L 231.492151 133.874633 
L 231.469145 130.88606 
L 219.870425 127.258651 
z
" clip-path="url(#pe40bfbbf0a)" style="fill: #77922a"/>
    <path d="M 201.14943 129.819687 
L 212.633204 133.506649 
L 219.868644 127.17267 
L 208.524159 123.625712 
z
" clip-path="url(#pe40bfbbf0a)" style="fill: #675fa5"/>
    <path d="M 231.485523 133.013564 
L 243.319618 136.738681 
L 249.96689 130.339181 
L 238.285311 126.755586 
z
" clip-path="url(#pe40bfbbf0a)" style="fill: #b18634"/>
    <path d="M 249.955596 131.195824 
L 261.888439 134.866175 
L 261.888439 134.866175 
L 249.955596 131.195824 
z
" clip-path="url(#pe40bfbbf0a)" style="fill: #1b2120"/>
    <path d="M 249.955596 131.195824 
L 249.968601 130.20946 
L 261.915037 133.87284 
L 261.888439 134.866175 
z
" clip-path="url(#pe40bfbbf0a)" style="fill: #02493b"/>
    <path d="M 212.723023 136.597793 
L 212.671853 134.836771 
L 219.895858 128.48655 
L 219.93189 130.226186 
z
" clip-path="url(#pe40bfbbf0a)" style="fill: #7c8f43"/>
    <path d="M 212.723023 136.597793 
L 219.93189 130.226186 
L 219.868644 127.17267 
L 212.633204 133.506649 
z
" clip-path="url(#pe40bfbbf0a)" style="fill: #38345a"/>
    <path d="M 243.314655 137.605845 
L 249.955596 131.195824 
L 249.96689 130.339181 
L 243.319618 136.738681 
z
" clip-path="url(#pe40bfbbf0a)" style="fill: #60491c"/>
    <path d="M 243.314655 137.605845 
L 243.32037 136.607365 
L 249.968601 130.20946 
L 249.955596 131.195824 
z
" clip-path="url(#pe40bfbbf0a)" style="fill: #049b7e"/>
    <path d="M 212.723023 136.597793 
L 219.93189 130.226186 
L 231.492151 133.874633 
L 224.429844 140.391391 
z
" clip-path="url(#pe40bfbbf0a)" style="fill: #4b5629"/>
    <path d="M 201.278005 132.889033 
L 212.723023 136.597793 
L 212.633204 133.506649 
L 201.14943 129.819687 
z
" clip-path="url(#pe40bfbbf0a)" style="fill: #766ebe"/>
    <path d="M 231.492151 133.874633 
L 231.48891 133.453534 
L 243.317082 137.181768 
L 243.314655 137.605845 
z
" clip-path="url(#pe40bfbbf0a)" style="fill: #274746"/>
    <path d="M 231.492151 133.874633 
L 243.314655 137.605845 
L 243.319618 136.738681 
L 231.485523 133.013564 
z
" clip-path="url(#pe40bfbbf0a)" style="fill: #cc9a3c"/>
    <path d="M 212.671853 134.836771 
L 224.401791 138.617867 
L 231.478665 132.122691 
L 219.895858 128.48655 
z
" clip-path="url(#pe40bfbbf0a)" style="fill: #6b7c3a"/>
    <path d="M 243.314655 137.605845 
L 249.955596 131.195824 
L 261.888439 134.866175 
L 255.408428 141.422669 
z
" clip-path="url(#pe40bfbbf0a)" style="fill: #025e4c"/>
    <path d="M 243.32037 136.607365 
L 255.428108 140.417108 
L 261.915037 133.87284 
L 249.968601 130.20946 
z
" clip-path="url(#pe40bfbbf0a)" style="fill: #03876d"/>
    <path d="M 224.429844 140.391391 
L 224.423101 139.965117 
L 231.48891 133.453534 
L 231.492151 133.874633 
z
" clip-path="url(#pe40bfbbf0a)" style="fill: #529795"/>
    <path d="M 224.429844 140.391391 
L 231.492151 133.874633 
L 231.478665 132.122691 
L 224.401791 138.617867 
z
" clip-path="url(#pe40bfbbf0a)" style="fill: #3a4320"/>
    <path d="M 255.408428 141.422669 
L 261.888439 134.866175 
L 261.915037 133.87284 
L 255.428108 140.417108 
z
" clip-path="url(#pe40bfbbf0a)" style="fill: #02493b"/>
    <path d="M 212.723023 136.597793 
L 224.429844 140.391391 
L 224.401791 138.617867 
L 212.671853 134.836771 
z
" clip-path="url(#pe40bfbbf0a)" style="fill: #7c8f43"/>
    <path d="M 224.429844 140.391391 
L 231.492151 133.874633 
L 243.314655 137.605845 
L 236.407554 144.272771 
z
" clip-path="url(#pe40bfbbf0a)" style="fill: #315b5a"/>
    <path d="M 224.423101 139.965117 
L 236.40663 143.843473 
L 243.317082 137.181768 
L 231.48891 133.453534 
z
" clip-path="url(#pe40bfbbf0a)" style="fill: #478382"/>
    <path d="M 243.314655 137.605845 
L 243.315607 137.439589 
L 255.411705 141.255236 
L 255.408428 141.422669 
z
" clip-path="url(#pe40bfbbf0a)" style="fill: #24542a"/>
    <path d="M 243.314655 137.605845 
L 255.408428 141.422669 
L 255.428108 140.417108 
L 243.32037 136.607365 
z
" clip-path="url(#pe40bfbbf0a)" style="fill: #049b7e"/>
    <path d="M 236.407554 144.272771 
L 236.407192 144.104469 
L 243.315607 137.439589 
L 243.314655 137.605845 
z
" clip-path="url(#pe40bfbbf0a)" style="fill: #4db35a"/>
    <path d="M 236.407554 144.272771 
L 243.314655 137.605845 
L 243.317082 137.181768 
L 236.40663 143.843473 
z
" clip-path="url(#pe40bfbbf0a)" style="fill: #274746"/>
    <path d="M 224.429844 140.391391 
L 236.407554 144.272771 
L 236.40663 143.843473 
L 224.423101 139.965117 
z
" clip-path="url(#pe40bfbbf0a)" style="fill: #529795"/>
    <path d="M 236.407554 144.272771 
L 243.314655 137.605845 
L 255.408428 141.422669 
L 248.665666 148.245014 
z
" clip-path="url(#pe40bfbbf0a)" style="fill: #2e6c36"/>
    <path d="M 236.407192 144.104469 
L 248.667693 148.075518 
L 255.411705 141.255236 
L 243.315607 137.439589 
z
" clip-path="url(#pe40bfbbf0a)" style="fill: #439b4e"/>
    <path d="M 248.665666 148.245014 
L 255.408428 141.422669 
L 255.411705 141.255236 
L 248.667693 148.075518 
z
" clip-path="url(#pe40bfbbf0a)" style="fill: #24542a"/>
    <path d="M 236.407554 144.272771 
L 248.665666 148.245014 
L 248.667693 148.075518 
L 236.407192 144.104469 
z
" clip-path="url(#pe40bfbbf0a)" style="fill: #4db35a"/>
   </g>
   <g id="text_15">
    <!-- graph+probability -->
    <g transform="translate(182.371101 54.558261) scale(0.12 -0.12)">
     <defs>
      <path id="DejaVuSans-67" d="M 2906 1791 
Q 2906 2416 2648 2759 
Q 2391 3103 1925 3103 
Q 1463 3103 1205 2759 
Q 947 2416 947 1791 
Q 947 1169 1205 825 
Q 1463 481 1925 481 
Q 2391 481 2648 825 
Q 2906 1169 2906 1791 
z
M 3481 434 
Q 3481 -459 3084 -895 
Q 2688 -1331 1869 -1331 
Q 1566 -1331 1297 -1286 
Q 1028 -1241 775 -1147 
L 775 -588 
Q 1028 -725 1275 -790 
Q 1522 -856 1778 -856 
Q 2344 -856 2625 -561 
Q 2906 -266 2906 331 
L 2906 616 
Q 2728 306 2450 153 
Q 2172 0 1784 0 
Q 1141 0 747 490 
Q 353 981 353 1791 
Q 353 2603 747 3093 
Q 1141 3584 1784 3584 
Q 2172 3584 2450 3431 
Q 2728 3278 2906 2969 
L 2906 3500 
L 3481 3500 
L 3481 434 
z
" transform="scale(0.015625)"/>
      <path id="DejaVuSans-61" d="M 2194 1759 
Q 1497 1759 1228 1600 
Q 959 1441 959 1056 
Q 959 750 1161 570 
Q 1363 391 1709 391 
Q 2188 391 2477 730 
Q 2766 1069 2766 1631 
L 2766 1759 
L 2194 1759 
z
M 3341 1997 
L 3341 0 
L 2766 0 
L 2766 531 
Q 2569 213 2275 61 
Q 1981 -91 1556 -91 
Q 1019 -91 701 211 
Q 384 513 384 1019 
Q 384 1609 779 1909 
Q 1175 2209 1959 2209 
L 2766 2209 
L 2766 2266 
Q 2766 2663 2505 2880 
Q 2244 3097 1772 3097 
Q 1472 3097 1187 3025 
Q 903 2953 641 2809 
L 641 3341 
Q 956 3463 1253 3523 
Q 1550 3584 1831 3584 
Q 2591 3584 2966 3190 
Q 3341 2797 3341 1997 
z
" transform="scale(0.015625)"/>
      <path id="DejaVuSans-68" d="M 3513 2113 
L 3513 0 
L 2938 0 
L 2938 2094 
Q 2938 2591 2744 2837 
Q 2550 3084 2163 3084 
Q 1697 3084 1428 2787 
Q 1159 2491 1159 1978 
L 1159 0 
L 581 0 
L 581 4863 
L 1159 4863 
L 1159 2956 
Q 1366 3272 1645 3428 
Q 1925 3584 2291 3584 
Q 2894 3584 3203 3211 
Q 3513 2838 3513 2113 
z
" transform="scale(0.015625)"/>
      <path id="DejaVuSans-2b" d="M 2944 4013 
L 2944 2272 
L 4684 2272 
L 4684 1741 
L 2944 1741 
L 2944 0 
L 2419 0 
L 2419 1741 
L 678 1741 
L 678 2272 
L 2419 2272 
L 2419 4013 
L 2944 4013 
z
" transform="scale(0.015625)"/>
      <path id="DejaVuSans-62" d="M 3116 1747 
Q 3116 2381 2855 2742 
Q 2594 3103 2138 3103 
Q 1681 3103 1420 2742 
Q 1159 2381 1159 1747 
Q 1159 1113 1420 752 
Q 1681 391 2138 391 
Q 2594 391 2855 752 
Q 3116 1113 3116 1747 
z
M 1159 2969 
Q 1341 3281 1617 3432 
Q 1894 3584 2278 3584 
Q 2916 3584 3314 3078 
Q 3713 2572 3713 1747 
Q 3713 922 3314 415 
Q 2916 -91 2278 -91 
Q 1894 -91 1617 61 
Q 1341 213 1159 525 
L 1159 0 
L 581 0 
L 581 4863 
L 1159 4863 
L 1159 2969 
z
" transform="scale(0.015625)"/>
      <path id="DejaVuSans-6c" d="M 603 4863 
L 1178 4863 
L 1178 0 
L 603 0 
L 603 4863 
z
" transform="scale(0.015625)"/>
      <path id="DejaVuSans-79" d="M 2059 -325 
Q 1816 -950 1584 -1140 
Q 1353 -1331 966 -1331 
L 506 -1331 
L 506 -850 
L 844 -850 
Q 1081 -850 1212 -737 
Q 1344 -625 1503 -206 
L 1606 56 
L 191 3500 
L 800 3500 
L 1894 763 
L 2988 3500 
L 3597 3500 
L 2059 -325 
z
" transform="scale(0.015625)"/>
     </defs>
     <use xlink:href="#DejaVuSans-67"/>
     <use xlink:href="#DejaVuSans-72" x="63.476562"/>
     <use xlink:href="#DejaVuSans-61" x="104.589844"/>
     <use xlink:href="#DejaVuSans-70" x="165.869141"/>
     <use xlink:href="#DejaVuSans-68" x="229.345703"/>
     <use xlink:href="#DejaVuSans-2b" x="292.724609"/>
     <use xlink:href="#DejaVuSans-70" x="376.513672"/>
     <use xlink:href="#DejaVuSans-72" x="439.990234"/>
     <use xlink:href="#DejaVuSans-6f" x="478.853516"/>
     <use xlink:href="#DejaVuSans-62" x="540.035156"/>
     <use xlink:href="#DejaVuSans-61" x="603.511719"/>
     <use xlink:href="#DejaVuSans-62" x="664.791016"/>
     <use xlink:href="#DejaVuSans-69" x="728.267578"/>
     <use xlink:href="#DejaVuSans-6c" x="756.050781"/>
     <use xlink:href="#DejaVuSans-69" x="783.833984"/>
     <use xlink:href="#DejaVuSans-74" x="811.617188"/>
     <use xlink:href="#DejaVuSans-79" x="850.826172"/>
    </g>
   </g>
  </g>
  <g id="patch_6">
   <path d="M 304.904348 157.601739 
L 401.947826 157.601739 
L 401.947826 60.558261 
L 304.904348 60.558261 
z
" style="fill: #ffffff"/>
  </g>
  <g id="pane3d_4">
   <g id="patch_7">
    <path d="M 312.2318 133.673927 
L 344.278726 106.811559 
L 343.833243 68.071221 
L 310.252706 92.576767 
" style="fill: #f2f2f2; opacity: 0.5; stroke: #f2f2f2; stroke-linejoin: miter"/>
   </g>
  </g>
  <g id="pane3d_5">
   <g id="patch_8">
    <path d="M 344.278726 106.811559 
L 395.702607 121.758451 
L 397.537744 81.683747 
L 343.833243 68.071221 
" style="fill: #e6e6e6; opacity: 0.5; stroke: #e6e6e6; stroke-linejoin: miter"/>
   </g>
  </g>
  <g id="pane3d_6">
   <g id="patch_9">
    <path d="M 312.2318 133.673927 
L 366.743626 151.47749 
L 395.702607 121.758451 
L 344.278726 106.811559 
" style="fill: #ececec; opacity: 0.5; stroke: #ececec; stroke-linejoin: miter"/>
   </g>
  </g>
  <g id="grid3d_4">
   <g id="Line3DCollection_4">
    <path d="M 315.533322 134.752205 
L 347.406169 107.720583 
L 347.092916 68.897453 
" style="fill: none; stroke: #b0b0b0; stroke-width: 0.8"/>
    <path d="M 327.019112 138.503464 
L 358.273304 110.87923 
L 358.426027 71.770066 
" style="fill: none; stroke: #b0b0b0; stroke-width: 0.8"/>
    <path d="M 338.769164 142.341031 
L 369.369545 114.104469 
L 370.0085 74.705886 
" style="fill: none; stroke: #b0b0b0; stroke-width: 0.8"/>
    <path d="M 350.792705 146.267919 
L 380.702214 117.398429 
L 381.848657 77.70702 
" style="fill: none; stroke: #b0b0b0; stroke-width: 0.8"/>
   </g>
  </g>
  <g id="grid3d_5">
   <g id="Line3DCollection_5">
    <path d="M 312.574883 90.882148 
L 314.440104 131.822883 
L 368.747363 149.421162 
" style="fill: none; stroke: #b0b0b0; stroke-width: 0.8"/>
    <path d="M 320.333035 85.220602 
L 321.826219 125.631695 
L 375.440398 142.552462 
" style="fill: none; stroke: #b0b0b0; stroke-width: 0.8"/>
    <path d="M 327.78996 79.778878 
L 328.93777 119.670652 
L 381.871762 135.9523 
" style="fill: none; stroke: #b0b0b0; stroke-width: 0.8"/>
    <path d="M 334.96287 74.544415 
L 335.789785 113.927157 
L 388.056506 129.605231 
" style="fill: none; stroke: #b0b0b0; stroke-width: 0.8"/>
   </g>
  </g>
  <g id="grid3d_6">
   <g id="Line3DCollection_6">
    <path d="M 395.702607 121.758451 
L 344.278726 106.811559 
L 312.2318 133.673927 
" style="fill: none; stroke: #b0b0b0; stroke-width: 0.8"/>
    <path d="M 396.600073 102.160078 
L 344.060629 87.845316 
L 311.264766 113.592842 
" style="fill: none; stroke: #b0b0b0; stroke-width: 0.8"/>
    <path d="M 397.537744 81.683747 
L 343.833243 68.071221 
L 310.252706 92.576767 
" style="fill: none; stroke: #b0b0b0; stroke-width: 0.8"/>
   </g>
  </g>
  <g id="axis3d_4">
   <g id="line2d_15">
    <path d="M 312.2318 133.673927 
L 366.743626 151.47749 
" style="fill: none; stroke: #000000; stroke-width: 0.8; stroke-linecap: square"/>
   </g>
   <g id="xtick_12">
    <g id="line2d_16">
     <path d="M 315.810869 134.516815 
L 314.977037 135.223994 
" style="fill: none; stroke: #000000; stroke-width: 0.8; stroke-linecap: square"/>
    </g>
    <g id="text_16">
     <!-- 0.005 -->
     <g transform="translate(293.641133 158.163762) scale(0.1 -0.1)">
      <use xlink:href="#DejaVuSans-30"/>
      <use xlink:href="#DejaVuSans-2e" x="63.623047"/>
      <use xlink:href="#DejaVuSans-30" x="95.410156"/>
      <use xlink:href="#DejaVuSans-30" x="159.033203"/>
      <use xlink:href="#DejaVuSans-35" x="222.65625"/>
     </g>
    </g>
   </g>
   <g id="xtick_13">
    <g id="line2d_17">
     <path d="M 327.291523 138.262691 
L 326.473107 138.986054 
" style="fill: none; stroke: #000000; stroke-width: 0.8; stroke-linecap: square"/>
    </g>
    <g id="text_17">
     <!-- 0.01 -->
     <g transform="translate(308.340289 162.135661) scale(0.1 -0.1)">
      <use xlink:href="#DejaVuSans-30"/>
      <use xlink:href="#DejaVuSans-2e" x="63.623047"/>
      <use xlink:href="#DejaVuSans-30" x="95.410156"/>
      <use xlink:href="#DejaVuSans-31" x="159.033203"/>
     </g>
    </g>
   </g>
   <g id="xtick_14">
    <g id="line2d_18">
     <path d="M 339.036129 142.094689 
L 338.234064 142.834796 
" style="fill: none; stroke: #000000; stroke-width: 0.8; stroke-linecap: square"/>
    </g>
    <g id="text_18">
     <!-- 0.05 -->
     <g transform="translate(320.125979 166.199903) scale(0.1 -0.1)">
      <use xlink:href="#DejaVuSans-30"/>
      <use xlink:href="#DejaVuSans-2e" x="63.623047"/>
      <use xlink:href="#DejaVuSans-30" x="95.410156"/>
      <use xlink:href="#DejaVuSans-35" x="159.033203"/>
     </g>
    </g>
   </g>
   <g id="xtick_15">
    <g id="line2d_19">
     <path d="M 351.053894 146.015812 
L 350.269167 146.773252 
" style="fill: none; stroke: #000000; stroke-width: 0.8; stroke-linecap: square"/>
    </g>
    <g id="text_19">
     <!-- 0.1 -->
     <g transform="translate(335.37015 170.359747) scale(0.1 -0.1)">
      <use xlink:href="#DejaVuSans-30"/>
      <use xlink:href="#DejaVuSans-2e" x="63.623047"/>
      <use xlink:href="#DejaVuSans-31" x="95.410156"/>
     </g>
    </g>
   </g>
   <g id="text_20">
    <!-- support -->
    <g transform="translate(303.133579 174.794019) rotate(-341.912962) scale(0.1 -0.1)">
     <use xlink:href="#DejaVuSans-73"/>
     <use xlink:href="#DejaVuSans-75" x="52.099609"/>
     <use xlink:href="#DejaVuSans-70" x="115.478516"/>
     <use xlink:href="#DejaVuSans-70" x="178.955078"/>
     <use xlink:href="#DejaVuSans-6f" x="242.431641"/>
     <use xlink:href="#DejaVuSans-72" x="303.613281"/>
     <use xlink:href="#DejaVuSans-74" x="344.726562"/>
    </g>
   </g>
  </g>
  <g id="axis3d_5">
   <g id="line2d_20">
    <path d="M 395.702607 121.758451 
L 366.743626 151.47749 
" style="fill: none; stroke: #000000; stroke-width: 0.8; stroke-linecap: square"/>
   </g>
   <g id="xtick_16">
    <g id="line2d_21">
     <path d="M 368.289714 149.272861 
L 369.663844 149.718148 
" style="fill: none; stroke: #000000; stroke-width: 0.8; stroke-linecap: square"/>
    </g>
    <g id="text_21">
     <!-- 1000 -->
     <g transform="translate(368.916448 170.45691) scale(0.1 -0.1)">
      <use xlink:href="#DejaVuSans-31"/>
      <use xlink:href="#DejaVuSans-30" x="63.623047"/>
      <use xlink:href="#DejaVuSans-30" x="127.246094"/>
      <use xlink:href="#DejaVuSans-30" x="190.869141"/>
     </g>
    </g>
   </g>
   <g id="xtick_17">
    <g id="line2d_22">
     <path d="M 374.989046 142.410014 
L 376.344246 142.837718 
" style="fill: none; stroke: #000000; stroke-width: 0.8; stroke-linecap: square"/>
    </g>
    <g id="text_22">
     <!-- 2000 -->
     <g transform="translate(375.362771 163.308803) scale(0.1 -0.1)">
      <use xlink:href="#DejaVuSans-32"/>
      <use xlink:href="#DejaVuSans-30" x="63.623047"/>
      <use xlink:href="#DejaVuSans-30" x="127.246094"/>
      <use xlink:href="#DejaVuSans-30" x="190.869141"/>
     </g>
    </g>
   </g>
   <g id="xtick_18">
    <g id="line2d_23">
     <path d="M 381.426569 135.815366 
L 382.763254 136.226509 
" style="fill: none; stroke: #000000; stroke-width: 0.8; stroke-linecap: square"/>
    </g>
    <g id="text_23">
     <!-- 5000 -->
     <g transform="translate(381.55667 156.440601) scale(0.1 -0.1)">
      <use xlink:href="#DejaVuSans-35"/>
      <use xlink:href="#DejaVuSans-30" x="63.623047"/>
      <use xlink:href="#DejaVuSans-30" x="127.246094"/>
      <use xlink:href="#DejaVuSans-30" x="190.869141"/>
     </g>
    </g>
   </g>
   <g id="xtick_19">
    <g id="line2d_24">
     <path d="M 387.617336 129.473497 
L 388.935916 129.869022 
" style="fill: none; stroke: #000000; stroke-width: 0.8; stroke-linecap: square"/>
    </g>
    <g id="text_24">
     <!-- 10000 -->
     <g transform="translate(384.331438 149.836178) scale(0.1 -0.1)">
      <use xlink:href="#DejaVuSans-31"/>
      <use xlink:href="#DejaVuSans-30" x="63.623047"/>
      <use xlink:href="#DejaVuSans-30" x="127.246094"/>
      <use xlink:href="#DejaVuSans-30" x="190.869141"/>
      <use xlink:href="#DejaVuSans-30" x="254.492188"/>
     </g>
    </g>
   </g>
   <g id="text_25">
    <!-- window -->
    <g transform="translate(397.637585 179.537616) rotate(-45.742112) scale(0.1 -0.1)">
     <use xlink:href="#DejaVuSans-77"/>
     <use xlink:href="#DejaVuSans-69" x="81.787109"/>
     <use xlink:href="#DejaVuSans-6e" x="109.570312"/>
     <use xlink:href="#DejaVuSans-64" x="172.949219"/>
     <use xlink:href="#DejaVuSans-6f" x="236.425781"/>
     <use xlink:href="#DejaVuSans-77" x="297.607422"/>
    </g>
   </g>
  </g>
  <g id="axis3d_6">
   <g id="line2d_25">
    <path d="M 395.702607 121.758451 
L 397.537744 81.683747 
" style="fill: none; stroke: #000000; stroke-width: 0.8; stroke-linecap: square"/>
   </g>
   <g id="xtick_20">
    <g id="line2d_26">
     <path d="M 395.271019 121.633005 
L 396.56681 122.00964 
" style="fill: none; stroke: #000000; stroke-width: 0.8; stroke-linecap: square"/>
    </g>
    <g id="text_26">
     <!-- 0.0 -->
     <g transform="translate(405.904858 126.765427) scale(0.1 -0.1)">
      <use xlink:href="#DejaVuSans-30"/>
      <use xlink:href="#DejaVuSans-2e" x="63.623047"/>
      <use xlink:href="#DejaVuSans-30" x="95.410156"/>
     </g>
    </g>
   </g>
   <g id="xtick_21">
    <g id="line2d_27">
     <path d="M 396.158671 102.039815 
L 397.483951 102.400897 
" style="fill: none; stroke: #000000; stroke-width: 0.8; stroke-linecap: square"/>
    </g>
    <g id="text_27">
     <!-- 0.5 -->
     <g transform="translate(407.189216 107.274532) scale(0.1 -0.1)">
      <use xlink:href="#DejaVuSans-30"/>
      <use xlink:href="#DejaVuSans-2e" x="63.623047"/>
      <use xlink:href="#DejaVuSans-35" x="95.410156"/>
     </g>
    </g>
   </g>
   <g id="xtick_22">
    <g id="line2d_28">
     <path d="M 397.086071 81.569261 
L 398.442213 81.913003 
" style="fill: none; stroke: #000000; stroke-width: 0.8; stroke-linecap: square"/>
    </g>
    <g id="text_28">
     <!-- 1.0 -->
     <g transform="translate(408.530618 86.917952) scale(0.1 -0.1)">
      <use xlink:href="#DejaVuSans-31"/>
      <use xlink:href="#DejaVuSans-2e" x="63.623047"/>
      <use xlink:href="#DejaVuSans-30" x="95.410156"/>
     </g>
    </g>
   </g>
   <g id="text_29">
    <!-- precision -->
    <g transform="translate(438.239153 119.469097) rotate(-87.378092) scale(0.1 -0.1)">
     <use xlink:href="#DejaVuSans-70"/>
     <use xlink:href="#DejaVuSans-72" x="63.476562"/>
     <use xlink:href="#DejaVuSans-65" x="102.339844"/>
     <use xlink:href="#DejaVuSans-63" x="163.863281"/>
     <use xlink:href="#DejaVuSans-69" x="218.84375"/>
     <use xlink:href="#DejaVuSans-73" x="246.626953"/>
     <use xlink:href="#DejaVuSans-69" x="298.726562"/>
     <use xlink:href="#DejaVuSans-6f" x="326.509766"/>
     <use xlink:href="#DejaVuSans-6e" x="387.691406"/>
    </g>
   </g>
  </g>
  <g id="axes_2">
   <g id="Poly3DCollection_2">
    <path d="M 338.965003 114.879604 
L 345.53436 109.308079 
L 356.439436 112.500107 
L 350.001651 118.190188 
z
" clip-path="url(#p3b8020f39d)" style="fill: #80573c"/>
    <path d="M 345.53436 109.308079 
L 345.333609 89.522886 
L 356.47696 92.573237 
L 356.439436 112.500107 
z
" clip-path="url(#p3b8020f39d)" style="fill: #64442e"/>
    <path d="M 338.965003 114.879604 
L 338.614516 94.848029 
L 345.333609 89.522886 
L 345.53436 109.308079 
z
" clip-path="url(#p3b8020f39d)" style="fill: #d59063"/>
    <path d="M 356.439436 112.500107 
L 356.460426 101.353284 
L 367.735679 104.533997 
L 367.575649 115.759791 
z
" clip-path="url(#p3b8020f39d)" style="fill: #500130"/>
    <path d="M 350.001651 118.190188 
L 356.439436 112.500107 
L 367.575649 115.759791 
L 361.276597 121.572253 
z
" clip-path="url(#p3b8020f39d)" style="fill: #66013d"/>
    <path d="M 350.001651 118.190188 
L 349.94215 106.906057 
L 356.460426 101.353284 
L 356.439436 112.500107 
z
" clip-path="url(#p3b8020f39d)" style="fill: #a90266"/>
    <path d="M 338.965003 114.879604 
L 338.828283 107.065555 
L 349.960157 110.320957 
L 350.001651 118.190188 
z
" clip-path="url(#p3b8020f39d)" style="fill: #090c1c"/>
    <path d="M 350.001651 118.190188 
L 356.439436 112.500107 
L 356.47696 92.573237 
L 349.895264 98.01423 
z
" clip-path="url(#p3b8020f39d)" style="fill: #64442e"/>
    <path d="M 332.150676 120.65889 
L 331.951205 112.748901 
L 338.828283 107.065555 
L 338.965003 114.879604 
z
" clip-path="url(#p3b8020f39d)" style="fill: #131a3a"/>
    <path d="M 332.150676 120.65889 
L 338.965003 114.879604 
L 350.001651 118.190188 
L 343.321188 124.094761 
z
" clip-path="url(#p3b8020f39d)" style="fill: #0b0f23"/>
    <path d="M 367.575649 115.759791 
L 367.758221 102.952687 
L 379.2985 106.190913 
L 378.950425 119.089304 
z
" clip-path="url(#p3b8020f39d)" style="fill: #3c4d12"/>
    <path d="M 338.965003 114.879604 
L 350.001651 118.190188 
L 349.895264 98.01423 
L 338.614516 94.848029 
z
" clip-path="url(#p3b8020f39d)" style="fill: #d59063"/>
    <path d="M 361.276597 121.572253 
L 367.575649 115.759791 
L 378.950425 119.089304 
L 372.797644 125.02814 
z
" clip-path="url(#p3b8020f39d)" style="fill: #4d6217"/>
    <path d="M 338.614516 94.848029 
L 349.895264 98.01423 
L 356.47696 92.573237 
L 345.333609 89.522886 
z
" clip-path="url(#p3b8020f39d)" style="fill: #b97d56"/>
    <path d="M 361.276597 121.572253 
L 367.575649 115.759791 
L 367.735679 104.533997 
L 361.359651 110.20771 
z
" clip-path="url(#p3b8020f39d)" style="fill: #500130"/>
    <path d="M 378.950425 119.089304 
L 378.950425 119.089304 
L 390.571513 122.490916 
L 390.571513 122.490916 
z
" clip-path="url(#p3b8020f39d)" style="fill: #626931"/>
    <path d="M 350.001651 118.190188 
L 349.972668 112.693715 
L 361.31705 116.036997 
L 361.276597 121.572253 
z
" clip-path="url(#p3b8020f39d)" style="fill: #4c4052"/>
    <path d="M 349.94215 106.906057 
L 361.359651 110.20771 
L 367.735679 104.533997 
L 356.460426 101.353284 
z
" clip-path="url(#p3b8020f39d)" style="fill: #920258"/>
    <path d="M 361.276597 121.572253 
L 361.371354 108.606429 
L 367.758221 102.952687 
L 367.575649 115.759791 
z
" clip-path="url(#p3b8020f39d)" style="fill: #80a227"/>
    <path d="M 350.001651 118.190188 
L 361.276597 121.572253 
L 361.359651 110.20771 
L 349.94215 106.906057 
z
" clip-path="url(#p3b8020f39d)" style="fill: #a90266"/>
    <path d="M 372.797644 125.02814 
L 372.797644 125.02814 
L 378.950425 119.089304 
L 378.950425 119.089304 
z
" clip-path="url(#p3b8020f39d)" style="fill: #626931"/>
    <path d="M 343.321188 124.094761 
L 343.249997 118.530865 
L 349.972668 112.693715 
L 350.001651 118.190188 
z
" clip-path="url(#p3b8020f39d)" style="fill: #a087ae"/>
    <path d="M 331.951205 112.748901 
L 343.21926 116.128605 
L 349.960157 110.320957 
L 338.828283 107.065555 
z
" clip-path="url(#p3b8020f39d)" style="fill: #101633"/>
    <path d="M 343.321188 124.094761 
L 350.001651 118.190188 
L 349.960157 110.320957 
L 343.21926 116.128605 
z
" clip-path="url(#p3b8020f39d)" style="fill: #090c1c"/>
    <path d="M 343.321188 124.094761 
L 350.001651 118.190188 
L 361.276597 121.572253 
L 354.737485 127.606231 
z
" clip-path="url(#p3b8020f39d)" style="fill: #615269"/>
    <path d="M 332.150676 120.65889 
L 332.041735 116.338852 
L 343.265523 119.744237 
L 343.321188 124.094761 
z
" clip-path="url(#p3b8020f39d)" style="fill: #651452"/>
    <path d="M 332.150676 120.65889 
L 343.321188 124.094761 
L 343.21926 116.128605 
L 331.951205 112.748901 
z
" clip-path="url(#p3b8020f39d)" style="fill: #131a3a"/>
    <path d="M 372.797644 125.02814 
L 378.950425 119.089304 
L 390.571513 122.490916 
L 384.572938 128.56029 
z
" clip-path="url(#p3b8020f39d)" style="fill: #505629"/>
    <path d="M 372.797644 125.02814 
L 384.572938 128.56029 
L 390.571513 122.490916 
L 378.950425 119.089304 
z
" clip-path="url(#p3b8020f39d)" style="fill: #737b3a"/>
    <path d="M 361.276597 121.572253 
L 361.315032 116.313085 
L 372.904962 119.73177 
L 372.797644 125.02814 
z
" clip-path="url(#p3b8020f39d)" style="fill: #0a0d1f"/>
    <path d="M 372.797644 125.02814 
L 378.950425 119.089304 
L 379.2985 106.190913 
L 373.062249 111.969371 
z
" clip-path="url(#p3b8020f39d)" style="fill: #3c4d12"/>
    <path d="M 325.077416 126.65778 
L 324.931627 122.284748 
L 332.041735 116.338852 
L 332.150676 120.65889 
z
" clip-path="url(#p3b8020f39d)" style="fill: #d72bae"/>
    <path d="M 343.249997 118.530865 
L 354.737485 122.002878 
L 361.31705 116.036997 
L 349.972668 112.693715 
z
" clip-path="url(#p3b8020f39d)" style="fill: #8b7697"/>
    <path d="M 361.371354 108.606429 
L 373.062249 111.969371 
L 379.2985 106.190913 
L 367.758221 102.952687 
z
" clip-path="url(#p3b8020f39d)" style="fill: #6f8d22"/>
    <path d="M 325.077416 126.65778 
L 332.150676 120.65889 
L 343.321188 124.094761 
L 336.384064 130.226186 
z
" clip-path="url(#p3b8020f39d)" style="fill: #821a69"/>
    <path d="M 384.572938 128.56029 
L 390.571513 122.490916 
L 390.571513 122.490916 
L 384.572938 128.56029 
z
" clip-path="url(#p3b8020f39d)" style="fill: #626931"/>
    <path d="M 354.737485 127.606231 
L 354.737485 122.282395 
L 361.315032 116.313085 
L 361.276597 121.572253 
z
" clip-path="url(#p3b8020f39d)" style="fill: #161c43"/>
    <path d="M 354.737485 127.606231 
L 361.276597 121.572253 
L 361.31705 116.036997 
L 354.737485 122.002878 
z
" clip-path="url(#p3b8020f39d)" style="fill: #4c4052"/>
    <path d="M 361.276597 121.572253 
L 372.797644 125.02814 
L 373.062249 111.969371 
L 361.371354 108.606429 
z
" clip-path="url(#p3b8020f39d)" style="fill: #80a227"/>
    <path d="M 343.321188 124.094761 
L 343.288507 121.540588 
L 354.737485 125.03404 
L 354.737485 127.606231 
z
" clip-path="url(#p3b8020f39d)" style="fill: #532834"/>
    <path d="M 354.737485 127.606231 
L 361.276597 121.572253 
L 372.797644 125.02814 
L 366.40777 131.195824 
z
" clip-path="url(#p3b8020f39d)" style="fill: #0d1128"/>
    <path d="M 372.797644 125.02814 
L 384.572938 128.56029 
L 384.572938 128.56029 
L 372.797644 125.02814 
z
" clip-path="url(#p3b8020f39d)" style="fill: #626931"/>
    <path d="M 372.797644 125.02814 
L 372.797644 125.02814 
L 384.572938 128.56029 
L 384.572938 128.56029 
z
" clip-path="url(#p3b8020f39d)" style="fill: #484013"/>
    <path d="M 343.321188 124.094761 
L 354.737485 127.606231 
L 354.737485 122.002878 
L 343.249997 118.530865 
z
" clip-path="url(#p3b8020f39d)" style="fill: #a087ae"/>
    <path d="M 324.931627 122.284748 
L 336.292846 125.822147 
L 343.265523 119.744237 
L 332.041735 116.338852 
z
" clip-path="url(#p3b8020f39d)" style="fill: #bb2597"/>
    <path d="M 336.384064 130.226186 
L 336.330512 127.640695 
L 343.288507 121.540588 
L 343.321188 124.094761 
z
" clip-path="url(#p3b8020f39d)" style="fill: #af556e"/>
    <path d="M 336.384064 130.226186 
L 343.321188 124.094761 
L 343.265523 119.744237 
L 336.292846 125.822147 
z
" clip-path="url(#p3b8020f39d)" style="fill: #651452"/>
    <path d="M 366.40777 131.195824 
L 366.40777 131.195824 
L 372.797644 125.02814 
L 372.797644 125.02814 
z
" clip-path="url(#p3b8020f39d)" style="fill: #484013"/>
    <path d="M 354.737485 122.282395 
L 366.478462 125.83415 
L 372.904962 119.73177 
L 361.315032 116.313085 
z
" clip-path="url(#p3b8020f39d)" style="fill: #13193a"/>
    <path d="M 325.077416 126.65778 
L 324.996218 124.222197 
L 336.333261 127.773393 
L 336.384064 130.226186 
z
" clip-path="url(#p3b8020f39d)" style="fill: #090132"/>
    <path d="M 336.384064 130.226186 
L 343.321188 124.094761 
L 354.737485 127.606231 
L 347.944325 133.874633 
z
" clip-path="url(#p3b8020f39d)" style="fill: #6a3342"/>
    <path d="M 366.40777 131.195824 
L 372.797644 125.02814 
L 372.904962 119.73177 
L 366.478462 125.83415 
z
" clip-path="url(#p3b8020f39d)" style="fill: #0a0d1f"/>
    <path d="M 325.077416 126.65778 
L 336.384064 130.226186 
L 336.292846 125.822147 
L 324.931627 122.284748 
z
" clip-path="url(#p3b8020f39d)" style="fill: #d72bae"/>
    <path d="M 354.737485 127.606231 
L 354.737485 126.34441 
L 366.424524 129.9251 
L 366.40777 131.195824 
z
" clip-path="url(#p3b8020f39d)" style="fill: #05083b"/>
    <path d="M 336.330512 127.640695 
L 347.924281 131.270825 
L 354.737485 125.03404 
L 343.288507 121.540588 
z
" clip-path="url(#p3b8020f39d)" style="fill: #98495f"/>
    <path d="M 366.40777 131.195824 
L 372.797644 125.02814 
L 384.572938 128.56029 
L 378.340613 134.866175 
z
" clip-path="url(#p3b8020f39d)" style="fill: #3b350f"/>
    <path d="M 366.40777 131.195824 
L 378.340613 134.866175 
L 384.572938 128.56029 
L 372.797644 125.02814 
z
" clip-path="url(#p3b8020f39d)" style="fill: #554c16"/>
    <path d="M 317.730178 132.889033 
L 317.626899 130.423537 
L 324.996218 124.222197 
L 325.077416 126.65778 
z
" clip-path="url(#p3b8020f39d)" style="fill: #13026a"/>
    <path d="M 354.737485 127.606231 
L 366.40777 131.195824 
L 366.478462 125.83415 
L 354.737485 122.282395 
z
" clip-path="url(#p3b8020f39d)" style="fill: #161c43"/>
    <path d="M 347.944325 133.874633 
L 347.934492 132.597338 
L 354.737485 126.34441 
L 354.737485 127.606231 
z
" clip-path="url(#p3b8020f39d)" style="fill: #0b117d"/>
    <path d="M 347.944325 133.874633 
L 354.737485 127.606231 
L 354.737485 125.03404 
L 347.924281 131.270825 
z
" clip-path="url(#p3b8020f39d)" style="fill: #532834"/>
    <path d="M 317.730178 132.889033 
L 325.077416 126.65778 
L 336.384064 130.226186 
L 329.175197 136.597793 
z
" clip-path="url(#p3b8020f39d)" style="fill: #0b0140"/>
    <path d="M 378.340613 134.866175 
L 384.572938 128.56029 
L 384.572938 128.56029 
L 378.340613 134.866175 
z
" clip-path="url(#p3b8020f39d)" style="fill: #484013"/>
    <path d="M 336.384064 130.226186 
L 336.340852 128.139924 
L 347.928151 131.773604 
L 347.944325 133.874633 
z
" clip-path="url(#p3b8020f39d)" style="fill: #1d3e1f"/>
    <path d="M 317.626899 130.423537 
L 329.103049 134.114807 
L 336.333261 127.773393 
L 324.996218 124.222197 
z
" clip-path="url(#p3b8020f39d)" style="fill: #10025c"/>
    <path d="M 336.384064 130.226186 
L 347.944325 133.874633 
L 347.924281 131.270825 
L 336.330512 127.640695 
z
" clip-path="url(#p3b8020f39d)" style="fill: #af556e"/>
    <path d="M 347.944325 133.874633 
L 354.737485 127.606231 
L 366.40777 131.195824 
L 359.766829 137.605845 
z
" clip-path="url(#p3b8020f39d)" style="fill: #070a4b"/>
    <path d="M 366.40777 131.195824 
L 378.340613 134.866175 
L 378.340613 134.866175 
L 366.40777 131.195824 
z
" clip-path="url(#p3b8020f39d)" style="fill: #484013"/>
    <path d="M 347.934492 132.597338 
L 359.774191 136.319503 
L 366.424524 129.9251 
L 354.737485 126.34441 
z
" clip-path="url(#p3b8020f39d)" style="fill: #0a0f6c"/>
    <path d="M 366.40777 131.195824 
L 366.416364 130.543974 
L 378.358191 134.209721 
L 378.340613 134.866175 
z
" clip-path="url(#p3b8020f39d)" style="fill: #483653"/>
    <path d="M 329.175197 136.597793 
L 329.113831 134.485867 
L 336.340852 128.139924 
L 336.384064 130.226186 
z
" clip-path="url(#p3b8020f39d)" style="fill: #3d8342"/>
    <path d="M 329.175197 136.597793 
L 336.384064 130.226186 
L 336.333261 127.773393 
L 329.103049 134.114807 
z
" clip-path="url(#p3b8020f39d)" style="fill: #090132"/>
    <path d="M 359.766829 137.605845 
L 359.770606 136.945993 
L 366.416364 130.543974 
L 366.40777 131.195824 
z
" clip-path="url(#p3b8020f39d)" style="fill: #9873b1"/>
    <path d="M 359.766829 137.605845 
L 366.40777 131.195824 
L 366.424524 129.9251 
L 359.774191 136.319503 
z
" clip-path="url(#p3b8020f39d)" style="fill: #05083b"/>
    <path d="M 317.730178 132.889033 
L 329.175197 136.597793 
L 329.103049 134.114807 
L 317.626899 130.423537 
z
" clip-path="url(#p3b8020f39d)" style="fill: #13026a"/>
    <path d="M 329.175197 136.597793 
L 336.384064 130.226186 
L 347.944325 133.874633 
L 340.882018 140.391391 
z
" clip-path="url(#p3b8020f39d)" style="fill: #254f28"/>
    <path d="M 347.944325 133.874633 
L 347.941106 133.456522 
L 359.769239 137.184777 
L 359.766829 137.605845 
z
" clip-path="url(#p3b8020f39d)" style="fill: #343b41"/>
    <path d="M 347.944325 133.874633 
L 359.766829 137.605845 
L 359.774191 136.319503 
L 347.934492 132.597338 
z
" clip-path="url(#p3b8020f39d)" style="fill: #0b117d"/>
    <path d="M 329.113831 134.485867 
L 340.848374 138.264463 
L 347.928151 131.773604 
L 336.340852 128.139924 
z
" clip-path="url(#p3b8020f39d)" style="fill: #357239"/>
    <path d="M 359.766829 137.605845 
L 366.40777 131.195824 
L 378.340613 134.866175 
L 371.860602 141.422669 
z
" clip-path="url(#p3b8020f39d)" style="fill: #5c466b"/>
    <path d="M 359.770606 136.945993 
L 371.873607 140.75814 
L 378.358191 134.209721 
L 366.416364 130.543974 
z
" clip-path="url(#p3b8020f39d)" style="fill: #846499"/>
    <path d="M 340.882018 140.391391 
L 340.875323 139.968142 
L 347.941106 133.456522 
L 347.944325 133.874633 
z
" clip-path="url(#p3b8020f39d)" style="fill: #6f7d89"/>
    <path d="M 340.882018 140.391391 
L 347.944325 133.874633 
L 347.928151 131.773604 
L 340.848374 138.264463 
z
" clip-path="url(#p3b8020f39d)" style="fill: #1d3e1f"/>
    <path d="M 371.860602 141.422669 
L 378.340613 134.866175 
L 378.358191 134.209721 
L 371.873607 140.75814 
z
" clip-path="url(#p3b8020f39d)" style="fill: #483653"/>
    <path d="M 329.175197 136.597793 
L 340.882018 140.391391 
L 340.848374 138.264463 
L 329.113831 134.485867 
z
" clip-path="url(#p3b8020f39d)" style="fill: #3d8342"/>
    <path d="M 340.882018 140.391391 
L 347.944325 133.874633 
L 359.766829 137.605845 
L 352.859728 144.272771 
z
" clip-path="url(#p3b8020f39d)" style="fill: #434b53"/>
    <path d="M 340.875323 139.968142 
L 352.85881 143.84652 
L 359.769239 137.184777 
L 347.941106 133.456522 
z
" clip-path="url(#p3b8020f39d)" style="fill: #606c77"/>
    <path d="M 359.766829 137.605845 
L 359.767781 137.439589 
L 371.863878 141.255236 
L 371.860602 141.422669 
z
" clip-path="url(#p3b8020f39d)" style="fill: #332a33"/>
    <path d="M 359.766829 137.605845 
L 371.860602 141.422669 
L 371.873607 140.75814 
L 359.770606 136.945993 
z
" clip-path="url(#p3b8020f39d)" style="fill: #9873b1"/>
    <path d="M 352.859728 144.272771 
L 352.859366 144.104469 
L 359.767781 137.439589 
L 359.766829 137.605845 
z
" clip-path="url(#p3b8020f39d)" style="fill: #6b596c"/>
    <path d="M 352.859728 144.272771 
L 359.766829 137.605845 
L 359.769239 137.184777 
L 352.85881 143.84652 
z
" clip-path="url(#p3b8020f39d)" style="fill: #343b41"/>
    <path d="M 340.882018 140.391391 
L 352.859728 144.272771 
L 352.85881 143.84652 
L 340.875323 139.968142 
z
" clip-path="url(#p3b8020f39d)" style="fill: #6f7d89"/>
    <path d="M 352.859728 144.272771 
L 359.766829 137.605845 
L 371.860602 141.422669 
L 365.11784 148.245014 
z
" clip-path="url(#p3b8020f39d)" style="fill: #413641"/>
    <path d="M 352.859366 144.104469 
L 365.119867 148.075518 
L 371.863878 141.255236 
L 359.767781 137.439589 
z
" clip-path="url(#p3b8020f39d)" style="fill: #5d4e5e"/>
    <path d="M 365.11784 148.245014 
L 371.860602 141.422669 
L 371.863878 141.255236 
L 365.119867 148.075518 
z
" clip-path="url(#p3b8020f39d)" style="fill: #332a33"/>
    <path d="M 352.859728 144.272771 
L 365.11784 148.245014 
L 365.119867 148.075518 
L 352.859366 144.104469 
z
" clip-path="url(#p3b8020f39d)" style="fill: #6b596c"/>
   </g>
   <g id="text_30">
    <!-- graph -->
    <g transform="translate(335.862024 54.558261) scale(0.12 -0.12)">
     <use xlink:href="#DejaVuSans-67"/>
     <use xlink:href="#DejaVuSans-72" x="63.476562"/>
     <use xlink:href="#DejaVuSans-61" x="104.589844"/>
     <use xlink:href="#DejaVuSans-70" x="165.869141"/>
     <use xlink:href="#DejaVuSans-68" x="229.345703"/>
    </g>
   </g>
  </g>
  <g id="patch_10">
   <path d="M 421.356522 157.601739 
L 518.4 157.601739 
L 518.4 60.558261 
L 421.356522 60.558261 
z
" style="fill: #ffffff"/>
  </g>
  <g id="pane3d_7">
   <g id="patch_11">
    <path d="M 428.683974 133.673927 
L 460.730899 106.811559 
L 460.285416 68.071221 
L 426.70488 92.576767 
" style="fill: #f2f2f2; opacity: 0.5; stroke: #f2f2f2; stroke-linejoin: miter"/>
   </g>
  </g>
  <g id="pane3d_8">
   <g id="patch_12">
    <path d="M 460.730899 106.811559 
L 512.154781 121.758451 
L 513.989918 81.683747 
L 460.285416 68.071221 
" style="fill: #e6e6e6; opacity: 0.5; stroke: #e6e6e6; stroke-linejoin: miter"/>
   </g>
  </g>
  <g id="pane3d_9">
   <g id="patch_13">
    <path d="M 428.683974 133.673927 
L 483.1958 151.47749 
L 512.154781 121.758451 
L 460.730899 106.811559 
" style="fill: #ececec; opacity: 0.5; stroke: #ececec; stroke-linejoin: miter"/>
   </g>
  </g>
  <g id="grid3d_7">
   <g id="Line3DCollection_7">
    <path d="M 431.985496 134.752205 
L 463.858342 107.720583 
L 463.54509 68.897453 
" style="fill: none; stroke: #b0b0b0; stroke-width: 0.8"/>
    <path d="M 455.221338 142.341031 
L 485.821719 114.104469 
L 486.460674 74.705886 
" style="fill: none; stroke: #b0b0b0; stroke-width: 0.8"/>
   </g>
  </g>
  <g id="grid3d_8">
   <g id="Line3DCollection_8">
    <path d="M 429.027057 90.882148 
L 430.892278 131.822883 
L 485.199537 149.421162 
" style="fill: none; stroke: #b0b0b0; stroke-width: 0.8"/>
    <path d="M 436.785209 85.220602 
L 438.278393 125.631695 
L 491.892572 142.552462 
" style="fill: none; stroke: #b0b0b0; stroke-width: 0.8"/>
    <path d="M 444.242134 79.778878 
L 445.389944 119.670652 
L 498.323936 135.9523 
" style="fill: none; stroke: #b0b0b0; stroke-width: 0.8"/>
    <path d="M 451.415044 74.544415 
L 452.241959 113.927157 
L 504.50868 129.605231 
" style="fill: none; stroke: #b0b0b0; stroke-width: 0.8"/>
   </g>
  </g>
  <g id="grid3d_9">
   <g id="Line3DCollection_9">
    <path d="M 512.154781 121.758451 
L 460.730899 106.811559 
L 428.683974 133.673927 
" style="fill: none; stroke: #b0b0b0; stroke-width: 0.8"/>
    <path d="M 513.052247 102.160078 
L 460.512803 87.845316 
L 427.71694 113.592842 
" style="fill: none; stroke: #b0b0b0; stroke-width: 0.8"/>
    <path d="M 513.989918 81.683747 
L 460.285416 68.071221 
L 426.70488 92.576767 
" style="fill: none; stroke: #b0b0b0; stroke-width: 0.8"/>
   </g>
  </g>
  <g id="axis3d_7">
   <g id="line2d_29">
    <path d="M 428.683974 133.673927 
L 483.1958 151.47749 
" style="fill: none; stroke: #000000; stroke-width: 0.8; stroke-linecap: square"/>
   </g>
   <g id="xtick_23">
    <g id="line2d_30">
     <path d="M 432.263043 134.516815 
L 431.429211 135.223994 
" style="fill: none; stroke: #000000; stroke-width: 0.8; stroke-linecap: square"/>
    </g>
    <g id="text_31">
     <!-- 0.05 -->
     <g transform="translate(413.274556 158.163762) scale(0.1 -0.1)">
      <use xlink:href="#DejaVuSans-30"/>
      <use xlink:href="#DejaVuSans-2e" x="63.623047"/>
      <use xlink:href="#DejaVuSans-30" x="95.410156"/>
      <use xlink:href="#DejaVuSans-35" x="159.033203"/>
     </g>
    </g>
   </g>
   <g id="xtick_24">
    <g id="line2d_31">
     <path d="M 455.488303 142.094689 
L 454.686237 142.834796 
" style="fill: none; stroke: #000000; stroke-width: 0.8; stroke-linecap: square"/>
    </g>
    <g id="text_32">
     <!-- 0.1 -->
     <g transform="translate(439.759403 166.199903) scale(0.1 -0.1)">
      <use xlink:href="#DejaVuSans-30"/>
      <use xlink:href="#DejaVuSans-2e" x="63.623047"/>
      <use xlink:href="#DejaVuSans-31" x="95.410156"/>
     </g>
    </g>
   </g>
   <g id="text_33">
    <!-- support -->
    <g transform="translate(419.585753 174.794019) rotate(-341.912962) scale(0.1 -0.1)">
     <use xlink:href="#DejaVuSans-73"/>
     <use xlink:href="#DejaVuSans-75" x="52.099609"/>
     <use xlink:href="#DejaVuSans-70" x="115.478516"/>
     <use xlink:href="#DejaVuSans-70" x="178.955078"/>
     <use xlink:href="#DejaVuSans-6f" x="242.431641"/>
     <use xlink:href="#DejaVuSans-72" x="303.613281"/>
     <use xlink:href="#DejaVuSans-74" x="344.726562"/>
    </g>
   </g>
  </g>
  <g id="axis3d_8">
   <g id="line2d_32">
    <path d="M 512.154781 121.758451 
L 483.1958 151.47749 
" style="fill: none; stroke: #000000; stroke-width: 0.8; stroke-linecap: square"/>
   </g>
   <g id="xtick_25">
    <g id="line2d_33">
     <path d="M 484.741888 149.272861 
L 486.116018 149.718148 
" style="fill: none; stroke: #000000; stroke-width: 0.8; stroke-linecap: square"/>
    </g>
    <g id="text_34">
     <!-- 1000 -->
     <g transform="translate(485.368622 170.45691) scale(0.1 -0.1)">
      <use xlink:href="#DejaVuSans-31"/>
      <use xlink:href="#DejaVuSans-30" x="63.623047"/>
      <use xlink:href="#DejaVuSans-30" x="127.246094"/>
      <use xlink:href="#DejaVuSans-30" x="190.869141"/>
     </g>
    </g>
   </g>
   <g id="xtick_26">
    <g id="line2d_34">
     <path d="M 491.44122 142.410014 
L 492.79642 142.837718 
" style="fill: none; stroke: #000000; stroke-width: 0.8; stroke-linecap: square"/>
    </g>
    <g id="text_35">
     <!-- 2000 -->
     <g transform="translate(491.814945 163.308803) scale(0.1 -0.1)">
      <use xlink:href="#DejaVuSans-32"/>
      <use xlink:href="#DejaVuSans-30" x="63.623047"/>
      <use xlink:href="#DejaVuSans-30" x="127.246094"/>
      <use xlink:href="#DejaVuSans-30" x="190.869141"/>
     </g>
    </g>
   </g>
   <g id="xtick_27">
    <g id="line2d_35">
     <path d="M 497.878743 135.815366 
L 499.215428 136.226509 
" style="fill: none; stroke: #000000; stroke-width: 0.8; stroke-linecap: square"/>
    </g>
    <g id="text_36">
     <!-- 5000 -->
     <g transform="translate(498.008844 156.440601) scale(0.1 -0.1)">
      <use xlink:href="#DejaVuSans-35"/>
      <use xlink:href="#DejaVuSans-30" x="63.623047"/>
      <use xlink:href="#DejaVuSans-30" x="127.246094"/>
      <use xlink:href="#DejaVuSans-30" x="190.869141"/>
     </g>
    </g>
   </g>
   <g id="xtick_28">
    <g id="line2d_36">
     <path d="M 504.06951 129.473497 
L 505.38809 129.869022 
" style="fill: none; stroke: #000000; stroke-width: 0.8; stroke-linecap: square"/>
    </g>
    <g id="text_37">
     <!-- 10000 -->
     <g transform="translate(500.783612 149.836178) scale(0.1 -0.1)">
      <use xlink:href="#DejaVuSans-31"/>
      <use xlink:href="#DejaVuSans-30" x="63.623047"/>
      <use xlink:href="#DejaVuSans-30" x="127.246094"/>
      <use xlink:href="#DejaVuSans-30" x="190.869141"/>
      <use xlink:href="#DejaVuSans-30" x="254.492188"/>
     </g>
    </g>
   </g>
   <g id="text_38">
    <!-- window -->
    <g transform="translate(514.089759 179.537616) rotate(-45.742112) scale(0.1 -0.1)">
     <use xlink:href="#DejaVuSans-77"/>
     <use xlink:href="#DejaVuSans-69" x="81.787109"/>
     <use xlink:href="#DejaVuSans-6e" x="109.570312"/>
     <use xlink:href="#DejaVuSans-64" x="172.949219"/>
     <use xlink:href="#DejaVuSans-6f" x="236.425781"/>
     <use xlink:href="#DejaVuSans-77" x="297.607422"/>
    </g>
   </g>
  </g>
  <g id="axis3d_9">
   <g id="line2d_37">
    <path d="M 512.154781 121.758451 
L 513.989918 81.683747 
" style="fill: none; stroke: #000000; stroke-width: 0.8; stroke-linecap: square"/>
   </g>
   <g id="xtick_29">
    <g id="line2d_38">
     <path d="M 511.723193 121.633005 
L 513.018983 122.00964 
" style="fill: none; stroke: #000000; stroke-width: 0.8; stroke-linecap: square"/>
    </g>
    <g id="text_39">
     <!-- 0.0 -->
     <g transform="translate(522.357032 126.765427) scale(0.1 -0.1)">
      <use xlink:href="#DejaVuSans-30"/>
      <use xlink:href="#DejaVuSans-2e" x="63.623047"/>
      <use xlink:href="#DejaVuSans-30" x="95.410156"/>
     </g>
    </g>
   </g>
   <g id="xtick_30">
    <g id="line2d_39">
     <path d="M 512.610845 102.039815 
L 513.936125 102.400897 
" style="fill: none; stroke: #000000; stroke-width: 0.8; stroke-linecap: square"/>
    </g>
    <g id="text_40">
     <!-- 0.5 -->
     <g transform="translate(523.64139 107.274532) scale(0.1 -0.1)">
      <use xlink:href="#DejaVuSans-30"/>
      <use xlink:href="#DejaVuSans-2e" x="63.623047"/>
      <use xlink:href="#DejaVuSans-35" x="95.410156"/>
     </g>
    </g>
   </g>
   <g id="xtick_31">
    <g id="line2d_40">
     <path d="M 513.538245 81.569261 
L 514.894387 81.913003 
" style="fill: none; stroke: #000000; stroke-width: 0.8; stroke-linecap: square"/>
    </g>
    <g id="text_41">
     <!-- 1.0 -->
     <g transform="translate(524.982792 86.917952) scale(0.1 -0.1)">
      <use xlink:href="#DejaVuSans-31"/>
      <use xlink:href="#DejaVuSans-2e" x="63.623047"/>
      <use xlink:href="#DejaVuSans-30" x="95.410156"/>
     </g>
    </g>
   </g>
   <g id="text_42">
    <!-- precision -->
    <g transform="translate(554.691327 119.469097) rotate(-87.378092) scale(0.1 -0.1)">
     <use xlink:href="#DejaVuSans-70"/>
     <use xlink:href="#DejaVuSans-72" x="63.476562"/>
     <use xlink:href="#DejaVuSans-65" x="102.339844"/>
     <use xlink:href="#DejaVuSans-63" x="163.863281"/>
     <use xlink:href="#DejaVuSans-69" x="218.84375"/>
     <use xlink:href="#DejaVuSans-73" x="246.626953"/>
     <use xlink:href="#DejaVuSans-69" x="298.726562"/>
     <use xlink:href="#DejaVuSans-6f" x="326.509766"/>
     <use xlink:href="#DejaVuSans-6e" x="387.691406"/>
    </g>
   </g>
  </g>
  <g id="axes_3">
   <g id="Poly3DCollection_3">
    <path d="M 455.417177 114.879604 
L 455.19352 102.096798 
L 461.85841 96.680673 
L 461.986534 109.308079 
z
" clip-path="url(#p219b5f1749)" style="fill: #136013"/>
    <path d="M 461.986534 109.308079 
L 461.85841 96.680673 
L 484.210395 102.952687 
L 484.027823 115.759791 
z
" clip-path="url(#p219b5f1749)" style="fill: #092d09"/>
    <path d="M 455.417177 114.879604 
L 461.986534 109.308079 
L 484.027823 115.759791 
L 477.728771 121.572253 
z
" clip-path="url(#p219b5f1749)" style="fill: #0b3a0c"/>
    <path d="M 448.60285 120.65889 
L 448.530236 117.77939 
L 455.367401 112.034737 
L 455.417177 114.879604 
z
" clip-path="url(#p219b5f1749)" style="fill: #0f863a"/>
    <path d="M 455.417177 114.879604 
L 455.367401 112.034737 
L 477.749854 118.687341 
L 477.728771 121.572253 
z
" clip-path="url(#p219b5f1749)" style="fill: #073f1c"/>
    <path d="M 455.19352 102.096798 
L 477.823528 108.606429 
L 484.210395 102.952687 
L 461.85841 96.680673 
z
" clip-path="url(#p219b5f1749)" style="fill: #105311"/>
    <path d="M 455.417177 114.879604 
L 477.728771 121.572253 
L 477.823528 108.606429 
L 455.19352 102.096798 
z
" clip-path="url(#p219b5f1749)" style="fill: #136013"/>
    <path d="M 477.728771 121.572253 
L 484.027823 115.759791 
L 484.210395 102.952687 
L 477.823528 108.606429 
z
" clip-path="url(#p219b5f1749)" style="fill: #092d09"/>
    <path d="M 448.60285 120.65889 
L 455.417177 114.879604 
L 477.728771 121.572253 
L 471.189659 127.606231 
z
" clip-path="url(#p219b5f1749)" style="fill: #095123"/>
    <path d="M 477.728771 121.572253 
L 484.027823 115.759791 
L 507.023686 122.490916 
L 501.025112 128.56029 
z
" clip-path="url(#p219b5f1749)" style="fill: #2b064f"/>
    <path d="M 448.530236 117.77939 
L 471.189659 124.685993 
L 477.749854 118.687341 
L 455.367401 112.034737 
z
" clip-path="url(#p219b5f1749)" style="fill: #0d7533"/>
    <path d="M 441.52959 126.65778 
L 441.459303 124.549472 
L 448.550325 118.576033 
L 448.60285 120.65889 
z
" clip-path="url(#p219b5f1749)" style="fill: #1f8d80"/>
    <path d="M 448.60285 120.65889 
L 448.550325 118.576033 
L 471.189659 125.493947 
L 471.189659 127.606231 
z
" clip-path="url(#p219b5f1749)" style="fill: #0f423c"/>
    <path d="M 448.60285 120.65889 
L 471.189659 127.606231 
L 471.189659 124.685993 
L 448.530236 117.77939 
z
" clip-path="url(#p219b5f1749)" style="fill: #0f863a"/>
    <path d="M 471.189659 127.606231 
L 477.728771 121.572253 
L 477.749854 118.687341 
L 471.189659 124.685993 
z
" clip-path="url(#p219b5f1749)" style="fill: #073f1c"/>
    <path d="M 471.189659 127.606231 
L 471.189659 123.016891 
L 477.761904 117.038589 
L 477.728771 121.572253 
z
" clip-path="url(#p219b5f1749)" style="fill: #bd7bc0"/>
    <path d="M 477.728771 121.572253 
L 478.021527 81.513818 
L 484.591575 76.213704 
L 484.027823 115.759791 
z
" clip-path="url(#p219b5f1749)" style="fill: #460983"/>
    <path d="M 477.728771 121.572253 
L 477.761904 117.038589 
L 501.179639 123.962252 
L 501.025112 128.56029 
z
" clip-path="url(#p219b5f1749)" style="fill: #593a5b"/>
    <path d="M 484.027823 115.759791 
L 484.591575 76.213704 
L 508.632841 82.352301 
L 507.023686 122.490916 
z
" clip-path="url(#p219b5f1749)" style="fill: #21043e"/>
    <path d="M 441.52959 126.65778 
L 448.60285 120.65889 
L 471.189659 127.606231 
L 464.396499 133.874633 
z
" clip-path="url(#p219b5f1749)" style="fill: #13554d"/>
    <path d="M 441.459303 124.549472 
L 464.380039 131.736407 
L 471.189659 125.493947 
L 448.550325 118.576033 
z
" clip-path="url(#p219b5f1749)" style="fill: #1b7a6f"/>
    <path d="M 471.189659 127.606231 
L 477.728771 121.572253 
L 501.025112 128.56029 
L 494.792787 134.866175 
z
" clip-path="url(#p219b5f1749)" style="fill: #724a74"/>
    <path d="M 471.189659 123.016891 
L 494.917429 130.211376 
L 501.179639 123.962252 
L 477.761904 117.038589 
z
" clip-path="url(#p219b5f1749)" style="fill: #a46ba7"/>
    <path d="M 441.52959 126.65778 
L 464.396499 133.874633 
L 464.380039 131.736407 
L 441.459303 124.549472 
z
" clip-path="url(#p219b5f1749)" style="fill: #1f8d80"/>
    <path d="M 464.396499 133.874633 
L 464.383131 132.138113 
L 471.189659 125.890765 
L 471.189659 127.606231 
z
" clip-path="url(#p219b5f1749)" style="fill: #361a2e"/>
    <path d="M 464.396499 133.874633 
L 471.189659 127.606231 
L 471.189659 125.493947 
L 464.380039 131.736407 
z
" clip-path="url(#p219b5f1749)" style="fill: #0f423c"/>
    <path d="M 471.189659 127.606231 
L 471.189659 125.890765 
L 494.839374 133.126368 
L 494.792787 134.866175 
z
" clip-path="url(#p219b5f1749)" style="fill: #1a0c16"/>
    <path d="M 471.189659 127.606231 
L 494.792787 134.866175 
L 494.917429 130.211376 
L 471.189659 123.016891 
z
" clip-path="url(#p219b5f1749)" style="fill: #bd7bc0"/>
    <path d="M 477.728771 121.572253 
L 501.025112 128.56029 
L 502.391674 87.897427 
L 478.021527 81.513818 
z
" clip-path="url(#p219b5f1749)" style="fill: #460983"/>
    <path d="M 494.792787 134.866175 
L 501.025112 128.56029 
L 501.179639 123.962252 
L 494.917429 130.211376 
z
" clip-path="url(#p219b5f1749)" style="fill: #593a5b"/>
    <path d="M 501.025112 128.56029 
L 507.023686 122.490916 
L 508.632841 82.352301 
L 502.391674 87.897427 
z
" clip-path="url(#p219b5f1749)" style="fill: #21043e"/>
    <path d="M 464.396499 133.874633 
L 471.189659 127.606231 
L 494.792787 134.866175 
L 488.312775 141.422669 
z
" clip-path="url(#p219b5f1749)" style="fill: #21101c"/>
    <path d="M 464.383131 132.138113 
L 488.347245 139.661419 
L 494.839374 133.126368 
L 471.189659 125.890765 
z
" clip-path="url(#p219b5f1749)" style="fill: #2f1728"/>
    <path d="M 478.021527 81.513818 
L 502.391674 87.897427 
L 508.632841 82.352301 
L 484.591575 76.213704 
z
" clip-path="url(#p219b5f1749)" style="fill: #3d0872"/>
    <path d="M 457.334192 140.391391 
L 457.3098 138.849345 
L 464.384773 132.351344 
L 464.396499 133.874633 
z
" clip-path="url(#p219b5f1749)" style="fill: #05896a"/>
    <path d="M 464.396499 133.874633 
L 464.384773 132.351344 
L 488.343013 139.877695 
L 488.312775 141.422669 
z
" clip-path="url(#p219b5f1749)" style="fill: #024132"/>
    <path d="M 464.396499 133.874633 
L 488.312775 141.422669 
L 488.347245 139.661419 
L 464.383131 132.138113 
z
" clip-path="url(#p219b5f1749)" style="fill: #361a2e"/>
    <path d="M 488.312775 141.422669 
L 494.792787 134.866175 
L 494.839374 133.126368 
L 488.347245 139.661419 
z
" clip-path="url(#p219b5f1749)" style="fill: #1a0c16"/>
    <path d="M 457.334192 140.391391 
L 464.396499 133.874633 
L 488.312775 141.422669 
L 481.570014 148.245014 
z
" clip-path="url(#p219b5f1749)" style="fill: #035340"/>
    <path d="M 457.3098 138.849345 
L 481.588717 146.680954 
L 488.343013 139.877695 
L 464.384773 132.351344 
z
" clip-path="url(#p219b5f1749)" style="fill: #04775c"/>
    <path d="M 457.334192 140.391391 
L 481.570014 148.245014 
L 481.588717 146.680954 
L 457.3098 138.849345 
z
" clip-path="url(#p219b5f1749)" style="fill: #05896a"/>
    <path d="M 481.570014 148.245014 
L 488.312775 141.422669 
L 488.343013 139.877695 
L 481.588717 146.680954 
z
" clip-path="url(#p219b5f1749)" style="fill: #024132"/>
   </g>
   <g id="text_43">
    <!-- stream -->
    <g transform="translate(448.855761 54.558261) scale(0.12 -0.12)">
     <defs>
      <path id="DejaVuSans-6d" d="M 3328 2828 
Q 3544 3216 3844 3400 
Q 4144 3584 4550 3584 
Q 5097 3584 5394 3201 
Q 5691 2819 5691 2113 
L 5691 0 
L 5113 0 
L 5113 2094 
Q 5113 2597 4934 2840 
Q 4756 3084 4391 3084 
Q 3944 3084 3684 2787 
Q 3425 2491 3425 1978 
L 3425 0 
L 2847 0 
L 2847 2094 
Q 2847 2600 2669 2842 
Q 2491 3084 2119 3084 
Q 1678 3084 1418 2786 
Q 1159 2488 1159 1978 
L 1159 0 
L 581 0 
L 581 3500 
L 1159 3500 
L 1159 2956 
Q 1356 3278 1631 3431 
Q 1906 3584 2284 3584 
Q 2666 3584 2933 3390 
Q 3200 3197 3328 2828 
z
" transform="scale(0.015625)"/>
     </defs>
     <use xlink:href="#DejaVuSans-73"/>
     <use xlink:href="#DejaVuSans-74" x="52.099609"/>
     <use xlink:href="#DejaVuSans-72" x="91.308594"/>
     <use xlink:href="#DejaVuSans-65" x="130.171875"/>
     <use xlink:href="#DejaVuSans-61" x="191.695312"/>
     <use xlink:href="#DejaVuSans-6d" x="252.974609"/>
    </g>
   </g>
  </g>
 </g>
 <defs>
  <clipPath id="pe40bfbbf0a">
   <rect x="188.452174" y="60.558261" width="97.043478" height="97.043478"/>
  </clipPath>
  <clipPath id="p3b8020f39d">
   <rect x="304.904348" y="60.558261" width="97.043478" height="97.043478"/>
  </clipPath>
  <clipPath id="p219b5f1749">
   <rect x="421.356522" y="60.558261" width="97.043478" height="97.043478"/>
  </clipPath>
 </defs>
</svg>
