<?xml version="1.0" encoding="utf-8" standalone="no"?>
<!DOCTYPE svg PUBLIC "-//W3C//DTD SVG 1.1//EN"
  "http://www.w3.org/Graphics/SVG/1.1/DTD/svg11.dtd">
<svg xmlns:xlink="http://www.w3.org/1999/xlink" width="576pt" height="216pt" viewBox="0 0 576 216" xmlns="http://www.w3.org/2000/svg" version="1.1">
 <metadata>
  <rdf:RDF xmlns:dc="http://purl.org/dc/elements/1.1/" xmlns:cc="http://creativecommons.org/ns#" xmlns:rdf="http://www.w3.org/1999/02/22-rdf-syntax-ns#">
   <cc:Work>
    <dc:type rdf:resource="http://purl.org/dc/dcmitype/StillImage"/>
    <dc:date>2025-08-04T00:13:38.888586</dc:date>
    <dc:format>image/svg+xml</dc:format>
    <dc:creator>
     <cc:Agent>
      <dc:title>Matplotlib v3.9.0, https://matplotlib.org/</dc:title>
     </cc:Agent>
    </dc:creator>
   </cc:Work>
  </rdf:RDF>
 </metadata>
 <defs>
  <style type="text/css">*{stroke-linejoin: round; stroke-linecap: butt}</style>
 </defs>
 <g id="figure_1">
  <g id="patch_1">
   <path d="M 0 216 
L 576 216 
L 576 0 
L 0 0 
z
" style="fill: #ffffff"/>
  </g>
  <g id="patch_2">
   <path d="M 229.552941 174.727059 
L 360.847059 174.727059 
L 360.847059 43.432941 
L 229.552941 43.432941 
z
" style="fill: #ffffff"/>
  </g>
  <g id="pane3d_1">
   <g id="patch_3">
    <path d="M 239.466552 142.354137 
L 282.824158 106.010932 
L 282.221446 53.597534 
L 236.788955 86.752097 
" style="fill: #f2f2f2; opacity: 0.5; stroke: #f2f2f2; stroke-linejoin: miter"/>
   </g>
  </g>
  <g id="pane3d_2">
   <g id="patch_4">
    <path d="M 282.824158 106.010932 
L 352.397645 126.233198 
L 354.880477 72.014481 
L 282.221446 53.597534 
" style="fill: #e6e6e6; opacity: 0.5; stroke: #e6e6e6; stroke-linejoin: miter"/>
   </g>
  </g>
  <g id="pane3d_3">
   <g id="patch_5">
    <path d="M 239.466552 142.354137 
L 313.217847 166.44131 
L 352.397645 126.233198 
L 282.824158 106.010932 
" style="fill: #ececec; opacity: 0.5; stroke: #ececec; stroke-linejoin: miter"/>
   </g>
  </g>
  <g id="grid3d_1">
   <g id="Line3DCollection_1">
    <path d="M 243.933318 143.812983 
L 287.055404 107.240789 
L 286.631593 54.715378 
" style="fill: none; stroke: #b0b0b0; stroke-width: 0.8"/>
    <path d="M 259.472916 148.888215 
L 301.758 111.514253 
L 301.964624 58.601855 
" style="fill: none; stroke: #b0b0b0; stroke-width: 0.8"/>
    <path d="M 275.370046 154.080218 
L 316.770561 115.877812 
L 317.635029 62.573845 
" style="fill: none; stroke: #b0b0b0; stroke-width: 0.8"/>
    <path d="M 291.637189 159.393067 
L 332.102995 120.334345 
L 333.654066 66.634204 
" style="fill: none; stroke: #b0b0b0; stroke-width: 0.8"/>
   </g>
  </g>
  <g id="grid3d_2">
   <g id="Line3DCollection_2">
    <path d="M 239.930725 84.459376 
L 242.454258 139.849783 
L 315.928785 163.659219 
" style="fill: none; stroke: #b0b0b0; stroke-width: 0.8"/>
    <path d="M 250.427047 76.799639 
L 252.447238 131.473469 
L 324.984068 154.366272 
" style="fill: none; stroke: #b0b0b0; stroke-width: 0.8"/>
    <path d="M 260.515829 69.437305 
L 262.068747 123.408529 
L 333.685325 145.436641 
" style="fill: none; stroke: #b0b0b0; stroke-width: 0.8"/>
    <path d="M 270.220354 62.355385 
L 271.339121 115.637918 
L 342.05292 136.849431 
" style="fill: none; stroke: #b0b0b0; stroke-width: 0.8"/>
   </g>
  </g>
  <g id="grid3d_3">
   <g id="Line3DCollection_3">
    <path d="M 352.397645 126.233198 
L 282.824158 106.010932 
L 239.466552 142.354137 
" style="fill: none; stroke: #b0b0b0; stroke-width: 0.8"/>
    <path d="M 352.998176 113.119128 
L 282.678144 93.31322 
L 238.81974 128.922661 
" style="fill: none; stroke: #b0b0b0; stroke-width: 0.8"/>
    <path d="M 353.611864 99.717753 
L 282.529086 80.350722 
L 238.158212 115.185609 
" style="fill: none; stroke: #b0b0b0; stroke-width: 0.8"/>
    <path d="M 354.239145 86.019529 
L 282.376887 67.115069 
L 237.481461 101.132434 
" style="fill: none; stroke: #b0b0b0; stroke-width: 0.8"/>
    <path d="M 354.880477 72.014481 
L 282.221446 53.597534 
L 236.788955 86.752097 
" style="fill: none; stroke: #b0b0b0; stroke-width: 0.8"/>
   </g>
  </g>
  <g id="axis3d_1">
   <g id="line2d_1">
    <path d="M 239.466552 142.354137 
L 313.217847 166.44131 
" style="fill: none; stroke: #000000; stroke-width: 0.8; stroke-linecap: square"/>
   </g>
   <g id="xtick_1">
    <g id="line2d_2">
     <path d="M 244.308823 143.494514 
L 243.180697 144.451286 
" style="fill: none; stroke: #000000; stroke-width: 0.8; stroke-linecap: square"/>
    </g>
    <g id="text_1">
     <!-- 0.005 -->
     <g transform="translate(222.061357 167.18233) scale(0.1 -0.1)">
      <defs>
       <path id="DejaVuSans-30" d="M 2034 4250 
Q 1547 4250 1301 3770 
Q 1056 3291 1056 2328 
Q 1056 1369 1301 889 
Q 1547 409 2034 409 
Q 2525 409 2770 889 
Q 3016 1369 3016 2328 
Q 3016 3291 2770 3770 
Q 2525 4250 2034 4250 
z
M 2034 4750 
Q 2819 4750 3233 4129 
Q 3647 3509 3647 2328 
Q 3647 1150 3233 529 
Q 2819 -91 2034 -91 
Q 1250 -91 836 529 
Q 422 1150 422 2328 
Q 422 3509 836 4129 
Q 1250 4750 2034 4750 
z
" transform="scale(0.015625)"/>
       <path id="DejaVuSans-2e" d="M 684 794 
L 1344 794 
L 1344 0 
L 684 0 
L 684 794 
z
" transform="scale(0.015625)"/>
       <path id="DejaVuSans-35" d="M 691 4666 
L 3169 4666 
L 3169 4134 
L 1269 4134 
L 1269 2991 
Q 1406 3038 1543 3061 
Q 1681 3084 1819 3084 
Q 2600 3084 3056 2656 
Q 3513 2228 3513 1497 
Q 3513 744 3044 326 
Q 2575 -91 1722 -91 
Q 1428 -91 1123 -41 
Q 819 9 494 109 
L 494 744 
Q 775 591 1075 516 
Q 1375 441 1709 441 
Q 2250 441 2565 725 
Q 2881 1009 2881 1497 
Q 2881 1984 2565 2268 
Q 2250 2553 1709 2553 
Q 1456 2553 1204 2497 
Q 953 2441 691 2322 
L 691 4666 
z
" transform="scale(0.015625)"/>
      </defs>
      <use xlink:href="#DejaVuSans-30"/>
      <use xlink:href="#DejaVuSans-2e" x="63.623047"/>
      <use xlink:href="#DejaVuSans-30" x="95.410156"/>
      <use xlink:href="#DejaVuSans-30" x="159.033203"/>
      <use xlink:href="#DejaVuSans-35" x="222.65625"/>
     </g>
    </g>
   </g>
   <g id="xtick_2">
    <g id="line2d_3">
     <path d="M 259.841473 148.562464 
L 258.734204 149.541131 
" style="fill: none; stroke: #000000; stroke-width: 0.8; stroke-linecap: square"/>
    </g>
    <g id="text_2">
     <!-- 0.01 -->
     <g transform="translate(240.814467 172.477122) scale(0.1 -0.1)">
      <defs>
       <path id="DejaVuSans-31" d="M 794 531 
L 1825 531 
L 1825 4091 
L 703 3866 
L 703 4441 
L 1819 4666 
L 2450 4666 
L 2450 531 
L 3481 531 
L 3481 0 
L 794 0 
L 794 531 
z
" transform="scale(0.015625)"/>
      </defs>
      <use xlink:href="#DejaVuSans-30"/>
      <use xlink:href="#DejaVuSans-2e" x="63.623047"/>
      <use xlink:href="#DejaVuSans-30" x="95.410156"/>
      <use xlink:href="#DejaVuSans-31" x="159.033203"/>
     </g>
    </g>
   </g>
   <g id="xtick_3">
    <g id="line2d_4">
     <path d="M 275.731233 153.746932 
L 274.646086 154.748253 
" style="fill: none; stroke: #000000; stroke-width: 0.8; stroke-linecap: square"/>
    </g>
    <g id="text_3">
     <!-- 0.05 -->
     <g transform="translate(256.747373 177.894679) scale(0.1 -0.1)">
      <use xlink:href="#DejaVuSans-30"/>
      <use xlink:href="#DejaVuSans-2e" x="63.623047"/>
      <use xlink:href="#DejaVuSans-30" x="95.410156"/>
      <use xlink:href="#DejaVuSans-35" x="159.033203"/>
     </g>
    </g>
   </g>
   <g id="xtick_4">
    <g id="line2d_5">
     <path d="M 291.990562 159.051981 
L 290.928873 160.076753 
" style="fill: none; stroke: #000000; stroke-width: 0.8; stroke-linecap: square"/>
    </g>
    <g id="text_4">
     <!-- 0.1 -->
     <g transform="translate(276.235278 183.439319) scale(0.1 -0.1)">
      <use xlink:href="#DejaVuSans-30"/>
      <use xlink:href="#DejaVuSans-2e" x="63.623047"/>
      <use xlink:href="#DejaVuSans-31" x="95.410156"/>
     </g>
    </g>
   </g>
   <g id="text_5">
    <!-- support -->
    <g transform="translate(239.833511 186.318757) rotate(-341.912962) scale(0.1 -0.1)">
     <defs>
      <path id="DejaVuSans-73" d="M 2834 3397 
L 2834 2853 
Q 2591 2978 2328 3040 
Q 2066 3103 1784 3103 
Q 1356 3103 1142 2972 
Q 928 2841 928 2578 
Q 928 2378 1081 2264 
Q 1234 2150 1697 2047 
L 1894 2003 
Q 2506 1872 2764 1633 
Q 3022 1394 3022 966 
Q 3022 478 2636 193 
Q 2250 -91 1575 -91 
Q 1294 -91 989 -36 
Q 684 19 347 128 
L 347 722 
Q 666 556 975 473 
Q 1284 391 1588 391 
Q 1994 391 2212 530 
Q 2431 669 2431 922 
Q 2431 1156 2273 1281 
Q 2116 1406 1581 1522 
L 1381 1569 
Q 847 1681 609 1914 
Q 372 2147 372 2553 
Q 372 3047 722 3315 
Q 1072 3584 1716 3584 
Q 2034 3584 2315 3537 
Q 2597 3491 2834 3397 
z
" transform="scale(0.015625)"/>
      <path id="DejaVuSans-75" d="M 544 1381 
L 544 3500 
L 1119 3500 
L 1119 1403 
Q 1119 906 1312 657 
Q 1506 409 1894 409 
Q 2359 409 2629 706 
Q 2900 1003 2900 1516 
L 2900 3500 
L 3475 3500 
L 3475 0 
L 2900 0 
L 2900 538 
Q 2691 219 2414 64 
Q 2138 -91 1772 -91 
Q 1169 -91 856 284 
Q 544 659 544 1381 
z
M 1991 3584 
L 1991 3584 
z
" transform="scale(0.015625)"/>
      <path id="DejaVuSans-70" d="M 1159 525 
L 1159 -1331 
L 581 -1331 
L 581 3500 
L 1159 3500 
L 1159 2969 
Q 1341 3281 1617 3432 
Q 1894 3584 2278 3584 
Q 2916 3584 3314 3078 
Q 3713 2572 3713 1747 
Q 3713 922 3314 415 
Q 2916 -91 2278 -91 
Q 1894 -91 1617 61 
Q 1341 213 1159 525 
z
M 3116 1747 
Q 3116 2381 2855 2742 
Q 2594 3103 2138 3103 
Q 1681 3103 1420 2742 
Q 1159 2381 1159 1747 
Q 1159 1113 1420 752 
Q 1681 391 2138 391 
Q 2594 391 2855 752 
Q 3116 1113 3116 1747 
z
" transform="scale(0.015625)"/>
      <path id="DejaVuSans-6f" d="M 1959 3097 
Q 1497 3097 1228 2736 
Q 959 2375 959 1747 
Q 959 1119 1226 758 
Q 1494 397 1959 397 
Q 2419 397 2687 759 
Q 2956 1122 2956 1747 
Q 2956 2369 2687 2733 
Q 2419 3097 1959 3097 
z
M 1959 3584 
Q 2709 3584 3137 3096 
Q 3566 2609 3566 1747 
Q 3566 888 3137 398 
Q 2709 -91 1959 -91 
Q 1206 -91 779 398 
Q 353 888 353 1747 
Q 353 2609 779 3096 
Q 1206 3584 1959 3584 
z
" transform="scale(0.015625)"/>
      <path id="DejaVuSans-72" d="M 2631 2963 
Q 2534 3019 2420 3045 
Q 2306 3072 2169 3072 
Q 1681 3072 1420 2755 
Q 1159 2438 1159 1844 
L 1159 0 
L 581 0 
L 581 3500 
L 1159 3500 
L 1159 2956 
Q 1341 3275 1631 3429 
Q 1922 3584 2338 3584 
Q 2397 3584 2469 3576 
Q 2541 3569 2628 3553 
L 2631 2963 
z
" transform="scale(0.015625)"/>
      <path id="DejaVuSans-74" d="M 1172 4494 
L 1172 3500 
L 2356 3500 
L 2356 3053 
L 1172 3053 
L 1172 1153 
Q 1172 725 1289 603 
Q 1406 481 1766 481 
L 2356 481 
L 2356 0 
L 1766 0 
Q 1100 0 847 248 
Q 594 497 594 1153 
L 594 3053 
L 172 3053 
L 172 3500 
L 594 3500 
L 594 4494 
L 1172 4494 
z
" transform="scale(0.015625)"/>
     </defs>
     <use xlink:href="#DejaVuSans-73"/>
     <use xlink:href="#DejaVuSans-75" x="52.099609"/>
     <use xlink:href="#DejaVuSans-70" x="115.478516"/>
     <use xlink:href="#DejaVuSans-70" x="178.955078"/>
     <use xlink:href="#DejaVuSans-6f" x="242.431641"/>
     <use xlink:href="#DejaVuSans-72" x="303.613281"/>
     <use xlink:href="#DejaVuSans-74" x="344.726562"/>
    </g>
   </g>
  </g>
  <g id="axis3d_2">
   <g id="line2d_6">
    <path d="M 352.397645 126.233198 
L 313.217847 166.44131 
" style="fill: none; stroke: #000000; stroke-width: 0.8; stroke-linecap: square"/>
   </g>
   <g id="xtick_5">
    <g id="line2d_7">
     <path d="M 315.309613 163.458577 
L 317.168731 164.061024 
" style="fill: none; stroke: #000000; stroke-width: 0.8; stroke-linecap: square"/>
    </g>
    <g id="text_6">
     <!-- 1000 -->
     <g transform="translate(316.092344 184.689208) scale(0.1 -0.1)">
      <use xlink:href="#DejaVuSans-31"/>
      <use xlink:href="#DejaVuSans-30" x="63.623047"/>
      <use xlink:href="#DejaVuSans-30" x="127.246094"/>
      <use xlink:href="#DejaVuSans-30" x="190.869141"/>
     </g>
    </g>
   </g>
   <g id="xtick_6">
    <g id="line2d_8">
     <path d="M 324.373415 154.173548 
L 326.206921 154.752207 
" style="fill: none; stroke: #000000; stroke-width: 0.8; stroke-linecap: square"/>
    </g>
    <g id="text_7">
     <!-- 2000 -->
     <g transform="translate(324.901129 175.117086) scale(0.1 -0.1)">
      <defs>
       <path id="DejaVuSans-32" d="M 1228 531 
L 3431 531 
L 3431 0 
L 469 0 
L 469 531 
Q 828 903 1448 1529 
Q 2069 2156 2228 2338 
Q 2531 2678 2651 2914 
Q 2772 3150 2772 3378 
Q 2772 3750 2511 3984 
Q 2250 4219 1831 4219 
Q 1534 4219 1204 4116 
Q 875 4013 500 3803 
L 500 4441 
Q 881 4594 1212 4672 
Q 1544 4750 1819 4750 
Q 2544 4750 2975 4387 
Q 3406 4025 3406 3419 
Q 3406 3131 3298 2873 
Q 3191 2616 2906 2266 
Q 2828 2175 2409 1742 
Q 1991 1309 1228 531 
z
" transform="scale(0.015625)"/>
      </defs>
      <use xlink:href="#DejaVuSans-32"/>
      <use xlink:href="#DejaVuSans-30" x="63.623047"/>
      <use xlink:href="#DejaVuSans-30" x="127.246094"/>
      <use xlink:href="#DejaVuSans-30" x="190.869141"/>
     </g>
    </g>
   </g>
   <g id="xtick_7">
    <g id="line2d_9">
     <path d="M 333.083005 145.251378 
L 334.891462 145.80763 
" style="fill: none; stroke: #000000; stroke-width: 0.8; stroke-linecap: square"/>
    </g>
    <g id="text_8">
     <!-- 5000 -->
     <g transform="translate(333.365123 165.919634) scale(0.1 -0.1)">
      <use xlink:href="#DejaVuSans-35"/>
      <use xlink:href="#DejaVuSans-30" x="63.623047"/>
      <use xlink:href="#DejaVuSans-30" x="127.246094"/>
      <use xlink:href="#DejaVuSans-30" x="190.869141"/>
     </g>
    </g>
   </g>
   <g id="xtick_8">
    <g id="line2d_10">
     <path d="M 341.458749 136.671202 
L 343.24271 137.206324 
" style="fill: none; stroke: #000000; stroke-width: 0.8; stroke-linecap: square"/>
    </g>
    <g id="text_9">
     <!-- 10000 -->
     <g transform="translate(338.322932 157.075275) scale(0.1 -0.1)">
      <use xlink:href="#DejaVuSans-31"/>
      <use xlink:href="#DejaVuSans-30" x="63.623047"/>
      <use xlink:href="#DejaVuSans-30" x="127.246094"/>
      <use xlink:href="#DejaVuSans-30" x="190.869141"/>
      <use xlink:href="#DejaVuSans-30" x="254.492188"/>
     </g>
    </g>
   </g>
   <g id="text_10">
    <!-- window -->
    <g transform="translate(349.426917 188.99679) rotate(-45.742112) scale(0.1 -0.1)">
     <defs>
      <path id="DejaVuSans-77" d="M 269 3500 
L 844 3500 
L 1563 769 
L 2278 3500 
L 2956 3500 
L 3675 769 
L 4391 3500 
L 4966 3500 
L 4050 0 
L 3372 0 
L 2619 2869 
L 1863 0 
L 1184 0 
L 269 3500 
z
" transform="scale(0.015625)"/>
      <path id="DejaVuSans-69" d="M 603 3500 
L 1178 3500 
L 1178 0 
L 603 0 
L 603 3500 
z
M 603 4863 
L 1178 4863 
L 1178 4134 
L 603 4134 
L 603 4863 
z
" transform="scale(0.015625)"/>
      <path id="DejaVuSans-6e" d="M 3513 2113 
L 3513 0 
L 2938 0 
L 2938 2094 
Q 2938 2591 2744 2837 
Q 2550 3084 2163 3084 
Q 1697 3084 1428 2787 
Q 1159 2491 1159 1978 
L 1159 0 
L 581 0 
L 581 3500 
L 1159 3500 
L 1159 2956 
Q 1366 3272 1645 3428 
Q 1925 3584 2291 3584 
Q 2894 3584 3203 3211 
Q 3513 2838 3513 2113 
z
" transform="scale(0.015625)"/>
      <path id="DejaVuSans-64" d="M 2906 2969 
L 2906 4863 
L 3481 4863 
L 3481 0 
L 2906 0 
L 2906 525 
Q 2725 213 2448 61 
Q 2172 -91 1784 -91 
Q 1150 -91 751 415 
Q 353 922 353 1747 
Q 353 2572 751 3078 
Q 1150 3584 1784 3584 
Q 2172 3584 2448 3432 
Q 2725 3281 2906 2969 
z
M 947 1747 
Q 947 1113 1208 752 
Q 1469 391 1925 391 
Q 2381 391 2643 752 
Q 2906 1113 2906 1747 
Q 2906 2381 2643 2742 
Q 2381 3103 1925 3103 
Q 1469 3103 1208 2742 
Q 947 2381 947 1747 
z
" transform="scale(0.015625)"/>
     </defs>
     <use xlink:href="#DejaVuSans-77"/>
     <use xlink:href="#DejaVuSans-69" x="81.787109"/>
     <use xlink:href="#DejaVuSans-6e" x="109.570312"/>
     <use xlink:href="#DejaVuSans-64" x="172.949219"/>
     <use xlink:href="#DejaVuSans-6f" x="236.425781"/>
     <use xlink:href="#DejaVuSans-77" x="297.607422"/>
    </g>
   </g>
  </g>
  <g id="axis3d_3">
   <g id="line2d_11">
    <path d="M 352.397645 126.233198 
L 354.880477 72.014481 
" style="fill: none; stroke: #000000; stroke-width: 0.8; stroke-linecap: square"/>
   </g>
   <g id="xtick_9">
    <g id="line2d_12">
     <path d="M 351.813732 126.063478 
L 353.56686 126.573043 
" style="fill: none; stroke: #000000; stroke-width: 0.8; stroke-linecap: square"/>
    </g>
    <g id="text_11">
     <!-- 0.00 -->
     <g transform="translate(359.457462 131.234634) scale(0.1 -0.1)">
      <use xlink:href="#DejaVuSans-30"/>
      <use xlink:href="#DejaVuSans-2e" x="63.623047"/>
      <use xlink:href="#DejaVuSans-30" x="95.410156"/>
      <use xlink:href="#DejaVuSans-30" x="159.033203"/>
     </g>
    </g>
   </g>
   <g id="xtick_10">
    <g id="line2d_13">
     <path d="M 352.407698 112.952817 
L 354.180552 113.452148 
" style="fill: none; stroke: #000000; stroke-width: 0.8; stroke-linecap: square"/>
    </g>
    <g id="text_12">
     <!-- 0.25 -->
     <g transform="translate(360.250232 118.1729) scale(0.1 -0.1)">
      <use xlink:href="#DejaVuSans-30"/>
      <use xlink:href="#DejaVuSans-2e" x="63.623047"/>
      <use xlink:href="#DejaVuSans-32" x="95.410156"/>
      <use xlink:href="#DejaVuSans-35" x="159.033203"/>
     </g>
    </g>
   </g>
   <g id="xtick_11">
    <g id="line2d_14">
     <path d="M 353.014672 99.555044 
L 354.807699 100.043567 
" style="fill: none; stroke: #000000; stroke-width: 0.8; stroke-linecap: square"/>
    </g>
    <g id="text_13">
     <!-- 0.50 -->
     <g transform="translate(361.060263 104.82678) scale(0.1 -0.1)">
      <use xlink:href="#DejaVuSans-30"/>
      <use xlink:href="#DejaVuSans-2e" x="63.623047"/>
      <use xlink:href="#DejaVuSans-35" x="95.410156"/>
      <use xlink:href="#DejaVuSans-30" x="159.033203"/>
     </g>
    </g>
   </g>
   <g id="xtick_12">
    <g id="line2d_15">
     <path d="M 353.635086 85.860622 
L 355.448749 86.337733 
" style="fill: none; stroke: #000000; stroke-width: 0.8; stroke-linecap: square"/>
    </g>
    <g id="text_14">
     <!-- 0.75 -->
     <g transform="translate(361.888125 91.186885) scale(0.1 -0.1)">
      <defs>
       <path id="DejaVuSans-37" d="M 525 4666 
L 3525 4666 
L 3525 4397 
L 1831 0 
L 1172 0 
L 2766 4134 
L 525 4134 
L 525 4666 
z
" transform="scale(0.015625)"/>
      </defs>
      <use xlink:href="#DejaVuSans-30"/>
      <use xlink:href="#DejaVuSans-2e" x="63.623047"/>
      <use xlink:href="#DejaVuSans-37" x="95.410156"/>
      <use xlink:href="#DejaVuSans-35" x="159.033203"/>
     </g>
    </g>
   </g>
   <g id="xtick_13">
    <g id="line2d_16">
     <path d="M 354.26939 71.859588 
L 356.10417 72.324651 
" style="fill: none; stroke: #000000; stroke-width: 0.8; stroke-linecap: square"/>
    </g>
    <g id="text_15">
     <!-- 1.00 -->
     <g transform="translate(362.734412 77.243405) scale(0.1 -0.1)">
      <use xlink:href="#DejaVuSans-31"/>
      <use xlink:href="#DejaVuSans-2e" x="63.623047"/>
      <use xlink:href="#DejaVuSans-30" x="95.410156"/>
      <use xlink:href="#DejaVuSans-30" x="159.033203"/>
     </g>
    </g>
   </g>
   <g id="text_16">
    <!-- recall -->
    <g transform="translate(395.848244 108.06795) rotate(-87.378092) scale(0.1 -0.1)">
     <defs>
      <path id="DejaVuSans-65" d="M 3597 1894 
L 3597 1613 
L 953 1613 
Q 991 1019 1311 708 
Q 1631 397 2203 397 
Q 2534 397 2845 478 
Q 3156 559 3463 722 
L 3463 178 
Q 3153 47 2828 -22 
Q 2503 -91 2169 -91 
Q 1331 -91 842 396 
Q 353 884 353 1716 
Q 353 2575 817 3079 
Q 1281 3584 2069 3584 
Q 2775 3584 3186 3129 
Q 3597 2675 3597 1894 
z
M 3022 2063 
Q 3016 2534 2758 2815 
Q 2500 3097 2075 3097 
Q 1594 3097 1305 2825 
Q 1016 2553 972 2059 
L 3022 2063 
z
" transform="scale(0.015625)"/>
      <path id="DejaVuSans-63" d="M 3122 3366 
L 3122 2828 
Q 2878 2963 2633 3030 
Q 2388 3097 2138 3097 
Q 1578 3097 1268 2742 
Q 959 2388 959 1747 
Q 959 1106 1268 751 
Q 1578 397 2138 397 
Q 2388 397 2633 464 
Q 2878 531 3122 666 
L 3122 134 
Q 2881 22 2623 -34 
Q 2366 -91 2075 -91 
Q 1284 -91 818 406 
Q 353 903 353 1747 
Q 353 2603 823 3093 
Q 1294 3584 2113 3584 
Q 2378 3584 2631 3529 
Q 2884 3475 3122 3366 
z
" transform="scale(0.015625)"/>
      <path id="DejaVuSans-61" d="M 2194 1759 
Q 1497 1759 1228 1600 
Q 959 1441 959 1056 
Q 959 750 1161 570 
Q 1363 391 1709 391 
Q 2188 391 2477 730 
Q 2766 1069 2766 1631 
L 2766 1759 
L 2194 1759 
z
M 3341 1997 
L 3341 0 
L 2766 0 
L 2766 531 
Q 2569 213 2275 61 
Q 1981 -91 1556 -91 
Q 1019 -91 701 211 
Q 384 513 384 1019 
Q 384 1609 779 1909 
Q 1175 2209 1959 2209 
L 2766 2209 
L 2766 2266 
Q 2766 2663 2505 2880 
Q 2244 3097 1772 3097 
Q 1472 3097 1187 3025 
Q 903 2953 641 2809 
L 641 3341 
Q 956 3463 1253 3523 
Q 1550 3584 1831 3584 
Q 2591 3584 2966 3190 
Q 3341 2797 3341 1997 
z
" transform="scale(0.015625)"/>
      <path id="DejaVuSans-6c" d="M 603 4863 
L 1178 4863 
L 1178 0 
L 603 0 
L 603 4863 
z
" transform="scale(0.015625)"/>
     </defs>
     <use xlink:href="#DejaVuSans-72"/>
     <use xlink:href="#DejaVuSans-65" x="38.863281"/>
     <use xlink:href="#DejaVuSans-63" x="100.386719"/>
     <use xlink:href="#DejaVuSans-61" x="155.367188"/>
     <use xlink:href="#DejaVuSans-6c" x="216.646484"/>
     <use xlink:href="#DejaVuSans-6c" x="244.429688"/>
    </g>
   </g>
  </g>
  <g id="axes_1">
   <g id="Poly3DCollection_1">
    <path d="M 284.522958 109.388578 
L 284.296881 87.107352 
L 299.31914 91.267288 
L 299.276885 113.707203 
z
" clip-path="url(#pf9e8741b86)" style="fill: #0a2635"/>
    <path d="M 275.635005 116.926523 
L 284.522958 109.388578 
L 299.276885 113.707203 
L 290.566939 121.405549 
z
" clip-path="url(#pf9e8741b86)" style="fill: #0d3143"/>
    <path d="M 275.635005 116.926523 
L 275.240327 94.369344 
L 284.296881 87.107352 
L 284.522958 109.388578 
z
" clip-path="url(#pf9e8741b86)" style="fill: #15516f"/>
    <path d="M 290.566939 121.405549 
L 299.276885 113.707203 
L 314.343525 118.117364 
L 305.821278 125.981284 
z
" clip-path="url(#pf9e8741b86)" style="fill: #546831"/>
    <path d="M 299.276885 113.707203 
L 299.321987 89.755212 
L 314.68742 93.993829 
L 314.343525 118.117364 
z
" clip-path="url(#pf9e8741b86)" style="fill: #425126"/>
    <path d="M 290.566939 121.405549 
L 299.276885 113.707203 
L 299.31914 91.267288 
L 290.447144 98.686686 
z
" clip-path="url(#pf9e8741b86)" style="fill: #0a2635"/>
    <path d="M 290.566939 121.405549 
L 290.439069 97.155258 
L 299.321987 89.755212 
L 299.276885 113.707203 
z
" clip-path="url(#pf9e8741b86)" style="fill: #8cac52"/>
    <path d="M 275.635005 116.926523 
L 275.318837 98.85642 
L 290.470978 103.20664 
L 290.566939 121.405549 
z
" clip-path="url(#pf9e8741b86)" style="fill: #5f654f"/>
    <path d="M 275.240327 94.369344 
L 290.447144 98.686686 
L 299.31914 91.267288 
L 284.296881 87.107352 
z
" clip-path="url(#pf9e8741b86)" style="fill: #124661"/>
    <path d="M 275.635005 116.926523 
L 290.566939 121.405549 
L 290.447144 98.686686 
L 275.240327 94.369344 
z
" clip-path="url(#pf9e8741b86)" style="fill: #15516f"/>
    <path d="M 266.415621 124.745558 
L 275.635005 116.926523 
L 290.566939 121.405549 
L 281.528667 129.394088 
z
" clip-path="url(#pf9e8741b86)" style="fill: #798166"/>
    <path d="M 266.415621 124.745558 
L 265.954287 106.451494 
L 275.318837 98.85642 
L 275.635005 116.926523 
z
" clip-path="url(#pf9e8741b86)" style="fill: #c8d6a8"/>
    <path d="M 305.821278 125.981284 
L 314.343525 118.117364 
L 329.732928 122.622 
L 321.408577 130.656895 
z
" clip-path="url(#pf9e8741b86)" style="fill: #3d845e"/>
    <path d="M 329.732928 122.622 
L 329.732928 122.622 
L 345.455576 127.22418 
L 345.455576 127.22418 
z
" clip-path="url(#pf9e8741b86)" style="fill: #3b1e42"/>
    <path d="M 314.343525 118.117364 
L 314.716693 91.940344 
L 330.44443 96.256343 
L 329.732928 122.622 
z
" clip-path="url(#pf9e8741b86)" style="fill: #2f6749"/>
    <path d="M 290.566939 121.405549 
L 290.511811 110.950695 
L 305.898226 115.452378 
L 305.821278 125.981284 
z
" clip-path="url(#pf9e8741b86)" style="fill: #606827"/>
    <path d="M 305.821278 125.981284 
L 314.343525 118.117364 
L 314.68742 93.993829 
L 305.999782 101.556233 
z
" clip-path="url(#pf9e8741b86)" style="fill: #425126"/>
    <path d="M 321.408577 130.656895 
L 321.408577 130.656895 
L 329.732928 122.622 
L 329.732928 122.622 
z
" clip-path="url(#pf9e8741b86)" style="fill: #3b1e42"/>
    <path d="M 305.821278 125.981284 
L 306.014983 99.476246 
L 314.716693 91.940344 
L 314.343525 118.117364 
z
" clip-path="url(#pf9e8741b86)" style="fill: #64db9c"/>
    <path d="M 281.528667 129.394088 
L 281.393248 118.810495 
L 290.511811 110.950695 
L 290.566939 121.405549 
z
" clip-path="url(#pf9e8741b86)" style="fill: #ccdd53"/>
    <path d="M 281.528667 129.394088 
L 290.566939 121.405549 
L 305.821278 125.981284 
L 296.974245 134.144901 
z
" clip-path="url(#pf9e8741b86)" style="fill: #7b8532"/>
    <path d="M 266.415621 124.745558 
L 266.303802 120.311405 
L 281.471531 124.928701 
L 281.528667 129.394088 
z
" clip-path="url(#pf9e8741b86)" style="fill: #0a6907"/>
    <path d="M 290.566939 121.405549 
L 305.821278 125.981284 
L 305.999782 101.556233 
L 290.439069 97.155258 
z
" clip-path="url(#pf9e8741b86)" style="fill: #8cac52"/>
    <path d="M 290.439069 97.155258 
L 305.999782 101.556233 
L 314.68742 93.993829 
L 299.321987 89.755212 
z
" clip-path="url(#pf9e8741b86)" style="fill: #799647"/>
    <path d="M 281.528667 129.394088 
L 290.566939 121.405549 
L 290.470978 103.20664 
L 281.292913 110.968867 
z
" clip-path="url(#pf9e8741b86)" style="fill: #5f654f"/>
    <path d="M 321.408577 130.656895 
L 329.732928 122.622 
L 345.455576 127.22418 
L 337.339857 135.435687 
z
" clip-path="url(#pf9e8741b86)" style="fill: #301936"/>
    <path d="M 321.408577 130.656895 
L 337.339857 135.435687 
L 345.455576 127.22418 
L 329.732928 122.622 
z
" clip-path="url(#pf9e8741b86)" style="fill: #46234e"/>
    <path d="M 265.954287 106.451494 
L 281.292913 110.968867 
L 290.470978 103.20664 
L 275.318837 98.85642 
z
" clip-path="url(#pf9e8741b86)" style="fill: #aeba92"/>
    <path d="M 256.845916 132.861703 
L 256.69628 128.373255 
L 266.303802 120.311405 
L 266.415621 124.745558 
z
" clip-path="url(#pf9e8741b86)" style="fill: #16df0f"/>
    <path d="M 266.415621 124.745558 
L 281.528667 129.394088 
L 281.292913 110.968867 
L 265.954287 106.451494 
z
" clip-path="url(#pf9e8741b86)" style="fill: #c8d6a8"/>
    <path d="M 256.845916 132.861703 
L 266.415621 124.745558 
L 281.528667 129.394088 
L 272.143145 137.689546 
z
" clip-path="url(#pf9e8741b86)" style="fill: #0d8709"/>
    <path d="M 337.339857 135.435687 
L 345.455576 127.22418 
L 345.455576 127.22418 
L 337.339857 135.435687 
z
" clip-path="url(#pf9e8741b86)" style="fill: #3b1e42"/>
    <path d="M 321.408577 130.656895 
L 329.732928 122.622 
L 330.44443 96.256343 
L 321.949532 103.959701 
z
" clip-path="url(#pf9e8741b86)" style="fill: #2f6749"/>
    <path d="M 281.393248 118.810495 
L 296.974245 123.485955 
L 305.898226 115.452378 
L 290.511811 110.950695 
z
" clip-path="url(#pf9e8741b86)" style="fill: #b1c048"/>
    <path d="M 305.821278 125.981284 
L 305.965766 106.210724 
L 321.81206 110.744212 
L 321.408577 130.656895 
z
" clip-path="url(#pf9e8741b86)" style="fill: #21681c"/>
    <path d="M 296.974245 134.144901 
L 305.821278 125.981284 
L 305.898226 115.452378 
L 296.974245 123.485955 
z
" clip-path="url(#pf9e8741b86)" style="fill: #606827"/>
    <path d="M 296.974245 134.144901 
L 305.821278 125.981284 
L 321.408577 130.656895 
L 312.763453 139.001409 
z
" clip-path="url(#pf9e8741b86)" style="fill: #2a8624"/>
    <path d="M 281.528667 129.394088 
L 281.474306 125.145589 
L 296.974245 129.866401 
L 296.974245 134.144901 
z
" clip-path="url(#pf9e8741b86)" style="fill: #1e0b63"/>
    <path d="M 256.69628 128.373255 
L 272.049521 133.169333 
L 281.471531 124.928701 
L 266.303802 120.311405 
z
" clip-path="url(#pf9e8741b86)" style="fill: #13c20d"/>
    <path d="M 321.408577 130.656895 
L 337.339857 135.435687 
L 337.339857 135.435687 
L 321.408577 130.656895 
z
" clip-path="url(#pf9e8741b86)" style="fill: #3b1e42"/>
    <path d="M 321.408577 130.656895 
L 321.408577 130.656895 
L 337.339857 135.435687 
L 337.339857 135.435687 
z
" clip-path="url(#pf9e8741b86)" style="fill: #178656"/>
    <path d="M 305.821278 125.981284 
L 321.408577 130.656895 
L 321.949532 103.959701 
L 306.014983 99.476246 
z
" clip-path="url(#pf9e8741b86)" style="fill: #64db9c"/>
    <path d="M 296.974245 134.144901 
L 296.974245 114.127247 
L 305.965766 106.210724 
L 305.821278 125.981284 
z
" clip-path="url(#pf9e8741b86)" style="fill: #46dd3c"/>
    <path d="M 306.014983 99.476246 
L 321.949532 103.959701 
L 330.44443 96.256343 
L 314.716693 91.940344 
z
" clip-path="url(#pf9e8741b86)" style="fill: #57be87"/>
    <path d="M 281.528667 129.394088 
L 296.974245 134.144901 
L 296.974245 123.485955 
L 281.393248 118.810495 
z
" clip-path="url(#pf9e8741b86)" style="fill: #ccdd53"/>
    <path d="M 272.143145 137.689546 
L 272.054069 133.388899 
L 281.474306 125.145589 
L 281.528667 129.394088 
z
" clip-path="url(#pf9e8741b86)" style="fill: #4016d2"/>
    <path d="M 272.143145 137.689546 
L 281.528667 129.394088 
L 281.471531 124.928701 
L 272.049521 133.169333 
z
" clip-path="url(#pf9e8741b86)" style="fill: #0a6907"/>
    <path d="M 312.763453 139.001409 
L 312.763453 139.001409 
L 321.408577 130.656895 
L 321.408577 130.656895 
z
" clip-path="url(#pf9e8741b86)" style="fill: #178656"/>
    <path d="M 256.845916 132.861703 
L 256.809251 131.761902 
L 272.120205 136.581997 
L 272.143145 137.689546 
z
" clip-path="url(#pf9e8741b86)" style="fill: #313e21"/>
    <path d="M 272.143145 137.689546 
L 281.528667 129.394088 
L 296.974245 134.144901 
L 287.783499 142.62568 
z
" clip-path="url(#pf9e8741b86)" style="fill: #270e7f"/>
    <path d="M 256.845916 132.861703 
L 272.143145 137.689546 
L 272.049521 133.169333 
L 256.69628 128.373255 
z
" clip-path="url(#pf9e8741b86)" style="fill: #16df0f"/>
    <path d="M 312.763453 139.001409 
L 321.408577 130.656895 
L 337.339857 135.435687 
L 328.907888 143.967178 
z
" clip-path="url(#pf9e8741b86)" style="fill: #136e47"/>
    <path d="M 312.763453 139.001409 
L 328.907888 143.967178 
L 337.339857 135.435687 
L 321.408577 130.656895 
z
" clip-path="url(#pf9e8741b86)" style="fill: #1b9e66"/>
    <path d="M 246.905536 141.292221 
L 246.858901 140.178952 
L 256.809251 131.761902 
L 256.845916 132.861703 
z
" clip-path="url(#pf9e8741b86)" style="fill: #688445"/>
    <path d="M 272.054069 133.388899 
L 287.750157 138.294533 
L 296.974245 129.866401 
L 281.474306 125.145589 
z
" clip-path="url(#pf9e8741b86)" style="fill: #3714b6"/>
    <path d="M 296.974245 134.144901 
L 296.974245 123.962027 
L 312.898669 128.745882 
L 312.763453 139.001409 
z
" clip-path="url(#pf9e8741b86)" style="fill: #0a6363"/>
    <path d="M 312.763453 139.001409 
L 321.408577 130.656895 
L 321.81206 110.744212 
L 313.029288 118.839098 
z
" clip-path="url(#pf9e8741b86)" style="fill: #21681c"/>
    <path d="M 287.783499 142.62568 
L 296.974245 134.144901 
L 296.974245 129.866401 
L 287.750157 138.294533 
z
" clip-path="url(#pf9e8741b86)" style="fill: #1e0b63"/>
    <path d="M 246.905536 141.292221 
L 256.845916 132.861703 
L 272.143145 137.689546 
L 262.389972 146.309956 
z
" clip-path="url(#pf9e8741b86)" style="fill: #3f502a"/>
    <path d="M 296.974245 114.127247 
L 313.029288 118.839098 
L 321.81206 110.744212 
L 305.965766 106.210724 
z
" clip-path="url(#pf9e8741b86)" style="fill: #3dc034"/>
    <path d="M 328.907888 143.967178 
L 337.339857 135.435687 
L 337.339857 135.435687 
L 328.907888 143.967178 
z
" clip-path="url(#pf9e8741b86)" style="fill: #178656"/>
    <path d="M 246.858901 140.178952 
L 262.357395 145.188813 
L 272.120205 136.581997 
L 256.809251 131.761902 
z
" clip-path="url(#pf9e8741b86)" style="fill: #5a723c"/>
    <path d="M 296.974245 134.144901 
L 312.763453 139.001409 
L 313.029288 118.839098 
L 296.974245 114.127247 
z
" clip-path="url(#pf9e8741b86)" style="fill: #46dd3c"/>
    <path d="M 287.783499 142.62568 
L 287.704139 132.316522 
L 296.974245 123.962027 
L 296.974245 134.144901 
z
" clip-path="url(#pf9e8741b86)" style="fill: #15d2d2"/>
    <path d="M 272.143145 137.689546 
L 272.121221 136.631035 
L 287.775293 141.559694 
L 287.783499 142.62568 
z
" clip-path="url(#pf9e8741b86)" style="fill: #165a15"/>
    <path d="M 287.783499 142.62568 
L 296.974245 134.144901 
L 312.763453 139.001409 
L 303.778651 147.67379 
z
" clip-path="url(#pf9e8741b86)" style="fill: #0d7f7f"/>
    <path d="M 272.143145 137.689546 
L 287.783499 142.62568 
L 287.750157 138.294533 
L 272.054069 133.388899 
z
" clip-path="url(#pf9e8741b86)" style="fill: #4016d2"/>
    <path d="M 312.763453 139.001409 
L 328.907888 143.967178 
L 328.907888 143.967178 
L 312.763453 139.001409 
z
" clip-path="url(#pf9e8741b86)" style="fill: #178656"/>
    <path d="M 262.389972 146.309956 
L 262.358838 145.238454 
L 272.121221 136.631035 
L 272.143145 137.689546 
z
" clip-path="url(#pf9e8741b86)" style="fill: #2ebf2d"/>
    <path d="M 262.389972 146.309956 
L 272.143145 137.689546 
L 272.120205 136.581997 
L 262.357395 145.188813 
z
" clip-path="url(#pf9e8741b86)" style="fill: #313e21"/>
    <path d="M 312.763453 139.001409 
L 312.904126 128.332006 
L 329.195628 133.221418 
L 328.907888 143.967178 
z
" clip-path="url(#pf9e8741b86)" style="fill: #0a112d"/>
    <path d="M 246.905536 141.292221 
L 262.389972 146.309956 
L 262.357395 145.188813 
L 246.858901 140.178952 
z
" clip-path="url(#pf9e8741b86)" style="fill: #688445"/>
    <path d="M 262.389972 146.309956 
L 272.143145 137.689546 
L 287.783499 142.62568 
L 278.228612 151.44247 
z
" clip-path="url(#pf9e8741b86)" style="fill: #1c731b"/>
    <path d="M 287.704139 132.316522 
L 303.838078 137.290768 
L 312.898669 128.745882 
L 296.974245 123.962027 
z
" clip-path="url(#pf9e8741b86)" style="fill: #12b7b6"/>
    <path d="M 262.358838 145.238454 
L 278.211543 150.363376 
L 287.775293 141.559694 
L 272.121221 136.631035 
z
" clip-path="url(#pf9e8741b86)" style="fill: #28a627"/>
    <path d="M 303.778651 147.67379 
L 312.763453 139.001409 
L 312.898669 128.745882 
L 303.838078 137.290768 
z
" clip-path="url(#pf9e8741b86)" style="fill: #0a6363"/>
    <path d="M 287.783499 142.62568 
L 287.776008 141.652656 
L 303.784259 146.69388 
L 303.778651 147.67379 
z
" clip-path="url(#pf9e8741b86)" style="fill: #632906"/>
    <path d="M 303.778651 147.67379 
L 303.840476 136.871673 
L 312.904126 128.332006 
L 312.763453 139.001409 
z
" clip-path="url(#pf9e8741b86)" style="fill: #15245f"/>
    <path d="M 303.778651 147.67379 
L 312.763453 139.001409 
L 328.907888 143.967178 
L 320.140814 152.837729 
z
" clip-path="url(#pf9e8741b86)" style="fill: #0d163a"/>
    <path d="M 287.783499 142.62568 
L 303.778651 147.67379 
L 303.838078 137.290768 
L 287.704139 132.316522 
z
" clip-path="url(#pf9e8741b86)" style="fill: #15d2d2"/>
    <path d="M 278.228612 151.44247 
L 278.213032 150.457482 
L 287.776008 141.652656 
L 287.783499 142.62568 
z
" clip-path="url(#pf9e8741b86)" style="fill: #d3570d"/>
    <path d="M 278.228612 151.44247 
L 287.783499 142.62568 
L 287.775293 141.559694 
L 278.211543 150.363376 
z
" clip-path="url(#pf9e8741b86)" style="fill: #165a15"/>
    <path d="M 262.389972 146.309956 
L 278.228612 151.44247 
L 278.211543 150.363376 
L 262.358838 145.238454 
z
" clip-path="url(#pf9e8741b86)" style="fill: #2ebf2d"/>
    <path d="M 278.228612 151.44247 
L 287.783499 142.62568 
L 303.778651 147.67379 
L 294.43375 156.693749 
z
" clip-path="url(#pf9e8741b86)" style="fill: #7f3408"/>
    <path d="M 303.840476 136.871673 
L 320.353744 141.958008 
L 329.195628 133.221418 
L 312.904126 128.332006 
z
" clip-path="url(#pf9e8741b86)" style="fill: #121f53"/>
    <path d="M 278.213032 150.457482 
L 294.431614 155.70177 
L 303.784259 146.69388 
L 287.776008 141.652656 
z
" clip-path="url(#pf9e8741b86)" style="fill: #b74b0c"/>
    <path d="M 320.140814 152.837729 
L 328.907888 143.967178 
L 329.195628 133.221418 
L 320.353744 141.958008 
z
" clip-path="url(#pf9e8741b86)" style="fill: #0a112d"/>
    <path d="M 303.778651 147.67379 
L 303.790454 145.611594 
L 320.18146 150.760893 
L 320.140814 152.837729 
z
" clip-path="url(#pf9e8741b86)" style="fill: #481123"/>
    <path d="M 303.778651 147.67379 
L 320.140814 152.837729 
L 320.353744 141.958008 
L 303.840476 136.871673 
z
" clip-path="url(#pf9e8741b86)" style="fill: #15245f"/>
    <path d="M 294.43375 156.693749 
L 303.778651 147.67379 
L 303.784259 146.69388 
L 294.431614 155.70177 
z
" clip-path="url(#pf9e8741b86)" style="fill: #632906"/>
    <path d="M 294.43375 156.693749 
L 294.429254 154.606114 
L 303.790454 145.611594 
L 303.778651 147.67379 
z
" clip-path="url(#pf9e8741b86)" style="fill: #99244a"/>
    <path d="M 278.228612 151.44247 
L 294.43375 156.693749 
L 294.431614 155.70177 
L 278.213032 150.457482 
z
" clip-path="url(#pf9e8741b86)" style="fill: #d3570d"/>
    <path d="M 294.43375 156.693749 
L 303.778651 147.67379 
L 320.140814 152.837729 
L 311.018254 162.067961 
z
" clip-path="url(#pf9e8741b86)" style="fill: #5d162d"/>
    <path d="M 294.429254 154.606114 
L 311.043395 159.965467 
L 320.18146 150.760893 
L 303.790454 145.611594 
z
" clip-path="url(#pf9e8741b86)" style="fill: #851f40"/>
    <path d="M 311.018254 162.067961 
L 320.140814 152.837729 
L 320.18146 150.760893 
L 311.043395 159.965467 
z
" clip-path="url(#pf9e8741b86)" style="fill: #481123"/>
    <path d="M 294.43375 156.693749 
L 311.018254 162.067961 
L 311.043395 159.965467 
L 294.429254 154.606114 
z
" clip-path="url(#pf9e8741b86)" style="fill: #99244a"/>
   </g>
   <g id="text_17">
    <!-- graph -->
    <g transform="translate(277.635938 37.432941) scale(0.12 -0.12)">
     <defs>
      <path id="DejaVuSans-67" d="M 2906 1791 
Q 2906 2416 2648 2759 
Q 2391 3103 1925 3103 
Q 1463 3103 1205 2759 
Q 947 2416 947 1791 
Q 947 1169 1205 825 
Q 1463 481 1925 481 
Q 2391 481 2648 825 
Q 2906 1169 2906 1791 
z
M 3481 434 
Q 3481 -459 3084 -895 
Q 2688 -1331 1869 -1331 
Q 1566 -1331 1297 -1286 
Q 1028 -1241 775 -1147 
L 775 -588 
Q 1028 -725 1275 -790 
Q 1522 -856 1778 -856 
Q 2344 -856 2625 -561 
Q 2906 -266 2906 331 
L 2906 616 
Q 2728 306 2450 153 
Q 2172 0 1784 0 
Q 1141 0 747 490 
Q 353 981 353 1791 
Q 353 2603 747 3093 
Q 1141 3584 1784 3584 
Q 2172 3584 2450 3431 
Q 2728 3278 2906 2969 
L 2906 3500 
L 3481 3500 
L 3481 434 
z
" transform="scale(0.015625)"/>
      <path id="DejaVuSans-68" d="M 3513 2113 
L 3513 0 
L 2938 0 
L 2938 2094 
Q 2938 2591 2744 2837 
Q 2550 3084 2163 3084 
Q 1697 3084 1428 2787 
Q 1159 2491 1159 1978 
L 1159 0 
L 581 0 
L 581 4863 
L 1159 4863 
L 1159 2956 
Q 1366 3272 1645 3428 
Q 1925 3584 2291 3584 
Q 2894 3584 3203 3211 
Q 3513 2838 3513 2113 
z
" transform="scale(0.015625)"/>
     </defs>
     <use xlink:href="#DejaVuSans-67"/>
     <use xlink:href="#DejaVuSans-72" x="63.476562"/>
     <use xlink:href="#DejaVuSans-61" x="104.589844"/>
     <use xlink:href="#DejaVuSans-70" x="165.869141"/>
     <use xlink:href="#DejaVuSans-68" x="229.345703"/>
    </g>
   </g>
  </g>
  <g id="patch_6">
   <path d="M 387.105882 174.727059 
L 518.4 174.727059 
L 518.4 43.432941 
L 387.105882 43.432941 
z
" style="fill: #ffffff"/>
  </g>
  <g id="pane3d_4">
   <g id="patch_7">
    <path d="M 397.019494 142.354137 
L 440.377099 106.010932 
L 439.774387 53.597534 
L 394.341896 86.752097 
" style="fill: #f2f2f2; opacity: 0.5; stroke: #f2f2f2; stroke-linejoin: miter"/>
   </g>
  </g>
  <g id="pane3d_5">
   <g id="patch_8">
    <path d="M 440.377099 106.010932 
L 509.950586 126.233198 
L 512.433418 72.014481 
L 439.774387 53.597534 
" style="fill: #e6e6e6; opacity: 0.5; stroke: #e6e6e6; stroke-linejoin: miter"/>
   </g>
  </g>
  <g id="pane3d_6">
   <g id="patch_9">
    <path d="M 397.019494 142.354137 
L 470.770788 166.44131 
L 509.950586 126.233198 
L 440.377099 106.010932 
" style="fill: #ececec; opacity: 0.5; stroke: #ececec; stroke-linejoin: miter"/>
   </g>
  </g>
  <g id="grid3d_4">
   <g id="Line3DCollection_4">
    <path d="M 401.486259 143.812983 
L 444.608346 107.240789 
L 444.184534 54.715378 
" style="fill: none; stroke: #b0b0b0; stroke-width: 0.8"/>
    <path d="M 432.922987 154.080218 
L 474.323502 115.877812 
L 475.18797 62.573845 
" style="fill: none; stroke: #b0b0b0; stroke-width: 0.8"/>
   </g>
  </g>
  <g id="grid3d_5">
   <g id="Line3DCollection_5">
    <path d="M 397.483666 84.459376 
L 400.007199 139.849783 
L 473.481727 163.659219 
" style="fill: none; stroke: #b0b0b0; stroke-width: 0.8"/>
    <path d="M 407.979988 76.799639 
L 410.000179 131.473469 
L 482.537009 154.366272 
" style="fill: none; stroke: #b0b0b0; stroke-width: 0.8"/>
    <path d="M 418.06877 69.437305 
L 419.621689 123.408529 
L 491.238266 145.436641 
" style="fill: none; stroke: #b0b0b0; stroke-width: 0.8"/>
    <path d="M 427.773295 62.355385 
L 428.892063 115.637918 
L 499.605861 136.849431 
" style="fill: none; stroke: #b0b0b0; stroke-width: 0.8"/>
   </g>
  </g>
  <g id="grid3d_6">
   <g id="Line3DCollection_6">
    <path d="M 509.950586 126.233198 
L 440.377099 106.010932 
L 397.019494 142.354137 
" style="fill: none; stroke: #b0b0b0; stroke-width: 0.8"/>
    <path d="M 510.551117 113.119128 
L 440.231086 93.31322 
L 396.372681 128.922661 
" style="fill: none; stroke: #b0b0b0; stroke-width: 0.8"/>
    <path d="M 511.164805 99.717753 
L 440.082027 80.350722 
L 395.711154 115.185609 
" style="fill: none; stroke: #b0b0b0; stroke-width: 0.8"/>
    <path d="M 511.792087 86.019529 
L 439.929828 67.115069 
L 395.034403 101.132434 
" style="fill: none; stroke: #b0b0b0; stroke-width: 0.8"/>
    <path d="M 512.433418 72.014481 
L 439.774387 53.597534 
L 394.341896 86.752097 
" style="fill: none; stroke: #b0b0b0; stroke-width: 0.8"/>
   </g>
  </g>
  <g id="axis3d_4">
   <g id="line2d_17">
    <path d="M 397.019494 142.354137 
L 470.770788 166.44131 
" style="fill: none; stroke: #000000; stroke-width: 0.8; stroke-linecap: square"/>
   </g>
   <g id="xtick_14">
    <g id="line2d_18">
     <path d="M 401.861764 143.494514 
L 400.733638 144.451286 
" style="fill: none; stroke: #000000; stroke-width: 0.8; stroke-linecap: square"/>
    </g>
    <g id="text_18">
     <!-- 0.05 -->
     <g transform="translate(382.795548 167.18233) scale(0.1 -0.1)">
      <use xlink:href="#DejaVuSans-30"/>
      <use xlink:href="#DejaVuSans-2e" x="63.623047"/>
      <use xlink:href="#DejaVuSans-30" x="95.410156"/>
      <use xlink:href="#DejaVuSans-35" x="159.033203"/>
     </g>
    </g>
   </g>
   <g id="xtick_15">
    <g id="line2d_19">
     <path d="M 433.284174 153.746932 
L 432.199027 154.748253 
" style="fill: none; stroke: #000000; stroke-width: 0.8; stroke-linecap: square"/>
    </g>
    <g id="text_19">
     <!-- 0.1 -->
     <g transform="translate(417.481564 177.894679) scale(0.1 -0.1)">
      <use xlink:href="#DejaVuSans-30"/>
      <use xlink:href="#DejaVuSans-2e" x="63.623047"/>
      <use xlink:href="#DejaVuSans-31" x="95.410156"/>
     </g>
    </g>
   </g>
   <g id="text_20">
    <!-- support -->
    <g transform="translate(397.386452 186.318757) rotate(-341.912962) scale(0.1 -0.1)">
     <use xlink:href="#DejaVuSans-73"/>
     <use xlink:href="#DejaVuSans-75" x="52.099609"/>
     <use xlink:href="#DejaVuSans-70" x="115.478516"/>
     <use xlink:href="#DejaVuSans-70" x="178.955078"/>
     <use xlink:href="#DejaVuSans-6f" x="242.431641"/>
     <use xlink:href="#DejaVuSans-72" x="303.613281"/>
     <use xlink:href="#DejaVuSans-74" x="344.726562"/>
    </g>
   </g>
  </g>
  <g id="axis3d_5">
   <g id="line2d_20">
    <path d="M 509.950586 126.233198 
L 470.770788 166.44131 
" style="fill: none; stroke: #000000; stroke-width: 0.8; stroke-linecap: square"/>
   </g>
   <g id="xtick_16">
    <g id="line2d_21">
     <path d="M 472.862555 163.458577 
L 474.721672 164.061024 
" style="fill: none; stroke: #000000; stroke-width: 0.8; stroke-linecap: square"/>
    </g>
    <g id="text_21">
     <!-- 1000 -->
     <g transform="translate(473.645285 184.689208) scale(0.1 -0.1)">
      <use xlink:href="#DejaVuSans-31"/>
      <use xlink:href="#DejaVuSans-30" x="63.623047"/>
      <use xlink:href="#DejaVuSans-30" x="127.246094"/>
      <use xlink:href="#DejaVuSans-30" x="190.869141"/>
     </g>
    </g>
   </g>
   <g id="xtick_17">
    <g id="line2d_22">
     <path d="M 481.926357 154.173548 
L 483.759863 154.752207 
" style="fill: none; stroke: #000000; stroke-width: 0.8; stroke-linecap: square"/>
    </g>
    <g id="text_22">
     <!-- 2000 -->
     <g transform="translate(482.45407 175.117086) scale(0.1 -0.1)">
      <use xlink:href="#DejaVuSans-32"/>
      <use xlink:href="#DejaVuSans-30" x="63.623047"/>
      <use xlink:href="#DejaVuSans-30" x="127.246094"/>
      <use xlink:href="#DejaVuSans-30" x="190.869141"/>
     </g>
    </g>
   </g>
   <g id="xtick_18">
    <g id="line2d_23">
     <path d="M 490.635946 145.251378 
L 492.444403 145.80763 
" style="fill: none; stroke: #000000; stroke-width: 0.8; stroke-linecap: square"/>
    </g>
    <g id="text_23">
     <!-- 5000 -->
     <g transform="translate(490.918064 165.919634) scale(0.1 -0.1)">
      <use xlink:href="#DejaVuSans-35"/>
      <use xlink:href="#DejaVuSans-30" x="63.623047"/>
      <use xlink:href="#DejaVuSans-30" x="127.246094"/>
      <use xlink:href="#DejaVuSans-30" x="190.869141"/>
     </g>
    </g>
   </g>
   <g id="xtick_19">
    <g id="line2d_24">
     <path d="M 499.01169 136.671202 
L 500.795651 137.206324 
" style="fill: none; stroke: #000000; stroke-width: 0.8; stroke-linecap: square"/>
    </g>
    <g id="text_24">
     <!-- 10000 -->
     <g transform="translate(495.875873 157.075275) scale(0.1 -0.1)">
      <use xlink:href="#DejaVuSans-31"/>
      <use xlink:href="#DejaVuSans-30" x="63.623047"/>
      <use xlink:href="#DejaVuSans-30" x="127.246094"/>
      <use xlink:href="#DejaVuSans-30" x="190.869141"/>
      <use xlink:href="#DejaVuSans-30" x="254.492188"/>
     </g>
    </g>
   </g>
   <g id="text_25">
    <!-- window -->
    <g transform="translate(506.979859 188.99679) rotate(-45.742112) scale(0.1 -0.1)">
     <use xlink:href="#DejaVuSans-77"/>
     <use xlink:href="#DejaVuSans-69" x="81.787109"/>
     <use xlink:href="#DejaVuSans-6e" x="109.570312"/>
     <use xlink:href="#DejaVuSans-64" x="172.949219"/>
     <use xlink:href="#DejaVuSans-6f" x="236.425781"/>
     <use xlink:href="#DejaVuSans-77" x="297.607422"/>
    </g>
   </g>
  </g>
  <g id="axis3d_6">
   <g id="line2d_25">
    <path d="M 509.950586 126.233198 
L 512.433418 72.014481 
" style="fill: none; stroke: #000000; stroke-width: 0.8; stroke-linecap: square"/>
   </g>
   <g id="xtick_20">
    <g id="line2d_26">
     <path d="M 509.366673 126.063478 
L 511.119801 126.573043 
" style="fill: none; stroke: #000000; stroke-width: 0.8; stroke-linecap: square"/>
    </g>
    <g id="text_26">
     <!-- 0.00 -->
     <g transform="translate(517.010403 131.234634) scale(0.1 -0.1)">
      <use xlink:href="#DejaVuSans-30"/>
      <use xlink:href="#DejaVuSans-2e" x="63.623047"/>
      <use xlink:href="#DejaVuSans-30" x="95.410156"/>
      <use xlink:href="#DejaVuSans-30" x="159.033203"/>
     </g>
    </g>
   </g>
   <g id="xtick_21">
    <g id="line2d_27">
     <path d="M 509.960639 112.952817 
L 511.733493 113.452148 
" style="fill: none; stroke: #000000; stroke-width: 0.8; stroke-linecap: square"/>
    </g>
    <g id="text_27">
     <!-- 0.25 -->
     <g transform="translate(517.803174 118.1729) scale(0.1 -0.1)">
      <use xlink:href="#DejaVuSans-30"/>
      <use xlink:href="#DejaVuSans-2e" x="63.623047"/>
      <use xlink:href="#DejaVuSans-32" x="95.410156"/>
      <use xlink:href="#DejaVuSans-35" x="159.033203"/>
     </g>
    </g>
   </g>
   <g id="xtick_22">
    <g id="line2d_28">
     <path d="M 510.567613 99.555044 
L 512.36064 100.043567 
" style="fill: none; stroke: #000000; stroke-width: 0.8; stroke-linecap: square"/>
    </g>
    <g id="text_28">
     <!-- 0.50 -->
     <g transform="translate(518.613204 104.82678) scale(0.1 -0.1)">
      <use xlink:href="#DejaVuSans-30"/>
      <use xlink:href="#DejaVuSans-2e" x="63.623047"/>
      <use xlink:href="#DejaVuSans-35" x="95.410156"/>
      <use xlink:href="#DejaVuSans-30" x="159.033203"/>
     </g>
    </g>
   </g>
   <g id="xtick_23">
    <g id="line2d_29">
     <path d="M 511.188027 85.860622 
L 513.00169 86.337733 
" style="fill: none; stroke: #000000; stroke-width: 0.8; stroke-linecap: square"/>
    </g>
    <g id="text_29">
     <!-- 0.75 -->
     <g transform="translate(519.441066 91.186885) scale(0.1 -0.1)">
      <use xlink:href="#DejaVuSans-30"/>
      <use xlink:href="#DejaVuSans-2e" x="63.623047"/>
      <use xlink:href="#DejaVuSans-37" x="95.410156"/>
      <use xlink:href="#DejaVuSans-35" x="159.033203"/>
     </g>
    </g>
   </g>
   <g id="xtick_24">
    <g id="line2d_30">
     <path d="M 511.822331 71.859588 
L 513.657112 72.324651 
" style="fill: none; stroke: #000000; stroke-width: 0.8; stroke-linecap: square"/>
    </g>
    <g id="text_30">
     <!-- 1.00 -->
     <g transform="translate(520.287353 77.243405) scale(0.1 -0.1)">
      <use xlink:href="#DejaVuSans-31"/>
      <use xlink:href="#DejaVuSans-2e" x="63.623047"/>
      <use xlink:href="#DejaVuSans-30" x="95.410156"/>
      <use xlink:href="#DejaVuSans-30" x="159.033203"/>
     </g>
    </g>
   </g>
   <g id="text_31">
    <!-- recall -->
    <g transform="translate(553.401185 108.06795) rotate(-87.378092) scale(0.1 -0.1)">
     <use xlink:href="#DejaVuSans-72"/>
     <use xlink:href="#DejaVuSans-65" x="38.863281"/>
     <use xlink:href="#DejaVuSans-63" x="100.386719"/>
     <use xlink:href="#DejaVuSans-61" x="155.367188"/>
     <use xlink:href="#DejaVuSans-6c" x="216.646484"/>
     <use xlink:href="#DejaVuSans-6c" x="244.429688"/>
    </g>
   </g>
  </g>
  <g id="axes_2">
   <g id="Poly3DCollection_2">
    <path d="M 433.187946 116.926523 
L 442.075899 109.388578 
L 471.896466 118.117364 
L 463.374219 125.981284 
z
" clip-path="url(#pa8b00a64dd)" style="fill: #7b5000"/>
    <path d="M 433.187946 116.926523 
L 432.253663 63.528989 
L 441.540971 56.668239 
L 442.075899 109.388578 
z
" clip-path="url(#pa8b00a64dd)" style="fill: #cb8500"/>
    <path d="M 442.075899 109.388578 
L 441.540971 56.668239 
L 472.659189 64.613835 
L 471.896466 118.117364 
z
" clip-path="url(#pa8b00a64dd)" style="fill: #603f00"/>
    <path d="M 423.968562 124.745558 
L 423.470948 105.01283 
L 432.846921 97.435792 
L 433.187946 116.926523 
z
" clip-path="url(#pa8b00a64dd)" style="fill: #a32989"/>
    <path d="M 433.187946 116.926523 
L 432.846921 97.435792 
L 463.518707 106.210724 
L 463.374219 125.981284 
z
" clip-path="url(#pa8b00a64dd)" style="fill: #4d1440"/>
    <path d="M 423.968562 124.745558 
L 433.187946 116.926523 
L 463.374219 125.981284 
L 454.527186 134.144901 
z
" clip-path="url(#pa8b00a64dd)" style="fill: #621953"/>
    <path d="M 463.374219 125.981284 
L 463.567924 99.476246 
L 472.269634 91.940344 
L 471.896466 118.117364 
z
" clip-path="url(#pa8b00a64dd)" style="fill: #184f54"/>
    <path d="M 463.374219 125.981284 
L 471.896466 118.117364 
L 503.008517 127.22418 
L 494.892799 135.435687 
z
" clip-path="url(#pa8b00a64dd)" style="fill: #0e3033"/>
    <path d="M 471.896466 118.117364 
L 472.269634 91.940344 
L 504.073158 100.667854 
L 503.008517 127.22418 
z
" clip-path="url(#pa8b00a64dd)" style="fill: #0b2528"/>
    <path d="M 433.187946 116.926523 
L 463.374219 125.981284 
L 463.770301 71.784577 
L 432.253663 63.528989 
z
" clip-path="url(#pa8b00a64dd)" style="fill: #cb8500"/>
    <path d="M 463.374219 125.981284 
L 471.896466 118.117364 
L 472.659189 64.613835 
L 463.770301 71.784577 
z
" clip-path="url(#pa8b00a64dd)" style="fill: #603f00"/>
    <path d="M 423.470948 105.01283 
L 454.527186 114.127247 
L 463.518707 106.210724 
L 432.846921 97.435792 
z
" clip-path="url(#pa8b00a64dd)" style="fill: #8d2477"/>
    <path d="M 423.968562 124.745558 
L 454.527186 134.144901 
L 454.527186 114.127247 
L 423.470948 105.01283 
z
" clip-path="url(#pa8b00a64dd)" style="fill: #a32989"/>
    <path d="M 414.398857 132.861703 
L 413.57593 108.17744 
L 423.353804 100.367515 
L 423.968562 124.745558 
z
" clip-path="url(#pa8b00a64dd)" style="fill: #78352a"/>
    <path d="M 414.398857 132.861703 
L 423.968562 124.745558 
L 454.527186 134.144901 
L 445.33644 142.62568 
z
" clip-path="url(#pa8b00a64dd)" style="fill: #482019"/>
    <path d="M 454.527186 134.144901 
L 463.374219 125.981284 
L 463.518707 106.210724 
L 454.527186 114.127247 
z
" clip-path="url(#pa8b00a64dd)" style="fill: #4d1440"/>
    <path d="M 423.968562 124.745558 
L 423.353804 100.367515 
L 454.527186 109.412771 
L 454.527186 134.144901 
z
" clip-path="url(#pa8b00a64dd)" style="fill: #391914"/>
    <path d="M 454.527186 134.144901 
L 463.374219 125.981284 
L 494.892799 135.435687 
L 486.460829 143.967178 
z
" clip-path="url(#pa8b00a64dd)" style="fill: #881575"/>
    <path d="M 463.374219 125.981284 
L 494.892799 135.435687 
L 495.79654 108.544312 
L 463.567924 99.476246 
z
" clip-path="url(#pa8b00a64dd)" style="fill: #184f54"/>
    <path d="M 432.253663 63.528989 
L 463.770301 71.784577 
L 472.659189 64.613835 
L 441.540971 56.668239 
z
" clip-path="url(#pa8b00a64dd)" style="fill: #b17300"/>
    <path d="M 463.567924 99.476246 
L 495.79654 108.544312 
L 504.073158 100.667854 
L 472.269634 91.940344 
z
" clip-path="url(#pa8b00a64dd)" style="fill: #154549"/>
    <path d="M 494.892799 135.435687 
L 503.008517 127.22418 
L 504.073158 100.667854 
L 495.79654 108.544312 
z
" clip-path="url(#pa8b00a64dd)" style="fill: #0b2528"/>
    <path d="M 454.527186 134.144901 
L 454.527186 79.241078 
L 463.770301 71.784577 
L 463.374219 125.981284 
z
" clip-path="url(#pa8b00a64dd)" style="fill: #e023c2"/>
    <path d="M 463.374219 125.981284 
L 463.770301 71.784577 
L 496.741676 80.421224 
L 494.892799 135.435687 
z
" clip-path="url(#pa8b00a64dd)" style="fill: #6a105c"/>
    <path d="M 445.33644 142.62568 
L 445.212037 126.46525 
L 454.527186 118.183922 
L 454.527186 134.144901 
z
" clip-path="url(#pa8b00a64dd)" style="fill: #172e90"/>
    <path d="M 454.527186 134.144901 
L 454.527186 118.183922 
L 486.894393 127.775591 
L 486.460829 143.967178 
z
" clip-path="url(#pa8b00a64dd)" style="fill: #0b1644"/>
    <path d="M 414.398857 132.861703 
L 445.33644 142.62568 
L 445.143645 117.580943 
L 413.57593 108.17744 
z
" clip-path="url(#pa8b00a64dd)" style="fill: #78352a"/>
    <path d="M 413.57593 108.17744 
L 445.143645 117.580943 
L 454.527186 109.412771 
L 423.353804 100.367515 
z
" clip-path="url(#pa8b00a64dd)" style="fill: #682e24"/>
    <path d="M 445.33644 142.62568 
L 454.527186 134.144901 
L 454.527186 109.412771 
L 445.143645 117.580943 
z
" clip-path="url(#pa8b00a64dd)" style="fill: #391914"/>
    <path d="M 445.33644 142.62568 
L 454.527186 134.144901 
L 486.460829 143.967178 
L 477.693755 152.837729 
z
" clip-path="url(#pa8b00a64dd)" style="fill: #0e1c57"/>
    <path d="M 454.527186 134.144901 
L 486.460829 143.967178 
L 487.953325 88.229462 
L 454.527186 79.241078 
z
" clip-path="url(#pa8b00a64dd)" style="fill: #e023c2"/>
    <path d="M 435.781553 151.44247 
L 435.583085 138.895333 
L 445.241043 130.233289 
L 445.33644 142.62568 
z
" clip-path="url(#pa8b00a64dd)" style="fill: #2fbd40"/>
    <path d="M 445.212037 126.46525 
L 478.014625 136.442803 
L 486.894393 127.775591 
L 454.527186 118.183922 
z
" clip-path="url(#pa8b00a64dd)" style="fill: #14287d"/>
    <path d="M 486.460829 143.967178 
L 494.892799 135.435687 
L 496.741676 80.421224 
L 487.953325 88.229462 
z
" clip-path="url(#pa8b00a64dd)" style="fill: #6a105c"/>
    <path d="M 445.33644 142.62568 
L 445.241043 130.233289 
L 477.939792 140.266429 
L 477.693755 152.837729 
z
" clip-path="url(#pa8b00a64dd)" style="fill: #16591e"/>
    <path d="M 445.33644 142.62568 
L 477.693755 152.837729 
L 478.014625 136.442803 
L 445.212037 126.46525 
z
" clip-path="url(#pa8b00a64dd)" style="fill: #172e90"/>
    <path d="M 477.693755 152.837729 
L 486.460829 143.967178 
L 486.894393 127.775591 
L 478.014625 136.442803 
z
" clip-path="url(#pa8b00a64dd)" style="fill: #0b1644"/>
    <path d="M 435.781553 151.44247 
L 445.33644 142.62568 
L 477.693755 152.837729 
L 468.571195 162.067961 
z
" clip-path="url(#pa8b00a64dd)" style="fill: #1d7227"/>
    <path d="M 454.527186 79.241078 
L 487.953325 88.229462 
L 496.741676 80.421224 
L 463.770301 71.784577 
z
" clip-path="url(#pa8b00a64dd)" style="fill: #c31ea8"/>
    <path d="M 435.583085 138.895333 
L 468.723404 149.339066 
L 477.939792 140.266429 
L 445.241043 130.233289 
z
" clip-path="url(#pa8b00a64dd)" style="fill: #29a438"/>
    <path d="M 435.781553 151.44247 
L 468.571195 162.067961 
L 468.723404 149.339066 
L 435.583085 138.895333 
z
" clip-path="url(#pa8b00a64dd)" style="fill: #2fbd40"/>
    <path d="M 468.571195 162.067961 
L 477.693755 152.837729 
L 477.939792 140.266429 
L 468.723404 149.339066 
z
" clip-path="url(#pa8b00a64dd)" style="fill: #16591e"/>
   </g>
   <g id="text_32">
    <!-- stream -->
    <g transform="translate(431.730441 37.432941) scale(0.12 -0.12)">
     <defs>
      <path id="DejaVuSans-6d" d="M 3328 2828 
Q 3544 3216 3844 3400 
Q 4144 3584 4550 3584 
Q 5097 3584 5394 3201 
Q 5691 2819 5691 2113 
L 5691 0 
L 5113 0 
L 5113 2094 
Q 5113 2597 4934 2840 
Q 4756 3084 4391 3084 
Q 3944 3084 3684 2787 
Q 3425 2491 3425 1978 
L 3425 0 
L 2847 0 
L 2847 2094 
Q 2847 2600 2669 2842 
Q 2491 3084 2119 3084 
Q 1678 3084 1418 2786 
Q 1159 2488 1159 1978 
L 1159 0 
L 581 0 
L 581 3500 
L 1159 3500 
L 1159 2956 
Q 1356 3278 1631 3431 
Q 1906 3584 2284 3584 
Q 2666 3584 2933 3390 
Q 3200 3197 3328 2828 
z
" transform="scale(0.015625)"/>
     </defs>
     <use xlink:href="#DejaVuSans-73"/>
     <use xlink:href="#DejaVuSans-74" x="52.099609"/>
     <use xlink:href="#DejaVuSans-72" x="91.308594"/>
     <use xlink:href="#DejaVuSans-65" x="130.171875"/>
     <use xlink:href="#DejaVuSans-61" x="191.695312"/>
     <use xlink:href="#DejaVuSans-6d" x="252.974609"/>
    </g>
   </g>
  </g>
 </g>
 <defs>
  <clipPath id="pf9e8741b86">
   <rect x="229.552941" y="43.432941" width="131.294118" height="131.294118"/>
  </clipPath>
  <clipPath id="pa8b00a64dd">
   <rect x="387.105882" y="43.432941" width="131.294118" height="131.294118"/>
  </clipPath>
 </defs>
</svg>
