<?xml version="1.0" encoding="utf-8" standalone="no"?>
<!DOCTYPE svg PUBLIC "-//W3C//DTD SVG 1.1//EN"
  "http://www.w3.org/Graphics/SVG/1.1/DTD/svg11.dtd">
<svg xmlns:xlink="http://www.w3.org/1999/xlink" width="1296pt" height="288pt" viewBox="0 0 1296 288" xmlns="http://www.w3.org/2000/svg" version="1.1">
 <metadata>
  <rdf:RDF xmlns:dc="http://purl.org/dc/elements/1.1/" xmlns:cc="http://creativecommons.org/ns#" xmlns:rdf="http://www.w3.org/1999/02/22-rdf-syntax-ns#">
   <cc:Work>
    <dc:type rdf:resource="http://purl.org/dc/dcmitype/StillImage"/>
    <dc:date>2025-11-21T16:26:44.613146</dc:date>
    <dc:format>image/svg+xml</dc:format>
    <dc:creator>
     <cc:Agent>
      <dc:title>Matplotlib v3.9.0, https://matplotlib.org/</dc:title>
     </cc:Agent>
    </dc:creator>
   </cc:Work>
  </rdf:RDF>
 </metadata>
 <defs>
  <style type="text/css">*{stroke-linejoin: round; stroke-linecap: butt}</style>
 </defs>
 <g id="figure_1">
  <g id="patch_1">
   <path d="M 0 288 
L 1296 288 
L 1296 0 
L 0 0 
z
" style="fill: #ffffff"/>
  </g>
  <g id="patch_2">
   <path d="M 198.825882 256.32 
L 420.585882 256.32 
L 420.585882 34.56 
L 198.825882 34.56 
z
" style="fill: #ffffff"/>
  </g>
  <g id="pane3d_1">
   <g id="patch_3">
    <path d="M 215.570292 201.641091 
L 288.802686 140.256246 
L 287.784686 51.728326 
L 211.047744 107.727451 
" style="fill: #f2f2f2; opacity: 0.5; stroke: #f2f2f2; stroke-linejoin: miter"/>
   </g>
  </g>
  <g id="pane3d_2">
   <g id="patch_4">
    <path d="M 288.802686 140.256246 
L 406.314549 174.412305 
L 410.508134 82.835142 
L 287.784686 51.728326 
" style="fill: #e6e6e6; opacity: 0.5; stroke: #e6e6e6; stroke-linejoin: miter"/>
   </g>
  </g>
  <g id="pane3d_3">
   <g id="patch_5">
    <path d="M 215.570292 201.641091 
L 340.138606 242.325102 
L 406.314549 174.412305 
L 288.802686 140.256246 
" style="fill: #ececec; opacity: 0.5; stroke: #ececec; stroke-linejoin: miter"/>
   </g>
  </g>
  <g id="grid3d_1">
   <g id="Line3DCollection_1">
    <path d="M 223.114802 204.105128 
L 295.949398 142.333513 
L 295.233566 53.6164 
" style="fill: none; stroke: #b0b0b0; stroke-width: 0.8"/>
    <path d="M 240.54664 209.798366 
L 312.447471 147.128851 
L 312.43649 57.976839 
" style="fill: none; stroke: #b0b0b0; stroke-width: 0.8"/>
    <path d="M 258.243821 215.578266 
L 329.175806 151.991118 
L 329.88992 62.400775 
" style="fill: none; stroke: #b0b0b0; stroke-width: 0.8"/>
    <path d="M 276.21245 221.44682 
L 346.139256 156.921723 
L 347.59937 66.889605 
" style="fill: none; stroke: #b0b0b0; stroke-width: 0.8"/>
    <path d="M 294.458821 227.406084 
L 363.342813 161.922118 
L 365.570513 71.444766 
" style="fill: none; stroke: #b0b0b0; stroke-width: 0.8"/>
    <path d="M 312.989423 233.458179 
L 380.791613 166.993795 
L 383.809194 76.06774 
" style="fill: none; stroke: #b0b0b0; stroke-width: 0.8"/>
   </g>
  </g>
  <g id="grid3d_2">
   <g id="Line3DCollection_2">
    <path d="M 216.354293 103.854973 
L 220.616623 197.411156 
L 344.71747 237.626062 
" style="fill: none; stroke: #b0b0b0; stroke-width: 0.8"/>
   </g>
  </g>
  <g id="grid3d_3">
   <g id="Line3DCollection_3">
    <path d="M 406.496052 170.448754 
L 288.758537 136.416923 
L 215.374867 197.582967 
" style="fill: none; stroke: #b0b0b0; stroke-width: 0.8"/>
    <path d="M 407.444019 149.747569 
L 288.528082 116.375975 
L 214.353721 176.378215 
" style="fill: none; stroke: #b0b0b0; stroke-width: 0.8"/>
    <path d="M 408.411345 128.623659 
L 288.293148 95.945501 
L 213.310921 154.723792 
" style="fill: none; stroke: #b0b0b0; stroke-width: 0.8"/>
    <path d="M 409.398627 107.063942 
L 288.053603 75.114034 
L 212.24577 132.605241 
" style="fill: none; stroke: #b0b0b0; stroke-width: 0.8"/>
    <path d="M 410.406489 85.054791 
L 287.809309 53.869651 
L 211.157542 110.007479 
" style="fill: none; stroke: #b0b0b0; stroke-width: 0.8"/>
   </g>
  </g>
  <g id="axis3d_1">
   <g id="line2d_1">
    <path d="M 215.570292 201.641091 
L 340.138606 242.325102 
" style="fill: none; stroke: #000000; stroke-width: 0.8; stroke-linecap: square"/>
   </g>
   <g id="xtick_1">
    <g id="line2d_2">
     <path d="M 223.749042 203.567224 
L 221.843602 205.183244 
" style="fill: none; stroke: #000000; stroke-width: 0.8; stroke-linecap: square"/>
    </g>
    <g id="text_1">
     <!-- 50 -->
     <g transform="translate(213.604219 234.459625) rotate(-50) scale(0.1 -0.1)">
      <defs>
       <path id="DejaVuSans-35" d="M 691 4666 
L 3169 4666 
L 3169 4134 
L 1269 4134 
L 1269 2991 
Q 1406 3038 1543 3061 
Q 1681 3084 1819 3084 
Q 2600 3084 3056 2656 
Q 3513 2228 3513 1497 
Q 3513 744 3044 326 
Q 2575 -91 1722 -91 
Q 1428 -91 1123 -41 
Q 819 9 494 109 
L 494 744 
Q 775 591 1075 516 
Q 1375 441 1709 441 
Q 2250 441 2565 725 
Q 2881 1009 2881 1497 
Q 2881 1984 2565 2268 
Q 2250 2553 1709 2553 
Q 1456 2553 1204 2497 
Q 953 2441 691 2322 
L 691 4666 
z
" transform="scale(0.015625)"/>
       <path id="DejaVuSans-30" d="M 2034 4250 
Q 1547 4250 1301 3770 
Q 1056 3291 1056 2328 
Q 1056 1369 1301 889 
Q 1547 409 2034 409 
Q 2525 409 2770 889 
Q 3016 1369 3016 2328 
Q 3016 3291 2770 3770 
Q 2525 4250 2034 4250 
z
M 2034 4750 
Q 2819 4750 3233 4129 
Q 3647 3509 3647 2328 
Q 3647 1150 3233 529 
Q 2819 -91 2034 -91 
Q 1250 -91 836 529 
Q 422 1150 422 2328 
Q 422 3509 836 4129 
Q 1250 4750 2034 4750 
z
" transform="scale(0.015625)"/>
      </defs>
      <use xlink:href="#DejaVuSans-35"/>
      <use xlink:href="#DejaVuSans-30" x="63.623047"/>
     </g>
    </g>
   </g>
   <g id="xtick_2">
    <g id="line2d_3">
     <path d="M 241.173133 209.252309 
L 239.290947 210.892842 
" style="fill: none; stroke: #000000; stroke-width: 0.8; stroke-linecap: square"/>
    </g>
    <g id="text_2">
     <!-- 100 -->
     <g transform="translate(229.012427 245.171721) rotate(-50) scale(0.1 -0.1)">
      <defs>
       <path id="DejaVuSans-31" d="M 794 531 
L 1825 531 
L 1825 4091 
L 703 3866 
L 703 4441 
L 1819 4666 
L 2450 4666 
L 2450 531 
L 3481 531 
L 3481 0 
L 794 0 
L 794 531 
z
" transform="scale(0.015625)"/>
      </defs>
      <use xlink:href="#DejaVuSans-31"/>
      <use xlink:href="#DejaVuSans-30" x="63.623047"/>
      <use xlink:href="#DejaVuSans-30" x="127.246094"/>
     </g>
    </g>
   </g>
   <g id="xtick_3">
    <g id="line2d_4">
     <path d="M 258.862257 215.023868 
L 257.004256 216.689477 
" style="fill: none; stroke: #000000; stroke-width: 0.8; stroke-linecap: square"/>
    </g>
    <g id="text_3">
     <!-- 200 -->
     <g transform="translate(246.732374 251.099127) rotate(-50) scale(0.1 -0.1)">
      <defs>
       <path id="DejaVuSans-32" d="M 1228 531 
L 3431 531 
L 3431 0 
L 469 0 
L 469 531 
Q 828 903 1448 1529 
Q 2069 2156 2228 2338 
Q 2531 2678 2651 2914 
Q 2772 3150 2772 3378 
Q 2772 3750 2511 3984 
Q 2250 4219 1831 4219 
Q 1534 4219 1204 4116 
Q 875 4013 500 3803 
L 500 4441 
Q 881 4594 1212 4672 
Q 1544 4750 1819 4750 
Q 2544 4750 2975 4387 
Q 3406 4025 3406 3419 
Q 3406 3131 3298 2873 
Q 3191 2616 2906 2266 
Q 2828 2175 2409 1742 
Q 1991 1309 1228 531 
z
" transform="scale(0.015625)"/>
      </defs>
      <use xlink:href="#DejaVuSans-32"/>
      <use xlink:href="#DejaVuSans-30" x="63.623047"/>
      <use xlink:href="#DejaVuSans-30" x="127.246094"/>
     </g>
    </g>
   </g>
   <g id="xtick_4">
    <g id="line2d_5">
     <path d="M 276.822507 220.883889 
L 274.989658 222.575153 
" style="fill: none; stroke: #000000; stroke-width: 0.8; stroke-linecap: square"/>
    </g>
    <g id="text_4">
     <!-- 250 -->
     <g transform="translate(264.72536 257.117867) rotate(-50) scale(0.1 -0.1)">
      <use xlink:href="#DejaVuSans-32"/>
      <use xlink:href="#DejaVuSans-35" x="63.623047"/>
      <use xlink:href="#DejaVuSans-30" x="127.246094"/>
     </g>
    </g>
   </g>
   <g id="xtick_5">
    <g id="line2d_6">
     <path d="M 295.060165 226.834422 
L 293.253472 228.551939 
" style="fill: none; stroke: #000000; stroke-width: 0.8; stroke-linecap: square"/>
    </g>
    <g id="text_5">
     <!-- 500 -->
     <g transform="translate(282.997743 263.230066) rotate(-50) scale(0.1 -0.1)">
      <use xlink:href="#DejaVuSans-35"/>
      <use xlink:href="#DejaVuSans-30" x="63.623047"/>
      <use xlink:href="#DejaVuSans-30" x="127.246094"/>
     </g>
    </g>
   </g>
   <g id="xtick_6">
    <g id="line2d_7">
     <path d="M 313.581708 232.87758 
L 311.802211 234.621966 
" style="fill: none; stroke: #000000; stroke-width: 0.8; stroke-linecap: square"/>
    </g>
    <g id="text_6">
     <!-- 1000 -->
     <g transform="translate(299.511216 274.311878) rotate(-50) scale(0.1 -0.1)">
      <use xlink:href="#DejaVuSans-31"/>
      <use xlink:href="#DejaVuSans-30" x="63.623047"/>
      <use xlink:href="#DejaVuSans-30" x="127.246094"/>
      <use xlink:href="#DejaVuSans-30" x="190.869141"/>
     </g>
    </g>
   </g>
   <g id="text_7">
    <!-- support -->
    <g transform="translate(236.823885 262.025249) rotate(-341.912962) scale(0.1 -0.1)">
     <defs>
      <path id="DejaVuSans-73" d="M 2834 3397 
L 2834 2853 
Q 2591 2978 2328 3040 
Q 2066 3103 1784 3103 
Q 1356 3103 1142 2972 
Q 928 2841 928 2578 
Q 928 2378 1081 2264 
Q 1234 2150 1697 2047 
L 1894 2003 
Q 2506 1872 2764 1633 
Q 3022 1394 3022 966 
Q 3022 478 2636 193 
Q 2250 -91 1575 -91 
Q 1294 -91 989 -36 
Q 684 19 347 128 
L 347 722 
Q 666 556 975 473 
Q 1284 391 1588 391 
Q 1994 391 2212 530 
Q 2431 669 2431 922 
Q 2431 1156 2273 1281 
Q 2116 1406 1581 1522 
L 1381 1569 
Q 847 1681 609 1914 
Q 372 2147 372 2553 
Q 372 3047 722 3315 
Q 1072 3584 1716 3584 
Q 2034 3584 2315 3537 
Q 2597 3491 2834 3397 
z
" transform="scale(0.015625)"/>
      <path id="DejaVuSans-75" d="M 544 1381 
L 544 3500 
L 1119 3500 
L 1119 1403 
Q 1119 906 1312 657 
Q 1506 409 1894 409 
Q 2359 409 2629 706 
Q 2900 1003 2900 1516 
L 2900 3500 
L 3475 3500 
L 3475 0 
L 2900 0 
L 2900 538 
Q 2691 219 2414 64 
Q 2138 -91 1772 -91 
Q 1169 -91 856 284 
Q 544 659 544 1381 
z
M 1991 3584 
L 1991 3584 
z
" transform="scale(0.015625)"/>
      <path id="DejaVuSans-70" d="M 1159 525 
L 1159 -1331 
L 581 -1331 
L 581 3500 
L 1159 3500 
L 1159 2969 
Q 1341 3281 1617 3432 
Q 1894 3584 2278 3584 
Q 2916 3584 3314 3078 
Q 3713 2572 3713 1747 
Q 3713 922 3314 415 
Q 2916 -91 2278 -91 
Q 1894 -91 1617 61 
Q 1341 213 1159 525 
z
M 3116 1747 
Q 3116 2381 2855 2742 
Q 2594 3103 2138 3103 
Q 1681 3103 1420 2742 
Q 1159 2381 1159 1747 
Q 1159 1113 1420 752 
Q 1681 391 2138 391 
Q 2594 391 2855 752 
Q 3116 1113 3116 1747 
z
" transform="scale(0.015625)"/>
      <path id="DejaVuSans-6f" d="M 1959 3097 
Q 1497 3097 1228 2736 
Q 959 2375 959 1747 
Q 959 1119 1226 758 
Q 1494 397 1959 397 
Q 2419 397 2687 759 
Q 2956 1122 2956 1747 
Q 2956 2369 2687 2733 
Q 2419 3097 1959 3097 
z
M 1959 3584 
Q 2709 3584 3137 3096 
Q 3566 2609 3566 1747 
Q 3566 888 3137 398 
Q 2709 -91 1959 -91 
Q 1206 -91 779 398 
Q 353 888 353 1747 
Q 353 2609 779 3096 
Q 1206 3584 1959 3584 
z
" transform="scale(0.015625)"/>
      <path id="DejaVuSans-72" d="M 2631 2963 
Q 2534 3019 2420 3045 
Q 2306 3072 2169 3072 
Q 1681 3072 1420 2755 
Q 1159 2438 1159 1844 
L 1159 0 
L 581 0 
L 581 3500 
L 1159 3500 
L 1159 2956 
Q 1341 3275 1631 3429 
Q 1922 3584 2338 3584 
Q 2397 3584 2469 3576 
Q 2541 3569 2628 3553 
L 2631 2963 
z
" transform="scale(0.015625)"/>
      <path id="DejaVuSans-74" d="M 1172 4494 
L 1172 3500 
L 2356 3500 
L 2356 3053 
L 1172 3053 
L 1172 1153 
Q 1172 725 1289 603 
Q 1406 481 1766 481 
L 2356 481 
L 2356 0 
L 1766 0 
Q 1100 0 847 248 
Q 594 497 594 1153 
L 594 3053 
L 172 3053 
L 172 3500 
L 594 3500 
L 594 4494 
L 1172 4494 
z
" transform="scale(0.015625)"/>
     </defs>
     <use xlink:href="#DejaVuSans-73"/>
     <use xlink:href="#DejaVuSans-75" x="52.099609"/>
     <use xlink:href="#DejaVuSans-70" x="115.478516"/>
     <use xlink:href="#DejaVuSans-70" x="178.955078"/>
     <use xlink:href="#DejaVuSans-6f" x="242.431641"/>
     <use xlink:href="#DejaVuSans-72" x="303.613281"/>
     <use xlink:href="#DejaVuSans-74" x="344.726562"/>
    </g>
   </g>
  </g>
  <g id="axis3d_2">
   <g id="line2d_8">
    <path d="M 406.314549 174.412305 
L 340.138606 242.325102 
" style="fill: none; stroke: #000000; stroke-width: 0.8; stroke-linecap: square"/>
   </g>
   <g id="xtick_7">
    <g id="line2d_9">
     <path d="M 343.671668 237.28717 
L 346.811777 238.304723 
" style="fill: none; stroke: #000000; stroke-width: 0.8; stroke-linecap: square"/>
    </g>
    <g id="text_8">
     <!-- -1 -->
     <g transform="translate(351.902687 257.631402) rotate(-330) scale(0.1 -0.1)">
      <defs>
       <path id="DejaVuSans-2d" d="M 313 2009 
L 1997 2009 
L 1997 1497 
L 313 1497 
L 313 2009 
z
" transform="scale(0.015625)"/>
      </defs>
      <use xlink:href="#DejaVuSans-2d"/>
      <use xlink:href="#DejaVuSans-31" x="36.083984"/>
     </g>
    </g>
   </g>
   <g id="text_9">
    <!-- window -->
    <g transform="translate(396.90878 257.115816) rotate(-45.742112) scale(0.1 -0.1)">
     <defs>
      <path id="DejaVuSans-77" d="M 269 3500 
L 844 3500 
L 1563 769 
L 2278 3500 
L 2956 3500 
L 3675 769 
L 4391 3500 
L 4966 3500 
L 4050 0 
L 3372 0 
L 2619 2869 
L 1863 0 
L 1184 0 
L 269 3500 
z
" transform="scale(0.015625)"/>
      <path id="DejaVuSans-69" d="M 603 3500 
L 1178 3500 
L 1178 0 
L 603 0 
L 603 3500 
z
M 603 4863 
L 1178 4863 
L 1178 4134 
L 603 4134 
L 603 4863 
z
" transform="scale(0.015625)"/>
      <path id="DejaVuSans-6e" d="M 3513 2113 
L 3513 0 
L 2938 0 
L 2938 2094 
Q 2938 2591 2744 2837 
Q 2550 3084 2163 3084 
Q 1697 3084 1428 2787 
Q 1159 2491 1159 1978 
L 1159 0 
L 581 0 
L 581 3500 
L 1159 3500 
L 1159 2956 
Q 1366 3272 1645 3428 
Q 1925 3584 2291 3584 
Q 2894 3584 3203 3211 
Q 3513 2838 3513 2113 
z
" transform="scale(0.015625)"/>
      <path id="DejaVuSans-64" d="M 2906 2969 
L 2906 4863 
L 3481 4863 
L 3481 0 
L 2906 0 
L 2906 525 
Q 2725 213 2448 61 
Q 2172 -91 1784 -91 
Q 1150 -91 751 415 
Q 353 922 353 1747 
Q 353 2572 751 3078 
Q 1150 3584 1784 3584 
Q 2172 3584 2448 3432 
Q 2725 3281 2906 2969 
z
M 947 1747 
Q 947 1113 1208 752 
Q 1469 391 1925 391 
Q 2381 391 2643 752 
Q 2906 1113 2906 1747 
Q 2906 2381 2643 2742 
Q 2381 3103 1925 3103 
Q 1469 3103 1208 2742 
Q 947 2381 947 1747 
z
" transform="scale(0.015625)"/>
     </defs>
     <use xlink:href="#DejaVuSans-77"/>
     <use xlink:href="#DejaVuSans-69" x="81.787109"/>
     <use xlink:href="#DejaVuSans-6e" x="109.570312"/>
     <use xlink:href="#DejaVuSans-64" x="172.949219"/>
     <use xlink:href="#DejaVuSans-6f" x="236.425781"/>
     <use xlink:href="#DejaVuSans-77" x="297.607422"/>
    </g>
   </g>
  </g>
  <g id="axis3d_3">
   <g id="line2d_10">
    <path d="M 406.314549 174.412305 
L 410.508134 82.835142 
" style="fill: none; stroke: #000000; stroke-width: 0.8; stroke-linecap: square"/>
   </g>
   <g id="xtick_8">
    <g id="line2d_11">
     <path d="M 405.50782 170.163108 
L 408.47487 171.020728 
" style="fill: none; stroke: #000000; stroke-width: 0.8; stroke-linecap: square"/>
    </g>
    <g id="text_10">
     <!-- $10^{-1.0}$ -->
     <g transform="translate(409.718335 175.453005) scale(0.1 -0.1)">
      <defs>
       <path id="DejaVuSans-2212" d="M 678 2272 
L 4684 2272 
L 4684 1741 
L 678 1741 
L 678 2272 
z
" transform="scale(0.015625)"/>
       <path id="DejaVuSans-2e" d="M 684 794 
L 1344 794 
L 1344 0 
L 684 0 
L 684 794 
z
" transform="scale(0.015625)"/>
      </defs>
      <use xlink:href="#DejaVuSans-31" transform="translate(0 0.765625)"/>
      <use xlink:href="#DejaVuSans-30" transform="translate(63.623047 0.765625)"/>
      <use xlink:href="#DejaVuSans-2212" transform="translate(128.203125 39.046875) scale(0.7)"/>
      <use xlink:href="#DejaVuSans-31" transform="translate(186.855469 39.046875) scale(0.7)"/>
      <use xlink:href="#DejaVuSans-2e" transform="translate(231.391602 39.046875) scale(0.7)"/>
      <use xlink:href="#DejaVuSans-30" transform="translate(253.642578 39.046875) scale(0.7)"/>
     </g>
    </g>
   </g>
   <g id="xtick_9">
    <g id="line2d_12">
     <path d="M 406.445424 149.467332 
L 409.443614 150.308719 
" style="fill: none; stroke: #000000; stroke-width: 0.8; stroke-linecap: square"/>
    </g>
    <g id="text_11">
     <!-- $10^{0.0}$ -->
     <g transform="translate(413.746858 154.801026) scale(0.1 -0.1)">
      <use xlink:href="#DejaVuSans-31" transform="translate(0 0.765625)"/>
      <use xlink:href="#DejaVuSans-30" transform="translate(63.623047 0.765625)"/>
      <use xlink:href="#DejaVuSans-30" transform="translate(128.203125 39.046875) scale(0.7)"/>
      <use xlink:href="#DejaVuSans-2e" transform="translate(172.739258 39.046875) scale(0.7)"/>
      <use xlink:href="#DejaVuSans-30" transform="translate(194.990234 39.046875) scale(0.7)"/>
     </g>
    </g>
   </g>
   <g id="xtick_10">
    <g id="line2d_13">
     <path d="M 407.402166 128.349112 
L 410.432156 129.173421 
" style="fill: none; stroke: #000000; stroke-width: 0.8; stroke-linecap: square"/>
    </g>
    <g id="text_12">
     <!-- $10^{1.0}$ -->
     <g transform="translate(414.898341 133.728878) scale(0.1 -0.1)">
      <use xlink:href="#DejaVuSans-31" transform="translate(0 0.765625)"/>
      <use xlink:href="#DejaVuSans-30" transform="translate(63.623047 0.765625)"/>
      <use xlink:href="#DejaVuSans-31" transform="translate(128.203125 39.046875) scale(0.7)"/>
      <use xlink:href="#DejaVuSans-2e" transform="translate(172.739258 39.046875) scale(0.7)"/>
      <use xlink:href="#DejaVuSans-30" transform="translate(194.990234 39.046875) scale(0.7)"/>
     </g>
    </g>
   </g>
   <g id="xtick_11">
    <g id="line2d_14">
     <path d="M 408.378638 106.795381 
L 411.441109 107.601724 
" style="fill: none; stroke: #000000; stroke-width: 0.8; stroke-linecap: square"/>
    </g>
    <g id="text_13">
     <!-- $10^{2.0}$ -->
     <g transform="translate(416.073492 112.223604) scale(0.1 -0.1)">
      <use xlink:href="#DejaVuSans-31" transform="translate(0 0.765625)"/>
      <use xlink:href="#DejaVuSans-30" transform="translate(63.623047 0.765625)"/>
      <use xlink:href="#DejaVuSans-32" transform="translate(128.203125 39.046875) scale(0.7)"/>
      <use xlink:href="#DejaVuSans-2e" transform="translate(172.739258 39.046875) scale(0.7)"/>
      <use xlink:href="#DejaVuSans-30" transform="translate(194.990234 39.046875) scale(0.7)"/>
     </g>
    </g>
   </g>
   <g id="xtick_12">
    <g id="line2d_15">
     <path d="M 409.375458 84.792527 
L 412.471113 85.579971 
" style="fill: none; stroke: #000000; stroke-width: 0.8; stroke-linecap: square"/>
    </g>
    <g id="text_14">
     <!-- $10^{3.0}$ -->
     <g transform="translate(417.273049 90.271714) scale(0.1 -0.1)">
      <defs>
       <path id="DejaVuSans-33" d="M 2597 2516 
Q 3050 2419 3304 2112 
Q 3559 1806 3559 1356 
Q 3559 666 3084 287 
Q 2609 -91 1734 -91 
Q 1441 -91 1130 -33 
Q 819 25 488 141 
L 488 750 
Q 750 597 1062 519 
Q 1375 441 1716 441 
Q 2309 441 2620 675 
Q 2931 909 2931 1356 
Q 2931 1769 2642 2001 
Q 2353 2234 1838 2234 
L 1294 2234 
L 1294 2753 
L 1863 2753 
Q 2328 2753 2575 2939 
Q 2822 3125 2822 3475 
Q 2822 3834 2567 4026 
Q 2313 4219 1838 4219 
Q 1578 4219 1281 4162 
Q 984 4106 628 3988 
L 628 4550 
Q 988 4650 1302 4700 
Q 1616 4750 1894 4750 
Q 2613 4750 3031 4423 
Q 3450 4097 3450 3541 
Q 3450 3153 3228 2886 
Q 3006 2619 2597 2516 
z
" transform="scale(0.015625)"/>
      </defs>
      <use xlink:href="#DejaVuSans-31" transform="translate(0 0.765625)"/>
      <use xlink:href="#DejaVuSans-30" transform="translate(63.623047 0.765625)"/>
      <use xlink:href="#DejaVuSans-33" transform="translate(128.203125 39.046875) scale(0.7)"/>
      <use xlink:href="#DejaVuSans-2e" transform="translate(172.739258 39.046875) scale(0.7)"/>
      <use xlink:href="#DejaVuSans-30" transform="translate(194.990234 39.046875) scale(0.7)"/>
     </g>
    </g>
   </g>
   <g id="text_15">
    <!-- elapsed -->
    <g transform="translate(450.549432 143.889828) rotate(-87.378092) scale(0.1 -0.1)">
     <defs>
      <path id="DejaVuSans-65" d="M 3597 1894 
L 3597 1613 
L 953 1613 
Q 991 1019 1311 708 
Q 1631 397 2203 397 
Q 2534 397 2845 478 
Q 3156 559 3463 722 
L 3463 178 
Q 3153 47 2828 -22 
Q 2503 -91 2169 -91 
Q 1331 -91 842 396 
Q 353 884 353 1716 
Q 353 2575 817 3079 
Q 1281 3584 2069 3584 
Q 2775 3584 3186 3129 
Q 3597 2675 3597 1894 
z
M 3022 2063 
Q 3016 2534 2758 2815 
Q 2500 3097 2075 3097 
Q 1594 3097 1305 2825 
Q 1016 2553 972 2059 
L 3022 2063 
z
" transform="scale(0.015625)"/>
      <path id="DejaVuSans-6c" d="M 603 4863 
L 1178 4863 
L 1178 0 
L 603 0 
L 603 4863 
z
" transform="scale(0.015625)"/>
      <path id="DejaVuSans-61" d="M 2194 1759 
Q 1497 1759 1228 1600 
Q 959 1441 959 1056 
Q 959 750 1161 570 
Q 1363 391 1709 391 
Q 2188 391 2477 730 
Q 2766 1069 2766 1631 
L 2766 1759 
L 2194 1759 
z
M 3341 1997 
L 3341 0 
L 2766 0 
L 2766 531 
Q 2569 213 2275 61 
Q 1981 -91 1556 -91 
Q 1019 -91 701 211 
Q 384 513 384 1019 
Q 384 1609 779 1909 
Q 1175 2209 1959 2209 
L 2766 2209 
L 2766 2266 
Q 2766 2663 2505 2880 
Q 2244 3097 1772 3097 
Q 1472 3097 1187 3025 
Q 903 2953 641 2809 
L 641 3341 
Q 956 3463 1253 3523 
Q 1550 3584 1831 3584 
Q 2591 3584 2966 3190 
Q 3341 2797 3341 1997 
z
" transform="scale(0.015625)"/>
     </defs>
     <use xlink:href="#DejaVuSans-65"/>
     <use xlink:href="#DejaVuSans-6c" x="61.523438"/>
     <use xlink:href="#DejaVuSans-61" x="89.306641"/>
     <use xlink:href="#DejaVuSans-70" x="150.585938"/>
     <use xlink:href="#DejaVuSans-73" x="214.0625"/>
     <use xlink:href="#DejaVuSans-65" x="266.162109"/>
     <use xlink:href="#DejaVuSans-64" x="327.685547"/>
    </g>
   </g>
  </g>
  <g id="axes_1">
   <g id="Poly3DCollection_1">
    <path d="M 308.175168 126.680477 
L 308.11533 99.031633 
L 325.325541 103.697082 
L 325.159717 131.480887 
z
" clip-path="url(#p28e403dadf)" style="fill: #0a5448"/>
    <path d="M 325.159717 131.480887 
L 325.177316 128.532206 
L 342.429338 133.387069 
L 342.3871 136.349931 
z
" clip-path="url(#p28e403dadf)" style="fill: #68161b"/>
    <path d="M 291.428356 121.947259 
L 290.787334 58.770689 
L 308.037759 63.188782 
L 308.175168 126.680477 
z
" clip-path="url(#p28e403dadf)" style="fill: #161705"/>
    <path d="M 342.302781 142.264755 
L 342.3871 136.349931 
L 359.862564 141.28909 
L 359.727644 147.23225 
z
" clip-path="url(#p28e403dadf)" style="fill: #344250"/>
    <path d="M 359.346582 164.017802 
L 359.862564 141.28909 
L 377.591506 146.299891 
L 376.876458 169.136407 
z
" clip-path="url(#p28e403dadf)" style="fill: #55113c"/>
    <path d="M 376.925253 167.578032 
L 377.591506 146.299891 
L 395.57948 151.383904 
L 394.722382 172.763304 
z
" clip-path="url(#p28e403dadf)" style="fill: #161445"/>
    <path d="M 227.078335 174.62326 
L 291.428356 121.947259 
L 308.175168 126.680477 
L 244.659319 180.131157 
z
" clip-path="url(#p28e403dadf)" style="fill: #1c1e06"/>
    <path d="M 244.659319 180.131157 
L 308.175168 126.680477 
L 325.159717 131.480887 
L 262.509757 185.72347 
z
" clip-path="url(#p28e403dadf)" style="fill: #0d6b5d"/>
    <path d="M 244.659319 180.131157 
L 243.687928 151.029012 
L 308.11533 99.031633 
L 308.175168 126.680477 
z
" clip-path="url(#p28e403dadf)" style="fill: #16b19a"/>
    <path d="M 262.509757 185.72347 
L 262.433191 182.622346 
L 325.177316 128.532206 
L 325.159717 131.480887 
z
" clip-path="url(#p28e403dadf)" style="fill: #dd2e3a"/>
    <path d="M 227.078335 174.62326 
L 224.289409 108.045683 
L 290.787334 58.770689 
L 291.428356 121.947259 
z
" clip-path="url(#p28e403dadf)" style="fill: #2e310a"/>
    <path d="M 262.509757 185.72347 
L 325.159717 131.480887 
L 342.3871 136.349931 
L 280.635892 191.402155 
z
" clip-path="url(#p28e403dadf)" style="fill: #861c23"/>
    <path d="M 262.433191 182.622346 
L 280.586598 188.285776 
L 342.429338 133.387069 
L 325.177316 128.532206 
z
" clip-path="url(#p28e403dadf)" style="fill: #c02832"/>
    <path d="M 280.734266 197.621321 
L 280.635892 191.402155 
L 342.3871 136.349931 
L 342.302781 142.264755 
z
" clip-path="url(#p28e403dadf)" style="fill: #6e8baa"/>
    <path d="M 262.509757 185.72347 
L 325.159717 131.480887 
L 325.325541 103.697082 
L 261.78763 156.475557 
z
" clip-path="url(#p28e403dadf)" style="fill: #0a5448"/>
    <path d="M 299.205543 221.054224 
L 359.346582 164.017802 
L 376.876458 169.136407 
L 317.681207 227.027133 
z
" clip-path="url(#p28e403dadf)" style="fill: #6d164c"/>
    <path d="M 280.635892 191.402155 
L 342.3871 136.349931 
L 342.429338 133.387069 
L 280.586598 188.285776 
z
" clip-path="url(#p28e403dadf)" style="fill: #68161b"/>
    <path d="M 280.734266 197.621321 
L 342.302781 142.264755 
L 359.727644 147.23225 
L 299.086387 203.418817 
z
" clip-path="url(#p28e403dadf)" style="fill: #425466"/>
    <path d="M 244.659319 180.131157 
L 308.175168 126.680477 
L 308.037759 63.188782 
L 242.425627 113.21145 
z
" clip-path="url(#p28e403dadf)" style="fill: #161705"/>
    <path d="M 299.205543 221.054224 
L 299.044161 197.16923 
L 359.862564 141.28909 
L 359.346582 164.017802 
z
" clip-path="url(#p28e403dadf)" style="fill: #b4257e"/>
    <path d="M 243.687928 151.029012 
L 261.78763 156.475557 
L 325.325541 103.697082 
L 308.11533 99.031633 
z
" clip-path="url(#p28e403dadf)" style="fill: #139a85"/>
    <path d="M 280.635892 191.402155 
L 299.044161 197.16923 
L 359.862564 141.28909 
L 342.3871 136.349931 
z
" clip-path="url(#p28e403dadf)" style="fill: #5f7993"/>
    <path d="M 299.086387 203.418817 
L 359.727644 147.23225 
L 359.862564 141.28909 
L 299.044161 197.16923 
z
" clip-path="url(#p28e403dadf)" style="fill: #344250"/>
    <path d="M 317.685298 225.390706 
L 376.925253 167.578032 
L 394.722382 172.763304 
L 336.465147 231.449151 
z
" clip-path="url(#p28e403dadf)" style="fill: #1c1958"/>
    <path d="M 317.681207 227.027133 
L 376.876458 169.136407 
L 377.591506 146.299891 
L 317.741202 203.026773 
z
" clip-path="url(#p28e403dadf)" style="fill: #55113c"/>
    <path d="M 317.685298 225.390706 
L 317.741202 203.026773 
L 377.591506 146.299891 
L 376.925253 167.578032 
z
" clip-path="url(#p28e403dadf)" style="fill: #2f2992"/>
    <path d="M 299.044161 197.16923 
L 317.741202 203.026773 
L 377.591506 146.299891 
L 359.862564 141.28909 
z
" clip-path="url(#p28e403dadf)" style="fill: #9c206e"/>
    <path d="M 224.289409 108.045683 
L 242.425627 113.21145 
L 308.037759 63.188782 
L 290.787334 58.770689 
z
" clip-path="url(#p28e403dadf)" style="fill: #282b09"/>
    <path d="M 336.465147 231.449151 
L 394.722382 172.763304 
L 395.57948 151.383904 
L 336.733864 208.97693 
z
" clip-path="url(#p28e403dadf)" style="fill: #161445"/>
    <path d="M 317.741202 203.026773 
L 336.733864 208.97693 
L 395.57948 151.383904 
L 377.591506 146.299891 
z
" clip-path="url(#p28e403dadf)" style="fill: #29247f"/>
    <path d="M 244.659319 180.131157 
L 262.509757 185.72347 
L 261.78763 156.475557 
L 243.687928 151.029012 
z
" clip-path="url(#p28e403dadf)" style="fill: #16b19a"/>
    <path d="M 262.509757 185.72347 
L 280.635892 191.402155 
L 280.586598 188.285776 
L 262.433191 182.622346 
z
" clip-path="url(#p28e403dadf)" style="fill: #dd2e3a"/>
    <path d="M 227.078335 174.62326 
L 244.659319 180.131157 
L 242.425627 113.21145 
L 224.289409 108.045683 
z
" clip-path="url(#p28e403dadf)" style="fill: #2e310a"/>
    <path d="M 280.734266 197.621321 
L 299.086387 203.418817 
L 299.044161 197.16923 
L 280.635892 191.402155 
z
" clip-path="url(#p28e403dadf)" style="fill: #6e8baa"/>
    <path d="M 299.205543 221.054224 
L 317.681207 227.027133 
L 317.741202 203.026773 
L 299.044161 197.16923 
z
" clip-path="url(#p28e403dadf)" style="fill: #b4257e"/>
    <path d="M 317.685298 225.390706 
L 336.465147 231.449151 
L 336.733864 208.97693 
L 317.741202 203.026773 
z
" clip-path="url(#p28e403dadf)" style="fill: #2f2992"/>
   </g>
   <g id="text_16">
    <!-- CFDMiner -->
    <g transform="translate(280.64057 28.56) scale(0.12 -0.12)">
     <defs>
      <path id="DejaVuSans-43" d="M 4122 4306 
L 4122 3641 
Q 3803 3938 3442 4084 
Q 3081 4231 2675 4231 
Q 1875 4231 1450 3742 
Q 1025 3253 1025 2328 
Q 1025 1406 1450 917 
Q 1875 428 2675 428 
Q 3081 428 3442 575 
Q 3803 722 4122 1019 
L 4122 359 
Q 3791 134 3420 21 
Q 3050 -91 2638 -91 
Q 1578 -91 968 557 
Q 359 1206 359 2328 
Q 359 3453 968 4101 
Q 1578 4750 2638 4750 
Q 3056 4750 3426 4639 
Q 3797 4528 4122 4306 
z
" transform="scale(0.015625)"/>
      <path id="DejaVuSans-46" d="M 628 4666 
L 3309 4666 
L 3309 4134 
L 1259 4134 
L 1259 2759 
L 3109 2759 
L 3109 2228 
L 1259 2228 
L 1259 0 
L 628 0 
L 628 4666 
z
" transform="scale(0.015625)"/>
      <path id="DejaVuSans-44" d="M 1259 4147 
L 1259 519 
L 2022 519 
Q 2988 519 3436 956 
Q 3884 1394 3884 2338 
Q 3884 3275 3436 3711 
Q 2988 4147 2022 4147 
L 1259 4147 
z
M 628 4666 
L 1925 4666 
Q 3281 4666 3915 4102 
Q 4550 3538 4550 2338 
Q 4550 1131 3912 565 
Q 3275 0 1925 0 
L 628 0 
L 628 4666 
z
" transform="scale(0.015625)"/>
      <path id="DejaVuSans-4d" d="M 628 4666 
L 1569 4666 
L 2759 1491 
L 3956 4666 
L 4897 4666 
L 4897 0 
L 4281 0 
L 4281 4097 
L 3078 897 
L 2444 897 
L 1241 4097 
L 1241 0 
L 628 0 
L 628 4666 
z
" transform="scale(0.015625)"/>
     </defs>
     <use xlink:href="#DejaVuSans-43"/>
     <use xlink:href="#DejaVuSans-46" x="69.824219"/>
     <use xlink:href="#DejaVuSans-44" x="127.34375"/>
     <use xlink:href="#DejaVuSans-4d" x="204.345703"/>
     <use xlink:href="#DejaVuSans-69" x="290.625"/>
     <use xlink:href="#DejaVuSans-6e" x="318.408203"/>
     <use xlink:href="#DejaVuSans-65" x="381.787109"/>
     <use xlink:href="#DejaVuSans-72" x="443.310547"/>
    </g>
   </g>
   <g id="Poly3DCollection_2">
    <path d="M 227.078335 174.62326 
L 244.659319 180.131157 
L 308.175168 126.680477 
L 291.428356 121.947259 
z
" clip-path="url(#p28e403dadf)" style="fill: #c30000"/>
    <path d="M 244.659319 180.131157 
L 262.509757 185.72347 
L 325.159717 131.480887 
L 308.175168 126.680477 
z
" clip-path="url(#p28e403dadf)" style="fill: #c30000"/>
    <path d="M 262.509757 185.72347 
L 280.635892 191.402155 
L 342.3871 136.349931 
L 325.159717 131.480887 
z
" clip-path="url(#p28e403dadf)" style="fill: #c30000"/>
    <path d="M 280.635892 191.402155 
L 299.044161 197.16923 
L 359.862564 141.28909 
L 342.3871 136.349931 
z
" clip-path="url(#p28e403dadf)" style="fill: #c30000"/>
    <path d="M 299.044161 197.16923 
L 317.741202 203.026773 
L 377.591506 146.299891 
L 359.862564 141.28909 
z
" clip-path="url(#p28e403dadf)" style="fill: #c30000"/>
    <path d="M 317.741202 203.026773 
L 336.733864 208.97693 
L 395.57948 151.383904 
L 377.591506 146.299891 
z
" clip-path="url(#p28e403dadf)" style="fill: #c30000"/>
   </g>
  </g>
  <g id="patch_6">
   <path d="M 553.32 256.32 
L 775.08 256.32 
L 775.08 34.56 
L 553.32 34.56 
z
" style="fill: #ffffff"/>
  </g>
  <g id="pane3d_4">
   <g id="patch_7">
    <path d="M 570.064409 201.641091 
L 643.296804 140.256246 
L 642.278803 51.728326 
L 565.541861 107.727451 
" style="fill: #f2f2f2; opacity: 0.5; stroke: #f2f2f2; stroke-linejoin: miter"/>
   </g>
  </g>
  <g id="pane3d_5">
   <g id="patch_8">
    <path d="M 643.296804 140.256246 
L 760.808667 174.412305 
L 765.002251 82.835142 
L 642.278803 51.728326 
" style="fill: #e6e6e6; opacity: 0.5; stroke: #e6e6e6; stroke-linejoin: miter"/>
   </g>
  </g>
  <g id="pane3d_6">
   <g id="patch_9">
    <path d="M 570.064409 201.641091 
L 694.632724 242.325102 
L 760.808667 174.412305 
L 643.296804 140.256246 
" style="fill: #ececec; opacity: 0.5; stroke: #ececec; stroke-linejoin: miter"/>
   </g>
  </g>
  <g id="grid3d_4">
   <g id="Line3DCollection_4">
    <path d="M 577.60892 204.105128 
L 650.443515 142.333513 
L 649.727683 53.6164 
" style="fill: none; stroke: #b0b0b0; stroke-width: 0.8"/>
   </g>
  </g>
  <g id="grid3d_5">
   <g id="Line3DCollection_5">
    <path d="M 570.848411 103.854973 
L 575.11074 197.411156 
L 699.211587 237.626062 
" style="fill: none; stroke: #b0b0b0; stroke-width: 0.8"/>
    <path d="M 588.577038 90.917428 
L 591.989206 183.263292 
L 714.506252 221.929974 
" style="fill: none; stroke: #b0b0b0; stroke-width: 0.8"/>
    <path d="M 605.617316 78.482209 
L 608.240246 169.641348 
L 729.202956 206.84754 
" style="fill: none; stroke: #b0b0b0; stroke-width: 0.8"/>
    <path d="M 622.008572 66.520618 
L 623.898206 156.516535 
L 743.336093 192.343464 
" style="fill: none; stroke: #b0b0b0; stroke-width: 0.8"/>
   </g>
  </g>
  <g id="grid3d_6">
   <g id="Line3DCollection_6">
    <path d="M 760.889012 172.657788 
L 643.27726 138.556633 
L 569.977905 199.844783 
" style="fill: none; stroke: #b0b0b0; stroke-width: 0.8"/>
    <path d="M 763.640568 112.570827 
L 642.608883 80.432938 
L 567.012034 138.256536 
" style="fill: none; stroke: #b0b0b0; stroke-width: 0.8"/>
   </g>
  </g>
  <g id="axis3d_4">
   <g id="line2d_16">
    <path d="M 570.064409 201.641091 
L 694.632724 242.325102 
" style="fill: none; stroke: #000000; stroke-width: 0.8; stroke-linecap: square"/>
   </g>
   <g id="xtick_13">
    <g id="line2d_17">
     <path d="M 578.24316 203.567224 
L 576.337719 205.183244 
" style="fill: none; stroke: #000000; stroke-width: 0.8; stroke-linecap: square"/>
    </g>
    <g id="text_17">
     <!-- 0.1 -->
     <g transform="translate(567.076907 236.89421) rotate(-50) scale(0.1 -0.1)">
      <use xlink:href="#DejaVuSans-30"/>
      <use xlink:href="#DejaVuSans-2e" x="63.623047"/>
      <use xlink:href="#DejaVuSans-31" x="95.410156"/>
     </g>
    </g>
   </g>
   <g id="text_18">
    <!-- support -->
    <g transform="translate(591.318002 262.025249) rotate(-341.912962) scale(0.1 -0.1)">
     <use xlink:href="#DejaVuSans-73"/>
     <use xlink:href="#DejaVuSans-75" x="52.099609"/>
     <use xlink:href="#DejaVuSans-70" x="115.478516"/>
     <use xlink:href="#DejaVuSans-70" x="178.955078"/>
     <use xlink:href="#DejaVuSans-6f" x="242.431641"/>
     <use xlink:href="#DejaVuSans-72" x="303.613281"/>
     <use xlink:href="#DejaVuSans-74" x="344.726562"/>
    </g>
   </g>
  </g>
  <g id="axis3d_5">
   <g id="line2d_18">
    <path d="M 760.808667 174.412305 
L 694.632724 242.325102 
" style="fill: none; stroke: #000000; stroke-width: 0.8; stroke-linecap: square"/>
   </g>
   <g id="xtick_14">
    <g id="line2d_19">
     <path d="M 698.165786 237.28717 
L 701.305895 238.304723 
" style="fill: none; stroke: #000000; stroke-width: 0.8; stroke-linecap: square"/>
    </g>
    <g id="text_19">
     <!-- 1000 -->
     <g transform="translate(699.693903 257.631402) rotate(-330) scale(0.1 -0.1)">
      <use xlink:href="#DejaVuSans-31"/>
      <use xlink:href="#DejaVuSans-30" x="63.623047"/>
      <use xlink:href="#DejaVuSans-30" x="127.246094"/>
      <use xlink:href="#DejaVuSans-30" x="190.869141"/>
     </g>
    </g>
   </g>
   <g id="xtick_15">
    <g id="line2d_20">
     <path d="M 713.47484 221.604458 
L 716.57169 222.581831 
" style="fill: none; stroke: #000000; stroke-width: 0.8; stroke-linecap: square"/>
    </g>
    <g id="text_20">
     <!-- 2000 -->
     <g transform="translate(714.742317 241.656408) rotate(-330) scale(0.1 -0.1)">
      <use xlink:href="#DejaVuSans-32"/>
      <use xlink:href="#DejaVuSans-30" x="63.623047"/>
      <use xlink:href="#DejaVuSans-30" x="127.246094"/>
      <use xlink:href="#DejaVuSans-30" x="190.869141"/>
     </g>
    </g>
   </g>
   <g id="xtick_16">
    <g id="line2d_21">
     <path d="M 728.185618 206.534623 
L 731.240159 207.474151 
" style="fill: none; stroke: #000000; stroke-width: 0.8; stroke-linecap: square"/>
    </g>
    <g id="text_21">
     <!-- 5000 -->
     <g transform="translate(729.201991 226.306405) rotate(-330) scale(0.1 -0.1)">
      <use xlink:href="#DejaVuSans-35"/>
      <use xlink:href="#DejaVuSans-30" x="63.623047"/>
      <use xlink:href="#DejaVuSans-30" x="127.246094"/>
      <use xlink:href="#DejaVuSans-30" x="190.869141"/>
     </g>
    </g>
   </g>
   <g id="xtick_17">
    <g id="line2d_22">
     <path d="M 742.332519 192.042429 
L 745.345687 192.946268 
" style="fill: none; stroke: #000000; stroke-width: 0.8; stroke-linecap: square"/>
    </g>
    <g id="text_22">
     <!-- 10000 -->
     <g transform="translate(740.351769 211.545418) rotate(-330) scale(0.1 -0.1)">
      <use xlink:href="#DejaVuSans-31"/>
      <use xlink:href="#DejaVuSans-30" x="63.623047"/>
      <use xlink:href="#DejaVuSans-30" x="127.246094"/>
      <use xlink:href="#DejaVuSans-30" x="190.869141"/>
      <use xlink:href="#DejaVuSans-30" x="254.492188"/>
     </g>
    </g>
   </g>
   <g id="text_23">
    <!-- window -->
    <g transform="translate(751.402897 257.115816) rotate(-45.742112) scale(0.1 -0.1)">
     <use xlink:href="#DejaVuSans-77"/>
     <use xlink:href="#DejaVuSans-69" x="81.787109"/>
     <use xlink:href="#DejaVuSans-6e" x="109.570312"/>
     <use xlink:href="#DejaVuSans-64" x="172.949219"/>
     <use xlink:href="#DejaVuSans-6f" x="236.425781"/>
     <use xlink:href="#DejaVuSans-77" x="297.607422"/>
    </g>
   </g>
  </g>
  <g id="axis3d_6">
   <g id="line2d_23">
    <path d="M 760.808667 174.412305 
L 765.002251 82.835142 
" style="fill: none; stroke: #000000; stroke-width: 0.8; stroke-linecap: square"/>
   </g>
   <g id="xtick_18">
    <g id="line2d_24">
     <path d="M 759.901885 172.371574 
L 762.865614 173.230898 
" style="fill: none; stroke: #000000; stroke-width: 0.8; stroke-linecap: square"/>
    </g>
    <g id="text_24">
     <!-- $10^{0.0}$ -->
     <g transform="translate(766.992022 177.656877) scale(0.1 -0.1)">
      <use xlink:href="#DejaVuSans-31" transform="translate(0 0.765625)"/>
      <use xlink:href="#DejaVuSans-30" transform="translate(63.623047 0.765625)"/>
      <use xlink:href="#DejaVuSans-30" transform="translate(128.203125 39.046875) scale(0.7)"/>
      <use xlink:href="#DejaVuSans-2e" transform="translate(172.739258 39.046875) scale(0.7)"/>
      <use xlink:href="#DejaVuSans-30" transform="translate(194.990234 39.046875) scale(0.7)"/>
     </g>
    </g>
   </g>
   <g id="xtick_19">
    <g id="line2d_25">
     <path d="M 762.623341 112.30072 
L 765.677514 113.111703 
" style="fill: none; stroke: #000000; stroke-width: 0.8; stroke-linecap: square"/>
    </g>
    <g id="text_25">
     <!-- $10^{1.0}$ -->
     <g transform="translate(770.267456 117.716428) scale(0.1 -0.1)">
      <use xlink:href="#DejaVuSans-31" transform="translate(0 0.765625)"/>
      <use xlink:href="#DejaVuSans-30" transform="translate(63.623047 0.765625)"/>
      <use xlink:href="#DejaVuSans-31" transform="translate(128.203125 39.046875) scale(0.7)"/>
      <use xlink:href="#DejaVuSans-2e" transform="translate(172.739258 39.046875) scale(0.7)"/>
      <use xlink:href="#DejaVuSans-30" transform="translate(194.990234 39.046875) scale(0.7)"/>
     </g>
    </g>
   </g>
   <g id="text_26">
    <!-- elapsed -->
    <g transform="translate(805.04355 143.889828) rotate(-87.378092) scale(0.1 -0.1)">
     <use xlink:href="#DejaVuSans-65"/>
     <use xlink:href="#DejaVuSans-6c" x="61.523438"/>
     <use xlink:href="#DejaVuSans-61" x="89.306641"/>
     <use xlink:href="#DejaVuSans-70" x="150.585938"/>
     <use xlink:href="#DejaVuSans-73" x="214.0625"/>
     <use xlink:href="#DejaVuSans-65" x="266.162109"/>
     <use xlink:href="#DejaVuSans-64" x="327.685547"/>
    </g>
   </g>
  </g>
  <g id="axes_2">
   <g id="Poly3DCollection_3">
    <path d="M 631.123829 156.963439 
L 735.435352 188.177018 
L 749.153732 174.328969 
L 646.148791 144.252222 
z
" clip-path="url(#p3d788031d0)" style="fill: #c30000"/>
    <path d="M 615.53811 170.14906 
L 721.181919 202.565176 
L 735.435352 188.177018 
L 631.123829 156.963439 
z
" clip-path="url(#p3d788031d0)" style="fill: #c30000"/>
    <path d="M 599.359643 183.83615 
L 706.361509 217.525672 
L 721.181919 202.565176 
L 615.53811 170.14906 
z
" clip-path="url(#p3d788031d0)" style="fill: #c30000"/>
    <path d="M 582.553958 198.05387 
L 690.939604 233.093347 
L 706.361509 217.525672 
L 599.359643 183.83615 
z
" clip-path="url(#p3d788031d0)" style="fill: #c30000"/>
   </g>
   <g id="text_27">
    <!-- CFDMiner+graph (log) -->
    <g transform="translate(596.806875 28.56) scale(0.12 -0.12)">
     <defs>
      <path id="DejaVuSans-2b" d="M 2944 4013 
L 2944 2272 
L 4684 2272 
L 4684 1741 
L 2944 1741 
L 2944 0 
L 2419 0 
L 2419 1741 
L 678 1741 
L 678 2272 
L 2419 2272 
L 2419 4013 
L 2944 4013 
z
" transform="scale(0.015625)"/>
      <path id="DejaVuSans-67" d="M 2906 1791 
Q 2906 2416 2648 2759 
Q 2391 3103 1925 3103 
Q 1463 3103 1205 2759 
Q 947 2416 947 1791 
Q 947 1169 1205 825 
Q 1463 481 1925 481 
Q 2391 481 2648 825 
Q 2906 1169 2906 1791 
z
M 3481 434 
Q 3481 -459 3084 -895 
Q 2688 -1331 1869 -1331 
Q 1566 -1331 1297 -1286 
Q 1028 -1241 775 -1147 
L 775 -588 
Q 1028 -725 1275 -790 
Q 1522 -856 1778 -856 
Q 2344 -856 2625 -561 
Q 2906 -266 2906 331 
L 2906 616 
Q 2728 306 2450 153 
Q 2172 0 1784 0 
Q 1141 0 747 490 
Q 353 981 353 1791 
Q 353 2603 747 3093 
Q 1141 3584 1784 3584 
Q 2172 3584 2450 3431 
Q 2728 3278 2906 2969 
L 2906 3500 
L 3481 3500 
L 3481 434 
z
" transform="scale(0.015625)"/>
      <path id="DejaVuSans-68" d="M 3513 2113 
L 3513 0 
L 2938 0 
L 2938 2094 
Q 2938 2591 2744 2837 
Q 2550 3084 2163 3084 
Q 1697 3084 1428 2787 
Q 1159 2491 1159 1978 
L 1159 0 
L 581 0 
L 581 4863 
L 1159 4863 
L 1159 2956 
Q 1366 3272 1645 3428 
Q 1925 3584 2291 3584 
Q 2894 3584 3203 3211 
Q 3513 2838 3513 2113 
z
" transform="scale(0.015625)"/>
      <path id="DejaVuSans-20" transform="scale(0.015625)"/>
      <path id="DejaVuSans-28" d="M 1984 4856 
Q 1566 4138 1362 3434 
Q 1159 2731 1159 2009 
Q 1159 1288 1364 580 
Q 1569 -128 1984 -844 
L 1484 -844 
Q 1016 -109 783 600 
Q 550 1309 550 2009 
Q 550 2706 781 3412 
Q 1013 4119 1484 4856 
L 1984 4856 
z
" transform="scale(0.015625)"/>
      <path id="DejaVuSans-29" d="M 513 4856 
L 1013 4856 
Q 1481 4119 1714 3412 
Q 1947 2706 1947 2009 
Q 1947 1309 1714 600 
Q 1481 -109 1013 -844 
L 513 -844 
Q 928 -128 1133 580 
Q 1338 1288 1338 2009 
Q 1338 2731 1133 3434 
Q 928 4138 513 4856 
z
" transform="scale(0.015625)"/>
     </defs>
     <use xlink:href="#DejaVuSans-43"/>
     <use xlink:href="#DejaVuSans-46" x="69.824219"/>
     <use xlink:href="#DejaVuSans-44" x="127.34375"/>
     <use xlink:href="#DejaVuSans-4d" x="204.345703"/>
     <use xlink:href="#DejaVuSans-69" x="290.625"/>
     <use xlink:href="#DejaVuSans-6e" x="318.408203"/>
     <use xlink:href="#DejaVuSans-65" x="381.787109"/>
     <use xlink:href="#DejaVuSans-72" x="443.310547"/>
     <use xlink:href="#DejaVuSans-2b" x="484.423828"/>
     <use xlink:href="#DejaVuSans-67" x="568.212891"/>
     <use xlink:href="#DejaVuSans-72" x="631.689453"/>
     <use xlink:href="#DejaVuSans-61" x="672.802734"/>
     <use xlink:href="#DejaVuSans-70" x="734.082031"/>
     <use xlink:href="#DejaVuSans-68" x="797.558594"/>
     <use xlink:href="#DejaVuSans-20" x="860.9375"/>
     <use xlink:href="#DejaVuSans-28" x="892.724609"/>
     <use xlink:href="#DejaVuSans-6c" x="931.738281"/>
     <use xlink:href="#DejaVuSans-6f" x="959.521484"/>
     <use xlink:href="#DejaVuSans-67" x="1020.703125"/>
     <use xlink:href="#DejaVuSans-29" x="1084.179688"/>
    </g>
   </g>
   <g id="Poly3DCollection_4">
    <path d="M 631.123829 156.963439 
L 629.626623 71.392874 
L 645.291551 59.766022 
L 646.148791 144.252222 
z
" clip-path="url(#p3d788031d0)" style="fill: #776c5f"/>
    <path d="M 631.123829 156.963439 
L 646.148791 144.252222 
L 749.153732 174.328969 
L 735.435352 188.177018 
z
" clip-path="url(#p3d788031d0)" style="fill: #48413a"/>
    <path d="M 646.148791 144.252222 
L 645.291551 59.766022 
L 752.642514 87.305082 
L 749.153732 174.328969 
z
" clip-path="url(#p3d788031d0)" style="fill: #38332d"/>
    <path d="M 615.53811 170.14906 
L 613.326525 82.449305 
L 629.608971 70.384004 
L 631.123829 156.963439 
z
" clip-path="url(#p3d788031d0)" style="fill: #5f3186"/>
    <path d="M 615.53811 170.14906 
L 631.123829 156.963439 
L 735.435352 188.177018 
L 721.181919 202.565176 
z
" clip-path="url(#p3d788031d0)" style="fill: #391e51"/>
    <path d="M 631.123829 156.963439 
L 735.435352 188.177018 
L 738.39814 100.017495 
L 629.626623 71.392874 
z
" clip-path="url(#p3d788031d0)" style="fill: #776c5f"/>
    <path d="M 631.123829 156.963439 
L 629.608971 70.384004 
L 738.433136 98.97617 
L 735.435352 188.177018 
z
" clip-path="url(#p3d788031d0)" style="fill: #2d173f"/>
    <path d="M 599.359643 183.83615 
L 596.467691 97.090055 
L 613.378673 84.517243 
L 615.53811 170.14906 
z
" clip-path="url(#p3d788031d0)" style="fill: #b07401"/>
    <path d="M 599.359643 183.83615 
L 615.53811 170.14906 
L 721.181919 202.565176 
L 706.361509 217.525672 
z
" clip-path="url(#p3d788031d0)" style="fill: #6a4601"/>
    <path d="M 629.626623 71.392874 
L 738.39814 100.017495 
L 752.642514 87.305082 
L 645.291551 59.766022 
z
" clip-path="url(#p3d788031d0)" style="fill: #675e53"/>
    <path d="M 735.435352 188.177018 
L 749.153732 174.328969 
L 752.642514 87.305082 
L 738.39814 100.017495 
z
" clip-path="url(#p3d788031d0)" style="fill: #38332d"/>
    <path d="M 615.53811 170.14906 
L 613.378673 84.517243 
L 723.54469 114.326786 
L 721.181919 202.565176 
z
" clip-path="url(#p3d788031d0)" style="fill: #533701"/>
    <path d="M 615.53811 170.14906 
L 721.181919 202.565176 
L 723.601859 112.191784 
L 613.326525 82.449305 
z
" clip-path="url(#p3d788031d0)" style="fill: #5f3186"/>
    <path d="M 582.553958 198.05387 
L 578.892083 110.637141 
L 596.483001 97.549299 
L 599.359643 183.83615 
z
" clip-path="url(#p3d788031d0)" style="fill: #8c90dd"/>
    <path d="M 582.553958 198.05387 
L 599.359643 183.83615 
L 706.361509 217.525672 
L 690.939604 233.093347 
z
" clip-path="url(#p3d788031d0)" style="fill: #545786"/>
    <path d="M 613.326525 82.449305 
L 723.601859 112.191784 
L 738.433136 98.97617 
L 629.608971 70.384004 
z
" clip-path="url(#p3d788031d0)" style="fill: #522b74"/>
    <path d="M 721.181919 202.565176 
L 735.435352 188.177018 
L 738.433136 98.97617 
L 723.601859 112.191784 
z
" clip-path="url(#p3d788031d0)" style="fill: #2d173f"/>
    <path d="M 599.359643 183.83615 
L 596.483001 97.549299 
L 708.101968 128.596503 
L 706.361509 217.525672 
z
" clip-path="url(#p3d788031d0)" style="fill: #424468"/>
    <path d="M 599.359643 183.83615 
L 706.361509 217.525672 
L 708.11125 128.122268 
L 596.467691 97.090055 
z
" clip-path="url(#p3d788031d0)" style="fill: #b07401"/>
    <path d="M 596.467691 97.090055 
L 708.11125 128.122268 
L 723.54469 114.326786 
L 613.378673 84.517243 
z
" clip-path="url(#p3d788031d0)" style="fill: #996501"/>
    <path d="M 706.361509 217.525672 
L 721.181919 202.565176 
L 723.54469 114.326786 
L 708.11125 128.122268 
z
" clip-path="url(#p3d788031d0)" style="fill: #533701"/>
    <path d="M 582.553958 198.05387 
L 690.939604 233.093347 
L 692.017106 142.984157 
L 578.892083 110.637141 
z
" clip-path="url(#p3d788031d0)" style="fill: #8c90dd"/>
    <path d="M 578.892083 110.637141 
L 692.017106 142.984157 
L 708.101968 128.596503 
L 596.483001 97.549299 
z
" clip-path="url(#p3d788031d0)" style="fill: #797dc0"/>
    <path d="M 690.939604 233.093347 
L 706.361509 217.525672 
L 708.101968 128.596503 
L 692.017106 142.984157 
z
" clip-path="url(#p3d788031d0)" style="fill: #424468"/>
   </g>
  </g>
  <g id="patch_10">
   <path d="M 907.814118 256.32 
L 1129.574118 256.32 
L 1129.574118 34.56 
L 907.814118 34.56 
z
" style="fill: #ffffff"/>
  </g>
  <g id="pane3d_7">
   <g id="patch_11">
    <path d="M 924.558527 201.641091 
L 997.790921 140.256246 
L 996.772921 51.728326 
L 920.035979 107.727451 
" style="fill: #f2f2f2; opacity: 0.5; stroke: #f2f2f2; stroke-linejoin: miter"/>
   </g>
  </g>
  <g id="pane3d_8">
   <g id="patch_12">
    <path d="M 997.790921 140.256246 
L 1115.302785 174.412305 
L 1119.496369 82.835142 
L 996.772921 51.728326 
" style="fill: #e6e6e6; opacity: 0.5; stroke: #e6e6e6; stroke-linejoin: miter"/>
   </g>
  </g>
  <g id="pane3d_9">
   <g id="patch_13">
    <path d="M 924.558527 201.641091 
L 1049.126842 242.325102 
L 1115.302785 174.412305 
L 997.790921 140.256246 
" style="fill: #ececec; opacity: 0.5; stroke: #ececec; stroke-linejoin: miter"/>
   </g>
  </g>
  <g id="grid3d_7">
   <g id="Line3DCollection_7">
    <path d="M 932.103038 204.105128 
L 1004.937633 142.333513 
L 1004.221801 53.6164 
" style="fill: none; stroke: #b0b0b0; stroke-width: 0.8"/>
   </g>
  </g>
  <g id="grid3d_8">
   <g id="Line3DCollection_8">
    <path d="M 925.342529 103.854973 
L 929.604858 197.411156 
L 1053.705705 237.626062 
" style="fill: none; stroke: #b0b0b0; stroke-width: 0.8"/>
    <path d="M 943.071155 90.917428 
L 946.483324 183.263292 
L 1069.00037 221.929974 
" style="fill: none; stroke: #b0b0b0; stroke-width: 0.8"/>
    <path d="M 960.111434 78.482209 
L 962.734363 169.641348 
L 1083.697073 206.84754 
" style="fill: none; stroke: #b0b0b0; stroke-width: 0.8"/>
    <path d="M 976.502689 66.520618 
L 978.392324 156.516535 
L 1097.830211 192.343464 
" style="fill: none; stroke: #b0b0b0; stroke-width: 0.8"/>
   </g>
  </g>
  <g id="grid3d_9">
   <g id="Line3DCollection_9">
    <path d="M 1115.383129 172.657788 
L 997.771377 138.556633 
L 924.472023 199.844783 
" style="fill: none; stroke: #b0b0b0; stroke-width: 0.8"/>
    <path d="M 1118.22295 110.643366 
L 997.081592 78.571119 
L 921.410904 136.278661 
" style="fill: none; stroke: #b0b0b0; stroke-width: 0.8"/>
   </g>
  </g>
  <g id="axis3d_7">
   <g id="line2d_26">
    <path d="M 924.558527 201.641091 
L 1049.126842 242.325102 
" style="fill: none; stroke: #000000; stroke-width: 0.8; stroke-linecap: square"/>
   </g>
   <g id="xtick_20">
    <g id="line2d_27">
     <path d="M 932.737277 203.567224 
L 930.831837 205.183244 
" style="fill: none; stroke: #000000; stroke-width: 0.8; stroke-linecap: square"/>
    </g>
    <g id="text_28">
     <!-- 0.1 -->
     <g transform="translate(921.571025 236.89421) rotate(-50) scale(0.1 -0.1)">
      <use xlink:href="#DejaVuSans-30"/>
      <use xlink:href="#DejaVuSans-2e" x="63.623047"/>
      <use xlink:href="#DejaVuSans-31" x="95.410156"/>
     </g>
    </g>
   </g>
   <g id="text_29">
    <!-- support -->
    <g transform="translate(945.81212 262.025249) rotate(-341.912962) scale(0.1 -0.1)">
     <use xlink:href="#DejaVuSans-73"/>
     <use xlink:href="#DejaVuSans-75" x="52.099609"/>
     <use xlink:href="#DejaVuSans-70" x="115.478516"/>
     <use xlink:href="#DejaVuSans-70" x="178.955078"/>
     <use xlink:href="#DejaVuSans-6f" x="242.431641"/>
     <use xlink:href="#DejaVuSans-72" x="303.613281"/>
     <use xlink:href="#DejaVuSans-74" x="344.726562"/>
    </g>
   </g>
  </g>
  <g id="axis3d_8">
   <g id="line2d_28">
    <path d="M 1115.302785 174.412305 
L 1049.126842 242.325102 
" style="fill: none; stroke: #000000; stroke-width: 0.8; stroke-linecap: square"/>
   </g>
   <g id="xtick_21">
    <g id="line2d_29">
     <path d="M 1052.659903 237.28717 
L 1055.800013 238.304723 
" style="fill: none; stroke: #000000; stroke-width: 0.8; stroke-linecap: square"/>
    </g>
    <g id="text_30">
     <!-- 1000 -->
     <g transform="translate(1054.188021 257.631402) rotate(-330) scale(0.1 -0.1)">
      <use xlink:href="#DejaVuSans-31"/>
      <use xlink:href="#DejaVuSans-30" x="63.623047"/>
      <use xlink:href="#DejaVuSans-30" x="127.246094"/>
      <use xlink:href="#DejaVuSans-30" x="190.869141"/>
     </g>
    </g>
   </g>
   <g id="xtick_22">
    <g id="line2d_30">
     <path d="M 1067.968957 221.604458 
L 1071.065808 222.581831 
" style="fill: none; stroke: #000000; stroke-width: 0.8; stroke-linecap: square"/>
    </g>
    <g id="text_31">
     <!-- 2000 -->
     <g transform="translate(1069.236434 241.656408) rotate(-330) scale(0.1 -0.1)">
      <use xlink:href="#DejaVuSans-32"/>
      <use xlink:href="#DejaVuSans-30" x="63.623047"/>
      <use xlink:href="#DejaVuSans-30" x="127.246094"/>
      <use xlink:href="#DejaVuSans-30" x="190.869141"/>
     </g>
    </g>
   </g>
   <g id="xtick_23">
    <g id="line2d_31">
     <path d="M 1082.679736 206.534623 
L 1085.734277 207.474151 
" style="fill: none; stroke: #000000; stroke-width: 0.8; stroke-linecap: square"/>
    </g>
    <g id="text_32">
     <!-- 5000 -->
     <g transform="translate(1083.696108 226.306405) rotate(-330) scale(0.1 -0.1)">
      <use xlink:href="#DejaVuSans-35"/>
      <use xlink:href="#DejaVuSans-30" x="63.623047"/>
      <use xlink:href="#DejaVuSans-30" x="127.246094"/>
      <use xlink:href="#DejaVuSans-30" x="190.869141"/>
     </g>
    </g>
   </g>
   <g id="xtick_24">
    <g id="line2d_32">
     <path d="M 1096.826637 192.042429 
L 1099.839805 192.946268 
" style="fill: none; stroke: #000000; stroke-width: 0.8; stroke-linecap: square"/>
    </g>
    <g id="text_33">
     <!-- 10000 -->
     <g transform="translate(1094.845886 211.545418) rotate(-330) scale(0.1 -0.1)">
      <use xlink:href="#DejaVuSans-31"/>
      <use xlink:href="#DejaVuSans-30" x="63.623047"/>
      <use xlink:href="#DejaVuSans-30" x="127.246094"/>
      <use xlink:href="#DejaVuSans-30" x="190.869141"/>
      <use xlink:href="#DejaVuSans-30" x="254.492188"/>
     </g>
    </g>
   </g>
   <g id="text_34">
    <!-- window -->
    <g transform="translate(1105.897015 257.115816) rotate(-45.742112) scale(0.1 -0.1)">
     <use xlink:href="#DejaVuSans-77"/>
     <use xlink:href="#DejaVuSans-69" x="81.787109"/>
     <use xlink:href="#DejaVuSans-6e" x="109.570312"/>
     <use xlink:href="#DejaVuSans-64" x="172.949219"/>
     <use xlink:href="#DejaVuSans-6f" x="236.425781"/>
     <use xlink:href="#DejaVuSans-77" x="297.607422"/>
    </g>
   </g>
  </g>
  <g id="axis3d_9">
   <g id="line2d_33">
    <path d="M 1115.302785 174.412305 
L 1119.496369 82.835142 
" style="fill: none; stroke: #000000; stroke-width: 0.8; stroke-linecap: square"/>
   </g>
   <g id="xtick_25">
    <g id="line2d_34">
     <path d="M 1114.396003 172.371574 
L 1117.359731 173.230898 
" style="fill: none; stroke: #000000; stroke-width: 0.8; stroke-linecap: square"/>
    </g>
    <g id="text_35">
     <!-- $10^{0.0}$ -->
     <g transform="translate(1121.48614 177.656877) scale(0.1 -0.1)">
      <use xlink:href="#DejaVuSans-31" transform="translate(0 0.765625)"/>
      <use xlink:href="#DejaVuSans-30" transform="translate(63.623047 0.765625)"/>
      <use xlink:href="#DejaVuSans-30" transform="translate(128.203125 39.046875) scale(0.7)"/>
      <use xlink:href="#DejaVuSans-2e" transform="translate(172.739258 39.046875) scale(0.7)"/>
      <use xlink:href="#DejaVuSans-30" transform="translate(194.990234 39.046875) scale(0.7)"/>
     </g>
    </g>
   </g>
   <g id="xtick_26">
    <g id="line2d_35">
     <path d="M 1117.204756 110.373799 
L 1120.261833 111.183162 
" style="fill: none; stroke: #000000; stroke-width: 0.8; stroke-linecap: square"/>
    </g>
    <g id="text_36">
     <!-- $10^{1.0}$ -->
     <g transform="translate(1124.866631 115.793876) scale(0.1 -0.1)">
      <use xlink:href="#DejaVuSans-31" transform="translate(0 0.765625)"/>
      <use xlink:href="#DejaVuSans-30" transform="translate(63.623047 0.765625)"/>
      <use xlink:href="#DejaVuSans-31" transform="translate(128.203125 39.046875) scale(0.7)"/>
      <use xlink:href="#DejaVuSans-2e" transform="translate(172.739258 39.046875) scale(0.7)"/>
      <use xlink:href="#DejaVuSans-30" transform="translate(194.990234 39.046875) scale(0.7)"/>
     </g>
    </g>
   </g>
   <g id="text_37">
    <!-- elapsed -->
    <g transform="translate(1159.537668 143.889828) rotate(-87.378092) scale(0.1 -0.1)">
     <use xlink:href="#DejaVuSans-65"/>
     <use xlink:href="#DejaVuSans-6c" x="61.523438"/>
     <use xlink:href="#DejaVuSans-61" x="89.306641"/>
     <use xlink:href="#DejaVuSans-70" x="150.585938"/>
     <use xlink:href="#DejaVuSans-73" x="214.0625"/>
     <use xlink:href="#DejaVuSans-65" x="266.162109"/>
     <use xlink:href="#DejaVuSans-64" x="327.685547"/>
    </g>
   </g>
  </g>
  <g id="axes_3">
   <g id="Poly3DCollection_5">
    <path d="M 985.617947 156.963439 
L 1089.92947 188.177018 
L 1103.64785 174.328969 
L 1000.642908 144.252222 
z
" clip-path="url(#p336807e5c1)" style="fill: #c30000"/>
    <path d="M 970.032228 170.14906 
L 1075.676037 202.565176 
L 1089.92947 188.177018 
L 985.617947 156.963439 
z
" clip-path="url(#p336807e5c1)" style="fill: #c30000"/>
    <path d="M 953.85376 183.83615 
L 1060.855626 217.525672 
L 1075.676037 202.565176 
L 970.032228 170.14906 
z
" clip-path="url(#p336807e5c1)" style="fill: #c30000"/>
    <path d="M 937.048075 198.05387 
L 1045.433722 233.093347 
L 1060.855626 217.525672 
L 953.85376 183.83615 
z
" clip-path="url(#p336807e5c1)" style="fill: #c30000"/>
   </g>
   <g id="text_38">
    <!-- CFDMiner+graph -->
    <g transform="translate(967.03693 28.56) scale(0.12 -0.12)">
     <use xlink:href="#DejaVuSans-43"/>
     <use xlink:href="#DejaVuSans-46" x="69.824219"/>
     <use xlink:href="#DejaVuSans-44" x="127.34375"/>
     <use xlink:href="#DejaVuSans-4d" x="204.345703"/>
     <use xlink:href="#DejaVuSans-69" x="290.625"/>
     <use xlink:href="#DejaVuSans-6e" x="318.408203"/>
     <use xlink:href="#DejaVuSans-65" x="381.787109"/>
     <use xlink:href="#DejaVuSans-72" x="443.310547"/>
     <use xlink:href="#DejaVuSans-2b" x="484.423828"/>
     <use xlink:href="#DejaVuSans-67" x="568.212891"/>
     <use xlink:href="#DejaVuSans-72" x="631.689453"/>
     <use xlink:href="#DejaVuSans-61" x="672.802734"/>
     <use xlink:href="#DejaVuSans-70" x="734.082031"/>
     <use xlink:href="#DejaVuSans-68" x="797.558594"/>
    </g>
   </g>
   <g id="Poly3DCollection_6">
    <path d="M 985.617947 156.963439 
L 984.103089 70.384004 
L 999.775569 58.770689 
L 1000.642908 144.252222 
z
" clip-path="url(#p336807e5c1)" style="fill: #d38060"/>
    <path d="M 985.617947 156.963439 
L 1000.642908 144.252222 
L 1103.64785 174.328969 
L 1089.92947 188.177018 
z
" clip-path="url(#p336807e5c1)" style="fill: #7f4d3a"/>
    <path d="M 1000.642908 144.252222 
L 999.775569 58.770689 
L 1107.177806 86.278018 
L 1103.64785 174.328969 
z
" clip-path="url(#p336807e5c1)" style="fill: #633c2d"/>
    <path d="M 970.032228 170.14906 
L 967.945376 87.395574 
L 984.188464 75.263476 
L 985.617947 156.963439 
z
" clip-path="url(#p336807e5c1)" style="fill: #c3300f"/>
    <path d="M 970.032228 170.14906 
L 985.617947 156.963439 
L 1089.92947 188.177018 
L 1075.676037 202.565176 
z
" clip-path="url(#p336807e5c1)" style="fill: #761d09"/>
    <path d="M 985.617947 156.963439 
L 984.188464 75.263476 
L 1092.758007 104.012196 
L 1089.92947 188.177018 
z
" clip-path="url(#p336807e5c1)" style="fill: #5c1707"/>
    <path d="M 985.617947 156.963439 
L 1089.92947 188.177018 
L 1092.927253 98.97617 
L 984.103089 70.384004 
z
" clip-path="url(#p336807e5c1)" style="fill: #d38060"/>
    <path d="M 953.85376 183.83615 
L 951.061896 100.092262 
L 967.94747 87.478611 
L 970.032228 170.14906 
z
" clip-path="url(#p336807e5c1)" style="fill: #4902aa"/>
    <path d="M 953.85376 183.83615 
L 970.032228 170.14906 
L 1075.676037 202.565176 
L 1060.855626 217.525672 
z
" clip-path="url(#p336807e5c1)" style="fill: #2c0166"/>
    <path d="M 984.103089 70.384004 
L 1092.927253 98.97617 
L 1107.177806 86.278018 
L 999.775569 58.770689 
z
" clip-path="url(#p336807e5c1)" style="fill: #b76f54"/>
    <path d="M 1089.92947 188.177018 
L 1103.64785 174.328969 
L 1107.177806 86.278018 
L 1092.927253 98.97617 
z
" clip-path="url(#p336807e5c1)" style="fill: #633c2d"/>
    <path d="M 970.032228 170.14906 
L 967.94747 87.478611 
L 1077.956948 117.383852 
L 1075.676037 202.565176 
z
" clip-path="url(#p336807e5c1)" style="fill: #220150"/>
    <path d="M 970.032228 170.14906 
L 1075.676037 202.565176 
L 1077.959244 117.298136 
L 967.945376 87.395574 
z
" clip-path="url(#p336807e5c1)" style="fill: #c3300f"/>
    <path d="M 937.048075 198.05387 
L 933.484312 112.979284 
L 951.05413 99.85932 
L 953.85376 183.83615 
z
" clip-path="url(#p336807e5c1)" style="fill: #635c00"/>
    <path d="M 937.048075 198.05387 
L 953.85376 183.83615 
L 1060.855626 217.525672 
L 1045.433722 233.093347 
z
" clip-path="url(#p336807e5c1)" style="fill: #3c3700"/>
    <path d="M 967.945376 87.395574 
L 1077.959244 117.298136 
L 1092.758007 104.012196 
L 984.188464 75.263476 
z
" clip-path="url(#p336807e5c1)" style="fill: #aa2a0d"/>
    <path d="M 1075.676037 202.565176 
L 1089.92947 188.177018 
L 1092.758007 104.012196 
L 1077.959244 117.298136 
z
" clip-path="url(#p336807e5c1)" style="fill: #5c1707"/>
    <path d="M 953.85376 183.83615 
L 1060.855626 217.525672 
L 1062.544696 131.222302 
L 951.061896 100.092262 
z
" clip-path="url(#p336807e5c1)" style="fill: #4902aa"/>
    <path d="M 953.85376 183.83615 
L 951.05413 99.85932 
L 1062.549403 130.981784 
L 1060.855626 217.525672 
z
" clip-path="url(#p336807e5c1)" style="fill: #2f2b00"/>
    <path d="M 951.061896 100.092262 
L 1062.544696 131.222302 
L 1077.956948 117.383852 
L 967.94747 87.478611 
z
" clip-path="url(#p336807e5c1)" style="fill: #3f0293"/>
    <path d="M 1060.855626 217.525672 
L 1075.676037 202.565176 
L 1077.956948 117.383852 
L 1062.544696 131.222302 
z
" clip-path="url(#p336807e5c1)" style="fill: #220150"/>
    <path d="M 937.048075 198.05387 
L 1045.433722 233.093347 
L 1046.482297 145.403212 
L 933.484312 112.979284 
z
" clip-path="url(#p336807e5c1)" style="fill: #635c00"/>
    <path d="M 933.484312 112.979284 
L 1046.482297 145.403212 
L 1062.549403 130.981784 
L 951.05413 99.85932 
z
" clip-path="url(#p336807e5c1)" style="fill: #565000"/>
    <path d="M 1045.433722 233.093347 
L 1060.855626 217.525672 
L 1062.549403 130.981784 
L 1046.482297 145.403212 
z
" clip-path="url(#p336807e5c1)" style="fill: #2f2b00"/>
   </g>
  </g>
 </g>
 <defs>
  <clipPath id="p28e403dadf">
   <rect x="198.825882" y="34.56" width="221.76" height="221.76"/>
  </clipPath>
  <clipPath id="p3d788031d0">
   <rect x="553.32" y="34.56" width="221.76" height="221.76"/>
  </clipPath>
  <clipPath id="p336807e5c1">
   <rect x="907.814118" y="34.56" width="221.76" height="221.76"/>
  </clipPath>
 </defs>
</svg>
