<?xml version="1.0" encoding="utf-8" standalone="no"?>
<!DOCTYPE svg PUBLIC "-//W3C//DTD SVG 1.1//EN"
  "http://www.w3.org/Graphics/SVG/1.1/DTD/svg11.dtd">
<svg xmlns:xlink="http://www.w3.org/1999/xlink" width="576pt" height="216pt" viewBox="0 0 576 216" xmlns="http://www.w3.org/2000/svg" version="1.1">
 <metadata>
  <rdf:RDF xmlns:dc="http://purl.org/dc/elements/1.1/" xmlns:cc="http://creativecommons.org/ns#" xmlns:rdf="http://www.w3.org/1999/02/22-rdf-syntax-ns#">
   <cc:Work>
    <dc:type rdf:resource="http://purl.org/dc/dcmitype/StillImage"/>
    <dc:date>2025-08-09T15:49:30.893310</dc:date>
    <dc:format>image/svg+xml</dc:format>
    <dc:creator>
     <cc:Agent>
      <dc:title>Matplotlib v3.9.0, https://matplotlib.org/</dc:title>
     </cc:Agent>
    </dc:creator>
   </cc:Work>
  </rdf:RDF>
 </metadata>
 <defs>
  <style type="text/css">*{stroke-linejoin: round; stroke-linecap: butt}</style>
 </defs>
 <g id="figure_1">
  <g id="patch_1">
   <path d="M 0 216 
L 576 216 
L 576 0 
L 0 0 
z
" style="fill: #ffffff"/>
  </g>
  <g id="patch_2">
   <path d="M 90.294545 192.24 
L 256.614545 192.24 
L 256.614545 25.92 
L 90.294545 25.92 
z
" style="fill: #ffffff"/>
  </g>
  <g id="pane3d_1">
   <g id="patch_3">
    <path d="M 102.852852 151.230818 
L 157.777148 105.192184 
L 157.013648 38.796244 
L 99.460941 80.795588 
" style="fill: #f2f2f2; opacity: 0.5; stroke: #f2f2f2; stroke-linejoin: miter"/>
   </g>
  </g>
  <g id="pane3d_2">
   <g id="patch_4">
    <path d="M 157.777148 105.192184 
L 245.911046 130.809229 
L 249.056234 62.126357 
L 157.013648 38.796244 
" style="fill: #e6e6e6; opacity: 0.5; stroke: #e6e6e6; stroke-linejoin: miter"/>
   </g>
  </g>
  <g id="pane3d_3">
   <g id="patch_5">
    <path d="M 102.852852 151.230818 
L 196.279089 181.743827 
L 245.911046 130.809229 
L 157.777148 105.192184 
" style="fill: #ececec; opacity: 0.5; stroke: #ececec; stroke-linejoin: miter"/>
   </g>
  </g>
  <g id="grid3d_1">
   <g id="Line3DCollection_1">
    <path d="M 108.511236 153.078846 
L 163.137182 106.750135 
L 162.600308 40.2123 
" style="fill: none; stroke: #b0b0b0; stroke-width: 0.8"/>
    <path d="M 116.331933 155.633086 
L 170.540792 108.902072 
L 170.319306 42.168841 
" style="fill: none; stroke: #b0b0b0; stroke-width: 0.8"/>
    <path d="M 124.223626 158.210513 
L 178.006057 111.071929 
L 178.105354 44.142377 
" style="fill: none; stroke: #b0b0b0; stroke-width: 0.8"/>
    <path d="M 132.187284 160.811443 
L 185.533749 113.259932 
L 185.959332 46.133132 
" style="fill: none; stroke: #b0b0b0; stroke-width: 0.8"/>
    <path d="M 140.223897 163.436201 
L 193.124655 115.466309 
L 193.882132 48.14133 
" style="fill: none; stroke: #b0b0b0; stroke-width: 0.8"/>
    <path d="M 148.334471 166.085115 
L 200.779575 117.691292 
L 201.874661 50.167203 
" style="fill: none; stroke: #b0b0b0; stroke-width: 0.8"/>
    <path d="M 156.520033 168.758519 
L 208.499323 119.935118 
L 209.937846 52.210986 
" style="fill: none; stroke: #b0b0b0; stroke-width: 0.8"/>
    <path d="M 164.781627 171.456756 
L 216.284724 122.198027 
L 218.072626 54.272915 
" style="fill: none; stroke: #b0b0b0; stroke-width: 0.8"/>
    <path d="M 173.120318 174.180172 
L 224.13662 124.480263 
L 226.27996 56.353235 
" style="fill: none; stroke: #b0b0b0; stroke-width: 0.8"/>
    <path d="M 181.537189 176.929122 
L 232.055867 126.782075 
L 234.560823 58.452193 
" style="fill: none; stroke: #b0b0b0; stroke-width: 0.8"/>
   </g>
  </g>
  <g id="grid3d_2">
   <g id="Line3DCollection_2">
    <path d="M 103.440854 77.891229 
L 106.637601 148.058367 
L 199.713236 178.219547 
" style="fill: none; stroke: #b0b0b0; stroke-width: 0.8"/>
   </g>
  </g>
  <g id="grid3d_3">
   <g id="Line3DCollection_3">
    <path d="M 245.971304 129.493341 
L 157.76249 103.917475 
L 102.787975 149.883587 
" style="fill: none; stroke: #b0b0b0; stroke-width: 0.8"/>
    <path d="M 247.152936 103.689514 
L 157.475292 78.941974 
L 101.514909 123.447549 
" style="fill: none; stroke: #b0b0b0; stroke-width: 0.8"/>
    <path d="M 248.374988 77.00302 
L 157.178748 53.15379 
L 100.196598 96.071972 
" style="fill: none; stroke: #b0b0b0; stroke-width: 0.8"/>
   </g>
  </g>
  <g id="axis3d_1">
   <g id="line2d_1">
    <path d="M 102.852852 151.230818 
L 196.279089 181.743827 
" style="fill: none; stroke: #000000; stroke-width: 0.8; stroke-linecap: square"/>
   </g>
   <g id="xtick_1">
    <g id="line2d_2">
     <path d="M 108.986915 152.675418 
L 107.557835 153.887433 
" style="fill: none; stroke: #000000; stroke-width: 0.8; stroke-linecap: square"/>
    </g>
    <g id="text_1">
     <!-- 5 -->
     <g transform="translate(97.784106 176.423114) scale(0.1 -0.1)">
      <defs>
       <path id="DejaVuSans-35" d="M 691 4666 
L 3169 4666 
L 3169 4134 
L 1269 4134 
L 1269 2991 
Q 1406 3038 1543 3061 
Q 1681 3084 1819 3084 
Q 2600 3084 3056 2656 
Q 3513 2228 3513 1497 
Q 3513 744 3044 326 
Q 2575 -91 1722 -91 
Q 1428 -91 1123 -41 
Q 819 9 494 109 
L 494 744 
Q 775 591 1075 516 
Q 1375 441 1709 441 
Q 2250 441 2565 725 
Q 2881 1009 2881 1497 
Q 2881 1984 2565 2268 
Q 2250 2553 1709 2553 
Q 1456 2553 1204 2497 
Q 953 2441 691 2322 
L 691 4666 
z
" transform="scale(0.015625)"/>
      </defs>
      <use xlink:href="#DejaVuSans-35"/>
     </g>
    </g>
   </g>
   <g id="xtick_2">
    <g id="line2d_3">
     <path d="M 116.804154 155.226006 
L 115.385456 156.449002 
" style="fill: none; stroke: #000000; stroke-width: 0.8; stroke-linecap: square"/>
    </g>
    <g id="text_2">
     <!-- 10 -->
     <g transform="translate(102.436085 179.06422) scale(0.1 -0.1)">
      <defs>
       <path id="DejaVuSans-31" d="M 794 531 
L 1825 531 
L 1825 4091 
L 703 3866 
L 703 4441 
L 1819 4666 
L 2450 4666 
L 2450 531 
L 3481 531 
L 3481 0 
L 794 0 
L 794 531 
z
" transform="scale(0.015625)"/>
       <path id="DejaVuSans-30" d="M 2034 4250 
Q 1547 4250 1301 3770 
Q 1056 3291 1056 2328 
Q 1056 1369 1301 889 
Q 1547 409 2034 409 
Q 2525 409 2770 889 
Q 3016 1369 3016 2328 
Q 3016 3291 2770 3770 
Q 2525 4250 2034 4250 
z
M 2034 4750 
Q 2819 4750 3233 4129 
Q 3647 3509 3647 2328 
Q 3647 1150 3233 529 
Q 2819 -91 2034 -91 
Q 1250 -91 836 529 
Q 422 1150 422 2328 
Q 422 3509 836 4129 
Q 1250 4750 2034 4750 
z
" transform="scale(0.015625)"/>
      </defs>
      <use xlink:href="#DejaVuSans-31"/>
      <use xlink:href="#DejaVuSans-30" x="63.623047"/>
     </g>
    </g>
   </g>
   <g id="xtick_3">
    <g id="line2d_4">
     <path d="M 124.692306 157.79973 
L 123.284237 159.033857 
" style="fill: none; stroke: #000000; stroke-width: 0.8; stroke-linecap: square"/>
    </g>
    <g id="text_3">
     <!-- 20 -->
     <g transform="translate(110.34085 181.729446) scale(0.1 -0.1)">
      <defs>
       <path id="DejaVuSans-32" d="M 1228 531 
L 3431 531 
L 3431 0 
L 469 0 
L 469 531 
Q 828 903 1448 1529 
Q 2069 2156 2228 2338 
Q 2531 2678 2651 2914 
Q 2772 3150 2772 3378 
Q 2772 3750 2511 3984 
Q 2250 4219 1831 4219 
Q 1534 4219 1204 4116 
Q 875 4013 500 3803 
L 500 4441 
Q 881 4594 1212 4672 
Q 1544 4750 1819 4750 
Q 2544 4750 2975 4387 
Q 3406 4025 3406 3419 
Q 3406 3131 3298 2873 
Q 3191 2616 2906 2266 
Q 2828 2175 2409 1742 
Q 1991 1309 1228 531 
z
" transform="scale(0.015625)"/>
      </defs>
      <use xlink:href="#DejaVuSans-32"/>
      <use xlink:href="#DejaVuSans-30" x="63.623047"/>
     </g>
    </g>
   </g>
   <g id="xtick_4">
    <g id="line2d_5">
     <path d="M 132.652338 160.396907 
L 131.255153 161.642319 
" style="fill: none; stroke: #000000; stroke-width: 0.8; stroke-linecap: square"/>
    </g>
    <g id="text_4">
     <!-- 25 -->
     <g transform="translate(118.318136 184.419124) scale(0.1 -0.1)">
      <use xlink:href="#DejaVuSans-32"/>
      <use xlink:href="#DejaVuSans-35" x="63.623047"/>
     </g>
    </g>
   </g>
   <g id="xtick_5">
    <g id="line2d_6">
     <path d="M 140.685239 163.01786 
L 139.299196 164.274711 
" style="fill: none; stroke: #000000; stroke-width: 0.8; stroke-linecap: square"/>
    </g>
    <g id="text_5">
     <!-- 50 -->
     <g transform="translate(126.368944 187.133591) scale(0.1 -0.1)">
      <use xlink:href="#DejaVuSans-35"/>
      <use xlink:href="#DejaVuSans-30" x="63.623047"/>
     </g>
    </g>
   </g>
   <g id="xtick_6">
    <g id="line2d_7">
     <path d="M 148.792014 165.662916 
L 147.417378 166.931365 
" style="fill: none; stroke: #000000; stroke-width: 0.8; stroke-linecap: square"/>
    </g>
    <g id="text_6">
     <!-- 100 -->
     <g transform="translate(131.313047 189.873192) scale(0.1 -0.1)">
      <use xlink:href="#DejaVuSans-31"/>
      <use xlink:href="#DejaVuSans-30" x="63.623047"/>
      <use xlink:href="#DejaVuSans-30" x="127.246094"/>
     </g>
    </g>
   </g>
   <g id="xtick_7">
    <g id="line2d_8">
     <path d="M 156.973686 168.33241 
L 155.610727 169.612617 
" style="fill: none; stroke: #000000; stroke-width: 0.8; stroke-linecap: square"/>
    </g>
    <g id="text_7">
     <!-- 200 -->
     <g transform="translate(139.513984 192.638277) scale(0.1 -0.1)">
      <use xlink:href="#DejaVuSans-32"/>
      <use xlink:href="#DejaVuSans-30" x="63.623047"/>
      <use xlink:href="#DejaVuSans-30" x="127.246094"/>
     </g>
    </g>
   </g>
   <g id="xtick_8">
    <g id="line2d_9">
     <path d="M 165.231298 171.026681 
L 163.880294 172.318812 
" style="fill: none; stroke: #000000; stroke-width: 0.8; stroke-linecap: square"/>
    </g>
    <g id="text_8">
     <!-- 250 -->
     <g transform="translate(147.791566 195.429205) scale(0.1 -0.1)">
      <use xlink:href="#DejaVuSans-32"/>
      <use xlink:href="#DejaVuSans-35" x="63.623047"/>
      <use xlink:href="#DejaVuSans-30" x="127.246094"/>
     </g>
    </g>
   </g>
   <g id="xtick_9">
    <g id="line2d_10">
     <path d="M 173.565912 173.746076 
L 172.227146 175.050297 
" style="fill: none; stroke: #000000; stroke-width: 0.8; stroke-linecap: square"/>
    </g>
    <g id="text_9">
     <!-- 500 -->
     <g transform="translate(156.14687 198.246338) scale(0.1 -0.1)">
      <use xlink:href="#DejaVuSans-35"/>
      <use xlink:href="#DejaVuSans-30" x="63.623047"/>
      <use xlink:href="#DejaVuSans-30" x="127.246094"/>
     </g>
    </g>
   </g>
   <g id="xtick_10">
    <g id="line2d_11">
     <path d="M 181.978611 176.490948 
L 180.652372 177.807431 
" style="fill: none; stroke: #000000; stroke-width: 0.8; stroke-linecap: square"/>
    </g>
    <g id="text_10">
     <!-- 1000 -->
     <g transform="translate(161.399748 201.090047) scale(0.1 -0.1)">
      <use xlink:href="#DejaVuSans-31"/>
      <use xlink:href="#DejaVuSans-30" x="63.623047"/>
      <use xlink:href="#DejaVuSans-30" x="127.246094"/>
      <use xlink:href="#DejaVuSans-30" x="190.869141"/>
     </g>
    </g>
   </g>
   <g id="text_11">
    <!-- support -->
    <g transform="translate(112.856474 198.196915) rotate(-341.912962) scale(0.1 -0.1)">
     <defs>
      <path id="DejaVuSans-73" d="M 2834 3397 
L 2834 2853 
Q 2591 2978 2328 3040 
Q 2066 3103 1784 3103 
Q 1356 3103 1142 2972 
Q 928 2841 928 2578 
Q 928 2378 1081 2264 
Q 1234 2150 1697 2047 
L 1894 2003 
Q 2506 1872 2764 1633 
Q 3022 1394 3022 966 
Q 3022 478 2636 193 
Q 2250 -91 1575 -91 
Q 1294 -91 989 -36 
Q 684 19 347 128 
L 347 722 
Q 666 556 975 473 
Q 1284 391 1588 391 
Q 1994 391 2212 530 
Q 2431 669 2431 922 
Q 2431 1156 2273 1281 
Q 2116 1406 1581 1522 
L 1381 1569 
Q 847 1681 609 1914 
Q 372 2147 372 2553 
Q 372 3047 722 3315 
Q 1072 3584 1716 3584 
Q 2034 3584 2315 3537 
Q 2597 3491 2834 3397 
z
" transform="scale(0.015625)"/>
      <path id="DejaVuSans-75" d="M 544 1381 
L 544 3500 
L 1119 3500 
L 1119 1403 
Q 1119 906 1312 657 
Q 1506 409 1894 409 
Q 2359 409 2629 706 
Q 2900 1003 2900 1516 
L 2900 3500 
L 3475 3500 
L 3475 0 
L 2900 0 
L 2900 538 
Q 2691 219 2414 64 
Q 2138 -91 1772 -91 
Q 1169 -91 856 284 
Q 544 659 544 1381 
z
M 1991 3584 
L 1991 3584 
z
" transform="scale(0.015625)"/>
      <path id="DejaVuSans-70" d="M 1159 525 
L 1159 -1331 
L 581 -1331 
L 581 3500 
L 1159 3500 
L 1159 2969 
Q 1341 3281 1617 3432 
Q 1894 3584 2278 3584 
Q 2916 3584 3314 3078 
Q 3713 2572 3713 1747 
Q 3713 922 3314 415 
Q 2916 -91 2278 -91 
Q 1894 -91 1617 61 
Q 1341 213 1159 525 
z
M 3116 1747 
Q 3116 2381 2855 2742 
Q 2594 3103 2138 3103 
Q 1681 3103 1420 2742 
Q 1159 2381 1159 1747 
Q 1159 1113 1420 752 
Q 1681 391 2138 391 
Q 2594 391 2855 752 
Q 3116 1113 3116 1747 
z
" transform="scale(0.015625)"/>
      <path id="DejaVuSans-6f" d="M 1959 3097 
Q 1497 3097 1228 2736 
Q 959 2375 959 1747 
Q 959 1119 1226 758 
Q 1494 397 1959 397 
Q 2419 397 2687 759 
Q 2956 1122 2956 1747 
Q 2956 2369 2687 2733 
Q 2419 3097 1959 3097 
z
M 1959 3584 
Q 2709 3584 3137 3096 
Q 3566 2609 3566 1747 
Q 3566 888 3137 398 
Q 2709 -91 1959 -91 
Q 1206 -91 779 398 
Q 353 888 353 1747 
Q 353 2609 779 3096 
Q 1206 3584 1959 3584 
z
" transform="scale(0.015625)"/>
      <path id="DejaVuSans-72" d="M 2631 2963 
Q 2534 3019 2420 3045 
Q 2306 3072 2169 3072 
Q 1681 3072 1420 2755 
Q 1159 2438 1159 1844 
L 1159 0 
L 581 0 
L 581 3500 
L 1159 3500 
L 1159 2956 
Q 1341 3275 1631 3429 
Q 1922 3584 2338 3584 
Q 2397 3584 2469 3576 
Q 2541 3569 2628 3553 
L 2631 2963 
z
" transform="scale(0.015625)"/>
      <path id="DejaVuSans-74" d="M 1172 4494 
L 1172 3500 
L 2356 3500 
L 2356 3053 
L 1172 3053 
L 1172 1153 
Q 1172 725 1289 603 
Q 1406 481 1766 481 
L 2356 481 
L 2356 0 
L 1766 0 
Q 1100 0 847 248 
Q 594 497 594 1153 
L 594 3053 
L 172 3053 
L 172 3500 
L 594 3500 
L 594 4494 
L 1172 4494 
z
" transform="scale(0.015625)"/>
     </defs>
     <use xlink:href="#DejaVuSans-73"/>
     <use xlink:href="#DejaVuSans-75" x="52.099609"/>
     <use xlink:href="#DejaVuSans-70" x="115.478516"/>
     <use xlink:href="#DejaVuSans-70" x="178.955078"/>
     <use xlink:href="#DejaVuSans-6f" x="242.431641"/>
     <use xlink:href="#DejaVuSans-72" x="303.613281"/>
     <use xlink:href="#DejaVuSans-74" x="344.726562"/>
    </g>
   </g>
  </g>
  <g id="axis3d_2">
   <g id="line2d_12">
    <path d="M 245.911046 130.809229 
L 196.279089 181.743827 
" style="fill: none; stroke: #000000; stroke-width: 0.8; stroke-linecap: square"/>
   </g>
   <g id="xtick_11">
    <g id="line2d_13">
     <path d="M 198.928885 177.965378 
L 201.283967 178.728542 
" style="fill: none; stroke: #000000; stroke-width: 0.8; stroke-linecap: square"/>
    </g>
    <g id="text_12">
     <!-- -1 -->
     <g transform="translate(207.613343 199.246101) scale(0.1 -0.1)">
      <defs>
       <path id="DejaVuSans-2d" d="M 313 2009 
L 1997 2009 
L 1997 1497 
L 313 1497 
L 313 2009 
z
" transform="scale(0.015625)"/>
      </defs>
      <use xlink:href="#DejaVuSans-2d"/>
      <use xlink:href="#DejaVuSans-31" x="36.083984"/>
     </g>
    </g>
   </g>
   <g id="text_13">
    <!-- window -->
    <g transform="translate(237.933917 198.680808) rotate(-45.742112) scale(0.1 -0.1)">
     <defs>
      <path id="DejaVuSans-77" d="M 269 3500 
L 844 3500 
L 1563 769 
L 2278 3500 
L 2956 3500 
L 3675 769 
L 4391 3500 
L 4966 3500 
L 4050 0 
L 3372 0 
L 2619 2869 
L 1863 0 
L 1184 0 
L 269 3500 
z
" transform="scale(0.015625)"/>
      <path id="DejaVuSans-69" d="M 603 3500 
L 1178 3500 
L 1178 0 
L 603 0 
L 603 3500 
z
M 603 4863 
L 1178 4863 
L 1178 4134 
L 603 4134 
L 603 4863 
z
" transform="scale(0.015625)"/>
      <path id="DejaVuSans-6e" d="M 3513 2113 
L 3513 0 
L 2938 0 
L 2938 2094 
Q 2938 2591 2744 2837 
Q 2550 3084 2163 3084 
Q 1697 3084 1428 2787 
Q 1159 2491 1159 1978 
L 1159 0 
L 581 0 
L 581 3500 
L 1159 3500 
L 1159 2956 
Q 1366 3272 1645 3428 
Q 1925 3584 2291 3584 
Q 2894 3584 3203 3211 
Q 3513 2838 3513 2113 
z
" transform="scale(0.015625)"/>
      <path id="DejaVuSans-64" d="M 2906 2969 
L 2906 4863 
L 3481 4863 
L 3481 0 
L 2906 0 
L 2906 525 
Q 2725 213 2448 61 
Q 2172 -91 1784 -91 
Q 1150 -91 751 415 
Q 353 922 353 1747 
Q 353 2572 751 3078 
Q 1150 3584 1784 3584 
Q 2172 3584 2448 3432 
Q 2725 3281 2906 2969 
z
M 947 1747 
Q 947 1113 1208 752 
Q 1469 391 1925 391 
Q 2381 391 2643 752 
Q 2906 1113 2906 1747 
Q 2906 2381 2643 2742 
Q 2381 3103 1925 3103 
Q 1469 3103 1208 2742 
Q 947 2381 947 1747 
z
" transform="scale(0.015625)"/>
     </defs>
     <use xlink:href="#DejaVuSans-77"/>
     <use xlink:href="#DejaVuSans-69" x="81.787109"/>
     <use xlink:href="#DejaVuSans-6e" x="109.570312"/>
     <use xlink:href="#DejaVuSans-64" x="172.949219"/>
     <use xlink:href="#DejaVuSans-6f" x="236.425781"/>
     <use xlink:href="#DejaVuSans-77" x="297.607422"/>
    </g>
   </g>
  </g>
  <g id="axis3d_3">
   <g id="line2d_14">
    <path d="M 245.911046 130.809229 
L 249.056234 62.126357 
" style="fill: none; stroke: #000000; stroke-width: 0.8; stroke-linecap: square"/>
   </g>
   <g id="xtick_12">
    <g id="line2d_15">
     <path d="M 245.230959 129.27868 
L 247.453756 129.923173 
" style="fill: none; stroke: #000000; stroke-width: 0.8; stroke-linecap: square"/>
    </g>
    <g id="text_14">
     <!-- $10^{0.0}$ -->
     <g transform="translate(252.052445 134.495544) scale(0.1 -0.1)">
      <defs>
       <path id="DejaVuSans-2e" d="M 684 794 
L 1344 794 
L 1344 0 
L 684 0 
L 684 794 
z
" transform="scale(0.015625)"/>
      </defs>
      <use xlink:href="#DejaVuSans-31" transform="translate(0 0.765625)"/>
      <use xlink:href="#DejaVuSans-30" transform="translate(63.623047 0.765625)"/>
      <use xlink:href="#DejaVuSans-30" transform="translate(128.203125 39.046875) scale(0.7)"/>
      <use xlink:href="#DejaVuSans-2e" transform="translate(172.739258 39.046875) scale(0.7)"/>
      <use xlink:href="#DejaVuSans-30" transform="translate(194.990234 39.046875) scale(0.7)"/>
     </g>
    </g>
   </g>
   <g id="xtick_13">
    <g id="line2d_16">
     <path d="M 246.399671 103.481642 
L 248.66129 104.10576 
" style="fill: none; stroke: #000000; stroke-width: 0.8; stroke-linecap: square"/>
    </g>
    <g id="text_15">
     <!-- $10^{1.0}$ -->
     <g transform="translate(253.533396 108.774009) scale(0.1 -0.1)">
      <use xlink:href="#DejaVuSans-31" transform="translate(0 0.765625)"/>
      <use xlink:href="#DejaVuSans-30" transform="translate(63.623047 0.765625)"/>
      <use xlink:href="#DejaVuSans-31" transform="translate(128.203125 39.046875) scale(0.7)"/>
      <use xlink:href="#DejaVuSans-2e" transform="translate(172.739258 39.046875) scale(0.7)"/>
      <use xlink:href="#DejaVuSans-30" transform="translate(194.990234 39.046875) scale(0.7)"/>
     </g>
    </g>
   </g>
   <g id="xtick_14">
    <g id="line2d_17">
     <path d="M 247.608344 76.80253 
L 249.910164 77.404492 
" style="fill: none; stroke: #000000; stroke-width: 0.8; stroke-linecap: square"/>
    </g>
    <g id="text_16">
     <!-- $10^{2.0}$ -->
     <g transform="translate(255.064755 82.176983) scale(0.1 -0.1)">
      <use xlink:href="#DejaVuSans-31" transform="translate(0 0.765625)"/>
      <use xlink:href="#DejaVuSans-30" transform="translate(63.623047 0.765625)"/>
      <use xlink:href="#DejaVuSans-32" transform="translate(128.203125 39.046875) scale(0.7)"/>
      <use xlink:href="#DejaVuSans-2e" transform="translate(172.739258 39.046875) scale(0.7)"/>
      <use xlink:href="#DejaVuSans-30" transform="translate(194.990234 39.046875) scale(0.7)"/>
     </g>
    </g>
   </g>
   <g id="text_17">
    <!-- elapsed -->
    <g transform="translate(289.526602 111.497396) rotate(-87.378092) scale(0.1 -0.1)">
     <defs>
      <path id="DejaVuSans-65" d="M 3597 1894 
L 3597 1613 
L 953 1613 
Q 991 1019 1311 708 
Q 1631 397 2203 397 
Q 2534 397 2845 478 
Q 3156 559 3463 722 
L 3463 178 
Q 3153 47 2828 -22 
Q 2503 -91 2169 -91 
Q 1331 -91 842 396 
Q 353 884 353 1716 
Q 353 2575 817 3079 
Q 1281 3584 2069 3584 
Q 2775 3584 3186 3129 
Q 3597 2675 3597 1894 
z
M 3022 2063 
Q 3016 2534 2758 2815 
Q 2500 3097 2075 3097 
Q 1594 3097 1305 2825 
Q 1016 2553 972 2059 
L 3022 2063 
z
" transform="scale(0.015625)"/>
      <path id="DejaVuSans-6c" d="M 603 4863 
L 1178 4863 
L 1178 0 
L 603 0 
L 603 4863 
z
" transform="scale(0.015625)"/>
      <path id="DejaVuSans-61" d="M 2194 1759 
Q 1497 1759 1228 1600 
Q 959 1441 959 1056 
Q 959 750 1161 570 
Q 1363 391 1709 391 
Q 2188 391 2477 730 
Q 2766 1069 2766 1631 
L 2766 1759 
L 2194 1759 
z
M 3341 1997 
L 3341 0 
L 2766 0 
L 2766 531 
Q 2569 213 2275 61 
Q 1981 -91 1556 -91 
Q 1019 -91 701 211 
Q 384 513 384 1019 
Q 384 1609 779 1909 
Q 1175 2209 1959 2209 
L 2766 2209 
L 2766 2266 
Q 2766 2663 2505 2880 
Q 2244 3097 1772 3097 
Q 1472 3097 1187 3025 
Q 903 2953 641 2809 
L 641 3341 
Q 956 3463 1253 3523 
Q 1550 3584 1831 3584 
Q 2591 3584 2966 3190 
Q 3341 2797 3341 1997 
z
" transform="scale(0.015625)"/>
     </defs>
     <use xlink:href="#DejaVuSans-65"/>
     <use xlink:href="#DejaVuSans-6c" x="61.523438"/>
     <use xlink:href="#DejaVuSans-61" x="89.306641"/>
     <use xlink:href="#DejaVuSans-70" x="150.585938"/>
     <use xlink:href="#DejaVuSans-73" x="214.0625"/>
     <use xlink:href="#DejaVuSans-65" x="266.162109"/>
     <use xlink:href="#DejaVuSans-64" x="327.685547"/>
    </g>
   </g>
  </g>
  <g id="axes_1">
   <g id="Poly3DCollection_1">
    <path d="M 112.220014 148.540403 
L 120.019953 151.062008 
L 167.351449 110.360227 
L 159.916139 108.189167 
z
" clip-path="url(#pca4bbfb6c7)" style="fill: #c30000"/>
    <path d="M 120.019953 151.062008 
L 127.890359 153.606394 
L 174.849057 112.549478 
L 167.351449 110.360227 
z
" clip-path="url(#pca4bbfb6c7)" style="fill: #c30000"/>
    <path d="M 127.890359 153.606394 
L 135.832189 156.17387 
L 182.409749 114.757149 
L 174.849057 112.549478 
z
" clip-path="url(#pca4bbfb6c7)" style="fill: #c30000"/>
    <path d="M 135.832189 156.17387 
L 143.846421 158.764753 
L 190.034324 116.983473 
L 182.409749 114.757149 
z
" clip-path="url(#pca4bbfb6c7)" style="fill: #c30000"/>
    <path d="M 143.846421 158.764753 
L 151.934049 161.379363 
L 197.723596 119.228689 
L 190.034324 116.983473 
z
" clip-path="url(#pca4bbfb6c7)" style="fill: #c30000"/>
    <path d="M 151.934049 161.379363 
L 160.096086 164.018029 
L 205.478391 121.493036 
L 197.723596 119.228689 
z
" clip-path="url(#pca4bbfb6c7)" style="fill: #c30000"/>
    <path d="M 160.096086 164.018029 
L 168.333564 166.681084 
L 213.29955 123.776762 
L 205.478391 121.493036 
z
" clip-path="url(#pca4bbfb6c7)" style="fill: #c30000"/>
    <path d="M 168.333564 166.681084 
L 176.647533 169.368867 
L 221.187929 126.080115 
L 213.29955 123.776762 
z
" clip-path="url(#pca4bbfb6c7)" style="fill: #c30000"/>
    <path d="M 176.647533 169.368867 
L 185.039065 172.081725 
L 229.144399 128.403351 
L 221.187929 126.080115 
z
" clip-path="url(#pca4bbfb6c7)" style="fill: #c30000"/>
    <path d="M 185.039065 172.081725 
L 193.509248 174.82001 
L 237.169845 130.746727 
L 229.144399 128.403351 
z
" clip-path="url(#pca4bbfb6c7)" style="fill: #c30000"/>
   </g>
   <g id="text_18">
    <!-- default -->
    <g transform="translate(152.342983 19.92) scale(0.12 -0.12)">
     <defs>
      <path id="DejaVuSans-66" d="M 2375 4863 
L 2375 4384 
L 1825 4384 
Q 1516 4384 1395 4259 
Q 1275 4134 1275 3809 
L 1275 3500 
L 2222 3500 
L 2222 3053 
L 1275 3053 
L 1275 0 
L 697 0 
L 697 3053 
L 147 3053 
L 147 3500 
L 697 3500 
L 697 3744 
Q 697 4328 969 4595 
Q 1241 4863 1831 4863 
L 2375 4863 
z
" transform="scale(0.015625)"/>
     </defs>
     <use xlink:href="#DejaVuSans-64"/>
     <use xlink:href="#DejaVuSans-65" x="63.476562"/>
     <use xlink:href="#DejaVuSans-66" x="125"/>
     <use xlink:href="#DejaVuSans-61" x="160.205078"/>
     <use xlink:href="#DejaVuSans-75" x="221.484375"/>
     <use xlink:href="#DejaVuSans-6c" x="284.863281"/>
     <use xlink:href="#DejaVuSans-74" x="312.646484"/>
    </g>
   </g>
   <g id="Poly3DCollection_2">
    <path d="M 159.916139 108.189167 
L 159.265634 44.078016 
L 167.005842 46.0604 
L 167.351449 110.360227 
z
" clip-path="url(#pca4bbfb6c7)" style="fill: #36662c"/>
    <path d="M 167.351449 110.360227 
L 167.031335 50.803363 
L 174.816214 52.817793 
L 174.849057 112.549478 
z
" clip-path="url(#pca4bbfb6c7)" style="fill: #3d0e23"/>
    <path d="M 174.849057 112.549478 
L 174.81904 57.958018 
L 182.646802 60.005931 
L 182.409749 114.757149 
z
" clip-path="url(#pca4bbfb6c7)" style="fill: #37290a"/>
    <path d="M 182.409749 114.757149 
L 182.635862 62.532685 
L 190.519571 64.606284 
L 190.034324 116.983473 
z
" clip-path="url(#pca4bbfb6c7)" style="fill: #03383d"/>
    <path d="M 190.034324 116.983473 
L 190.459471 71.093356 
L 198.37969 73.204969 
L 197.723596 119.228689 
z
" clip-path="url(#pca4bbfb6c7)" style="fill: #600244"/>
    <path d="M 197.723596 119.228689 
L 198.262855 81.40069 
L 206.210732 83.555591 
L 205.478391 121.493036 
z
" clip-path="url(#pca4bbfb6c7)" style="fill: #0e2826"/>
    <path d="M 205.478391 121.493036 
L 206.056211 91.560226 
L 214.032325 93.757885 
L 213.29955 123.776762 
z
" clip-path="url(#pca4bbfb6c7)" style="fill: #030b4a"/>
    <path d="M 112.220014 148.540403 
L 159.916139 108.189167 
L 167.351449 110.360227 
L 120.019953 151.062008 
z
" clip-path="url(#pca4bbfb6c7)" style="fill: #458239"/>
    <path d="M 213.29955 123.776762 
L 213.981844 95.825899 
L 222.016989 98.048933 
L 221.187929 126.080115 
z
" clip-path="url(#pca4bbfb6c7)" style="fill: #3b464a"/>
    <path d="M 221.187929 126.080115 
L 221.820225 104.70167 
L 229.890548 106.963787 
L 229.144399 128.403351 
z
" clip-path="url(#pca4bbfb6c7)" style="fill: #460d51"/>
    <path d="M 120.019953 151.062008 
L 167.351449 110.360227 
L 174.849057 112.549478 
L 127.890359 153.606394 
z
" clip-path="url(#pca4bbfb6c7)" style="fill: #4e122d"/>
    <path d="M 229.144399 128.403351 
L 229.714375 112.025891 
L 237.828286 114.322619 
L 237.169845 130.746727 
z
" clip-path="url(#pca4bbfb6c7)" style="fill: #280509"/>
    <path d="M 127.890359 153.606394 
L 174.849057 112.549478 
L 182.409749 114.757149 
L 135.832189 156.17387 
z
" clip-path="url(#pca4bbfb6c7)" style="fill: #47340d"/>
    <path d="M 135.832189 156.17387 
L 182.409749 114.757149 
L 190.034324 116.983473 
L 143.846421 158.764753 
z
" clip-path="url(#pca4bbfb6c7)" style="fill: #04484f"/>
    <path d="M 143.846421 158.764753 
L 190.034324 116.983473 
L 197.723596 119.228689 
L 151.934049 161.379363 
z
" clip-path="url(#pca4bbfb6c7)" style="fill: #7a0357"/>
    <path d="M 112.220014 148.540403 
L 109.392191 81.034262 
L 159.265634 44.078016 
L 159.916139 108.189167 
z
" clip-path="url(#pca4bbfb6c7)" style="fill: #72d75e"/>
    <path d="M 151.934049 161.379363 
L 197.723596 119.228689 
L 205.478391 121.493036 
L 160.096086 164.018029 
z
" clip-path="url(#pca4bbfb6c7)" style="fill: #123330"/>
    <path d="M 120.019953 151.062008 
L 117.712298 88.361073 
L 167.031335 50.803363 
L 167.351449 110.360227 
z
" clip-path="url(#pca4bbfb6c7)" style="fill: #811e4a"/>
    <path d="M 120.019953 151.062008 
L 167.351449 110.360227 
L 167.005842 46.0604 
L 117.527927 83.351577 
z
" clip-path="url(#pca4bbfb6c7)" style="fill: #36662c"/>
    <path d="M 127.890359 153.606394 
L 126.071348 96.143341 
L 174.81904 57.958018 
L 174.849057 112.549478 
z
" clip-path="url(#pca4bbfb6c7)" style="fill: #755716"/>
    <path d="M 160.096086 164.018029 
L 205.478391 121.493036 
L 213.29955 123.776762 
L 168.333564 166.681084 
z
" clip-path="url(#pca4bbfb6c7)" style="fill: #030e5e"/>
    <path d="M 127.890359 153.606394 
L 174.849057 112.549478 
L 174.816214 52.817793 
L 125.899556 90.716386 
z
" clip-path="url(#pca4bbfb6c7)" style="fill: #3d0e23"/>
    <path d="M 135.832189 156.17387 
L 134.378701 101.205183 
L 182.635862 62.532685 
L 182.409749 114.757149 
z
" clip-path="url(#pca4bbfb6c7)" style="fill: #067882"/>
    <path d="M 135.832189 156.17387 
L 182.409749 114.757149 
L 182.646802 60.005931 
L 134.308181 98.538249 
z
" clip-path="url(#pca4bbfb6c7)" style="fill: #37290a"/>
    <path d="M 143.846421 158.764753 
L 142.824462 110.475709 
L 190.459471 71.093356 
L 190.034324 116.983473 
z
" clip-path="url(#pca4bbfb6c7)" style="fill: #cb058f"/>
    <path d="M 168.333564 166.681084 
L 213.29955 123.776762 
L 221.187929 126.080115 
L 176.647533 169.368867 
z
" clip-path="url(#pca4bbfb6c7)" style="fill: #4b5a5f"/>
    <path d="M 151.934049 161.379363 
L 151.304635 121.58789 
L 198.262855 81.40069 
L 197.723596 119.228689 
z
" clip-path="url(#pca4bbfb6c7)" style="fill: #1d5550"/>
    <path d="M 143.846421 158.764753 
L 190.034324 116.983473 
L 190.519571 64.606284 
L 142.67961 103.631226 
z
" clip-path="url(#pca4bbfb6c7)" style="fill: #03383d"/>
    <path d="M 160.096086 164.018029 
L 159.768609 132.542547 
L 206.056211 91.560226 
L 205.478391 121.493036 
z
" clip-path="url(#pca4bbfb6c7)" style="fill: #06189c"/>
    <path d="M 151.934049 161.379363 
L 197.723596 119.228689 
L 198.37969 73.204969 
L 151.167944 112.946346 
z
" clip-path="url(#pca4bbfb6c7)" style="fill: #600244"/>
    <path d="M 176.647533 169.368867 
L 221.187929 126.080115 
L 229.144399 128.403351 
L 185.039065 172.081725 
z
" clip-path="url(#pca4bbfb6c7)" style="fill: #5a1168"/>
    <path d="M 160.096086 164.018029 
L 205.478391 121.493036 
L 206.210732 83.555591 
L 159.680863 124.108843 
z
" clip-path="url(#pca4bbfb6c7)" style="fill: #0e2826"/>
    <path d="M 168.333564 166.681084 
L 168.18893 137.291106 
L 213.981844 95.825899 
L 213.29955 123.776762 
z
" clip-path="url(#pca4bbfb6c7)" style="fill: #7d959e"/>
    <path d="M 168.333564 166.681084 
L 213.29955 123.776762 
L 214.032325 93.757885 
L 168.178213 135.113218 
z
" clip-path="url(#pca4bbfb6c7)" style="fill: #030b4a"/>
    <path d="M 185.039065 172.081725 
L 229.144399 128.403351 
L 237.169845 130.746727 
L 193.509248 174.82001 
z
" clip-path="url(#pca4bbfb6c7)" style="fill: #34060c"/>
    <path d="M 176.647533 169.368867 
L 176.661748 146.896248 
L 221.820225 104.70167 
L 221.187929 126.080115 
z
" clip-path="url(#pca4bbfb6c7)" style="fill: #951bac"/>
    <path d="M 109.392191 81.034262 
L 117.527927 83.351577 
L 167.005842 46.0604 
L 159.265634 44.078016 
z
" clip-path="url(#pca4bbfb6c7)" style="fill: #63bb51"/>
    <path d="M 176.647533 169.368867 
L 221.187929 126.080115 
L 222.016989 98.048933 
L 176.666178 139.892751 
z
" clip-path="url(#pca4bbfb6c7)" style="fill: #3b464a"/>
    <path d="M 185.039065 172.081725 
L 185.146784 154.869737 
L 229.714375 112.025891 
L 229.144399 128.403351 
z
" clip-path="url(#pca4bbfb6c7)" style="fill: #560a14"/>
    <path d="M 117.712298 88.361073 
L 125.899556 90.716386 
L 174.816214 52.817793 
L 167.031335 50.803363 
z
" clip-path="url(#pca4bbfb6c7)" style="fill: #701a40"/>
    <path d="M 185.039065 172.081725 
L 229.144399 128.403351 
L 229.890548 106.963787 
L 185.180116 149.543681 
z
" clip-path="url(#pca4bbfb6c7)" style="fill: #460d51"/>
    <path d="M 126.071348 96.143341 
L 134.308181 98.538249 
L 182.646802 60.005931 
L 174.81904 57.958018 
z
" clip-path="url(#pca4bbfb6c7)" style="fill: #664b13"/>
    <path d="M 159.768609 132.542547 
L 168.178213 135.113218 
L 214.032325 93.757885 
L 206.056211 91.560226 
z
" clip-path="url(#pca4bbfb6c7)" style="fill: #051487"/>
    <path d="M 151.304635 121.58789 
L 159.680863 124.108843 
L 206.210732 83.555591 
L 198.262855 81.40069 
z
" clip-path="url(#pca4bbfb6c7)" style="fill: #194a45"/>
    <path d="M 193.509248 174.82001 
L 237.169845 130.746727 
L 237.828286 114.322619 
L 193.715661 157.558165 
z
" clip-path="url(#pca4bbfb6c7)" style="fill: #280509"/>
    <path d="M 134.378701 101.205183 
L 142.67961 103.631226 
L 190.519571 64.606284 
L 182.635862 62.532685 
z
" clip-path="url(#pca4bbfb6c7)" style="fill: #056871"/>
    <path d="M 142.824462 110.475709 
L 151.167944 112.946346 
L 198.37969 73.204969 
L 190.459471 71.093356 
z
" clip-path="url(#pca4bbfb6c7)" style="fill: #b0047c"/>
    <path d="M 168.18893 137.291106 
L 176.666178 139.892751 
L 222.016989 98.048933 
L 213.981844 95.825899 
z
" clip-path="url(#pca4bbfb6c7)" style="fill: #6c8189"/>
    <path d="M 176.661748 146.896248 
L 185.180116 149.543681 
L 229.890548 106.963787 
L 221.820225 104.70167 
z
" clip-path="url(#pca4bbfb6c7)" style="fill: #821895"/>
    <path d="M 185.146784 154.869737 
L 193.715661 157.558165 
L 237.828286 114.322619 
L 229.714375 112.025891 
z
" clip-path="url(#pca4bbfb6c7)" style="fill: #4a0811"/>
    <path d="M 112.220014 148.540403 
L 120.019953 151.062008 
L 117.527927 83.351577 
L 109.392191 81.034262 
z
" clip-path="url(#pca4bbfb6c7)" style="fill: #72d75e"/>
    <path d="M 120.019953 151.062008 
L 127.890359 153.606394 
L 125.899556 90.716386 
L 117.712298 88.361073 
z
" clip-path="url(#pca4bbfb6c7)" style="fill: #811e4a"/>
    <path d="M 127.890359 153.606394 
L 135.832189 156.17387 
L 134.308181 98.538249 
L 126.071348 96.143341 
z
" clip-path="url(#pca4bbfb6c7)" style="fill: #755716"/>
    <path d="M 135.832189 156.17387 
L 143.846421 158.764753 
L 142.67961 103.631226 
L 134.378701 101.205183 
z
" clip-path="url(#pca4bbfb6c7)" style="fill: #067882"/>
    <path d="M 143.846421 158.764753 
L 151.934049 161.379363 
L 151.167944 112.946346 
L 142.824462 110.475709 
z
" clip-path="url(#pca4bbfb6c7)" style="fill: #cb058f"/>
    <path d="M 151.934049 161.379363 
L 160.096086 164.018029 
L 159.680863 124.108843 
L 151.304635 121.58789 
z
" clip-path="url(#pca4bbfb6c7)" style="fill: #1d5550"/>
    <path d="M 160.096086 164.018029 
L 168.333564 166.681084 
L 168.178213 135.113218 
L 159.768609 132.542547 
z
" clip-path="url(#pca4bbfb6c7)" style="fill: #06189c"/>
    <path d="M 168.333564 166.681084 
L 176.647533 169.368867 
L 176.666178 139.892751 
L 168.18893 137.291106 
z
" clip-path="url(#pca4bbfb6c7)" style="fill: #7d959e"/>
    <path d="M 176.647533 169.368867 
L 185.039065 172.081725 
L 185.180116 149.543681 
L 176.661748 146.896248 
z
" clip-path="url(#pca4bbfb6c7)" style="fill: #951bac"/>
    <path d="M 185.039065 172.081725 
L 193.509248 174.82001 
L 193.715661 157.558165 
L 185.146784 154.869737 
z
" clip-path="url(#pca4bbfb6c7)" style="fill: #560a14"/>
   </g>
  </g>
  <g id="patch_6">
   <path d="M 333.785455 192.24 
L 500.105455 192.24 
L 500.105455 25.92 
L 333.785455 25.92 
z
" style="fill: #ffffff"/>
  </g>
  <g id="pane3d_4">
   <g id="patch_7">
    <path d="M 346.343762 151.230818 
L 401.268057 105.192184 
L 400.504557 38.796244 
L 342.951851 80.795588 
" style="fill: #f2f2f2; opacity: 0.5; stroke: #f2f2f2; stroke-linejoin: miter"/>
   </g>
  </g>
  <g id="pane3d_5">
   <g id="patch_8">
    <path d="M 401.268057 105.192184 
L 489.401955 130.809229 
L 492.547143 62.126357 
L 400.504557 38.796244 
" style="fill: #e6e6e6; opacity: 0.5; stroke: #e6e6e6; stroke-linejoin: miter"/>
   </g>
  </g>
  <g id="pane3d_6">
   <g id="patch_9">
    <path d="M 346.343762 151.230818 
L 439.769998 181.743827 
L 489.401955 130.809229 
L 401.268057 105.192184 
" style="fill: #ececec; opacity: 0.5; stroke: #ececec; stroke-linejoin: miter"/>
   </g>
  </g>
  <g id="grid3d_4">
   <g id="Line3DCollection_4">
    <path d="M 352.002145 153.078846 
L 406.628091 106.750135 
L 406.091217 40.2123 
" style="fill: none; stroke: #b0b0b0; stroke-width: 0.8"/>
    <path d="M 371.687307 159.50802 
L 425.252959 112.163648 
L 425.514706 45.135588 
" style="fill: none; stroke: #b0b0b0; stroke-width: 0.8"/>
    <path d="M 391.82538 166.085115 
L 444.270485 117.691292 
L 445.36557 50.167203 
" style="fill: none; stroke: #b0b0b0; stroke-width: 0.8"/>
    <path d="M 412.432177 172.815295 
L 463.693216 123.336713 
L 465.658072 55.310761 
" style="fill: none; stroke: #b0b0b0; stroke-width: 0.8"/>
   </g>
  </g>
  <g id="grid3d_5">
   <g id="Line3DCollection_5">
    <path d="M 346.931763 77.891229 
L 350.12851 148.058367 
L 443.204145 178.219547 
" style="fill: none; stroke: #b0b0b0; stroke-width: 0.8"/>
    <path d="M 360.228233 68.188071 
L 362.787359 137.447469 
L 454.675143 166.44748 
" style="fill: none; stroke: #b0b0b0; stroke-width: 0.8"/>
    <path d="M 373.008442 58.861657 
L 374.975639 127.231011 
L 465.697671 155.135655 
" style="fill: none; stroke: #b0b0b0; stroke-width: 0.8"/>
    <path d="M 385.301883 49.890463 
L 386.719109 117.387401 
L 476.297524 144.257598 
" style="fill: none; stroke: #b0b0b0; stroke-width: 0.8"/>
   </g>
  </g>
  <g id="grid3d_6">
   <g id="Line3DCollection_6">
    <path d="M 489.462213 129.493341 
L 401.253399 103.917475 
L 346.278884 149.883587 
" style="fill: none; stroke: #b0b0b0; stroke-width: 0.8"/>
    <path d="M 490.567871 105.348596 
L 400.984653 80.546607 
L 345.087719 125.148288 
" style="fill: none; stroke: #b0b0b0; stroke-width: 0.8"/>
    <path d="M 491.70888 80.431888 
L 400.707732 56.46487 
L 343.85699 99.591388 
" style="fill: none; stroke: #b0b0b0; stroke-width: 0.8"/>
   </g>
  </g>
  <g id="axis3d_4">
   <g id="line2d_18">
    <path d="M 346.343762 151.230818 
L 439.769998 181.743827 
" style="fill: none; stroke: #000000; stroke-width: 0.8; stroke-linecap: square"/>
   </g>
   <g id="xtick_15">
    <g id="line2d_19">
     <path d="M 352.477824 152.675418 
L 351.048744 153.887433 
" style="fill: none; stroke: #000000; stroke-width: 0.8; stroke-linecap: square"/>
    </g>
    <g id="text_19">
     <!-- 0.005 -->
     <g transform="translate(330.142203 176.423114) scale(0.1 -0.1)">
      <use xlink:href="#DejaVuSans-30"/>
      <use xlink:href="#DejaVuSans-2e" x="63.623047"/>
      <use xlink:href="#DejaVuSans-30" x="95.410156"/>
      <use xlink:href="#DejaVuSans-30" x="159.033203"/>
      <use xlink:href="#DejaVuSans-35" x="222.65625"/>
     </g>
    </g>
   </g>
   <g id="xtick_16">
    <g id="line2d_20">
     <path d="M 372.154185 159.095367 
L 370.751526 160.335117 
" style="fill: none; stroke: #000000; stroke-width: 0.8; stroke-linecap: square"/>
    </g>
    <g id="text_20">
     <!-- 0.01 -->
     <g transform="translate(353.040962 183.071208) scale(0.1 -0.1)">
      <use xlink:href="#DejaVuSans-30"/>
      <use xlink:href="#DejaVuSans-2e" x="63.623047"/>
      <use xlink:href="#DejaVuSans-30" x="95.410156"/>
      <use xlink:href="#DejaVuSans-31" x="159.033203"/>
     </g>
    </g>
   </g>
   <g id="xtick_17">
    <g id="line2d_21">
     <path d="M 392.282923 165.662916 
L 390.908287 166.931365 
" style="fill: none; stroke: #000000; stroke-width: 0.8; stroke-linecap: square"/>
    </g>
    <g id="text_21">
     <!-- 0.05 -->
     <g transform="translate(373.214894 189.873192) scale(0.1 -0.1)">
      <use xlink:href="#DejaVuSans-30"/>
      <use xlink:href="#DejaVuSans-2e" x="63.623047"/>
      <use xlink:href="#DejaVuSans-30" x="95.410156"/>
      <use xlink:href="#DejaVuSans-35" x="159.033203"/>
     </g>
    </g>
   </g>
   <g id="xtick_18">
    <g id="line2d_22">
     <path d="M 412.879822 172.383216 
L 411.534901 173.681371 
" style="fill: none; stroke: #000000; stroke-width: 0.8; stroke-linecap: square"/>
    </g>
    <g id="text_22">
     <!-- 0.1 -->
     <g transform="translate(397.042531 196.834472) scale(0.1 -0.1)">
      <use xlink:href="#DejaVuSans-30"/>
      <use xlink:href="#DejaVuSans-2e" x="63.623047"/>
      <use xlink:href="#DejaVuSans-31" x="95.410156"/>
     </g>
    </g>
   </g>
   <g id="text_23">
    <!-- support -->
    <g transform="translate(356.347383 198.196915) rotate(-341.912962) scale(0.1 -0.1)">
     <use xlink:href="#DejaVuSans-73"/>
     <use xlink:href="#DejaVuSans-75" x="52.099609"/>
     <use xlink:href="#DejaVuSans-70" x="115.478516"/>
     <use xlink:href="#DejaVuSans-70" x="178.955078"/>
     <use xlink:href="#DejaVuSans-6f" x="242.431641"/>
     <use xlink:href="#DejaVuSans-72" x="303.613281"/>
     <use xlink:href="#DejaVuSans-74" x="344.726562"/>
    </g>
   </g>
  </g>
  <g id="axis3d_5">
   <g id="line2d_23">
    <path d="M 489.401955 130.809229 
L 439.769998 181.743827 
" style="fill: none; stroke: #000000; stroke-width: 0.8; stroke-linecap: square"/>
   </g>
   <g id="xtick_19">
    <g id="line2d_24">
     <path d="M 442.419794 177.965378 
L 444.774876 178.728542 
" style="fill: none; stroke: #000000; stroke-width: 0.8; stroke-linecap: square"/>
    </g>
    <g id="text_24">
     <!-- 1000 -->
     <g transform="translate(443.364408 199.246101) scale(0.1 -0.1)">
      <use xlink:href="#DejaVuSans-31"/>
      <use xlink:href="#DejaVuSans-30" x="63.623047"/>
      <use xlink:href="#DejaVuSans-30" x="127.246094"/>
      <use xlink:href="#DejaVuSans-30" x="190.869141"/>
     </g>
    </g>
   </g>
   <g id="xtick_20">
    <g id="line2d_25">
     <path d="M 453.901584 166.203343 
L 456.224222 166.936373 
" style="fill: none; stroke: #000000; stroke-width: 0.8; stroke-linecap: square"/>
    </g>
    <g id="text_25">
     <!-- 2000 -->
     <g transform="translate(454.589036 187.194999) scale(0.1 -0.1)">
      <use xlink:href="#DejaVuSans-32"/>
      <use xlink:href="#DejaVuSans-30" x="63.623047"/>
      <use xlink:href="#DejaVuSans-30" x="127.246094"/>
      <use xlink:href="#DejaVuSans-30" x="190.869141"/>
     </g>
    </g>
   </g>
   <g id="xtick_21">
    <g id="line2d_26">
     <path d="M 464.934668 154.900968 
L 467.225574 155.605614 
" style="fill: none; stroke: #000000; stroke-width: 0.8; stroke-linecap: square"/>
    </g>
    <g id="text_26">
     <!-- 5000 -->
     <g transform="translate(465.374422 175.615482) scale(0.1 -0.1)">
      <use xlink:href="#DejaVuSans-35"/>
      <use xlink:href="#DejaVuSans-30" x="63.623047"/>
      <use xlink:href="#DejaVuSans-30" x="127.246094"/>
      <use xlink:href="#DejaVuSans-30" x="190.869141"/>
     </g>
    </g>
   </g>
   <g id="xtick_22">
    <g id="line2d_27">
     <path d="M 475.544844 144.031822 
L 477.80472 144.709701 
" style="fill: none; stroke: #000000; stroke-width: 0.8; stroke-linecap: square"/>
    </g>
    <g id="text_27">
     <!-- 10000 -->
     <g transform="translate(472.564602 164.4804) scale(0.1 -0.1)">
      <use xlink:href="#DejaVuSans-31"/>
      <use xlink:href="#DejaVuSans-30" x="63.623047"/>
      <use xlink:href="#DejaVuSans-30" x="127.246094"/>
      <use xlink:href="#DejaVuSans-30" x="190.869141"/>
      <use xlink:href="#DejaVuSans-30" x="254.492188"/>
     </g>
    </g>
   </g>
   <g id="text_28">
    <!-- window -->
    <g transform="translate(481.424826 198.680808) rotate(-45.742112) scale(0.1 -0.1)">
     <use xlink:href="#DejaVuSans-77"/>
     <use xlink:href="#DejaVuSans-69" x="81.787109"/>
     <use xlink:href="#DejaVuSans-6e" x="109.570312"/>
     <use xlink:href="#DejaVuSans-64" x="172.949219"/>
     <use xlink:href="#DejaVuSans-6f" x="236.425781"/>
     <use xlink:href="#DejaVuSans-77" x="297.607422"/>
    </g>
   </g>
  </g>
  <g id="axis3d_6">
   <g id="line2d_28">
    <path d="M 489.401955 130.809229 
L 492.547143 62.126357 
" style="fill: none; stroke: #000000; stroke-width: 0.8; stroke-linecap: square"/>
   </g>
   <g id="xtick_23">
    <g id="line2d_29">
     <path d="M 488.721869 129.27868 
L 490.944665 129.923173 
" style="fill: none; stroke: #000000; stroke-width: 0.8; stroke-linecap: square"/>
    </g>
    <g id="text_29">
     <!-- $10^{0.0}$ -->
     <g transform="translate(495.543354 134.495544) scale(0.1 -0.1)">
      <use xlink:href="#DejaVuSans-31" transform="translate(0 0.765625)"/>
      <use xlink:href="#DejaVuSans-30" transform="translate(63.623047 0.765625)"/>
      <use xlink:href="#DejaVuSans-30" transform="translate(128.203125 39.046875) scale(0.7)"/>
      <use xlink:href="#DejaVuSans-2e" transform="translate(172.739258 39.046875) scale(0.7)"/>
      <use xlink:href="#DejaVuSans-30" transform="translate(194.990234 39.046875) scale(0.7)"/>
     </g>
    </g>
   </g>
   <g id="xtick_24">
    <g id="line2d_30">
     <path d="M 489.815437 105.140277 
L 492.074559 105.765737 
" style="fill: none; stroke: #000000; stroke-width: 0.8; stroke-linecap: square"/>
    </g>
    <g id="text_30">
     <!-- $10^{1.0}$ -->
     <g transform="translate(496.929093 110.427676) scale(0.1 -0.1)">
      <use xlink:href="#DejaVuSans-31" transform="translate(0 0.765625)"/>
      <use xlink:href="#DejaVuSans-30" transform="translate(63.623047 0.765625)"/>
      <use xlink:href="#DejaVuSans-31" transform="translate(128.203125 39.046875) scale(0.7)"/>
      <use xlink:href="#DejaVuSans-2e" transform="translate(172.739258 39.046875) scale(0.7)"/>
      <use xlink:href="#DejaVuSans-30" transform="translate(194.990234 39.046875) scale(0.7)"/>
     </g>
    </g>
   </g>
   <g id="xtick_25">
    <g id="line2d_31">
     <path d="M 490.943955 80.23043 
L 493.240607 80.8353 
" style="fill: none; stroke: #000000; stroke-width: 0.8; stroke-linecap: square"/>
    </g>
    <g id="text_31">
     <!-- $10^{2.0}$ -->
     <g transform="translate(498.358919 85.594108) scale(0.1 -0.1)">
      <use xlink:href="#DejaVuSans-31" transform="translate(0 0.765625)"/>
      <use xlink:href="#DejaVuSans-30" transform="translate(63.623047 0.765625)"/>
      <use xlink:href="#DejaVuSans-32" transform="translate(128.203125 39.046875) scale(0.7)"/>
      <use xlink:href="#DejaVuSans-2e" transform="translate(172.739258 39.046875) scale(0.7)"/>
      <use xlink:href="#DejaVuSans-30" transform="translate(194.990234 39.046875) scale(0.7)"/>
     </g>
    </g>
   </g>
   <g id="text_32">
    <!-- elapsed -->
    <g transform="translate(533.017511 111.497396) rotate(-87.378092) scale(0.1 -0.1)">
     <use xlink:href="#DejaVuSans-65"/>
     <use xlink:href="#DejaVuSans-6c" x="61.523438"/>
     <use xlink:href="#DejaVuSans-61" x="89.306641"/>
     <use xlink:href="#DejaVuSans-70" x="150.585938"/>
     <use xlink:href="#DejaVuSans-73" x="214.0625"/>
     <use xlink:href="#DejaVuSans-65" x="266.162109"/>
     <use xlink:href="#DejaVuSans-64" x="327.685547"/>
    </g>
   </g>
  </g>
  <g id="axes_2">
   <g id="Poly3DCollection_3">
    <path d="M 392.138327 117.722579 
L 411.069525 123.387442 
L 422.112377 113.650996 
L 403.407048 108.189167 
z
" clip-path="url(#p48a47cb686)" style="fill: #c30000"/>
    <path d="M 411.069525 123.387442 
L 430.409828 129.174723 
L 441.214505 119.228689 
L 422.112377 113.650996 
z
" clip-path="url(#p48a47cb686)" style="fill: #c30000"/>
    <path d="M 380.449037 127.611795 
L 399.610045 133.491226 
L 411.069525 123.387442 
L 392.138327 117.722579 
z
" clip-path="url(#p48a47cb686)" style="fill: #c30000"/>
    <path d="M 430.409828 129.174723 
L 450.172644 135.088434 
L 460.726192 124.925969 
L 441.214505 119.228689 
z
" clip-path="url(#p48a47cb686)" style="fill: #c30000"/>
    <path d="M 399.610045 133.491226 
L 419.193022 139.500135 
L 430.409828 129.174723 
L 411.069525 123.387442 
z
" clip-path="url(#p48a47cb686)" style="fill: #c30000"/>
    <path d="M 450.172644 135.088434 
L 470.371968 141.132763 
L 480.660754 130.746727 
L 460.726192 124.925969 
z
" clip-path="url(#p48a47cb686)" style="fill: #c30000"/>
    <path d="M 368.315187 137.877112 
L 387.709907 143.983537 
L 399.610045 133.491226 
L 380.449037 127.611795 
z
" clip-path="url(#p48a47cb686)" style="fill: #c30000"/>
    <path d="M 419.193022 139.500135 
L 439.212062 145.642847 
L 450.172644 135.088434 
L 430.409828 129.174723 
z
" clip-path="url(#p48a47cb686)" style="fill: #c30000"/>
    <path d="M 387.709907 143.983537 
L 407.540047 150.227054 
L 419.193022 139.500135 
L 399.610045 133.491226 
z
" clip-path="url(#p48a47cb686)" style="fill: #c30000"/>
    <path d="M 439.212062 145.642847 
L 459.681894 151.923882 
L 470.371968 141.132763 
L 450.172644 135.088434 
z
" clip-path="url(#p48a47cb686)" style="fill: #c30000"/>
    <path d="M 355.710923 148.540403 
L 375.343194 154.887226 
L 387.709907 143.983537 
L 368.315187 137.877112 
z
" clip-path="url(#p48a47cb686)" style="fill: #c30000"/>
    <path d="M 407.540047 150.227054 
L 427.820437 156.612332 
L 439.212062 145.642847 
L 419.193022 139.500135 
z
" clip-path="url(#p48a47cb686)" style="fill: #c30000"/>
    <path d="M 375.343194 154.887226 
L 395.424958 161.379363 
L 407.540047 150.227054 
L 387.709907 143.983537 
z
" clip-path="url(#p48a47cb686)" style="fill: #c30000"/>
    <path d="M 427.820437 156.612332 
L 448.566586 163.144254 
L 459.681894 151.923882 
L 439.212062 145.642847 
z
" clip-path="url(#p48a47cb686)" style="fill: #c30000"/>
    <path d="M 395.424958 161.379363 
L 415.97183 168.021863 
L 427.820437 156.612332 
L 407.540047 150.227054 
z
" clip-path="url(#p48a47cb686)" style="fill: #c30000"/>
    <path d="M 415.97183 168.021863 
L 437.000157 174.82001 
L 448.566586 163.144254 
L 427.820437 156.612332 
z
" clip-path="url(#p48a47cb686)" style="fill: #c30000"/>
   </g>
   <g id="text_33">
    <!-- graph -->
    <g transform="translate(399.381392 19.92) scale(0.12 -0.12)">
     <defs>
      <path id="DejaVuSans-67" d="M 2906 1791 
Q 2906 2416 2648 2759 
Q 2391 3103 1925 3103 
Q 1463 3103 1205 2759 
Q 947 2416 947 1791 
Q 947 1169 1205 825 
Q 1463 481 1925 481 
Q 2391 481 2648 825 
Q 2906 1169 2906 1791 
z
M 3481 434 
Q 3481 -459 3084 -895 
Q 2688 -1331 1869 -1331 
Q 1566 -1331 1297 -1286 
Q 1028 -1241 775 -1147 
L 775 -588 
Q 1028 -725 1275 -790 
Q 1522 -856 1778 -856 
Q 2344 -856 2625 -561 
Q 2906 -266 2906 331 
L 2906 616 
Q 2728 306 2450 153 
Q 2172 0 1784 0 
Q 1141 0 747 490 
Q 353 981 353 1791 
Q 353 2603 747 3093 
Q 1141 3584 1784 3584 
Q 2172 3584 2450 3431 
Q 2728 3278 2906 2969 
L 2906 3500 
L 3481 3500 
L 3481 434 
z
" transform="scale(0.015625)"/>
      <path id="DejaVuSans-68" d="M 3513 2113 
L 3513 0 
L 2938 0 
L 2938 2094 
Q 2938 2591 2744 2837 
Q 2550 3084 2163 3084 
Q 1697 3084 1428 2787 
Q 1159 2491 1159 1978 
L 1159 0 
L 581 0 
L 581 4863 
L 1159 4863 
L 1159 2956 
Q 1366 3272 1645 3428 
Q 1925 3584 2291 3584 
Q 2894 3584 3203 3211 
Q 3513 2838 3513 2113 
z
" transform="scale(0.015625)"/>
     </defs>
     <use xlink:href="#DejaVuSans-67"/>
     <use xlink:href="#DejaVuSans-72" x="63.476562"/>
     <use xlink:href="#DejaVuSans-61" x="104.589844"/>
     <use xlink:href="#DejaVuSans-70" x="165.869141"/>
     <use xlink:href="#DejaVuSans-68" x="229.345703"/>
    </g>
   </g>
   <g id="Poly3DCollection_4">
    <path d="M 392.138327 117.722579 
L 403.407048 108.189167 
L 422.112377 113.650996 
L 411.069525 123.387442 
z
" clip-path="url(#p48a47cb686)" style="fill: #167261"/>
    <path d="M 411.069525 123.387442 
L 422.112377 113.650996 
L 441.214505 119.228689 
L 430.409828 129.174723 
z
" clip-path="url(#p48a47cb686)" style="fill: #31514d"/>
    <path d="M 403.407048 108.189167 
L 402.756543 44.078016 
L 422.233992 49.066484 
L 422.112377 113.650996 
z
" clip-path="url(#p48a47cb686)" style="fill: #11594c"/>
    <path d="M 392.138327 117.722579 
L 391.002183 52.788003 
L 402.756543 44.078016 
L 403.407048 108.189167 
z
" clip-path="url(#p48a47cb686)" style="fill: #25bda1"/>
    <path d="M 422.112377 113.650996 
L 422.204008 64.990011 
L 441.913263 70.212185 
L 441.214505 119.228689 
z
" clip-path="url(#p48a47cb686)" style="fill: #263f3c"/>
    <path d="M 411.069525 123.387442 
L 410.809679 74.108126 
L 422.204008 64.990011 
L 422.112377 113.650996 
z
" clip-path="url(#p48a47cb686)" style="fill: #51867f"/>
    <path d="M 441.214505 119.228689 
L 441.620811 90.727063 
L 461.500867 96.219365 
L 460.726192 124.925969 
z
" clip-path="url(#p48a47cb686)" style="fill: #5b6a1f"/>
    <path d="M 430.409828 129.174723 
L 441.214505 119.228689 
L 460.726192 124.925969 
L 450.172644 135.088434 
z
" clip-path="url(#p48a47cb686)" style="fill: #758828"/>
    <path d="M 430.409828 129.174723 
L 430.62073 100.31667 
L 441.620811 90.727063 
L 441.214505 119.228689 
z
" clip-path="url(#p48a47cb686)" style="fill: #c1e142"/>
    <path d="M 411.069525 123.387442 
L 422.112377 113.650996 
L 422.233992 49.066484 
L 410.724583 57.969813 
z
" clip-path="url(#p48a47cb686)" style="fill: #11594c"/>
    <path d="M 399.610045 133.491226 
L 411.069525 123.387442 
L 430.409828 129.174723 
L 419.193022 139.500135 
z
" clip-path="url(#p48a47cb686)" style="fill: #693e05"/>
    <path d="M 392.138327 117.722579 
L 411.069525 123.387442 
L 410.724583 57.969813 
L 391.002183 52.788003 
z
" clip-path="url(#p48a47cb686)" style="fill: #25bda1"/>
    <path d="M 460.726192 124.925969 
L 461.479941 96.994807 
L 481.788587 102.614138 
L 480.660754 130.746727 
z
" clip-path="url(#p48a47cb686)" style="fill: #1d1c52"/>
    <path d="M 430.409828 129.174723 
L 441.214505 119.228689 
L 441.913263 70.212185 
L 430.772622 79.532901 
z
" clip-path="url(#p48a47cb686)" style="fill: #263f3c"/>
    <path d="M 450.172644 135.088434 
L 460.726192 124.925969 
L 480.660754 130.746727 
L 470.371968 141.132763 
z
" clip-path="url(#p48a47cb686)" style="fill: #262469"/>
    <path d="M 411.069525 123.387442 
L 430.409828 129.174723 
L 430.772622 79.532901 
L 410.809679 74.108126 
z
" clip-path="url(#p48a47cb686)" style="fill: #51867f"/>
    <path d="M 450.172644 135.088434 
L 450.745699 106.807041 
L 461.479941 96.994807 
L 460.726192 124.925969 
z
" clip-path="url(#p48a47cb686)" style="fill: #3e3bae"/>
    <path d="M 450.172644 135.088434 
L 460.726192 124.925969 
L 461.500867 96.219365 
L 450.761614 106.021598 
z
" clip-path="url(#p48a47cb686)" style="fill: #5b6a1f"/>
    <path d="M 411.069525 123.387442 
L 410.743934 61.639704 
L 430.864455 66.967318 
L 430.409828 129.174723 
z
" clip-path="url(#p48a47cb686)" style="fill: #523004"/>
    <path d="M 430.62073 100.31667 
L 450.761614 106.021598 
L 461.500867 96.219365 
L 441.620811 90.727063 
z
" clip-path="url(#p48a47cb686)" style="fill: #a8c339"/>
    <path d="M 430.409828 129.174723 
L 450.172644 135.088434 
L 450.761614 106.021598 
L 430.62073 100.31667 
z
" clip-path="url(#p48a47cb686)" style="fill: #c1e142"/>
    <path d="M 419.193022 139.500135 
L 430.409828 129.174723 
L 450.172644 135.088434 
L 439.212062 145.642847 
z
" clip-path="url(#p48a47cb686)" style="fill: #47124b"/>
    <path d="M 391.002183 52.788003 
L 410.724583 57.969813 
L 422.233992 49.066484 
L 402.756543 44.078016 
z
" clip-path="url(#p48a47cb686)" style="fill: #20a48b"/>
    <path d="M 430.409828 129.174723 
L 430.649664 96.357604 
L 450.842434 102.032957 
L 450.172644 135.088434 
z
" clip-path="url(#p48a47cb686)" style="fill: #380e3b"/>
    <path d="M 410.809679 74.108126 
L 430.772622 79.532901 
L 441.913263 70.212185 
L 422.204008 64.990011 
z
" clip-path="url(#p48a47cb686)" style="fill: #46746f"/>
    <path d="M 399.610045 133.491226 
L 398.809745 70.943981 
L 410.743934 61.639704 
L 411.069525 123.387442 
z
" clip-path="url(#p48a47cb686)" style="fill: #ae6608"/>
    <path d="M 419.193022 139.500135 
L 419.193022 106.268568 
L 430.649664 96.357604 
L 430.409828 129.174723 
z
" clip-path="url(#p48a47cb686)" style="fill: #761e7d"/>
    <path d="M 470.371968 141.132763 
L 480.660754 130.746727 
L 481.788587 102.614138 
L 471.329318 112.646261 
z
" clip-path="url(#p48a47cb686)" style="fill: #1d1c52"/>
    <path d="M 450.745699 106.807041 
L 471.329318 112.646261 
L 481.788587 102.614138 
L 461.479941 96.994807 
z
" clip-path="url(#p48a47cb686)" style="fill: #363397"/>
    <path d="M 450.172644 135.088434 
L 470.371968 141.132763 
L 471.329318 112.646261 
L 450.745699 106.807041 
z
" clip-path="url(#p48a47cb686)" style="fill: #3e3bae"/>
    <path d="M 450.172644 135.088434 
L 450.766409 105.784946 
L 471.363924 111.616536 
L 470.371968 141.132763 
z
" clip-path="url(#p48a47cb686)" style="fill: #49510c"/>
    <path d="M 439.212062 145.642847 
L 450.172644 135.088434 
L 470.371968 141.132763 
L 459.681894 151.923882 
z
" clip-path="url(#p48a47cb686)" style="fill: #5e680f"/>
    <path d="M 419.193022 139.500135 
L 430.409828 129.174723 
L 430.864455 66.967318 
L 419.193022 76.484089 
z
" clip-path="url(#p48a47cb686)" style="fill: #523004"/>
    <path d="M 439.212062 145.642847 
L 439.603297 115.969489 
L 450.766409 105.784946 
L 450.172644 135.088434 
z
" clip-path="url(#p48a47cb686)" style="fill: #9cac19"/>
    <path d="M 439.212062 145.642847 
L 450.172644 135.088434 
L 450.842434 102.032957 
L 439.653412 112.168558 
z
" clip-path="url(#p48a47cb686)" style="fill: #380e3b"/>
    <path d="M 399.610045 133.491226 
L 419.193022 139.500135 
L 419.193022 76.484089 
L 398.809745 70.943981 
z
" clip-path="url(#p48a47cb686)" style="fill: #ae6608"/>
    <path d="M 407.540047 150.227054 
L 419.193022 139.500135 
L 439.212062 145.642847 
L 427.820437 156.612332 
z
" clip-path="url(#p48a47cb686)" style="fill: #3e4d32"/>
    <path d="M 419.193022 139.500135 
L 439.212062 145.642847 
L 439.653412 112.168558 
L 419.193022 106.268568 
z
" clip-path="url(#p48a47cb686)" style="fill: #761e7d"/>
    <path d="M 419.193022 106.268568 
L 439.653412 112.168558 
L 450.842434 102.032957 
L 430.649664 96.357604 
z
" clip-path="url(#p48a47cb686)" style="fill: #671a6c"/>
    <path d="M 419.193022 139.500135 
L 419.193022 99.354143 
L 439.745269 105.201587 
L 439.212062 145.642847 
z
" clip-path="url(#p48a47cb686)" style="fill: #313c27"/>
    <path d="M 459.681894 151.923882 
L 470.371968 141.132763 
L 471.363924 111.616536 
L 460.48226 122.033986 
z
" clip-path="url(#p48a47cb686)" style="fill: #49510c"/>
    <path d="M 407.540047 150.227054 
L 407.227051 109.567675 
L 419.193022 99.354143 
L 419.193022 139.500135 
z
" clip-path="url(#p48a47cb686)" style="fill: #677f53"/>
    <path d="M 398.809745 70.943981 
L 419.193022 76.484089 
L 430.864455 66.967318 
L 410.743934 61.639704 
z
" clip-path="url(#p48a47cb686)" style="fill: #975907"/>
    <path d="M 439.603297 115.969489 
L 460.48226 122.033986 
L 471.363924 111.616536 
L 450.766409 105.784946 
z
" clip-path="url(#p48a47cb686)" style="fill: #879515"/>
    <path d="M 439.212062 145.642847 
L 459.681894 151.923882 
L 460.48226 122.033986 
L 439.603297 115.969489 
z
" clip-path="url(#p48a47cb686)" style="fill: #9cac19"/>
    <path d="M 427.820437 156.612332 
L 439.212062 145.642847 
L 459.681894 151.923882 
L 448.566586 163.144254 
z
" clip-path="url(#p48a47cb686)" style="fill: #7e296c"/>
    <path d="M 439.212062 145.642847 
L 439.643097 112.950899 
L 460.563698 118.99263 
L 459.681894 151.923882 
z
" clip-path="url(#p48a47cb686)" style="fill: #632054"/>
    <path d="M 427.820437 156.612332 
L 428.009928 123.504363 
L 439.643097 112.950899 
L 439.212062 145.642847 
z
" clip-path="url(#p48a47cb686)" style="fill: #d144b2"/>
    <path d="M 427.820437 156.612332 
L 439.212062 145.642847 
L 439.745269 105.201587 
L 428.054869 115.652325 
z
" clip-path="url(#p48a47cb686)" style="fill: #313c27"/>
    <path d="M 395.424958 161.379363 
L 407.540047 150.227054 
L 427.820437 156.612332 
L 415.97183 168.021863 
z
" clip-path="url(#p48a47cb686)" style="fill: #00273e"/>
    <path d="M 407.540047 150.227054 
L 427.820437 156.612332 
L 428.054869 115.652325 
L 407.227051 109.567675 
z
" clip-path="url(#p48a47cb686)" style="fill: #677f53"/>
    <path d="M 407.540047 150.227054 
L 407.152795 99.92152 
L 428.110507 105.931181 
L 427.820437 156.612332 
z
" clip-path="url(#p48a47cb686)" style="fill: #001e30"/>
    <path d="M 407.227051 109.567675 
L 428.054869 115.652325 
L 439.745269 105.201587 
L 419.193022 99.354143 
z
" clip-path="url(#p48a47cb686)" style="fill: #596e48"/>
    <path d="M 448.566586 163.144254 
L 459.681894 151.923882 
L 460.563698 118.99263 
L 449.219317 129.792808 
z
" clip-path="url(#p48a47cb686)" style="fill: #632054"/>
    <path d="M 395.424958 161.379363 
L 394.618904 110.420747 
L 407.152795 99.92152 
L 407.540047 150.227054 
z
" clip-path="url(#p48a47cb686)" style="fill: #014166"/>
    <path d="M 415.97183 168.021863 
L 427.820437 156.612332 
L 448.566586 163.144254 
L 437.000157 174.82001 
z
" clip-path="url(#p48a47cb686)" style="fill: #163f61"/>
    <path d="M 427.820437 156.612332 
L 448.566586 163.144254 
L 449.219317 129.792808 
L 428.009928 123.504363 
z
" clip-path="url(#p48a47cb686)" style="fill: #d144b2"/>
    <path d="M 428.009928 123.504363 
L 449.219317 129.792808 
L 460.563698 118.99263 
L 439.643097 112.950899 
z
" clip-path="url(#p48a47cb686)" style="fill: #b53b9b"/>
    <path d="M 427.820437 156.612332 
L 428.038142 118.574926 
L 449.31653 124.825681 
L 448.566586 163.144254 
z
" clip-path="url(#p48a47cb686)" style="fill: #11314c"/>
    <path d="M 415.97183 168.021863 
L 415.888873 129.495696 
L 428.038142 118.574926 
L 427.820437 156.612332 
z
" clip-path="url(#p48a47cb686)" style="fill: #2468a0"/>
    <path d="M 415.97183 168.021863 
L 427.820437 156.612332 
L 428.110507 105.931181 
L 415.86128 116.680843 
z
" clip-path="url(#p48a47cb686)" style="fill: #001e30"/>
    <path d="M 395.424958 161.379363 
L 415.97183 168.021863 
L 415.86128 116.680843 
L 394.618904 110.420747 
z
" clip-path="url(#p48a47cb686)" style="fill: #014166"/>
    <path d="M 437.000157 174.82001 
L 448.566586 163.144254 
L 449.31653 124.825681 
L 437.464263 136.007885 
z
" clip-path="url(#p48a47cb686)" style="fill: #11314c"/>
    <path d="M 394.618904 110.420747 
L 415.86128 116.680843 
L 428.110507 105.931181 
L 407.152795 99.92152 
z
" clip-path="url(#p48a47cb686)" style="fill: #013859"/>
    <path d="M 415.97183 168.021863 
L 437.000157 174.82001 
L 437.464263 136.007885 
L 415.888873 129.495696 
z
" clip-path="url(#p48a47cb686)" style="fill: #2468a0"/>
    <path d="M 415.888873 129.495696 
L 437.464263 136.007885 
L 449.31653 124.825681 
L 428.038142 118.574926 
z
" clip-path="url(#p48a47cb686)" style="fill: #1f5a8b"/>
   </g>
  </g>
 </g>
 <defs>
  <clipPath id="pca4bbfb6c7">
   <rect x="90.294545" y="25.92" width="166.32" height="166.32"/>
  </clipPath>
  <clipPath id="p48a47cb686">
   <rect x="333.785455" y="25.92" width="166.32" height="166.32"/>
  </clipPath>
 </defs>
</svg>
