<?xml version="1.0" encoding="utf-8" standalone="no"?>
<!DOCTYPE svg PUBLIC "-//W3C//DTD SVG 1.1//EN"
  "http://www.w3.org/Graphics/SVG/1.1/DTD/svg11.dtd">
<svg xmlns:xlink="http://www.w3.org/1999/xlink" width="576pt" height="216pt" viewBox="0 0 576 216" xmlns="http://www.w3.org/2000/svg" version="1.1">
 <metadata>
  <rdf:RDF xmlns:dc="http://purl.org/dc/elements/1.1/" xmlns:cc="http://creativecommons.org/ns#" xmlns:rdf="http://www.w3.org/1999/02/22-rdf-syntax-ns#">
   <cc:Work>
    <dc:type rdf:resource="http://purl.org/dc/dcmitype/StillImage"/>
    <dc:date>2025-08-10T12:53:17.137903</dc:date>
    <dc:format>image/svg+xml</dc:format>
    <dc:creator>
     <cc:Agent>
      <dc:title>Matplotlib v3.9.0, https://matplotlib.org/</dc:title>
     </cc:Agent>
    </dc:creator>
   </cc:Work>
  </rdf:RDF>
 </metadata>
 <defs>
  <style type="text/css">*{stroke-linejoin: round; stroke-linecap: butt}</style>
 </defs>
 <g id="figure_1">
  <g id="patch_1">
   <path d="M 0 216 
L 576 216 
L 576 0 
L 0 0 
z
" style="fill: #ffffff"/>
  </g>
  <g id="patch_2">
   <path d="M 72 174.727059 
L 203.294118 174.727059 
L 203.294118 43.432941 
L 72 43.432941 
z
" style="fill: #ffffff"/>
  </g>
  <g id="pane3d_1">
   <g id="patch_3">
    <path d="M 81.913611 142.354137 
L 125.271217 106.010932 
L 124.668505 53.597534 
L 79.236014 86.752097 
" style="fill: #f2f2f2; opacity: 0.5; stroke: #f2f2f2; stroke-linejoin: miter"/>
   </g>
  </g>
  <g id="pane3d_2">
   <g id="patch_4">
    <path d="M 125.271217 106.010932 
L 194.844704 126.233198 
L 197.327536 72.014481 
L 124.668505 53.597534 
" style="fill: #e6e6e6; opacity: 0.5; stroke: #e6e6e6; stroke-linejoin: miter"/>
   </g>
  </g>
  <g id="pane3d_3">
   <g id="patch_5">
    <path d="M 81.913611 142.354137 
L 155.664905 166.44131 
L 194.844704 126.233198 
L 125.271217 106.010932 
" style="fill: #ececec; opacity: 0.5; stroke: #ececec; stroke-linejoin: miter"/>
   </g>
  </g>
  <g id="grid3d_1">
   <g id="Line3DCollection_1">
    <path d="M 86.380377 143.812983 
L 129.502463 107.240789 
L 129.078651 54.715378 
" style="fill: none; stroke: #b0b0b0; stroke-width: 0.8"/>
    <path d="M 92.554088 145.829317 
L 135.346922 108.939542 
L 135.17208 56.259884 
" style="fill: none; stroke: #b0b0b0; stroke-width: 0.8"/>
    <path d="M 98.783843 147.863955 
L 141.240052 110.652442 
L 141.318438 57.817807 
" style="fill: none; stroke: #b0b0b0; stroke-width: 0.8"/>
    <path d="M 105.070407 149.917147 
L 147.182463 112.379666 
L 147.518421 59.389322 
" style="fill: none; stroke: #b0b0b0; stroke-width: 0.8"/>
    <path d="M 111.414563 151.989148 
L 153.174775 114.121395 
L 153.772732 60.974607 
" style="fill: none; stroke: #b0b0b0; stroke-width: 0.8"/>
    <path d="M 117.817105 154.080218 
L 159.21762 115.877812 
L 160.082088 62.573845 
" style="fill: none; stroke: #b0b0b0; stroke-width: 0.8"/>
    <path d="M 124.278842 156.190621 
L 165.31164 117.649103 
L 166.447219 64.187221 
" style="fill: none; stroke: #b0b0b0; stroke-width: 0.8"/>
    <path d="M 130.800599 158.320627 
L 171.457487 119.435458 
L 172.868869 65.814922 
" style="fill: none; stroke: #b0b0b0; stroke-width: 0.8"/>
    <path d="M 137.383217 160.47051 
L 177.655827 121.23707 
L 179.347794 67.45714 
" style="fill: none; stroke: #b0b0b0; stroke-width: 0.8"/>
    <path d="M 144.027552 162.64055 
L 183.907333 123.054136 
L 185.884762 69.114071 
" style="fill: none; stroke: #b0b0b0; stroke-width: 0.8"/>
   </g>
  </g>
  <g id="grid3d_2">
   <g id="Line3DCollection_2">
    <path d="M 82.377783 84.459376 
L 84.901317 139.849783 
L 158.375844 163.659219 
" style="fill: none; stroke: #b0b0b0; stroke-width: 0.8"/>
   </g>
  </g>
  <g id="grid3d_3">
   <g id="Line3DCollection_3">
    <path d="M 194.892272 125.194428 
L 125.259646 105.004668 
L 81.862396 141.290624 
" style="fill: none; stroke: #b0b0b0; stroke-width: 0.8"/>
    <path d="M 195.82506 104.824714 
L 125.032929 85.288841 
L 80.85743 120.421839 
" style="fill: none; stroke: #b0b0b0; stroke-width: 0.8"/>
    <path d="M 196.789756 83.758218 
L 124.798836 64.931476 
L 79.816746 98.811376 
" style="fill: none; stroke: #b0b0b0; stroke-width: 0.8"/>
   </g>
  </g>
  <g id="axis3d_1">
   <g id="line2d_1">
    <path d="M 81.913611 142.354137 
L 155.664905 166.44131 
" style="fill: none; stroke: #000000; stroke-width: 0.8; stroke-linecap: square"/>
   </g>
   <g id="xtick_1">
    <g id="line2d_2">
     <path d="M 86.755881 143.494514 
L 85.627756 144.451286 
" style="fill: none; stroke: #000000; stroke-width: 0.8; stroke-linecap: square"/>
    </g>
    <g id="text_1">
     <!-- 5 -->
     <g transform="translate(75.641228 167.18233) scale(0.1 -0.1)">
      <defs>
       <path id="DejaVuSans-35" d="M 691 4666 
L 3169 4666 
L 3169 4134 
L 1269 4134 
L 1269 2991 
Q 1406 3038 1543 3061 
Q 1681 3084 1819 3084 
Q 2600 3084 3056 2656 
Q 3513 2228 3513 1497 
Q 3513 744 3044 326 
Q 2575 -91 1722 -91 
Q 1428 -91 1123 -41 
Q 819 9 494 109 
L 494 744 
Q 775 591 1075 516 
Q 1375 441 1709 441 
Q 2250 441 2565 725 
Q 2881 1009 2881 1497 
Q 2881 1984 2565 2268 
Q 2250 2553 1709 2553 
Q 1456 2553 1204 2497 
Q 953 2441 691 2322 
L 691 4666 
z
" transform="scale(0.015625)"/>
      </defs>
      <use xlink:href="#DejaVuSans-35"/>
     </g>
    </g>
   </g>
   <g id="xtick_2">
    <g id="line2d_3">
     <path d="M 92.926862 145.507965 
L 91.806932 146.473406 
" style="fill: none; stroke: #000000; stroke-width: 0.8; stroke-linecap: square"/>
    </g>
    <g id="text_2">
     <!-- 10 -->
     <g transform="translate(78.646186 169.285783) scale(0.1 -0.1)">
      <defs>
       <path id="DejaVuSans-31" d="M 794 531 
L 1825 531 
L 1825 4091 
L 703 3866 
L 703 4441 
L 1819 4666 
L 2450 4666 
L 2450 531 
L 3481 531 
L 3481 0 
L 794 0 
L 794 531 
z
" transform="scale(0.015625)"/>
       <path id="DejaVuSans-30" d="M 2034 4250 
Q 1547 4250 1301 3770 
Q 1056 3291 1056 2328 
Q 1056 1369 1301 889 
Q 1547 409 2034 409 
Q 2525 409 2770 889 
Q 3016 1369 3016 2328 
Q 3016 3291 2770 3770 
Q 2525 4250 2034 4250 
z
M 2034 4750 
Q 2819 4750 3233 4129 
Q 3647 3509 3647 2328 
Q 3647 1150 3233 529 
Q 2819 -91 2034 -91 
Q 1250 -91 836 529 
Q 422 1150 422 2328 
Q 422 3509 836 4129 
Q 1250 4750 2034 4750 
z
" transform="scale(0.015625)"/>
      </defs>
      <use xlink:href="#DejaVuSans-31"/>
      <use xlink:href="#DejaVuSans-30" x="63.623047"/>
     </g>
    </g>
   </g>
   <g id="xtick_3">
    <g id="line2d_4">
     <path d="M 99.153821 147.53968 
L 98.042283 148.513908 
" style="fill: none; stroke: #000000; stroke-width: 0.8; stroke-linecap: square"/>
    </g>
    <g id="text_3">
     <!-- 20 -->
     <g transform="translate(84.888979 171.408477) scale(0.1 -0.1)">
      <defs>
       <path id="DejaVuSans-32" d="M 1228 531 
L 3431 531 
L 3431 0 
L 469 0 
L 469 531 
Q 828 903 1448 1529 
Q 2069 2156 2228 2338 
Q 2531 2678 2651 2914 
Q 2772 3150 2772 3378 
Q 2772 3750 2511 3984 
Q 2250 4219 1831 4219 
Q 1534 4219 1204 4116 
Q 875 4013 500 3803 
L 500 4441 
Q 881 4594 1212 4672 
Q 1544 4750 1819 4750 
Q 2544 4750 2975 4387 
Q 3406 4025 3406 3419 
Q 3406 3131 3298 2873 
Q 3191 2616 2906 2266 
Q 2828 2175 2409 1742 
Q 1991 1309 1228 531 
z
" transform="scale(0.015625)"/>
      </defs>
      <use xlink:href="#DejaVuSans-32"/>
      <use xlink:href="#DejaVuSans-30" x="63.623047"/>
     </g>
    </g>
   </g>
   <g id="xtick_4">
    <g id="line2d_5">
     <path d="M 105.437524 149.589909 
L 104.334577 150.573045 
" style="fill: none; stroke: #000000; stroke-width: 0.8; stroke-linecap: square"/>
    </g>
    <g id="text_4">
     <!-- 25 -->
     <g transform="translate(91.189138 173.550677) scale(0.1 -0.1)">
      <use xlink:href="#DejaVuSans-32"/>
      <use xlink:href="#DejaVuSans-35" x="63.623047"/>
     </g>
    </g>
   </g>
   <g id="xtick_5">
    <g id="line2d_6">
     <path d="M 111.77875 151.658907 
L 110.684598 152.651073 
" style="fill: none; stroke: #000000; stroke-width: 0.8; stroke-linecap: square"/>
    </g>
    <g id="text_5">
     <!-- 50 -->
     <g transform="translate(97.547457 175.712653) scale(0.1 -0.1)">
      <use xlink:href="#DejaVuSans-35"/>
      <use xlink:href="#DejaVuSans-30" x="63.623047"/>
     </g>
    </g>
   </g>
   <g id="xtick_6">
    <g id="line2d_7">
     <path d="M 118.178292 153.746932 
L 117.093145 154.748253 
" style="fill: none; stroke: #000000; stroke-width: 0.8; stroke-linecap: square"/>
    </g>
    <g id="text_6">
     <!-- 100 -->
     <g transform="translate(100.783494 177.894679) scale(0.1 -0.1)">
      <use xlink:href="#DejaVuSans-31"/>
      <use xlink:href="#DejaVuSans-30" x="63.623047"/>
      <use xlink:href="#DejaVuSans-30" x="127.246094"/>
     </g>
    </g>
   </g>
   <g id="xtick_7">
    <g id="line2d_8">
     <path d="M 124.636958 155.854248 
L 123.56103 156.864852 
" style="fill: none; stroke: #000000; stroke-width: 0.8; stroke-linecap: square"/>
    </g>
    <g id="text_7">
     <!-- 200 -->
     <g transform="translate(107.260575 180.097036) scale(0.1 -0.1)">
      <use xlink:href="#DejaVuSans-32"/>
      <use xlink:href="#DejaVuSans-30" x="63.623047"/>
      <use xlink:href="#DejaVuSans-30" x="127.246094"/>
     </g>
    </g>
   </g>
   <g id="xtick_8">
    <g id="line2d_9">
     <path d="M 131.155572 157.981123 
L 130.089081 159.00114 
" style="fill: none; stroke: #000000; stroke-width: 0.8; stroke-linecap: square"/>
    </g>
    <g id="text_8">
     <!-- 250 -->
     <g transform="translate(113.798289 182.32001) scale(0.1 -0.1)">
      <use xlink:href="#DejaVuSans-32"/>
      <use xlink:href="#DejaVuSans-35" x="63.623047"/>
      <use xlink:href="#DejaVuSans-30" x="127.246094"/>
     </g>
    </g>
   </g>
   <g id="xtick_9">
    <g id="line2d_10">
     <path d="M 137.734972 160.127832 
L 136.678141 161.157393 
" style="fill: none; stroke: #000000; stroke-width: 0.8; stroke-linecap: square"/>
    </g>
    <g id="text_9">
     <!-- 500 -->
     <g transform="translate(120.397491 184.563891) scale(0.1 -0.1)">
      <use xlink:href="#DejaVuSans-35"/>
      <use xlink:href="#DejaVuSans-30" x="63.623047"/>
      <use xlink:href="#DejaVuSans-30" x="127.246094"/>
     </g>
    </g>
   </g>
   <g id="xtick_10">
    <g id="line2d_11">
     <path d="M 144.376013 162.294652 
L 143.329071 163.333892 
" style="fill: none; stroke: #000000; stroke-width: 0.8; stroke-linecap: square"/>
    </g>
    <g id="text_10">
     <!-- 1000 -->
     <g transform="translate(123.877802 186.828977) scale(0.1 -0.1)">
      <use xlink:href="#DejaVuSans-31"/>
      <use xlink:href="#DejaVuSans-30" x="63.623047"/>
      <use xlink:href="#DejaVuSans-30" x="127.246094"/>
      <use xlink:href="#DejaVuSans-30" x="190.869141"/>
     </g>
    </g>
   </g>
   <g id="text_11">
    <!-- support -->
    <g transform="translate(82.28057 186.318757) rotate(-341.912962) scale(0.1 -0.1)">
     <defs>
      <path id="DejaVuSans-73" d="M 2834 3397 
L 2834 2853 
Q 2591 2978 2328 3040 
Q 2066 3103 1784 3103 
Q 1356 3103 1142 2972 
Q 928 2841 928 2578 
Q 928 2378 1081 2264 
Q 1234 2150 1697 2047 
L 1894 2003 
Q 2506 1872 2764 1633 
Q 3022 1394 3022 966 
Q 3022 478 2636 193 
Q 2250 -91 1575 -91 
Q 1294 -91 989 -36 
Q 684 19 347 128 
L 347 722 
Q 666 556 975 473 
Q 1284 391 1588 391 
Q 1994 391 2212 530 
Q 2431 669 2431 922 
Q 2431 1156 2273 1281 
Q 2116 1406 1581 1522 
L 1381 1569 
Q 847 1681 609 1914 
Q 372 2147 372 2553 
Q 372 3047 722 3315 
Q 1072 3584 1716 3584 
Q 2034 3584 2315 3537 
Q 2597 3491 2834 3397 
z
" transform="scale(0.015625)"/>
      <path id="DejaVuSans-75" d="M 544 1381 
L 544 3500 
L 1119 3500 
L 1119 1403 
Q 1119 906 1312 657 
Q 1506 409 1894 409 
Q 2359 409 2629 706 
Q 2900 1003 2900 1516 
L 2900 3500 
L 3475 3500 
L 3475 0 
L 2900 0 
L 2900 538 
Q 2691 219 2414 64 
Q 2138 -91 1772 -91 
Q 1169 -91 856 284 
Q 544 659 544 1381 
z
M 1991 3584 
L 1991 3584 
z
" transform="scale(0.015625)"/>
      <path id="DejaVuSans-70" d="M 1159 525 
L 1159 -1331 
L 581 -1331 
L 581 3500 
L 1159 3500 
L 1159 2969 
Q 1341 3281 1617 3432 
Q 1894 3584 2278 3584 
Q 2916 3584 3314 3078 
Q 3713 2572 3713 1747 
Q 3713 922 3314 415 
Q 2916 -91 2278 -91 
Q 1894 -91 1617 61 
Q 1341 213 1159 525 
z
M 3116 1747 
Q 3116 2381 2855 2742 
Q 2594 3103 2138 3103 
Q 1681 3103 1420 2742 
Q 1159 2381 1159 1747 
Q 1159 1113 1420 752 
Q 1681 391 2138 391 
Q 2594 391 2855 752 
Q 3116 1113 3116 1747 
z
" transform="scale(0.015625)"/>
      <path id="DejaVuSans-6f" d="M 1959 3097 
Q 1497 3097 1228 2736 
Q 959 2375 959 1747 
Q 959 1119 1226 758 
Q 1494 397 1959 397 
Q 2419 397 2687 759 
Q 2956 1122 2956 1747 
Q 2956 2369 2687 2733 
Q 2419 3097 1959 3097 
z
M 1959 3584 
Q 2709 3584 3137 3096 
Q 3566 2609 3566 1747 
Q 3566 888 3137 398 
Q 2709 -91 1959 -91 
Q 1206 -91 779 398 
Q 353 888 353 1747 
Q 353 2609 779 3096 
Q 1206 3584 1959 3584 
z
" transform="scale(0.015625)"/>
      <path id="DejaVuSans-72" d="M 2631 2963 
Q 2534 3019 2420 3045 
Q 2306 3072 2169 3072 
Q 1681 3072 1420 2755 
Q 1159 2438 1159 1844 
L 1159 0 
L 581 0 
L 581 3500 
L 1159 3500 
L 1159 2956 
Q 1341 3275 1631 3429 
Q 1922 3584 2338 3584 
Q 2397 3584 2469 3576 
Q 2541 3569 2628 3553 
L 2631 2963 
z
" transform="scale(0.015625)"/>
      <path id="DejaVuSans-74" d="M 1172 4494 
L 1172 3500 
L 2356 3500 
L 2356 3053 
L 1172 3053 
L 1172 1153 
Q 1172 725 1289 603 
Q 1406 481 1766 481 
L 2356 481 
L 2356 0 
L 1766 0 
Q 1100 0 847 248 
Q 594 497 594 1153 
L 594 3053 
L 172 3053 
L 172 3500 
L 594 3500 
L 594 4494 
L 1172 4494 
z
" transform="scale(0.015625)"/>
     </defs>
     <use xlink:href="#DejaVuSans-73"/>
     <use xlink:href="#DejaVuSans-75" x="52.099609"/>
     <use xlink:href="#DejaVuSans-70" x="115.478516"/>
     <use xlink:href="#DejaVuSans-70" x="178.955078"/>
     <use xlink:href="#DejaVuSans-6f" x="242.431641"/>
     <use xlink:href="#DejaVuSans-72" x="303.613281"/>
     <use xlink:href="#DejaVuSans-74" x="344.726562"/>
    </g>
   </g>
  </g>
  <g id="axis3d_2">
   <g id="line2d_12">
    <path d="M 194.844704 126.233198 
L 155.664905 166.44131 
" style="fill: none; stroke: #000000; stroke-width: 0.8; stroke-linecap: square"/>
   </g>
   <g id="xtick_11">
    <g id="line2d_13">
     <path d="M 157.756672 163.458577 
L 159.61579 164.061024 
" style="fill: none; stroke: #000000; stroke-width: 0.8; stroke-linecap: square"/>
    </g>
    <g id="text_12">
     <!-- -1 -->
     <g transform="translate(166.279246 184.689208) scale(0.1 -0.1)">
      <defs>
       <path id="DejaVuSans-2d" d="M 313 2009 
L 1997 2009 
L 1997 1497 
L 313 1497 
L 313 2009 
z
" transform="scale(0.015625)"/>
      </defs>
      <use xlink:href="#DejaVuSans-2d"/>
      <use xlink:href="#DejaVuSans-31" x="36.083984"/>
     </g>
    </g>
   </g>
   <g id="text_13">
    <!-- window -->
    <g transform="translate(191.873976 188.99679) rotate(-45.742112) scale(0.1 -0.1)">
     <defs>
      <path id="DejaVuSans-77" d="M 269 3500 
L 844 3500 
L 1563 769 
L 2278 3500 
L 2956 3500 
L 3675 769 
L 4391 3500 
L 4966 3500 
L 4050 0 
L 3372 0 
L 2619 2869 
L 1863 0 
L 1184 0 
L 269 3500 
z
" transform="scale(0.015625)"/>
      <path id="DejaVuSans-69" d="M 603 3500 
L 1178 3500 
L 1178 0 
L 603 0 
L 603 3500 
z
M 603 4863 
L 1178 4863 
L 1178 4134 
L 603 4134 
L 603 4863 
z
" transform="scale(0.015625)"/>
      <path id="DejaVuSans-6e" d="M 3513 2113 
L 3513 0 
L 2938 0 
L 2938 2094 
Q 2938 2591 2744 2837 
Q 2550 3084 2163 3084 
Q 1697 3084 1428 2787 
Q 1159 2491 1159 1978 
L 1159 0 
L 581 0 
L 581 3500 
L 1159 3500 
L 1159 2956 
Q 1366 3272 1645 3428 
Q 1925 3584 2291 3584 
Q 2894 3584 3203 3211 
Q 3513 2838 3513 2113 
z
" transform="scale(0.015625)"/>
      <path id="DejaVuSans-64" d="M 2906 2969 
L 2906 4863 
L 3481 4863 
L 3481 0 
L 2906 0 
L 2906 525 
Q 2725 213 2448 61 
Q 2172 -91 1784 -91 
Q 1150 -91 751 415 
Q 353 922 353 1747 
Q 353 2572 751 3078 
Q 1150 3584 1784 3584 
Q 2172 3584 2448 3432 
Q 2725 3281 2906 2969 
z
M 947 1747 
Q 947 1113 1208 752 
Q 1469 391 1925 391 
Q 2381 391 2643 752 
Q 2906 1113 2906 1747 
Q 2906 2381 2643 2742 
Q 2381 3103 1925 3103 
Q 1469 3103 1208 2742 
Q 947 2381 947 1747 
z
" transform="scale(0.015625)"/>
     </defs>
     <use xlink:href="#DejaVuSans-77"/>
     <use xlink:href="#DejaVuSans-69" x="81.787109"/>
     <use xlink:href="#DejaVuSans-6e" x="109.570312"/>
     <use xlink:href="#DejaVuSans-64" x="172.949219"/>
     <use xlink:href="#DejaVuSans-6f" x="236.425781"/>
     <use xlink:href="#DejaVuSans-77" x="297.607422"/>
    </g>
   </g>
  </g>
  <g id="axis3d_3">
   <g id="line2d_14">
    <path d="M 194.844704 126.233198 
L 197.327536 72.014481 
" style="fill: none; stroke: #000000; stroke-width: 0.8; stroke-linecap: square"/>
   </g>
   <g id="xtick_12">
    <g id="line2d_15">
     <path d="M 194.307839 125.024973 
L 196.062529 125.53374 
" style="fill: none; stroke: #000000; stroke-width: 0.8; stroke-linecap: square"/>
    </g>
    <g id="text_14">
     <!-- $10^{0.0}$ -->
     <g transform="translate(200.950133 130.199946) scale(0.1 -0.1)">
      <defs>
       <path id="DejaVuSans-2e" d="M 684 794 
L 1344 794 
L 1344 0 
L 684 0 
L 684 794 
z
" transform="scale(0.015625)"/>
      </defs>
      <use xlink:href="#DejaVuSans-31" transform="translate(0 0.765625)"/>
      <use xlink:href="#DejaVuSans-30" transform="translate(63.623047 0.765625)"/>
      <use xlink:href="#DejaVuSans-30" transform="translate(128.203125 39.046875) scale(0.7)"/>
      <use xlink:href="#DejaVuSans-2e" transform="translate(172.739258 39.046875) scale(0.7)"/>
      <use xlink:href="#DejaVuSans-30" transform="translate(194.990234 39.046875) scale(0.7)"/>
     </g>
    </g>
   </g>
   <g id="xtick_13">
    <g id="line2d_16">
     <path d="M 195.230428 104.660619 
L 197.015765 105.153302 
" style="fill: none; stroke: #000000; stroke-width: 0.8; stroke-linecap: square"/>
    </g>
    <g id="text_15">
     <!-- $10^{1.0}$ -->
     <g transform="translate(202.181463 109.912474) scale(0.1 -0.1)">
      <use xlink:href="#DejaVuSans-31" transform="translate(0 0.765625)"/>
      <use xlink:href="#DejaVuSans-30" transform="translate(63.623047 0.765625)"/>
      <use xlink:href="#DejaVuSans-31" transform="translate(128.203125 39.046875) scale(0.7)"/>
      <use xlink:href="#DejaVuSans-2e" transform="translate(172.739258 39.046875) scale(0.7)"/>
      <use xlink:href="#DejaVuSans-30" transform="translate(194.990234 39.046875) scale(0.7)"/>
     </g>
    </g>
   </g>
   <g id="xtick_14">
    <g id="line2d_17">
     <path d="M 196.184562 83.59995 
L 198.001634 84.075143 
" style="fill: none; stroke: #000000; stroke-width: 0.8; stroke-linecap: square"/>
    </g>
    <g id="text_16">
     <!-- $10^{2.0}$ -->
     <g transform="translate(203.454649 88.935383) scale(0.1 -0.1)">
      <use xlink:href="#DejaVuSans-31" transform="translate(0 0.765625)"/>
      <use xlink:href="#DejaVuSans-30" transform="translate(63.623047 0.765625)"/>
      <use xlink:href="#DejaVuSans-32" transform="translate(128.203125 39.046875) scale(0.7)"/>
      <use xlink:href="#DejaVuSans-2e" transform="translate(172.739258 39.046875) scale(0.7)"/>
      <use xlink:href="#DejaVuSans-30" transform="translate(194.990234 39.046875) scale(0.7)"/>
     </g>
    </g>
   </g>
   <g id="text_17">
    <!-- elapsed -->
    <g transform="translate(238.023192 114.01016) rotate(-87.378092) scale(0.1 -0.1)">
     <defs>
      <path id="DejaVuSans-65" d="M 3597 1894 
L 3597 1613 
L 953 1613 
Q 991 1019 1311 708 
Q 1631 397 2203 397 
Q 2534 397 2845 478 
Q 3156 559 3463 722 
L 3463 178 
Q 3153 47 2828 -22 
Q 2503 -91 2169 -91 
Q 1331 -91 842 396 
Q 353 884 353 1716 
Q 353 2575 817 3079 
Q 1281 3584 2069 3584 
Q 2775 3584 3186 3129 
Q 3597 2675 3597 1894 
z
M 3022 2063 
Q 3016 2534 2758 2815 
Q 2500 3097 2075 3097 
Q 1594 3097 1305 2825 
Q 1016 2553 972 2059 
L 3022 2063 
z
" transform="scale(0.015625)"/>
      <path id="DejaVuSans-6c" d="M 603 4863 
L 1178 4863 
L 1178 0 
L 603 0 
L 603 4863 
z
" transform="scale(0.015625)"/>
      <path id="DejaVuSans-61" d="M 2194 1759 
Q 1497 1759 1228 1600 
Q 959 1441 959 1056 
Q 959 750 1161 570 
Q 1363 391 1709 391 
Q 2188 391 2477 730 
Q 2766 1069 2766 1631 
L 2766 1759 
L 2194 1759 
z
M 3341 1997 
L 3341 0 
L 2766 0 
L 2766 531 
Q 2569 213 2275 61 
Q 1981 -91 1556 -91 
Q 1019 -91 701 211 
Q 384 513 384 1019 
Q 384 1609 779 1909 
Q 1175 2209 1959 2209 
L 2766 2209 
L 2766 2266 
Q 2766 2663 2505 2880 
Q 2244 3097 1772 3097 
Q 1472 3097 1187 3025 
Q 903 2953 641 2809 
L 641 3341 
Q 956 3463 1253 3523 
Q 1550 3584 1831 3584 
Q 2591 3584 2966 3190 
Q 3341 2797 3341 1997 
z
" transform="scale(0.015625)"/>
     </defs>
     <use xlink:href="#DejaVuSans-65"/>
     <use xlink:href="#DejaVuSans-6c" x="61.523438"/>
     <use xlink:href="#DejaVuSans-61" x="89.306641"/>
     <use xlink:href="#DejaVuSans-70" x="150.585938"/>
     <use xlink:href="#DejaVuSans-73" x="214.0625"/>
     <use xlink:href="#DejaVuSans-65" x="266.162109"/>
     <use xlink:href="#DejaVuSans-64" x="327.685547"/>
    </g>
   </g>
  </g>
  <g id="axes_1">
   <g id="Poly3DCollection_1">
    <path d="M 89.308111 140.230305 
L 95.465435 142.220877 
L 132.829234 110.09062 
L 126.95975 108.37677 
z
" clip-path="url(#p2c02e09dcd)" style="fill: #c30000"/>
    <path d="M 95.465435 142.220877 
L 101.678386 144.229432 
L 138.747896 111.818829 
L 132.829234 110.09062 
z
" clip-path="url(#p2c02e09dcd)" style="fill: #c30000"/>
    <path d="M 101.678386 144.229432 
L 107.94772 146.256215 
L 144.716356 113.561579 
L 138.747896 111.818829 
z
" clip-path="url(#p2c02e09dcd)" style="fill: #c30000"/>
    <path d="M 107.94772 146.256215 
L 114.274208 148.301475 
L 150.735247 115.319055 
L 144.716356 113.561579 
z
" clip-path="url(#p2c02e09dcd)" style="fill: #c30000"/>
    <path d="M 114.274208 148.301475 
L 120.658635 150.365466 
L 156.805209 117.091443 
L 150.735247 115.319055 
z
" clip-path="url(#p2c02e09dcd)" style="fill: #c30000"/>
    <path d="M 120.658635 150.365466 
L 127.101802 152.448447 
L 162.926896 118.878934 
L 156.805209 117.091443 
z
" clip-path="url(#p2c02e09dcd)" style="fill: #c30000"/>
    <path d="M 127.101802 152.448447 
L 133.604522 154.55068 
L 169.100971 120.681722 
L 162.926896 118.878934 
z
" clip-path="url(#p2c02e09dcd)" style="fill: #c30000"/>
    <path d="M 133.604522 154.55068 
L 140.167625 156.672434 
L 175.32811 122.500005 
L 169.100971 120.681722 
z
" clip-path="url(#p2c02e09dcd)" style="fill: #c30000"/>
    <path d="M 140.167625 156.672434 
L 146.791956 158.813982 
L 181.609001 124.333982 
L 175.32811 122.500005 
z
" clip-path="url(#p2c02e09dcd)" style="fill: #c30000"/>
    <path d="M 146.791956 158.813982 
L 153.478375 160.975603 
L 187.944341 126.183859 
L 181.609001 124.333982 
z
" clip-path="url(#p2c02e09dcd)" style="fill: #c30000"/>
   </g>
   <g id="text_18">
    <!-- default -->
    <g transform="translate(116.535496 37.432941) scale(0.12 -0.12)">
     <defs>
      <path id="DejaVuSans-66" d="M 2375 4863 
L 2375 4384 
L 1825 4384 
Q 1516 4384 1395 4259 
Q 1275 4134 1275 3809 
L 1275 3500 
L 2222 3500 
L 2222 3053 
L 1275 3053 
L 1275 0 
L 697 0 
L 697 3053 
L 147 3053 
L 147 3500 
L 697 3500 
L 697 3744 
Q 697 4328 969 4595 
Q 1241 4863 1831 4863 
L 2375 4863 
z
" transform="scale(0.015625)"/>
     </defs>
     <use xlink:href="#DejaVuSans-64"/>
     <use xlink:href="#DejaVuSans-65" x="63.476562"/>
     <use xlink:href="#DejaVuSans-66" x="125"/>
     <use xlink:href="#DejaVuSans-61" x="160.205078"/>
     <use xlink:href="#DejaVuSans-75" x="221.484375"/>
     <use xlink:href="#DejaVuSans-6c" x="284.863281"/>
     <use xlink:href="#DejaVuSans-74" x="312.646484"/>
    </g>
   </g>
   <g id="Poly3DCollection_2">
    <path d="M 126.95975 108.37677 
L 126.446238 57.767 
L 132.556409 59.331907 
L 132.829234 110.09062 
z
" clip-path="url(#p2c02e09dcd)" style="fill: #210a06"/>
    <path d="M 132.829234 110.09062 
L 132.576534 63.076034 
L 138.721969 64.666239 
L 138.747896 111.818829 
z
" clip-path="url(#p2c02e09dcd)" style="fill: #564004"/>
    <path d="M 138.747896 111.818829 
L 138.7242 68.723966 
L 144.903488 70.340603 
L 144.716356 113.561579 
z
" clip-path="url(#p2c02e09dcd)" style="fill: #59063b"/>
    <path d="M 144.716356 113.561579 
L 144.894852 72.335239 
L 151.118304 73.972152 
L 150.735247 115.319055 
z
" clip-path="url(#p2c02e09dcd)" style="fill: #060c44"/>
    <path d="M 150.735247 115.319055 
L 151.070861 79.09309 
L 157.323134 80.760011 
L 156.805209 117.091443 
z
" clip-path="url(#p2c02e09dcd)" style="fill: #55533a"/>
    <path d="M 156.805209 117.091443 
L 157.230904 87.229768 
L 163.505011 88.930862 
L 162.926896 118.878934 
z
" clip-path="url(#p2c02e09dcd)" style="fill: #4a6a1e"/>
    <path d="M 162.926896 118.878934 
L 163.383031 95.249774 
L 169.679429 96.98462 
L 169.100971 120.681722 
z
" clip-path="url(#p2c02e09dcd)" style="fill: #283d54"/>
    <path d="M 89.308111 140.230305 
L 126.95975 108.37677 
L 132.829234 110.09062 
L 95.465435 142.220877 
z
" clip-path="url(#p2c02e09dcd)" style="fill: #2a0d07"/>
    <path d="M 169.100971 120.681722 
L 169.639579 98.617125 
L 175.982576 100.372002 
L 175.32811 122.500005 
z
" clip-path="url(#p2c02e09dcd)" style="fill: #3c4338"/>
    <path d="M 175.32811 122.500005 
L 175.827249 105.623717 
L 182.198016 107.409447 
L 181.609001 124.333982 
z
" clip-path="url(#p2c02e09dcd)" style="fill: #254566"/>
    <path d="M 95.465435 142.220877 
L 132.829234 110.09062 
L 138.747896 111.818829 
L 101.678386 144.229432 
z
" clip-path="url(#p2c02e09dcd)" style="fill: #6e5205"/>
    <path d="M 181.609001 124.333982 
L 182.058943 111.405506 
L 188.464119 113.218559 
L 187.944341 126.183859 
z
" clip-path="url(#p2c02e09dcd)" style="fill: #144b14"/>
    <path d="M 101.678386 144.229432 
L 138.747896 111.818829 
L 144.716356 113.561579 
L 107.94772 146.256215 
z
" clip-path="url(#p2c02e09dcd)" style="fill: #72084c"/>
    <path d="M 107.94772 146.256215 
L 144.716356 113.561579 
L 150.735247 115.319055 
L 114.274208 148.301475 
z
" clip-path="url(#p2c02e09dcd)" style="fill: #080f57"/>
    <path d="M 114.274208 148.301475 
L 150.735247 115.319055 
L 156.805209 117.091443 
L 120.658635 150.365466 
z
" clip-path="url(#p2c02e09dcd)" style="fill: #6d6a4a"/>
    <path d="M 89.308111 140.230305 
L 87.075808 86.940508 
L 126.446238 57.767 
L 126.95975 108.37677 
z
" clip-path="url(#p2c02e09dcd)" style="fill: #45150c"/>
    <path d="M 120.658635 150.365466 
L 156.805209 117.091443 
L 162.926896 118.878934 
L 127.101802 152.448447 
z
" clip-path="url(#p2c02e09dcd)" style="fill: #5f8826"/>
    <path d="M 95.465435 142.220877 
L 93.643757 92.724341 
L 132.576534 63.076034 
L 132.829234 110.09062 
z
" clip-path="url(#p2c02e09dcd)" style="fill: #b68708"/>
    <path d="M 95.465435 142.220877 
L 132.829234 110.09062 
L 132.556409 59.331907 
L 93.498213 88.769811 
z
" clip-path="url(#p2c02e09dcd)" style="fill: #210a06"/>
    <path d="M 101.678386 144.229432 
L 100.242447 98.867715 
L 138.7242 68.723966 
L 138.747896 111.818829 
z
" clip-path="url(#p2c02e09dcd)" style="fill: #bd0d7d"/>
    <path d="M 127.101802 152.448447 
L 162.926896 118.878934 
L 169.100971 120.681722 
L 133.604522 154.55068 
z
" clip-path="url(#p2c02e09dcd)" style="fill: #344e6c"/>
    <path d="M 101.678386 144.229432 
L 138.747896 111.818829 
L 138.721969 64.666239 
L 100.106833 94.58364 
z
" clip-path="url(#p2c02e09dcd)" style="fill: #564004"/>
    <path d="M 107.94772 146.256215 
L 106.800326 102.863567 
L 144.894852 72.335239 
L 144.716356 113.561579 
z
" clip-path="url(#p2c02e09dcd)" style="fill: #0d1990"/>
    <path d="M 107.94772 146.256215 
L 144.716356 113.561579 
L 144.903488 70.340603 
L 106.744658 100.758271 
z
" clip-path="url(#p2c02e09dcd)" style="fill: #59063b"/>
    <path d="M 114.274208 148.301475 
L 113.467467 110.181782 
L 151.070861 79.09309 
L 150.735247 115.319055 
z
" clip-path="url(#p2c02e09dcd)" style="fill: #b4af7b"/>
    <path d="M 133.604522 154.55068 
L 169.100971 120.681722 
L 175.32811 122.500005 
L 140.167625 156.672434 
z
" clip-path="url(#p2c02e09dcd)" style="fill: #4c5648"/>
    <path d="M 120.658635 150.365466 
L 120.161771 118.953812 
L 157.230904 87.229768 
L 156.805209 117.091443 
z
" clip-path="url(#p2c02e09dcd)" style="fill: #9de13f"/>
    <path d="M 114.274208 148.301475 
L 150.735247 115.319055 
L 151.118304 73.972152 
L 113.353119 104.778702 
z
" clip-path="url(#p2c02e09dcd)" style="fill: #060c44"/>
    <path d="M 127.101802 152.448447 
L 126.843289 127.601491 
L 163.383031 95.249774 
L 162.926896 118.878934 
z
" clip-path="url(#p2c02e09dcd)" style="fill: #5681b2"/>
    <path d="M 120.658635 150.365466 
L 156.805209 117.091443 
L 157.323134 80.760011 
L 120.053867 112.132119 
z
" clip-path="url(#p2c02e09dcd)" style="fill: #55533a"/>
    <path d="M 140.167625 156.672434 
L 175.32811 122.500005 
L 181.609001 124.333982 
L 146.791956 158.813982 
z
" clip-path="url(#p2c02e09dcd)" style="fill: #2f5883"/>
    <path d="M 127.101802 152.448447 
L 162.926896 118.878934 
L 163.505011 88.930862 
L 126.774022 120.943869 
z
" clip-path="url(#p2c02e09dcd)" style="fill: #4a6a1e"/>
    <path d="M 133.604522 154.55068 
L 133.490347 131.350036 
L 169.639579 98.617125 
L 169.100971 120.681722 
z
" clip-path="url(#p2c02e09dcd)" style="fill: #7e8e77"/>
    <path d="M 133.604522 154.55068 
L 169.100971 120.681722 
L 169.679429 96.98462 
L 133.481886 129.630796 
z
" clip-path="url(#p2c02e09dcd)" style="fill: #283d54"/>
    <path d="M 146.791956 158.813982 
L 181.609001 124.333982 
L 187.944341 126.183859 
L 153.478375 160.975603 
z
" clip-path="url(#p2c02e09dcd)" style="fill: #1a601a"/>
    <path d="M 140.167625 156.672434 
L 140.178846 138.932399 
L 175.827249 105.623717 
L 175.32811 122.500005 
z
" clip-path="url(#p2c02e09dcd)" style="fill: #4e92d9"/>
    <path d="M 87.075808 86.940508 
L 93.498213 88.769811 
L 132.556409 59.331907 
L 126.446238 57.767 
z
" clip-path="url(#p2c02e09dcd)" style="fill: #3c120a"/>
    <path d="M 140.167625 156.672434 
L 175.32811 122.500005 
L 175.982576 100.372002 
L 140.182343 133.403791 
z
" clip-path="url(#p2c02e09dcd)" style="fill: #3c4338"/>
    <path d="M 146.791956 158.813982 
L 146.87699 145.226724 
L 182.058943 111.405506 
L 181.609001 124.333982 
z
" clip-path="url(#p2c02e09dcd)" style="fill: #2a9f2b"/>
    <path d="M 93.643757 92.724341 
L 100.106833 94.58364 
L 138.721969 64.666239 
L 132.576534 63.076034 
z
" clip-path="url(#p2c02e09dcd)" style="fill: #9e7507"/>
    <path d="M 146.791956 158.813982 
L 181.609001 124.333982 
L 182.198016 107.409447 
L 146.903303 141.022299 
z
" clip-path="url(#p2c02e09dcd)" style="fill: #254566"/>
    <path d="M 100.242447 98.867715 
L 106.744658 100.758271 
L 144.903488 70.340603 
L 138.7242 68.723966 
z
" clip-path="url(#p2c02e09dcd)" style="fill: #a40b6d"/>
    <path d="M 126.843289 127.601491 
L 133.481886 129.630796 
L 169.679429 96.98462 
L 163.383031 95.249774 
z
" clip-path="url(#p2c02e09dcd)" style="fill: #4a709b"/>
    <path d="M 120.161771 118.953812 
L 126.774022 120.943869 
L 163.505011 88.930862 
L 157.230904 87.229768 
z
" clip-path="url(#p2c02e09dcd)" style="fill: #88c336"/>
    <path d="M 153.478375 160.975603 
L 187.944341 126.183859 
L 188.464119 113.218559 
L 153.641319 147.348987 
z
" clip-path="url(#p2c02e09dcd)" style="fill: #144b14"/>
    <path d="M 106.800326 102.863567 
L 113.353119 104.778702 
L 151.118304 73.972152 
L 144.894852 72.335239 
z
" clip-path="url(#p2c02e09dcd)" style="fill: #0b157d"/>
    <path d="M 113.467467 110.181782 
L 120.053867 112.132119 
L 157.323134 80.760011 
L 151.070861 79.09309 
z
" clip-path="url(#p2c02e09dcd)" style="fill: #9d986b"/>
    <path d="M 133.490347 131.350036 
L 140.182343 133.403791 
L 175.982576 100.372002 
L 169.639579 98.617125 
z
" clip-path="url(#p2c02e09dcd)" style="fill: #6e7b67"/>
    <path d="M 140.178846 138.932399 
L 146.903303 141.022299 
L 182.198016 107.409447 
L 175.827249 105.623717 
z
" clip-path="url(#p2c02e09dcd)" style="fill: #447ebc"/>
    <path d="M 146.87699 145.226724 
L 153.641319 147.348987 
L 188.464119 113.218559 
L 182.058943 111.405506 
z
" clip-path="url(#p2c02e09dcd)" style="fill: #258a25"/>
    <path d="M 89.308111 140.230305 
L 95.465435 142.220877 
L 93.498213 88.769811 
L 87.075808 86.940508 
z
" clip-path="url(#p2c02e09dcd)" style="fill: #45150c"/>
    <path d="M 95.465435 142.220877 
L 101.678386 144.229432 
L 100.106833 94.58364 
L 93.643757 92.724341 
z
" clip-path="url(#p2c02e09dcd)" style="fill: #b68708"/>
    <path d="M 101.678386 144.229432 
L 107.94772 146.256215 
L 106.744658 100.758271 
L 100.242447 98.867715 
z
" clip-path="url(#p2c02e09dcd)" style="fill: #bd0d7d"/>
    <path d="M 107.94772 146.256215 
L 114.274208 148.301475 
L 113.353119 104.778702 
L 106.800326 102.863567 
z
" clip-path="url(#p2c02e09dcd)" style="fill: #0d1990"/>
    <path d="M 114.274208 148.301475 
L 120.658635 150.365466 
L 120.053867 112.132119 
L 113.467467 110.181782 
z
" clip-path="url(#p2c02e09dcd)" style="fill: #b4af7b"/>
    <path d="M 120.658635 150.365466 
L 127.101802 152.448447 
L 126.774022 120.943869 
L 120.161771 118.953812 
z
" clip-path="url(#p2c02e09dcd)" style="fill: #9de13f"/>
    <path d="M 127.101802 152.448447 
L 133.604522 154.55068 
L 133.481886 129.630796 
L 126.843289 127.601491 
z
" clip-path="url(#p2c02e09dcd)" style="fill: #5681b2"/>
    <path d="M 133.604522 154.55068 
L 140.167625 156.672434 
L 140.182343 133.403791 
L 133.490347 131.350036 
z
" clip-path="url(#p2c02e09dcd)" style="fill: #7e8e77"/>
    <path d="M 140.167625 156.672434 
L 146.791956 158.813982 
L 146.903303 141.022299 
L 140.178846 138.932399 
z
" clip-path="url(#p2c02e09dcd)" style="fill: #4e92d9"/>
    <path d="M 146.791956 158.813982 
L 153.478375 160.975603 
L 153.641319 147.348987 
L 146.87699 145.226724 
z
" clip-path="url(#p2c02e09dcd)" style="fill: #2a9f2b"/>
   </g>
  </g>
  <g id="patch_6">
   <path d="M 229.552941 174.727059 
L 360.847059 174.727059 
L 360.847059 43.432941 
L 229.552941 43.432941 
z
" style="fill: #ffffff"/>
  </g>
  <g id="pane3d_4">
   <g id="patch_7">
    <path d="M 239.466552 142.354137 
L 282.824158 106.010932 
L 282.221446 53.597534 
L 236.788955 86.752097 
" style="fill: #f2f2f2; opacity: 0.5; stroke: #f2f2f2; stroke-linejoin: miter"/>
   </g>
  </g>
  <g id="pane3d_5">
   <g id="patch_8">
    <path d="M 282.824158 106.010932 
L 352.397645 126.233198 
L 354.880477 72.014481 
L 282.221446 53.597534 
" style="fill: #e6e6e6; opacity: 0.5; stroke: #e6e6e6; stroke-linejoin: miter"/>
   </g>
  </g>
  <g id="pane3d_6">
   <g id="patch_9">
    <path d="M 239.466552 142.354137 
L 313.217847 166.44131 
L 352.397645 126.233198 
L 282.824158 106.010932 
" style="fill: #ececec; opacity: 0.5; stroke: #ececec; stroke-linejoin: miter"/>
   </g>
  </g>
  <g id="grid3d_4">
   <g id="Line3DCollection_4">
    <path d="M 243.933318 143.812983 
L 287.055404 107.240789 
L 286.631593 54.715378 
" style="fill: none; stroke: #b0b0b0; stroke-width: 0.8"/>
    <path d="M 259.472916 148.888215 
L 301.758 111.514253 
L 301.964624 58.601855 
" style="fill: none; stroke: #b0b0b0; stroke-width: 0.8"/>
    <path d="M 275.370046 154.080218 
L 316.770561 115.877812 
L 317.635029 62.573845 
" style="fill: none; stroke: #b0b0b0; stroke-width: 0.8"/>
    <path d="M 291.637189 159.393067 
L 332.102995 120.334345 
L 333.654066 66.634204 
" style="fill: none; stroke: #b0b0b0; stroke-width: 0.8"/>
   </g>
  </g>
  <g id="grid3d_5">
   <g id="Line3DCollection_5">
    <path d="M 239.930725 84.459376 
L 242.454258 139.849783 
L 315.928785 163.659219 
" style="fill: none; stroke: #b0b0b0; stroke-width: 0.8"/>
    <path d="M 250.427047 76.799639 
L 252.447238 131.473469 
L 324.984068 154.366272 
" style="fill: none; stroke: #b0b0b0; stroke-width: 0.8"/>
    <path d="M 260.515829 69.437305 
L 262.068747 123.408529 
L 333.685325 145.436641 
" style="fill: none; stroke: #b0b0b0; stroke-width: 0.8"/>
    <path d="M 270.220354 62.355385 
L 271.339121 115.637918 
L 342.05292 136.849431 
" style="fill: none; stroke: #b0b0b0; stroke-width: 0.8"/>
   </g>
  </g>
  <g id="grid3d_6">
   <g id="Line3DCollection_6">
    <path d="M 352.445213 125.194428 
L 282.812587 105.004668 
L 239.415337 141.290624 
" style="fill: none; stroke: #b0b0b0; stroke-width: 0.8"/>
    <path d="M 353.335528 105.752228 
L 282.596186 86.185901 
L 238.456159 121.372652 
" style="fill: none; stroke: #b0b0b0; stroke-width: 0.8"/>
    <path d="M 354.254888 85.675749 
L 282.373069 66.783079 
L 237.46447 100.779592 
" style="fill: none; stroke: #b0b0b0; stroke-width: 0.8"/>
   </g>
  </g>
  <g id="axis3d_4">
   <g id="line2d_18">
    <path d="M 239.466552 142.354137 
L 313.217847 166.44131 
" style="fill: none; stroke: #000000; stroke-width: 0.8; stroke-linecap: square"/>
   </g>
   <g id="xtick_15">
    <g id="line2d_19">
     <path d="M 244.308823 143.494514 
L 243.180697 144.451286 
" style="fill: none; stroke: #000000; stroke-width: 0.8; stroke-linecap: square"/>
    </g>
    <g id="text_19">
     <!-- 0.005 -->
     <g transform="translate(222.061357 167.18233) scale(0.1 -0.1)">
      <use xlink:href="#DejaVuSans-30"/>
      <use xlink:href="#DejaVuSans-2e" x="63.623047"/>
      <use xlink:href="#DejaVuSans-30" x="95.410156"/>
      <use xlink:href="#DejaVuSans-30" x="159.033203"/>
      <use xlink:href="#DejaVuSans-35" x="222.65625"/>
     </g>
    </g>
   </g>
   <g id="xtick_16">
    <g id="line2d_20">
     <path d="M 259.841473 148.562464 
L 258.734204 149.541131 
" style="fill: none; stroke: #000000; stroke-width: 0.8; stroke-linecap: square"/>
    </g>
    <g id="text_20">
     <!-- 0.01 -->
     <g transform="translate(240.814467 172.477122) scale(0.1 -0.1)">
      <use xlink:href="#DejaVuSans-30"/>
      <use xlink:href="#DejaVuSans-2e" x="63.623047"/>
      <use xlink:href="#DejaVuSans-30" x="95.410156"/>
      <use xlink:href="#DejaVuSans-31" x="159.033203"/>
     </g>
    </g>
   </g>
   <g id="xtick_17">
    <g id="line2d_21">
     <path d="M 275.731233 153.746932 
L 274.646086 154.748253 
" style="fill: none; stroke: #000000; stroke-width: 0.8; stroke-linecap: square"/>
    </g>
    <g id="text_21">
     <!-- 0.05 -->
     <g transform="translate(256.747373 177.894679) scale(0.1 -0.1)">
      <use xlink:href="#DejaVuSans-30"/>
      <use xlink:href="#DejaVuSans-2e" x="63.623047"/>
      <use xlink:href="#DejaVuSans-30" x="95.410156"/>
      <use xlink:href="#DejaVuSans-35" x="159.033203"/>
     </g>
    </g>
   </g>
   <g id="xtick_18">
    <g id="line2d_22">
     <path d="M 291.990562 159.051981 
L 290.928873 160.076753 
" style="fill: none; stroke: #000000; stroke-width: 0.8; stroke-linecap: square"/>
    </g>
    <g id="text_22">
     <!-- 0.1 -->
     <g transform="translate(276.235278 183.439319) scale(0.1 -0.1)">
      <use xlink:href="#DejaVuSans-30"/>
      <use xlink:href="#DejaVuSans-2e" x="63.623047"/>
      <use xlink:href="#DejaVuSans-31" x="95.410156"/>
     </g>
    </g>
   </g>
   <g id="text_23">
    <!-- support -->
    <g transform="translate(239.833511 186.318757) rotate(-341.912962) scale(0.1 -0.1)">
     <use xlink:href="#DejaVuSans-73"/>
     <use xlink:href="#DejaVuSans-75" x="52.099609"/>
     <use xlink:href="#DejaVuSans-70" x="115.478516"/>
     <use xlink:href="#DejaVuSans-70" x="178.955078"/>
     <use xlink:href="#DejaVuSans-6f" x="242.431641"/>
     <use xlink:href="#DejaVuSans-72" x="303.613281"/>
     <use xlink:href="#DejaVuSans-74" x="344.726562"/>
    </g>
   </g>
  </g>
  <g id="axis3d_5">
   <g id="line2d_23">
    <path d="M 352.397645 126.233198 
L 313.217847 166.44131 
" style="fill: none; stroke: #000000; stroke-width: 0.8; stroke-linecap: square"/>
   </g>
   <g id="xtick_19">
    <g id="line2d_24">
     <path d="M 315.309613 163.458577 
L 317.168731 164.061024 
" style="fill: none; stroke: #000000; stroke-width: 0.8; stroke-linecap: square"/>
    </g>
    <g id="text_24">
     <!-- 1000 -->
     <g transform="translate(316.092344 184.689208) scale(0.1 -0.1)">
      <use xlink:href="#DejaVuSans-31"/>
      <use xlink:href="#DejaVuSans-30" x="63.623047"/>
      <use xlink:href="#DejaVuSans-30" x="127.246094"/>
      <use xlink:href="#DejaVuSans-30" x="190.869141"/>
     </g>
    </g>
   </g>
   <g id="xtick_20">
    <g id="line2d_25">
     <path d="M 324.373415 154.173548 
L 326.206921 154.752207 
" style="fill: none; stroke: #000000; stroke-width: 0.8; stroke-linecap: square"/>
    </g>
    <g id="text_25">
     <!-- 2000 -->
     <g transform="translate(324.901129 175.117086) scale(0.1 -0.1)">
      <use xlink:href="#DejaVuSans-32"/>
      <use xlink:href="#DejaVuSans-30" x="63.623047"/>
      <use xlink:href="#DejaVuSans-30" x="127.246094"/>
      <use xlink:href="#DejaVuSans-30" x="190.869141"/>
     </g>
    </g>
   </g>
   <g id="xtick_21">
    <g id="line2d_26">
     <path d="M 333.083005 145.251378 
L 334.891462 145.80763 
" style="fill: none; stroke: #000000; stroke-width: 0.8; stroke-linecap: square"/>
    </g>
    <g id="text_26">
     <!-- 5000 -->
     <g transform="translate(333.365123 165.919634) scale(0.1 -0.1)">
      <use xlink:href="#DejaVuSans-35"/>
      <use xlink:href="#DejaVuSans-30" x="63.623047"/>
      <use xlink:href="#DejaVuSans-30" x="127.246094"/>
      <use xlink:href="#DejaVuSans-30" x="190.869141"/>
     </g>
    </g>
   </g>
   <g id="xtick_22">
    <g id="line2d_27">
     <path d="M 341.458749 136.671202 
L 343.24271 137.206324 
" style="fill: none; stroke: #000000; stroke-width: 0.8; stroke-linecap: square"/>
    </g>
    <g id="text_27">
     <!-- 10000 -->
     <g transform="translate(338.322932 157.075275) scale(0.1 -0.1)">
      <use xlink:href="#DejaVuSans-31"/>
      <use xlink:href="#DejaVuSans-30" x="63.623047"/>
      <use xlink:href="#DejaVuSans-30" x="127.246094"/>
      <use xlink:href="#DejaVuSans-30" x="190.869141"/>
      <use xlink:href="#DejaVuSans-30" x="254.492188"/>
     </g>
    </g>
   </g>
   <g id="text_28">
    <!-- window -->
    <g transform="translate(349.426917 188.99679) rotate(-45.742112) scale(0.1 -0.1)">
     <use xlink:href="#DejaVuSans-77"/>
     <use xlink:href="#DejaVuSans-69" x="81.787109"/>
     <use xlink:href="#DejaVuSans-6e" x="109.570312"/>
     <use xlink:href="#DejaVuSans-64" x="172.949219"/>
     <use xlink:href="#DejaVuSans-6f" x="236.425781"/>
     <use xlink:href="#DejaVuSans-77" x="297.607422"/>
    </g>
   </g>
  </g>
  <g id="axis3d_6">
   <g id="line2d_28">
    <path d="M 352.397645 126.233198 
L 354.880477 72.014481 
" style="fill: none; stroke: #000000; stroke-width: 0.8; stroke-linecap: square"/>
   </g>
   <g id="xtick_23">
    <g id="line2d_29">
     <path d="M 351.86078 125.024973 
L 353.61547 125.53374 
" style="fill: none; stroke: #000000; stroke-width: 0.8; stroke-linecap: square"/>
    </g>
    <g id="text_29">
     <!-- $10^{0.0}$ -->
     <g transform="translate(358.503074 130.199946) scale(0.1 -0.1)">
      <use xlink:href="#DejaVuSans-31" transform="translate(0 0.765625)"/>
      <use xlink:href="#DejaVuSans-30" transform="translate(63.623047 0.765625)"/>
      <use xlink:href="#DejaVuSans-30" transform="translate(128.203125 39.046875) scale(0.7)"/>
      <use xlink:href="#DejaVuSans-2e" transform="translate(172.739258 39.046875) scale(0.7)"/>
      <use xlink:href="#DejaVuSans-30" transform="translate(194.990234 39.046875) scale(0.7)"/>
     </g>
    </g>
   </g>
   <g id="xtick_24">
    <g id="line2d_30">
     <path d="M 352.74136 105.587882 
L 354.525301 106.081316 
" style="fill: none; stroke: #000000; stroke-width: 0.8; stroke-linecap: square"/>
    </g>
    <g id="text_30">
     <!-- $10^{1.0}$ -->
     <g transform="translate(359.678342 110.836153) scale(0.1 -0.1)">
      <use xlink:href="#DejaVuSans-31" transform="translate(0 0.765625)"/>
      <use xlink:href="#DejaVuSans-30" transform="translate(63.623047 0.765625)"/>
      <use xlink:href="#DejaVuSans-31" transform="translate(128.203125 39.046875) scale(0.7)"/>
      <use xlink:href="#DejaVuSans-2e" transform="translate(172.739258 39.046875) scale(0.7)"/>
      <use xlink:href="#DejaVuSans-30" transform="translate(194.990234 39.046875) scale(0.7)"/>
     </g>
    </g>
   </g>
   <g id="xtick_25">
    <g id="line2d_31">
     <path d="M 353.650656 85.516939 
L 355.464838 85.993759 
" style="fill: none; stroke: #000000; stroke-width: 0.8; stroke-linecap: square"/>
    </g>
    <g id="text_31">
     <!-- $10^{2.0}$ -->
     <g transform="translate(360.891712 90.844593) scale(0.1 -0.1)">
      <use xlink:href="#DejaVuSans-31" transform="translate(0 0.765625)"/>
      <use xlink:href="#DejaVuSans-30" transform="translate(63.623047 0.765625)"/>
      <use xlink:href="#DejaVuSans-32" transform="translate(128.203125 39.046875) scale(0.7)"/>
      <use xlink:href="#DejaVuSans-2e" transform="translate(172.739258 39.046875) scale(0.7)"/>
      <use xlink:href="#DejaVuSans-30" transform="translate(194.990234 39.046875) scale(0.7)"/>
     </g>
    </g>
   </g>
   <g id="text_32">
    <!-- elapsed -->
    <g transform="translate(395.576133 114.01016) rotate(-87.378092) scale(0.1 -0.1)">
     <use xlink:href="#DejaVuSans-65"/>
     <use xlink:href="#DejaVuSans-6c" x="61.523438"/>
     <use xlink:href="#DejaVuSans-61" x="89.306641"/>
     <use xlink:href="#DejaVuSans-70" x="150.585938"/>
     <use xlink:href="#DejaVuSans-73" x="214.0625"/>
     <use xlink:href="#DejaVuSans-65" x="266.162109"/>
     <use xlink:href="#DejaVuSans-64" x="327.685547"/>
    </g>
   </g>
  </g>
  <g id="axes_2">
   <g id="Poly3DCollection_3">
    <path d="M 275.617088 115.90251 
L 290.561502 120.37439 
L 299.278803 112.688375 
L 284.512691 108.37677 
z
" clip-path="url(#p387155e6eb)" style="fill: #c30000"/>
    <path d="M 290.561502 120.37439 
L 305.828867 124.942908 
L 314.35815 117.091443 
L 299.278803 112.688375 
z
" clip-path="url(#p387155e6eb)" style="fill: #c30000"/>
    <path d="M 266.389484 123.709123 
L 281.515312 128.350385 
L 290.561502 120.37439 
L 275.617088 115.90251 
z
" clip-path="url(#p387155e6eb)" style="fill: #c30000"/>
    <path d="M 305.828867 124.942908 
L 321.429765 129.611231 
L 329.760806 121.588914 
L 314.35815 117.091443 
z
" clip-path="url(#p387155e6eb)" style="fill: #c30000"/>
    <path d="M 281.515312 128.350385 
L 296.974245 133.093858 
L 305.828867 124.942908 
L 290.561502 120.37439 
z
" clip-path="url(#p387155e6eb)" style="fill: #c30000"/>
    <path d="M 321.429765 129.611231 
L 337.375247 134.382665 
L 345.497282 126.183859 
L 329.760806 121.588914 
z
" clip-path="url(#p387155e6eb)" style="fill: #c30000"/>
    <path d="M 256.810942 131.812633 
L 272.121264 136.633085 
L 281.515312 128.350385 
L 266.389484 123.709123 
z
" clip-path="url(#p387155e6eb)" style="fill: #c30000"/>
    <path d="M 296.974245 133.093858 
L 312.777409 137.942956 
L 321.429765 129.611231 
L 305.828867 124.942908 
z
" clip-path="url(#p387155e6eb)" style="fill: #c30000"/>
    <path d="M 272.121264 136.633085 
L 287.775309 141.561759 
L 296.974245 133.093858 
L 281.515312 128.350385 
z
" clip-path="url(#p387155e6eb)" style="fill: #c30000"/>
    <path d="M 312.777409 137.942956 
L 328.93643 142.901246 
L 337.375247 134.382665 
L 321.429765 129.611231 
z
" clip-path="url(#p387155e6eb)" style="fill: #c30000"/>
    <path d="M 246.861052 140.230305 
L 262.358898 145.24053 
L 272.121264 136.633085 
L 256.810942 131.812633 
z
" clip-path="url(#p387155e6eb)" style="fill: #c30000"/>
    <path d="M 287.775309 141.561759 
L 303.784783 146.60234 
L 312.777409 137.942956 
L 296.974245 133.093858 
z
" clip-path="url(#p387155e6eb)" style="fill: #c30000"/>
    <path d="M 262.358898 145.24053 
L 278.211576 150.365466 
L 287.775309 141.561759 
L 272.121264 136.633085 
z
" clip-path="url(#p387155e6eb)" style="fill: #c30000"/>
    <path d="M 303.784783 146.60234 
L 320.161932 151.758683 
L 328.93643 142.901246 
L 312.777409 137.942956 
z
" clip-path="url(#p387155e6eb)" style="fill: #c30000"/>
    <path d="M 278.211576 150.365466 
L 294.431414 155.6091 
L 303.784783 146.60234 
L 287.775309 141.561759 
z
" clip-path="url(#p387155e6eb)" style="fill: #c30000"/>
    <path d="M 294.431414 155.6091 
L 311.031316 160.975603 
L 320.161932 151.758683 
L 303.784783 146.60234 
z
" clip-path="url(#p387155e6eb)" style="fill: #c30000"/>
   </g>
   <g id="text_33">
    <!-- graph+probability -->
    <g transform="translate(240.597188 37.432941) scale(0.12 -0.12)">
     <defs>
      <path id="DejaVuSans-67" d="M 2906 1791 
Q 2906 2416 2648 2759 
Q 2391 3103 1925 3103 
Q 1463 3103 1205 2759 
Q 947 2416 947 1791 
Q 947 1169 1205 825 
Q 1463 481 1925 481 
Q 2391 481 2648 825 
Q 2906 1169 2906 1791 
z
M 3481 434 
Q 3481 -459 3084 -895 
Q 2688 -1331 1869 -1331 
Q 1566 -1331 1297 -1286 
Q 1028 -1241 775 -1147 
L 775 -588 
Q 1028 -725 1275 -790 
Q 1522 -856 1778 -856 
Q 2344 -856 2625 -561 
Q 2906 -266 2906 331 
L 2906 616 
Q 2728 306 2450 153 
Q 2172 0 1784 0 
Q 1141 0 747 490 
Q 353 981 353 1791 
Q 353 2603 747 3093 
Q 1141 3584 1784 3584 
Q 2172 3584 2450 3431 
Q 2728 3278 2906 2969 
L 2906 3500 
L 3481 3500 
L 3481 434 
z
" transform="scale(0.015625)"/>
      <path id="DejaVuSans-68" d="M 3513 2113 
L 3513 0 
L 2938 0 
L 2938 2094 
Q 2938 2591 2744 2837 
Q 2550 3084 2163 3084 
Q 1697 3084 1428 2787 
Q 1159 2491 1159 1978 
L 1159 0 
L 581 0 
L 581 4863 
L 1159 4863 
L 1159 2956 
Q 1366 3272 1645 3428 
Q 1925 3584 2291 3584 
Q 2894 3584 3203 3211 
Q 3513 2838 3513 2113 
z
" transform="scale(0.015625)"/>
      <path id="DejaVuSans-2b" d="M 2944 4013 
L 2944 2272 
L 4684 2272 
L 4684 1741 
L 2944 1741 
L 2944 0 
L 2419 0 
L 2419 1741 
L 678 1741 
L 678 2272 
L 2419 2272 
L 2419 4013 
L 2944 4013 
z
" transform="scale(0.015625)"/>
      <path id="DejaVuSans-62" d="M 3116 1747 
Q 3116 2381 2855 2742 
Q 2594 3103 2138 3103 
Q 1681 3103 1420 2742 
Q 1159 2381 1159 1747 
Q 1159 1113 1420 752 
Q 1681 391 2138 391 
Q 2594 391 2855 752 
Q 3116 1113 3116 1747 
z
M 1159 2969 
Q 1341 3281 1617 3432 
Q 1894 3584 2278 3584 
Q 2916 3584 3314 3078 
Q 3713 2572 3713 1747 
Q 3713 922 3314 415 
Q 2916 -91 2278 -91 
Q 1894 -91 1617 61 
Q 1341 213 1159 525 
L 1159 0 
L 581 0 
L 581 4863 
L 1159 4863 
L 1159 2969 
z
" transform="scale(0.015625)"/>
      <path id="DejaVuSans-79" d="M 2059 -325 
Q 1816 -950 1584 -1140 
Q 1353 -1331 966 -1331 
L 506 -1331 
L 506 -850 
L 844 -850 
Q 1081 -850 1212 -737 
Q 1344 -625 1503 -206 
L 1606 56 
L 191 3500 
L 800 3500 
L 1894 763 
L 2988 3500 
L 3597 3500 
L 2059 -325 
z
" transform="scale(0.015625)"/>
     </defs>
     <use xlink:href="#DejaVuSans-67"/>
     <use xlink:href="#DejaVuSans-72" x="63.476562"/>
     <use xlink:href="#DejaVuSans-61" x="104.589844"/>
     <use xlink:href="#DejaVuSans-70" x="165.869141"/>
     <use xlink:href="#DejaVuSans-68" x="229.345703"/>
     <use xlink:href="#DejaVuSans-2b" x="292.724609"/>
     <use xlink:href="#DejaVuSans-70" x="376.513672"/>
     <use xlink:href="#DejaVuSans-72" x="439.990234"/>
     <use xlink:href="#DejaVuSans-6f" x="478.853516"/>
     <use xlink:href="#DejaVuSans-62" x="540.035156"/>
     <use xlink:href="#DejaVuSans-61" x="603.511719"/>
     <use xlink:href="#DejaVuSans-62" x="664.791016"/>
     <use xlink:href="#DejaVuSans-69" x="728.267578"/>
     <use xlink:href="#DejaVuSans-6c" x="756.050781"/>
     <use xlink:href="#DejaVuSans-69" x="783.833984"/>
     <use xlink:href="#DejaVuSans-74" x="811.617188"/>
     <use xlink:href="#DejaVuSans-79" x="850.826172"/>
    </g>
   </g>
   <g id="Poly3DCollection_4">
    <path d="M 275.617088 115.90251 
L 284.512691 108.37677 
L 299.278803 112.688375 
L 290.561502 120.37439 
z
" clip-path="url(#p387155e6eb)" style="fill: #2d1431"/>
    <path d="M 290.561502 120.37439 
L 299.278803 112.688375 
L 314.35815 117.091443 
L 305.828867 124.942908 
z
" clip-path="url(#p387155e6eb)" style="fill: #823d76"/>
    <path d="M 284.512691 108.37677 
L 283.999179 57.767 
L 299.374807 61.70493 
L 299.278803 112.688375 
z
" clip-path="url(#p387155e6eb)" style="fill: #231026"/>
    <path d="M 275.617088 115.90251 
L 274.720208 64.642722 
L 283.999179 57.767 
L 284.512691 108.37677 
z
" clip-path="url(#p387155e6eb)" style="fill: #4a2151"/>
    <path d="M 299.278803 112.688375 
L 299.348325 75.768182 
L 314.888307 79.901991 
L 314.35815 117.091443 
z
" clip-path="url(#p387155e6eb)" style="fill: #66305c"/>
    <path d="M 290.561502 120.37439 
L 290.364355 82.985901 
L 299.348325 75.768182 
L 299.278803 112.688375 
z
" clip-path="url(#p387155e6eb)" style="fill: #d866c4"/>
    <path d="M 314.35815 117.091443 
L 314.681753 94.391316 
L 330.377797 98.725492 
L 329.760806 121.588914 
z
" clip-path="url(#p387155e6eb)" style="fill: #32565b"/>
    <path d="M 305.828867 124.942908 
L 314.35815 117.091443 
L 329.760806 121.588914 
L 321.429765 129.611231 
z
" clip-path="url(#p387155e6eb)" style="fill: #416e75"/>
    <path d="M 305.828867 124.942908 
L 305.99684 101.958835 
L 314.681753 94.391316 
L 314.35815 117.091443 
z
" clip-path="url(#p387155e6eb)" style="fill: #6bb7c2"/>
    <path d="M 290.561502 120.37439 
L 299.278803 112.688375 
L 299.374807 61.70493 
L 290.289202 68.733277 
z
" clip-path="url(#p387155e6eb)" style="fill: #231026"/>
    <path d="M 281.515312 128.350385 
L 290.561502 120.37439 
L 305.828867 124.942908 
L 296.974245 133.093858 
z
" clip-path="url(#p387155e6eb)" style="fill: #597b64"/>
    <path d="M 275.617088 115.90251 
L 290.561502 120.37439 
L 290.289202 68.733277 
L 274.720208 64.642722 
z
" clip-path="url(#p387155e6eb)" style="fill: #4a2151"/>
    <path d="M 329.760806 121.588914 
L 330.283949 102.203149 
L 346.280042 106.658756 
L 345.497282 126.183859 
z
" clip-path="url(#p387155e6eb)" style="fill: #3a3d0d"/>
    <path d="M 305.828867 124.942908 
L 314.35815 117.091443 
L 314.888307 79.901991 
L 306.104117 87.27989 
z
" clip-path="url(#p387155e6eb)" style="fill: #66305c"/>
    <path d="M 321.429765 129.611231 
L 329.760806 121.588914 
L 345.497282 126.183859 
L 337.375247 134.382665 
z
" clip-path="url(#p387155e6eb)" style="fill: #4a4e10"/>
    <path d="M 321.429765 129.611231 
L 321.82748 109.983201 
L 330.283949 102.203149 
L 329.760806 121.588914 
z
" clip-path="url(#p387155e6eb)" style="fill: #7b821b"/>
    <path d="M 290.561502 120.37439 
L 305.828867 124.942908 
L 306.104117 87.27989 
L 290.364355 82.985901 
z
" clip-path="url(#p387155e6eb)" style="fill: #d866c4"/>
    <path d="M 321.429765 129.611231 
L 329.760806 121.588914 
L 330.377797 98.725492 
L 321.898853 106.46083 
z
" clip-path="url(#p387155e6eb)" style="fill: #32565b"/>
    <path d="M 305.99684 101.958835 
L 321.898853 106.46083 
L 330.377797 98.725492 
L 314.681753 94.391316 
z
" clip-path="url(#p387155e6eb)" style="fill: #5d9ea8"/>
    <path d="M 305.828867 124.942908 
L 321.429765 129.611231 
L 321.898853 106.46083 
L 305.99684 101.958835 
z
" clip-path="url(#p387155e6eb)" style="fill: #6bb7c2"/>
    <path d="M 296.974245 133.093858 
L 305.828867 124.942908 
L 321.429765 129.611231 
L 312.777409 137.942956 
z
" clip-path="url(#p387155e6eb)" style="fill: #061e23"/>
    <path d="M 290.561502 120.37439 
L 290.295109 69.853513 
L 306.200839 74.045137 
L 305.828867 124.942908 
z
" clip-path="url(#p387155e6eb)" style="fill: #46604e"/>
    <path d="M 290.364355 82.985901 
L 306.104117 87.27989 
L 314.888307 79.901991 
L 299.348325 75.768182 
z
" clip-path="url(#p387155e6eb)" style="fill: #bc58aa"/>
    <path d="M 274.720208 64.642722 
L 290.289202 68.733277 
L 299.374807 61.70493 
L 283.999179 57.767 
z
" clip-path="url(#p387155e6eb)" style="fill: #411d47"/>
    <path d="M 305.828867 124.942908 
L 306.020815 98.678267 
L 321.965822 103.155739 
L 321.429765 129.611231 
z
" clip-path="url(#p387155e6eb)" style="fill: #05181b"/>
    <path d="M 281.515312 128.350385 
L 280.860503 77.173954 
L 290.295109 69.853513 
L 290.561502 120.37439 
z
" clip-path="url(#p387155e6eb)" style="fill: #93cca6"/>
    <path d="M 296.974245 133.093858 
L 296.974245 106.497369 
L 306.020815 98.678267 
L 305.828867 124.942908 
z
" clip-path="url(#p387155e6eb)" style="fill: #0b323a"/>
    <path d="M 337.375247 134.382665 
L 345.497282 126.183859 
L 346.280042 106.658756 
L 338.039656 114.612772 
z
" clip-path="url(#p387155e6eb)" style="fill: #3a3d0d"/>
    <path d="M 321.82748 109.983201 
L 338.039656 114.612772 
L 346.280042 106.658756 
L 330.283949 102.203149 
z
" clip-path="url(#p387155e6eb)" style="fill: #6b7117"/>
    <path d="M 321.429765 129.611231 
L 337.375247 134.382665 
L 338.039656 114.612772 
L 321.82748 109.983201 
z
" clip-path="url(#p387155e6eb)" style="fill: #7b821b"/>
    <path d="M 321.429765 129.611231 
L 321.881268 107.328649 
L 338.129531 111.938489 
L 337.375247 134.382665 
z
" clip-path="url(#p387155e6eb)" style="fill: #1b1423"/>
    <path d="M 312.777409 137.942956 
L 321.429765 129.611231 
L 337.375247 134.382665 
L 328.93643 142.901246 
z
" clip-path="url(#p387155e6eb)" style="fill: #22192d"/>
    <path d="M 312.777409 137.942956 
L 313.074903 115.379428 
L 321.881268 107.328649 
L 321.429765 129.611231 
z
" clip-path="url(#p387155e6eb)" style="fill: #392a4a"/>
    <path d="M 296.974245 133.093858 
L 305.828867 124.942908 
L 306.200839 74.045137 
L 296.974245 81.533005 
z
" clip-path="url(#p387155e6eb)" style="fill: #46604e"/>
    <path d="M 312.777409 137.942956 
L 321.429765 129.611231 
L 321.965822 103.155739 
L 313.130639 111.152117 
z
" clip-path="url(#p387155e6eb)" style="fill: #05181b"/>
    <path d="M 287.775309 141.561759 
L 296.974245 133.093858 
L 312.777409 137.942956 
L 303.784783 146.60234 
z
" clip-path="url(#p387155e6eb)" style="fill: #311c7e"/>
    <path d="M 281.515312 128.350385 
L 296.974245 133.093858 
L 296.974245 81.533005 
L 280.860503 77.173954 
z
" clip-path="url(#p387155e6eb)" style="fill: #93cca6"/>
    <path d="M 296.974245 133.093858 
L 312.777409 137.942956 
L 313.130639 111.152117 
L 296.974245 106.497369 
z
" clip-path="url(#p387155e6eb)" style="fill: #0b323a"/>
    <path d="M 296.974245 106.497369 
L 313.130639 111.152117 
L 321.965822 103.155739 
L 306.020815 98.678267 
z
" clip-path="url(#p387155e6eb)" style="fill: #092c32"/>
    <path d="M 296.974245 133.093858 
L 296.974245 100.594586 
L 313.209057 105.204411 
L 312.777409 137.942956 
z
" clip-path="url(#p387155e6eb)" style="fill: #271663"/>
    <path d="M 328.93643 142.901246 
L 337.375247 134.382665 
L 338.129531 111.938489 
L 329.545021 120.173247 
z
" clip-path="url(#p387155e6eb)" style="fill: #1b1423"/>
    <path d="M 287.775309 141.561759 
L 287.521926 108.646456 
L 296.974245 100.594586 
L 296.974245 133.093858 
z
" clip-path="url(#p387155e6eb)" style="fill: #522fd1"/>
    <path d="M 313.074903 115.379428 
L 329.545021 120.173247 
L 338.129531 111.938489 
L 321.881268 107.328649 
z
" clip-path="url(#p387155e6eb)" style="fill: #312440"/>
    <path d="M 312.777409 137.942956 
L 328.93643 142.901246 
L 329.545021 120.173247 
L 313.074903 115.379428 
z
" clip-path="url(#p387155e6eb)" style="fill: #392a4a"/>
    <path d="M 280.860503 77.173954 
L 296.974245 81.533005 
L 306.200839 74.045137 
L 290.295109 69.853513 
z
" clip-path="url(#p387155e6eb)" style="fill: #80b190"/>
    <path d="M 303.784783 146.60234 
L 312.777409 137.942956 
L 328.93643 142.901246 
L 320.161932 151.758683 
z
" clip-path="url(#p387155e6eb)" style="fill: #4a2f37"/>
    <path d="M 312.777409 137.942956 
L 313.120197 111.944085 
L 329.637703 116.712018 
L 328.93643 142.901246 
z
" clip-path="url(#p387155e6eb)" style="fill: #3a252b"/>
    <path d="M 303.784783 146.60234 
L 303.935481 120.272539 
L 313.120197 111.944085 
L 312.777409 137.942956 
z
" clip-path="url(#p387155e6eb)" style="fill: #7b4e5b"/>
    <path d="M 303.784783 146.60234 
L 312.777409 137.942956 
L 313.209057 105.204411 
L 303.974567 113.44341 
z
" clip-path="url(#p387155e6eb)" style="fill: #271663"/>
    <path d="M 278.211576 150.365466 
L 287.775309 141.561759 
L 303.784783 146.60234 
L 294.431414 155.6091 
z
" clip-path="url(#p387155e6eb)" style="fill: #1e4946"/>
    <path d="M 287.775309 141.561759 
L 303.784783 146.60234 
L 303.974567 113.44341 
L 287.521926 108.646456 
z
" clip-path="url(#p387155e6eb)" style="fill: #522fd1"/>
    <path d="M 287.775309 141.561759 
L 287.462274 100.89741 
L 304.019264 105.633991 
L 303.784783 146.60234 
z
" clip-path="url(#p387155e6eb)" style="fill: #183936"/>
    <path d="M 287.521926 108.646456 
L 303.974567 113.44341 
L 313.209057 105.204411 
L 296.974245 100.594586 
z
" clip-path="url(#p387155e6eb)" style="fill: #4729b5"/>
    <path d="M 320.161932 151.758683 
L 328.93643 142.901246 
L 329.637703 116.712018 
L 320.681031 125.235202 
z
" clip-path="url(#p387155e6eb)" style="fill: #3a252b"/>
    <path d="M 278.211576 150.365466 
L 277.559994 109.172549 
L 287.462274 100.89741 
L 287.775309 141.561759 
z
" clip-path="url(#p387155e6eb)" style="fill: #327873"/>
    <path d="M 294.431414 155.6091 
L 303.784783 146.60234 
L 320.161932 151.758683 
L 311.031316 160.975603 
z
" clip-path="url(#p387155e6eb)" style="fill: #19477a"/>
    <path d="M 303.784783 146.60234 
L 320.161932 151.758683 
L 320.681031 125.235202 
L 303.935481 120.272539 
z
" clip-path="url(#p387155e6eb)" style="fill: #7b4e5b"/>
    <path d="M 303.935481 120.272539 
L 320.681031 125.235202 
L 329.637703 116.712018 
L 313.120197 111.944085 
z
" clip-path="url(#p387155e6eb)" style="fill: #6a444f"/>
    <path d="M 303.784783 146.60234 
L 303.958818 116.195035 
L 320.761444 121.126499 
L 320.161932 151.758683 
z
" clip-path="url(#p387155e6eb)" style="fill: #13375f"/>
    <path d="M 294.431414 155.6091 
L 294.365098 124.81088 
L 303.958818 116.195035 
L 303.784783 146.60234 
z
" clip-path="url(#p387155e6eb)" style="fill: #2975c9"/>
    <path d="M 294.431414 155.6091 
L 303.784783 146.60234 
L 304.019264 105.633991 
L 294.342049 114.106671 
z
" clip-path="url(#p387155e6eb)" style="fill: #183936"/>
    <path d="M 278.211576 150.365466 
L 294.431414 155.6091 
L 294.342049 114.106671 
L 277.559994 109.172549 
z
" clip-path="url(#p387155e6eb)" style="fill: #327873"/>
    <path d="M 311.031316 160.975603 
L 320.161932 151.758683 
L 320.761444 121.126499 
L 311.402328 129.948665 
z
" clip-path="url(#p387155e6eb)" style="fill: #13375f"/>
    <path d="M 277.559994 109.172549 
L 294.342049 114.106671 
L 304.019264 105.633991 
L 287.462274 100.89741 
z
" clip-path="url(#p387155e6eb)" style="fill: #2c6864"/>
    <path d="M 294.431414 155.6091 
L 311.031316 160.975603 
L 311.402328 129.948665 
L 294.365098 124.81088 
z
" clip-path="url(#p387155e6eb)" style="fill: #2975c9"/>
    <path d="M 294.365098 124.81088 
L 311.402328 129.948665 
L 320.761444 121.126499 
L 303.958818 116.195035 
z
" clip-path="url(#p387155e6eb)" style="fill: #2466af"/>
   </g>
  </g>
  <g id="patch_10">
   <path d="M 387.105882 174.727059 
L 518.4 174.727059 
L 518.4 43.432941 
L 387.105882 43.432941 
z
" style="fill: #ffffff"/>
  </g>
  <g id="pane3d_7">
   <g id="patch_11">
    <path d="M 397.019494 142.354137 
L 440.377099 106.010932 
L 439.774387 53.597534 
L 394.341896 86.752097 
" style="fill: #f2f2f2; opacity: 0.5; stroke: #f2f2f2; stroke-linejoin: miter"/>
   </g>
  </g>
  <g id="pane3d_8">
   <g id="patch_12">
    <path d="M 440.377099 106.010932 
L 509.950586 126.233198 
L 512.433418 72.014481 
L 439.774387 53.597534 
" style="fill: #e6e6e6; opacity: 0.5; stroke: #e6e6e6; stroke-linejoin: miter"/>
   </g>
  </g>
  <g id="pane3d_9">
   <g id="patch_13">
    <path d="M 397.019494 142.354137 
L 470.770788 166.44131 
L 509.950586 126.233198 
L 440.377099 106.010932 
" style="fill: #ececec; opacity: 0.5; stroke: #ececec; stroke-linejoin: miter"/>
   </g>
  </g>
  <g id="grid3d_7">
   <g id="Line3DCollection_7">
    <path d="M 401.486259 143.812983 
L 444.608346 107.240789 
L 444.184534 54.715378 
" style="fill: none; stroke: #b0b0b0; stroke-width: 0.8"/>
    <path d="M 417.025858 148.888215 
L 459.310941 111.514253 
L 459.517565 58.601855 
" style="fill: none; stroke: #b0b0b0; stroke-width: 0.8"/>
    <path d="M 432.922987 154.080218 
L 474.323502 115.877812 
L 475.18797 62.573845 
" style="fill: none; stroke: #b0b0b0; stroke-width: 0.8"/>
    <path d="M 449.19013 159.393067 
L 489.655936 120.334345 
L 491.207007 66.634204 
" style="fill: none; stroke: #b0b0b0; stroke-width: 0.8"/>
   </g>
  </g>
  <g id="grid3d_8">
   <g id="Line3DCollection_8">
    <path d="M 397.483666 84.459376 
L 400.007199 139.849783 
L 473.481727 163.659219 
" style="fill: none; stroke: #b0b0b0; stroke-width: 0.8"/>
    <path d="M 407.979988 76.799639 
L 410.000179 131.473469 
L 482.537009 154.366272 
" style="fill: none; stroke: #b0b0b0; stroke-width: 0.8"/>
    <path d="M 418.06877 69.437305 
L 419.621689 123.408529 
L 491.238266 145.436641 
" style="fill: none; stroke: #b0b0b0; stroke-width: 0.8"/>
    <path d="M 427.773295 62.355385 
L 428.892063 115.637918 
L 499.605861 136.849431 
" style="fill: none; stroke: #b0b0b0; stroke-width: 0.8"/>
   </g>
  </g>
  <g id="grid3d_9">
   <g id="Line3DCollection_9">
    <path d="M 509.998154 125.194428 
L 440.365528 105.004668 
L 396.968279 141.290624 
" style="fill: none; stroke: #b0b0b0; stroke-width: 0.8"/>
    <path d="M 510.870968 106.134405 
L 440.153378 86.555549 
L 396.027966 121.764413 
" style="fill: none; stroke: #b0b0b0; stroke-width: 0.8"/>
    <path d="M 511.771688 86.464989 
L 439.934775 67.545265 
L 395.056419 101.589626 
" style="fill: none; stroke: #b0b0b0; stroke-width: 0.8"/>
   </g>
  </g>
  <g id="axis3d_7">
   <g id="line2d_32">
    <path d="M 397.019494 142.354137 
L 470.770788 166.44131 
" style="fill: none; stroke: #000000; stroke-width: 0.8; stroke-linecap: square"/>
   </g>
   <g id="xtick_26">
    <g id="line2d_33">
     <path d="M 401.861764 143.494514 
L 400.733638 144.451286 
" style="fill: none; stroke: #000000; stroke-width: 0.8; stroke-linecap: square"/>
    </g>
    <g id="text_34">
     <!-- 0.005 -->
     <g transform="translate(379.614298 167.18233) scale(0.1 -0.1)">
      <use xlink:href="#DejaVuSans-30"/>
      <use xlink:href="#DejaVuSans-2e" x="63.623047"/>
      <use xlink:href="#DejaVuSans-30" x="95.410156"/>
      <use xlink:href="#DejaVuSans-30" x="159.033203"/>
      <use xlink:href="#DejaVuSans-35" x="222.65625"/>
     </g>
    </g>
   </g>
   <g id="xtick_27">
    <g id="line2d_34">
     <path d="M 417.394414 148.562464 
L 416.287145 149.541131 
" style="fill: none; stroke: #000000; stroke-width: 0.8; stroke-linecap: square"/>
    </g>
    <g id="text_35">
     <!-- 0.01 -->
     <g transform="translate(398.367408 172.477122) scale(0.1 -0.1)">
      <use xlink:href="#DejaVuSans-30"/>
      <use xlink:href="#DejaVuSans-2e" x="63.623047"/>
      <use xlink:href="#DejaVuSans-30" x="95.410156"/>
      <use xlink:href="#DejaVuSans-31" x="159.033203"/>
     </g>
    </g>
   </g>
   <g id="xtick_28">
    <g id="line2d_35">
     <path d="M 433.284174 153.746932 
L 432.199027 154.748253 
" style="fill: none; stroke: #000000; stroke-width: 0.8; stroke-linecap: square"/>
    </g>
    <g id="text_36">
     <!-- 0.05 -->
     <g transform="translate(414.300314 177.894679) scale(0.1 -0.1)">
      <use xlink:href="#DejaVuSans-30"/>
      <use xlink:href="#DejaVuSans-2e" x="63.623047"/>
      <use xlink:href="#DejaVuSans-30" x="95.410156"/>
      <use xlink:href="#DejaVuSans-35" x="159.033203"/>
     </g>
    </g>
   </g>
   <g id="xtick_29">
    <g id="line2d_36">
     <path d="M 449.543503 159.051981 
L 448.481814 160.076753 
" style="fill: none; stroke: #000000; stroke-width: 0.8; stroke-linecap: square"/>
    </g>
    <g id="text_37">
     <!-- 0.1 -->
     <g transform="translate(433.78822 183.439319) scale(0.1 -0.1)">
      <use xlink:href="#DejaVuSans-30"/>
      <use xlink:href="#DejaVuSans-2e" x="63.623047"/>
      <use xlink:href="#DejaVuSans-31" x="95.410156"/>
     </g>
    </g>
   </g>
   <g id="text_38">
    <!-- support -->
    <g transform="translate(397.386452 186.318757) rotate(-341.912962) scale(0.1 -0.1)">
     <use xlink:href="#DejaVuSans-73"/>
     <use xlink:href="#DejaVuSans-75" x="52.099609"/>
     <use xlink:href="#DejaVuSans-70" x="115.478516"/>
     <use xlink:href="#DejaVuSans-70" x="178.955078"/>
     <use xlink:href="#DejaVuSans-6f" x="242.431641"/>
     <use xlink:href="#DejaVuSans-72" x="303.613281"/>
     <use xlink:href="#DejaVuSans-74" x="344.726562"/>
    </g>
   </g>
  </g>
  <g id="axis3d_8">
   <g id="line2d_37">
    <path d="M 509.950586 126.233198 
L 470.770788 166.44131 
" style="fill: none; stroke: #000000; stroke-width: 0.8; stroke-linecap: square"/>
   </g>
   <g id="xtick_30">
    <g id="line2d_38">
     <path d="M 472.862555 163.458577 
L 474.721672 164.061024 
" style="fill: none; stroke: #000000; stroke-width: 0.8; stroke-linecap: square"/>
    </g>
    <g id="text_39">
     <!-- 1000 -->
     <g transform="translate(473.645285 184.689208) scale(0.1 -0.1)">
      <use xlink:href="#DejaVuSans-31"/>
      <use xlink:href="#DejaVuSans-30" x="63.623047"/>
      <use xlink:href="#DejaVuSans-30" x="127.246094"/>
      <use xlink:href="#DejaVuSans-30" x="190.869141"/>
     </g>
    </g>
   </g>
   <g id="xtick_31">
    <g id="line2d_39">
     <path d="M 481.926357 154.173548 
L 483.759863 154.752207 
" style="fill: none; stroke: #000000; stroke-width: 0.8; stroke-linecap: square"/>
    </g>
    <g id="text_40">
     <!-- 2000 -->
     <g transform="translate(482.45407 175.117086) scale(0.1 -0.1)">
      <use xlink:href="#DejaVuSans-32"/>
      <use xlink:href="#DejaVuSans-30" x="63.623047"/>
      <use xlink:href="#DejaVuSans-30" x="127.246094"/>
      <use xlink:href="#DejaVuSans-30" x="190.869141"/>
     </g>
    </g>
   </g>
   <g id="xtick_32">
    <g id="line2d_40">
     <path d="M 490.635946 145.251378 
L 492.444403 145.80763 
" style="fill: none; stroke: #000000; stroke-width: 0.8; stroke-linecap: square"/>
    </g>
    <g id="text_41">
     <!-- 5000 -->
     <g transform="translate(490.918064 165.919634) scale(0.1 -0.1)">
      <use xlink:href="#DejaVuSans-35"/>
      <use xlink:href="#DejaVuSans-30" x="63.623047"/>
      <use xlink:href="#DejaVuSans-30" x="127.246094"/>
      <use xlink:href="#DejaVuSans-30" x="190.869141"/>
     </g>
    </g>
   </g>
   <g id="xtick_33">
    <g id="line2d_41">
     <path d="M 499.01169 136.671202 
L 500.795651 137.206324 
" style="fill: none; stroke: #000000; stroke-width: 0.8; stroke-linecap: square"/>
    </g>
    <g id="text_42">
     <!-- 10000 -->
     <g transform="translate(495.875873 157.075275) scale(0.1 -0.1)">
      <use xlink:href="#DejaVuSans-31"/>
      <use xlink:href="#DejaVuSans-30" x="63.623047"/>
      <use xlink:href="#DejaVuSans-30" x="127.246094"/>
      <use xlink:href="#DejaVuSans-30" x="190.869141"/>
      <use xlink:href="#DejaVuSans-30" x="254.492188"/>
     </g>
    </g>
   </g>
   <g id="text_43">
    <!-- window -->
    <g transform="translate(506.979859 188.99679) rotate(-45.742112) scale(0.1 -0.1)">
     <use xlink:href="#DejaVuSans-77"/>
     <use xlink:href="#DejaVuSans-69" x="81.787109"/>
     <use xlink:href="#DejaVuSans-6e" x="109.570312"/>
     <use xlink:href="#DejaVuSans-64" x="172.949219"/>
     <use xlink:href="#DejaVuSans-6f" x="236.425781"/>
     <use xlink:href="#DejaVuSans-77" x="297.607422"/>
    </g>
   </g>
  </g>
  <g id="axis3d_9">
   <g id="line2d_42">
    <path d="M 509.950586 126.233198 
L 512.433418 72.014481 
" style="fill: none; stroke: #000000; stroke-width: 0.8; stroke-linecap: square"/>
   </g>
   <g id="xtick_34">
    <g id="line2d_43">
     <path d="M 509.413721 125.024973 
L 511.168411 125.53374 
" style="fill: none; stroke: #000000; stroke-width: 0.8; stroke-linecap: square"/>
    </g>
    <g id="text_44">
     <!-- $10^{0.0}$ -->
     <g transform="translate(516.056015 130.199946) scale(0.1 -0.1)">
      <use xlink:href="#DejaVuSans-31" transform="translate(0 0.765625)"/>
      <use xlink:href="#DejaVuSans-30" transform="translate(63.623047 0.765625)"/>
      <use xlink:href="#DejaVuSans-30" transform="translate(128.203125 39.046875) scale(0.7)"/>
      <use xlink:href="#DejaVuSans-2e" transform="translate(172.739258 39.046875) scale(0.7)"/>
      <use xlink:href="#DejaVuSans-30" transform="translate(194.990234 39.046875) scale(0.7)"/>
     </g>
    </g>
   </g>
   <g id="xtick_35">
    <g id="line2d_44">
     <path d="M 510.276992 105.969957 
L 512.060357 106.463699 
" style="fill: none; stroke: #000000; stroke-width: 0.8; stroke-linecap: square"/>
    </g>
    <g id="text_45">
     <!-- $10^{1.0}$ -->
     <g transform="translate(517.208183 111.216752) scale(0.1 -0.1)">
      <use xlink:href="#DejaVuSans-31" transform="translate(0 0.765625)"/>
      <use xlink:href="#DejaVuSans-30" transform="translate(63.623047 0.765625)"/>
      <use xlink:href="#DejaVuSans-31" transform="translate(128.203125 39.046875) scale(0.7)"/>
      <use xlink:href="#DejaVuSans-2e" transform="translate(172.739258 39.046875) scale(0.7)"/>
      <use xlink:href="#DejaVuSans-30" transform="translate(194.990234 39.046875) scale(0.7)"/>
     </g>
    </g>
   </g>
   <g id="xtick_36">
    <g id="line2d_45">
     <path d="M 511.167851 86.305957 
L 512.980844 86.783445 
" style="fill: none; stroke: #000000; stroke-width: 0.8; stroke-linecap: square"/>
    </g>
    <g id="text_46">
     <!-- $10^{2.0}$ -->
     <g transform="translate(518.396958 91.630419) scale(0.1 -0.1)">
      <use xlink:href="#DejaVuSans-31" transform="translate(0 0.765625)"/>
      <use xlink:href="#DejaVuSans-30" transform="translate(63.623047 0.765625)"/>
      <use xlink:href="#DejaVuSans-32" transform="translate(128.203125 39.046875) scale(0.7)"/>
      <use xlink:href="#DejaVuSans-2e" transform="translate(172.739258 39.046875) scale(0.7)"/>
      <use xlink:href="#DejaVuSans-30" transform="translate(194.990234 39.046875) scale(0.7)"/>
     </g>
    </g>
   </g>
   <g id="text_47">
    <!-- elapsed -->
    <g transform="translate(553.129074 114.01016) rotate(-87.378092) scale(0.1 -0.1)">
     <use xlink:href="#DejaVuSans-65"/>
     <use xlink:href="#DejaVuSans-6c" x="61.523438"/>
     <use xlink:href="#DejaVuSans-61" x="89.306641"/>
     <use xlink:href="#DejaVuSans-70" x="150.585938"/>
     <use xlink:href="#DejaVuSans-73" x="214.0625"/>
     <use xlink:href="#DejaVuSans-65" x="266.162109"/>
     <use xlink:href="#DejaVuSans-64" x="327.685547"/>
    </g>
   </g>
  </g>
  <g id="axes_3">
   <g id="Poly3DCollection_5">
    <path d="M 433.170029 115.90251 
L 448.114443 120.37439 
L 456.831744 112.688375 
L 442.065632 108.37677 
z
" clip-path="url(#p8380db8244)" style="fill: #c30000"/>
    <path d="M 448.114443 120.37439 
L 463.381808 124.942908 
L 471.911091 117.091443 
L 456.831744 112.688375 
z
" clip-path="url(#p8380db8244)" style="fill: #c30000"/>
    <path d="M 423.942426 123.709123 
L 439.068253 128.350385 
L 448.114443 120.37439 
L 433.170029 115.90251 
z
" clip-path="url(#p8380db8244)" style="fill: #c30000"/>
    <path d="M 463.381808 124.942908 
L 478.982706 129.611231 
L 487.313748 121.588914 
L 471.911091 117.091443 
z
" clip-path="url(#p8380db8244)" style="fill: #c30000"/>
    <path d="M 439.068253 128.350385 
L 454.527186 133.093858 
L 463.381808 124.942908 
L 448.114443 120.37439 
z
" clip-path="url(#p8380db8244)" style="fill: #c30000"/>
    <path d="M 478.982706 129.611231 
L 494.928188 134.382665 
L 503.050223 126.183859 
L 487.313748 121.588914 
z
" clip-path="url(#p8380db8244)" style="fill: #c30000"/>
    <path d="M 414.363883 131.812633 
L 429.674205 136.633085 
L 439.068253 128.350385 
L 423.942426 123.709123 
z
" clip-path="url(#p8380db8244)" style="fill: #c30000"/>
    <path d="M 454.527186 133.093858 
L 470.33035 137.942956 
L 478.982706 129.611231 
L 463.381808 124.942908 
z
" clip-path="url(#p8380db8244)" style="fill: #c30000"/>
    <path d="M 429.674205 136.633085 
L 445.32825 141.561759 
L 454.527186 133.093858 
L 439.068253 128.350385 
z
" clip-path="url(#p8380db8244)" style="fill: #c30000"/>
    <path d="M 470.33035 137.942956 
L 486.489372 142.901246 
L 494.928188 134.382665 
L 478.982706 129.611231 
z
" clip-path="url(#p8380db8244)" style="fill: #c30000"/>
    <path d="M 404.413993 140.230305 
L 419.911839 145.24053 
L 429.674205 136.633085 
L 414.363883 131.812633 
z
" clip-path="url(#p8380db8244)" style="fill: #c30000"/>
    <path d="M 445.32825 141.561759 
L 461.337725 146.60234 
L 470.33035 137.942956 
L 454.527186 133.093858 
z
" clip-path="url(#p8380db8244)" style="fill: #c30000"/>
    <path d="M 419.911839 145.24053 
L 435.764518 150.365466 
L 445.32825 141.561759 
L 429.674205 136.633085 
z
" clip-path="url(#p8380db8244)" style="fill: #c30000"/>
    <path d="M 461.337725 146.60234 
L 477.714873 151.758683 
L 486.489372 142.901246 
L 470.33035 137.942956 
z
" clip-path="url(#p8380db8244)" style="fill: #c30000"/>
    <path d="M 435.764518 150.365466 
L 451.984355 155.6091 
L 461.337725 146.60234 
L 445.32825 141.561759 
z
" clip-path="url(#p8380db8244)" style="fill: #c30000"/>
    <path d="M 451.984355 155.6091 
L 468.584257 160.975603 
L 477.714873 151.758683 
L 461.337725 146.60234 
z
" clip-path="url(#p8380db8244)" style="fill: #c30000"/>
   </g>
   <g id="text_48">
    <!-- graph -->
    <g transform="translate(435.188879 37.432941) scale(0.12 -0.12)">
     <use xlink:href="#DejaVuSans-67"/>
     <use xlink:href="#DejaVuSans-72" x="63.476562"/>
     <use xlink:href="#DejaVuSans-61" x="104.589844"/>
     <use xlink:href="#DejaVuSans-70" x="165.869141"/>
     <use xlink:href="#DejaVuSans-68" x="229.345703"/>
    </g>
   </g>
   <g id="Poly3DCollection_6">
    <path d="M 433.170029 115.90251 
L 442.065632 108.37677 
L 456.831744 112.688375 
L 448.114443 120.37439 
z
" clip-path="url(#p8380db8244)" style="fill: #5b1114"/>
    <path d="M 448.114443 120.37439 
L 456.831744 112.688375 
L 471.911091 117.091443 
L 463.381808 124.942908 
z
" clip-path="url(#p8380db8244)" style="fill: #023031"/>
    <path d="M 442.065632 108.37677 
L 441.55212 57.767 
L 456.927748 61.70493 
L 456.831744 112.688375 
z
" clip-path="url(#p8380db8244)" style="fill: #470d10"/>
    <path d="M 433.170029 115.90251 
L 432.27315 64.642722 
L 441.55212 57.767 
L 442.065632 108.37677 
z
" clip-path="url(#p8380db8244)" style="fill: #971c21"/>
    <path d="M 456.831744 112.688375 
L 456.904078 74.275068 
L 472.462695 78.397487 
L 471.911091 117.091443 
z
" clip-path="url(#p8380db8244)" style="fill: #022626"/>
    <path d="M 448.114443 120.37439 
L 447.909319 81.472969 
L 456.904078 74.275068 
L 456.831744 112.688375 
z
" clip-path="url(#p8380db8244)" style="fill: #035051"/>
    <path d="M 471.911091 117.091443 
L 472.231833 94.592069 
L 487.925281 98.927729 
L 487.313748 121.588914 
z
" clip-path="url(#p8380db8244)" style="fill: #404935"/>
    <path d="M 463.381808 124.942908 
L 471.911091 117.091443 
L 487.313748 121.588914 
L 478.982706 129.611231 
z
" clip-path="url(#p8380db8244)" style="fill: #525e43"/>
    <path d="M 463.381808 124.942908 
L 463.548295 102.162169 
L 472.231833 94.592069 
L 471.911091 117.091443 
z
" clip-path="url(#p8380db8244)" style="fill: #889c6f"/>
    <path d="M 448.114443 120.37439 
L 456.831744 112.688375 
L 456.927748 61.70493 
L 447.842143 68.733277 
z
" clip-path="url(#p8380db8244)" style="fill: #470d10"/>
    <path d="M 439.068253 128.350385 
L 448.114443 120.37439 
L 463.381808 124.942908 
L 454.527186 133.093858 
z
" clip-path="url(#p8380db8244)" style="fill: #672d70"/>
    <path d="M 433.170029 115.90251 
L 448.114443 120.37439 
L 447.842143 68.733277 
L 432.27315 64.642722 
z
" clip-path="url(#p8380db8244)" style="fill: #971c21"/>
    <path d="M 487.313748 121.588914 
L 487.908762 99.539868 
L 503.940543 103.975805 
L 503.050223 126.183859 
z
" clip-path="url(#p8380db8244)" style="fill: #3e0905"/>
    <path d="M 463.381808 124.942908 
L 471.911091 117.091443 
L 472.462695 78.397487 
L 463.6682 85.755323 
z
" clip-path="url(#p8380db8244)" style="fill: #022626"/>
    <path d="M 478.982706 129.611231 
L 487.313748 121.588914 
L 503.050223 126.183859 
L 494.928188 134.382665 
z
" clip-path="url(#p8380db8244)" style="fill: #500b07"/>
    <path d="M 448.114443 120.37439 
L 463.381808 124.942908 
L 463.6682 85.755323 
L 447.909319 81.472969 
z
" clip-path="url(#p8380db8244)" style="fill: #035051"/>
    <path d="M 478.982706 129.611231 
L 479.43508 107.285711 
L 487.908762 99.539868 
L 487.313748 121.588914 
z
" clip-path="url(#p8380db8244)" style="fill: #84120b"/>
    <path d="M 478.982706 129.611231 
L 487.313748 121.588914 
L 487.925281 98.927729 
L 479.447643 106.665677 
z
" clip-path="url(#p8380db8244)" style="fill: #404935"/>
    <path d="M 448.114443 120.37439 
L 447.857419 71.630314 
L 463.740693 75.835968 
L 463.381808 124.942908 
z
" clip-path="url(#p8380db8244)" style="fill: #512358"/>
    <path d="M 463.548295 102.162169 
L 479.447643 106.665677 
L 487.925281 98.927729 
L 472.231833 94.592069 
z
" clip-path="url(#p8380db8244)" style="fill: #768761"/>
    <path d="M 463.381808 124.942908 
L 478.982706 129.611231 
L 479.447643 106.665677 
L 463.548295 102.162169 
z
" clip-path="url(#p8380db8244)" style="fill: #889c6f"/>
    <path d="M 454.527186 133.093858 
L 463.381808 124.942908 
L 478.982706 129.611231 
L 470.33035 137.942956 
z
" clip-path="url(#p8380db8244)" style="fill: #0c286a"/>
    <path d="M 432.27315 64.642722 
L 447.842143 68.733277 
L 456.927748 61.70493 
L 441.55212 57.767 
z
" clip-path="url(#p8380db8244)" style="fill: #83181d"/>
    <path d="M 463.381808 124.942908 
L 463.571135 99.036856 
L 479.511443 103.517018 
L 478.982706 129.611231 
z
" clip-path="url(#p8380db8244)" style="fill: #091f53"/>
    <path d="M 447.909319 81.472969 
L 463.6682 85.755323 
L 472.462695 78.397487 
L 456.904078 74.275068 
z
" clip-path="url(#p8380db8244)" style="fill: #034646"/>
    <path d="M 439.068253 128.350385 
L 438.436491 78.975172 
L 447.857419 71.630314 
L 448.114443 120.37439 
z
" clip-path="url(#p8380db8244)" style="fill: #ab4bba"/>
    <path d="M 454.527186 133.093858 
L 454.527186 106.860637 
L 463.571135 99.036856 
L 463.381808 124.942908 
z
" clip-path="url(#p8380db8244)" style="fill: #1342b0"/>
    <path d="M 494.928188 134.382665 
L 503.050223 126.183859 
L 503.940543 103.975805 
L 495.683926 111.89523 
z
" clip-path="url(#p8380db8244)" style="fill: #3e0905"/>
    <path d="M 479.43508 107.285711 
L 495.683926 111.89523 
L 503.940543 103.975805 
L 487.908762 99.539868 
z
" clip-path="url(#p8380db8244)" style="fill: #73100a"/>
    <path d="M 478.982706 129.611231 
L 494.928188 134.382665 
L 495.683926 111.89523 
L 479.43508 107.285711 
z
" clip-path="url(#p8380db8244)" style="fill: #84120b"/>
    <path d="M 478.982706 129.611231 
L 479.451428 106.478863 
L 495.711244 111.082358 
L 494.928188 134.382665 
z
" clip-path="url(#p8380db8244)" style="fill: #321e3c"/>
    <path d="M 470.33035 137.942956 
L 478.982706 129.611231 
L 494.928188 134.382665 
L 486.489372 142.901246 
z
" clip-path="url(#p8380db8244)" style="fill: #41264d"/>
    <path d="M 454.527186 133.093858 
L 463.381808 124.942908 
L 463.740693 75.835968 
L 454.527186 83.34857 
z
" clip-path="url(#p8380db8244)" style="fill: #512358"/>
    <path d="M 470.33035 137.942956 
L 470.639193 114.518609 
L 479.451428 106.478863 
L 478.982706 129.611231 
z
" clip-path="url(#p8380db8244)" style="fill: #6b3f80"/>
    <path d="M 470.33035 137.942956 
L 478.982706 129.611231 
L 479.511443 103.517018 
L 470.678754 111.518128 
z
" clip-path="url(#p8380db8244)" style="fill: #091f53"/>
    <path d="M 439.068253 128.350385 
L 454.527186 133.093858 
L 454.527186 83.34857 
L 438.436491 78.975172 
z
" clip-path="url(#p8380db8244)" style="fill: #ab4bba"/>
    <path d="M 445.32825 141.561759 
L 454.527186 133.093858 
L 470.33035 137.942956 
L 461.337725 146.60234 
z
" clip-path="url(#p8380db8244)" style="fill: #3f366e"/>
    <path d="M 454.527186 133.093858 
L 470.33035 137.942956 
L 470.678754 111.518128 
L 454.527186 106.860637 
z
" clip-path="url(#p8380db8244)" style="fill: #1342b0"/>
    <path d="M 454.527186 106.860637 
L 470.678754 111.518128 
L 479.511443 103.517018 
L 463.571135 99.036856 
z
" clip-path="url(#p8380db8244)" style="fill: #113999"/>
    <path d="M 454.527186 133.093858 
L 454.527186 101.402344 
L 470.751267 106.018355 
L 470.33035 137.942956 
z
" clip-path="url(#p8380db8244)" style="fill: #312a56"/>
    <path d="M 486.489372 142.901246 
L 494.928188 134.382665 
L 495.711244 111.082358 
L 487.121186 119.305963 
z
" clip-path="url(#p8380db8244)" style="fill: #321e3c"/>
    <path d="M 445.32825 141.561759 
L 445.081169 109.464974 
L 454.527186 101.402344 
L 454.527186 133.093858 
z
" clip-path="url(#p8380db8244)" style="fill: #695ab6"/>
    <path d="M 438.436491 78.975172 
L 454.527186 83.34857 
L 463.740693 75.835968 
L 447.857419 71.630314 
z
" clip-path="url(#p8380db8244)" style="fill: #9441a1"/>
    <path d="M 470.639193 114.518609 
L 487.121186 119.305963 
L 495.711244 111.082358 
L 479.451428 106.478863 
z
" clip-path="url(#p8380db8244)" style="fill: #5d376f"/>
    <path d="M 470.33035 137.942956 
L 486.489372 142.901246 
L 487.121186 119.305963 
L 470.639193 114.518609 
z
" clip-path="url(#p8380db8244)" style="fill: #6b3f80"/>
    <path d="M 461.337725 146.60234 
L 470.33035 137.942956 
L 486.489372 142.901246 
L 477.714873 151.758683 
z
" clip-path="url(#p8380db8244)" style="fill: #607d0c"/>
    <path d="M 470.33035 137.942956 
L 470.670611 112.135713 
L 487.185474 116.905096 
L 486.489372 142.901246 
z
" clip-path="url(#p8380db8244)" style="fill: #4b6209"/>
    <path d="M 461.337725 146.60234 
L 461.487311 120.466688 
L 470.670611 112.135713 
L 470.33035 137.942956 
z
" clip-path="url(#p8380db8244)" style="fill: #9fcf14"/>
    <path d="M 461.337725 146.60234 
L 470.33035 137.942956 
L 470.751267 106.018355 
L 461.522787 114.268237 
z
" clip-path="url(#p8380db8244)" style="fill: #312a56"/>
    <path d="M 435.764518 150.365466 
L 445.32825 141.561759 
L 461.337725 146.60234 
L 451.984355 155.6091 
z
" clip-path="url(#p8380db8244)" style="fill: #205c1f"/>
    <path d="M 445.32825 141.561759 
L 461.337725 146.60234 
L 461.522787 114.268237 
L 445.081169 109.464974 
z
" clip-path="url(#p8380db8244)" style="fill: #695ab6"/>
    <path d="M 445.32825 141.561759 
L 445.02255 101.850235 
L 461.566708 106.594301 
L 461.337725 146.60234 
z
" clip-path="url(#p8380db8244)" style="fill: #194819"/>
    <path d="M 445.081169 109.464974 
L 461.522787 114.268237 
L 470.751267 106.018355 
L 454.527186 101.402344 
z
" clip-path="url(#p8380db8244)" style="fill: #5b4e9e"/>
    <path d="M 477.714873 151.758683 
L 486.489372 142.901246 
L 487.185474 116.905096 
L 478.230144 125.430829 
z
" clip-path="url(#p8380db8244)" style="fill: #4b6209"/>
    <path d="M 435.764518 150.365466 
L 435.128213 110.138395 
L 445.02255 101.850235 
L 445.32825 141.561759 
z
" clip-path="url(#p8380db8244)" style="fill: #359834"/>
    <path d="M 451.984355 155.6091 
L 461.337725 146.60234 
L 477.714873 151.758683 
L 468.584257 160.975603 
z
" clip-path="url(#p8380db8244)" style="fill: #6a0f25"/>
    <path d="M 461.337725 146.60234 
L 477.714873 151.758683 
L 478.230144 125.430829 
L 461.487311 120.466688 
z
" clip-path="url(#p8380db8244)" style="fill: #9fcf14"/>
    <path d="M 461.487311 120.466688 
L 478.230144 125.430829 
L 487.185474 116.905096 
L 470.670611 112.135713 
z
" clip-path="url(#p8380db8244)" style="fill: #8ab411"/>
    <path d="M 461.337725 146.60234 
L 461.509582 116.575358 
L 478.306884 121.509746 
L 477.714873 151.758683 
z
" clip-path="url(#p8380db8244)" style="fill: #530c1d"/>
    <path d="M 451.984355 155.6091 
L 451.918869 125.196287 
L 461.509582 116.575358 
L 461.337725 146.60234 
z
" clip-path="url(#p8380db8244)" style="fill: #b0183e"/>
    <path d="M 451.984355 155.6091 
L 461.337725 146.60234 
L 461.566708 106.594301 
L 451.897087 115.080156 
z
" clip-path="url(#p8380db8244)" style="fill: #194819"/>
    <path d="M 435.764518 150.365466 
L 451.984355 155.6091 
L 451.897087 115.080156 
L 435.128213 110.138395 
z
" clip-path="url(#p8380db8244)" style="fill: #359834"/>
    <path d="M 468.584257 160.975603 
L 477.714873 151.758683 
L 478.306884 121.509746 
L 468.950625 130.337052 
z
" clip-path="url(#p8380db8244)" style="fill: #530c1d"/>
    <path d="M 435.128213 110.138395 
L 451.897087 115.080156 
L 461.566708 106.594301 
L 445.02255 101.850235 
z
" clip-path="url(#p8380db8244)" style="fill: #2e842d"/>
    <path d="M 451.984355 155.6091 
L 468.584257 160.975603 
L 468.950625 130.337052 
L 451.918869 125.196287 
z
" clip-path="url(#p8380db8244)" style="fill: #b0183e"/>
    <path d="M 451.918869 125.196287 
L 468.950625 130.337052 
L 478.306884 121.509746 
L 461.509582 116.575358 
z
" clip-path="url(#p8380db8244)" style="fill: #991536"/>
   </g>
  </g>
 </g>
 <defs>
  <clipPath id="p2c02e09dcd">
   <rect x="72" y="43.432941" width="131.294118" height="131.294118"/>
  </clipPath>
  <clipPath id="p387155e6eb">
   <rect x="229.552941" y="43.432941" width="131.294118" height="131.294118"/>
  </clipPath>
  <clipPath id="p8380db8244">
   <rect x="387.105882" y="43.432941" width="131.294118" height="131.294118"/>
  </clipPath>
 </defs>
</svg>
