<?xml version="1.0" encoding="utf-8" standalone="no"?>
<!DOCTYPE svg PUBLIC "-//W3C//DTD SVG 1.1//EN"
  "http://www.w3.org/Graphics/SVG/1.1/DTD/svg11.dtd">
<svg xmlns:xlink="http://www.w3.org/1999/xlink" width="576pt" height="216pt" viewBox="0 0 576 216" xmlns="http://www.w3.org/2000/svg" version="1.1">
 <metadata>
  <rdf:RDF xmlns:dc="http://purl.org/dc/elements/1.1/" xmlns:cc="http://creativecommons.org/ns#" xmlns:rdf="http://www.w3.org/1999/02/22-rdf-syntax-ns#">
   <cc:Work>
    <dc:type rdf:resource="http://purl.org/dc/dcmitype/StillImage"/>
    <dc:date>2025-08-13T11:03:44.030333</dc:date>
    <dc:format>image/svg+xml</dc:format>
    <dc:creator>
     <cc:Agent>
      <dc:title>Matplotlib v3.9.0, https://matplotlib.org/</dc:title>
     </cc:Agent>
    </dc:creator>
   </cc:Work>
  </rdf:RDF>
 </metadata>
 <defs>
  <style type="text/css">*{stroke-linejoin: round; stroke-linecap: butt}</style>
 </defs>
 <g id="figure_1">
  <g id="patch_1">
   <path d="M 0 216 
L 576 216 
L 576 0 
L 0 0 
z
" style="fill: #ffffff"/>
  </g>
  <g id="patch_2">
   <path d="M 188.452174 157.601739 
L 285.495652 157.601739 
L 285.495652 60.558261 
L 188.452174 60.558261 
z
" style="fill: #ffffff"/>
  </g>
  <g id="pane3d_1">
   <g id="patch_3">
    <path d="M 195.779626 133.673927 
L 227.826552 106.811559 
L 227.381069 68.071221 
L 193.800532 92.576767 
" style="fill: #f2f2f2; opacity: 0.5; stroke: #f2f2f2; stroke-linejoin: miter"/>
   </g>
  </g>
  <g id="pane3d_2">
   <g id="patch_4">
    <path d="M 227.826552 106.811559 
L 279.250433 121.758451 
L 281.08557 81.683747 
L 227.381069 68.071221 
" style="fill: #e6e6e6; opacity: 0.5; stroke: #e6e6e6; stroke-linejoin: miter"/>
   </g>
  </g>
  <g id="pane3d_3">
   <g id="patch_5">
    <path d="M 195.779626 133.673927 
L 250.291452 151.47749 
L 279.250433 121.758451 
L 227.826552 106.811559 
" style="fill: #ececec; opacity: 0.5; stroke: #ececec; stroke-linejoin: miter"/>
   </g>
  </g>
  <g id="grid3d_1">
   <g id="Line3DCollection_1">
    <path d="M 199.081148 134.752205 
L 230.953995 107.720583 
L 230.640742 68.897453 
" style="fill: none; stroke: #b0b0b0; stroke-width: 0.8"/>
    <path d="M 210.566938 138.503464 
L 241.82113 110.87923 
L 241.973853 71.770066 
" style="fill: none; stroke: #b0b0b0; stroke-width: 0.8"/>
    <path d="M 222.31699 142.341031 
L 252.917371 114.104469 
L 253.556326 74.705886 
" style="fill: none; stroke: #b0b0b0; stroke-width: 0.8"/>
    <path d="M 234.340531 146.267919 
L 264.25004 117.398429 
L 265.396483 77.70702 
" style="fill: none; stroke: #b0b0b0; stroke-width: 0.8"/>
   </g>
  </g>
  <g id="grid3d_2">
   <g id="Line3DCollection_2">
    <path d="M 196.122709 90.882148 
L 197.98793 131.822883 
L 252.295189 149.421162 
" style="fill: none; stroke: #b0b0b0; stroke-width: 0.8"/>
    <path d="M 203.880861 85.220602 
L 205.374046 125.631695 
L 258.988224 142.552462 
" style="fill: none; stroke: #b0b0b0; stroke-width: 0.8"/>
    <path d="M 211.337787 79.778878 
L 212.485596 119.670652 
L 265.419588 135.9523 
" style="fill: none; stroke: #b0b0b0; stroke-width: 0.8"/>
    <path d="M 218.510696 74.544415 
L 219.337612 113.927157 
L 271.604332 129.605231 
" style="fill: none; stroke: #b0b0b0; stroke-width: 0.8"/>
   </g>
  </g>
  <g id="grid3d_3">
   <g id="Line3DCollection_3">
    <path d="M 279.250433 121.758451 
L 227.826552 106.811559 
L 195.779626 133.673927 
" style="fill: none; stroke: #b0b0b0; stroke-width: 0.8"/>
    <path d="M 280.147899 102.160078 
L 227.608455 87.845316 
L 194.812592 113.592842 
" style="fill: none; stroke: #b0b0b0; stroke-width: 0.8"/>
    <path d="M 281.08557 81.683747 
L 227.381069 68.071221 
L 193.800532 92.576767 
" style="fill: none; stroke: #b0b0b0; stroke-width: 0.8"/>
   </g>
  </g>
  <g id="axis3d_1">
   <g id="line2d_1">
    <path d="M 195.779626 133.673927 
L 250.291452 151.47749 
" style="fill: none; stroke: #000000; stroke-width: 0.8; stroke-linecap: square"/>
   </g>
   <g id="xtick_1">
    <g id="line2d_2">
     <path d="M 199.358695 134.516815 
L 198.524863 135.223994 
" style="fill: none; stroke: #000000; stroke-width: 0.8; stroke-linecap: square"/>
    </g>
    <g id="text_1">
     <!-- 0.005 -->
     <g transform="translate(177.188959 158.163762) scale(0.1 -0.1)">
      <defs>
       <path id="DejaVuSans-30" d="M 2034 4250 
Q 1547 4250 1301 3770 
Q 1056 3291 1056 2328 
Q 1056 1369 1301 889 
Q 1547 409 2034 409 
Q 2525 409 2770 889 
Q 3016 1369 3016 2328 
Q 3016 3291 2770 3770 
Q 2525 4250 2034 4250 
z
M 2034 4750 
Q 2819 4750 3233 4129 
Q 3647 3509 3647 2328 
Q 3647 1150 3233 529 
Q 2819 -91 2034 -91 
Q 1250 -91 836 529 
Q 422 1150 422 2328 
Q 422 3509 836 4129 
Q 1250 4750 2034 4750 
z
" transform="scale(0.015625)"/>
       <path id="DejaVuSans-2e" d="M 684 794 
L 1344 794 
L 1344 0 
L 684 0 
L 684 794 
z
" transform="scale(0.015625)"/>
       <path id="DejaVuSans-35" d="M 691 4666 
L 3169 4666 
L 3169 4134 
L 1269 4134 
L 1269 2991 
Q 1406 3038 1543 3061 
Q 1681 3084 1819 3084 
Q 2600 3084 3056 2656 
Q 3513 2228 3513 1497 
Q 3513 744 3044 326 
Q 2575 -91 1722 -91 
Q 1428 -91 1123 -41 
Q 819 9 494 109 
L 494 744 
Q 775 591 1075 516 
Q 1375 441 1709 441 
Q 2250 441 2565 725 
Q 2881 1009 2881 1497 
Q 2881 1984 2565 2268 
Q 2250 2553 1709 2553 
Q 1456 2553 1204 2497 
Q 953 2441 691 2322 
L 691 4666 
z
" transform="scale(0.015625)"/>
      </defs>
      <use xlink:href="#DejaVuSans-30"/>
      <use xlink:href="#DejaVuSans-2e" x="63.623047"/>
      <use xlink:href="#DejaVuSans-30" x="95.410156"/>
      <use xlink:href="#DejaVuSans-30" x="159.033203"/>
      <use xlink:href="#DejaVuSans-35" x="222.65625"/>
     </g>
    </g>
   </g>
   <g id="xtick_2">
    <g id="line2d_3">
     <path d="M 210.839349 138.262691 
L 210.020934 138.986054 
" style="fill: none; stroke: #000000; stroke-width: 0.8; stroke-linecap: square"/>
    </g>
    <g id="text_2">
     <!-- 0.01 -->
     <g transform="translate(191.888115 162.135661) scale(0.1 -0.1)">
      <defs>
       <path id="DejaVuSans-31" d="M 794 531 
L 1825 531 
L 1825 4091 
L 703 3866 
L 703 4441 
L 1819 4666 
L 2450 4666 
L 2450 531 
L 3481 531 
L 3481 0 
L 794 0 
L 794 531 
z
" transform="scale(0.015625)"/>
      </defs>
      <use xlink:href="#DejaVuSans-30"/>
      <use xlink:href="#DejaVuSans-2e" x="63.623047"/>
      <use xlink:href="#DejaVuSans-30" x="95.410156"/>
      <use xlink:href="#DejaVuSans-31" x="159.033203"/>
     </g>
    </g>
   </g>
   <g id="xtick_3">
    <g id="line2d_4">
     <path d="M 222.583955 142.094689 
L 221.78189 142.834796 
" style="fill: none; stroke: #000000; stroke-width: 0.8; stroke-linecap: square"/>
    </g>
    <g id="text_3">
     <!-- 0.05 -->
     <g transform="translate(203.673805 166.199903) scale(0.1 -0.1)">
      <use xlink:href="#DejaVuSans-30"/>
      <use xlink:href="#DejaVuSans-2e" x="63.623047"/>
      <use xlink:href="#DejaVuSans-30" x="95.410156"/>
      <use xlink:href="#DejaVuSans-35" x="159.033203"/>
     </g>
    </g>
   </g>
   <g id="xtick_4">
    <g id="line2d_5">
     <path d="M 234.60172 146.015812 
L 233.816993 146.773252 
" style="fill: none; stroke: #000000; stroke-width: 0.8; stroke-linecap: square"/>
    </g>
    <g id="text_4">
     <!-- 0.1 -->
     <g transform="translate(218.917976 170.359747) scale(0.1 -0.1)">
      <use xlink:href="#DejaVuSans-30"/>
      <use xlink:href="#DejaVuSans-2e" x="63.623047"/>
      <use xlink:href="#DejaVuSans-31" x="95.410156"/>
     </g>
    </g>
   </g>
   <g id="text_5">
    <!-- support -->
    <g transform="translate(186.681405 174.794019) rotate(-341.912962) scale(0.1 -0.1)">
     <defs>
      <path id="DejaVuSans-73" d="M 2834 3397 
L 2834 2853 
Q 2591 2978 2328 3040 
Q 2066 3103 1784 3103 
Q 1356 3103 1142 2972 
Q 928 2841 928 2578 
Q 928 2378 1081 2264 
Q 1234 2150 1697 2047 
L 1894 2003 
Q 2506 1872 2764 1633 
Q 3022 1394 3022 966 
Q 3022 478 2636 193 
Q 2250 -91 1575 -91 
Q 1294 -91 989 -36 
Q 684 19 347 128 
L 347 722 
Q 666 556 975 473 
Q 1284 391 1588 391 
Q 1994 391 2212 530 
Q 2431 669 2431 922 
Q 2431 1156 2273 1281 
Q 2116 1406 1581 1522 
L 1381 1569 
Q 847 1681 609 1914 
Q 372 2147 372 2553 
Q 372 3047 722 3315 
Q 1072 3584 1716 3584 
Q 2034 3584 2315 3537 
Q 2597 3491 2834 3397 
z
" transform="scale(0.015625)"/>
      <path id="DejaVuSans-75" d="M 544 1381 
L 544 3500 
L 1119 3500 
L 1119 1403 
Q 1119 906 1312 657 
Q 1506 409 1894 409 
Q 2359 409 2629 706 
Q 2900 1003 2900 1516 
L 2900 3500 
L 3475 3500 
L 3475 0 
L 2900 0 
L 2900 538 
Q 2691 219 2414 64 
Q 2138 -91 1772 -91 
Q 1169 -91 856 284 
Q 544 659 544 1381 
z
M 1991 3584 
L 1991 3584 
z
" transform="scale(0.015625)"/>
      <path id="DejaVuSans-70" d="M 1159 525 
L 1159 -1331 
L 581 -1331 
L 581 3500 
L 1159 3500 
L 1159 2969 
Q 1341 3281 1617 3432 
Q 1894 3584 2278 3584 
Q 2916 3584 3314 3078 
Q 3713 2572 3713 1747 
Q 3713 922 3314 415 
Q 2916 -91 2278 -91 
Q 1894 -91 1617 61 
Q 1341 213 1159 525 
z
M 3116 1747 
Q 3116 2381 2855 2742 
Q 2594 3103 2138 3103 
Q 1681 3103 1420 2742 
Q 1159 2381 1159 1747 
Q 1159 1113 1420 752 
Q 1681 391 2138 391 
Q 2594 391 2855 752 
Q 3116 1113 3116 1747 
z
" transform="scale(0.015625)"/>
      <path id="DejaVuSans-6f" d="M 1959 3097 
Q 1497 3097 1228 2736 
Q 959 2375 959 1747 
Q 959 1119 1226 758 
Q 1494 397 1959 397 
Q 2419 397 2687 759 
Q 2956 1122 2956 1747 
Q 2956 2369 2687 2733 
Q 2419 3097 1959 3097 
z
M 1959 3584 
Q 2709 3584 3137 3096 
Q 3566 2609 3566 1747 
Q 3566 888 3137 398 
Q 2709 -91 1959 -91 
Q 1206 -91 779 398 
Q 353 888 353 1747 
Q 353 2609 779 3096 
Q 1206 3584 1959 3584 
z
" transform="scale(0.015625)"/>
      <path id="DejaVuSans-72" d="M 2631 2963 
Q 2534 3019 2420 3045 
Q 2306 3072 2169 3072 
Q 1681 3072 1420 2755 
Q 1159 2438 1159 1844 
L 1159 0 
L 581 0 
L 581 3500 
L 1159 3500 
L 1159 2956 
Q 1341 3275 1631 3429 
Q 1922 3584 2338 3584 
Q 2397 3584 2469 3576 
Q 2541 3569 2628 3553 
L 2631 2963 
z
" transform="scale(0.015625)"/>
      <path id="DejaVuSans-74" d="M 1172 4494 
L 1172 3500 
L 2356 3500 
L 2356 3053 
L 1172 3053 
L 1172 1153 
Q 1172 725 1289 603 
Q 1406 481 1766 481 
L 2356 481 
L 2356 0 
L 1766 0 
Q 1100 0 847 248 
Q 594 497 594 1153 
L 594 3053 
L 172 3053 
L 172 3500 
L 594 3500 
L 594 4494 
L 1172 4494 
z
" transform="scale(0.015625)"/>
     </defs>
     <use xlink:href="#DejaVuSans-73"/>
     <use xlink:href="#DejaVuSans-75" x="52.099609"/>
     <use xlink:href="#DejaVuSans-70" x="115.478516"/>
     <use xlink:href="#DejaVuSans-70" x="178.955078"/>
     <use xlink:href="#DejaVuSans-6f" x="242.431641"/>
     <use xlink:href="#DejaVuSans-72" x="303.613281"/>
     <use xlink:href="#DejaVuSans-74" x="344.726562"/>
    </g>
   </g>
  </g>
  <g id="axis3d_2">
   <g id="line2d_6">
    <path d="M 279.250433 121.758451 
L 250.291452 151.47749 
" style="fill: none; stroke: #000000; stroke-width: 0.8; stroke-linecap: square"/>
   </g>
   <g id="xtick_5">
    <g id="line2d_7">
     <path d="M 251.83754 149.272861 
L 253.211671 149.718148 
" style="fill: none; stroke: #000000; stroke-width: 0.8; stroke-linecap: square"/>
    </g>
    <g id="text_6">
     <!-- 1000 -->
     <g transform="translate(252.464274 170.45691) scale(0.1 -0.1)">
      <use xlink:href="#DejaVuSans-31"/>
      <use xlink:href="#DejaVuSans-30" x="63.623047"/>
      <use xlink:href="#DejaVuSans-30" x="127.246094"/>
      <use xlink:href="#DejaVuSans-30" x="190.869141"/>
     </g>
    </g>
   </g>
   <g id="xtick_6">
    <g id="line2d_8">
     <path d="M 258.536872 142.410014 
L 259.892072 142.837718 
" style="fill: none; stroke: #000000; stroke-width: 0.8; stroke-linecap: square"/>
    </g>
    <g id="text_7">
     <!-- 2000 -->
     <g transform="translate(258.910597 163.308803) scale(0.1 -0.1)">
      <defs>
       <path id="DejaVuSans-32" d="M 1228 531 
L 3431 531 
L 3431 0 
L 469 0 
L 469 531 
Q 828 903 1448 1529 
Q 2069 2156 2228 2338 
Q 2531 2678 2651 2914 
Q 2772 3150 2772 3378 
Q 2772 3750 2511 3984 
Q 2250 4219 1831 4219 
Q 1534 4219 1204 4116 
Q 875 4013 500 3803 
L 500 4441 
Q 881 4594 1212 4672 
Q 1544 4750 1819 4750 
Q 2544 4750 2975 4387 
Q 3406 4025 3406 3419 
Q 3406 3131 3298 2873 
Q 3191 2616 2906 2266 
Q 2828 2175 2409 1742 
Q 1991 1309 1228 531 
z
" transform="scale(0.015625)"/>
      </defs>
      <use xlink:href="#DejaVuSans-32"/>
      <use xlink:href="#DejaVuSans-30" x="63.623047"/>
      <use xlink:href="#DejaVuSans-30" x="127.246094"/>
      <use xlink:href="#DejaVuSans-30" x="190.869141"/>
     </g>
    </g>
   </g>
   <g id="xtick_7">
    <g id="line2d_9">
     <path d="M 264.974395 135.815366 
L 266.31108 136.226509 
" style="fill: none; stroke: #000000; stroke-width: 0.8; stroke-linecap: square"/>
    </g>
    <g id="text_8">
     <!-- 5000 -->
     <g transform="translate(265.104497 156.440601) scale(0.1 -0.1)">
      <use xlink:href="#DejaVuSans-35"/>
      <use xlink:href="#DejaVuSans-30" x="63.623047"/>
      <use xlink:href="#DejaVuSans-30" x="127.246094"/>
      <use xlink:href="#DejaVuSans-30" x="190.869141"/>
     </g>
    </g>
   </g>
   <g id="xtick_8">
    <g id="line2d_10">
     <path d="M 271.165162 129.473497 
L 272.483742 129.869022 
" style="fill: none; stroke: #000000; stroke-width: 0.8; stroke-linecap: square"/>
    </g>
    <g id="text_9">
     <!-- 10000 -->
     <g transform="translate(267.879264 149.836178) scale(0.1 -0.1)">
      <use xlink:href="#DejaVuSans-31"/>
      <use xlink:href="#DejaVuSans-30" x="63.623047"/>
      <use xlink:href="#DejaVuSans-30" x="127.246094"/>
      <use xlink:href="#DejaVuSans-30" x="190.869141"/>
      <use xlink:href="#DejaVuSans-30" x="254.492188"/>
     </g>
    </g>
   </g>
   <g id="text_10">
    <!-- window -->
    <g transform="translate(281.185411 179.537616) rotate(-45.742112) scale(0.1 -0.1)">
     <defs>
      <path id="DejaVuSans-77" d="M 269 3500 
L 844 3500 
L 1563 769 
L 2278 3500 
L 2956 3500 
L 3675 769 
L 4391 3500 
L 4966 3500 
L 4050 0 
L 3372 0 
L 2619 2869 
L 1863 0 
L 1184 0 
L 269 3500 
z
" transform="scale(0.015625)"/>
      <path id="DejaVuSans-69" d="M 603 3500 
L 1178 3500 
L 1178 0 
L 603 0 
L 603 3500 
z
M 603 4863 
L 1178 4863 
L 1178 4134 
L 603 4134 
L 603 4863 
z
" transform="scale(0.015625)"/>
      <path id="DejaVuSans-6e" d="M 3513 2113 
L 3513 0 
L 2938 0 
L 2938 2094 
Q 2938 2591 2744 2837 
Q 2550 3084 2163 3084 
Q 1697 3084 1428 2787 
Q 1159 2491 1159 1978 
L 1159 0 
L 581 0 
L 581 3500 
L 1159 3500 
L 1159 2956 
Q 1366 3272 1645 3428 
Q 1925 3584 2291 3584 
Q 2894 3584 3203 3211 
Q 3513 2838 3513 2113 
z
" transform="scale(0.015625)"/>
      <path id="DejaVuSans-64" d="M 2906 2969 
L 2906 4863 
L 3481 4863 
L 3481 0 
L 2906 0 
L 2906 525 
Q 2725 213 2448 61 
Q 2172 -91 1784 -91 
Q 1150 -91 751 415 
Q 353 922 353 1747 
Q 353 2572 751 3078 
Q 1150 3584 1784 3584 
Q 2172 3584 2448 3432 
Q 2725 3281 2906 2969 
z
M 947 1747 
Q 947 1113 1208 752 
Q 1469 391 1925 391 
Q 2381 391 2643 752 
Q 2906 1113 2906 1747 
Q 2906 2381 2643 2742 
Q 2381 3103 1925 3103 
Q 1469 3103 1208 2742 
Q 947 2381 947 1747 
z
" transform="scale(0.015625)"/>
     </defs>
     <use xlink:href="#DejaVuSans-77"/>
     <use xlink:href="#DejaVuSans-69" x="81.787109"/>
     <use xlink:href="#DejaVuSans-6e" x="109.570312"/>
     <use xlink:href="#DejaVuSans-64" x="172.949219"/>
     <use xlink:href="#DejaVuSans-6f" x="236.425781"/>
     <use xlink:href="#DejaVuSans-77" x="297.607422"/>
    </g>
   </g>
  </g>
  <g id="axis3d_3">
   <g id="line2d_11">
    <path d="M 279.250433 121.758451 
L 281.08557 81.683747 
" style="fill: none; stroke: #000000; stroke-width: 0.8; stroke-linecap: square"/>
   </g>
   <g id="xtick_9">
    <g id="line2d_12">
     <path d="M 278.818845 121.633005 
L 280.114636 122.00964 
" style="fill: none; stroke: #000000; stroke-width: 0.8; stroke-linecap: square"/>
    </g>
    <g id="text_11">
     <!-- 0.0 -->
     <g transform="translate(289.452684 126.765427) scale(0.1 -0.1)">
      <use xlink:href="#DejaVuSans-30"/>
      <use xlink:href="#DejaVuSans-2e" x="63.623047"/>
      <use xlink:href="#DejaVuSans-30" x="95.410156"/>
     </g>
    </g>
   </g>
   <g id="xtick_10">
    <g id="line2d_13">
     <path d="M 279.706497 102.039815 
L 281.031777 102.400897 
" style="fill: none; stroke: #000000; stroke-width: 0.8; stroke-linecap: square"/>
    </g>
    <g id="text_12">
     <!-- 0.5 -->
     <g transform="translate(290.737042 107.274532) scale(0.1 -0.1)">
      <use xlink:href="#DejaVuSans-30"/>
      <use xlink:href="#DejaVuSans-2e" x="63.623047"/>
      <use xlink:href="#DejaVuSans-35" x="95.410156"/>
     </g>
    </g>
   </g>
   <g id="xtick_11">
    <g id="line2d_14">
     <path d="M 280.633897 81.569261 
L 281.990039 81.913003 
" style="fill: none; stroke: #000000; stroke-width: 0.8; stroke-linecap: square"/>
    </g>
    <g id="text_13">
     <!-- 1.0 -->
     <g transform="translate(292.078444 86.917952) scale(0.1 -0.1)">
      <use xlink:href="#DejaVuSans-31"/>
      <use xlink:href="#DejaVuSans-2e" x="63.623047"/>
      <use xlink:href="#DejaVuSans-30" x="95.410156"/>
     </g>
    </g>
   </g>
   <g id="text_14">
    <!-- recall -->
    <g transform="translate(322.196075 110.53549) rotate(-87.378092) scale(0.1 -0.1)">
     <defs>
      <path id="DejaVuSans-65" d="M 3597 1894 
L 3597 1613 
L 953 1613 
Q 991 1019 1311 708 
Q 1631 397 2203 397 
Q 2534 397 2845 478 
Q 3156 559 3463 722 
L 3463 178 
Q 3153 47 2828 -22 
Q 2503 -91 2169 -91 
Q 1331 -91 842 396 
Q 353 884 353 1716 
Q 353 2575 817 3079 
Q 1281 3584 2069 3584 
Q 2775 3584 3186 3129 
Q 3597 2675 3597 1894 
z
M 3022 2063 
Q 3016 2534 2758 2815 
Q 2500 3097 2075 3097 
Q 1594 3097 1305 2825 
Q 1016 2553 972 2059 
L 3022 2063 
z
" transform="scale(0.015625)"/>
      <path id="DejaVuSans-63" d="M 3122 3366 
L 3122 2828 
Q 2878 2963 2633 3030 
Q 2388 3097 2138 3097 
Q 1578 3097 1268 2742 
Q 959 2388 959 1747 
Q 959 1106 1268 751 
Q 1578 397 2138 397 
Q 2388 397 2633 464 
Q 2878 531 3122 666 
L 3122 134 
Q 2881 22 2623 -34 
Q 2366 -91 2075 -91 
Q 1284 -91 818 406 
Q 353 903 353 1747 
Q 353 2603 823 3093 
Q 1294 3584 2113 3584 
Q 2378 3584 2631 3529 
Q 2884 3475 3122 3366 
z
" transform="scale(0.015625)"/>
      <path id="DejaVuSans-61" d="M 2194 1759 
Q 1497 1759 1228 1600 
Q 959 1441 959 1056 
Q 959 750 1161 570 
Q 1363 391 1709 391 
Q 2188 391 2477 730 
Q 2766 1069 2766 1631 
L 2766 1759 
L 2194 1759 
z
M 3341 1997 
L 3341 0 
L 2766 0 
L 2766 531 
Q 2569 213 2275 61 
Q 1981 -91 1556 -91 
Q 1019 -91 701 211 
Q 384 513 384 1019 
Q 384 1609 779 1909 
Q 1175 2209 1959 2209 
L 2766 2209 
L 2766 2266 
Q 2766 2663 2505 2880 
Q 2244 3097 1772 3097 
Q 1472 3097 1187 3025 
Q 903 2953 641 2809 
L 641 3341 
Q 956 3463 1253 3523 
Q 1550 3584 1831 3584 
Q 2591 3584 2966 3190 
Q 3341 2797 3341 1997 
z
" transform="scale(0.015625)"/>
      <path id="DejaVuSans-6c" d="M 603 4863 
L 1178 4863 
L 1178 0 
L 603 0 
L 603 4863 
z
" transform="scale(0.015625)"/>
     </defs>
     <use xlink:href="#DejaVuSans-72"/>
     <use xlink:href="#DejaVuSans-65" x="38.863281"/>
     <use xlink:href="#DejaVuSans-63" x="100.386719"/>
     <use xlink:href="#DejaVuSans-61" x="155.367188"/>
     <use xlink:href="#DejaVuSans-6c" x="216.646484"/>
     <use xlink:href="#DejaVuSans-6c" x="244.429688"/>
    </g>
   </g>
  </g>
  <g id="axes_1">
   <g id="Poly3DCollection_1">
    <path d="M 229.082186 109.308079 
L 229.070207 108.127497 
L 239.989501 111.311327 
L 239.987263 112.500107 
z
" clip-path="url(#p18fd7bde75)" style="fill: #1e5423"/>
    <path d="M 222.512829 114.879604 
L 222.491924 113.684769 
L 229.070207 108.127497 
L 229.082186 109.308079 
z
" clip-path="url(#p18fd7bde75)" style="fill: #3fb24b"/>
    <path d="M 222.512829 114.879604 
L 229.082186 109.308079 
L 239.987263 112.500107 
L 233.549477 118.190188 
z
" clip-path="url(#p18fd7bde75)" style="fill: #266c2d"/>
    <path d="M 222.491924 113.684769 
L 233.543132 116.98701 
L 239.989501 111.311327 
L 229.070207 108.127497 
z
" clip-path="url(#p18fd7bde75)" style="fill: #369b41"/>
    <path d="M 239.987263 112.500107 
L 239.991568 110.213686 
L 251.156297 113.457411 
L 251.123475 115.759791 
z
" clip-path="url(#p18fd7bde75)" style="fill: #381531"/>
    <path d="M 233.549477 118.190188 
L 239.987263 112.500107 
L 239.989501 111.311327 
L 233.543132 116.98701 
z
" clip-path="url(#p18fd7bde75)" style="fill: #1e5423"/>
    <path d="M 233.549477 118.190188 
L 233.537274 115.876023 
L 239.991568 110.213686 
L 239.987263 112.500107 
z
" clip-path="url(#p18fd7bde75)" style="fill: #762d67"/>
    <path d="M 222.512829 114.879604 
L 233.549477 118.190188 
L 233.543132 116.98701 
L 222.491924 113.684769 
z
" clip-path="url(#p18fd7bde75)" style="fill: #3fb24b"/>
    <path d="M 233.549477 118.190188 
L 239.987263 112.500107 
L 251.123475 115.759791 
L 244.824423 121.572253 
z
" clip-path="url(#p18fd7bde75)" style="fill: #471b3e"/>
    <path d="M 233.537274 115.876023 
L 244.841454 119.241848 
L 251.156297 113.457411 
L 239.991568 110.213686 
z
" clip-path="url(#p18fd7bde75)" style="fill: #67275a"/>
    <path d="M 251.123475 115.759791 
L 251.171022 112.42445 
L 262.588889 115.730568 
L 262.498251 119.089304 
z
" clip-path="url(#p18fd7bde75)" style="fill: #19651d"/>
    <path d="M 244.824423 121.572253 
L 251.123475 115.759791 
L 251.156297 113.457411 
L 244.841454 119.241848 
z
" clip-path="url(#p18fd7bde75)" style="fill: #381531"/>
    <path d="M 244.824423 121.572253 
L 244.849095 118.196241 
L 251.171022 112.42445 
L 251.123475 115.759791 
z
" clip-path="url(#p18fd7bde75)" style="fill: #36d53e"/>
    <path d="M 233.549477 118.190188 
L 233.547024 117.724957 
L 244.827847 121.103767 
L 244.824423 121.572253 
z
" clip-path="url(#p18fd7bde75)" style="fill: #454120"/>
    <path d="M 233.549477 118.190188 
L 244.824423 121.572253 
L 244.841454 119.241848 
L 233.537274 115.876023 
z
" clip-path="url(#p18fd7bde75)" style="fill: #762d67"/>
    <path d="M 244.824423 121.572253 
L 251.123475 115.759791 
L 262.498251 119.089304 
L 256.34547 125.02814 
z
" clip-path="url(#p18fd7bde75)" style="fill: #208125"/>
    <path d="M 226.869014 124.094761 
L 226.862989 123.623873 
L 233.547024 117.724957 
L 233.549477 118.190188 
z
" clip-path="url(#p18fd7bde75)" style="fill: #928a44"/>
    <path d="M 262.498251 119.089304 
L 262.598284 115.382428 
L 274.268993 118.757943 
L 274.119339 122.490916 
z
" clip-path="url(#p18fd7bde75)" style="fill: #0c5e5b"/>
    <path d="M 244.849095 118.196241 
L 256.414359 121.628325 
L 262.588889 115.730568 
L 251.171022 112.42445 
z
" clip-path="url(#p18fd7bde75)" style="fill: #2fb935"/>
    <path d="M 256.34547 125.02814 
L 262.498251 119.089304 
L 262.588889 115.730568 
L 256.414359 121.628325 
z
" clip-path="url(#p18fd7bde75)" style="fill: #19651d"/>
    <path d="M 256.34547 125.02814 
L 256.4215 121.275899 
L 262.598284 115.382428 
L 262.498251 119.089304 
z
" clip-path="url(#p18fd7bde75)" style="fill: #1ac7c0"/>
    <path d="M 226.869014 124.094761 
L 233.549477 118.190188 
L 244.824423 121.572253 
L 238.285311 127.606231 
z
" clip-path="url(#p18fd7bde75)" style="fill: #585329"/>
    <path d="M 226.862989 123.623873 
L 238.285311 127.132033 
L 244.827847 121.103767 
L 233.547024 117.724957 
z
" clip-path="url(#p18fd7bde75)" style="fill: #7e783b"/>
    <path d="M 244.824423 121.572253 
L 244.830827 120.696011 
L 256.363349 124.145746 
L 256.34547 125.02814 
z
" clip-path="url(#p18fd7bde75)" style="fill: #37333c"/>
    <path d="M 256.34547 125.02814 
L 262.498251 119.089304 
L 274.119339 122.490916 
L 268.120764 128.56029 
z
" clip-path="url(#p18fd7bde75)" style="fill: #0f7874"/>
    <path d="M 244.824423 121.572253 
L 256.34547 125.02814 
L 256.414359 121.628325 
L 244.849095 118.196241 
z
" clip-path="url(#p18fd7bde75)" style="fill: #36d53e"/>
    <path d="M 238.285311 127.606231 
L 244.824423 121.572253 
L 244.827847 121.103767 
L 238.285311 127.132033 
z
" clip-path="url(#p18fd7bde75)" style="fill: #454120"/>
    <path d="M 238.285311 127.606231 
L 238.285311 126.719297 
L 244.830827 120.696011 
L 244.824423 121.572253 
z
" clip-path="url(#p18fd7bde75)" style="fill: #756c7f"/>
    <path d="M 256.4215 121.275899 
L 268.247758 124.781506 
L 274.268993 118.757943 
L 262.598284 115.382428 
z
" clip-path="url(#p18fd7bde75)" style="fill: #16ada7"/>
    <path d="M 226.869014 124.094761 
L 226.868427 124.048871 
L 238.285311 127.560019 
L 238.285311 127.606231 
z
" clip-path="url(#p18fd7bde75)" style="fill: #403963"/>
    <path d="M 226.869014 124.094761 
L 238.285311 127.606231 
L 238.285311 127.132033 
L 226.862989 123.623873 
z
" clip-path="url(#p18fd7bde75)" style="fill: #928a44"/>
    <path d="M 268.120764 128.56029 
L 274.119339 122.490916 
L 274.268993 118.757943 
L 268.247758 124.781506 
z
" clip-path="url(#p18fd7bde75)" style="fill: #0c5e5b"/>
    <path d="M 238.285311 127.606231 
L 244.824423 121.572253 
L 256.34547 125.02814 
L 249.955596 131.195824 
z
" clip-path="url(#p18fd7bde75)" style="fill: #47414d"/>
    <path d="M 238.285311 126.719297 
L 249.967372 130.302636 
L 256.363349 124.145746 
L 244.830827 120.696011 
z
" clip-path="url(#p18fd7bde75)" style="fill: #665d6e"/>
    <path d="M 256.34547 125.02814 
L 256.377553 123.44478 
L 268.174351 126.965773 
L 268.120764 128.56029 
z
" clip-path="url(#p18fd7bde75)" style="fill: #045b49"/>
    <path d="M 219.93189 130.226186 
L 219.930928 130.179736 
L 226.868427 124.048871 
L 226.869014 124.094761 
z
" clip-path="url(#p18fd7bde75)" style="fill: #897ad3"/>
    <path d="M 256.34547 125.02814 
L 268.120764 128.56029 
L 268.247758 124.781506 
L 256.4215 121.275899 
z
" clip-path="url(#p18fd7bde75)" style="fill: #1ac7c0"/>
    <path d="M 249.955596 131.195824 
L 256.34547 125.02814 
L 256.363349 124.145746 
L 249.967372 130.302636 
z
" clip-path="url(#p18fd7bde75)" style="fill: #37333c"/>
    <path d="M 249.955596 131.195824 
L 249.976728 129.593071 
L 256.377553 123.44478 
L 256.34547 125.02814 
z
" clip-path="url(#p18fd7bde75)" style="fill: #08c09b"/>
    <path d="M 219.93189 130.226186 
L 226.869014 124.094761 
L 238.285311 127.606231 
L 231.492151 133.874633 
z
" clip-path="url(#p18fd7bde75)" style="fill: #52497f"/>
    <path d="M 219.930928 130.179736 
L 231.491791 133.827855 
L 238.285311 127.560019 
L 226.868427 124.048871 
z
" clip-path="url(#p18fd7bde75)" style="fill: #7769b7"/>
    <path d="M 238.285311 127.606231 
L 238.285311 127.545902 
L 249.956397 131.13507 
L 249.955596 131.195824 
z
" clip-path="url(#p18fd7bde75)" style="fill: #03581b"/>
    <path d="M 238.285311 127.606231 
L 249.955596 131.195824 
L 249.967372 130.302636 
L 238.285311 126.719297 
z
" clip-path="url(#p18fd7bde75)" style="fill: #756c7f"/>
    <path d="M 249.955596 131.195824 
L 256.34547 125.02814 
L 268.120764 128.56029 
L 261.888439 134.866175 
z
" clip-path="url(#p18fd7bde75)" style="fill: #05745e"/>
    <path d="M 249.976728 129.593071 
L 261.93166 133.252081 
L 268.174351 126.965773 
L 256.377553 123.44478 
z
" clip-path="url(#p18fd7bde75)" style="fill: #07a787"/>
    <path d="M 231.492151 133.874633 
L 238.285311 127.606231 
L 238.285311 127.560019 
L 231.491791 133.827855 
z
" clip-path="url(#p18fd7bde75)" style="fill: #403963"/>
    <path d="M 231.492151 133.874633 
L 231.491681 133.813566 
L 238.285311 127.545902 
L 238.285311 127.606231 
z
" clip-path="url(#p18fd7bde75)" style="fill: #05bb3a"/>
    <path d="M 261.888439 134.866175 
L 268.120764 128.56029 
L 268.174351 126.965773 
L 261.93166 133.252081 
z
" clip-path="url(#p18fd7bde75)" style="fill: #045b49"/>
    <path d="M 219.93189 130.226186 
L 231.492151 133.874633 
L 231.491791 133.827855 
L 219.930928 130.179736 
z
" clip-path="url(#p18fd7bde75)" style="fill: #897ad3"/>
    <path d="M 231.492151 133.874633 
L 238.285311 127.606231 
L 249.955596 131.195824 
L 243.314655 137.605845 
z
" clip-path="url(#p18fd7bde75)" style="fill: #037123"/>
    <path d="M 231.491681 133.813566 
L 243.315007 137.544346 
L 249.956397 131.13507 
L 238.285311 127.545902 
z
" clip-path="url(#p18fd7bde75)" style="fill: #05a232"/>
    <path d="M 249.955596 131.195824 
L 249.960794 130.801542 
L 261.899071 134.46911 
L 261.888439 134.866175 
z
" clip-path="url(#p18fd7bde75)" style="fill: #62524e"/>
    <path d="M 249.955596 131.195824 
L 261.888439 134.866175 
L 261.93166 133.252081 
L 249.976728 129.593071 
z
" clip-path="url(#p18fd7bde75)" style="fill: #08c09b"/>
    <path d="M 243.314655 137.605845 
L 249.955596 131.195824 
L 249.956397 131.13507 
L 243.315007 137.544346 
z
" clip-path="url(#p18fd7bde75)" style="fill: #03581b"/>
    <path d="M 243.314655 137.605845 
L 243.316939 137.206725 
L 249.960794 130.801542 
L 249.955596 131.195824 
z
" clip-path="url(#p18fd7bde75)" style="fill: #d1ada5"/>
    <path d="M 231.492151 133.874633 
L 231.491922 133.844913 
L 243.314826 137.575915 
L 243.314655 137.605845 
z
" clip-path="url(#p18fd7bde75)" style="fill: #073b46"/>
    <path d="M 231.492151 133.874633 
L 243.314655 137.605845 
L 243.315007 137.544346 
L 231.491681 133.813566 
z
" clip-path="url(#p18fd7bde75)" style="fill: #05bb3a"/>
    <path d="M 243.314655 137.605845 
L 249.955596 131.195824 
L 261.888439 134.866175 
L 255.408428 141.422669 
z
" clip-path="url(#p18fd7bde75)" style="fill: #7e6964"/>
    <path d="M 243.316939 137.206725 
L 255.416294 141.020722 
L 261.899071 134.46911 
L 249.960794 130.801542 
z
" clip-path="url(#p18fd7bde75)" style="fill: #b5968f"/>
    <path d="M 224.429844 140.391391 
L 224.429368 140.361306 
L 231.491922 133.844913 
L 231.492151 133.874633 
z
" clip-path="url(#p18fd7bde75)" style="fill: #0f7d95"/>
    <path d="M 255.408428 141.422669 
L 261.888439 134.866175 
L 261.899071 134.46911 
L 255.416294 141.020722 
z
" clip-path="url(#p18fd7bde75)" style="fill: #62524e"/>
    <path d="M 224.429844 140.391391 
L 231.492151 133.874633 
L 243.314655 137.605845 
L 236.407554 144.272771 
z
" clip-path="url(#p18fd7bde75)" style="fill: #094b5a"/>
    <path d="M 224.429368 140.361306 
L 236.407489 144.242473 
L 243.314826 137.575915 
L 231.491922 133.844913 
z
" clip-path="url(#p18fd7bde75)" style="fill: #0d6c81"/>
    <path d="M 243.314655 137.605845 
L 243.315242 137.503342 
L 255.410448 141.319441 
L 255.408428 141.422669 
z
" clip-path="url(#p18fd7bde75)" style="fill: #54170a"/>
    <path d="M 243.314655 137.605845 
L 255.408428 141.422669 
L 255.416294 141.020722 
L 243.316939 137.206725 
z
" clip-path="url(#p18fd7bde75)" style="fill: #d1ada5"/>
    <path d="M 236.407554 144.272771 
L 243.314655 137.605845 
L 243.314826 137.575915 
L 236.407489 144.242473 
z
" clip-path="url(#p18fd7bde75)" style="fill: #073b46"/>
    <path d="M 236.407554 144.272771 
L 236.407331 144.169007 
L 243.315242 137.503342 
L 243.314655 137.605845 
z
" clip-path="url(#p18fd7bde75)" style="fill: #b23115"/>
    <path d="M 224.429844 140.391391 
L 236.407554 144.272771 
L 236.407489 144.242473 
L 224.429368 140.361306 
z
" clip-path="url(#p18fd7bde75)" style="fill: #0f7d95"/>
    <path d="M 236.407554 144.272771 
L 243.314655 137.605845 
L 255.408428 141.422669 
L 248.665666 148.245014 
z
" clip-path="url(#p18fd7bde75)" style="fill: #6c1e0d"/>
    <path d="M 236.407331 144.169007 
L 248.666916 148.140514 
L 255.410448 141.319441 
L 243.315242 137.503342 
z
" clip-path="url(#p18fd7bde75)" style="fill: #9b2b12"/>
    <path d="M 248.665666 148.245014 
L 255.408428 141.422669 
L 255.410448 141.319441 
L 248.666916 148.140514 
z
" clip-path="url(#p18fd7bde75)" style="fill: #54170a"/>
    <path d="M 236.407554 144.272771 
L 248.665666 148.245014 
L 248.666916 148.140514 
L 236.407331 144.169007 
z
" clip-path="url(#p18fd7bde75)" style="fill: #b23115"/>
   </g>
   <g id="text_15">
    <!-- graph+logarithm -->
    <g transform="translate(185.425476 54.558261) scale(0.12 -0.12)">
     <defs>
      <path id="DejaVuSans-67" d="M 2906 1791 
Q 2906 2416 2648 2759 
Q 2391 3103 1925 3103 
Q 1463 3103 1205 2759 
Q 947 2416 947 1791 
Q 947 1169 1205 825 
Q 1463 481 1925 481 
Q 2391 481 2648 825 
Q 2906 1169 2906 1791 
z
M 3481 434 
Q 3481 -459 3084 -895 
Q 2688 -1331 1869 -1331 
Q 1566 -1331 1297 -1286 
Q 1028 -1241 775 -1147 
L 775 -588 
Q 1028 -725 1275 -790 
Q 1522 -856 1778 -856 
Q 2344 -856 2625 -561 
Q 2906 -266 2906 331 
L 2906 616 
Q 2728 306 2450 153 
Q 2172 0 1784 0 
Q 1141 0 747 490 
Q 353 981 353 1791 
Q 353 2603 747 3093 
Q 1141 3584 1784 3584 
Q 2172 3584 2450 3431 
Q 2728 3278 2906 2969 
L 2906 3500 
L 3481 3500 
L 3481 434 
z
" transform="scale(0.015625)"/>
      <path id="DejaVuSans-68" d="M 3513 2113 
L 3513 0 
L 2938 0 
L 2938 2094 
Q 2938 2591 2744 2837 
Q 2550 3084 2163 3084 
Q 1697 3084 1428 2787 
Q 1159 2491 1159 1978 
L 1159 0 
L 581 0 
L 581 4863 
L 1159 4863 
L 1159 2956 
Q 1366 3272 1645 3428 
Q 1925 3584 2291 3584 
Q 2894 3584 3203 3211 
Q 3513 2838 3513 2113 
z
" transform="scale(0.015625)"/>
      <path id="DejaVuSans-2b" d="M 2944 4013 
L 2944 2272 
L 4684 2272 
L 4684 1741 
L 2944 1741 
L 2944 0 
L 2419 0 
L 2419 1741 
L 678 1741 
L 678 2272 
L 2419 2272 
L 2419 4013 
L 2944 4013 
z
" transform="scale(0.015625)"/>
      <path id="DejaVuSans-6d" d="M 3328 2828 
Q 3544 3216 3844 3400 
Q 4144 3584 4550 3584 
Q 5097 3584 5394 3201 
Q 5691 2819 5691 2113 
L 5691 0 
L 5113 0 
L 5113 2094 
Q 5113 2597 4934 2840 
Q 4756 3084 4391 3084 
Q 3944 3084 3684 2787 
Q 3425 2491 3425 1978 
L 3425 0 
L 2847 0 
L 2847 2094 
Q 2847 2600 2669 2842 
Q 2491 3084 2119 3084 
Q 1678 3084 1418 2786 
Q 1159 2488 1159 1978 
L 1159 0 
L 581 0 
L 581 3500 
L 1159 3500 
L 1159 2956 
Q 1356 3278 1631 3431 
Q 1906 3584 2284 3584 
Q 2666 3584 2933 3390 
Q 3200 3197 3328 2828 
z
" transform="scale(0.015625)"/>
     </defs>
     <use xlink:href="#DejaVuSans-67"/>
     <use xlink:href="#DejaVuSans-72" x="63.476562"/>
     <use xlink:href="#DejaVuSans-61" x="104.589844"/>
     <use xlink:href="#DejaVuSans-70" x="165.869141"/>
     <use xlink:href="#DejaVuSans-68" x="229.345703"/>
     <use xlink:href="#DejaVuSans-2b" x="292.724609"/>
     <use xlink:href="#DejaVuSans-6c" x="376.513672"/>
     <use xlink:href="#DejaVuSans-6f" x="404.296875"/>
     <use xlink:href="#DejaVuSans-67" x="465.478516"/>
     <use xlink:href="#DejaVuSans-61" x="528.955078"/>
     <use xlink:href="#DejaVuSans-72" x="590.234375"/>
     <use xlink:href="#DejaVuSans-69" x="631.347656"/>
     <use xlink:href="#DejaVuSans-74" x="659.130859"/>
     <use xlink:href="#DejaVuSans-68" x="698.339844"/>
     <use xlink:href="#DejaVuSans-6d" x="761.71875"/>
    </g>
   </g>
  </g>
  <g id="patch_6">
   <path d="M 304.904348 157.601739 
L 401.947826 157.601739 
L 401.947826 60.558261 
L 304.904348 60.558261 
z
" style="fill: #ffffff"/>
  </g>
  <g id="pane3d_4">
   <g id="patch_7">
    <path d="M 312.2318 133.673927 
L 344.278726 106.811559 
L 343.833243 68.071221 
L 310.252706 92.576767 
" style="fill: #f2f2f2; opacity: 0.5; stroke: #f2f2f2; stroke-linejoin: miter"/>
   </g>
  </g>
  <g id="pane3d_5">
   <g id="patch_8">
    <path d="M 344.278726 106.811559 
L 395.702607 121.758451 
L 397.537744 81.683747 
L 343.833243 68.071221 
" style="fill: #e6e6e6; opacity: 0.5; stroke: #e6e6e6; stroke-linejoin: miter"/>
   </g>
  </g>
  <g id="pane3d_6">
   <g id="patch_9">
    <path d="M 312.2318 133.673927 
L 366.743626 151.47749 
L 395.702607 121.758451 
L 344.278726 106.811559 
" style="fill: #ececec; opacity: 0.5; stroke: #ececec; stroke-linejoin: miter"/>
   </g>
  </g>
  <g id="grid3d_4">
   <g id="Line3DCollection_4">
    <path d="M 315.533322 134.752205 
L 347.406169 107.720583 
L 347.092916 68.897453 
" style="fill: none; stroke: #b0b0b0; stroke-width: 0.8"/>
    <path d="M 327.019112 138.503464 
L 358.273304 110.87923 
L 358.426027 71.770066 
" style="fill: none; stroke: #b0b0b0; stroke-width: 0.8"/>
    <path d="M 338.769164 142.341031 
L 369.369545 114.104469 
L 370.0085 74.705886 
" style="fill: none; stroke: #b0b0b0; stroke-width: 0.8"/>
    <path d="M 350.792705 146.267919 
L 380.702214 117.398429 
L 381.848657 77.70702 
" style="fill: none; stroke: #b0b0b0; stroke-width: 0.8"/>
   </g>
  </g>
  <g id="grid3d_5">
   <g id="Line3DCollection_5">
    <path d="M 312.574883 90.882148 
L 314.440104 131.822883 
L 368.747363 149.421162 
" style="fill: none; stroke: #b0b0b0; stroke-width: 0.8"/>
    <path d="M 320.333035 85.220602 
L 321.826219 125.631695 
L 375.440398 142.552462 
" style="fill: none; stroke: #b0b0b0; stroke-width: 0.8"/>
    <path d="M 327.78996 79.778878 
L 328.93777 119.670652 
L 381.871762 135.9523 
" style="fill: none; stroke: #b0b0b0; stroke-width: 0.8"/>
    <path d="M 334.96287 74.544415 
L 335.789785 113.927157 
L 388.056506 129.605231 
" style="fill: none; stroke: #b0b0b0; stroke-width: 0.8"/>
   </g>
  </g>
  <g id="grid3d_6">
   <g id="Line3DCollection_6">
    <path d="M 395.702607 121.758451 
L 344.278726 106.811559 
L 312.2318 133.673927 
" style="fill: none; stroke: #b0b0b0; stroke-width: 0.8"/>
    <path d="M 396.600073 102.160078 
L 344.060629 87.845316 
L 311.264766 113.592842 
" style="fill: none; stroke: #b0b0b0; stroke-width: 0.8"/>
    <path d="M 397.537744 81.683747 
L 343.833243 68.071221 
L 310.252706 92.576767 
" style="fill: none; stroke: #b0b0b0; stroke-width: 0.8"/>
   </g>
  </g>
  <g id="axis3d_4">
   <g id="line2d_15">
    <path d="M 312.2318 133.673927 
L 366.743626 151.47749 
" style="fill: none; stroke: #000000; stroke-width: 0.8; stroke-linecap: square"/>
   </g>
   <g id="xtick_12">
    <g id="line2d_16">
     <path d="M 315.810869 134.516815 
L 314.977037 135.223994 
" style="fill: none; stroke: #000000; stroke-width: 0.8; stroke-linecap: square"/>
    </g>
    <g id="text_16">
     <!-- 0.005 -->
     <g transform="translate(293.641133 158.163762) scale(0.1 -0.1)">
      <use xlink:href="#DejaVuSans-30"/>
      <use xlink:href="#DejaVuSans-2e" x="63.623047"/>
      <use xlink:href="#DejaVuSans-30" x="95.410156"/>
      <use xlink:href="#DejaVuSans-30" x="159.033203"/>
      <use xlink:href="#DejaVuSans-35" x="222.65625"/>
     </g>
    </g>
   </g>
   <g id="xtick_13">
    <g id="line2d_17">
     <path d="M 327.291523 138.262691 
L 326.473107 138.986054 
" style="fill: none; stroke: #000000; stroke-width: 0.8; stroke-linecap: square"/>
    </g>
    <g id="text_17">
     <!-- 0.01 -->
     <g transform="translate(308.340289 162.135661) scale(0.1 -0.1)">
      <use xlink:href="#DejaVuSans-30"/>
      <use xlink:href="#DejaVuSans-2e" x="63.623047"/>
      <use xlink:href="#DejaVuSans-30" x="95.410156"/>
      <use xlink:href="#DejaVuSans-31" x="159.033203"/>
     </g>
    </g>
   </g>
   <g id="xtick_14">
    <g id="line2d_18">
     <path d="M 339.036129 142.094689 
L 338.234064 142.834796 
" style="fill: none; stroke: #000000; stroke-width: 0.8; stroke-linecap: square"/>
    </g>
    <g id="text_18">
     <!-- 0.05 -->
     <g transform="translate(320.125979 166.199903) scale(0.1 -0.1)">
      <use xlink:href="#DejaVuSans-30"/>
      <use xlink:href="#DejaVuSans-2e" x="63.623047"/>
      <use xlink:href="#DejaVuSans-30" x="95.410156"/>
      <use xlink:href="#DejaVuSans-35" x="159.033203"/>
     </g>
    </g>
   </g>
   <g id="xtick_15">
    <g id="line2d_19">
     <path d="M 351.053894 146.015812 
L 350.269167 146.773252 
" style="fill: none; stroke: #000000; stroke-width: 0.8; stroke-linecap: square"/>
    </g>
    <g id="text_19">
     <!-- 0.1 -->
     <g transform="translate(335.37015 170.359747) scale(0.1 -0.1)">
      <use xlink:href="#DejaVuSans-30"/>
      <use xlink:href="#DejaVuSans-2e" x="63.623047"/>
      <use xlink:href="#DejaVuSans-31" x="95.410156"/>
     </g>
    </g>
   </g>
   <g id="text_20">
    <!-- support -->
    <g transform="translate(303.133579 174.794019) rotate(-341.912962) scale(0.1 -0.1)">
     <use xlink:href="#DejaVuSans-73"/>
     <use xlink:href="#DejaVuSans-75" x="52.099609"/>
     <use xlink:href="#DejaVuSans-70" x="115.478516"/>
     <use xlink:href="#DejaVuSans-70" x="178.955078"/>
     <use xlink:href="#DejaVuSans-6f" x="242.431641"/>
     <use xlink:href="#DejaVuSans-72" x="303.613281"/>
     <use xlink:href="#DejaVuSans-74" x="344.726562"/>
    </g>
   </g>
  </g>
  <g id="axis3d_5">
   <g id="line2d_20">
    <path d="M 395.702607 121.758451 
L 366.743626 151.47749 
" style="fill: none; stroke: #000000; stroke-width: 0.8; stroke-linecap: square"/>
   </g>
   <g id="xtick_16">
    <g id="line2d_21">
     <path d="M 368.289714 149.272861 
L 369.663844 149.718148 
" style="fill: none; stroke: #000000; stroke-width: 0.8; stroke-linecap: square"/>
    </g>
    <g id="text_21">
     <!-- 1000 -->
     <g transform="translate(368.916448 170.45691) scale(0.1 -0.1)">
      <use xlink:href="#DejaVuSans-31"/>
      <use xlink:href="#DejaVuSans-30" x="63.623047"/>
      <use xlink:href="#DejaVuSans-30" x="127.246094"/>
      <use xlink:href="#DejaVuSans-30" x="190.869141"/>
     </g>
    </g>
   </g>
   <g id="xtick_17">
    <g id="line2d_22">
     <path d="M 374.989046 142.410014 
L 376.344246 142.837718 
" style="fill: none; stroke: #000000; stroke-width: 0.8; stroke-linecap: square"/>
    </g>
    <g id="text_22">
     <!-- 2000 -->
     <g transform="translate(375.362771 163.308803) scale(0.1 -0.1)">
      <use xlink:href="#DejaVuSans-32"/>
      <use xlink:href="#DejaVuSans-30" x="63.623047"/>
      <use xlink:href="#DejaVuSans-30" x="127.246094"/>
      <use xlink:href="#DejaVuSans-30" x="190.869141"/>
     </g>
    </g>
   </g>
   <g id="xtick_18">
    <g id="line2d_23">
     <path d="M 381.426569 135.815366 
L 382.763254 136.226509 
" style="fill: none; stroke: #000000; stroke-width: 0.8; stroke-linecap: square"/>
    </g>
    <g id="text_23">
     <!-- 5000 -->
     <g transform="translate(381.55667 156.440601) scale(0.1 -0.1)">
      <use xlink:href="#DejaVuSans-35"/>
      <use xlink:href="#DejaVuSans-30" x="63.623047"/>
      <use xlink:href="#DejaVuSans-30" x="127.246094"/>
      <use xlink:href="#DejaVuSans-30" x="190.869141"/>
     </g>
    </g>
   </g>
   <g id="xtick_19">
    <g id="line2d_24">
     <path d="M 387.617336 129.473497 
L 388.935916 129.869022 
" style="fill: none; stroke: #000000; stroke-width: 0.8; stroke-linecap: square"/>
    </g>
    <g id="text_24">
     <!-- 10000 -->
     <g transform="translate(384.331438 149.836178) scale(0.1 -0.1)">
      <use xlink:href="#DejaVuSans-31"/>
      <use xlink:href="#DejaVuSans-30" x="63.623047"/>
      <use xlink:href="#DejaVuSans-30" x="127.246094"/>
      <use xlink:href="#DejaVuSans-30" x="190.869141"/>
      <use xlink:href="#DejaVuSans-30" x="254.492188"/>
     </g>
    </g>
   </g>
   <g id="text_25">
    <!-- window -->
    <g transform="translate(397.637585 179.537616) rotate(-45.742112) scale(0.1 -0.1)">
     <use xlink:href="#DejaVuSans-77"/>
     <use xlink:href="#DejaVuSans-69" x="81.787109"/>
     <use xlink:href="#DejaVuSans-6e" x="109.570312"/>
     <use xlink:href="#DejaVuSans-64" x="172.949219"/>
     <use xlink:href="#DejaVuSans-6f" x="236.425781"/>
     <use xlink:href="#DejaVuSans-77" x="297.607422"/>
    </g>
   </g>
  </g>
  <g id="axis3d_6">
   <g id="line2d_25">
    <path d="M 395.702607 121.758451 
L 397.537744 81.683747 
" style="fill: none; stroke: #000000; stroke-width: 0.8; stroke-linecap: square"/>
   </g>
   <g id="xtick_20">
    <g id="line2d_26">
     <path d="M 395.271019 121.633005 
L 396.56681 122.00964 
" style="fill: none; stroke: #000000; stroke-width: 0.8; stroke-linecap: square"/>
    </g>
    <g id="text_26">
     <!-- 0.0 -->
     <g transform="translate(405.904858 126.765427) scale(0.1 -0.1)">
      <use xlink:href="#DejaVuSans-30"/>
      <use xlink:href="#DejaVuSans-2e" x="63.623047"/>
      <use xlink:href="#DejaVuSans-30" x="95.410156"/>
     </g>
    </g>
   </g>
   <g id="xtick_21">
    <g id="line2d_27">
     <path d="M 396.158671 102.039815 
L 397.483951 102.400897 
" style="fill: none; stroke: #000000; stroke-width: 0.8; stroke-linecap: square"/>
    </g>
    <g id="text_27">
     <!-- 0.5 -->
     <g transform="translate(407.189216 107.274532) scale(0.1 -0.1)">
      <use xlink:href="#DejaVuSans-30"/>
      <use xlink:href="#DejaVuSans-2e" x="63.623047"/>
      <use xlink:href="#DejaVuSans-35" x="95.410156"/>
     </g>
    </g>
   </g>
   <g id="xtick_22">
    <g id="line2d_28">
     <path d="M 397.086071 81.569261 
L 398.442213 81.913003 
" style="fill: none; stroke: #000000; stroke-width: 0.8; stroke-linecap: square"/>
    </g>
    <g id="text_28">
     <!-- 1.0 -->
     <g transform="translate(408.530618 86.917952) scale(0.1 -0.1)">
      <use xlink:href="#DejaVuSans-31"/>
      <use xlink:href="#DejaVuSans-2e" x="63.623047"/>
      <use xlink:href="#DejaVuSans-30" x="95.410156"/>
     </g>
    </g>
   </g>
   <g id="text_29">
    <!-- recall -->
    <g transform="translate(438.648249 110.53549) rotate(-87.378092) scale(0.1 -0.1)">
     <use xlink:href="#DejaVuSans-72"/>
     <use xlink:href="#DejaVuSans-65" x="38.863281"/>
     <use xlink:href="#DejaVuSans-63" x="100.386719"/>
     <use xlink:href="#DejaVuSans-61" x="155.367188"/>
     <use xlink:href="#DejaVuSans-6c" x="216.646484"/>
     <use xlink:href="#DejaVuSans-6c" x="244.429688"/>
    </g>
   </g>
  </g>
  <g id="axes_2">
   <g id="Poly3DCollection_2">
    <path d="M 345.53436 109.308079 
L 345.523736 108.261073 
L 356.441422 111.445832 
L 356.439436 112.500107 
z
" clip-path="url(#pa211b8a25d)" style="fill: #2f5e2b"/>
    <path d="M 338.965003 114.879604 
L 338.946463 113.819961 
L 345.523736 108.261073 
L 345.53436 109.308079 
z
" clip-path="url(#pa211b8a25d)" style="fill: #63c85a"/>
    <path d="M 338.965003 114.879604 
L 345.53436 109.308079 
L 356.439436 112.500107 
L 350.001651 118.190188 
z
" clip-path="url(#pa211b8a25d)" style="fill: #3c7936"/>
    <path d="M 338.946463 113.819961 
L 349.996024 117.123147 
L 356.441422 111.445832 
L 345.523736 108.261073 
z
" clip-path="url(#pa211b8a25d)" style="fill: #56ae4e"/>
    <path d="M 356.439436 112.500107 
L 356.443152 110.527041 
L 367.603972 113.772961 
L 367.575649 115.759791 
z
" clip-path="url(#pa211b8a25d)" style="fill: #092543"/>
    <path d="M 350.001651 118.190188 
L 356.439436 112.500107 
L 356.441422 111.445832 
L 349.996024 117.123147 
z
" clip-path="url(#pa211b8a25d)" style="fill: #2f5e2b"/>
    <path d="M 350.001651 118.190188 
L 349.991121 116.193193 
L 356.443152 110.527041 
L 356.439436 112.500107 
z
" clip-path="url(#pa211b8a25d)" style="fill: #144d8f"/>
    <path d="M 338.965003 114.879604 
L 350.001651 118.190188 
L 349.996024 117.123147 
L 338.946463 113.819961 
z
" clip-path="url(#pa211b8a25d)" style="fill: #63c85a"/>
    <path d="M 350.001651 118.190188 
L 356.439436 112.500107 
L 367.575649 115.759791 
L 361.276597 121.572253 
z
" clip-path="url(#pa211b8a25d)" style="fill: #0c2f56"/>
    <path d="M 349.991121 116.193193 
L 361.291294 119.561252 
L 367.603972 113.772961 
L 356.443152 110.527041 
z
" clip-path="url(#pa211b8a25d)" style="fill: #11437c"/>
    <path d="M 367.575649 115.759791 
L 367.607308 113.538972 
L 379.010775 116.852937 
L 378.950425 119.089304 
z
" clip-path="url(#pa211b8a25d)" style="fill: #324947"/>
    <path d="M 361.276597 121.572253 
L 367.575649 115.759791 
L 367.603972 113.772961 
L 361.291294 119.561252 
z
" clip-path="url(#pa211b8a25d)" style="fill: #092543"/>
    <path d="M 361.276597 121.572253 
L 361.293025 119.324406 
L 367.607308 113.538972 
L 367.575649 115.759791 
z
" clip-path="url(#pa211b8a25d)" style="fill: #6b9b97"/>
    <path d="M 350.001651 118.190188 
L 349.999936 117.864989 
L 361.27899 121.244779 
L 361.276597 121.572253 
z
" clip-path="url(#pa211b8a25d)" style="fill: #47290d"/>
    <path d="M 350.001651 118.190188 
L 361.276597 121.572253 
L 361.291294 119.561252 
L 349.991121 116.193193 
z
" clip-path="url(#pa211b8a25d)" style="fill: #144d8f"/>
    <path d="M 361.276597 121.572253 
L 367.575649 115.759791 
L 378.950425 119.089304 
L 372.797644 125.02814 
z
" clip-path="url(#pa211b8a25d)" style="fill: #415e5b"/>
    <path d="M 378.950425 119.089304 
L 379.000338 117.239687 
L 390.646184 120.628319 
L 390.571513 122.490916 
z
" clip-path="url(#pa211b8a25d)" style="fill: #17640b"/>
    <path d="M 361.293025 119.324406 
L 372.843512 122.764475 
L 379.010775 116.852937 
L 367.607308 113.538972 
z
" clip-path="url(#pa211b8a25d)" style="fill: #5d8683"/>
    <path d="M 343.321188 124.094761 
L 343.316977 123.765608 
L 349.999936 117.864989 
L 350.001651 118.190188 
z
" clip-path="url(#pa211b8a25d)" style="fill: #97571b"/>
    <path d="M 372.797644 125.02814 
L 372.835579 123.15596 
L 379.000338 117.239687 
L 378.950425 119.089304 
z
" clip-path="url(#pa211b8a25d)" style="fill: #30d416"/>
    <path d="M 372.797644 125.02814 
L 378.950425 119.089304 
L 379.010775 116.852937 
L 372.843512 122.764475 
z
" clip-path="url(#pa211b8a25d)" style="fill: #324947"/>
    <path d="M 343.321188 124.094761 
L 350.001651 118.190188 
L 361.276597 121.572253 
L 354.737485 127.606231 
z
" clip-path="url(#pa211b8a25d)" style="fill: #5b3411"/>
    <path d="M 343.316977 123.765608 
L 354.737485 127.274765 
L 361.27899 121.244779 
L 349.999936 117.864989 
z
" clip-path="url(#pa211b8a25d)" style="fill: #834b18"/>
    <path d="M 361.276597 121.572253 
L 361.281719 120.871397 
L 372.811945 124.322364 
L 372.797644 125.02814 
z
" clip-path="url(#pa211b8a25d)" style="fill: #14384d"/>
    <path d="M 361.276597 121.572253 
L 372.797644 125.02814 
L 372.843512 122.764475 
L 361.293025 119.324406 
z
" clip-path="url(#pa211b8a25d)" style="fill: #6b9b97"/>
    <path d="M 372.797644 125.02814 
L 378.950425 119.089304 
L 390.571513 122.490916 
L 384.572938 128.56029 
z
" clip-path="url(#pa211b8a25d)" style="fill: #1d800e"/>
    <path d="M 372.835579 123.15596 
L 384.6363 126.674911 
L 390.646184 120.628319 
L 379.000338 117.239687 
z
" clip-path="url(#pa211b8a25d)" style="fill: #2ab813"/>
    <path d="M 354.737485 127.606231 
L 361.276597 121.572253 
L 361.27899 121.244779 
L 354.737485 127.274765 
z
" clip-path="url(#pa211b8a25d)" style="fill: #47290d"/>
    <path d="M 354.737485 127.606231 
L 354.737485 126.896825 
L 361.281719 120.871397 
L 361.276597 121.572253 
z
" clip-path="url(#pa211b8a25d)" style="fill: #2a77a4"/>
    <path d="M 384.572938 128.56029 
L 390.571513 122.490916 
L 390.646184 120.628319 
L 384.6363 126.674911 
z
" clip-path="url(#pa211b8a25d)" style="fill: #17640b"/>
    <path d="M 343.321188 124.094761 
L 354.737485 127.606231 
L 354.737485 127.274765 
L 343.316977 123.765608 
z
" clip-path="url(#pa211b8a25d)" style="fill: #97571b"/>
    <path d="M 354.737485 127.606231 
L 361.276597 121.572253 
L 372.797644 125.02814 
L 366.40777 131.195824 
z
" clip-path="url(#pa211b8a25d)" style="fill: #194863"/>
    <path d="M 354.737485 126.896825 
L 366.417189 130.481418 
L 372.811945 124.322364 
L 361.281719 120.871397 
z
" clip-path="url(#pa211b8a25d)" style="fill: #24688e"/>
    <path d="M 372.797644 125.02814 
L 372.815963 124.124051 
L 384.603536 127.649839 
L 384.572938 128.56029 
z
" clip-path="url(#pa211b8a25d)" style="fill: #23045a"/>
    <path d="M 372.797644 125.02814 
L 384.572938 128.56029 
L 384.6363 126.674911 
L 372.835579 123.15596 
z
" clip-path="url(#pa211b8a25d)" style="fill: #30d416"/>
    <path d="M 366.40777 131.195824 
L 372.797644 125.02814 
L 372.811945 124.322364 
L 366.417189 130.481418 
z
" clip-path="url(#pa211b8a25d)" style="fill: #14384d"/>
    <path d="M 366.40777 131.195824 
L 366.419836 130.280675 
L 372.815963 124.124051 
L 372.797644 125.02814 
z
" clip-path="url(#pa211b8a25d)" style="fill: #4a08c0"/>
    <path d="M 354.737485 127.606231 
L 354.737485 127.42522 
L 366.410173 131.013538 
L 366.40777 131.195824 
z
" clip-path="url(#pa211b8a25d)" style="fill: #123136"/>
    <path d="M 354.737485 127.606231 
L 366.40777 131.195824 
L 366.417189 130.481418 
L 354.737485 126.896825 
z
" clip-path="url(#pa211b8a25d)" style="fill: #2a77a4"/>
    <path d="M 366.40777 131.195824 
L 372.797644 125.02814 
L 384.572938 128.56029 
L 378.340613 134.866175 
z
" clip-path="url(#pa211b8a25d)" style="fill: #2c0574"/>
    <path d="M 366.419836 130.280675 
L 378.365291 133.944559 
L 384.603536 127.649839 
L 372.815963 124.124051 
z
" clip-path="url(#pa211b8a25d)" style="fill: #4007a6"/>
    <path d="M 347.944325 133.874633 
L 347.942915 133.691406 
L 354.737485 127.42522 
L 354.737485 127.606231 
z
" clip-path="url(#pa211b8a25d)" style="fill: #266773"/>
    <path d="M 378.340613 134.866175 
L 384.572938 128.56029 
L 384.603536 127.649839 
L 378.365291 133.944559 
z
" clip-path="url(#pa211b8a25d)" style="fill: #23045a"/>
    <path d="M 347.944325 133.874633 
L 354.737485 127.606231 
L 366.40777 131.195824 
L 359.766829 137.605845 
z
" clip-path="url(#pa211b8a25d)" style="fill: #173e45"/>
    <path d="M 347.942915 133.691406 
L 359.767885 137.421323 
L 366.410173 131.013538 
L 354.737485 127.42522 
z
" clip-path="url(#pa211b8a25d)" style="fill: #215a63"/>
    <path d="M 366.40777 131.195824 
L 366.412101 130.86728 
L 378.349472 134.535312 
L 378.340613 134.866175 
z
" clip-path="url(#pa211b8a25d)" style="fill: #4f3f2b"/>
    <path d="M 366.40777 131.195824 
L 378.340613 134.866175 
L 378.365291 133.944559 
L 366.419836 130.280675 
z
" clip-path="url(#pa211b8a25d)" style="fill: #4a08c0"/>
    <path d="M 359.766829 137.605845 
L 366.40777 131.195824 
L 366.410173 131.013538 
L 359.767885 137.421323 
z
" clip-path="url(#pa211b8a25d)" style="fill: #123136"/>
    <path d="M 359.766829 137.605845 
L 359.768732 137.27327 
L 366.412101 130.86728 
L 366.40777 131.195824 
z
" clip-path="url(#pa211b8a25d)" style="fill: #a7855c"/>
    <path d="M 347.944325 133.874633 
L 347.944064 133.840668 
L 359.767025 137.571639 
L 359.766829 137.605845 
z
" clip-path="url(#pa211b8a25d)" style="fill: #531938"/>
    <path d="M 347.944325 133.874633 
L 359.766829 137.605845 
L 359.767885 137.421323 
L 347.942915 133.691406 
z
" clip-path="url(#pa211b8a25d)" style="fill: #266773"/>
    <path d="M 359.766829 137.605845 
L 366.40777 131.195824 
L 378.340613 134.866175 
L 371.860602 141.422669 
z
" clip-path="url(#pa211b8a25d)" style="fill: #655037"/>
    <path d="M 359.768732 137.27327 
L 371.867157 141.087739 
L 378.349472 134.535312 
L 366.412101 130.86728 
z
" clip-path="url(#pa211b8a25d)" style="fill: #917350"/>
    <path d="M 340.882018 140.391391 
L 340.881474 140.357008 
L 347.944064 133.840668 
L 347.944325 133.874633 
z
" clip-path="url(#pa211b8a25d)" style="fill: #af3676"/>
    <path d="M 371.860602 141.422669 
L 378.340613 134.866175 
L 378.349472 134.535312 
L 371.867157 141.087739 
z
" clip-path="url(#pa211b8a25d)" style="fill: #4f3f2b"/>
    <path d="M 340.882018 140.391391 
L 347.944325 133.874633 
L 359.766829 137.605845 
L 352.859728 144.272771 
z
" clip-path="url(#pa211b8a25d)" style="fill: #6a2047"/>
    <path d="M 340.881474 140.357008 
L 352.859653 144.238144 
L 359.767025 137.571639 
L 347.944064 133.840668 
z
" clip-path="url(#pa211b8a25d)" style="fill: #982f67"/>
    <path d="M 359.766829 137.605845 
L 359.767064 137.564846 
L 371.86141 141.381381 
L 371.860602 141.422669 
z
" clip-path="url(#pa211b8a25d)" style="fill: #522e3a"/>
    <path d="M 359.766829 137.605845 
L 371.860602 141.422669 
L 371.867157 141.087739 
L 359.768732 137.27327 
z
" clip-path="url(#pa211b8a25d)" style="fill: #a7855c"/>
    <path d="M 352.859728 144.272771 
L 359.766829 137.605845 
L 359.767025 137.571639 
L 352.859653 144.238144 
z
" clip-path="url(#pa211b8a25d)" style="fill: #531938"/>
    <path d="M 352.859728 144.272771 
L 352.859639 144.231268 
L 359.767064 137.564846 
L 359.766829 137.605845 
z
" clip-path="url(#pa211b8a25d)" style="fill: #ae617c"/>
    <path d="M 340.882018 140.391391 
L 352.859728 144.272771 
L 352.859653 144.238144 
L 340.881474 140.357008 
z
" clip-path="url(#pa211b8a25d)" style="fill: #af3676"/>
    <path d="M 352.859728 144.272771 
L 359.766829 137.605845 
L 371.860602 141.422669 
L 365.11784 148.245014 
z
" clip-path="url(#pa211b8a25d)" style="fill: #693b4b"/>
    <path d="M 352.859639 144.231268 
L 365.11834 148.203217 
L 371.86141 141.381381 
L 359.767064 137.564846 
z
" clip-path="url(#pa211b8a25d)" style="fill: #97556c"/>
    <path d="M 365.11784 148.245014 
L 371.860602 141.422669 
L 371.86141 141.381381 
L 365.11834 148.203217 
z
" clip-path="url(#pa211b8a25d)" style="fill: #522e3a"/>
    <path d="M 352.859728 144.272771 
L 365.11784 148.245014 
L 365.11834 148.203217 
L 352.859639 144.231268 
z
" clip-path="url(#pa211b8a25d)" style="fill: #ae617c"/>
   </g>
   <g id="text_30">
    <!-- graph+probability -->
    <g transform="translate(298.823274 54.558261) scale(0.12 -0.12)">
     <defs>
      <path id="DejaVuSans-62" d="M 3116 1747 
Q 3116 2381 2855 2742 
Q 2594 3103 2138 3103 
Q 1681 3103 1420 2742 
Q 1159 2381 1159 1747 
Q 1159 1113 1420 752 
Q 1681 391 2138 391 
Q 2594 391 2855 752 
Q 3116 1113 3116 1747 
z
M 1159 2969 
Q 1341 3281 1617 3432 
Q 1894 3584 2278 3584 
Q 2916 3584 3314 3078 
Q 3713 2572 3713 1747 
Q 3713 922 3314 415 
Q 2916 -91 2278 -91 
Q 1894 -91 1617 61 
Q 1341 213 1159 525 
L 1159 0 
L 581 0 
L 581 4863 
L 1159 4863 
L 1159 2969 
z
" transform="scale(0.015625)"/>
      <path id="DejaVuSans-79" d="M 2059 -325 
Q 1816 -950 1584 -1140 
Q 1353 -1331 966 -1331 
L 506 -1331 
L 506 -850 
L 844 -850 
Q 1081 -850 1212 -737 
Q 1344 -625 1503 -206 
L 1606 56 
L 191 3500 
L 800 3500 
L 1894 763 
L 2988 3500 
L 3597 3500 
L 2059 -325 
z
" transform="scale(0.015625)"/>
     </defs>
     <use xlink:href="#DejaVuSans-67"/>
     <use xlink:href="#DejaVuSans-72" x="63.476562"/>
     <use xlink:href="#DejaVuSans-61" x="104.589844"/>
     <use xlink:href="#DejaVuSans-70" x="165.869141"/>
     <use xlink:href="#DejaVuSans-68" x="229.345703"/>
     <use xlink:href="#DejaVuSans-2b" x="292.724609"/>
     <use xlink:href="#DejaVuSans-70" x="376.513672"/>
     <use xlink:href="#DejaVuSans-72" x="439.990234"/>
     <use xlink:href="#DejaVuSans-6f" x="478.853516"/>
     <use xlink:href="#DejaVuSans-62" x="540.035156"/>
     <use xlink:href="#DejaVuSans-61" x="603.511719"/>
     <use xlink:href="#DejaVuSans-62" x="664.791016"/>
     <use xlink:href="#DejaVuSans-69" x="728.267578"/>
     <use xlink:href="#DejaVuSans-6c" x="756.050781"/>
     <use xlink:href="#DejaVuSans-69" x="783.833984"/>
     <use xlink:href="#DejaVuSans-74" x="811.617188"/>
     <use xlink:href="#DejaVuSans-79" x="850.826172"/>
    </g>
   </g>
  </g>
  <g id="patch_10">
   <path d="M 421.356522 157.601739 
L 518.4 157.601739 
L 518.4 60.558261 
L 421.356522 60.558261 
z
" style="fill: #ffffff"/>
  </g>
  <g id="pane3d_7">
   <g id="patch_11">
    <path d="M 428.683974 133.673927 
L 460.730899 106.811559 
L 460.285416 68.071221 
L 426.70488 92.576767 
" style="fill: #f2f2f2; opacity: 0.5; stroke: #f2f2f2; stroke-linejoin: miter"/>
   </g>
  </g>
  <g id="pane3d_8">
   <g id="patch_12">
    <path d="M 460.730899 106.811559 
L 512.154781 121.758451 
L 513.989918 81.683747 
L 460.285416 68.071221 
" style="fill: #e6e6e6; opacity: 0.5; stroke: #e6e6e6; stroke-linejoin: miter"/>
   </g>
  </g>
  <g id="pane3d_9">
   <g id="patch_13">
    <path d="M 428.683974 133.673927 
L 483.1958 151.47749 
L 512.154781 121.758451 
L 460.730899 106.811559 
" style="fill: #ececec; opacity: 0.5; stroke: #ececec; stroke-linejoin: miter"/>
   </g>
  </g>
  <g id="grid3d_7">
   <g id="Line3DCollection_7">
    <path d="M 431.985496 134.752205 
L 463.858342 107.720583 
L 463.54509 68.897453 
" style="fill: none; stroke: #b0b0b0; stroke-width: 0.8"/>
    <path d="M 443.471286 138.503464 
L 474.725478 110.87923 
L 474.8782 71.770066 
" style="fill: none; stroke: #b0b0b0; stroke-width: 0.8"/>
    <path d="M 455.221338 142.341031 
L 485.821719 114.104469 
L 486.460674 74.705886 
" style="fill: none; stroke: #b0b0b0; stroke-width: 0.8"/>
    <path d="M 467.244879 146.267919 
L 497.154388 117.398429 
L 498.300831 77.70702 
" style="fill: none; stroke: #b0b0b0; stroke-width: 0.8"/>
   </g>
  </g>
  <g id="grid3d_8">
   <g id="Line3DCollection_8">
    <path d="M 429.027057 90.882148 
L 430.892278 131.822883 
L 485.199537 149.421162 
" style="fill: none; stroke: #b0b0b0; stroke-width: 0.8"/>
    <path d="M 436.785209 85.220602 
L 438.278393 125.631695 
L 491.892572 142.552462 
" style="fill: none; stroke: #b0b0b0; stroke-width: 0.8"/>
    <path d="M 444.242134 79.778878 
L 445.389944 119.670652 
L 498.323936 135.9523 
" style="fill: none; stroke: #b0b0b0; stroke-width: 0.8"/>
    <path d="M 451.415044 74.544415 
L 452.241959 113.927157 
L 504.50868 129.605231 
" style="fill: none; stroke: #b0b0b0; stroke-width: 0.8"/>
   </g>
  </g>
  <g id="grid3d_9">
   <g id="Line3DCollection_9">
    <path d="M 512.154781 121.758451 
L 460.730899 106.811559 
L 428.683974 133.673927 
" style="fill: none; stroke: #b0b0b0; stroke-width: 0.8"/>
    <path d="M 513.052247 102.160078 
L 460.512803 87.845316 
L 427.71694 113.592842 
" style="fill: none; stroke: #b0b0b0; stroke-width: 0.8"/>
    <path d="M 513.989918 81.683747 
L 460.285416 68.071221 
L 426.70488 92.576767 
" style="fill: none; stroke: #b0b0b0; stroke-width: 0.8"/>
   </g>
  </g>
  <g id="axis3d_7">
   <g id="line2d_29">
    <path d="M 428.683974 133.673927 
L 483.1958 151.47749 
" style="fill: none; stroke: #000000; stroke-width: 0.8; stroke-linecap: square"/>
   </g>
   <g id="xtick_23">
    <g id="line2d_30">
     <path d="M 432.263043 134.516815 
L 431.429211 135.223994 
" style="fill: none; stroke: #000000; stroke-width: 0.8; stroke-linecap: square"/>
    </g>
    <g id="text_31">
     <!-- 0.005 -->
     <g transform="translate(410.093306 158.163762) scale(0.1 -0.1)">
      <use xlink:href="#DejaVuSans-30"/>
      <use xlink:href="#DejaVuSans-2e" x="63.623047"/>
      <use xlink:href="#DejaVuSans-30" x="95.410156"/>
      <use xlink:href="#DejaVuSans-30" x="159.033203"/>
      <use xlink:href="#DejaVuSans-35" x="222.65625"/>
     </g>
    </g>
   </g>
   <g id="xtick_24">
    <g id="line2d_31">
     <path d="M 443.743697 138.262691 
L 442.925281 138.986054 
" style="fill: none; stroke: #000000; stroke-width: 0.8; stroke-linecap: square"/>
    </g>
    <g id="text_32">
     <!-- 0.01 -->
     <g transform="translate(424.792463 162.135661) scale(0.1 -0.1)">
      <use xlink:href="#DejaVuSans-30"/>
      <use xlink:href="#DejaVuSans-2e" x="63.623047"/>
      <use xlink:href="#DejaVuSans-30" x="95.410156"/>
      <use xlink:href="#DejaVuSans-31" x="159.033203"/>
     </g>
    </g>
   </g>
   <g id="xtick_25">
    <g id="line2d_32">
     <path d="M 455.488303 142.094689 
L 454.686237 142.834796 
" style="fill: none; stroke: #000000; stroke-width: 0.8; stroke-linecap: square"/>
    </g>
    <g id="text_33">
     <!-- 0.05 -->
     <g transform="translate(436.578153 166.199903) scale(0.1 -0.1)">
      <use xlink:href="#DejaVuSans-30"/>
      <use xlink:href="#DejaVuSans-2e" x="63.623047"/>
      <use xlink:href="#DejaVuSans-30" x="95.410156"/>
      <use xlink:href="#DejaVuSans-35" x="159.033203"/>
     </g>
    </g>
   </g>
   <g id="xtick_26">
    <g id="line2d_33">
     <path d="M 467.506068 146.015812 
L 466.721341 146.773252 
" style="fill: none; stroke: #000000; stroke-width: 0.8; stroke-linecap: square"/>
    </g>
    <g id="text_34">
     <!-- 0.1 -->
     <g transform="translate(451.822324 170.359747) scale(0.1 -0.1)">
      <use xlink:href="#DejaVuSans-30"/>
      <use xlink:href="#DejaVuSans-2e" x="63.623047"/>
      <use xlink:href="#DejaVuSans-31" x="95.410156"/>
     </g>
    </g>
   </g>
   <g id="text_35">
    <!-- support -->
    <g transform="translate(419.585753 174.794019) rotate(-341.912962) scale(0.1 -0.1)">
     <use xlink:href="#DejaVuSans-73"/>
     <use xlink:href="#DejaVuSans-75" x="52.099609"/>
     <use xlink:href="#DejaVuSans-70" x="115.478516"/>
     <use xlink:href="#DejaVuSans-70" x="178.955078"/>
     <use xlink:href="#DejaVuSans-6f" x="242.431641"/>
     <use xlink:href="#DejaVuSans-72" x="303.613281"/>
     <use xlink:href="#DejaVuSans-74" x="344.726562"/>
    </g>
   </g>
  </g>
  <g id="axis3d_8">
   <g id="line2d_34">
    <path d="M 512.154781 121.758451 
L 483.1958 151.47749 
" style="fill: none; stroke: #000000; stroke-width: 0.8; stroke-linecap: square"/>
   </g>
   <g id="xtick_27">
    <g id="line2d_35">
     <path d="M 484.741888 149.272861 
L 486.116018 149.718148 
" style="fill: none; stroke: #000000; stroke-width: 0.8; stroke-linecap: square"/>
    </g>
    <g id="text_36">
     <!-- 1000 -->
     <g transform="translate(485.368622 170.45691) scale(0.1 -0.1)">
      <use xlink:href="#DejaVuSans-31"/>
      <use xlink:href="#DejaVuSans-30" x="63.623047"/>
      <use xlink:href="#DejaVuSans-30" x="127.246094"/>
      <use xlink:href="#DejaVuSans-30" x="190.869141"/>
     </g>
    </g>
   </g>
   <g id="xtick_28">
    <g id="line2d_36">
     <path d="M 491.44122 142.410014 
L 492.79642 142.837718 
" style="fill: none; stroke: #000000; stroke-width: 0.8; stroke-linecap: square"/>
    </g>
    <g id="text_37">
     <!-- 2000 -->
     <g transform="translate(491.814945 163.308803) scale(0.1 -0.1)">
      <use xlink:href="#DejaVuSans-32"/>
      <use xlink:href="#DejaVuSans-30" x="63.623047"/>
      <use xlink:href="#DejaVuSans-30" x="127.246094"/>
      <use xlink:href="#DejaVuSans-30" x="190.869141"/>
     </g>
    </g>
   </g>
   <g id="xtick_29">
    <g id="line2d_37">
     <path d="M 497.878743 135.815366 
L 499.215428 136.226509 
" style="fill: none; stroke: #000000; stroke-width: 0.8; stroke-linecap: square"/>
    </g>
    <g id="text_38">
     <!-- 5000 -->
     <g transform="translate(498.008844 156.440601) scale(0.1 -0.1)">
      <use xlink:href="#DejaVuSans-35"/>
      <use xlink:href="#DejaVuSans-30" x="63.623047"/>
      <use xlink:href="#DejaVuSans-30" x="127.246094"/>
      <use xlink:href="#DejaVuSans-30" x="190.869141"/>
     </g>
    </g>
   </g>
   <g id="xtick_30">
    <g id="line2d_38">
     <path d="M 504.06951 129.473497 
L 505.38809 129.869022 
" style="fill: none; stroke: #000000; stroke-width: 0.8; stroke-linecap: square"/>
    </g>
    <g id="text_39">
     <!-- 10000 -->
     <g transform="translate(500.783612 149.836178) scale(0.1 -0.1)">
      <use xlink:href="#DejaVuSans-31"/>
      <use xlink:href="#DejaVuSans-30" x="63.623047"/>
      <use xlink:href="#DejaVuSans-30" x="127.246094"/>
      <use xlink:href="#DejaVuSans-30" x="190.869141"/>
      <use xlink:href="#DejaVuSans-30" x="254.492188"/>
     </g>
    </g>
   </g>
   <g id="text_40">
    <!-- window -->
    <g transform="translate(514.089759 179.537616) rotate(-45.742112) scale(0.1 -0.1)">
     <use xlink:href="#DejaVuSans-77"/>
     <use xlink:href="#DejaVuSans-69" x="81.787109"/>
     <use xlink:href="#DejaVuSans-6e" x="109.570312"/>
     <use xlink:href="#DejaVuSans-64" x="172.949219"/>
     <use xlink:href="#DejaVuSans-6f" x="236.425781"/>
     <use xlink:href="#DejaVuSans-77" x="297.607422"/>
    </g>
   </g>
  </g>
  <g id="axis3d_9">
   <g id="line2d_39">
    <path d="M 512.154781 121.758451 
L 513.989918 81.683747 
" style="fill: none; stroke: #000000; stroke-width: 0.8; stroke-linecap: square"/>
   </g>
   <g id="xtick_31">
    <g id="line2d_40">
     <path d="M 511.723193 121.633005 
L 513.018983 122.00964 
" style="fill: none; stroke: #000000; stroke-width: 0.8; stroke-linecap: square"/>
    </g>
    <g id="text_41">
     <!-- 0.0 -->
     <g transform="translate(522.357032 126.765427) scale(0.1 -0.1)">
      <use xlink:href="#DejaVuSans-30"/>
      <use xlink:href="#DejaVuSans-2e" x="63.623047"/>
      <use xlink:href="#DejaVuSans-30" x="95.410156"/>
     </g>
    </g>
   </g>
   <g id="xtick_32">
    <g id="line2d_41">
     <path d="M 512.610845 102.039815 
L 513.936125 102.400897 
" style="fill: none; stroke: #000000; stroke-width: 0.8; stroke-linecap: square"/>
    </g>
    <g id="text_42">
     <!-- 0.5 -->
     <g transform="translate(523.64139 107.274532) scale(0.1 -0.1)">
      <use xlink:href="#DejaVuSans-30"/>
      <use xlink:href="#DejaVuSans-2e" x="63.623047"/>
      <use xlink:href="#DejaVuSans-35" x="95.410156"/>
     </g>
    </g>
   </g>
   <g id="xtick_33">
    <g id="line2d_42">
     <path d="M 513.538245 81.569261 
L 514.894387 81.913003 
" style="fill: none; stroke: #000000; stroke-width: 0.8; stroke-linecap: square"/>
    </g>
    <g id="text_43">
     <!-- 1.0 -->
     <g transform="translate(524.982792 86.917952) scale(0.1 -0.1)">
      <use xlink:href="#DejaVuSans-31"/>
      <use xlink:href="#DejaVuSans-2e" x="63.623047"/>
      <use xlink:href="#DejaVuSans-30" x="95.410156"/>
     </g>
    </g>
   </g>
   <g id="text_44">
    <!-- recall -->
    <g transform="translate(555.100422 110.53549) rotate(-87.378092) scale(0.1 -0.1)">
     <use xlink:href="#DejaVuSans-72"/>
     <use xlink:href="#DejaVuSans-65" x="38.863281"/>
     <use xlink:href="#DejaVuSans-63" x="100.386719"/>
     <use xlink:href="#DejaVuSans-61" x="155.367188"/>
     <use xlink:href="#DejaVuSans-6c" x="216.646484"/>
     <use xlink:href="#DejaVuSans-6c" x="244.429688"/>
    </g>
   </g>
  </g>
  <g id="axes_3">
   <g id="Poly3DCollection_3">
    <path d="M 461.986534 109.308079 
L 461.974226 108.095109 
L 472.89391 111.278713 
L 472.89161 112.500107 
z
" clip-path="url(#p97b4e4c784)" style="fill: #552258"/>
    <path d="M 455.417177 114.879604 
L 455.395698 113.651989 
L 461.974226 108.095109 
L 461.986534 109.308079 
z
" clip-path="url(#p97b4e4c784)" style="fill: #b549bb"/>
    <path d="M 455.417177 114.879604 
L 461.986534 109.308079 
L 472.89161 112.500107 
L 466.453825 118.190188 
z
" clip-path="url(#p97b4e4c784)" style="fill: #6d2c71"/>
    <path d="M 455.395698 113.651989 
L 466.447306 116.954001 
L 472.89391 111.278713 
L 461.974226 108.095109 
z
" clip-path="url(#p97b4e4c784)" style="fill: #9d3fa2"/>
    <path d="M 472.89161 112.500107 
L 472.896396 109.958925 
L 484.064302 113.200864 
L 484.027823 115.759791 
z
" clip-path="url(#p97b4e4c784)" style="fill: #1e3b20"/>
    <path d="M 466.453825 118.190188 
L 472.89161 112.500107 
L 472.89391 111.278713 
L 466.447306 116.954001 
z
" clip-path="url(#p97b4e4c784)" style="fill: #552258"/>
    <path d="M 466.453825 118.190188 
L 466.440262 115.618157 
L 472.896396 109.958925 
L 472.89161 112.500107 
z
" clip-path="url(#p97b4e4c784)" style="fill: #3f7c43"/>
    <path d="M 455.417177 114.879604 
L 466.453825 118.190188 
L 466.447306 116.954001 
L 455.395698 113.651989 
z
" clip-path="url(#p97b4e4c784)" style="fill: #b549bb"/>
    <path d="M 466.453825 118.190188 
L 472.89161 112.500107 
L 484.027823 115.759791 
L 477.728771 121.572253 
z
" clip-path="url(#p97b4e4c784)" style="fill: #264b28"/>
    <path d="M 466.440262 115.618157 
L 477.7477 118.982164 
L 484.064302 113.200864 
L 472.896396 109.958925 
z
" clip-path="url(#p97b4e4c784)" style="fill: #376c3a"/>
    <path d="M 484.027823 115.759791 
L 484.07537 112.42445 
L 495.493237 115.730568 
L 495.402599 119.089304 
z
" clip-path="url(#p97b4e4c784)" style="fill: #514e4d"/>
    <path d="M 477.728771 121.572253 
L 484.027823 115.759791 
L 484.064302 113.200864 
L 477.7477 118.982164 
z
" clip-path="url(#p97b4e4c784)" style="fill: #1e3b20"/>
    <path d="M 477.728771 121.572253 
L 477.753443 118.196241 
L 484.07537 112.42445 
L 484.027823 115.759791 
z
" clip-path="url(#p97b4e4c784)" style="fill: #ada5a3"/>
    <path d="M 466.453825 118.190188 
L 466.45148 117.745552 
L 477.732043 121.124507 
L 477.728771 121.572253 
z
" clip-path="url(#p97b4e4c784)" style="fill: #623b50"/>
    <path d="M 466.453825 118.190188 
L 477.728771 121.572253 
L 477.7477 118.982164 
L 466.440262 115.618157 
z
" clip-path="url(#p97b4e4c784)" style="fill: #3f7c43"/>
    <path d="M 477.728771 121.572253 
L 484.027823 115.759791 
L 495.402599 119.089304 
L 489.249818 125.02814 
z
" clip-path="url(#p97b4e4c784)" style="fill: #686462"/>
    <path d="M 459.773362 124.094761 
L 459.767604 123.644719 
L 466.45148 117.745552 
L 466.453825 118.190188 
z
" clip-path="url(#p97b4e4c784)" style="fill: #d07eaa"/>
    <path d="M 495.402599 119.089304 
L 495.502632 115.382428 
L 507.173341 118.757943 
L 507.023686 122.490916 
z
" clip-path="url(#p97b4e4c784)" style="fill: #31234f"/>
    <path d="M 477.753443 118.196241 
L 489.318707 121.628325 
L 495.493237 115.730568 
L 484.07537 112.42445 
z
" clip-path="url(#p97b4e4c784)" style="fill: #968f8d"/>
    <path d="M 489.249818 125.02814 
L 495.402599 119.089304 
L 495.493237 115.730568 
L 489.318707 121.628325 
z
" clip-path="url(#p97b4e4c784)" style="fill: #514e4d"/>
    <path d="M 489.249818 125.02814 
L 489.325848 121.275899 
L 495.502632 115.382428 
L 495.402599 119.089304 
z
" clip-path="url(#p97b4e4c784)" style="fill: #694ba8"/>
    <path d="M 459.773362 124.094761 
L 466.453825 118.190188 
L 477.728771 121.572253 
L 471.189659 127.606231 
z
" clip-path="url(#p97b4e4c784)" style="fill: #7e4c66"/>
    <path d="M 459.767604 123.644719 
L 471.189659 127.153026 
L 477.732043 121.124507 
L 466.45148 117.745552 
z
" clip-path="url(#p97b4e4c784)" style="fill: #b56d93"/>
    <path d="M 477.728771 121.572253 
L 477.734533 120.783712 
L 489.265908 124.234064 
L 489.249818 125.02814 
z
" clip-path="url(#p97b4e4c784)" style="fill: #2a350a"/>
    <path d="M 489.249818 125.02814 
L 495.402599 119.089304 
L 507.023686 122.490916 
L 501.025112 128.56029 
z
" clip-path="url(#p97b4e4c784)" style="fill: #3f2d65"/>
    <path d="M 477.728771 121.572253 
L 489.249818 125.02814 
L 489.318707 121.628325 
L 477.753443 118.196241 
z
" clip-path="url(#p97b4e4c784)" style="fill: #ada5a3"/>
    <path d="M 471.189659 127.606231 
L 477.728771 121.572253 
L 477.732043 121.124507 
L 471.189659 127.153026 
z
" clip-path="url(#p97b4e4c784)" style="fill: #623b50"/>
    <path d="M 471.189659 127.606231 
L 471.189659 126.80807 
L 477.734533 120.783712 
L 477.728771 121.572253 
z
" clip-path="url(#p97b4e4c784)" style="fill: #587115"/>
    <path d="M 489.325848 121.275899 
L 501.152106 124.781506 
L 507.173341 118.757943 
L 495.502632 115.382428 
z
" clip-path="url(#p97b4e4c784)" style="fill: #5b4192"/>
    <path d="M 459.773362 124.094761 
L 471.189659 127.606231 
L 471.189659 127.153026 
L 459.767604 123.644719 
z
" clip-path="url(#p97b4e4c784)" style="fill: #d07eaa"/>
    <path d="M 501.025112 128.56029 
L 507.023686 122.490916 
L 507.173341 118.757943 
L 501.152106 124.781506 
z
" clip-path="url(#p97b4e4c784)" style="fill: #31234f"/>
    <path d="M 471.189659 127.606231 
L 477.728771 121.572253 
L 489.249818 125.02814 
L 482.859944 131.195824 
z
" clip-path="url(#p97b4e4c784)" style="fill: #35440c"/>
    <path d="M 471.189659 126.80807 
L 482.870541 130.392036 
L 489.265908 124.234064 
L 477.734533 120.783712 
z
" clip-path="url(#p97b4e4c784)" style="fill: #4c6212"/>
    <path d="M 489.249818 125.02814 
L 489.281901 123.44478 
L 501.078699 126.965773 
L 501.025112 128.56029 
z
" clip-path="url(#p97b4e4c784)" style="fill: #4c5a3d"/>
    <path d="M 489.249818 125.02814 
L 501.025112 128.56029 
L 501.152106 124.781506 
L 489.325848 121.275899 
z
" clip-path="url(#p97b4e4c784)" style="fill: #694ba8"/>
    <path d="M 482.859944 131.195824 
L 489.249818 125.02814 
L 489.265908 124.234064 
L 482.870541 130.392036 
z
" clip-path="url(#p97b4e4c784)" style="fill: #2a350a"/>
    <path d="M 482.859944 131.195824 
L 482.881075 129.593071 
L 489.281901 123.44478 
L 489.249818 125.02814 
z
" clip-path="url(#p97b4e4c784)" style="fill: #a1be81"/>
    <path d="M 471.189659 127.606231 
L 471.189659 127.465451 
L 482.861813 131.054052 
L 482.859944 131.195824 
z
" clip-path="url(#p97b4e4c784)" style="fill: #19585d"/>
    <path d="M 471.189659 127.606231 
L 482.859944 131.195824 
L 482.870541 130.392036 
L 471.189659 126.80807 
z
" clip-path="url(#p97b4e4c784)" style="fill: #587115"/>
    <path d="M 482.859944 131.195824 
L 489.249818 125.02814 
L 501.025112 128.56029 
L 494.792787 134.866175 
z
" clip-path="url(#p97b4e4c784)" style="fill: #61734e"/>
    <path d="M 482.881075 129.593071 
L 494.836007 133.252081 
L 501.078699 126.965773 
L 489.281901 123.44478 
z
" clip-path="url(#p97b4e4c784)" style="fill: #8ca570"/>
    <path d="M 464.396499 133.874633 
L 464.395402 133.73213 
L 471.189659 127.465451 
L 471.189659 127.606231 
z
" clip-path="url(#p97b4e4c784)" style="fill: #36bbc6"/>
    <path d="M 494.792787 134.866175 
L 501.025112 128.56029 
L 501.078699 126.965773 
L 494.836007 133.252081 
z
" clip-path="url(#p97b4e4c784)" style="fill: #4c5a3d"/>
    <path d="M 464.396499 133.874633 
L 471.189659 127.606231 
L 482.859944 131.195824 
L 476.219003 137.605845 
z
" clip-path="url(#p97b4e4c784)" style="fill: #207178"/>
    <path d="M 464.395402 133.73213 
L 476.219824 137.462334 
L 482.861813 131.054052 
L 471.189659 127.465451 
z
" clip-path="url(#p97b4e4c784)" style="fill: #2fa2ac"/>
    <path d="M 482.859944 131.195824 
L 482.865142 130.801542 
L 494.803419 134.46911 
L 494.792787 134.866175 
z
" clip-path="url(#p97b4e4c784)" style="fill: #35164c"/>
    <path d="M 482.859944 131.195824 
L 494.792787 134.866175 
L 494.836007 133.252081 
L 482.881075 129.593071 
z
" clip-path="url(#p97b4e4c784)" style="fill: #a1be81"/>
    <path d="M 476.219003 137.605845 
L 482.859944 131.195824 
L 482.861813 131.054052 
L 476.219824 137.462334 
z
" clip-path="url(#p97b4e4c784)" style="fill: #19585d"/>
    <path d="M 476.219003 137.605845 
L 476.221287 137.206725 
L 482.865142 130.801542 
L 482.859944 131.195824 
z
" clip-path="url(#p97b4e4c784)" style="fill: #702ea1"/>
    <path d="M 464.396499 133.874633 
L 464.396368 133.857651 
L 476.219101 137.588742 
L 476.219003 137.605845 
z
" clip-path="url(#p97b4e4c784)" style="fill: #37252c"/>
    <path d="M 464.396499 133.874633 
L 476.219003 137.605845 
L 476.219824 137.462334 
L 464.395402 133.73213 
z
" clip-path="url(#p97b4e4c784)" style="fill: #36bbc6"/>
    <path d="M 476.219003 137.605845 
L 482.859944 131.195824 
L 494.792787 134.866175 
L 488.312775 141.422669 
z
" clip-path="url(#p97b4e4c784)" style="fill: #431c61"/>
    <path d="M 476.221287 137.206725 
L 488.320642 141.020722 
L 494.803419 134.46911 
L 482.865142 130.801542 
z
" clip-path="url(#p97b4e4c784)" style="fill: #61288b"/>
    <path d="M 457.334192 140.391391 
L 457.33392 140.3742 
L 464.396368 133.857651 
L 464.396499 133.874633 
z
" clip-path="url(#p97b4e4c784)" style="fill: #764e5d"/>
    <path d="M 488.312775 141.422669 
L 494.792787 134.866175 
L 494.803419 134.46911 
L 488.320642 141.020722 
z
" clip-path="url(#p97b4e4c784)" style="fill: #35164c"/>
    <path d="M 457.334192 140.391391 
L 464.396499 133.874633 
L 476.219003 137.605845 
L 469.311902 144.272771 
z
" clip-path="url(#p97b4e4c784)" style="fill: #472f38"/>
    <path d="M 457.33392 140.3742 
L 469.311865 144.255458 
L 476.219101 137.588742 
L 464.396368 133.857651 
z
" clip-path="url(#p97b4e4c784)" style="fill: #664350"/>
    <path d="M 476.219003 137.605845 
L 476.21959 137.503342 
L 488.314796 141.319441 
L 488.312775 141.422669 
z
" clip-path="url(#p97b4e4c784)" style="fill: #1f1f1b"/>
    <path d="M 476.219003 137.605845 
L 488.312775 141.422669 
L 488.320642 141.020722 
L 476.221287 137.206725 
z
" clip-path="url(#p97b4e4c784)" style="fill: #702ea1"/>
    <path d="M 469.311902 144.272771 
L 476.219003 137.605845 
L 476.219101 137.588742 
L 469.311865 144.255458 
z
" clip-path="url(#p97b4e4c784)" style="fill: #37252c"/>
    <path d="M 469.311902 144.272771 
L 469.311678 144.169007 
L 476.21959 137.503342 
L 476.219003 137.605845 
z
" clip-path="url(#p97b4e4c784)" style="fill: #42413a"/>
    <path d="M 457.334192 140.391391 
L 469.311902 144.272771 
L 469.311865 144.255458 
L 457.33392 140.3742 
z
" clip-path="url(#p97b4e4c784)" style="fill: #764e5d"/>
    <path d="M 469.311902 144.272771 
L 476.219003 137.605845 
L 488.312775 141.422669 
L 481.570014 148.245014 
z
" clip-path="url(#p97b4e4c784)" style="fill: #282723"/>
    <path d="M 469.311678 144.169007 
L 481.571264 148.140514 
L 488.314796 141.319441 
L 476.21959 137.503342 
z
" clip-path="url(#p97b4e4c784)" style="fill: #3a3932"/>
    <path d="M 481.570014 148.245014 
L 488.312775 141.422669 
L 488.314796 141.319441 
L 481.571264 148.140514 
z
" clip-path="url(#p97b4e4c784)" style="fill: #1f1f1b"/>
    <path d="M 469.311902 144.272771 
L 481.570014 148.245014 
L 481.571264 148.140514 
L 469.311678 144.169007 
z
" clip-path="url(#p97b4e4c784)" style="fill: #42413a"/>
   </g>
   <g id="text_45">
    <!-- graph -->
    <g transform="translate(452.314198 54.558261) scale(0.12 -0.12)">
     <use xlink:href="#DejaVuSans-67"/>
     <use xlink:href="#DejaVuSans-72" x="63.476562"/>
     <use xlink:href="#DejaVuSans-61" x="104.589844"/>
     <use xlink:href="#DejaVuSans-70" x="165.869141"/>
     <use xlink:href="#DejaVuSans-68" x="229.345703"/>
    </g>
   </g>
  </g>
 </g>
 <defs>
  <clipPath id="p18fd7bde75">
   <rect x="188.452174" y="60.558261" width="97.043478" height="97.043478"/>
  </clipPath>
  <clipPath id="pa211b8a25d">
   <rect x="304.904348" y="60.558261" width="97.043478" height="97.043478"/>
  </clipPath>
  <clipPath id="p97b4e4c784">
   <rect x="421.356522" y="60.558261" width="97.043478" height="97.043478"/>
  </clipPath>
 </defs>
</svg>
